<svg width="7" height="12" viewBox="0 0 7 12" fill="none" xmlns="http://www.w3.org/2000/svg">
<path fill-rule="evenodd" clip-rule="evenodd" d="M0.29767 7.4377C0.427637 7.29599 0.638354 7.29599 0.76832 7.4377L2.96007 9.82742C3.09004 9.96913 3.30075 9.96913 3.43072 9.82742L5.62247 7.4377C5.75244 7.296 5.96315 7.296 6.09312 7.4377C6.22309 7.57941 6.22309 7.80916 6.09312 7.95086L3.90137 10.3406C3.51147 10.7657 2.87932 10.7657 2.48942 10.3406L0.29767 7.95086C0.167704 7.80916 0.167704 7.57941 0.29767 7.4377Z" fill="white"/>
<path fill-rule="evenodd" clip-rule="evenodd" d="M6.0932 3.23149C5.96323 3.3732 5.75252 3.3732 5.62255 3.23149L3.4308 0.841768C3.30083 0.700062 3.09012 0.700062 2.96015 0.841768L0.768399 3.23149C0.638432 3.37319 0.427715 3.37319 0.297748 3.23149C0.167782 3.08978 0.167782 2.86003 0.297748 2.71833L2.4895 0.328607C2.8794 -0.0965104 3.51155 -0.0965114 3.90145 0.328606L6.0932 2.71833C6.22317 2.86003 6.22317 3.08978 6.0932 3.23149Z" fill="white"/>
</svg>
