<svg width="97" height="67" viewBox="0 0 97 67" fill="none" xmlns="http://www.w3.org/2000/svg">
<g filter="url(#filter0_f_248_167)">
<path d="M8.65408 12.7514C8.65408 11.7984 8.77762 10.9223 9.02469 10.1231C9.27429 9.32133 9.62979 8.58388 10.0912 7.91071H10.8778C10.6963 8.16031 10.5261 8.4679 10.3672 8.83348C10.2109 9.19653 10.0735 9.59614 9.95502 10.0323C9.83653 10.466 9.74324 10.9147 9.67517 11.3786C9.60962 11.8425 9.57684 12.3001 9.57684 12.7514C9.57684 13.3515 9.63483 13.9604 9.7508 14.5781C9.86678 15.1958 10.0231 15.7693 10.2197 16.2988C10.4164 16.8282 10.6357 17.2594 10.8778 17.5922H10.0912C9.62979 16.919 9.27429 16.1828 9.02469 15.3836C8.77762 14.5818 8.65408 13.7045 8.65408 12.7514ZM14.6 16.7299C14.1563 16.7299 13.7567 16.6417 13.4012 16.4652C13.0457 16.2887 12.7608 16.0467 12.5465 15.7391C12.3322 15.4315 12.215 15.081 12.1948 14.6877H13.1024C13.1377 15.0382 13.2966 15.3281 13.5789 15.5576C13.8638 15.7845 14.2042 15.8979 14.6 15.8979C14.9177 15.8979 15.2001 15.8235 15.4472 15.6748C15.6968 15.526 15.8922 15.3218 16.0333 15.0621C16.1771 14.7999 16.2489 14.5037 16.2489 14.1734C16.2489 13.8356 16.1745 13.5343 16.0258 13.2696C15.8796 13.0023 15.6779 12.7918 15.4207 12.638C15.1635 12.4842 14.8698 12.406 14.5395 12.4035C14.3025 12.401 14.0592 12.4376 13.8096 12.5132C13.56 12.5863 13.3546 12.6808 13.1932 12.7968L12.3158 12.6909L12.7848 8.87886H16.8086V9.71086H13.5714L13.2991 11.9951H13.3445C13.5033 11.869 13.7025 11.7644 13.942 11.6812C14.1815 11.598 14.4311 11.5564 14.6908 11.5564C15.1648 11.5564 15.5871 11.6698 15.9577 11.8968C16.3309 12.1211 16.6233 12.4287 16.8351 12.8195C17.0494 13.2103 17.1565 13.6566 17.1565 14.1583C17.1565 14.6524 17.0456 15.0936 16.8237 15.4819C16.6044 15.8677 16.3019 16.1727 15.9161 16.3971C15.5304 16.619 15.0917 16.7299 14.6 16.7299ZM21.1851 16.7299C20.6153 16.7299 20.13 16.5749 19.7291 16.2648C19.3283 15.9521 19.0219 15.4996 18.8101 14.9071C18.5984 14.3121 18.4925 13.5935 18.4925 12.7514C18.4925 11.9144 18.5984 11.1996 18.8101 10.6072C19.0245 10.0121 19.332 9.55833 19.7329 9.2457C20.1363 8.93054 20.6204 8.77297 21.1851 8.77297C21.7499 8.77297 22.2327 8.93054 22.6336 9.2457C23.037 9.55833 23.3445 10.0121 23.5563 10.6072C23.7706 11.1996 23.8778 11.9144 23.8778 12.7514C23.8778 13.5935 23.7719 14.3121 23.5601 14.9071C23.3483 15.4996 23.042 15.9521 22.6411 16.2648C22.2403 16.5749 21.7549 16.7299 21.1851 16.7299ZM21.1851 15.8979C21.7499 15.8979 22.1886 15.6256 22.5012 15.081C22.8138 14.5365 22.9701 13.7599 22.9701 12.7514C22.9701 12.0808 22.8983 11.5097 22.7546 11.0383C22.6134 10.5668 22.4092 10.2075 22.1419 9.96046C21.8772 9.71338 21.5583 9.58984 21.1851 9.58984C20.6254 9.58984 20.188 9.86591 19.8728 10.4181C19.5577 10.9677 19.4001 11.7455 19.4001 12.7514C19.4001 13.4221 19.4707 13.9919 19.6119 14.4608C19.7531 14.9298 19.956 15.2865 20.2208 15.5311C20.488 15.7756 20.8095 15.8979 21.1851 15.8979ZM27.9319 16.7299C27.4327 16.7299 26.9877 16.6442 26.5969 16.4728C26.2086 16.3013 25.8998 16.0631 25.6704 15.758C25.4435 15.4504 25.3199 15.0936 25.2998 14.6877H26.2528C26.2729 14.9373 26.3587 15.1529 26.5099 15.3344C26.6612 15.5134 26.8591 15.6521 27.1037 15.7504C27.3482 15.8488 27.6193 15.8979 27.9168 15.8979C28.2496 15.8979 28.5446 15.8399 28.8017 15.724C29.0589 15.608 29.2606 15.4466 29.4068 15.2399C29.553 15.0331 29.6262 14.7936 29.6262 14.5213C29.6262 14.2364 29.5556 13.9856 29.4144 13.7688C29.2732 13.5494 29.0664 13.378 28.7942 13.2544C28.5219 13.1309 28.1891 13.0691 27.7958 13.0691H27.1755V12.2371H27.7958C28.1033 12.2371 28.3731 12.1816 28.6051 12.0707C28.8395 11.9598 29.0223 11.8035 29.1534 11.6018C29.287 11.4001 29.3539 11.1631 29.3539 10.8908C29.3539 10.6286 29.2959 10.4004 29.1799 10.2063C29.0639 10.0121 28.9 9.86087 28.6883 9.75246C28.479 9.64405 28.2319 9.58984 27.947 9.58984C27.6798 9.58984 27.4277 9.63901 27.1907 9.73733C26.9562 9.83314 26.7646 9.97307 26.6158 10.1571C26.4671 10.3386 26.3864 10.558 26.3738 10.8152H25.4662C25.4813 10.4092 25.6036 10.0537 25.833 9.74868C26.0624 9.44109 26.3624 9.20157 26.7331 9.03013C27.1062 8.85869 27.5159 8.77297 27.9622 8.77297C28.4412 8.77297 28.8521 8.87004 29.195 9.06417C29.5379 9.25578 29.8014 9.50916 29.9854 9.82431C30.1695 10.1395 30.2615 10.4798 30.2615 10.8454C30.2615 11.2816 30.1468 11.6535 29.9174 11.961C29.6904 12.2686 29.3816 12.4817 28.9908 12.6002V12.6607C29.4799 12.7414 29.8619 12.9494 30.1367 13.2847C30.4115 13.6175 30.5489 14.0297 30.5489 14.5213C30.5489 14.9424 30.4342 15.3206 30.2048 15.6559C29.9779 15.9887 29.6678 16.2509 29.2744 16.4425C28.8811 16.6341 28.4336 16.7299 27.9319 16.7299ZM34.0168 12.7514C34.0168 13.7045 33.892 14.5818 33.6424 15.3836C33.3954 16.1828 33.0411 16.919 32.5798 17.5922H31.7931C31.9747 17.3426 32.1436 17.035 32.2999 16.6694C32.4587 16.3064 32.5974 15.908 32.7159 15.4744C32.8344 15.0382 32.9264 14.5881 32.992 14.1242C33.06 13.6578 33.0941 13.2002 33.0941 12.7514C33.0941 12.1514 33.0361 11.5425 32.9201 10.9248C32.8041 10.3071 32.6478 9.73355 32.4512 9.2041C32.2545 8.67464 32.0352 8.24351 31.7931 7.91071H32.5798C33.0411 8.58388 33.3954 9.32133 33.6424 10.1231C33.892 10.9223 34.0168 11.7984 34.0168 12.7514ZM39.2972 12.3354V13.1674H35.9087V12.3354H39.2972ZM43.4241 16.7299C43.1064 16.7249 42.7888 16.6644 42.4711 16.5484C42.1534 16.4324 41.8635 16.237 41.6013 15.9622C41.3391 15.6849 41.1285 15.3105 40.9697 14.839C40.8109 14.365 40.7315 13.77 40.7315 13.054C40.7315 12.3682 40.7957 11.7606 40.9243 11.2312C41.0529 10.6992 41.2395 10.2517 41.484 9.88861C41.7286 9.52303 42.0236 9.2457 42.369 9.0566C42.7169 8.86751 43.109 8.77297 43.5451 8.77297C43.9788 8.77297 44.3645 8.85995 44.7024 9.03391C45.0427 9.20536 45.3201 9.44487 45.5344 9.75246C45.7487 10.06 45.8873 10.4143 45.9504 10.8152H45.0276C44.9419 10.4672 44.7755 10.1785 44.5284 9.94911C44.2813 9.71968 43.9536 9.60497 43.5451 9.60497C42.9451 9.60497 42.4724 9.86591 42.1269 10.3878C41.7841 10.9097 41.6114 11.6421 41.6088 12.585H41.6693C41.8105 12.3707 41.9782 12.188 42.1723 12.0367C42.369 11.8829 42.5858 11.7644 42.8228 11.6812C43.0598 11.598 43.3107 11.5564 43.5754 11.5564C44.0191 11.5564 44.425 11.6673 44.7931 11.8892C45.1612 12.1085 45.4562 12.4123 45.6781 12.8006C45.8999 13.1864 46.0109 13.6288 46.0109 14.128C46.0109 14.6071 45.9037 15.0457 45.6894 15.4441C45.4751 15.8399 45.1738 16.1551 44.7856 16.3896C44.3998 16.6215 43.946 16.735 43.4241 16.7299ZM43.4241 15.8979C43.7418 15.8979 44.0267 15.8185 44.2788 15.6597C44.5334 15.5008 44.7339 15.2878 44.8801 15.0205C45.0289 14.7533 45.1032 14.4558 45.1032 14.128C45.1032 13.8078 45.0314 13.5166 44.8877 13.2544C44.7465 12.9897 44.5511 12.7792 44.3015 12.6229C44.0544 12.4665 43.772 12.3884 43.4544 12.3884C43.2149 12.3884 42.9917 12.4363 42.785 12.5321C42.5782 12.6254 42.3967 12.754 42.2404 12.9178C42.0866 13.0817 41.9656 13.2696 41.8773 13.4813C41.7891 13.6906 41.745 13.9112 41.745 14.1432C41.745 14.4507 41.8168 14.7382 41.9605 15.0054C42.1068 15.2727 42.306 15.4882 42.5581 15.6521C42.8127 15.816 43.1014 15.8979 43.4241 15.8979ZM47.7401 16.624L51.2043 9.77137V9.71086H47.2107V8.87886H52.1724V9.75624L48.7234 16.624H47.7401ZM56.305 8.87886V16.624H55.3671V9.86213H55.3217L53.4308 11.1177V10.1647L55.3671 8.87886H56.305ZM61.8756 12.3354V13.1674H58.4871V12.3354H61.8756ZM66.0025 16.7299C65.6848 16.7249 65.3672 16.6644 65.0495 16.5484C64.7318 16.4324 64.4419 16.237 64.1797 15.9622C63.9175 15.6849 63.7069 15.3105 63.5481 14.839C63.3893 14.365 63.3099 13.77 63.3099 13.054C63.3099 12.3682 63.3741 11.7606 63.5027 11.2312C63.6313 10.6992 63.8179 10.2517 64.0624 9.88861C64.307 9.52303 64.602 9.2457 64.9474 9.0566C65.2953 8.86751 65.6874 8.77297 66.1235 8.77297C66.5572 8.77297 66.9429 8.85995 67.2808 9.03391C67.6211 9.20536 67.8985 9.44487 68.1128 9.75246C68.3271 10.06 68.4657 10.4143 68.5288 10.8152H67.606C67.5203 10.4672 67.3539 10.1785 67.1068 9.94911C66.8597 9.71968 66.532 9.60497 66.1235 9.60497C65.5235 9.60497 65.0508 9.86591 64.7053 10.3878C64.3625 10.9097 64.1898 11.6421 64.1872 12.585H64.2477C64.3889 12.3707 64.5566 12.188 64.7507 12.0367C64.9474 11.8829 65.1642 11.7644 65.4012 11.6812C65.6382 11.598 65.8891 11.5564 66.1538 11.5564C66.5975 11.5564 67.0034 11.6673 67.3715 11.8892C67.7396 12.1085 68.0346 12.4123 68.2565 12.8006C68.4783 13.1864 68.5893 13.6288 68.5893 14.128C68.5893 14.6071 68.4821 15.0457 68.2678 15.4441C68.0535 15.8399 67.7522 16.1551 67.364 16.3896C66.9782 16.6215 66.5244 16.735 66.0025 16.7299ZM66.0025 15.8979C66.3202 15.8979 66.6051 15.8185 66.8572 15.6597C67.1118 15.5008 67.3123 15.2878 67.4585 15.0205C67.6073 14.7533 67.6816 14.4558 67.6816 14.128C67.6816 13.8078 67.6098 13.5166 67.4661 13.2544C67.3249 12.9897 67.1295 12.7792 66.8799 12.6229C66.6328 12.4665 66.3504 12.3884 66.0328 12.3884C65.7933 12.3884 65.5701 12.4363 65.3634 12.5321C65.1566 12.6254 64.9751 12.754 64.8188 12.9178C64.665 13.0817 64.544 13.2696 64.4557 13.4813C64.3675 13.6906 64.3234 13.9112 64.3234 14.1432C64.3234 14.4507 64.3952 14.7382 64.5389 15.0054C64.6852 15.2727 64.8844 15.4882 65.1365 15.6521C65.3911 15.816 65.6798 15.8979 66.0025 15.8979ZM69.8949 15.0357V14.2642L73.2986 8.87886H73.8583V10.0739H73.4801L70.9085 14.1432V14.2037H75.492V15.0357H69.8949ZM73.5406 16.624V14.8012V14.4419V8.87886H74.4331V16.624H73.5406ZM79.3296 16.7299C78.8859 16.7299 78.4863 16.6417 78.1308 16.4652C77.7753 16.2887 77.4904 16.0467 77.2761 15.7391C77.0618 15.4315 76.9446 15.081 76.9244 14.6877H77.832C77.8673 15.0382 78.0262 15.3281 78.3085 15.5576C78.5934 15.7845 78.9338 15.8979 79.3296 15.8979C79.6473 15.8979 79.9297 15.8235 80.1768 15.6748C80.4264 15.526 80.6218 15.3218 80.7629 15.0621C80.9067 14.7999 80.9785 14.5037 80.9785 14.1734C80.9785 13.8356 80.9041 13.5343 80.7554 13.2696C80.6092 13.0023 80.4075 12.7918 80.1503 12.638C79.8931 12.4842 79.5994 12.406 79.2691 12.4035C79.0321 12.401 78.7888 12.4376 78.5392 12.5132C78.2896 12.5863 78.0842 12.6808 77.9228 12.7968L77.0454 12.6909L77.5144 8.87886H81.5382V9.71086H78.301L78.0287 11.9951H78.0741C78.2329 11.869 78.4321 11.7644 78.6716 11.6812C78.9111 11.598 79.1607 11.5564 79.4204 11.5564C79.8944 11.5564 80.3167 11.6698 80.6873 11.8968C81.0604 12.1211 81.3529 12.4287 81.5647 12.8195C81.779 13.2103 81.8861 13.6566 81.8861 14.1583C81.8861 14.6524 81.7752 15.0936 81.5533 15.4819C81.334 15.8677 81.0315 16.1727 80.6457 16.3971C80.26 16.619 79.8213 16.7299 79.3296 16.7299ZM86.0055 16.7299C85.5063 16.7299 85.0613 16.6442 84.6705 16.4728C84.2822 16.3013 83.9734 16.0631 83.744 15.758C83.5171 15.4504 83.3935 15.0936 83.3733 14.6877H84.3264C84.3465 14.9373 84.4323 15.1529 84.5835 15.3344C84.7348 15.5134 84.9327 15.6521 85.1773 15.7504C85.4218 15.8488 85.6929 15.8979 85.9904 15.8979C86.3232 15.8979 86.6181 15.8399 86.8753 15.724C87.1325 15.608 87.3342 15.4466 87.4804 15.2399C87.6266 15.0331 87.6997 14.7936 87.6997 14.5213C87.6997 14.2364 87.6292 13.9856 87.488 13.7688C87.3468 13.5494 87.14 13.378 86.8677 13.2544C86.5955 13.1309 86.2627 13.0691 85.8693 13.0691H85.2491V12.2371H85.8693C86.1769 12.2371 86.4467 12.1816 86.6787 12.0707C86.9131 11.9598 87.0959 11.8035 87.227 11.6018C87.3606 11.4001 87.4275 11.1631 87.4275 10.8908C87.4275 10.6286 87.3695 10.4004 87.2535 10.2063C87.1375 10.0121 86.9736 9.86087 86.7619 9.75246C86.5526 9.64405 86.3055 9.58984 86.0206 9.58984C85.7534 9.58984 85.5013 9.63901 85.2643 9.73733C85.0298 9.83314 84.8382 9.97307 84.6894 10.1571C84.5407 10.3386 84.46 10.558 84.4474 10.8152H83.5397C83.5549 10.4092 83.6772 10.0537 83.9066 9.74868C84.136 9.44109 84.436 9.20157 84.8067 9.03013C85.1798 8.85869 85.5895 8.77297 86.0357 8.77297C86.5148 8.77297 86.9257 8.87004 87.2686 9.06417C87.6115 9.25578 87.875 9.50916 88.059 9.82431C88.2431 10.1395 88.3351 10.4798 88.3351 10.8454C88.3351 11.2816 88.2204 11.6535 87.9909 11.961C87.764 12.2686 87.4552 12.4817 87.0644 12.6002V12.6607C87.5535 12.7414 87.9355 12.9494 88.2103 13.2847C88.4851 13.6175 88.6225 14.0297 88.6225 14.5213C88.6225 14.9424 88.5078 15.3206 88.2784 15.6559C88.0515 15.9887 87.7413 16.2509 87.348 16.4425C86.9547 16.6341 86.5072 16.7299 86.0055 16.7299Z" fill="white"/>
</g>
<g filter="url(#filter1_f_248_167)">
<path d="M11.4224 29.6787H12.3603V35.2152C12.3603 35.7094 12.2695 36.1292 12.088 36.4746C11.9064 36.82 11.6505 37.0822 11.3203 37.2612C10.99 37.4402 10.6005 37.5297 10.1517 37.5297C9.72811 37.5297 9.35119 37.4528 9.02091 37.299C8.69063 37.1427 8.43095 36.9208 8.24186 36.6334C8.05277 36.346 7.95822 36.0044 7.95822 35.6086H8.88099C8.88099 35.8279 8.93519 36.0195 9.0436 36.1834C9.15454 36.3447 9.30581 36.4708 9.49742 36.5616C9.68903 36.6523 9.90712 36.6977 10.1517 36.6977C10.4214 36.6977 10.6509 36.641 10.84 36.5275C11.0291 36.4141 11.1728 36.2477 11.2711 36.0283C11.3719 35.8065 11.4224 35.5354 11.4224 35.2152V29.6787ZM15.8282 37.56C15.4601 37.56 15.126 37.4906 14.826 37.352C14.526 37.2108 14.2877 37.0078 14.1112 36.7431C13.9348 36.4759 13.8465 36.1531 13.8465 35.775C13.8465 35.4422 13.9121 35.1724 14.0432 34.9656C14.1743 34.7564 14.3495 34.5925 14.5688 34.474C14.7882 34.3555 15.0302 34.2673 15.2949 34.2093C15.5622 34.1488 15.8307 34.1009 16.1005 34.0656C16.4534 34.0202 16.7396 33.9862 16.9589 33.9635C17.1808 33.9383 17.3422 33.8967 17.443 33.8387C17.5464 33.7807 17.5981 33.6798 17.5981 33.5361V33.5059C17.5981 33.1327 17.496 32.8428 17.2917 32.636C17.0901 32.4293 16.7837 32.3259 16.3728 32.3259C15.9467 32.3259 15.6126 32.4192 15.3706 32.6058C15.1285 32.7924 14.9584 32.9915 14.86 33.2033L14.0129 32.9008C14.1642 32.5478 14.3659 32.273 14.618 32.0763C14.8726 31.8772 15.15 31.7385 15.45 31.6603C15.7525 31.5797 16.0501 31.5393 16.3425 31.5393C16.5291 31.5393 16.7434 31.562 16.9854 31.6074C17.23 31.6503 17.4657 31.7398 17.6926 31.8759C17.9221 32.012 18.1124 32.2175 18.2637 32.4923C18.4149 32.7671 18.4906 33.1352 18.4906 33.5966V37.4238H17.5981V36.6372H17.5527C17.4922 36.7633 17.3913 36.8982 17.2501 37.0419C17.109 37.1856 16.9211 37.3079 16.6867 37.4087C16.4522 37.5095 16.166 37.56 15.8282 37.56ZM15.9643 36.7582C16.3173 36.7582 16.6148 36.6889 16.8568 36.5502C17.1014 36.4116 17.2854 36.2326 17.409 36.0132C17.535 35.7939 17.5981 35.5632 17.5981 35.3211V34.5043C17.5603 34.5496 17.4771 34.5912 17.3485 34.6291C17.2224 34.6644 17.0762 34.6959 16.9098 34.7236C16.7459 34.7488 16.5858 34.7715 16.4295 34.7917C16.2757 34.8093 16.1509 34.8245 16.0551 34.8371C15.8231 34.8673 15.6063 34.9165 15.4046 34.9846C15.2054 35.0501 15.0441 35.1497 14.9205 35.2833C14.7995 35.4144 14.739 35.5934 14.739 35.8203C14.739 36.1304 14.8537 36.3649 15.0832 36.5238C15.3151 36.6801 15.6088 36.7582 15.9643 36.7582ZM21.0121 33.9294V37.4238H20.1196V31.615H20.9819V32.5226H21.0575C21.1936 32.2276 21.4004 31.9906 21.6777 31.8116C21.955 31.6301 22.3131 31.5393 22.7517 31.5393C23.1451 31.5393 23.4892 31.62 23.7842 31.7814C24.0792 31.9402 24.3086 32.1822 24.4725 32.5075C24.6364 32.8302 24.7183 33.2386 24.7183 33.7328V37.4238H23.8258V33.7933C23.8258 33.3369 23.7073 32.9815 23.4703 32.7268C23.2333 32.4696 22.9081 32.3411 22.4946 32.3411C22.2097 32.3411 21.955 32.4028 21.7307 32.5264C21.5088 32.6499 21.3336 32.8302 21.205 33.0672C21.0764 33.3042 21.0121 33.5916 21.0121 33.9294ZM26.3492 37.4238V31.615H27.2417V37.4238H26.3492ZM26.803 30.6468C26.6291 30.6468 26.479 30.5876 26.353 30.4691C26.2294 30.3506 26.1677 30.2081 26.1677 30.0417C26.1677 29.8753 26.2294 29.7329 26.353 29.6144C26.479 29.4959 26.6291 29.4366 26.803 29.4366C26.977 29.4366 27.1257 29.4959 27.2493 29.6144C27.3753 29.7329 27.4384 29.8753 27.4384 30.0417C27.4384 30.2081 27.3753 30.3506 27.2493 30.4691C27.1257 30.5876 26.977 30.6468 26.803 30.6468ZM29.7689 33.9294V37.4238H28.8764V31.615H29.7387V32.5226H29.8143C29.9504 32.2276 30.1572 31.9906 30.4345 31.8116C30.7118 31.6301 31.0699 31.5393 31.5086 31.5393C31.9019 31.5393 32.246 31.62 32.541 31.7814C32.836 31.9402 33.0654 32.1822 33.2293 32.5075C33.3932 32.8302 33.4751 33.2386 33.4751 33.7328V37.4238H32.5826V33.7933C32.5826 33.3369 32.4641 32.9815 32.2271 32.7268C31.9901 32.4696 31.6649 32.3411 31.2514 32.3411C30.9665 32.3411 30.7118 32.4028 30.4875 32.5264C30.2656 32.6499 30.0904 32.8302 29.9618 33.0672C29.8332 33.3042 29.7689 33.5916 29.7689 33.9294ZM37.4659 37.5448C36.9213 37.5448 36.4523 37.4163 36.059 37.1591C35.6657 36.9019 35.3632 36.5477 35.1514 36.0964C34.9396 35.6451 34.8337 35.1295 34.8337 34.5496C34.8337 33.9597 34.9421 33.4391 35.1589 32.9878C35.3783 32.5339 35.6834 32.1797 36.0741 31.9251C36.4675 31.6679 36.9263 31.5393 37.4507 31.5393C37.8592 31.5393 38.2273 31.615 38.555 31.7662C38.8828 31.9175 39.1513 32.1293 39.3605 32.4016C39.5698 32.6739 39.6997 32.9915 39.7501 33.3546H38.8576C38.7895 33.0899 38.6382 32.8554 38.4037 32.6512C38.1718 32.4444 37.8592 32.3411 37.4659 32.3411C37.1179 32.3411 36.8129 32.4318 36.5507 32.6134C36.291 32.7924 36.088 33.0457 35.9418 33.3735C35.7981 33.6987 35.7262 34.0807 35.7262 34.5194C35.7262 34.9682 35.7968 35.359 35.938 35.6918C36.0817 36.0246 36.2834 36.283 36.5431 36.467C36.8053 36.6511 37.1129 36.7431 37.4659 36.7431C37.6978 36.7431 37.9083 36.7028 38.0974 36.6221C38.2865 36.5414 38.4466 36.4254 38.5777 36.2742C38.7088 36.1229 38.8021 35.9414 38.8576 35.7296H39.7501C39.6997 36.0725 39.5749 36.3813 39.3757 36.6561C39.179 36.9284 38.9181 37.1452 38.5928 37.3066C38.2701 37.4654 37.8945 37.5448 37.4659 37.5448ZM43.4903 37.5448C42.9306 37.5448 42.4478 37.4213 42.0419 37.1742C41.6385 36.9246 41.3271 36.5767 41.1077 36.1304C40.8909 35.6817 40.7825 35.1598 40.7825 34.5648C40.7825 33.9698 40.8909 33.4454 41.1077 32.9915C41.3271 32.5352 41.6322 32.1797 42.0229 31.9251C42.4163 31.6679 42.8751 31.5393 43.3995 31.5393C43.7021 31.5393 44.0008 31.5897 44.2958 31.6906C44.5908 31.7914 44.8593 31.9553 45.1013 32.1822C45.3434 32.4066 45.5363 32.7041 45.68 33.0747C45.8237 33.4454 45.8955 33.9017 45.8955 34.4438V34.8219H41.4179V34.0504H44.9879C44.9879 33.7227 44.9223 33.4302 44.7912 33.1731C44.6627 32.9159 44.4786 32.7129 44.2391 32.5642C44.0021 32.4154 43.7222 32.3411 43.3995 32.3411C43.044 32.3411 42.7365 32.4293 42.4768 32.6058C42.2196 32.7798 42.0217 33.0067 41.883 33.2865C41.7444 33.5664 41.675 33.8664 41.675 34.1866V34.7009C41.675 35.1396 41.7507 35.5115 41.9019 35.8166C42.0557 36.1191 42.2688 36.3498 42.5411 36.5086C42.8133 36.6649 43.1298 36.7431 43.4903 36.7431C43.7248 36.7431 43.9365 36.7103 44.1256 36.6448C44.3173 36.5767 44.4824 36.4759 44.6211 36.3422C44.7597 36.2061 44.8669 36.0372 44.9425 35.8355L45.8048 36.0775C45.714 36.37 45.5615 36.6271 45.3472 36.849C45.1329 37.0683 44.8681 37.2398 44.553 37.3633C44.2378 37.4843 43.8836 37.5448 43.4903 37.5448ZM56.6019 32.099H55.664C55.6085 31.8293 55.5114 31.5923 55.3728 31.388C55.2366 31.1838 55.0702 31.0124 54.8736 30.8737C54.6794 30.7325 54.4639 30.6266 54.2269 30.556C53.9899 30.4855 53.7428 30.4502 53.4856 30.4502C53.0167 30.4502 52.5919 30.5687 52.2112 30.8056C51.833 31.0426 51.5317 31.3918 51.3073 31.8532C51.0854 32.3146 50.9745 32.8806 50.9745 33.5512C50.9745 34.2219 51.0854 34.7879 51.3073 35.2493C51.5317 35.7107 51.833 36.0599 52.2112 36.2968C52.5919 36.5338 53.0167 36.6523 53.4856 36.6523C53.7428 36.6523 53.9899 36.617 54.2269 36.5464C54.4639 36.4759 54.6794 36.3712 54.8736 36.2326C55.0702 36.0914 55.2366 35.9187 55.3728 35.7144C55.5114 35.5077 55.6085 35.2707 55.664 35.0035H56.6019C56.5313 35.3993 56.4027 35.7535 56.2161 36.0662C56.0295 36.3788 55.7976 36.6448 55.5203 36.8641C55.2429 37.0809 54.9316 37.2461 54.5861 37.3595C54.2433 37.473 53.8764 37.5297 53.4856 37.5297C52.8251 37.5297 52.2376 37.3684 51.7233 37.0456C51.209 36.7229 50.8043 36.2641 50.5093 35.6691C50.2144 35.0741 50.0669 34.3681 50.0669 33.5512C50.0669 32.7344 50.2144 32.0284 50.5093 31.4334C50.8043 30.8384 51.209 30.3796 51.7233 30.0568C52.2376 29.7341 52.8251 29.5728 53.4856 29.5728C53.8764 29.5728 54.2433 29.6295 54.5861 29.743C54.9316 29.8564 55.2429 30.0228 55.5203 30.2422C55.7976 30.459 56.0295 30.7237 56.2161 31.0363C56.4027 31.3464 56.5313 31.7007 56.6019 32.099ZM60.3563 37.5448C59.8318 37.5448 59.3717 37.42 58.9759 37.1704C58.5826 36.9208 58.275 36.5717 58.0531 36.1229C57.8338 35.6741 57.7241 35.1497 57.7241 34.5496C57.7241 33.9446 57.8338 33.4164 58.0531 32.9651C58.275 32.5138 58.5826 32.1633 58.9759 31.9137C59.3717 31.6641 59.8318 31.5393 60.3563 31.5393C60.8807 31.5393 61.3395 31.6641 61.7328 31.9137C62.1287 32.1633 62.4363 32.5138 62.6556 32.9651C62.8775 33.4164 62.9884 33.9446 62.9884 34.5496C62.9884 35.1497 62.8775 35.6741 62.6556 36.1229C62.4363 36.5717 62.1287 36.9208 61.7328 37.1704C61.3395 37.42 60.8807 37.5448 60.3563 37.5448ZM60.3563 36.7431C60.7546 36.7431 61.0824 36.641 61.3395 36.4368C61.5967 36.2326 61.787 35.964 61.9106 35.6312C62.0341 35.2984 62.0959 34.9379 62.0959 34.5496C62.0959 34.1614 62.0341 33.7996 61.9106 33.4643C61.787 33.1289 61.5967 32.8579 61.3395 32.6512C61.0824 32.4444 60.7546 32.3411 60.3563 32.3411C59.9579 32.3411 59.6301 32.4444 59.373 32.6512C59.1158 32.8579 58.9255 33.1289 58.8019 33.4643C58.6784 33.7996 58.6166 34.1614 58.6166 34.5496C58.6166 34.9379 58.6784 35.2984 58.8019 35.6312C58.9255 35.964 59.1158 36.2326 59.373 36.4368C59.6301 36.641 59.9579 36.7431 60.3563 36.7431ZM65.2433 29.6787V37.4238H64.3508V29.6787H65.2433ZM67.7705 29.6787V37.4238H66.878V29.6787H67.7705ZM69.4052 37.4238V31.615H70.2977V37.4238H69.4052ZM69.859 30.6468C69.6851 30.6468 69.535 30.5876 69.409 30.4691C69.2854 30.3506 69.2237 30.2081 69.2237 30.0417C69.2237 29.8753 69.2854 29.7329 69.409 29.6144C69.535 29.4959 69.6851 29.4366 69.859 29.4366C70.033 29.4366 70.1817 29.4959 70.3053 29.6144C70.4313 29.7329 70.4944 29.8753 70.4944 30.0417C70.4944 30.2081 70.4313 30.3506 70.3053 30.4691C70.1817 30.5876 70.033 30.6468 69.859 30.6468ZM72.8249 33.9294V37.4238H71.9324V31.615H72.7947V32.5226H72.8703C73.0064 32.2276 73.2132 31.9906 73.4905 31.8116C73.7678 31.6301 74.1259 31.5393 74.5646 31.5393C74.9579 31.5393 75.302 31.62 75.597 31.7814C75.892 31.9402 76.1214 32.1822 76.2853 32.5075C76.4492 32.8302 76.5311 33.2386 76.5311 33.7328V37.4238H75.6386V33.7933C75.6386 33.3369 75.5201 32.9815 75.2831 32.7268C75.0461 32.4696 74.7209 32.3411 74.3074 32.3411C74.0225 32.3411 73.7678 32.4028 73.5435 32.5264C73.3216 32.6499 73.1464 32.8302 73.0178 33.0672C72.8892 33.3042 72.8249 33.5916 72.8249 33.9294ZM82.2766 32.9159L81.4749 33.1428C81.4245 33.0092 81.3501 32.8793 81.2517 32.7533C81.1559 32.6247 81.0248 32.5188 80.8584 32.4356C80.692 32.3524 80.479 32.3108 80.2193 32.3108C79.8638 32.3108 79.5676 32.3927 79.3306 32.5566C79.0961 32.718 78.9789 32.9235 78.9789 33.1731C78.9789 33.3949 79.0596 33.5702 79.2209 33.6987C79.3823 33.8273 79.6344 33.9345 79.9773 34.0202L80.8395 34.232C81.3589 34.358 81.7459 34.5509 82.0005 34.8106C82.2552 35.0678 82.3825 35.3993 82.3825 35.8052C82.3825 36.138 82.2867 36.4355 82.0951 36.6977C81.906 36.9599 81.6413 37.1667 81.3009 37.3179C80.9605 37.4692 80.5647 37.5448 80.1134 37.5448C79.5209 37.5448 79.0306 37.4163 78.6423 37.1591C78.254 36.9019 78.0082 36.5263 77.9048 36.0321L78.752 35.8203C78.8326 36.133 78.9852 36.3674 79.2096 36.5238C79.4365 36.6801 79.7327 36.7582 80.0983 36.7582C80.5143 36.7582 80.8446 36.67 81.0891 36.4935C81.3362 36.3145 81.4597 36.1002 81.4597 35.8506C81.4597 35.6489 81.3892 35.48 81.248 35.3438C81.1068 35.2052 80.89 35.1018 80.5975 35.0337L79.6293 34.8068C79.0974 34.6807 78.7066 34.4854 78.457 34.2206C78.2099 33.9534 78.0864 33.6193 78.0864 33.2184C78.0864 32.8907 78.1784 32.6007 78.3624 32.3486C78.549 32.0965 78.8024 31.8986 79.1226 31.7549C79.4453 31.6112 79.8109 31.5393 80.2193 31.5393C80.7941 31.5393 81.2454 31.6654 81.5732 31.9175C81.9035 32.1696 82.138 32.5024 82.2766 32.9159Z" fill="white"/>
</g>
<g filter="url(#filter2_f_248_167)">
<path d="M8.65408 54.3511C8.65408 53.398 8.77762 52.5219 9.02469 51.7227C9.27429 50.9209 9.62979 50.1835 10.0912 49.5103H10.8778C10.6963 49.7599 10.5261 50.0675 10.3672 50.4331C10.2109 50.7961 10.0735 51.1958 9.95502 51.6319C9.83653 52.0656 9.74324 52.5143 9.67517 52.9783C9.60962 53.4422 9.57684 53.8998 9.57684 54.3511C9.57684 54.9511 9.63483 55.56 9.7508 56.1777C9.86678 56.7954 10.0231 57.3689 10.2197 57.8984C10.4164 58.4279 10.6357 58.859 10.8778 59.1918H10.0912C9.62979 58.5186 9.27429 57.7824 9.02469 56.9832C8.77762 56.1815 8.65408 55.3041 8.65408 54.3511ZM14.6 58.3295C14.1563 58.3295 13.7567 58.2413 13.4012 58.0648C13.0457 57.8883 12.7608 57.6463 12.5465 57.3387C12.3322 57.0311 12.215 56.6807 12.1948 56.2873H13.1024C13.1377 56.6378 13.2966 56.9277 13.5789 57.1572C13.8638 57.3841 14.2042 57.4975 14.6 57.4975C14.9177 57.4975 15.2001 57.4231 15.4472 57.2744C15.6968 57.1256 15.8922 56.9214 16.0333 56.6617C16.1771 56.3995 16.2489 56.1033 16.2489 55.773C16.2489 55.4352 16.1745 55.1339 16.0258 54.8692C15.8796 54.6019 15.6779 54.3914 15.4207 54.2376C15.1635 54.0838 14.8698 54.0056 14.5395 54.0031C14.3025 54.0006 14.0592 54.0372 13.8096 54.1128C13.56 54.1859 13.3546 54.2805 13.1932 54.3964L12.3158 54.2905L12.7848 50.4785H16.8086V51.3105H13.5714L13.2991 53.5947H13.3445C13.5033 53.4686 13.7025 53.364 13.942 53.2808C14.1815 53.1976 14.4311 53.156 14.6908 53.156C15.1648 53.156 15.5871 53.2695 15.9577 53.4964C16.3309 53.7207 16.6233 54.0283 16.8351 54.4191C17.0494 54.8099 17.1565 55.2562 17.1565 55.7579C17.1565 56.252 17.0456 56.6933 16.8237 57.0815C16.6044 57.4673 16.3019 57.7723 15.9161 57.9967C15.5304 58.2186 15.0917 58.3295 14.6 58.3295ZM21.1851 58.3295C20.6153 58.3295 20.13 58.1745 19.7291 57.8644C19.3283 57.5517 19.0219 57.0992 18.8101 56.5067C18.5984 55.9117 18.4925 55.1931 18.4925 54.3511C18.4925 53.514 18.5984 52.7992 18.8101 52.2068C19.0245 51.6118 19.332 51.1579 19.7329 50.8453C20.1363 50.5302 20.6204 50.3726 21.1851 50.3726C21.7499 50.3726 22.2327 50.5302 22.6336 50.8453C23.037 51.1579 23.3445 51.6118 23.5563 52.2068C23.7706 52.7992 23.8778 53.514 23.8778 54.3511C23.8778 55.1931 23.7719 55.9117 23.5601 56.5067C23.3483 57.0992 23.042 57.5517 22.6411 57.8644C22.2403 58.1745 21.7549 58.3295 21.1851 58.3295ZM21.1851 57.4975C21.7499 57.4975 22.1886 57.2252 22.5012 56.6807C22.8138 56.1361 22.9701 55.3595 22.9701 54.3511C22.9701 53.6804 22.8983 53.1094 22.7546 52.6379C22.6134 52.1664 22.4092 51.8071 22.1419 51.5601C21.8772 51.313 21.5583 51.1895 21.1851 51.1895C20.6254 51.1895 20.188 51.4655 19.8728 52.0177C19.5577 52.5673 19.4001 53.3451 19.4001 54.3511C19.4001 55.0217 19.4707 55.5915 19.6119 56.0604C19.7531 56.5294 19.956 56.8861 20.2208 57.1307C20.488 57.3752 20.8095 57.4975 21.1851 57.4975ZM27.9319 58.3295C27.4327 58.3295 26.9877 58.2438 26.5969 58.0724C26.2086 57.9009 25.8998 57.6627 25.6704 57.3576C25.4435 57.05 25.3199 56.6933 25.2998 56.2873H26.2528C26.2729 56.5369 26.3587 56.7525 26.5099 56.934C26.6612 57.113 26.8591 57.2517 27.1037 57.35C27.3482 57.4484 27.6193 57.4975 27.9168 57.4975C28.2496 57.4975 28.5446 57.4395 28.8017 57.3236C29.0589 57.2076 29.2606 57.0462 29.4068 56.8395C29.553 56.6327 29.6262 56.3932 29.6262 56.1209C29.6262 55.836 29.5556 55.5852 29.4144 55.3684C29.2732 55.149 29.0664 54.9776 28.7942 54.854C28.5219 54.7305 28.1891 54.6687 27.7958 54.6687H27.1755V53.8367H27.7958C28.1033 53.8367 28.3731 53.7813 28.6051 53.6703C28.8395 53.5594 29.0223 53.4031 29.1534 53.2014C29.287 52.9997 29.3539 52.7627 29.3539 52.4904C29.3539 52.2282 29.2959 52 29.1799 51.8059C29.0639 51.6118 28.9 51.4605 28.6883 51.3521C28.479 51.2437 28.2319 51.1895 27.947 51.1895C27.6798 51.1895 27.4277 51.2386 27.1907 51.3369C26.9562 51.4327 26.7646 51.5727 26.6158 51.7567C26.4671 51.9383 26.3864 52.1576 26.3738 52.4148H25.4662C25.4813 52.0088 25.6036 51.6534 25.833 51.3483C26.0624 51.0407 26.3624 50.8012 26.7331 50.6297C27.1062 50.4583 27.5159 50.3726 27.9622 50.3726C28.4412 50.3726 28.8521 50.4696 29.195 50.6638C29.5379 50.8554 29.8014 51.1088 29.9854 51.4239C30.1695 51.7391 30.2615 52.0794 30.2615 52.445C30.2615 52.8812 30.1468 53.2531 29.9174 53.5607C29.6904 53.8682 29.3816 54.0813 28.9908 54.1998V54.2603C29.4799 54.341 29.8619 54.549 30.1367 54.8843C30.4115 55.2171 30.5489 55.6293 30.5489 56.1209C30.5489 56.542 30.4342 56.9202 30.2048 57.2555C29.9779 57.5883 29.6678 57.8505 29.2744 58.0421C28.8811 58.2337 28.4336 58.3295 27.9319 58.3295ZM34.0168 54.3511C34.0168 55.3041 33.892 56.1815 33.6424 56.9832C33.3954 57.7824 33.0411 58.5186 32.5798 59.1918H31.7931C31.9747 58.9422 32.1436 58.6346 32.2999 58.269C32.4587 57.906 32.5974 57.5076 32.7159 57.074C32.8344 56.6378 32.9264 56.1878 32.992 55.7239C33.06 55.2574 33.0941 54.7998 33.0941 54.3511C33.0941 53.751 33.0361 53.1421 32.9201 52.5244C32.8041 51.9067 32.6478 51.3332 32.4512 50.8037C32.2545 50.2743 32.0352 49.8431 31.7931 49.5103H32.5798C33.0411 50.1835 33.3954 50.9209 33.6424 51.7227C33.892 52.5219 34.0168 53.398 34.0168 54.3511ZM39.2972 53.9351V54.7671H35.9087V53.9351H39.2972ZM43.4241 58.3295C43.1064 58.3245 42.7888 58.264 42.4711 58.148C42.1534 58.032 41.8635 57.8366 41.6013 57.5618C41.3391 57.2845 41.1285 56.9101 40.9697 56.4386C40.8109 55.9646 40.7315 55.3696 40.7315 54.6536C40.7315 53.9678 40.7957 53.3602 40.9243 52.8308C41.0529 52.2988 41.2395 51.8513 41.484 51.4882C41.7286 51.1226 42.0236 50.8453 42.369 50.6562C42.7169 50.4671 43.109 50.3726 43.5451 50.3726C43.9788 50.3726 44.3645 50.4596 44.7024 50.6335C45.0427 50.805 45.3201 51.0445 45.5344 51.3521C45.7487 51.6597 45.8873 52.0139 45.9504 52.4148H45.0276C44.9419 52.0668 44.7755 51.7782 44.5284 51.5487C44.2813 51.3193 43.9536 51.2046 43.5451 51.2046C42.9451 51.2046 42.4724 51.4655 42.1269 51.9874C41.7841 52.5093 41.6114 53.2417 41.6088 54.1847H41.6693C41.8105 53.9703 41.9782 53.7876 42.1723 53.6363C42.369 53.4825 42.5858 53.364 42.8228 53.2808C43.0598 53.1976 43.3107 53.156 43.5754 53.156C44.0191 53.156 44.425 53.2669 44.7931 53.4888C45.1612 53.7081 45.4562 54.0119 45.6781 54.4002C45.8999 54.786 46.0109 55.2284 46.0109 55.7276C46.0109 56.2067 45.9037 56.6454 45.6894 57.0437C45.4751 57.4395 45.1738 57.7547 44.7856 57.9892C44.3998 58.2211 43.946 58.3346 43.4241 58.3295ZM43.4241 57.4975C43.7418 57.4975 44.0267 57.4181 44.2788 57.2593C44.5334 57.1004 44.7339 56.8874 44.8801 56.6201C45.0289 56.3529 45.1032 56.0554 45.1032 55.7276C45.1032 55.4074 45.0314 55.1162 44.8877 54.854C44.7465 54.5893 44.5511 54.3788 44.3015 54.2225C44.0544 54.0662 43.772 53.988 43.4544 53.988C43.2149 53.988 42.9917 54.0359 42.785 54.1317C42.5782 54.225 42.3967 54.3536 42.2404 54.5175C42.0866 54.6813 41.9656 54.8692 41.8773 55.0809C41.7891 55.2902 41.745 55.5108 41.745 55.7428C41.745 56.0503 41.8168 56.3378 41.9605 56.605C42.1068 56.8723 42.306 57.0878 42.5581 57.2517C42.8127 57.4156 43.1014 57.4975 43.4241 57.4975ZM47.7401 58.2236L51.2043 51.371V51.3105H47.2107V50.4785H52.1724V51.3559L48.7234 58.2236H47.7401ZM56.305 50.4785V58.2236H55.3671V51.4617H55.3217L53.4308 52.7173V51.7643L55.3671 50.4785H56.305ZM61.8756 53.9351V54.7671H58.4871V53.9351H61.8756ZM66.0025 58.3295C65.6848 58.3245 65.3672 58.264 65.0495 58.148C64.7318 58.032 64.4419 57.8366 64.1797 57.5618C63.9175 57.2845 63.7069 56.9101 63.5481 56.4386C63.3893 55.9646 63.3099 55.3696 63.3099 54.6536C63.3099 53.9678 63.3741 53.3602 63.5027 52.8308C63.6313 52.2988 63.8179 51.8513 64.0624 51.4882C64.307 51.1226 64.602 50.8453 64.9474 50.6562C65.2953 50.4671 65.6874 50.3726 66.1235 50.3726C66.5572 50.3726 66.9429 50.4596 67.2808 50.6335C67.6211 50.805 67.8985 51.0445 68.1128 51.3521C68.3271 51.6597 68.4657 52.0139 68.5288 52.4148H67.606C67.5203 52.0668 67.3539 51.7782 67.1068 51.5487C66.8597 51.3193 66.532 51.2046 66.1235 51.2046C65.5235 51.2046 65.0508 51.4655 64.7053 51.9874C64.3625 52.5093 64.1898 53.2417 64.1872 54.1847H64.2477C64.3889 53.9703 64.5566 53.7876 64.7507 53.6363C64.9474 53.4825 65.1642 53.364 65.4012 53.2808C65.6382 53.1976 65.8891 53.156 66.1538 53.156C66.5975 53.156 67.0034 53.2669 67.3715 53.4888C67.7396 53.7081 68.0346 54.0119 68.2565 54.4002C68.4783 54.786 68.5893 55.2284 68.5893 55.7276C68.5893 56.2067 68.4821 56.6454 68.2678 57.0437C68.0535 57.4395 67.7522 57.7547 67.364 57.9892C66.9782 58.2211 66.5244 58.3346 66.0025 58.3295ZM66.0025 57.4975C66.3202 57.4975 66.6051 57.4181 66.8572 57.2593C67.1118 57.1004 67.3123 56.8874 67.4585 56.6201C67.6073 56.3529 67.6816 56.0554 67.6816 55.7276C67.6816 55.4074 67.6098 55.1162 67.4661 54.854C67.3249 54.5893 67.1295 54.3788 66.8799 54.2225C66.6328 54.0662 66.3504 53.988 66.0328 53.988C65.7933 53.988 65.5701 54.0359 65.3634 54.1317C65.1566 54.225 64.9751 54.3536 64.8188 54.5175C64.665 54.6813 64.544 54.8692 64.4557 55.0809C64.3675 55.2902 64.3234 55.5108 64.3234 55.7428C64.3234 56.0503 64.3952 56.3378 64.5389 56.605C64.6852 56.8723 64.8844 57.0878 65.1365 57.2517C65.3911 57.4156 65.6798 57.4975 66.0025 57.4975ZM69.8949 56.6353V55.8638L73.2986 50.4785H73.8583V51.6735H73.4801L70.9085 55.7428V55.8033H75.492V56.6353H69.8949ZM73.5406 58.2236V56.4008V56.0415V50.4785H74.4331V58.2236H73.5406ZM79.3296 58.3295C78.8859 58.3295 78.4863 58.2413 78.1308 58.0648C77.7753 57.8883 77.4904 57.6463 77.2761 57.3387C77.0618 57.0311 76.9446 56.6807 76.9244 56.2873H77.832C77.8673 56.6378 78.0262 56.9277 78.3085 57.1572C78.5934 57.3841 78.9338 57.4975 79.3296 57.4975C79.6473 57.4975 79.9297 57.4231 80.1768 57.2744C80.4264 57.1256 80.6218 56.9214 80.7629 56.6617C80.9067 56.3995 80.9785 56.1033 80.9785 55.773C80.9785 55.4352 80.9041 55.1339 80.7554 54.8692C80.6092 54.6019 80.4075 54.3914 80.1503 54.2376C79.8931 54.0838 79.5994 54.0056 79.2691 54.0031C79.0321 54.0006 78.7888 54.0372 78.5392 54.1128C78.2896 54.1859 78.0842 54.2805 77.9228 54.3964L77.0454 54.2905L77.5144 50.4785H81.5382V51.3105H78.301L78.0287 53.5947H78.0741C78.2329 53.4686 78.4321 53.364 78.6716 53.2808C78.9111 53.1976 79.1607 53.156 79.4204 53.156C79.8944 53.156 80.3167 53.2695 80.6873 53.4964C81.0604 53.7207 81.3529 54.0283 81.5647 54.4191C81.779 54.8099 81.8861 55.2562 81.8861 55.7579C81.8861 56.252 81.7752 56.6933 81.5533 57.0815C81.334 57.4673 81.0315 57.7723 80.6457 57.9967C80.26 58.2186 79.8213 58.3295 79.3296 58.3295ZM86.0055 58.3295C85.5063 58.3295 85.0613 58.2438 84.6705 58.0724C84.2822 57.9009 83.9734 57.6627 83.744 57.3576C83.5171 57.05 83.3935 56.6933 83.3733 56.2873H84.3264C84.3465 56.5369 84.4323 56.7525 84.5835 56.934C84.7348 57.113 84.9327 57.2517 85.1773 57.35C85.4218 57.4484 85.6929 57.4975 85.9904 57.4975C86.3232 57.4975 86.6181 57.4395 86.8753 57.3236C87.1325 57.2076 87.3342 57.0462 87.4804 56.8395C87.6266 56.6327 87.6997 56.3932 87.6997 56.1209C87.6997 55.836 87.6292 55.5852 87.488 55.3684C87.3468 55.149 87.14 54.9776 86.8677 54.854C86.5955 54.7305 86.2627 54.6687 85.8693 54.6687H85.2491V53.8367H85.8693C86.1769 53.8367 86.4467 53.7813 86.6787 53.6703C86.9131 53.5594 87.0959 53.4031 87.227 53.2014C87.3606 52.9997 87.4275 52.7627 87.4275 52.4904C87.4275 52.2282 87.3695 52 87.2535 51.8059C87.1375 51.6118 86.9736 51.4605 86.7619 51.3521C86.5526 51.2437 86.3055 51.1895 86.0206 51.1895C85.7534 51.1895 85.5013 51.2386 85.2643 51.3369C85.0298 51.4327 84.8382 51.5727 84.6894 51.7567C84.5407 51.9383 84.46 52.1576 84.4474 52.4148H83.5397C83.5549 52.0088 83.6772 51.6534 83.9066 51.3483C84.136 51.0407 84.436 50.8012 84.8067 50.6297C85.1798 50.4583 85.5895 50.3726 86.0357 50.3726C86.5148 50.3726 86.9257 50.4696 87.2686 50.6638C87.6115 50.8554 87.875 51.1088 88.059 51.4239C88.2431 51.7391 88.3351 52.0794 88.3351 52.445C88.3351 52.8812 88.2204 53.2531 87.9909 53.5607C87.764 53.8682 87.4552 54.0813 87.0644 54.1998V54.2603C87.5535 54.341 87.9355 54.549 88.2103 54.8843C88.4851 55.2171 88.6225 55.6293 88.6225 56.1209C88.6225 56.542 88.5078 56.9202 88.2784 57.2555C88.0515 57.5883 87.7413 57.8505 87.348 58.0421C86.9547 58.2337 86.5072 58.3295 86.0055 58.3295Z" fill="white"/>
</g>
<defs>
<filter id="filter0_f_248_167" x="1.16605" y="0.422706" width="94.9445" height="24.6575" filterUnits="userSpaceOnUse" color-interpolation-filters="sRGB">
<feFlood flood-opacity="0" result="BackgroundImageFix"/>
<feBlend mode="normal" in="SourceGraphic" in2="BackgroundImageFix" result="shape"/>
<feGaussianBlur stdDeviation="3.744" result="effect1_foregroundBlur_248_167"/>
</filter>
<filter id="filter1_f_248_167" x="0.470252" y="21.9486" width="89.4003" height="23.0994" filterUnits="userSpaceOnUse" color-interpolation-filters="sRGB">
<feFlood flood-opacity="0" result="BackgroundImageFix"/>
<feBlend mode="normal" in="SourceGraphic" in2="BackgroundImageFix" result="shape"/>
<feGaussianBlur stdDeviation="3.744" result="effect1_foregroundBlur_248_167"/>
</filter>
<filter id="filter2_f_248_167" x="1.16605" y="42.0223" width="94.9445" height="24.6575" filterUnits="userSpaceOnUse" color-interpolation-filters="sRGB">
<feFlood flood-opacity="0" result="BackgroundImageFix"/>
<feBlend mode="normal" in="SourceGraphic" in2="BackgroundImageFix" result="shape"/>
<feGaussianBlur stdDeviation="3.744" result="effect1_foregroundBlur_248_167"/>
</filter>
</defs>
</svg>
