<svg width="97" height="68" viewBox="0 0 97 68" fill="none" xmlns="http://www.w3.org/2000/svg">
<g filter="url(#filter0_f_249_168)">
<path d="M8.55837 13.1274C8.55837 12.1744 8.68191 11.2983 8.92899 10.4991C9.17859 9.69731 9.53408 8.95985 9.99546 8.28669H10.7821C10.6006 8.53629 10.4304 8.84388 10.2715 9.20945C10.1152 9.57251 9.97782 9.97212 9.85932 10.4083C9.74082 10.8419 9.64754 11.2907 9.57946 11.7546C9.51391 12.2185 9.48114 12.6761 9.48114 13.1274C9.48114 13.7275 9.53913 14.3363 9.6551 14.954C9.77108 15.5717 9.92739 16.1453 10.124 16.6748C10.3207 17.2042 10.54 17.6353 10.7821 17.9681H9.99546C9.53408 17.295 9.17859 16.5588 8.92899 15.7596C8.68191 14.9578 8.55837 14.0804 8.55837 13.1274ZM14.5043 17.1059C14.0606 17.1059 13.661 17.0176 13.3055 16.8412C12.95 16.6647 12.6651 16.4226 12.4508 16.1151C12.2365 15.8075 12.1193 15.457 12.0991 15.0637H13.0067C13.042 15.4142 13.2009 15.7041 13.4832 15.9335C13.7681 16.1604 14.1085 16.2739 14.5043 16.2739C14.822 16.2739 15.1044 16.1995 15.3515 16.0508C15.6011 15.902 15.7965 15.6978 15.9376 15.4381C16.0814 15.1759 16.1532 14.8797 16.1532 14.5494C16.1532 14.2115 16.0788 13.9103 15.9301 13.6455C15.7839 13.3783 15.5822 13.1678 15.325 13.014C15.0678 12.8602 14.7741 12.782 14.4438 12.7795C14.2068 12.777 13.9635 12.8135 13.7139 12.8892C13.4643 12.9623 13.2589 13.0568 13.0975 13.1728L12.2201 13.0669L12.6891 9.25484H16.7129V10.0868H13.4757L13.2034 12.3711H13.2488C13.4076 12.245 13.6068 12.1404 13.8463 12.0572C14.0858 11.974 14.3354 11.9324 14.5951 11.9324C15.0691 11.9324 15.4914 12.0458 15.862 12.2727C16.2351 12.4971 16.5276 12.8047 16.7394 13.1955C16.9537 13.5863 17.0608 14.0325 17.0608 14.5343C17.0608 15.0284 16.9499 15.4696 16.728 15.8579C16.5087 16.2436 16.2062 16.5487 15.8204 16.7731C15.4347 16.995 14.996 17.1059 14.5043 17.1059ZM21.0894 17.1059C20.5196 17.1059 20.0343 16.9508 19.6334 16.6407C19.2326 16.3281 18.9262 15.8755 18.7144 15.2831C18.5027 14.688 18.3968 13.9695 18.3968 13.1274C18.3968 12.2904 18.5027 11.5756 18.7144 10.9831C18.9287 10.3881 19.2363 9.9343 19.6372 9.62167C20.0406 9.30652 20.5247 9.14895 21.0894 9.14895C21.6542 9.14895 22.137 9.30652 22.5379 9.62167C22.9413 9.9343 23.2488 10.3881 23.4606 10.9831C23.6749 11.5756 23.7821 12.2904 23.7821 13.1274C23.7821 13.9695 23.6762 14.688 23.4644 15.2831C23.2526 15.8755 22.9463 16.3281 22.5454 16.6407C22.1446 16.9508 21.6592 17.1059 21.0894 17.1059ZM21.0894 16.2739C21.6542 16.2739 22.0929 16.0016 22.4055 15.457C22.7181 14.9124 22.8744 14.1359 22.8744 13.1274C22.8744 12.4568 22.8026 11.8857 22.6589 11.4143C22.5177 10.9428 22.3135 10.5835 22.0462 10.3364C21.7815 10.0894 21.4626 9.96582 21.0894 9.96582C20.5297 9.96582 20.0923 10.2419 19.7771 10.794C19.462 11.3437 19.3044 12.1215 19.3044 13.1274C19.3044 13.7981 19.375 14.3679 19.5162 14.8368C19.6574 15.3057 19.8603 15.6625 20.1251 15.9071C20.3923 16.1516 20.7138 16.2739 21.0894 16.2739ZM27.8362 17.1059C27.337 17.1059 26.892 17.0202 26.5012 16.8487C26.1129 16.6773 25.8041 16.439 25.5747 16.134C25.3478 15.8264 25.2242 15.4696 25.204 15.0637H26.1571C26.1772 15.3133 26.263 15.5289 26.4142 15.7104C26.5655 15.8894 26.7634 16.0281 27.008 16.1264C27.2525 16.2247 27.5236 16.2739 27.8211 16.2739C28.1539 16.2739 28.4488 16.2159 28.706 16.0999C28.9632 15.984 29.1649 15.8226 29.3111 15.6159C29.4573 15.4091 29.5304 15.1696 29.5304 14.8973C29.5304 14.6124 29.4599 14.3616 29.3187 14.1447C29.1775 13.9254 28.9707 13.7539 28.6984 13.6304C28.4262 13.5069 28.0934 13.4451 27.7 13.4451H27.0798V12.6131H27.7C28.0076 12.6131 28.2774 12.5576 28.5094 12.4467C28.7438 12.3358 28.9266 12.1794 29.0577 11.9777C29.1913 11.776 29.2582 11.5391 29.2582 11.2668C29.2582 11.0046 29.2002 10.7764 29.0842 10.5823C28.9682 10.3881 28.8043 10.2368 28.5926 10.1284C28.3833 10.02 28.1362 9.96582 27.8513 9.96582C27.5841 9.96582 27.332 10.015 27.095 10.1133C26.8605 10.2091 26.6689 10.349 26.5201 10.5331C26.3714 10.7146 26.2907 10.934 26.2781 11.1911H25.3704C25.3856 10.7852 25.5079 10.4297 25.7373 10.1247C25.9667 9.81707 26.2667 9.57755 26.6374 9.40611C27.0105 9.23467 27.4202 9.14895 27.8664 9.14895C28.3455 9.14895 28.7564 9.24601 29.0993 9.44015C29.4422 9.63176 29.7057 9.88514 29.8897 10.2003C30.0738 10.5154 30.1658 10.8558 30.1658 11.2214C30.1658 11.6576 30.0511 12.0294 29.8216 12.337C29.5947 12.6446 29.2859 12.8576 28.8951 12.9761V13.0367C29.3842 13.1173 29.7662 13.3253 30.041 13.6607C30.3158 13.9935 30.4532 14.4057 30.4532 14.8973C30.4532 15.3184 30.3385 15.6965 30.1091 16.0319C29.8822 16.3647 29.572 16.6269 29.1787 16.8185C28.7854 17.0101 28.3379 17.1059 27.8362 17.1059ZM33.9211 13.1274C33.9211 14.0804 33.7963 14.9578 33.5467 15.7596C33.2997 16.5588 32.9454 17.295 32.484 17.9681H31.6974C31.879 17.7185 32.0479 17.411 32.2042 17.0454C32.363 16.6823 32.5017 16.284 32.6202 15.8503C32.7387 15.4142 32.8307 14.9641 32.8963 14.5002C32.9643 14.0338 32.9984 13.5762 32.9984 13.1274C32.9984 12.5274 32.9404 11.9185 32.8244 11.3008C32.7084 10.6831 32.5521 10.1095 32.3555 9.58007C32.1588 9.05062 31.9395 8.61949 31.6974 8.28669H32.484C32.9454 8.95985 33.2997 9.69731 33.5467 10.4991C33.7963 11.2983 33.9211 12.1744 33.9211 13.1274ZM39.2015 12.7114V13.5434H35.813V12.7114H39.2015ZM43.3284 17.1059C43.0107 17.1008 42.6931 17.0403 42.3754 16.9244C42.0577 16.8084 41.7678 16.613 41.5056 16.3382C41.2434 16.0608 41.0328 15.6864 40.874 15.215C40.7152 14.741 40.6358 14.146 40.6358 13.43C40.6358 12.7442 40.7 12.1366 40.8286 11.6071C40.9572 11.0752 41.1438 10.6276 41.3883 10.2646C41.6329 9.89901 41.9279 9.62167 42.2733 9.43258C42.6212 9.24349 43.0133 9.14895 43.4494 9.14895C43.8831 9.14895 44.2688 9.23593 44.6067 9.40989C44.947 9.58133 45.2244 9.82085 45.4387 10.1284C45.653 10.436 45.7916 10.7903 45.8547 11.1911H44.9319C44.8462 10.8432 44.6798 10.5545 44.4327 10.3251C44.1856 10.0957 43.8579 9.98095 43.4494 9.98095C42.8494 9.98095 42.3767 10.2419 42.0312 10.7638C41.6884 11.2857 41.5157 12.0181 41.5131 12.961H41.5736C41.7148 12.7467 41.8825 12.5639 42.0766 12.4127C42.2733 12.2589 42.4901 12.1404 42.7271 12.0572C42.9641 11.974 43.215 11.9324 43.4797 11.9324C43.9234 11.9324 44.3293 12.0433 44.6974 12.2652C45.0655 12.4845 45.3605 12.7883 45.5824 13.1766C45.8042 13.5623 45.9152 14.0048 45.9152 14.504C45.9152 14.983 45.808 15.4217 45.5937 15.8201C45.3794 16.2159 45.0781 16.5311 44.6899 16.7655C44.3041 16.9975 43.8503 17.1109 43.3284 17.1059ZM43.3284 16.2739C43.6461 16.2739 43.931 16.1945 44.1831 16.0356C44.4377 15.8768 44.6382 15.6638 44.7844 15.3965C44.9332 15.1293 45.0075 14.8318 45.0075 14.504C45.0075 14.1838 44.9357 13.8926 44.792 13.6304C44.6508 13.3657 44.4554 13.1552 44.2058 12.9988C43.9587 12.8425 43.6763 12.7644 43.3587 12.7644C43.1191 12.7644 42.896 12.8123 42.6893 12.9081C42.4825 13.0014 42.301 13.1299 42.1447 13.2938C41.9909 13.4577 41.8699 13.6455 41.7816 13.8573C41.6934 14.0666 41.6493 14.2872 41.6493 14.5191C41.6493 14.8267 41.7211 15.1141 41.8648 15.3814C42.0111 15.6486 42.2103 15.8642 42.4624 16.0281C42.717 16.192 43.0057 16.2739 43.3284 16.2739ZM47.6444 17L51.1086 10.1473V10.0868H47.115V9.25484H52.0767V10.1322L48.6277 17H47.6444ZM56.2093 9.25484V17H55.2714V10.2381H55.226L53.3351 11.4937V10.5407L55.2714 9.25484H56.2093ZM61.7799 12.7114V13.5434H58.3914V12.7114H61.7799ZM65.9068 17.1059C65.5891 17.1008 65.2715 17.0403 64.9538 16.9244C64.6361 16.8084 64.3462 16.613 64.084 16.3382C63.8218 16.0608 63.6112 15.6864 63.4524 15.215C63.2936 14.741 63.2142 14.146 63.2142 13.43C63.2142 12.7442 63.2784 12.1366 63.407 11.6071C63.5356 11.0752 63.7222 10.6276 63.9667 10.2646C64.2113 9.89901 64.5063 9.62167 64.8517 9.43258C65.1996 9.24349 65.5917 9.14895 66.0278 9.14895C66.4615 9.14895 66.8472 9.23593 67.1851 9.40989C67.5254 9.58133 67.8028 9.82085 68.0171 10.1284C68.2314 10.436 68.37 10.7903 68.4331 11.1911H67.5103C67.4246 10.8432 67.2582 10.5545 67.0111 10.3251C66.764 10.0957 66.4363 9.98095 66.0278 9.98095C65.4278 9.98095 64.9551 10.2419 64.6096 10.7638C64.2668 11.2857 64.0941 12.0181 64.0915 12.961H64.152C64.2932 12.7467 64.4609 12.5639 64.655 12.4127C64.8517 12.2589 65.0685 12.1404 65.3055 12.0572C65.5425 11.974 65.7934 11.9324 66.0581 11.9324C66.5018 11.9324 66.9077 12.0433 67.2758 12.2652C67.6439 12.4845 67.9389 12.7883 68.1608 13.1766C68.3826 13.5623 68.4936 14.0048 68.4936 14.504C68.4936 14.983 68.3864 15.4217 68.1721 15.8201C67.9578 16.2159 67.6565 16.5311 67.2683 16.7655C66.8825 16.9975 66.4287 17.1109 65.9068 17.1059ZM65.9068 16.2739C66.2245 16.2739 66.5094 16.1945 66.7615 16.0356C67.0161 15.8768 67.2166 15.6638 67.3628 15.3965C67.5116 15.1293 67.5859 14.8318 67.5859 14.504C67.5859 14.1838 67.5141 13.8926 67.3704 13.6304C67.2292 13.3657 67.0338 13.1552 66.7842 12.9988C66.5371 12.8425 66.2547 12.7644 65.9371 12.7644C65.6975 12.7644 65.4744 12.8123 65.2677 12.9081C65.0609 13.0014 64.8794 13.1299 64.7231 13.2938C64.5693 13.4577 64.4483 13.6455 64.36 13.8573C64.2718 14.0666 64.2277 14.2872 64.2277 14.5191C64.2277 14.8267 64.2995 15.1141 64.4432 15.3814C64.5895 15.6486 64.7887 15.8642 65.0408 16.0281C65.2954 16.192 65.5841 16.2739 65.9068 16.2739ZM69.7992 15.4116V14.6401L73.2029 9.25484H73.7626V10.4499H73.3844L70.8128 14.5191V14.5796H75.3963V15.4116H69.7992ZM73.4449 17V15.1772V14.8179V9.25484H74.3374V17H73.4449ZM79.2339 17.1059C78.7902 17.1059 78.3906 17.0176 78.0351 16.8412C77.6796 16.6647 77.3947 16.4226 77.1804 16.1151C76.9661 15.8075 76.8489 15.457 76.8287 15.0637H77.7363C77.7716 15.4142 77.9305 15.7041 78.2128 15.9335C78.4977 16.1604 78.8381 16.2739 79.2339 16.2739C79.5516 16.2739 79.834 16.1995 80.0811 16.0508C80.3307 15.902 80.5261 15.6978 80.6672 15.4381C80.811 15.1759 80.8828 14.8797 80.8828 14.5494C80.8828 14.2115 80.8084 13.9103 80.6597 13.6455C80.5135 13.3783 80.3118 13.1678 80.0546 13.014C79.7974 12.8602 79.5037 12.782 79.1734 12.7795C78.9364 12.777 78.6931 12.8135 78.4435 12.8892C78.1939 12.9623 77.9885 13.0568 77.8271 13.1728L76.9497 13.0669L77.4187 9.25484H81.4425V10.0868H78.2053L77.933 12.3711H77.9784C78.1372 12.245 78.3364 12.1404 78.5759 12.0572C78.8154 11.974 79.065 11.9324 79.3247 11.9324C79.7987 11.9324 80.221 12.0458 80.5916 12.2727C80.9647 12.4971 81.2572 12.8047 81.469 13.1955C81.6833 13.5863 81.7904 14.0325 81.7904 14.5343C81.7904 15.0284 81.6795 15.4696 81.4576 15.8579C81.2383 16.2436 80.9358 16.5487 80.55 16.7731C80.1643 16.995 79.7256 17.1059 79.2339 17.1059ZM85.9098 17.1059C85.4106 17.1059 84.9656 17.0202 84.5748 16.8487C84.1865 16.6773 83.8777 16.439 83.6483 16.134C83.4214 15.8264 83.2978 15.4696 83.2776 15.0637H84.2307C84.2508 15.3133 84.3366 15.5289 84.4878 15.7104C84.6391 15.8894 84.837 16.0281 85.0816 16.1264C85.3261 16.2247 85.5972 16.2739 85.8947 16.2739C86.2275 16.2739 86.5224 16.2159 86.7796 16.0999C87.0368 15.984 87.2385 15.8226 87.3847 15.6159C87.5309 15.4091 87.604 15.1696 87.604 14.8973C87.604 14.6124 87.5335 14.3616 87.3923 14.1447C87.2511 13.9254 87.0443 13.7539 86.772 13.6304C86.4998 13.5069 86.167 13.4451 85.7736 13.4451H85.1534V12.6131H85.7736C86.0812 12.6131 86.351 12.5576 86.583 12.4467C86.8174 12.3358 87.0002 12.1794 87.1313 11.9777C87.2649 11.776 87.3318 11.5391 87.3318 11.2668C87.3318 11.0046 87.2738 10.7764 87.1578 10.5823C87.0418 10.3881 86.8779 10.2368 86.6662 10.1284C86.4569 10.02 86.2098 9.96582 85.9249 9.96582C85.6577 9.96582 85.4055 10.015 85.1686 10.1133C84.9341 10.2091 84.7425 10.349 84.5937 10.5331C84.445 10.7146 84.3643 10.934 84.3517 11.1911H83.444C83.4592 10.7852 83.5815 10.4297 83.8109 10.1247C84.0403 9.81707 84.3403 9.57755 84.711 9.40611C85.0841 9.23467 85.4938 9.14895 85.94 9.14895C86.4191 9.14895 86.83 9.24601 87.1729 9.44015C87.5158 9.63176 87.7793 9.88514 87.9633 10.2003C88.1474 10.5154 88.2394 10.8558 88.2394 11.2214C88.2394 11.6576 88.1247 12.0294 87.8952 12.337C87.6683 12.6446 87.3595 12.8576 86.9687 12.9761V13.0367C87.4578 13.1173 87.8398 13.3253 88.1146 13.6607C88.3894 13.9935 88.5268 14.4057 88.5268 14.8973C88.5268 15.3184 88.4121 15.6965 88.1827 16.0319C87.9558 16.3647 87.6456 16.6269 87.2523 16.8185C86.859 17.0101 86.4115 17.1059 85.9098 17.1059Z" fill="white"/>
</g>
<g filter="url(#filter1_f_249_168)">
<path d="M11.3267 30.0546H12.2646V35.5912C12.2646 36.0854 12.1738 36.5052 11.9923 36.8506C11.8107 37.196 11.5548 37.4582 11.2246 37.6372C10.8943 37.8162 10.5047 37.9057 10.056 37.9057C9.63241 37.9057 9.25549 37.8288 8.92521 37.675C8.59493 37.5187 8.33525 37.2968 8.14616 37.0094C7.95706 36.722 7.86252 36.3804 7.86252 35.9845H8.78528C8.78528 36.2039 8.83949 36.3955 8.9479 36.5594C9.05883 36.7207 9.21011 36.8468 9.40172 36.9376C9.59333 37.0283 9.81142 37.0737 10.056 37.0737C10.3257 37.0737 10.5552 37.017 10.7443 36.9035C10.9334 36.7901 11.0771 36.6237 11.1754 36.4043C11.2762 36.1824 11.3267 35.9114 11.3267 35.5912V30.0546ZM15.7325 37.936C15.3644 37.936 15.0303 37.8666 14.7303 37.728C14.4303 37.5868 14.192 37.3838 14.0155 37.1191C13.8391 36.8518 13.7508 36.5291 13.7508 36.1509C13.7508 35.8181 13.8164 35.5484 13.9475 35.3416C14.0786 35.1324 14.2538 34.9685 14.4731 34.85C14.6925 34.7315 14.9345 34.6432 15.1992 34.5853C15.4665 34.5248 15.735 34.4768 16.0048 34.4416C16.3577 34.3962 16.6439 34.3621 16.8632 34.3394C17.0851 34.3142 17.2465 34.2726 17.3473 34.2146C17.4507 34.1567 17.5024 34.0558 17.5024 33.9121V33.8818C17.5024 33.5087 17.4003 33.2188 17.196 33.012C16.9943 32.8053 16.688 32.7019 16.2771 32.7019C15.851 32.7019 15.5169 32.7952 15.2749 32.9818C15.0328 33.1683 14.8627 33.3675 14.7643 33.5793L13.9172 33.2767C14.0685 32.9238 14.2702 32.649 14.5223 32.4523C14.7769 32.2531 15.0543 32.1145 15.3543 32.0363C15.6568 31.9556 15.9543 31.9153 16.2468 31.9153C16.4334 31.9153 16.6477 31.938 16.8897 31.9834C17.1343 32.0262 17.37 32.1157 17.5969 32.2519C17.8263 32.388 18.0167 32.5935 18.168 32.8683C18.3192 33.1431 18.3949 33.5112 18.3949 33.9726V37.7998H17.5024V37.0132H17.457C17.3965 37.1392 17.2956 37.2741 17.1544 37.4178C17.0133 37.5616 16.8254 37.6838 16.591 37.7847C16.3565 37.8855 16.0703 37.936 15.7325 37.936ZM15.8686 37.1342C16.2216 37.1342 16.5191 37.0649 16.7611 36.9262C17.0057 36.7875 17.1897 36.6085 17.3133 36.3892C17.4393 36.1698 17.5024 35.9392 17.5024 35.6971V34.8802C17.4646 34.9256 17.3814 34.9672 17.2528 35.005C17.1267 35.0403 16.9805 35.0719 16.8141 35.0996C16.6502 35.1248 16.4901 35.1475 16.3338 35.1677C16.18 35.1853 16.0552 35.2004 15.9594 35.213C15.7274 35.2433 15.5106 35.2925 15.3089 35.3605C15.1097 35.4261 14.9484 35.5257 14.8248 35.6593C14.7038 35.7904 14.6433 35.9694 14.6433 36.1963C14.6433 36.5064 14.758 36.7409 14.9875 36.8997C15.2194 37.056 15.5131 37.1342 15.8686 37.1342ZM20.9164 34.3054V37.7998H20.0239V31.9909H20.8862V32.8986H20.9618C21.0979 32.6036 21.3047 32.3666 21.582 32.1876C21.8593 32.0061 22.2174 31.9153 22.656 31.9153C23.0494 31.9153 23.3935 31.996 23.6885 32.1573C23.9835 32.3162 24.2129 32.5582 24.3768 32.8834C24.5407 33.2062 24.6226 33.6146 24.6226 34.1088V37.7998H23.7301V34.1693C23.7301 33.7129 23.6116 33.3574 23.3746 33.1028C23.1376 32.8456 22.8124 32.717 22.3989 32.717C22.114 32.717 21.8593 32.7788 21.635 32.9023C21.4131 33.0259 21.2379 33.2062 21.1093 33.4431C20.9807 33.6801 20.9164 33.9676 20.9164 34.3054ZM26.2535 37.7998V31.9909H27.146V37.7998H26.2535ZM26.7073 31.0228C26.5334 31.0228 26.3833 30.9635 26.2573 30.845C26.1337 30.7265 26.072 30.5841 26.072 30.4177C26.072 30.2513 26.1337 30.1088 26.2573 29.9903C26.3833 29.8719 26.5334 29.8126 26.7073 29.8126C26.8813 29.8126 27.03 29.8719 27.1536 29.9903C27.2796 30.1088 27.3427 30.2513 27.3427 30.4177C27.3427 30.5841 27.2796 30.7265 27.1536 30.845C27.03 30.9635 26.8813 31.0228 26.7073 31.0228ZM29.6732 34.3054V37.7998H28.7807V31.9909H29.643V32.8986H29.7186C29.8547 32.6036 30.0615 32.3666 30.3388 32.1876C30.6161 32.0061 30.9742 31.9153 31.4128 31.9153C31.8062 31.9153 32.1503 31.996 32.4453 32.1573C32.7403 32.3162 32.9697 32.5582 33.1336 32.8834C33.2975 33.2062 33.3794 33.6146 33.3794 34.1088V37.7998H32.4869V34.1693C32.4869 33.7129 32.3684 33.3574 32.1314 33.1028C31.8944 32.8456 31.5692 32.717 31.1557 32.717C30.8708 32.717 30.6161 32.7788 30.3918 32.9023C30.1699 33.0259 29.9947 33.2062 29.8661 33.4431C29.7375 33.6801 29.6732 33.9676 29.6732 34.3054ZM37.3702 37.9208C36.8256 37.9208 36.3566 37.7922 35.9633 37.5351C35.57 37.2779 35.2675 36.9237 35.0557 36.4724C34.8439 36.0211 34.738 35.5055 34.738 34.9256C34.738 34.3357 34.8464 33.815 35.0632 33.3637C35.2826 32.9099 35.5877 32.5557 35.9784 32.301C36.3718 32.0439 36.8306 31.9153 37.355 31.9153C37.7635 31.9153 38.1316 31.9909 38.4593 32.1422C38.7871 32.2935 39.0556 32.5053 39.2648 32.7775C39.4741 33.0498 39.6039 33.3675 39.6544 33.7306H38.7619C38.6938 33.4658 38.5425 33.2314 38.308 33.0271C38.0761 32.8204 37.7635 32.717 37.3702 32.717C37.0222 32.717 36.7172 32.8078 36.455 32.9893C36.1953 33.1683 35.9923 33.4217 35.8461 33.7495C35.7024 34.0747 35.6305 34.4567 35.6305 34.8954C35.6305 35.3441 35.7011 35.7349 35.8423 36.0677C35.986 36.4005 36.1877 36.659 36.4474 36.843C36.7096 37.0271 37.0172 37.1191 37.3702 37.1191C37.6021 37.1191 37.8126 37.0787 38.0017 36.9981C38.1908 36.9174 38.3509 36.8014 38.482 36.6501C38.6131 36.4989 38.7064 36.3173 38.7619 36.1056H39.6544C39.6039 36.4484 39.4791 36.7573 39.28 37.0321C39.0833 37.3044 38.8224 37.5212 38.4971 37.6826C38.1744 37.8414 37.7988 37.9208 37.3702 37.9208ZM43.3946 37.9208C42.8349 37.9208 42.3521 37.7973 41.9462 37.5502C41.5428 37.3006 41.2314 36.9527 41.012 36.5064C40.7952 36.0576 40.6868 35.5358 40.6868 34.9408C40.6868 34.3457 40.7952 33.8213 41.012 33.3675C41.2314 32.9112 41.5365 32.5557 41.9272 32.301C42.3206 32.0439 42.7794 31.9153 43.3038 31.9153C43.6064 31.9153 43.9051 31.9657 44.2001 32.0666C44.4951 32.1674 44.7636 32.3313 45.0056 32.5582C45.2477 32.7826 45.4406 33.0801 45.5843 33.4507C45.728 33.8213 45.7998 34.2777 45.7998 34.8197V35.1979H41.3222V34.4264H44.8922C44.8922 34.0987 44.8266 33.8062 44.6955 33.549C44.567 33.2919 44.3829 33.0889 44.1434 32.9402C43.9064 32.7914 43.6265 32.717 43.3038 32.717C42.9483 32.717 42.6407 32.8053 42.3811 32.9818C42.1239 33.1557 41.926 33.3826 41.7873 33.6625C41.6487 33.9423 41.5793 34.2424 41.5793 34.5626V35.0769C41.5793 35.5156 41.655 35.8875 41.8062 36.1925C41.96 36.4951 42.1731 36.7258 42.4454 36.8846C42.7176 37.0409 43.0341 37.1191 43.3946 37.1191C43.6291 37.1191 43.8408 37.0863 44.0299 37.0208C44.2215 36.9527 44.3867 36.8518 44.5254 36.7182C44.664 36.5821 44.7712 36.4131 44.8468 36.2114L45.7091 36.4535C45.6183 36.7459 45.4658 37.0031 45.2515 37.225C45.0372 37.4443 44.7724 37.6158 44.4573 37.7393C44.1421 37.8603 43.7879 37.9208 43.3946 37.9208ZM56.5062 32.475H55.5683C55.5128 32.2052 55.4157 31.9682 55.2771 31.764C55.1409 31.5598 54.9745 31.3884 54.7779 31.2497C54.5837 31.1085 54.3682 31.0026 54.1312 30.932C53.8942 30.8614 53.6471 30.8261 53.3899 30.8261C52.921 30.8261 52.4962 30.9446 52.1155 31.1816C51.7373 31.4186 51.436 31.7678 51.2116 32.2292C50.9897 32.6906 50.8788 33.2566 50.8788 33.9272C50.8788 34.5979 50.9897 35.1639 51.2116 35.6253C51.436 36.0866 51.7373 36.4358 52.1155 36.6728C52.4962 36.9098 52.921 37.0283 53.3899 37.0283C53.6471 37.0283 53.8942 36.993 54.1312 36.9224C54.3682 36.8518 54.5837 36.7472 54.7779 36.6085C54.9745 36.4673 55.1409 36.2946 55.2771 36.0904C55.4157 35.8837 55.5128 35.6467 55.5683 35.3794H56.5062C56.4356 35.7753 56.307 36.1295 56.1204 36.4421C55.9338 36.7548 55.7019 37.0208 55.4246 37.2401C55.1472 37.4569 54.8359 37.6221 54.4904 37.7355C54.1476 37.849 53.7807 37.9057 53.3899 37.9057C52.7294 37.9057 52.1419 37.7443 51.6276 37.4216C51.1133 37.0989 50.7086 36.64 50.4136 36.045C50.1187 35.45 49.9712 34.7441 49.9712 33.9272C49.9712 33.1104 50.1187 32.4044 50.4136 31.8094C50.7086 31.2144 51.1133 30.7555 51.6276 30.4328C52.1419 30.1101 52.7294 29.9487 53.3899 29.9487C53.7807 29.9487 54.1476 30.0055 54.4904 30.1189C54.8359 30.2324 55.1472 30.3988 55.4246 30.6181C55.7019 30.835 55.9338 31.0997 56.1204 31.4123C56.307 31.7224 56.4356 32.0767 56.5062 32.475ZM60.2606 37.9208C59.7361 37.9208 59.276 37.796 58.8802 37.5464C58.4869 37.2968 58.1793 36.9476 57.9574 36.4989C57.7381 36.0501 57.6284 35.5257 57.6284 34.9256C57.6284 34.3205 57.7381 33.7923 57.9574 33.341C58.1793 32.8897 58.4869 32.5393 58.8802 32.2897C59.276 32.0401 59.7361 31.9153 60.2606 31.9153C60.785 31.9153 61.2438 32.0401 61.6371 32.2897C62.033 32.5393 62.3406 32.8897 62.5599 33.341C62.7818 33.7923 62.8927 34.3205 62.8927 34.9256C62.8927 35.5257 62.7818 36.0501 62.5599 36.4989C62.3406 36.9476 62.033 37.2968 61.6371 37.5464C61.2438 37.796 60.785 37.9208 60.2606 37.9208ZM60.2606 37.1191C60.6589 37.1191 60.9867 37.017 61.2438 36.8128C61.501 36.6085 61.6913 36.34 61.8149 36.0072C61.9384 35.6744 62.0002 35.3139 62.0002 34.9256C62.0002 34.5374 61.9384 34.1756 61.8149 33.8402C61.6913 33.5049 61.501 33.2339 61.2438 33.0271C60.9867 32.8204 60.6589 32.717 60.2606 32.717C59.8622 32.717 59.5344 32.8204 59.2773 33.0271C59.0201 33.2339 58.8298 33.5049 58.7062 33.8402C58.5827 34.1756 58.5209 34.5374 58.5209 34.9256C58.5209 35.3139 58.5827 35.6744 58.7062 36.0072C58.8298 36.34 59.0201 36.6085 59.2773 36.8128C59.5344 37.017 59.8622 37.1191 60.2606 37.1191ZM65.1476 30.0546V37.7998H64.2551V30.0546H65.1476ZM67.6748 30.0546V37.7998H66.7823V30.0546H67.6748ZM69.3095 37.7998V31.9909H70.202V37.7998H69.3095ZM69.7633 31.0228C69.5894 31.0228 69.4393 30.9635 69.3133 30.845C69.1897 30.7265 69.128 30.5841 69.128 30.4177C69.128 30.2513 69.1897 30.1088 69.3133 29.9903C69.4393 29.8719 69.5894 29.8126 69.7633 29.8126C69.9373 29.8126 70.086 29.8719 70.2096 29.9903C70.3356 30.1088 70.3987 30.2513 70.3987 30.4177C70.3987 30.5841 70.3356 30.7265 70.2096 30.845C70.086 30.9635 69.9373 31.0228 69.7633 31.0228ZM72.7292 34.3054V37.7998H71.8367V31.9909H72.699V32.8986H72.7746C72.9107 32.6036 73.1175 32.3666 73.3948 32.1876C73.6721 32.0061 74.0302 31.9153 74.4688 31.9153C74.8622 31.9153 75.2063 31.996 75.5013 32.1573C75.7963 32.3162 76.0257 32.5582 76.1896 32.8834C76.3535 33.2062 76.4354 33.6146 76.4354 34.1088V37.7998H75.5429V34.1693C75.5429 33.7129 75.4244 33.3574 75.1874 33.1028C74.9504 32.8456 74.6252 32.717 74.2117 32.717C73.9268 32.717 73.6721 32.7788 73.4478 32.9023C73.2259 33.0259 73.0507 33.2062 72.9221 33.4431C72.7935 33.6801 72.7292 33.9676 72.7292 34.3054ZM82.1809 33.2919L81.3792 33.5188C81.3287 33.3852 81.2544 33.2553 81.156 33.1293C81.0602 33.0007 80.9291 32.8948 80.7627 32.8116C80.5963 32.7284 80.3833 32.6868 80.1236 32.6868C79.7681 32.6868 79.4719 32.7687 79.2349 32.9326C79.0004 33.094 78.8832 33.2994 78.8832 33.549C78.8832 33.7709 78.9639 33.9461 79.1252 34.0747C79.2866 34.2033 79.5387 34.3104 79.8816 34.3962L80.7438 34.608C81.2632 34.734 81.6502 34.9269 81.9048 35.1866C82.1595 35.4437 82.2868 35.7753 82.2868 36.1812C82.2868 36.514 82.191 36.8115 81.9994 37.0737C81.8103 37.3359 81.5456 37.5426 81.2052 37.6939C80.8648 37.8452 80.469 37.9208 80.0177 37.9208C79.4252 37.9208 78.9349 37.7922 78.5466 37.5351C78.1583 37.2779 77.9125 36.9023 77.8091 36.4081L78.6563 36.1963C78.7369 36.5089 78.8895 36.7434 79.1139 36.8997C79.3408 37.056 79.637 37.1342 80.0026 37.1342C80.4186 37.1342 80.7489 37.046 80.9934 36.8695C81.2405 36.6905 81.364 36.4762 81.364 36.2266C81.364 36.0249 81.2935 35.856 81.1523 35.7198C81.0111 35.5811 80.7943 35.4778 80.5018 35.4097L79.5336 35.1828C79.0017 35.0567 78.6109 34.8613 78.3613 34.5966C78.1142 34.3294 77.9907 33.9953 77.9907 33.5944C77.9907 33.2667 78.0827 32.9767 78.2667 32.7246C78.4533 32.4725 78.7067 32.2746 79.0269 32.1309C79.3496 31.9872 79.7152 31.9153 80.1236 31.9153C80.6984 31.9153 81.1497 32.0414 81.4775 32.2935C81.8078 32.5456 82.0423 32.8784 82.1809 33.2919Z" fill="white"/>
</g>
<g filter="url(#filter2_f_249_168)">
<path d="M8.55837 54.727C8.55837 53.774 8.68191 52.8979 8.92899 52.0987C9.17859 51.2969 9.53408 50.5595 9.99546 49.8863H10.7821C10.6006 50.1359 10.4304 50.4435 10.2715 50.8091C10.1152 51.1721 9.97782 51.5717 9.85932 52.0079C9.74082 52.4415 9.64754 52.8903 9.57946 53.3542C9.51391 53.8181 9.48114 54.2757 9.48114 54.727C9.48114 55.3271 9.53913 55.9359 9.6551 56.5536C9.77108 57.1713 9.92739 57.7449 10.124 58.2744C10.3207 58.8038 10.54 59.235 10.7821 59.5678H9.99546C9.53408 58.8946 9.17859 58.1584 8.92899 57.3592C8.68191 56.5574 8.55837 55.68 8.55837 54.727ZM14.5043 58.7055C14.0606 58.7055 13.661 58.6173 13.3055 58.4408C12.95 58.2643 12.6651 58.0223 12.4508 57.7147C12.2365 57.4071 12.1193 57.0566 12.0991 56.6633H13.0067C13.042 57.0138 13.2009 57.3037 13.4832 57.5331C13.7681 57.76 14.1085 57.8735 14.5043 57.8735C14.822 57.8735 15.1044 57.7991 15.3515 57.6504C15.6011 57.5016 15.7965 57.2974 15.9376 57.0377C16.0814 56.7755 16.1532 56.4793 16.1532 56.149C16.1532 55.8111 16.0788 55.5099 15.9301 55.2451C15.7839 54.9779 15.5822 54.7674 15.325 54.6136C15.0678 54.4598 14.7741 54.3816 14.4438 54.3791C14.2068 54.3766 13.9635 54.4131 13.7139 54.4888C13.4643 54.5619 13.2589 54.6564 13.0975 54.7724L12.2201 54.6665L12.6891 50.8544H16.7129V51.6864H13.4757L13.2034 53.9707H13.2488C13.4076 53.8446 13.6068 53.74 13.8463 53.6568C14.0858 53.5736 14.3354 53.532 14.5951 53.532C15.0691 53.532 15.4914 53.6454 15.862 53.8723C16.2351 54.0967 16.5276 54.4043 16.7394 54.7951C16.9537 55.1859 17.0608 55.6321 17.0608 56.1339C17.0608 56.628 16.9499 57.0692 16.728 57.4575C16.5087 57.8432 16.2062 58.1483 15.8204 58.3727C15.4347 58.5946 14.996 58.7055 14.5043 58.7055ZM21.0894 58.7055C20.5196 58.7055 20.0343 58.5504 19.6334 58.2403C19.2326 57.9277 18.9262 57.4751 18.7144 56.8827C18.5027 56.2877 18.3968 55.5691 18.3968 54.727C18.3968 53.89 18.5027 53.1752 18.7144 52.5827C18.9287 51.9877 19.2363 51.5339 19.6372 51.2213C20.0406 50.9061 20.5247 50.7486 21.0894 50.7486C21.6542 50.7486 22.137 50.9061 22.5379 51.2213C22.9413 51.5339 23.2488 51.9877 23.4606 52.5827C23.6749 53.1752 23.7821 53.89 23.7821 54.727C23.7821 55.5691 23.6762 56.2877 23.4644 56.8827C23.2526 57.4751 22.9463 57.9277 22.5454 58.2403C22.1446 58.5504 21.6592 58.7055 21.0894 58.7055ZM21.0894 57.8735C21.6542 57.8735 22.0929 57.6012 22.4055 57.0566C22.7181 56.512 22.8744 55.7355 22.8744 54.727C22.8744 54.0564 22.8026 53.4853 22.6589 53.0139C22.5177 52.5424 22.3135 52.1831 22.0462 51.936C21.7815 51.689 21.4626 51.5654 21.0894 51.5654C20.5297 51.5654 20.0923 51.8415 19.7771 52.3936C19.462 52.9433 19.3044 53.7211 19.3044 54.727C19.3044 55.3977 19.375 55.9675 19.5162 56.4364C19.6574 56.9054 19.8603 57.2621 20.1251 57.5067C20.3923 57.7512 20.7138 57.8735 21.0894 57.8735ZM27.8362 58.7055C27.337 58.7055 26.892 58.6198 26.5012 58.4483C26.1129 58.2769 25.8041 58.0386 25.5747 57.7336C25.3478 57.426 25.2242 57.0692 25.204 56.6633H26.1571C26.1772 56.9129 26.263 57.1285 26.4142 57.31C26.5655 57.489 26.7634 57.6277 27.008 57.726C27.2525 57.8243 27.5236 57.8735 27.8211 57.8735C28.1539 57.8735 28.4488 57.8155 28.706 57.6995C28.9632 57.5836 29.1649 57.4222 29.3111 57.2155C29.4573 57.0087 29.5304 56.7692 29.5304 56.4969C29.5304 56.212 29.4599 55.9612 29.3187 55.7443C29.1775 55.525 28.9707 55.3535 28.6984 55.23C28.4262 55.1065 28.0934 55.0447 27.7 55.0447H27.0798V54.2127H27.7C28.0076 54.2127 28.2774 54.1572 28.5094 54.0463C28.7438 53.9354 28.9266 53.7791 29.0577 53.5774C29.1913 53.3757 29.2582 53.1387 29.2582 52.8664C29.2582 52.6042 29.2002 52.376 29.0842 52.1819C28.9682 51.9877 28.8043 51.8365 28.5926 51.728C28.3833 51.6196 28.1362 51.5654 27.8513 51.5654C27.5841 51.5654 27.332 51.6146 27.095 51.7129C26.8605 51.8087 26.6689 51.9487 26.5201 52.1327C26.3714 52.3142 26.2907 52.5336 26.2781 52.7907H25.3704C25.3856 52.3848 25.5079 52.0293 25.7373 51.7243C25.9667 51.4167 26.2667 51.1772 26.6374 51.0057C27.0105 50.8343 27.4202 50.7486 27.8664 50.7486C28.3455 50.7486 28.7564 50.8456 29.0993 51.0398C29.4422 51.2314 29.7057 51.4847 29.8897 51.7999C30.0738 52.1151 30.1658 52.4554 30.1658 52.821C30.1658 53.2572 30.0511 53.629 29.8216 53.9366C29.5947 54.2442 29.2859 54.4573 28.8951 54.5758V54.6363C29.3842 54.7169 29.7662 54.9249 30.041 55.2603C30.3158 55.5931 30.4532 56.0053 30.4532 56.4969C30.4532 56.918 30.3385 57.2961 30.1091 57.6315C29.8822 57.9643 29.572 58.2265 29.1787 58.4181C28.7854 58.6097 28.3379 58.7055 27.8362 58.7055ZM33.9211 54.727C33.9211 55.68 33.7963 56.5574 33.5467 57.3592C33.2997 58.1584 32.9454 58.8946 32.484 59.5678H31.6974C31.879 59.3182 32.0479 59.0106 32.2042 58.645C32.363 58.2819 32.5017 57.8836 32.6202 57.4499C32.7387 57.0138 32.8307 56.5637 32.8963 56.0998C32.9643 55.6334 32.9984 55.1758 32.9984 54.727C32.9984 54.127 32.9404 53.5181 32.8244 52.9004C32.7084 52.2827 32.5521 51.7091 32.3555 51.1797C32.1588 50.6502 31.9395 50.2191 31.6974 49.8863H32.484C32.9454 50.5595 33.2997 51.2969 33.5467 52.0987C33.7963 52.8979 33.9211 53.774 33.9211 54.727ZM39.2015 54.311V55.143H35.813V54.311H39.2015ZM43.3284 58.7055C43.0107 58.7005 42.6931 58.6399 42.3754 58.524C42.0577 58.408 41.7678 58.2126 41.5056 57.9378C41.2434 57.6605 41.0328 57.2861 40.874 56.8146C40.7152 56.3406 40.6358 55.7456 40.6358 55.0296C40.6358 54.3438 40.7 53.7362 40.8286 53.2067C40.9572 52.6748 41.1438 52.2272 41.3883 51.8642C41.6329 51.4986 41.9279 51.2213 42.2733 51.0322C42.6212 50.8431 43.0133 50.7486 43.4494 50.7486C43.8831 50.7486 44.2688 50.8355 44.6067 51.0095C44.947 51.1809 45.2244 51.4205 45.4387 51.728C45.653 52.0356 45.7916 52.3899 45.8547 52.7907H44.9319C44.8462 52.4428 44.6798 52.1541 44.4327 51.9247C44.1856 51.6953 43.8579 51.5806 43.4494 51.5806C42.8494 51.5806 42.3767 51.8415 42.0312 52.3634C41.6884 52.8853 41.5157 53.6177 41.5131 54.5606H41.5736C41.7148 54.3463 41.8825 54.1635 42.0766 54.0123C42.2733 53.8585 42.4901 53.74 42.7271 53.6568C42.9641 53.5736 43.215 53.532 43.4797 53.532C43.9234 53.532 44.3293 53.6429 44.6974 53.8648C45.0655 54.0841 45.3605 54.3879 45.5824 54.7762C45.8042 55.1619 45.9152 55.6044 45.9152 56.1036C45.9152 56.5826 45.808 57.0213 45.5937 57.4197C45.3794 57.8155 45.0781 58.1307 44.6899 58.3651C44.3041 58.5971 43.8503 58.7105 43.3284 58.7055ZM43.3284 57.8735C43.6461 57.8735 43.931 57.7941 44.1831 57.6352C44.4377 57.4764 44.6382 57.2634 44.7844 56.9961C44.9332 56.7289 45.0075 56.4314 45.0075 56.1036C45.0075 55.7834 44.9357 55.4922 44.792 55.23C44.6508 54.9653 44.4554 54.7548 44.2058 54.5984C43.9587 54.4421 43.6763 54.364 43.3587 54.364C43.1191 54.364 42.896 54.4119 42.6893 54.5077C42.4825 54.601 42.301 54.7295 42.1447 54.8934C41.9909 55.0573 41.8699 55.2451 41.7816 55.4569C41.6934 55.6662 41.6493 55.8868 41.6493 56.1187C41.6493 56.4263 41.7211 56.7137 41.8648 56.981C42.0111 57.2482 42.2103 57.4638 42.4624 57.6277C42.717 57.7916 43.0057 57.8735 43.3284 57.8735ZM47.6444 58.5996L51.1086 51.747V51.6864H47.115V50.8544H52.0767V51.7318L48.6277 58.5996H47.6444ZM56.2093 50.8544V58.5996H55.2714V51.8377H55.226L53.3351 53.0933V52.1403L55.2714 50.8544H56.2093ZM61.7799 54.311V55.143H58.3914V54.311H61.7799ZM65.9068 58.7055C65.5891 58.7005 65.2715 58.6399 64.9538 58.524C64.6361 58.408 64.3462 58.2126 64.084 57.9378C63.8218 57.6605 63.6112 57.2861 63.4524 56.8146C63.2936 56.3406 63.2142 55.7456 63.2142 55.0296C63.2142 54.3438 63.2784 53.7362 63.407 53.2067C63.5356 52.6748 63.7222 52.2272 63.9667 51.8642C64.2113 51.4986 64.5063 51.2213 64.8517 51.0322C65.1996 50.8431 65.5917 50.7486 66.0278 50.7486C66.4615 50.7486 66.8472 50.8355 67.1851 51.0095C67.5254 51.1809 67.8028 51.4205 68.0171 51.728C68.2314 52.0356 68.37 52.3899 68.4331 52.7907H67.5103C67.4246 52.4428 67.2582 52.1541 67.0111 51.9247C66.764 51.6953 66.4363 51.5806 66.0278 51.5806C65.4278 51.5806 64.9551 51.8415 64.6096 52.3634C64.2668 52.8853 64.0941 53.6177 64.0915 54.5606H64.152C64.2932 54.3463 64.4609 54.1635 64.655 54.0123C64.8517 53.8585 65.0685 53.74 65.3055 53.6568C65.5425 53.5736 65.7934 53.532 66.0581 53.532C66.5018 53.532 66.9077 53.6429 67.2758 53.8648C67.6439 54.0841 67.9389 54.3879 68.1608 54.7762C68.3826 55.1619 68.4936 55.6044 68.4936 56.1036C68.4936 56.5826 68.3864 57.0213 68.1721 57.4197C67.9578 57.8155 67.6565 58.1307 67.2683 58.3651C66.8825 58.5971 66.4287 58.7105 65.9068 58.7055ZM65.9068 57.8735C66.2245 57.8735 66.5094 57.7941 66.7615 57.6352C67.0161 57.4764 67.2166 57.2634 67.3628 56.9961C67.5116 56.7289 67.5859 56.4314 67.5859 56.1036C67.5859 55.7834 67.5141 55.4922 67.3704 55.23C67.2292 54.9653 67.0338 54.7548 66.7842 54.5984C66.5371 54.4421 66.2547 54.364 65.9371 54.364C65.6975 54.364 65.4744 54.4119 65.2677 54.5077C65.0609 54.601 64.8794 54.7295 64.7231 54.8934C64.5693 55.0573 64.4483 55.2451 64.36 55.4569C64.2718 55.6662 64.2277 55.8868 64.2277 56.1187C64.2277 56.4263 64.2995 56.7137 64.4432 56.981C64.5895 57.2482 64.7887 57.4638 65.0408 57.6277C65.2954 57.7916 65.5841 57.8735 65.9068 57.8735ZM69.7992 57.0112V56.2398L73.2029 50.8544H73.7626V52.0495H73.3844L70.8128 56.1187V56.1792H75.3963V57.0112H69.7992ZM73.4449 58.5996V56.7768V56.4175V50.8544H74.3374V58.5996H73.4449ZM79.2339 58.7055C78.7902 58.7055 78.3906 58.6173 78.0351 58.4408C77.6796 58.2643 77.3947 58.0223 77.1804 57.7147C76.9661 57.4071 76.8489 57.0566 76.8287 56.6633H77.7363C77.7716 57.0138 77.9305 57.3037 78.2128 57.5331C78.4977 57.76 78.8381 57.8735 79.2339 57.8735C79.5516 57.8735 79.834 57.7991 80.0811 57.6504C80.3307 57.5016 80.5261 57.2974 80.6672 57.0377C80.811 56.7755 80.8828 56.4793 80.8828 56.149C80.8828 55.8111 80.8084 55.5099 80.6597 55.2451C80.5135 54.9779 80.3118 54.7674 80.0546 54.6136C79.7974 54.4598 79.5037 54.3816 79.1734 54.3791C78.9364 54.3766 78.6931 54.4131 78.4435 54.4888C78.1939 54.5619 77.9885 54.6564 77.8271 54.7724L76.9497 54.6665L77.4187 50.8544H81.4425V51.6864H78.2053L77.933 53.9707H77.9784C78.1372 53.8446 78.3364 53.74 78.5759 53.6568C78.8154 53.5736 79.065 53.532 79.3247 53.532C79.7987 53.532 80.221 53.6454 80.5916 53.8723C80.9647 54.0967 81.2572 54.4043 81.469 54.7951C81.6833 55.1859 81.7904 55.6321 81.7904 56.1339C81.7904 56.628 81.6795 57.0692 81.4576 57.4575C81.2383 57.8432 80.9358 58.1483 80.55 58.3727C80.1643 58.5946 79.7256 58.7055 79.2339 58.7055ZM85.9098 58.7055C85.4106 58.7055 84.9656 58.6198 84.5748 58.4483C84.1865 58.2769 83.8777 58.0386 83.6483 57.7336C83.4214 57.426 83.2978 57.0692 83.2776 56.6633H84.2307C84.2508 56.9129 84.3366 57.1285 84.4878 57.31C84.6391 57.489 84.837 57.6277 85.0816 57.726C85.3261 57.8243 85.5972 57.8735 85.8947 57.8735C86.2275 57.8735 86.5224 57.8155 86.7796 57.6995C87.0368 57.5836 87.2385 57.4222 87.3847 57.2155C87.5309 57.0087 87.604 56.7692 87.604 56.4969C87.604 56.212 87.5335 55.9612 87.3923 55.7443C87.2511 55.525 87.0443 55.3535 86.772 55.23C86.4998 55.1065 86.167 55.0447 85.7736 55.0447H85.1534V54.2127H85.7736C86.0812 54.2127 86.351 54.1572 86.583 54.0463C86.8174 53.9354 87.0002 53.7791 87.1313 53.5774C87.2649 53.3757 87.3318 53.1387 87.3318 52.8664C87.3318 52.6042 87.2738 52.376 87.1578 52.1819C87.0418 51.9877 86.8779 51.8365 86.6662 51.728C86.4569 51.6196 86.2098 51.5654 85.9249 51.5654C85.6577 51.5654 85.4055 51.6146 85.1686 51.7129C84.9341 51.8087 84.7425 51.9487 84.5937 52.1327C84.445 52.3142 84.3643 52.5336 84.3517 52.7907H83.444C83.4592 52.3848 83.5815 52.0293 83.8109 51.7243C84.0403 51.4167 84.3403 51.1772 84.711 51.0057C85.0841 50.8343 85.4938 50.7486 85.94 50.7486C86.4191 50.7486 86.83 50.8456 87.1729 51.0398C87.5158 51.2314 87.7793 51.4847 87.9633 51.7999C88.1474 52.1151 88.2394 52.4554 88.2394 52.821C88.2394 53.2572 88.1247 53.629 87.8952 53.9366C87.6683 54.2442 87.3595 54.4573 86.9687 54.5758V54.6363C87.4578 54.7169 87.8398 54.9249 88.1146 55.2603C88.3894 55.5931 88.5268 56.0053 88.5268 56.4969C88.5268 56.918 88.4121 57.2961 88.1827 57.6315C87.9558 57.9643 87.6456 58.2265 87.2523 58.4181C86.859 58.6097 86.4115 58.7055 85.9098 58.7055Z" fill="white"/>
</g>
<defs>
<filter id="filter0_f_249_168" x="1.07035" y="0.798682" width="94.9445" height="24.6575" filterUnits="userSpaceOnUse" color-interpolation-filters="sRGB">
<feFlood flood-opacity="0" result="BackgroundImageFix"/>
<feBlend mode="normal" in="SourceGraphic" in2="BackgroundImageFix" result="shape"/>
<feGaussianBlur stdDeviation="3.744" result="effect1_foregroundBlur_249_168"/>
</filter>
<filter id="filter1_f_249_168" x="0.374549" y="22.3246" width="89.4003" height="23.0994" filterUnits="userSpaceOnUse" color-interpolation-filters="sRGB">
<feFlood flood-opacity="0" result="BackgroundImageFix"/>
<feBlend mode="normal" in="SourceGraphic" in2="BackgroundImageFix" result="shape"/>
<feGaussianBlur stdDeviation="3.744" result="effect1_foregroundBlur_249_168"/>
</filter>
<filter id="filter2_f_249_168" x="1.07035" y="42.3983" width="94.9445" height="24.6575" filterUnits="userSpaceOnUse" color-interpolation-filters="sRGB">
<feFlood flood-opacity="0" result="BackgroundImageFix"/>
<feBlend mode="normal" in="SourceGraphic" in2="BackgroundImageFix" result="shape"/>
<feGaussianBlur stdDeviation="3.744" result="effect1_foregroundBlur_249_168"/>
</filter>
</defs>
</svg>
