<svg width="250" height="184" viewBox="0 0 250 184" fill="none" xmlns="http://www.w3.org/2000/svg">
<rect x="0.5" y="0.5" width="249" height="36" rx="2.5" stroke="#5781F2"/>
<path d="M93.4985 26.8745C94.6565 26.8745 95.5925 25.9385 95.5925 24.7805H91.4045C91.4045 25.9385 92.3405 26.8745 93.4985 26.8745Z" fill="#5781F2"/>
<path d="M99.4836 21.4952C99.1536 21.4952 98.8866 21.2282 98.8866 20.8982V17.3072C98.8866 14.7992 97.1706 12.6902 94.8486 12.0902V11.4722C94.8456 10.7252 94.2426 10.1252 93.4986 10.1252C92.7546 10.1252 92.1516 10.7282 92.1516 11.4722V12.0902C89.8296 12.6872 88.1136 14.7962 88.1136 17.3072V20.8982C88.1136 21.2282 87.8436 21.4952 87.5166 21.4952C86.8566 21.4952 86.3196 22.0322 86.3196 22.6922C86.3196 23.3522 86.8566 23.8892 87.5196 23.8892H99.4806C100.144 23.8892 100.681 23.3522 100.681 22.6922C100.681 22.0322 100.141 21.4952 99.4836 21.4952Z" fill="#5781F2"/>
<path d="M119.92 23H118.38L117.624 21.068H113.046L112.29 23H110.75L114.46 13.662H116.21L119.92 23ZM117.218 19.822L115.328 14.88L113.452 19.822H117.218ZM122.273 23H121.013V13.662H122.273V23ZM123.86 19.612C123.86 17.652 125.274 16.07 127.248 16.07C129.278 16.07 130.538 17.652 130.538 19.724V20.032H125.19C125.288 21.18 126.128 22.132 127.486 22.132C128.2 22.132 128.984 21.852 129.488 21.334L130.076 22.16C129.404 22.818 128.452 23.168 127.36 23.168C125.344 23.168 123.86 21.74 123.86 19.612ZM127.248 17.106C125.89 17.106 125.246 18.198 125.176 19.122H129.306C129.278 18.226 128.676 17.106 127.248 17.106ZM133.374 23H132.114V16.238H133.374V17.274C133.892 16.602 134.69 16.084 135.586 16.084V17.358C135.46 17.33 135.32 17.316 135.152 17.316C134.522 17.316 133.668 17.792 133.374 18.296V23ZM138.707 23.168C137.643 23.168 137.097 22.566 137.097 21.502V17.344H135.977V16.238H137.097V14.39H138.357V16.238H139.729V17.344H138.357V21.222C138.357 21.698 138.581 22.048 139.015 22.048C139.309 22.048 139.575 21.922 139.701 21.782L140.023 22.734C139.757 22.986 139.365 23.168 138.707 23.168ZM154.197 23H152.797V15.58L149.773 23H149.185L146.161 15.58V23H144.761V13.662H146.763L149.479 20.368L152.195 13.662H154.197V23ZM155.825 19.612C155.825 17.652 157.239 16.07 159.213 16.07C161.243 16.07 162.503 17.652 162.503 19.724V20.032H157.155C157.253 21.18 158.093 22.132 159.451 22.132C160.165 22.132 160.949 21.852 161.453 21.334L162.041 22.16C161.369 22.818 160.417 23.168 159.325 23.168C157.309 23.168 155.825 21.74 155.825 19.612ZM159.213 17.106C157.855 17.106 157.211 18.198 157.141 19.122H161.271C161.243 18.226 160.641 17.106 159.213 17.106Z" fill="#5781F2"/>
<rect x="0.5" y="49.5" width="249" height="36" rx="2.5" stroke="#5781F2"/>
<path d="M85.1736 63.6565C84.6456 63.6565 84.1716 63.3385 83.9676 62.8525C83.7666 62.3665 83.8776 61.8055 84.2496 61.4305C84.6216 61.0585 85.1826 60.9445 85.6716 61.1485C86.1576 61.3525 86.4756 61.8265 86.4756 62.3545C86.4756 63.0745 85.8936 63.6565 85.1736 63.6565ZM87.0906 60.0745C86.0466 59.1835 84.6606 58.8055 83.3106 59.0455C81.9606 59.2855 80.7876 60.1195 80.1156 61.3135C79.4436 62.5075 79.3416 63.9415 79.8396 65.2195L79.7346 65.2705L77.6136 67.7965L77.5447 69.4975L75.7447 70.0195L75.3846 71.6425L73.8367 72.2905C73.0507 73.2325 73.1377 74.6275 74.0377 75.4615C75.3067 76.4485 76.3716 76.0225 77.1606 75.0805L83.0586 68.0605L83.1426 68.0365C84.4836 68.3275 85.8816 68.0035 86.9586 67.1515C88.0356 66.2995 88.6746 65.0125 88.6986 63.6415C88.7256 62.2705 88.1346 60.9595 87.0936 60.0685L87.0906 60.0745Z" fill="#5781F2"/>
<path d="M107.086 72H105.35L102.018 67.94L101.136 68.934V72H99.7357V62.662H101.136V67.296L105.042 62.662H106.778L102.928 67.086L107.086 72ZM107.395 68.612C107.395 66.652 108.809 65.07 110.783 65.07C112.813 65.07 114.073 66.652 114.073 68.724V69.032H108.725C108.823 70.18 109.663 71.132 111.021 71.132C111.735 71.132 112.519 70.852 113.023 70.334L113.611 71.16C112.939 71.818 111.987 72.168 110.895 72.168C108.879 72.168 107.395 70.74 107.395 68.612ZM110.783 66.106C109.425 66.106 108.781 67.198 108.711 68.122H112.841C112.813 67.226 112.211 66.106 110.783 66.106ZM115.313 74.646L115.509 73.512C115.663 73.582 115.901 73.624 116.069 73.624C116.531 73.624 116.839 73.47 117.049 72.966L117.441 72.07L114.655 65.238H115.999L118.113 70.544L120.227 65.238H121.585L118.253 73.288C117.819 74.352 117.077 74.73 116.097 74.744C115.887 74.744 115.509 74.702 115.313 74.646ZM134.449 72H132.909L132.153 70.068H127.575L126.819 72H125.279L128.989 62.662H130.739L134.449 72ZM131.747 68.822L129.857 63.88L127.981 68.822H131.747ZM135.122 68.612C135.122 66.582 136.522 65.07 138.566 65.07C139.84 65.07 140.61 65.602 141.1 66.26L140.26 67.03C139.854 66.456 139.308 66.19 138.622 66.19C137.292 66.19 136.438 67.212 136.438 68.612C136.438 70.012 137.292 71.048 138.622 71.048C139.308 71.048 139.854 70.768 140.26 70.208L141.1 70.978C140.61 71.636 139.84 72.168 138.566 72.168C136.522 72.168 135.122 70.642 135.122 68.612ZM142.067 68.612C142.067 66.582 143.467 65.07 145.511 65.07C146.785 65.07 147.555 65.602 148.045 66.26L147.205 67.03C146.799 66.456 146.253 66.19 145.567 66.19C144.237 66.19 143.383 67.212 143.383 68.612C143.383 70.012 144.237 71.048 145.567 71.048C146.253 71.048 146.799 70.768 147.205 70.208L148.045 70.978C147.555 71.636 146.785 72.168 145.511 72.168C143.467 72.168 142.067 70.642 142.067 68.612ZM152.428 72.168C150.328 72.168 149.012 70.572 149.012 68.612C149.012 66.666 150.328 65.07 152.428 65.07C154.542 65.07 155.844 66.666 155.844 68.612C155.844 70.572 154.542 72.168 152.428 72.168ZM152.428 71.048C153.786 71.048 154.528 69.9 154.528 68.612C154.528 67.338 153.786 66.19 152.428 66.19C151.084 66.19 150.328 67.338 150.328 68.612C150.328 69.9 151.084 71.048 152.428 71.048ZM163.268 72H162.008V71.076C161.49 71.636 160.636 72.168 159.6 72.168C158.158 72.168 157.444 71.44 157.444 70.012V65.238H158.704V69.592C158.704 70.712 159.264 71.048 160.132 71.048C160.916 71.048 161.63 70.6 162.008 70.096V65.238H163.268V72ZM171.088 72H169.828V67.674C169.828 66.554 169.254 66.19 168.386 66.19C167.602 66.19 166.888 66.666 166.524 67.17V72H165.264V65.238H166.524V66.19C166.972 65.644 167.868 65.07 168.918 65.07C170.346 65.07 171.088 65.826 171.088 67.254V72ZM174.947 72.168C173.883 72.168 173.337 71.566 173.337 70.502V66.344H172.217V65.238H173.337V63.39H174.597V65.238H175.969V66.344H174.597V70.222C174.597 70.698 174.821 71.048 175.255 71.048C175.549 71.048 175.815 70.922 175.941 70.782L176.263 71.734C175.997 71.986 175.605 72.168 174.947 72.168Z" fill="#5781F2"/>
<rect x="0.5" y="98.5" width="249" height="36" rx="2.5" stroke="#5781F2"/>
<path d="M92.1256 113.142C92.2816 112.986 92.2816 112.731 92.1256 112.572C91.9696 112.413 91.7146 112.413 91.5556 112.572L87.0976 117.027C86.9386 117.183 86.9386 117.438 87.0976 117.597C87.2536 117.756 87.5086 117.756 87.6676 117.597L92.1256 113.142ZM86.4766 118.218C86.4016 118.143 86.2996 118.101 86.1916 118.101C86.0836 118.101 85.9816 118.143 85.9066 118.218L85.2646 118.863C85.1896 118.938 85.1476 119.04 85.1476 119.148C85.1476 119.256 85.1896 119.358 85.2646 119.433C85.3396 119.508 85.4416 119.55 85.5496 119.55C85.6576 119.55 85.7596 119.508 85.8346 119.433L86.4766 118.788C86.5516 118.713 86.5936 118.611 86.5936 118.503C86.5936 118.395 86.5516 118.293 86.4766 118.218ZM96.2536 115.266L87.9016 123.618L82.8706 118.587L91.2286 110.241L96.2566 115.266H96.2536ZM82.4026 119.256L81.7636 124.287C81.7486 124.401 81.7846 124.518 81.8626 124.605C81.9406 124.692 82.0516 124.743 82.1656 124.74H82.2166L87.2476 124.101L82.3996 119.256H82.4026ZM91.7956 109.671L92.5996 108.867C93.4126 108.057 94.7266 108.057 95.5396 108.867L97.6306 110.952C98.0206 111.342 98.2396 111.87 98.2396 112.422C98.2396 112.974 98.0206 113.502 97.6306 113.892L96.8266 114.696L91.7986 109.671H91.7956Z" fill="#5781F2"/>
<path d="M117.48 121H115.94L115.184 119.068H110.606L109.85 121H108.31L112.02 111.662H113.77L117.48 121ZM114.778 117.822L112.888 112.88L111.012 117.822H114.778ZM124.648 121H123.388V120.034C122.884 120.706 122.072 121.168 121.176 121.168C119.412 121.168 118.152 119.838 118.152 117.626C118.152 115.456 119.412 114.07 121.176 114.07C122.044 114.07 122.842 114.49 123.388 115.218V111.662H124.648V121ZM123.388 119.068V116.184C123.038 115.638 122.282 115.19 121.512 115.19C120.252 115.19 119.468 116.212 119.468 117.626C119.468 119.026 120.252 120.048 121.512 120.048C122.282 120.048 123.038 119.614 123.388 119.068ZM132.742 121H131.482V120.034C130.978 120.706 130.166 121.168 129.27 121.168C127.506 121.168 126.246 119.838 126.246 117.626C126.246 115.456 127.506 114.07 129.27 114.07C130.138 114.07 130.936 114.49 131.482 115.218V111.662H132.742V121ZM131.482 119.068V116.184C131.132 115.638 130.376 115.19 129.606 115.19C128.346 115.19 127.562 116.212 127.562 117.626C127.562 119.026 128.346 120.048 129.606 120.048C130.376 120.048 131.132 119.614 131.482 119.068ZM146.321 121H144.963L139.797 113.832V121H138.397V111.662H139.839L144.921 118.662V111.662H146.321V121ZM151.359 121.168C149.259 121.168 147.943 119.572 147.943 117.612C147.943 115.666 149.259 114.07 151.359 114.07C153.473 114.07 154.775 115.666 154.775 117.612C154.775 119.572 153.473 121.168 151.359 121.168ZM151.359 120.048C152.717 120.048 153.459 118.9 153.459 117.612C153.459 116.338 152.717 115.19 151.359 115.19C150.015 115.19 149.259 116.338 149.259 117.612C149.259 118.9 150.015 120.048 151.359 120.048ZM158.237 121.168C157.173 121.168 156.627 120.566 156.627 119.502V115.344H155.507V114.238H156.627V112.39H157.887V114.238H159.259V115.344H157.887V119.222C157.887 119.698 158.111 120.048 158.545 120.048C158.839 120.048 159.105 119.922 159.231 119.782L159.553 120.734C159.287 120.986 158.895 121.168 158.237 121.168ZM160.234 117.612C160.234 115.652 161.648 114.07 163.622 114.07C165.652 114.07 166.912 115.652 166.912 117.724V118.032H161.564C161.662 119.18 162.502 120.132 163.86 120.132C164.574 120.132 165.358 119.852 165.862 119.334L166.45 120.16C165.778 120.818 164.826 121.168 163.734 121.168C161.718 121.168 160.234 119.74 160.234 117.612ZM163.622 115.106C162.264 115.106 161.62 116.198 161.55 117.122H165.68C165.652 116.226 165.05 115.106 163.622 115.106Z" fill="#5781F2"/>
<rect x="0.5" y="147.5" width="249" height="36" rx="2.5" stroke="#5781F2"/>
<path d="M88.9336 162.494H79.0666V159.497C79.0636 159.425 79.0636 159.356 79.0666 159.284C79.1806 158.066 80.2036 157.136 81.4276 157.136H86.5726C87.7936 157.139 88.8106 158.072 88.9246 159.284C88.9306 159.353 88.9306 159.425 88.9246 159.497L88.9336 162.494ZM86.5246 172.574H81.4246C80.8336 172.574 80.3566 172.094 80.3566 171.506V170.225H87.6886V171.506C87.6886 171.797 87.5686 172.076 87.3586 172.28C87.1486 172.481 86.8636 172.589 86.5726 172.577H86.5246V172.574ZM89.9566 168.074C89.6086 168.074 89.2966 167.864 89.1646 167.546C89.0326 167.225 89.1046 166.856 89.3506 166.61C89.5966 166.364 89.9656 166.292 90.2866 166.424C90.6076 166.556 90.8176 166.868 90.8176 167.216C90.8176 167.672 90.4606 168.05 90.0046 168.074H89.9566ZM87.3826 166.358C87.7306 166.358 88.0426 166.568 88.1746 166.886C88.3066 167.207 88.2346 167.576 87.9886 167.822C87.7426 168.068 87.3736 168.14 87.0526 168.008C86.7316 167.876 86.5246 167.564 86.5246 167.216C86.5246 166.979 86.6206 166.754 86.7916 166.592C86.9626 166.43 87.1936 166.346 87.4276 166.358H87.3796H87.3826ZM91.0726 162.992V159.968C91.0846 159.794 91.0276 159.623 90.9106 159.494C90.7936 159.365 90.6286 159.29 90.4546 159.287H89.8636C89.8696 159.356 89.8696 159.428 89.8636 159.5V163.418H78.1426V159.5C78.1366 159.428 78.1366 159.359 78.1426 159.287H77.5426C77.3686 159.29 77.2036 159.368 77.0866 159.494C76.9696 159.623 76.9096 159.794 76.9246 159.968V162.992C76.2766 163.337 75.7336 163.853 75.3556 164.483C74.9776 165.113 74.7766 165.833 74.7766 166.568V170C74.7766 170.627 75.0256 171.227 75.4696 171.668C75.9136 172.109 76.5136 172.361 77.1376 172.361H79.2316C79.5826 173.267 80.4556 173.864 81.4276 173.864H86.5726C87.5446 173.864 88.4176 173.267 88.7686 172.361H90.8626C92.1676 172.361 93.2236 171.305 93.2236 170V166.568C93.2236 165.833 93.0226 165.113 92.6446 164.483C92.2666 163.853 91.7236 163.337 91.0756 162.992H91.0726Z" fill="#5781F2"/>
<path d="M105.659 170H104.259V160.662H108.193C110.111 160.662 111.175 161.978 111.175 163.532C111.175 165.086 110.097 166.402 108.193 166.402H105.659V170ZM109.733 163.532C109.733 162.552 109.019 161.894 108.011 161.894H105.659V165.17H108.011C109.019 165.17 109.733 164.512 109.733 163.532ZM113.845 170H112.585V163.238H113.845V164.274C114.363 163.602 115.161 163.084 116.057 163.084V164.358C115.931 164.33 115.791 164.316 115.623 164.316C114.993 164.316 114.139 164.792 113.845 165.296V170ZM117.931 162.104C117.497 162.104 117.119 161.754 117.119 161.306C117.119 160.858 117.497 160.494 117.931 160.494C118.379 160.494 118.743 160.858 118.743 161.306C118.743 161.754 118.379 162.104 117.931 162.104ZM118.575 170H117.315V163.238H118.575V170ZM126.407 170H125.147V165.674C125.147 164.554 124.573 164.19 123.705 164.19C122.921 164.19 122.207 164.666 121.843 165.17V170H120.583V163.238H121.843V164.19C122.291 163.644 123.187 163.07 124.237 163.07C125.665 163.07 126.407 163.826 126.407 165.254V170ZM130.265 170.168C129.201 170.168 128.655 169.566 128.655 168.502V164.344H127.535V163.238H128.655V161.39H129.915V163.238H131.287V164.344H129.915V168.222C129.915 168.698 130.139 169.048 130.573 169.048C130.867 169.048 131.133 168.922 131.259 168.782L131.581 169.734C131.315 169.986 130.923 170.168 130.265 170.168ZM137.72 170H136.32V160.662H140.254C142.172 160.662 143.236 161.978 143.236 163.532C143.236 165.086 142.158 166.402 140.254 166.402H137.72V170ZM141.794 163.532C141.794 162.552 141.08 161.894 140.072 161.894H137.72V165.17H140.072C141.08 165.17 141.794 164.512 141.794 163.532ZM145.905 170H144.645V163.238H145.905V164.274C146.423 163.602 147.221 163.084 148.117 163.084V164.358C147.991 164.33 147.851 164.316 147.683 164.316C147.053 164.316 146.199 164.792 145.905 165.296V170ZM152.372 170.168C150.272 170.168 148.956 168.572 148.956 166.612C148.956 164.666 150.272 163.07 152.372 163.07C154.486 163.07 155.788 164.666 155.788 166.612C155.788 168.572 154.486 170.168 152.372 170.168ZM152.372 169.048C153.73 169.048 154.472 167.9 154.472 166.612C154.472 165.338 153.73 164.19 152.372 164.19C151.028 164.19 150.272 165.338 150.272 166.612C150.272 167.9 151.028 169.048 152.372 169.048ZM162.148 162.104C161.714 162.104 161.336 161.754 161.336 161.306C161.336 160.858 161.714 160.494 162.148 160.494C162.596 160.494 162.96 160.858 162.96 161.306C162.96 161.754 162.596 162.104 162.148 162.104ZM158.956 164.344V170H157.696V164.344H156.576V163.238H157.696V162.79C157.696 161.334 158.55 160.522 159.754 160.522C160.188 160.522 160.566 160.606 160.86 160.774L160.566 161.712C160.412 161.614 160.216 161.558 159.964 161.558C159.334 161.558 158.956 161.978 158.956 162.79V163.238H160.328V164.344H158.956ZM162.792 170H161.532V163.238H162.792V170ZM166.058 170H164.798V160.662H166.058V170ZM167.645 166.612C167.645 164.652 169.059 163.07 171.033 163.07C173.063 163.07 174.323 164.652 174.323 166.724V167.032H168.975C169.073 168.18 169.913 169.132 171.271 169.132C171.985 169.132 172.769 168.852 173.273 168.334L173.861 169.16C173.189 169.818 172.237 170.168 171.145 170.168C169.129 170.168 167.645 168.74 167.645 166.612ZM171.033 164.106C169.675 164.106 169.031 165.198 168.961 166.122H173.091C173.063 165.226 172.461 164.106 171.033 164.106Z" fill="#5781F2"/>
</svg>
