<svg width="898" height="44" viewBox="0 0 898 44" fill="none" xmlns="http://www.w3.org/2000/svg">
<rect x="807.416" y="6.416" width="90.168" height="30.168" rx="3.744" stroke="#93A2AD" stroke-width="0.832"/>
<path d="M822.259 19.2717V25.9277H821.453V19.2717H822.259ZM824.539 22.9247V25.9277H823.772V20.9357H824.513V21.7157H824.578C824.695 21.4622 824.872 21.2586 825.111 21.1047C825.349 20.9487 825.657 20.8707 826.034 20.8707C826.372 20.8707 826.667 20.9401 826.921 21.0787C827.174 21.2152 827.371 21.4232 827.512 21.7027C827.653 21.9801 827.724 22.3311 827.724 22.7557V25.9277H826.957V22.8077C826.957 22.4156 826.855 22.1101 826.651 21.8912C826.447 21.6702 826.168 21.5597 825.813 21.5597C825.568 21.5597 825.349 21.6128 825.156 21.719C824.965 21.8252 824.815 21.9801 824.704 22.1837C824.594 22.3874 824.539 22.6344 824.539 22.9247ZM831.01 26.0317C830.594 26.0317 830.227 25.9267 829.908 25.7165C829.59 25.5042 829.341 25.2052 829.161 24.8195C828.981 24.4317 828.891 23.9734 828.891 23.4447C828.891 22.9204 828.981 22.4654 829.161 22.0797C829.341 21.6941 829.591 21.3962 829.912 21.186C830.232 20.9758 830.603 20.8707 831.023 20.8707C831.348 20.8707 831.605 20.9249 831.793 21.0332C831.984 21.1394 832.129 21.2607 832.229 21.3972C832.331 21.5316 832.41 21.6421 832.466 21.7287H832.531V19.2717H833.298V25.9277H832.557V25.1607H832.466C832.41 25.2517 832.33 25.3666 832.226 25.5052C832.122 25.6417 831.973 25.7642 831.78 25.8725C831.588 25.9787 831.331 26.0317 831.01 26.0317ZM831.114 25.3427C831.422 25.3427 831.682 25.2626 831.894 25.1022C832.106 24.9397 832.268 24.7155 832.378 24.4295C832.489 24.1413 832.544 23.8087 832.544 23.4317C832.544 23.0591 832.49 22.733 832.382 22.4535C832.273 22.1718 832.113 21.953 831.901 21.797C831.688 21.6388 831.426 21.5597 831.114 21.5597C830.789 21.5597 830.518 21.6432 830.302 21.81C830.087 21.9747 829.926 22.1989 829.817 22.4827C829.711 22.7644 829.658 23.0807 829.658 23.4317C829.658 23.7871 829.712 24.1099 829.821 24.4002C829.931 24.6884 830.094 24.9181 830.308 25.0892C830.525 25.2582 830.793 25.3427 831.114 25.3427ZM837.955 23.8867V20.9357H838.722V25.9277H837.955V25.0827H837.903C837.786 25.3362 837.604 25.5518 837.357 25.7295C837.11 25.905 836.798 25.9927 836.421 25.9927C836.109 25.9927 835.832 25.9245 835.589 25.788C835.347 25.6493 835.156 25.4413 835.017 25.164C834.879 24.8845 834.809 24.5324 834.809 24.1077V20.9357H835.576V24.0557C835.576 24.4197 835.678 24.7101 835.882 24.9267C836.088 25.1434 836.35 25.2517 836.668 25.2517C836.859 25.2517 837.053 25.203 837.25 25.1055C837.449 25.008 837.616 24.8585 837.751 24.657C837.887 24.4555 837.955 24.1987 837.955 23.8867ZM843.663 22.0537L842.974 22.2487C842.931 22.1339 842.867 22.0223 842.782 21.914C842.7 21.8035 842.587 21.7125 842.444 21.641C842.301 21.5695 842.118 21.5337 841.895 21.5337C841.59 21.5337 841.335 21.6042 841.131 21.745C840.93 21.8837 840.829 22.0602 840.829 22.2747C840.829 22.4654 840.898 22.616 841.037 22.7265C841.176 22.837 841.392 22.9291 841.687 23.0027L842.428 23.1847C842.874 23.2931 843.207 23.4588 843.426 23.682C843.645 23.903 843.754 24.1879 843.754 24.5367C843.754 24.8227 843.672 25.0784 843.507 25.3037C843.345 25.5291 843.117 25.7067 842.825 25.8367C842.532 25.9667 842.192 26.0317 841.804 26.0317C841.295 26.0317 840.874 25.9212 840.54 25.7002C840.206 25.4792 839.995 25.1564 839.906 24.7317L840.634 24.5497C840.703 24.8184 840.835 25.0199 841.027 25.1542C841.222 25.2886 841.477 25.3557 841.791 25.3557C842.149 25.3557 842.432 25.2799 842.643 25.1282C842.855 24.9744 842.961 24.7902 842.961 24.5757C842.961 24.4024 842.9 24.2572 842.779 24.1402C842.658 24.0211 842.471 23.9322 842.22 23.8737L841.388 23.6787C840.931 23.5704 840.595 23.4025 840.381 23.175C840.168 22.9453 840.062 22.6582 840.062 22.3137C840.062 22.0321 840.141 21.7829 840.299 21.5662C840.46 21.3496 840.677 21.1795 840.953 21.056C841.23 20.9325 841.544 20.8707 841.895 20.8707C842.389 20.8707 842.777 20.9791 843.059 21.1957C843.342 21.4124 843.544 21.6984 843.663 22.0537ZM847.08 20.9357V21.5857H844.493V20.9357H847.08ZM845.247 19.7397H846.014V24.4977C846.014 24.7144 846.045 24.8769 846.108 24.9852C846.173 25.0914 846.255 25.1629 846.355 25.1997C846.457 25.2344 846.564 25.2517 846.677 25.2517C846.761 25.2517 846.831 25.2474 846.885 25.2387C846.939 25.2279 846.982 25.2192 847.015 25.2127L847.171 25.9017C847.119 25.9212 847.046 25.9407 846.953 25.9602C846.86 25.9819 846.742 25.9927 846.599 25.9927C846.382 25.9927 846.17 25.9462 845.962 25.853C845.756 25.7598 845.585 25.6179 845.448 25.4272C845.314 25.2366 845.247 24.9961 845.247 24.7057V19.7397ZM848.233 25.9277V20.9357H848.974V21.6897H849.026C849.117 21.4427 849.282 21.2423 849.52 21.0885C849.759 20.9347 850.027 20.8577 850.326 20.8577C850.383 20.8577 850.453 20.8588 850.538 20.861C850.622 20.8632 850.686 20.8664 850.729 20.8707V21.6507C850.703 21.6442 850.644 21.6345 850.551 21.6215C850.46 21.6063 850.363 21.5987 850.261 21.5987C850.019 21.5987 849.802 21.6497 849.611 21.7515C849.423 21.8512 849.273 21.9898 849.163 22.1675C849.055 22.343 849 22.5434 849 22.7687V25.9277H848.233ZM851.639 25.9277V20.9357H852.406V25.9277H851.639ZM852.029 20.1037C851.879 20.1037 851.75 20.0528 851.642 19.951C851.536 19.8492 851.483 19.7267 851.483 19.5837C851.483 19.4407 851.536 19.3183 851.642 19.2165C851.75 19.1147 851.879 19.0637 852.029 19.0637C852.178 19.0637 852.306 19.1147 852.412 19.2165C852.52 19.3183 852.575 19.4407 852.575 19.5837C852.575 19.7267 852.52 19.8492 852.412 19.951C852.306 20.0528 852.178 20.1037 852.029 20.1037ZM855.903 26.0317C855.422 26.0317 855.008 25.9256 854.659 25.7132C854.312 25.4987 854.044 25.1997 853.856 24.8162C853.67 24.4306 853.576 23.9821 853.576 23.4707C853.576 22.9594 853.67 22.5087 853.856 22.1187C854.044 21.7266 854.307 21.4211 854.642 21.2022C854.98 20.9812 855.375 20.8707 855.825 20.8707C856.085 20.8707 856.342 20.9141 856.596 21.0007C856.849 21.0874 857.08 21.2282 857.288 21.4232C857.496 21.6161 857.662 21.8717 857.785 22.1902C857.909 22.5087 857.97 22.9009 857.97 23.3667V23.6917H854.122V23.0287H857.19C857.19 22.7471 857.134 22.4957 857.021 22.2747C856.911 22.0537 856.753 21.8793 856.547 21.7515C856.343 21.6237 856.103 21.5597 855.825 21.5597C855.52 21.5597 855.256 21.6356 855.032 21.7872C854.811 21.9367 854.641 22.1317 854.522 22.3722C854.403 22.6127 854.343 22.8706 854.343 23.1457V23.5877C854.343 23.9647 854.408 24.2843 854.538 24.5465C854.671 24.8065 854.854 25.0047 855.088 25.1412C855.322 25.2756 855.594 25.3427 855.903 25.3427C856.105 25.3427 856.287 25.3146 856.449 25.2582C856.614 25.1997 856.756 25.1131 856.875 24.9982C856.994 24.8812 857.086 24.7361 857.151 24.5627L857.892 24.7707C857.814 25.0221 857.683 25.2431 857.499 25.4337C857.315 25.6222 857.088 25.7696 856.817 25.8757C856.546 25.9797 856.241 26.0317 855.903 26.0317ZM862.673 22.0537L861.984 22.2487C861.941 22.1339 861.877 22.0223 861.792 21.914C861.71 21.8035 861.597 21.7125 861.454 21.641C861.311 21.5695 861.128 21.5337 860.905 21.5337C860.6 21.5337 860.345 21.6042 860.141 21.745C859.94 21.8837 859.839 22.0602 859.839 22.2747C859.839 22.4654 859.909 22.616 860.047 22.7265C860.186 22.837 860.403 22.9291 860.697 23.0027L861.438 23.1847C861.885 23.2931 862.217 23.4588 862.436 23.682C862.655 23.903 862.764 24.1879 862.764 24.5367C862.764 24.8227 862.682 25.0784 862.517 25.3037C862.355 25.5291 862.127 25.7067 861.835 25.8367C861.542 25.9667 861.202 26.0317 860.814 26.0317C860.305 26.0317 859.884 25.9212 859.55 25.7002C859.216 25.4792 859.005 25.1564 858.916 24.7317L859.644 24.5497C859.714 24.8184 859.845 25.0199 860.037 25.1542C860.232 25.2886 860.487 25.3557 860.801 25.3557C861.159 25.3557 861.443 25.2799 861.653 25.1282C861.865 24.9744 861.971 24.7902 861.971 24.5757C861.971 24.4024 861.911 24.2572 861.789 24.1402C861.668 24.0211 861.482 23.9322 861.23 23.8737L860.398 23.6787C859.941 23.5704 859.605 23.4025 859.391 23.175C859.178 22.9453 859.072 22.6582 859.072 22.3137C859.072 22.0321 859.151 21.7829 859.309 21.5662C859.47 21.3496 859.688 21.1795 859.963 21.056C860.24 20.9325 860.554 20.8707 860.905 20.8707C861.399 20.8707 861.787 20.9791 862.069 21.1957C862.353 21.4124 862.554 21.6984 862.673 22.0537Z" fill="white"/>
<path fill-rule="evenodd" clip-rule="evenodd" d="M882.313 20.9383C882.443 20.7966 882.654 20.7966 882.784 20.9383L884.976 23.328C885.106 23.4697 885.316 23.4697 885.446 23.328L887.638 20.9383C887.768 20.7966 887.979 20.7966 888.109 20.9383C888.239 21.08 888.239 21.3098 888.109 21.4515L885.917 23.8412C885.527 24.2663 884.895 24.2663 884.505 23.8412L882.313 21.4515C882.183 21.3098 882.183 21.08 882.313 20.9383Z" fill="white" fill-opacity="0.4"/>
<rect x="706.416" y="6.416" width="90.168" height="30.168" rx="3.744" stroke="#93A2AD" stroke-width="0.832"/>
<path d="M724.093 20.9357C724.054 20.6064 723.896 20.3507 723.619 20.1687C723.342 19.9867 723.001 19.8957 722.598 19.8957C722.304 19.8957 722.046 19.9434 721.825 20.0387C721.606 20.1341 721.435 20.2652 721.311 20.432C721.19 20.5988 721.129 20.7884 721.129 21.0007C721.129 21.1784 721.172 21.3312 721.256 21.459C721.343 21.5847 721.453 21.6897 721.588 21.7742C721.722 21.8566 721.863 21.9248 722.01 21.979C722.158 22.031 722.293 22.0732 722.416 22.1057L723.092 22.2877C723.266 22.3332 723.459 22.3961 723.671 22.4762C723.885 22.5564 724.09 22.6658 724.285 22.8045C724.482 22.941 724.645 23.1165 724.773 23.331C724.901 23.5455 724.964 23.8087 724.964 24.1207C724.964 24.4804 724.87 24.8054 724.682 25.0957C724.495 25.3861 724.222 25.6168 723.863 25.788C723.505 25.9592 723.071 26.0447 722.559 26.0447C722.083 26.0447 721.67 25.9678 721.321 25.814C720.975 25.6602 720.702 25.4457 720.502 25.1705C720.305 24.8953 720.193 24.5757 720.167 24.2117H720.999C721.021 24.4631 721.106 24.6711 721.253 24.8357C721.402 24.9982 721.591 25.1196 721.818 25.1997C722.048 25.2777 722.295 25.3167 722.559 25.3167C722.867 25.3167 723.143 25.2669 723.388 25.1672C723.633 25.0654 723.827 24.9246 723.97 24.7447C724.113 24.5627 724.184 24.3504 724.184 24.1077C724.184 23.8867 724.123 23.7069 723.999 23.5682C723.876 23.4296 723.713 23.3169 723.512 23.2302C723.31 23.1436 723.092 23.0677 722.858 23.0027L722.039 22.7687C721.519 22.6192 721.108 22.4058 720.804 22.1285C720.501 21.8512 720.349 21.4882 720.349 21.0397C720.349 20.6671 720.45 20.3421 720.652 20.0647C720.855 19.7852 721.128 19.5686 721.471 19.4147C721.815 19.2587 722.2 19.1807 722.624 19.1807C723.053 19.1807 723.435 19.2577 723.768 19.4115C724.102 19.5632 724.366 19.7712 724.561 20.0355C724.759 20.2998 724.863 20.5999 724.873 20.9357H724.093ZM728.357 20.9357V21.5857H725.77V20.9357H728.357ZM726.524 19.7397H727.291V24.4977C727.291 24.7144 727.322 24.8769 727.385 24.9852C727.45 25.0914 727.532 25.1629 727.632 25.1997C727.734 25.2344 727.841 25.2517 727.954 25.2517C728.038 25.2517 728.107 25.2474 728.162 25.2387C728.216 25.2279 728.259 25.2192 728.292 25.2127L728.448 25.9017C728.396 25.9212 728.323 25.9407 728.23 25.9602C728.137 25.9819 728.019 25.9927 727.876 25.9927C727.659 25.9927 727.447 25.9462 727.239 25.853C727.033 25.7598 726.862 25.6179 726.725 25.4272C726.591 25.2366 726.524 24.9961 726.524 24.7057V19.7397ZM730.979 26.0447C730.663 26.0447 730.376 25.9852 730.118 25.866C729.86 25.7447 729.656 25.5702 729.504 25.3427C729.352 25.1131 729.276 24.8357 729.276 24.5107C729.276 24.2247 729.333 23.9929 729.445 23.8152C729.558 23.6354 729.709 23.4946 729.897 23.3927C730.086 23.2909 730.294 23.2151 730.521 23.1652C730.751 23.1132 730.982 23.0721 731.213 23.0417C731.517 23.0027 731.763 22.9735 731.951 22.954C732.142 22.9323 732.28 22.8966 732.367 22.8467C732.456 22.7969 732.5 22.7102 732.5 22.5867V22.5607C732.5 22.2401 732.413 21.9909 732.237 21.8132C732.064 21.6356 731.801 21.5467 731.447 21.5467C731.081 21.5467 730.794 21.6269 730.586 21.7872C730.378 21.9476 730.232 22.1187 730.147 22.3007L729.419 22.0407C729.549 21.7374 729.723 21.5012 729.939 21.3322C730.158 21.1611 730.397 21.0419 730.654 20.9747C730.914 20.9054 731.17 20.8707 731.421 20.8707C731.582 20.8707 731.766 20.8902 731.974 20.9292C732.184 20.9661 732.387 21.043 732.582 21.16C732.779 21.277 732.942 21.4536 733.072 21.6897C733.202 21.9259 733.267 22.2422 733.267 22.6387V25.9277H732.5V25.2517H732.461C732.409 25.3601 732.323 25.476 732.201 25.5995C732.08 25.723 731.919 25.8281 731.717 25.9147C731.516 26.0014 731.27 26.0447 730.979 26.0447ZM731.096 25.3557C731.4 25.3557 731.655 25.2962 731.863 25.177C732.074 25.0578 732.232 24.904 732.338 24.7155C732.446 24.527 732.5 24.3287 732.5 24.1207V23.4187C732.468 23.4577 732.396 23.4935 732.286 23.526C732.178 23.5563 732.052 23.5834 731.909 23.6072C731.768 23.6289 731.63 23.6484 731.496 23.6657C731.364 23.6809 731.257 23.6939 731.174 23.7047C730.975 23.7307 730.789 23.773 730.615 23.8315C730.444 23.8878 730.306 23.9734 730.199 24.0882C730.095 24.2009 730.043 24.3547 730.043 24.5497C730.043 24.8162 730.142 25.0177 730.339 25.1542C730.538 25.2886 730.791 25.3557 731.096 25.3557ZM736.838 20.9357V21.5857H734.251V20.9357H736.838ZM735.005 19.7397H735.772V24.4977C735.772 24.7144 735.804 24.8769 735.867 24.9852C735.932 25.0914 736.014 25.1629 736.114 25.1997C736.215 25.2344 736.323 25.2517 736.435 25.2517C736.52 25.2517 736.589 25.2474 736.643 25.2387C736.698 25.2279 736.741 25.2192 736.773 25.2127L736.929 25.9017C736.877 25.9212 736.805 25.9407 736.712 25.9602C736.618 25.9819 736.5 25.9927 736.357 25.9927C736.141 25.9927 735.928 25.9462 735.72 25.853C735.515 25.7598 735.343 25.6179 735.207 25.4272C735.073 25.2366 735.005 24.9961 735.005 24.7057V19.7397ZM740.031 26.0317C739.55 26.0317 739.136 25.9256 738.787 25.7132C738.44 25.4987 738.172 25.1997 737.984 24.8162C737.798 24.4306 737.704 23.9821 737.704 23.4707C737.704 22.9594 737.798 22.5087 737.984 22.1187C738.172 21.7266 738.435 21.4211 738.77 21.2022C739.108 20.9812 739.503 20.8707 739.953 20.8707C740.213 20.8707 740.47 20.9141 740.724 21.0007C740.977 21.0874 741.208 21.2282 741.416 21.4232C741.624 21.6161 741.79 21.8717 741.913 22.1902C742.037 22.5087 742.098 22.9009 742.098 23.3667V23.6917H738.25V23.0287H741.318C741.318 22.7471 741.262 22.4957 741.149 22.2747C741.039 22.0537 740.881 21.8793 740.675 21.7515C740.471 21.6237 740.231 21.5597 739.953 21.5597C739.648 21.5597 739.384 21.6356 739.16 21.7872C738.939 21.9367 738.769 22.1317 738.65 22.3722C738.531 22.6127 738.471 22.8706 738.471 23.1457V23.5877C738.471 23.9647 738.536 24.2843 738.666 24.5465C738.799 24.8065 738.982 25.0047 739.216 25.1412C739.45 25.2756 739.722 25.3427 740.031 25.3427C740.233 25.3427 740.415 25.3146 740.577 25.2582C740.742 25.1997 740.884 25.1131 741.003 24.9982C741.122 24.8812 741.214 24.7361 741.279 24.5627L742.02 24.7707C741.942 25.0221 741.811 25.2431 741.627 25.4337C741.443 25.6222 741.216 25.7696 740.945 25.8757C740.674 25.9797 740.369 26.0317 740.031 26.0317Z" fill="white"/>
<path fill-rule="evenodd" clip-rule="evenodd" d="M781.313 20.9383C781.443 20.7966 781.654 20.7966 781.784 20.9383L783.976 23.328C784.106 23.4697 784.316 23.4697 784.446 23.328L786.638 20.9383C786.768 20.7966 786.979 20.7966 787.109 20.9383C787.239 21.08 787.239 21.3098 787.109 21.4515L784.917 23.8412C784.527 24.2663 783.895 24.2663 783.505 23.8412L781.313 21.4515C781.183 21.3098 781.183 21.08 781.313 20.9383Z" fill="white" fill-opacity="0.4"/>
<rect x="0.599609" y="0.448242" width="56.4096" height="17.6384" rx="8.8192" fill="white" fill-opacity="0.1"/>
<path d="M16.5882 8.04098H15.4083C15.3629 7.78886 15.2785 7.567 15.1549 7.37538C15.0314 7.18377 14.8801 7.02115 14.7011 6.88753C14.5221 6.7539 14.3217 6.65306 14.0998 6.58498C13.8804 6.51691 13.6472 6.48287 13.4002 6.48287C12.9539 6.48287 12.5543 6.59507 12.2013 6.81946C11.8509 7.04384 11.5735 7.37286 11.3693 7.80651C11.1676 8.24016 11.0668 8.76961 11.0668 9.39487C11.0668 10.0252 11.1676 10.5572 11.3693 10.9908C11.5735 11.4244 11.8521 11.7522 12.2051 11.9741C12.5581 12.1959 12.9552 12.3069 13.3964 12.3069C13.6409 12.3069 13.8729 12.2741 14.0922 12.2085C14.3141 12.1405 14.5145 12.0409 14.6935 11.9098C14.8725 11.7787 15.0238 11.6186 15.1474 11.4295C15.2734 11.2379 15.3604 11.0185 15.4083 10.7715L16.5882 10.7752C16.5252 11.1559 16.4029 11.5064 16.2214 11.8266C16.0424 12.1443 15.8117 12.4191 15.5293 12.651C15.2495 12.8804 14.9293 13.0582 14.5687 13.1843C14.2082 13.3103 13.8149 13.3733 13.3888 13.3733C12.7182 13.3733 12.1206 13.2145 11.5962 12.8968C11.0718 12.5766 10.6583 12.119 10.3558 11.524C10.0558 10.929 9.90575 10.2193 9.90575 9.39487C9.90575 8.56792 10.057 7.8582 10.3596 7.26571C10.6621 6.6707 11.0756 6.21436 11.6 5.89669C12.1244 5.5765 12.7207 5.4164 13.3888 5.4164C13.7998 5.4164 14.183 5.47565 14.5385 5.59415C14.8965 5.71012 15.2179 5.88156 15.5028 6.10847C15.7877 6.33286 16.0235 6.60767 16.21 6.93291C16.3966 7.25563 16.5227 7.62498 16.5882 8.04098ZM21.5755 10.8584V7.45858H22.71V13.2675H21.5982V12.2615H21.5377C21.4041 12.5716 21.1898 12.83 20.8948 13.0368C20.6023 13.241 20.238 13.3431 19.8018 13.3431C19.4287 13.3431 19.0984 13.2612 18.811 13.0973C18.5261 12.9309 18.3017 12.6851 18.1378 12.3598C17.9765 12.0346 17.8958 11.6324 17.8958 11.1534V7.45858H19.0266V11.0173C19.0266 11.4131 19.1362 11.7283 19.3556 11.9627C19.5749 12.1972 19.8598 12.3144 20.2103 12.3144C20.422 12.3144 20.6326 12.2615 20.8418 12.1556C21.0536 12.0497 21.2288 11.8896 21.3675 11.6753C21.5087 11.461 21.578 11.1887 21.5755 10.8584ZM24.2294 13.2675V7.45858H25.3223V8.38135H25.3828C25.4887 8.06872 25.6753 7.8229 25.9426 7.64389C26.2123 7.46236 26.5174 7.3716 26.8578 7.3716C26.9283 7.3716 27.0115 7.37412 27.1074 7.37917C27.2057 7.38421 27.2826 7.39051 27.338 7.39807V8.47967C27.2927 8.46707 27.212 8.4532 27.096 8.43807C26.98 8.42043 26.8641 8.4116 26.7481 8.4116C26.4808 8.4116 26.2426 8.46833 26.0333 8.58178C25.8266 8.69272 25.6627 8.84777 25.5417 9.04695C25.4207 9.2436 25.3602 9.46799 25.3602 9.72011V13.2675H24.2294ZM28.3166 13.2675V7.45858H29.4095V8.38135H29.47C29.5759 8.06872 29.7625 7.8229 30.0298 7.64389C30.2995 7.46236 30.6046 7.3716 30.945 7.3716C31.0155 7.3716 31.0987 7.37412 31.1946 7.37917C31.2929 7.38421 31.3698 7.39051 31.4252 7.39807V8.47967C31.3799 8.46707 31.2992 8.4532 31.1832 8.43807C31.0672 8.42043 30.9513 8.4116 30.8353 8.4116C30.568 8.4116 30.3298 8.46833 30.1205 8.58178C29.9138 8.69272 29.7499 8.84777 29.6289 9.04695C29.5079 9.2436 29.4474 9.46799 29.4474 9.72011V13.2675H28.3166ZM34.6994 13.3847C34.127 13.3847 33.6341 13.2624 33.2207 13.0179C32.8097 12.7708 32.492 12.4241 32.2676 11.9779C32.0458 11.5291 31.9348 11.0034 31.9348 10.4008C31.9348 9.80583 32.0458 9.28142 32.2676 8.8276C32.492 8.37378 32.8047 8.01955 33.2055 7.76491C33.6089 7.51027 34.0804 7.38295 34.6199 7.38295C34.9477 7.38295 35.2654 7.43715 35.573 7.54557C35.8805 7.65398 36.1566 7.82416 36.4012 8.05611C36.6457 8.28806 36.8386 8.58935 36.9798 8.95997C37.121 9.32806 37.1916 9.77558 37.1916 10.3025V10.7034H32.574V9.85626H36.0835C36.0835 9.55875 36.023 9.29529 35.902 9.06586C35.781 8.8339 35.6108 8.65112 35.3914 8.51749C35.1746 8.38387 34.92 8.31706 34.6275 8.31706C34.3098 8.31706 34.0325 8.39521 33.7955 8.55153C33.561 8.70532 33.3795 8.90702 33.2509 9.15662C33.1249 9.4037 33.0618 9.67221 33.0618 9.96215V10.624C33.0618 11.0122 33.1299 11.3425 33.266 11.6148C33.4047 11.8871 33.5976 12.0951 33.8447 12.2388C34.0917 12.38 34.3804 12.4506 34.7107 12.4506C34.925 12.4506 35.1204 12.4203 35.2969 12.3598C35.4734 12.2968 35.6259 12.2035 35.7545 12.08C35.8831 11.9564 35.9814 11.8039 36.0495 11.6224L37.1197 11.8152C37.034 12.1304 36.8802 12.4065 36.6583 12.6435C36.439 12.8779 36.1629 13.0607 35.8301 13.1918C35.4998 13.3204 35.1229 13.3847 34.6994 13.3847ZM39.577 9.81844V13.2675H38.4462V7.45858H39.5316V8.40404H39.6034C39.737 8.09645 39.9463 7.84937 40.2312 7.6628C40.5186 7.47623 40.8804 7.38295 41.3166 7.38295C41.7124 7.38295 42.0591 7.46615 42.3566 7.63255C42.6541 7.79643 42.8848 8.04098 43.0487 8.36622C43.2125 8.69146 43.2945 9.09359 43.2945 9.57262V13.2675H42.1637V9.70877C42.1637 9.28772 42.054 8.9587 41.8347 8.72171C41.6154 8.4822 41.3141 8.36244 40.9308 8.36244C40.6686 8.36244 40.4354 8.41916 40.2312 8.53262C40.0295 8.64607 39.8694 8.81247 39.7509 9.03182C39.6349 9.24864 39.577 9.51085 39.577 9.81844ZM47.5226 7.45858V8.36622H44.3496V7.45858H47.5226ZM45.2005 6.06687H46.3313V11.5619C46.3313 11.7812 46.3641 11.9463 46.4296 12.0573C46.4952 12.1657 46.5796 12.2401 46.683 12.2804C46.7889 12.3182 46.9036 12.3371 47.0271 12.3371C47.1179 12.3371 47.1973 12.3308 47.2654 12.3182C47.3335 12.3056 47.3864 12.2955 47.4242 12.288L47.6284 13.2221C47.5629 13.2473 47.4696 13.2725 47.3486 13.2977C47.2276 13.3254 47.0763 13.3406 46.8948 13.3431C46.5973 13.3481 46.3199 13.2952 46.0628 13.1843C45.8056 13.0733 45.5976 12.9019 45.4388 12.6699C45.2799 12.438 45.2005 12.1468 45.2005 11.7963V6.06687Z" fill="white"/>
<path d="M70.2395 3.37994V13.8117H69.1988V3.37994H70.2395Z" fill="#37424A" fill-opacity="0.5"/>
<path d="M78.2468 12.7675V5.02229H81.1513C81.7463 5.02229 82.2455 5.13323 82.6489 5.35509C83.0548 5.57696 83.3611 5.88203 83.5679 6.27029C83.7771 6.65604 83.8817 7.09473 83.8817 7.58637C83.8817 8.08304 83.7771 8.52426 83.5679 8.91C83.3586 9.29575 83.0497 9.59955 82.6413 9.82142C82.2329 10.0408 81.7299 10.1504 81.1324 10.1504H79.2074V8.99698H80.9433C81.2912 8.99698 81.5761 8.93647 81.798 8.81546C82.0198 8.69444 82.1837 8.52804 82.2896 8.31626C82.398 8.10447 82.4522 7.86118 82.4522 7.58637C82.4522 7.31155 82.398 7.06952 82.2896 6.86026C82.1837 6.651 82.0186 6.48838 81.7942 6.3724C81.5723 6.2539 81.2862 6.19466 80.9357 6.19466H79.6499V12.7675H78.2468ZM86.6075 12.8847C86.2394 12.8847 85.9079 12.8191 85.6129 12.688C85.3204 12.5544 85.0885 12.3578 84.917 12.0981C84.7481 11.8384 84.6636 11.5182 84.6636 11.1375C84.6636 10.8097 84.7241 10.5387 84.8452 10.3244C84.9662 10.1101 85.1313 9.93866 85.3406 9.81007C85.5498 9.68149 85.7856 9.58443 86.0478 9.51887C86.3125 9.4508 86.5861 9.40164 86.8684 9.37138C87.2088 9.33609 87.4849 9.30457 87.6967 9.27684C87.9084 9.24658 88.0622 9.2012 88.158 9.14069C88.2564 9.07766 88.3055 8.9806 88.3055 8.84949V8.8268C88.3055 8.5419 88.2211 8.3213 88.0521 8.16498C87.8832 8.00867 87.6399 7.93051 87.3223 7.93051C86.9869 7.93051 86.7209 8.00363 86.5243 8.14986C86.3302 8.29609 86.1991 8.46879 86.131 8.66797L84.8527 8.48644C84.9536 8.13347 85.12 7.83849 85.3519 7.60149C85.5839 7.36198 85.8675 7.18297 86.2028 7.06447C86.5382 6.94346 86.9088 6.88295 87.3147 6.88295C87.5945 6.88295 87.8731 6.91572 88.1505 6.98127C88.4278 7.04683 88.6812 7.15524 88.9106 7.30651C89.14 7.45526 89.3241 7.65822 89.4628 7.91538C89.604 8.17255 89.6745 8.494 89.6745 8.87975V12.7675H88.3585V11.9695H88.3131C88.2299 12.1308 88.1127 12.2821 87.9614 12.4233C87.8126 12.562 87.6248 12.6742 87.3979 12.7599C87.1735 12.8431 86.91 12.8847 86.6075 12.8847ZM86.963 11.8787C87.2378 11.8787 87.476 11.8245 87.6777 11.7161C87.8794 11.6052 88.0345 11.4589 88.1429 11.2774C88.2538 11.0959 88.3093 10.898 88.3093 10.6837V9.99917C88.2664 10.0345 88.1933 10.0672 88.09 10.0975C87.9891 10.1277 87.8757 10.1542 87.7496 10.1769C87.6235 10.1996 87.4987 10.2198 87.3752 10.2374C87.2517 10.2551 87.1445 10.2702 87.0537 10.2828C86.8495 10.3105 86.6667 10.3559 86.5054 10.4189C86.344 10.482 86.2167 10.5702 86.1234 10.6837C86.0301 10.7946 85.9835 10.9383 85.9835 11.1148C85.9835 11.3669 86.0755 11.5573 86.2596 11.6859C86.4436 11.8144 86.6781 11.8787 86.963 11.8787ZM95.6423 8.494L94.3943 8.63015C94.359 8.50409 94.2972 8.38559 94.2089 8.27466C94.1232 8.16372 94.0072 8.07422 93.861 8.00615C93.7148 7.93807 93.5358 7.90404 93.324 7.90404C93.0391 7.90404 92.7996 7.96581 92.6055 8.08935C92.4138 8.21289 92.3193 8.37298 92.3218 8.56964C92.3193 8.73856 92.3811 8.87597 92.5071 8.98186C92.6357 9.08775 92.8475 9.17473 93.1425 9.2428L94.1333 9.45458C94.6829 9.57308 95.0914 9.76091 95.3586 10.0181C95.6284 10.2752 95.7645 10.6118 95.7671 11.0278C95.7645 11.3934 95.6574 11.7161 95.4456 11.996C95.2363 12.2733 94.9451 12.4901 94.572 12.6464C94.1989 12.8028 93.7703 12.8809 93.2862 12.8809C92.5752 12.8809 92.0029 12.7322 91.5692 12.4347C91.1356 12.1346 90.8772 11.7174 90.794 11.1829L92.1289 11.0543C92.1895 11.3165 92.318 11.5144 92.5147 11.648C92.7113 11.7817 92.9672 11.8485 93.2824 11.8485C93.6076 11.8485 93.8686 11.7817 94.0652 11.648C94.2644 11.5144 94.364 11.3493 94.364 11.1526C94.364 10.9862 94.2997 10.8488 94.1711 10.7404C94.0451 10.632 93.8484 10.5488 93.5812 10.4908L92.5903 10.2828C92.0331 10.1668 91.6209 9.97143 91.3537 9.69662C91.0864 9.41929 90.9541 9.06884 90.9566 8.64527C90.9541 8.28726 91.0511 7.97715 91.2478 7.71495C91.447 7.45022 91.723 7.246 92.076 7.10229C92.4315 6.95606 92.8412 6.88295 93.3051 6.88295C93.9858 6.88295 94.5216 7.02792 94.9124 7.31786C95.3057 7.6078 95.549 7.99984 95.6423 8.494ZM99.7966 6.95858V8.01749H96.4572V6.95858H99.7966ZM97.2817 5.56687H98.6507V11.0203C98.6507 11.2043 98.6784 11.3455 98.7339 11.4438C98.7919 11.5396 98.8675 11.6052 98.9608 11.6405C99.0541 11.6758 99.1575 11.6934 99.2709 11.6934C99.3566 11.6934 99.4348 11.6871 99.5054 11.6745C99.5785 11.6619 99.634 11.6506 99.6718 11.6405L99.9025 12.7107C99.8294 12.7359 99.7247 12.7637 99.5886 12.7939C99.455 12.8242 99.2911 12.8418 99.0969 12.8469C98.7541 12.857 98.4452 12.8053 98.1704 12.6918C97.8956 12.5758 97.6775 12.3968 97.5161 12.1548C97.3573 11.9128 97.2792 11.6102 97.2817 11.2472V5.56687Z" fill="#93A2AD"/>
<rect x="0.266602" y="30.7324" width="61.4016" height="12.6464" rx="6.3232" fill="#FFEBDB"/>
<path d="M7.22959 34.2149V39.0557H6.49923V34.2149H7.22959ZM8.94323 36.9V39.0557H8.2365V35.4251H8.91486V36.016H8.95977C9.04329 35.8238 9.17407 35.6694 9.35213 35.5528C9.53177 35.4361 9.75789 35.3778 10.0305 35.3778C10.2779 35.3778 10.4946 35.4298 10.6805 35.5338C10.8664 35.6363 11.0106 35.7891 11.113 35.9924C11.2155 36.1957 11.2667 36.447 11.2667 36.7464V39.0557H10.56V36.8315C10.56 36.5683 10.4914 36.3627 10.3543 36.2146C10.2172 36.0649 10.0289 35.99 9.78941 35.99C9.62553 35.99 9.47977 36.0255 9.35213 36.0964C9.22607 36.1673 9.12601 36.2713 9.05195 36.4084C8.97947 36.5439 8.94323 36.7078 8.94323 36.9ZM14.3536 36.7038V37.316H12.2074V36.7038H14.3536ZM16.0022 36.9V39.0557H15.2955V34.2149H15.9928V36.016H16.0377C16.1228 35.8206 16.2528 35.6654 16.4277 35.5504C16.6026 35.4354 16.8311 35.3778 17.1131 35.3778C17.3621 35.3778 17.5796 35.4291 17.7655 35.5315C17.953 35.6339 18.098 35.7868 18.2004 35.99C18.3044 36.1917 18.3564 36.4438 18.3564 36.7464V39.0557H17.6497V36.8315C17.6497 36.5652 17.5811 36.3588 17.444 36.2122C17.307 36.0641 17.1163 35.99 16.872 35.99C16.705 35.99 16.5553 36.0255 16.423 36.0964C16.2922 36.1673 16.189 36.2713 16.1133 36.4084C16.0393 36.5439 16.0022 36.7078 16.0022 36.9ZM20.8288 39.1289C20.4884 39.1289 20.1914 39.0509 19.9377 38.8949C19.684 38.7389 19.487 38.5207 19.3468 38.2402C19.2065 37.9597 19.1364 37.632 19.1364 37.2569C19.1364 36.8803 19.2065 36.551 19.3468 36.2689C19.487 35.9869 19.684 35.7678 19.9377 35.6118C20.1914 35.4558 20.4884 35.3778 20.8288 35.3778C21.1691 35.3778 21.4662 35.4558 21.7199 35.6118C21.9736 35.7678 22.1705 35.9869 22.3108 36.2689C22.451 36.551 22.5211 36.8803 22.5211 37.2569C22.5211 37.632 22.451 37.9597 22.3108 38.2402C22.1705 38.5207 21.9736 38.7389 21.7199 38.8949C21.4662 39.0509 21.1691 39.1289 20.8288 39.1289ZM20.8311 38.5357C21.0517 38.5357 21.2345 38.4774 21.3795 38.3608C21.5245 38.2441 21.6316 38.0889 21.701 37.8951C21.7719 37.7013 21.8073 37.4878 21.8073 37.2546C21.8073 37.0229 21.7719 36.8102 21.701 36.6164C21.6316 36.421 21.5245 36.2642 21.3795 36.146C21.2345 36.0278 21.0517 35.9688 20.8311 35.9688C20.609 35.9688 20.4246 36.0278 20.278 36.146C20.1331 36.2642 20.0251 36.421 19.9542 36.6164C19.8849 36.8102 19.8502 37.0229 19.8502 37.2546C19.8502 37.4878 19.8849 37.7013 19.9542 37.8951C20.0251 38.0889 20.1331 38.2441 20.278 38.3608C20.4246 38.4774 20.609 38.5357 20.8311 38.5357ZM25.6098 37.55V35.4251H26.3189V39.0557H25.624V38.4269H25.5862C25.5027 38.6208 25.3687 38.7823 25.1844 38.9115C25.0016 39.0391 24.7739 39.1029 24.5013 39.1029C24.2681 39.1029 24.0616 39.0517 23.882 38.9493C23.7039 38.8453 23.5637 38.6917 23.4613 38.4884C23.3604 38.2851 23.31 38.0338 23.31 37.7344V35.4251H24.0167V37.6493C24.0167 37.8967 24.0853 38.0937 24.2224 38.2402C24.3595 38.3868 24.5375 38.46 24.7565 38.46C24.8889 38.46 25.0205 38.4269 25.1513 38.3608C25.2836 38.2946 25.3931 38.1945 25.4798 38.0606C25.5681 37.9266 25.6114 37.7565 25.6098 37.55ZM29.989 36.3115L29.3485 36.4249C29.3217 36.343 29.2792 36.265 29.2209 36.1909C29.1641 36.1169 29.0869 36.0562 28.9892 36.0089C28.8915 35.9617 28.7694 35.938 28.6229 35.938C28.4227 35.938 28.2557 35.9829 28.1218 36.0728C27.9878 36.161 27.9209 36.2752 27.9209 36.4155C27.9209 36.5368 27.9658 36.6345 28.0556 36.7086C28.1454 36.7826 28.2904 36.8433 28.4905 36.8906L29.0672 37.0229C29.4013 37.1001 29.6503 37.2191 29.8141 37.3798C29.978 37.5406 30.06 37.7494 30.06 38.0062C30.06 38.2237 29.9969 38.4175 29.8709 38.5877C29.7464 38.7563 29.5723 38.8886 29.3485 38.9848C29.1263 39.0809 28.8687 39.1289 28.5756 39.1289C28.169 39.1289 27.8373 39.0423 27.5805 38.8689C27.3236 38.694 27.1661 38.4458 27.1078 38.1244L27.7909 38.0204C27.8334 38.1985 27.9209 38.3332 28.0532 38.4246C28.1856 38.5144 28.3581 38.5593 28.5709 38.5593C28.8025 38.5593 28.9876 38.5112 29.1263 38.4151C29.265 38.3174 29.3343 38.1985 29.3343 38.0582C29.3343 37.9448 29.2918 37.8494 29.2067 37.7722C29.1232 37.695 28.9947 37.6367 28.8214 37.5973L28.2069 37.4626C27.8681 37.3854 27.6175 37.2625 27.4552 37.0938C27.2945 36.9252 27.2141 36.7117 27.2141 36.4533C27.2141 36.239 27.274 36.0515 27.3938 35.8908C27.5135 35.73 27.679 35.6048 27.8901 35.5149C28.1013 35.4235 28.3432 35.3778 28.6158 35.3778C29.0081 35.3778 29.317 35.4629 29.5423 35.6331C29.7676 35.8017 29.9166 36.0278 29.989 36.3115ZM32.4017 39.1289C32.044 39.1289 31.736 39.0525 31.4775 38.8997C31.2207 38.7452 31.0221 38.5286 30.8819 38.2497C30.7432 37.9692 30.6739 37.6406 30.6739 37.264C30.6739 36.8921 30.7432 36.5644 30.8819 36.2808C31.0221 35.9971 31.2175 35.7757 31.4681 35.6166C31.7202 35.4574 32.0149 35.3778 32.3521 35.3778C32.5569 35.3778 32.7555 35.4117 32.9477 35.4795C33.14 35.5472 33.3125 35.6536 33.4654 35.7986C33.6182 35.9435 33.7388 36.1318 33.827 36.3635C33.9152 36.5935 33.9594 36.8732 33.9594 37.2026V37.4531H31.0734V36.9237H33.2668C33.2668 36.7377 33.229 36.5731 33.1534 36.4297C33.0777 36.2847 32.9714 36.1705 32.8343 36.0869C32.6988 36.0034 32.5396 35.9617 32.3568 35.9617C32.1583 35.9617 31.9849 36.0105 31.8368 36.1082C31.6903 36.2043 31.5768 36.3304 31.4965 36.4864C31.4177 36.6408 31.3783 36.8086 31.3783 36.9898V37.4035C31.3783 37.6461 31.4208 37.8526 31.5059 38.0228C31.5926 38.1929 31.7131 38.3229 31.8675 38.4128C32.022 38.501 32.2024 38.5451 32.4088 38.5451C32.5428 38.5451 32.6649 38.5262 32.7752 38.4884C32.8855 38.449 32.9808 38.3907 33.0612 38.3135C33.1415 38.2363 33.203 38.1409 33.2455 38.0275L33.9145 38.148C33.8609 38.345 33.7648 38.5175 33.6261 38.6657C33.489 38.8122 33.3165 38.9265 33.1085 39.0084C32.902 39.0888 32.6665 39.1289 32.4017 39.1289ZM36.5617 34.2149H37.4481L38.9892 37.9778H39.0459L40.587 34.2149H41.4734V39.0557H40.7785V35.5528H40.7335L39.3059 39.0486H38.7292L37.3015 35.5504H37.2566V39.0557H36.5617V34.2149ZM44.0432 39.1289C43.6855 39.1289 43.3775 39.0525 43.119 38.8997C42.8622 38.7452 42.6636 38.5286 42.5234 38.2497C42.3847 37.9692 42.3154 37.6406 42.3154 37.264C42.3154 36.8921 42.3847 36.5644 42.5234 36.2808C42.6636 35.9971 42.859 35.7757 43.1096 35.6166C43.3617 35.4574 43.6564 35.3778 43.9936 35.3778C44.1984 35.3778 44.397 35.4117 44.5892 35.4795C44.7815 35.5472 44.954 35.6536 45.1069 35.7986C45.2597 35.9435 45.3803 36.1318 45.4685 36.3635C45.5567 36.5935 45.6009 36.8732 45.6009 37.2026V37.4531H42.7149V36.9237H44.9083C44.9083 36.7377 44.8705 36.5731 44.7949 36.4297C44.7192 36.2847 44.6129 36.1705 44.4758 36.0869C44.3403 36.0034 44.1811 35.9617 43.9983 35.9617C43.7998 35.9617 43.6264 36.0105 43.4783 36.1082C43.3318 36.2043 43.2183 36.3304 43.138 36.4864C43.0592 36.6408 43.0198 36.8086 43.0198 36.9898V37.4035C43.0198 37.6461 43.0623 37.8526 43.1474 38.0228C43.2341 38.1929 43.3546 38.3229 43.509 38.4128C43.6635 38.501 43.8439 38.5451 44.0503 38.5451C44.1843 38.5451 44.3064 38.5262 44.4167 38.4884C44.527 38.449 44.6223 38.3907 44.7027 38.3135C44.783 38.2363 44.8445 38.1409 44.887 38.0275L45.556 38.148C45.5024 38.345 45.4063 38.5175 45.2676 38.6657C45.1305 38.8122 44.958 38.9265 44.75 39.0084C44.5435 39.0888 44.308 39.1289 44.0432 39.1289ZM47.7441 39.1266C47.451 39.1266 47.1894 39.0517 46.9594 38.902C46.7309 38.7508 46.5512 38.5357 46.4204 38.2568C46.2912 37.9763 46.2266 37.6398 46.2266 37.2475C46.2266 36.8551 46.292 36.5195 46.4228 36.2406C46.5552 35.9617 46.7364 35.7481 46.9664 35.6C47.1965 35.4519 47.4573 35.3778 47.7488 35.3778C47.9741 35.3778 48.1554 35.4157 48.2924 35.4913C48.4311 35.5654 48.5383 35.652 48.6139 35.7513C48.6911 35.8506 48.751 35.938 48.7935 36.0137H48.8361V34.2149H49.5428V39.0557H48.8526V38.4908H48.7935C48.751 38.568 48.6895 38.6562 48.6092 38.7555C48.5304 38.8548 48.4217 38.9414 48.283 39.0155C48.1443 39.0895 47.9647 39.1266 47.7441 39.1266ZM47.9001 38.5238C48.1034 38.5238 48.2751 38.4703 48.4154 38.3631C48.5572 38.2544 48.6643 38.1039 48.7368 37.9117C48.8109 37.7194 48.8479 37.4957 48.8479 37.2404C48.8479 36.9883 48.8117 36.7677 48.7392 36.5786C48.6667 36.3895 48.5603 36.2421 48.4201 36.1366C48.2798 36.031 48.1065 35.9782 47.9001 35.9782C47.6874 35.9782 47.5101 36.0334 47.3683 36.1437C47.2264 36.254 47.1193 36.4045 47.0468 36.5951C46.9759 36.7858 46.9404 37.0009 46.9404 37.2404C46.9404 37.4831 46.9767 37.7013 47.0492 37.8951C47.1217 38.0889 47.2288 38.2426 47.3706 38.356C47.514 38.4679 47.6905 38.5238 47.9001 38.5238ZM50.5515 39.0557V35.4251H51.2582V39.0557H50.5515ZM50.9084 34.8649C50.7855 34.8649 50.6799 34.824 50.5917 34.742C50.505 34.6585 50.4617 34.5592 50.4617 34.4442C50.4617 34.3276 50.505 34.2283 50.5917 34.1464C50.6799 34.0629 50.7855 34.0211 50.9084 34.0211C51.0313 34.0211 51.1361 34.0629 51.2228 34.1464C51.311 34.2283 51.3551 34.3276 51.3551 34.4442C51.3551 34.5592 51.311 34.6585 51.2228 34.742C51.1361 34.824 51.0313 34.8649 50.9084 34.8649ZM53.5681 39.1266C53.275 39.1266 53.0134 39.0517 52.7834 38.902C52.5549 38.7508 52.3752 38.5357 52.2445 38.2568C52.1152 37.9763 52.0506 37.6398 52.0506 37.2475C52.0506 36.8551 52.116 36.5195 52.2468 36.2406C52.3792 35.9617 52.5604 35.7481 52.7905 35.6C53.0205 35.4519 53.2813 35.3778 53.5728 35.3778C53.7981 35.3778 53.9794 35.4157 54.1165 35.4913C54.2551 35.5654 54.3623 35.652 54.4379 35.7513C54.5151 35.8506 54.575 35.938 54.6175 36.0137H54.6601V35.4251H55.3668V39.0557H54.6766V38.4908H54.6175C54.575 38.568 54.5135 38.6562 54.4332 38.7555C54.3544 38.8548 54.2457 38.9414 54.107 39.0155C53.9683 39.0895 53.7887 39.1266 53.5681 39.1266ZM53.7241 38.5238C53.9274 38.5238 54.0991 38.4703 54.2394 38.3631C54.3812 38.2544 54.4883 38.1039 54.5608 37.9117C54.6349 37.7194 54.6719 37.4957 54.6719 37.2404C54.6719 36.9883 54.6357 36.7677 54.5632 36.5786C54.4907 36.3895 54.3843 36.2421 54.2441 36.1366C54.1038 36.031 53.9305 35.9782 53.7241 35.9782C53.5114 35.9782 53.3341 36.0334 53.1923 36.1437C53.0505 36.254 52.9433 36.4045 52.8708 36.5951C52.7999 36.7858 52.7645 37.0009 52.7645 37.2404C52.7645 37.4831 52.8007 37.7013 52.8732 37.8951C52.9457 38.0889 53.0528 38.2426 53.1946 38.356C53.338 38.4679 53.5145 38.5238 53.7241 38.5238Z" fill="#074058"/>
</svg>
