<svg width="904" height="57" viewBox="0 0 904 57" fill="none" xmlns="http://www.w3.org/2000/svg">
<rect x="626.416" y="26.416" width="118.168" height="30.168" rx="3.744" stroke="#93A2AD" stroke-width="0.832"/>
<rect x="749.992" y="26.5117" width="77.376" height="29.952" rx="3.744" stroke="#93A2AD" stroke-width="0.832"/>
<path d="M832.359 30.2557C832.359 28.188 834.036 26.5117 836.103 26.5117H899.335C901.403 26.5117 903.079 28.1879 903.079 30.2557V52.7197C903.079 54.7875 901.403 56.4637 899.335 56.4637H836.103C834.036 56.4637 832.359 54.7875 832.359 52.7197V30.2557Z" stroke="#93A2AD" stroke-width="0.832"/>
<path d="M645.05 41.2439H644.244C644.196 41.0121 644.113 40.8084 643.993 40.6329C643.876 40.4574 643.733 40.3101 643.564 40.1909C643.398 40.0696 643.212 39.9786 643.009 39.9179C642.805 39.8573 642.593 39.8269 642.372 39.8269C641.969 39.8269 641.604 39.9288 641.276 40.1324C640.951 40.3361 640.693 40.6362 640.5 41.0327C640.309 41.4292 640.214 41.9156 640.214 42.4919C640.214 43.0683 640.309 43.5547 640.5 43.9512C640.693 44.3477 640.951 44.6478 641.276 44.8514C641.604 45.0551 641.969 45.1569 642.372 45.1569C642.593 45.1569 642.805 45.1266 643.009 45.0659C643.212 45.0053 643.398 44.9154 643.564 44.7962C643.733 44.6749 643.876 44.5264 643.993 44.3509C644.113 44.1733 644.196 43.9696 644.244 43.7399H645.05C644.989 44.0801 644.879 44.3845 644.718 44.6532C644.558 44.9219 644.359 45.1504 644.12 45.3389C643.882 45.5253 643.614 45.6672 643.317 45.7647C643.023 45.8622 642.708 45.9109 642.372 45.9109C641.804 45.9109 641.299 45.7723 640.857 45.4949C640.415 45.2176 640.067 44.8233 639.814 44.3119C639.56 43.8006 639.434 43.1939 639.434 42.4919C639.434 41.7899 639.56 41.1833 639.814 40.6719C640.067 40.1606 640.415 39.7663 640.857 39.4889C641.299 39.2116 641.804 39.0729 642.372 39.0729C642.708 39.0729 643.023 39.1217 643.317 39.2192C643.614 39.3167 643.882 39.4597 644.12 39.6482C644.359 39.8345 644.558 40.062 644.718 40.3307C644.879 40.5972 644.989 40.9016 645.05 41.2439ZM647.015 39.1639V45.8199H646.248V39.1639H647.015ZM648.42 45.8199V40.8279H649.187V45.8199H648.42ZM648.81 39.9959C648.66 39.9959 648.532 39.945 648.423 39.8432C648.317 39.7414 648.264 39.6189 648.264 39.4759C648.264 39.3329 648.317 39.2105 648.423 39.1087C648.532 39.0069 648.66 38.9559 648.81 38.9559C648.959 38.9559 649.087 39.0069 649.193 39.1087C649.302 39.2105 649.356 39.3329 649.356 39.4759C649.356 39.6189 649.302 39.7414 649.193 39.8432C649.087 39.945 648.959 39.9959 648.81 39.9959ZM652.685 45.9239C652.204 45.9239 651.789 45.8178 651.44 45.6054C651.093 45.3909 650.826 45.0919 650.637 44.7084C650.451 44.3228 650.358 43.8743 650.358 43.3629C650.358 42.8516 650.451 42.4009 650.637 42.0109C650.826 41.6188 651.088 41.3133 651.424 41.0944C651.762 40.8734 652.156 40.7629 652.607 40.7629C652.867 40.7629 653.124 40.8063 653.377 40.8929C653.631 40.9796 653.861 41.1204 654.069 41.3154C654.277 41.5083 654.443 41.7639 654.567 42.0824C654.69 42.4009 654.752 42.7931 654.752 43.2589V43.5839H650.904V42.9209H653.972C653.972 42.6393 653.915 42.3879 653.803 42.1669C653.692 41.9459 653.534 41.7715 653.328 41.6437C653.125 41.5159 652.884 41.4519 652.607 41.4519C652.301 41.4519 652.037 41.5278 651.814 41.6794C651.593 41.8289 651.423 42.0239 651.304 42.2644C651.184 42.5049 651.125 42.7628 651.125 43.0379V43.4799C651.125 43.8569 651.19 44.1765 651.32 44.4387C651.452 44.6987 651.635 44.8969 651.869 45.0334C652.103 45.1678 652.375 45.2349 652.685 45.2349C652.886 45.2349 653.068 45.2068 653.231 45.1504C653.395 45.0919 653.537 45.0053 653.657 44.8904C653.776 44.7734 653.868 44.6283 653.933 44.4549L654.674 44.6629C654.596 44.9143 654.465 45.1353 654.281 45.3259C654.096 45.5144 653.869 45.6618 653.598 45.7679C653.327 45.8719 653.023 45.9239 652.685 45.9239ZM656.686 42.8169V45.8199H655.919V40.8279H656.66V41.6079H656.725C656.842 41.3544 657.019 41.1508 657.258 40.9969C657.496 40.8409 657.804 40.7629 658.181 40.7629C658.519 40.7629 658.814 40.8323 659.068 40.9709C659.321 41.1074 659.518 41.3154 659.659 41.5949C659.8 41.8723 659.871 42.2233 659.871 42.6479V45.8199H659.104V42.6999C659.104 42.3078 659.002 42.0023 658.798 41.7834C658.594 41.5624 658.315 41.4519 657.96 41.4519C657.715 41.4519 657.496 41.505 657.303 41.6112C657.112 41.7174 656.962 41.8723 656.851 42.0759C656.741 42.2796 656.686 42.5266 656.686 42.8169ZM663.443 40.8279V41.4779H660.856V40.8279H663.443ZM661.61 39.6319H662.377V44.3899C662.377 44.6066 662.408 44.7691 662.471 44.8774C662.536 44.9836 662.619 45.0551 662.718 45.0919C662.82 45.1266 662.927 45.1439 663.04 45.1439C663.125 45.1439 663.194 45.1396 663.248 45.1309C663.302 45.1201 663.346 45.1114 663.378 45.1049L663.534 45.7939C663.482 45.8134 663.409 45.8329 663.316 45.8524C663.223 45.8741 663.105 45.8849 662.962 45.8849C662.745 45.8849 662.533 45.8384 662.325 45.7452C662.119 45.652 661.948 45.5101 661.812 45.3194C661.677 45.1288 661.61 44.8883 661.61 44.5979V39.6319ZM667.275 45.8199V39.1639H669.524C670.044 39.1639 670.471 39.2528 670.804 39.4304C671.138 39.6059 671.385 39.8475 671.545 40.1552C671.706 40.4629 671.786 40.8128 671.786 41.2049C671.786 41.5971 671.706 41.9449 671.545 42.2482C671.385 42.5515 671.139 42.7899 670.808 42.9632C670.476 43.1344 670.052 43.2199 669.537 43.2199H667.717V42.4919H669.511C669.866 42.4919 670.152 42.4399 670.369 42.3359C670.588 42.2319 670.746 42.0846 670.843 41.8939C670.943 41.7011 670.993 41.4714 670.993 41.2049C670.993 40.9384 670.943 40.7055 670.843 40.5062C670.744 40.3069 670.584 40.153 670.366 40.0447C670.147 39.9342 669.857 39.8789 669.498 39.8789H668.081V45.8199H667.275ZM670.408 42.8299L672.046 45.8199H671.11L669.498 42.8299H670.408ZM675.064 45.9239C674.583 45.9239 674.168 45.8178 673.82 45.6054C673.473 45.3909 673.205 45.0919 673.017 44.7084C672.83 44.3228 672.737 43.8743 672.737 43.3629C672.737 42.8516 672.83 42.4009 673.017 42.0109C673.205 41.6188 673.467 41.3133 673.803 41.0944C674.141 40.8734 674.536 40.7629 674.986 40.7629C675.246 40.7629 675.503 40.8063 675.757 40.8929C676.01 40.9796 676.241 41.1204 676.449 41.3154C676.657 41.5083 676.823 41.7639 676.946 42.0824C677.07 42.4009 677.131 42.7931 677.131 43.2589V43.5839H673.283V42.9209H676.351C676.351 42.6393 676.295 42.3879 676.182 42.1669C676.072 41.9459 675.914 41.7715 675.708 41.6437C675.504 41.5159 675.264 41.4519 674.986 41.4519C674.681 41.4519 674.416 41.5278 674.193 41.6794C673.972 41.8289 673.802 42.0239 673.683 42.2644C673.564 42.5049 673.504 42.7628 673.504 43.0379V43.4799C673.504 43.8569 673.569 44.1765 673.699 44.4387C673.831 44.6987 674.015 44.8969 674.249 45.0334C674.483 45.1678 674.754 45.2349 675.064 45.2349C675.266 45.2349 675.448 45.2068 675.61 45.1504C675.775 45.0919 675.917 45.0053 676.036 44.8904C676.155 44.7734 676.247 44.6283 676.312 44.4549L677.053 44.6629C676.975 44.9143 676.844 45.1353 676.66 45.3259C676.476 45.5144 676.248 45.6618 675.978 45.7679C675.707 45.8719 675.402 45.9239 675.064 45.9239ZM679.065 39.1639V45.8199H678.298V39.1639H679.065ZM681.939 45.9369C681.622 45.9369 681.335 45.8774 681.078 45.7582C680.82 45.6369 680.615 45.4624 680.463 45.2349C680.312 45.0053 680.236 44.7279 680.236 44.4029C680.236 44.1169 680.292 43.8851 680.405 43.7074C680.517 43.5276 680.668 43.3868 680.857 43.2849C681.045 43.1831 681.253 43.1073 681.481 43.0574C681.71 43.0054 681.941 42.9643 682.173 42.9339C682.476 42.8949 682.722 42.8657 682.911 42.8462C683.101 42.8245 683.24 42.7888 683.327 42.7389C683.415 42.6891 683.46 42.6024 683.46 42.4789V42.4529C683.46 42.1323 683.372 41.8831 683.197 41.7054C683.023 41.5278 682.76 41.4389 682.407 41.4389C682.041 41.4389 681.754 41.5191 681.546 41.6794C681.338 41.8398 681.191 42.0109 681.107 42.1929L680.379 41.9329C680.509 41.6296 680.682 41.3934 680.899 41.2244C681.118 41.0533 681.356 40.9341 681.614 40.8669C681.874 40.7976 682.129 40.7629 682.381 40.7629C682.541 40.7629 682.725 40.7824 682.933 40.8214C683.143 40.8583 683.346 40.9352 683.541 41.0522C683.738 41.1692 683.902 41.3458 684.032 41.5819C684.162 41.8181 684.227 42.1344 684.227 42.5309V45.8199H683.46V45.1439H683.421C683.369 45.2523 683.282 45.3682 683.161 45.4917C683.039 45.6152 682.878 45.7203 682.677 45.8069C682.475 45.8936 682.229 45.9369 681.939 45.9369ZM682.056 45.2479C682.359 45.2479 682.615 45.1884 682.823 45.0692C683.033 44.95 683.191 44.7962 683.297 44.6077C683.406 44.4192 683.46 44.2209 683.46 44.0129V43.3109C683.427 43.3499 683.356 43.3857 683.245 43.4182C683.137 43.4485 683.011 43.4756 682.868 43.4994C682.727 43.5211 682.59 43.5406 682.456 43.5579C682.323 43.5731 682.216 43.5861 682.134 43.5969C681.934 43.6229 681.748 43.6652 681.575 43.7237C681.404 43.78 681.265 43.8656 681.159 43.9804C681.055 44.0931 681.003 44.2469 681.003 44.4419C681.003 44.7084 681.101 44.9099 681.299 45.0464C681.498 45.1808 681.75 45.2479 682.056 45.2479ZM687.798 40.8279V41.4779H685.211V40.8279H687.798ZM685.965 39.6319H686.732V44.3899C686.732 44.6066 686.763 44.7691 686.826 44.8774C686.891 44.9836 686.973 45.0551 687.073 45.0919C687.175 45.1266 687.282 45.1439 687.395 45.1439C687.479 45.1439 687.549 45.1396 687.603 45.1309C687.657 45.1201 687.7 45.1114 687.733 45.1049L687.889 45.7939C687.837 45.8134 687.764 45.8329 687.671 45.8524C687.578 45.8741 687.46 45.8849 687.317 45.8849C687.1 45.8849 686.888 45.8384 686.68 45.7452C686.474 45.652 686.303 45.5101 686.166 45.3194C686.032 45.1288 685.965 44.8883 685.965 44.5979V39.6319ZM688.952 45.8199V40.8279H689.719V45.8199H688.952ZM689.342 39.9959C689.192 39.9959 689.063 39.945 688.955 39.8432C688.849 39.7414 688.796 39.6189 688.796 39.4759C688.796 39.3329 688.849 39.2105 688.955 39.1087C689.063 39.0069 689.192 38.9559 689.342 38.9559C689.491 38.9559 689.619 39.0069 689.725 39.1087C689.833 39.2105 689.888 39.3329 689.888 39.4759C689.888 39.6189 689.833 39.7414 689.725 39.8432C689.619 39.945 689.491 39.9959 689.342 39.9959ZM693.151 45.9239C692.701 45.9239 692.305 45.8167 691.965 45.6022C691.627 45.3877 691.363 45.0876 691.172 44.7019C690.984 44.3163 690.889 43.8656 690.889 43.3499C690.889 42.8299 690.984 42.376 691.172 41.9882C691.363 41.6004 691.627 41.2992 691.965 41.0847C692.305 40.8702 692.701 40.7629 693.151 40.7629C693.602 40.7629 693.996 40.8702 694.334 41.0847C694.674 41.2992 694.939 41.6004 695.127 41.9882C695.318 42.376 695.413 42.8299 695.413 43.3499C695.413 43.8656 695.318 44.3163 695.127 44.7019C694.939 45.0876 694.674 45.3877 694.334 45.6022C693.996 45.8167 693.602 45.9239 693.151 45.9239ZM693.151 45.2349C693.494 45.2349 693.775 45.1472 693.996 44.9717C694.217 44.7962 694.381 44.5654 694.487 44.2794C694.593 43.9934 694.646 43.6836 694.646 43.3499C694.646 43.0163 694.593 42.7054 694.487 42.4172C694.381 42.129 694.217 41.8961 693.996 41.7184C693.775 41.5408 693.494 41.4519 693.151 41.4519C692.809 41.4519 692.527 41.5408 692.306 41.7184C692.085 41.8961 691.922 42.129 691.816 42.4172C691.709 42.7054 691.656 43.0163 691.656 43.3499C691.656 43.6836 691.709 43.9934 691.816 44.2794C691.922 44.5654 692.085 44.7962 692.306 44.9717C692.527 45.1472 692.809 45.2349 693.151 45.2349ZM697.351 42.8169V45.8199H696.584V40.8279H697.325V41.6079H697.39C697.507 41.3544 697.685 41.1508 697.923 40.9969C698.161 40.8409 698.469 40.7629 698.846 40.7629C699.184 40.7629 699.48 40.8323 699.733 40.9709C699.987 41.1074 700.184 41.3154 700.325 41.5949C700.466 41.8723 700.536 42.2233 700.536 42.6479V45.8199H699.769V42.6999C699.769 42.3078 699.667 42.0023 699.464 41.7834C699.26 41.5624 698.98 41.4519 698.625 41.4519C698.38 41.4519 698.161 41.505 697.969 41.6112C697.778 41.7174 697.627 41.8723 697.517 42.0759C697.406 42.2796 697.351 42.5266 697.351 42.8169ZM705.474 41.9459L704.785 42.1409C704.741 42.0261 704.677 41.9145 704.593 41.8062C704.511 41.6957 704.398 41.6047 704.255 41.5332C704.112 41.4617 703.929 41.4259 703.706 41.4259C703.4 41.4259 703.146 41.4964 702.942 41.6372C702.74 41.7759 702.64 41.9524 702.64 42.1669C702.64 42.3576 702.709 42.5082 702.848 42.6187C702.986 42.7292 703.203 42.8213 703.498 42.8949L704.239 43.0769C704.685 43.1853 705.018 43.351 705.236 43.5742C705.455 43.7952 705.565 44.0801 705.565 44.4289C705.565 44.7149 705.482 44.9706 705.318 45.1959C705.155 45.4213 704.928 45.5989 704.635 45.7289C704.343 45.8589 704.003 45.9239 703.615 45.9239C703.106 45.9239 702.684 45.8134 702.35 45.5924C702.017 45.3714 701.806 45.0486 701.717 44.6239L702.445 44.4419C702.514 44.7106 702.645 44.9121 702.838 45.0464C703.033 45.1808 703.288 45.2479 703.602 45.2479C703.959 45.2479 704.243 45.1721 704.453 45.0204C704.666 44.8666 704.772 44.6824 704.772 44.4679C704.772 44.2946 704.711 44.1494 704.59 44.0324C704.468 43.9133 704.282 43.8244 704.031 43.7659L703.199 43.5709C702.742 43.4626 702.406 43.2947 702.191 43.0672C701.979 42.8375 701.873 42.5504 701.873 42.2059C701.873 41.9243 701.952 41.6751 702.11 41.4584C702.27 41.2418 702.488 41.0717 702.763 40.9482C703.041 40.8247 703.355 40.7629 703.706 40.7629C704.2 40.7629 704.588 40.8713 704.869 41.0879C705.153 41.3046 705.355 41.5906 705.474 41.9459ZM707.486 42.8169V45.8199H706.719V39.1639H707.486V41.6079H707.551C707.668 41.3501 707.844 41.1454 708.078 40.9937C708.314 40.8399 708.628 40.7629 709.02 40.7629C709.36 40.7629 709.658 40.8312 709.914 40.9677C710.17 41.102 710.368 41.3089 710.509 41.5884C710.652 41.8658 710.723 42.2189 710.723 42.6479V45.8199H709.956V42.6999C709.956 42.3034 709.853 41.9969 709.648 41.7802C709.444 41.5614 709.161 41.4519 708.799 41.4519C708.548 41.4519 708.323 41.505 708.123 41.6112C707.926 41.7174 707.77 41.8723 707.655 42.0759C707.543 42.2796 707.486 42.5266 707.486 42.8169ZM712.126 45.8199V40.8279H712.893V45.8199H712.126ZM712.516 39.9959C712.367 39.9959 712.238 39.945 712.13 39.8432C712.024 39.7414 711.97 39.6189 711.97 39.4759C711.97 39.3329 712.024 39.2105 712.13 39.1087C712.238 39.0069 712.367 38.9559 712.516 38.9559C712.666 38.9559 712.794 39.0069 712.9 39.1087C713.008 39.2105 713.062 39.3329 713.062 39.4759C713.062 39.6189 713.008 39.7414 712.9 39.8432C712.794 39.945 712.666 39.9959 712.516 39.9959ZM714.298 47.6919V40.8279H715.039V41.6209H715.13C715.187 41.5343 715.265 41.4238 715.364 41.2894C715.466 41.1529 715.611 41.0316 715.8 40.9254C715.99 40.8171 716.248 40.7629 716.573 40.7629C716.994 40.7629 717.364 40.868 717.685 41.0782C718.005 41.2884 718.256 41.5863 718.436 41.9719C718.615 42.3576 718.705 42.8126 718.705 43.3369C718.705 43.8656 718.615 44.3239 718.436 44.7117C718.256 45.0974 718.007 45.3964 717.688 45.6087C717.37 45.8189 717.002 45.9239 716.586 45.9239C716.266 45.9239 716.009 45.8709 715.816 45.7647C715.623 45.6564 715.475 45.5339 715.371 45.3974C715.267 45.2588 715.187 45.1439 715.13 45.0529H715.065V47.6919H714.298ZM715.052 43.3239C715.052 43.7009 715.108 44.0335 715.218 44.3217C715.329 44.6077 715.49 44.8319 715.702 44.9944C715.915 45.1548 716.175 45.2349 716.482 45.2349C716.803 45.2349 717.071 45.1504 717.285 44.9814C717.502 44.8103 717.664 44.5806 717.773 44.2924C717.883 44.0021 717.938 43.6793 717.938 43.3239C717.938 42.9729 717.884 42.6566 717.776 42.3749C717.67 42.0911 717.508 41.8669 717.292 41.7022C717.077 41.5354 716.807 41.4519 716.482 41.4519C716.17 41.4519 715.908 41.531 715.696 41.6892C715.483 41.8452 715.323 42.064 715.215 42.3457C715.106 42.6252 715.052 42.9513 715.052 43.3239ZM723.411 41.9459L722.722 42.1409C722.679 42.0261 722.615 41.9145 722.531 41.8062C722.448 41.6957 722.336 41.6047 722.193 41.5332C722.05 41.4617 721.866 41.4259 721.643 41.4259C721.338 41.4259 721.083 41.4964 720.88 41.6372C720.678 41.7759 720.577 41.9524 720.577 42.1669C720.577 42.3576 720.647 42.5082 720.785 42.6187C720.924 42.7292 721.141 42.8213 721.435 42.8949L722.176 43.0769C722.623 43.1853 722.955 43.351 723.174 43.5742C723.393 43.7952 723.502 44.0801 723.502 44.4289C723.502 44.7149 723.42 44.9706 723.255 45.1959C723.093 45.4213 722.865 45.5989 722.573 45.7289C722.28 45.8589 721.94 45.9239 721.552 45.9239C721.043 45.9239 720.622 45.8134 720.288 45.5924C719.954 45.3714 719.743 45.0486 719.654 44.6239L720.382 44.4419C720.452 44.7106 720.583 44.9121 720.776 45.0464C720.971 45.1808 721.225 45.2479 721.539 45.2479C721.897 45.2479 722.181 45.1721 722.391 45.0204C722.603 44.8666 722.709 44.6824 722.709 44.4679C722.709 44.2946 722.649 44.1494 722.527 44.0324C722.406 43.9133 722.22 43.8244 721.968 43.7659L721.136 43.5709C720.679 43.4626 720.343 43.2947 720.129 43.0672C719.916 42.8375 719.81 42.5504 719.81 42.2059C719.81 41.9243 719.889 41.6751 720.048 41.4584C720.208 41.2418 720.426 41.0717 720.701 40.9482C720.978 40.8247 721.292 40.7629 721.643 40.7629C722.137 40.7629 722.525 40.8713 722.807 41.0879C723.091 41.3046 723.292 41.5906 723.411 41.9459Z" fill="white"/>
<path fill-rule="evenodd" clip-rule="evenodd" d="M729.145 40.7622C729.275 40.6205 729.486 40.6205 729.616 40.7622L731.807 43.1519C731.937 43.2937 732.148 43.2937 732.278 43.1519L734.47 40.7622C734.6 40.6205 734.811 40.6205 734.941 40.7622C735.07 40.9039 735.07 41.1337 734.941 41.2754L732.749 43.6651C732.359 44.0902 731.727 44.0902 731.337 43.6651L729.145 41.2754C729.015 41.1337 729.015 40.9039 729.145 40.7622Z" fill="white" fill-opacity="0.4"/>
<path d="M763.33 39.8789V39.1639H768.322V39.8789H766.229V45.8199H765.423V39.8789H763.33ZM769.462 45.8199V40.8279H770.229V45.8199H769.462ZM769.852 39.9959C769.702 39.9959 769.573 39.945 769.465 39.8432C769.359 39.7414 769.306 39.6189 769.306 39.4759C769.306 39.3329 769.359 39.2105 769.465 39.1087C769.573 39.0069 769.702 38.9559 769.852 38.9559C770.001 38.9559 770.129 39.0069 770.235 39.1087C770.343 39.2105 770.398 39.3329 770.398 39.4759C770.398 39.6189 770.343 39.7414 770.235 39.8432C770.129 39.945 770.001 39.9959 769.852 39.9959ZM773.804 40.8279V41.4779H771.217V40.8279H773.804ZM771.971 39.6319H772.738V44.3899C772.738 44.6066 772.77 44.7691 772.833 44.8774C772.898 44.9836 772.98 45.0551 773.08 45.0919C773.182 45.1266 773.289 45.1439 773.401 45.1439C773.486 45.1439 773.555 45.1396 773.609 45.1309C773.664 45.1201 773.707 45.1114 773.739 45.1049L773.895 45.7939C773.843 45.8134 773.771 45.8329 773.678 45.8524C773.585 45.8741 773.466 45.8849 773.323 45.8849C773.107 45.8849 772.894 45.8384 772.686 45.7452C772.481 45.652 772.309 45.5101 772.173 45.3194C772.039 45.1288 771.971 44.8883 771.971 44.5979V39.6319ZM775.832 39.1639V45.8199H775.065V39.1639H775.832ZM779.33 45.9239C778.849 45.9239 778.434 45.8178 778.086 45.6054C777.739 45.3909 777.471 45.0919 777.283 44.7084C777.096 44.3228 777.003 43.8743 777.003 43.3629C777.003 42.8516 777.096 42.4009 777.283 42.0109C777.471 41.6188 777.733 41.3133 778.069 41.0944C778.407 40.8734 778.802 40.7629 779.252 40.7629C779.512 40.7629 779.769 40.8063 780.023 40.8929C780.276 40.9796 780.507 41.1204 780.715 41.3154C780.923 41.5083 781.089 41.7639 781.212 42.0824C781.336 42.4009 781.397 42.7931 781.397 43.2589V43.5839H777.549V42.9209H780.617C780.617 42.6393 780.561 42.3879 780.448 42.1669C780.338 41.9459 780.18 41.7715 779.974 41.6437C779.77 41.5159 779.53 41.4519 779.252 41.4519C778.947 41.4519 778.682 41.5278 778.459 41.6794C778.238 41.8289 778.068 42.0239 777.949 42.2644C777.83 42.5049 777.77 42.7628 777.77 43.0379V43.4799C777.77 43.8569 777.835 44.1765 777.965 44.4387C778.097 44.6987 778.281 44.8969 778.515 45.0334C778.749 45.1678 779.02 45.2349 779.33 45.2349C779.532 45.2349 779.714 45.2068 779.876 45.1504C780.041 45.0919 780.183 45.0053 780.302 44.8904C780.421 44.7734 780.513 44.6283 780.578 44.4549L781.319 44.6629C781.241 44.9143 781.11 45.1353 780.926 45.3259C780.742 45.5144 780.514 45.6618 780.244 45.7679C779.973 45.8719 779.668 45.9239 779.33 45.9239ZM785.242 45.8199V39.1639H787.491C788.011 39.1639 788.438 39.2528 788.772 39.4304C789.105 39.6059 789.352 39.8475 789.513 40.1552C789.673 40.4629 789.753 40.8128 789.753 41.2049C789.753 41.5971 789.673 41.9449 789.513 42.2482C789.352 42.5515 789.106 42.7899 788.775 42.9632C788.443 43.1344 788.02 43.2199 787.504 43.2199H785.684V42.4919H787.478C787.833 42.4919 788.119 42.4399 788.336 42.3359C788.555 42.2319 788.713 42.0846 788.811 41.8939C788.91 41.7011 788.96 41.4714 788.96 41.2049C788.96 40.9384 788.91 40.7055 788.811 40.5062C788.711 40.3069 788.552 40.153 788.333 40.0447C788.114 39.9342 787.825 39.8789 787.465 39.8789H786.048V45.8199H785.242ZM788.375 42.8299L790.013 45.8199H789.077L787.465 42.8299H788.375ZM792.461 45.9369C792.145 45.9369 791.858 45.8774 791.6 45.7582C791.342 45.6369 791.137 45.4624 790.986 45.2349C790.834 45.0053 790.758 44.7279 790.758 44.4029C790.758 44.1169 790.814 43.8851 790.927 43.7074C791.04 43.5276 791.19 43.3868 791.379 43.2849C791.567 43.1831 791.775 43.1073 792.003 43.0574C792.232 43.0054 792.463 42.9643 792.695 42.9339C792.998 42.8949 793.244 42.8657 793.433 42.8462C793.623 42.8245 793.762 42.7888 793.849 42.7389C793.938 42.6891 793.982 42.6024 793.982 42.4789V42.4529C793.982 42.1323 793.894 41.8831 793.719 41.7054C793.545 41.5278 793.282 41.4389 792.929 41.4389C792.563 41.4389 792.276 41.5191 792.068 41.6794C791.86 41.8398 791.714 42.0109 791.629 42.1929L790.901 41.9329C791.031 41.6296 791.204 41.3934 791.421 41.2244C791.64 41.0533 791.878 40.9341 792.136 40.8669C792.396 40.7976 792.652 40.7629 792.903 40.7629C793.063 40.7629 793.248 40.7824 793.456 40.8214C793.666 40.8583 793.868 40.9352 794.063 41.0522C794.26 41.1692 794.424 41.3458 794.554 41.5819C794.684 41.8181 794.749 42.1344 794.749 42.5309V45.8199H793.982V45.1439H793.943C793.891 45.2523 793.804 45.3682 793.683 45.4917C793.562 45.6152 793.4 45.7203 793.199 45.8069C792.997 45.8936 792.751 45.9369 792.461 45.9369ZM792.578 45.2479C792.881 45.2479 793.137 45.1884 793.345 45.0692C793.555 44.95 793.713 44.7962 793.82 44.6077C793.928 44.4192 793.982 44.2209 793.982 44.0129V43.3109C793.95 43.3499 793.878 43.3857 793.768 43.4182C793.659 43.4485 793.534 43.4756 793.391 43.4994C793.25 43.5211 793.112 43.5406 792.978 43.5579C792.846 43.5731 792.738 43.5861 792.656 43.5969C792.457 43.6229 792.27 43.6652 792.097 43.7237C791.926 43.78 791.787 43.8656 791.681 43.9804C791.577 44.0931 791.525 44.2469 791.525 44.4419C791.525 44.7084 791.624 44.9099 791.821 45.0464C792.02 45.1808 792.273 45.2479 792.578 45.2479ZM796.916 42.8169V45.8199H796.149V40.8279H796.89V41.6079H796.955C797.072 41.3544 797.25 41.1508 797.488 40.9969C797.726 40.8409 798.034 40.7629 798.411 40.7629C798.749 40.7629 799.045 40.8323 799.298 40.9709C799.552 41.1074 799.749 41.3154 799.89 41.5949C800.031 41.8723 800.101 42.2233 800.101 42.6479V45.8199H799.334V42.6999C799.334 42.3078 799.232 42.0023 799.029 41.7834C798.825 41.5624 798.545 41.4519 798.19 41.4519C797.945 41.4519 797.726 41.505 797.534 41.6112C797.343 41.7174 797.192 41.8723 797.082 42.0759C796.971 42.2796 796.916 42.5266 796.916 42.8169ZM802.218 43.9999L802.205 43.0509H802.361L804.545 40.8279H805.494L803.167 43.1809H803.102L802.218 43.9999ZM801.503 45.8199V39.1639H802.27V45.8199H801.503ZM804.675 45.8199L802.725 43.3499L803.271 42.8169L805.65 45.8199H804.675Z" fill="white"/>
<path fill-rule="evenodd" clip-rule="evenodd" d="M810.145 40.7622C810.275 40.6205 810.486 40.6205 810.616 40.7622L812.807 43.1519C812.937 43.2937 813.148 43.2937 813.278 43.1519L815.47 40.7622C815.6 40.6205 815.811 40.6205 815.941 40.7622C816.07 40.9039 816.07 41.1337 815.941 41.2754L813.749 43.6651C813.359 44.0902 812.727 44.0902 812.337 43.6651L810.145 41.2754C810.015 41.1337 810.015 40.9039 810.145 40.7622Z" fill="white" fill-opacity="0.4"/>
<path d="M848.61 39.1639H849.416V43.9219C849.416 44.3466 849.338 44.7074 849.182 45.0042C849.026 45.301 848.806 45.5264 848.522 45.6802C848.238 45.834 847.904 45.9109 847.518 45.9109C847.154 45.9109 846.83 45.8449 846.546 45.7127C846.262 45.5784 846.039 45.3877 845.877 45.1407C845.714 44.8937 845.633 44.6001 845.633 44.2599H846.426C846.426 44.4484 846.472 44.6131 846.566 44.7539C846.661 44.8926 846.791 45.0009 846.956 45.0789C847.12 45.1569 847.308 45.1959 847.518 45.1959C847.75 45.1959 847.947 45.1472 848.109 45.0497C848.272 44.9522 848.395 44.8092 848.48 44.6207C848.567 44.43 848.61 44.1971 848.61 43.9219V39.1639ZM852.955 45.9239C852.504 45.9239 852.109 45.8167 851.769 45.6022C851.431 45.3877 851.167 45.0876 850.976 44.7019C850.787 44.3163 850.693 43.8656 850.693 43.3499C850.693 42.8299 850.787 42.376 850.976 41.9882C851.167 41.6004 851.431 41.2992 851.769 41.0847C852.109 40.8702 852.504 40.7629 852.955 40.7629C853.406 40.7629 853.8 40.8702 854.138 41.0847C854.478 41.2992 854.743 41.6004 854.931 41.9882C855.122 42.376 855.217 42.8299 855.217 43.3499C855.217 43.8656 855.122 44.3163 854.931 44.7019C854.743 45.0876 854.478 45.3877 854.138 45.6022C853.8 45.8167 853.406 45.9239 852.955 45.9239ZM852.955 45.2349C853.297 45.2349 853.579 45.1472 853.8 44.9717C854.021 44.7962 854.185 44.5654 854.291 44.2794C854.397 43.9934 854.45 43.6836 854.45 43.3499C854.45 43.0163 854.397 42.7054 854.291 42.4172C854.185 42.129 854.021 41.8961 853.8 41.7184C853.579 41.5408 853.297 41.4519 852.955 41.4519C852.613 41.4519 852.331 41.5408 852.11 41.7184C851.889 41.8961 851.726 42.129 851.619 42.4172C851.513 42.7054 851.46 43.0163 851.46 43.3499C851.46 43.6836 851.513 43.9934 851.619 44.2794C851.726 44.5654 851.889 44.7962 852.11 44.9717C852.331 45.1472 852.613 45.2349 852.955 45.2349ZM856.492 45.8199V39.1639H857.259V41.6209H857.324C857.38 41.5343 857.458 41.4238 857.558 41.2894C857.66 41.1529 857.805 41.0316 857.993 40.9254C858.184 40.8171 858.442 40.7629 858.767 40.7629C859.187 40.7629 859.558 40.868 859.878 41.0782C860.199 41.2884 860.449 41.5863 860.629 41.9719C860.809 42.3576 860.899 42.8126 860.899 43.3369C860.899 43.8656 860.809 44.3239 860.629 44.7117C860.449 45.0974 860.2 45.3964 859.882 45.6087C859.563 45.8189 859.196 45.9239 858.78 45.9239C858.459 45.9239 858.203 45.8709 858.01 45.7647C857.817 45.6564 857.668 45.5339 857.564 45.3974C857.46 45.2588 857.38 45.1439 857.324 45.0529H857.233V45.8199H856.492ZM857.246 43.3239C857.246 43.7009 857.301 44.0335 857.412 44.3217C857.522 44.6077 857.684 44.8319 857.896 44.9944C858.108 45.1548 858.368 45.2349 858.676 45.2349C858.997 45.2349 859.264 45.1504 859.479 44.9814C859.695 44.8103 859.858 44.5806 859.966 44.2924C860.077 44.0021 860.132 43.6793 860.132 43.3239C860.132 42.9729 860.078 42.6566 859.969 42.3749C859.863 42.0911 859.702 41.8669 859.485 41.7022C859.271 41.5354 859.001 41.4519 858.676 41.4519C858.364 41.4519 858.102 41.531 857.889 41.6892C857.677 41.8452 857.517 42.064 857.408 42.3457C857.3 42.6252 857.246 42.9513 857.246 43.3239ZM864.75 45.8199V39.1639H866.999C867.519 39.1639 867.946 39.2528 868.28 39.4304C868.613 39.6059 868.86 39.8475 869.021 40.1552C869.181 40.4629 869.261 40.8128 869.261 41.2049C869.261 41.5971 869.181 41.9449 869.021 42.2482C868.86 42.5515 868.614 42.7899 868.283 42.9632C867.951 43.1344 867.528 43.2199 867.012 43.2199H865.192V42.4919H866.986C867.342 42.4919 867.628 42.4399 867.844 42.3359C868.063 42.2319 868.221 42.0846 868.319 41.8939C868.418 41.7011 868.468 41.4714 868.468 41.2049C868.468 40.9384 868.418 40.7055 868.319 40.5062C868.219 40.3069 868.06 40.153 867.841 40.0447C867.622 39.9342 867.333 39.8789 866.973 39.8789H865.556V45.8199H864.75ZM867.883 42.8299L869.521 45.8199H868.585L866.973 42.8299H867.883ZM872.475 45.9239C872.024 45.9239 871.629 45.8167 871.288 45.6022C870.95 45.3877 870.686 45.0876 870.495 44.7019C870.307 44.3163 870.213 43.8656 870.213 43.3499C870.213 42.8299 870.307 42.376 870.495 41.9882C870.686 41.6004 870.95 41.2992 871.288 41.0847C871.629 40.8702 872.024 40.7629 872.475 40.7629C872.925 40.7629 873.32 40.8702 873.658 41.0847C873.998 41.2992 874.262 41.6004 874.451 41.9882C874.641 42.376 874.737 42.8299 874.737 43.3499C874.737 43.8656 874.641 44.3163 874.451 44.7019C874.262 45.0876 873.998 45.3877 873.658 45.6022C873.32 45.8167 872.925 45.9239 872.475 45.9239ZM872.475 45.2349C872.817 45.2349 873.099 45.1472 873.32 44.9717C873.541 44.7962 873.704 44.5654 873.81 44.2794C873.917 43.9934 873.97 43.6836 873.97 43.3499C873.97 43.0163 873.917 42.7054 873.81 42.4172C873.704 42.129 873.541 41.8961 873.32 41.7184C873.099 41.5408 872.817 41.4519 872.475 41.4519C872.132 41.4519 871.851 41.5408 871.63 41.7184C871.409 41.8961 871.245 42.129 871.139 42.4172C871.033 42.7054 870.98 43.0163 870.98 43.3499C870.98 43.6836 871.033 43.9934 871.139 44.2794C871.245 44.5654 871.409 44.7962 871.63 44.9717C871.851 45.1472 872.132 45.2349 872.475 45.2349ZM876.674 39.1639V45.8199H875.907V39.1639H876.674ZM880.172 45.9239C879.691 45.9239 879.276 45.8178 878.927 45.6054C878.581 45.3909 878.313 45.0919 878.125 44.7084C877.938 44.3228 877.845 43.8743 877.845 43.3629C877.845 42.8516 877.938 42.4009 878.125 42.0109C878.313 41.6188 878.575 41.3133 878.911 41.0944C879.249 40.8734 879.644 40.7629 880.094 40.7629C880.354 40.7629 880.611 40.8063 880.864 40.8929C881.118 40.9796 881.349 41.1204 881.557 41.3154C881.765 41.5083 881.93 41.7639 882.054 42.0824C882.177 42.4009 882.239 42.7931 882.239 43.2589V43.5839H878.391V42.9209H881.459C881.459 42.6393 881.403 42.3879 881.29 42.1669C881.18 41.9459 881.022 41.7715 880.816 41.6437C880.612 41.5159 880.372 41.4519 880.094 41.4519C879.789 41.4519 879.524 41.5278 879.301 41.6794C879.08 41.8289 878.91 42.0239 878.791 42.2644C878.672 42.5049 878.612 42.7628 878.612 43.0379V43.4799C878.612 43.8569 878.677 44.1765 878.807 44.4387C878.939 44.6987 879.122 44.8969 879.356 45.0334C879.59 45.1678 879.862 45.2349 880.172 45.2349C880.374 45.2349 880.556 45.2068 880.718 45.1504C880.883 45.0919 881.025 45.0053 881.144 44.8904C881.263 44.7734 881.355 44.6283 881.42 44.4549L882.161 44.6629C882.083 44.9143 881.952 45.1353 881.768 45.3259C881.584 45.5144 881.356 45.6618 881.085 45.7679C880.815 45.8719 880.51 45.9239 880.172 45.9239Z" fill="white"/>
<path fill-rule="evenodd" clip-rule="evenodd" d="M887.513 40.7622C887.643 40.6205 887.854 40.6205 887.984 40.7622L890.176 43.1519C890.306 43.2937 890.516 43.2937 890.646 43.1519L892.838 40.7622C892.968 40.6205 893.179 40.6205 893.309 40.7622C893.439 40.9039 893.439 41.1337 893.309 41.2754L891.117 43.6651C890.727 44.0902 890.095 44.0902 889.705 43.6651L887.513 41.2754C887.383 41.1337 887.383 40.9039 887.513 40.7622Z" fill="white" fill-opacity="0.4"/>
<path d="M800.416 4.16C800.416 2.09225 802.092 0.416 804.16 0.416H898.84C900.908 0.416 902.584 2.09225 902.584 4.16V13.84C902.584 15.9078 900.908 17.584 898.84 17.584H804.16C802.092 17.584 800.416 15.9078 800.416 13.84V4.16Z" stroke="#25C9BA" stroke-opacity="0.5" stroke-width="0.832"/>
<path d="M670.416 4.16C670.416 2.09225 672.092 0.416 674.16 0.416H791.84C793.908 0.416 795.584 2.09225 795.584 4.16V13.84C795.584 15.9078 793.908 17.584 791.84 17.584H674.16C672.092 17.584 670.416 15.9078 670.416 13.84V4.16Z" stroke="#25C9BA" stroke-opacity="0.5" stroke-width="0.832"/>
<g opacity="0.7">
<g clip-path="url(#clip0_280_163)">
<path d="M676.456 6.64402H676V4.58002H678.176V5.03602H676.456V6.64402Z" fill="#25C9BA"/>
<path d="M683.745 6.64402H683.289V5.03602H681.721V4.58002H683.745V6.64402Z" fill="#25C9BA"/>
<path d="M678.176 12.4194H676V10.3554H676.456V11.9634H678.176V12.4194Z" fill="#25C9BA"/>
<path d="M683.745 12.4194H681.721V11.9634H683.289V10.3554H683.745V12.4194Z" fill="#25C9BA"/>
</g>
<path d="M688.55 12V5.344H692.567V6.059H689.356V8.308H692.359V9.023H689.356V11.285H692.619V12H688.55ZM694.488 7.008L695.684 9.049L696.88 7.008H697.764L696.152 9.504L697.764 12H696.88L695.684 10.063L694.488 12H693.604L695.19 9.504L693.604 7.008H694.488ZM698.858 13.872V7.008H699.599V7.801H699.69C699.746 7.71433 699.824 7.60383 699.924 7.4695C700.026 7.333 700.171 7.21167 700.36 7.1055C700.55 6.99717 700.808 6.943 701.133 6.943C701.553 6.943 701.924 7.04808 702.245 7.25825C702.565 7.46842 702.815 7.76633 702.995 8.152C703.175 8.53767 703.265 8.99267 703.265 9.517C703.265 10.0457 703.175 10.5039 702.995 10.8918C702.815 11.2774 702.566 11.5764 702.248 11.7888C701.929 11.9989 701.562 12.104 701.146 12.104C700.825 12.104 700.569 12.0509 700.376 11.9448C700.183 11.8364 700.035 11.714 699.931 11.5775C699.827 11.4388 699.746 11.324 699.69 11.233H699.625V13.872H698.858ZM699.612 9.504C699.612 9.881 699.667 10.2136 699.778 10.5018C699.888 10.7878 700.05 11.012 700.262 11.1745C700.474 11.3348 700.734 11.415 701.042 11.415C701.363 11.415 701.63 11.3305 701.845 11.1615C702.061 10.9903 702.224 10.7607 702.332 10.4725C702.443 10.1822 702.498 9.85933 702.498 9.504C702.498 9.153 702.444 8.83667 702.336 8.555C702.229 8.27117 702.068 8.04692 701.851 7.88225C701.637 7.71542 701.367 7.632 701.042 7.632C700.73 7.632 700.468 7.71108 700.256 7.86925C700.043 8.02525 699.883 8.24408 699.775 8.52575C699.666 8.80525 699.612 9.13133 699.612 9.504ZM705.904 12.117C705.588 12.117 705.301 12.0574 705.043 11.9383C704.785 11.8169 704.58 11.6425 704.429 11.415C704.277 11.1853 704.201 10.908 704.201 10.583C704.201 10.297 704.257 10.0652 704.37 9.8875C704.483 9.70767 704.633 9.56683 704.822 9.465C705.01 9.36317 705.218 9.28733 705.446 9.2375C705.675 9.1855 705.906 9.14433 706.138 9.114C706.441 9.075 706.687 9.04575 706.876 9.02625C707.066 9.00458 707.205 8.96883 707.292 8.919C707.381 8.86917 707.425 8.7825 707.425 8.659V8.633C707.425 8.31233 707.337 8.06317 707.162 7.8855C706.988 7.70783 706.725 7.619 706.372 7.619C706.006 7.619 705.719 7.69917 705.511 7.8595C705.303 8.01983 705.157 8.191 705.072 8.373L704.344 8.113C704.474 7.80967 704.647 7.5735 704.864 7.4045C705.083 7.23333 705.321 7.11417 705.579 7.047C705.839 6.97767 706.095 6.943 706.346 6.943C706.506 6.943 706.691 6.9625 706.899 7.0015C707.109 7.03833 707.311 7.11525 707.506 7.23225C707.703 7.34925 707.867 7.52583 707.997 7.762C708.127 7.99817 708.192 8.3145 708.192 8.711V12H707.425V11.324H707.386C707.334 11.4323 707.247 11.5483 707.126 11.6718C707.005 11.7953 706.843 11.9003 706.642 11.987C706.44 12.0737 706.194 12.117 705.904 12.117ZM706.021 11.428C706.324 11.428 706.58 11.3684 706.788 11.2493C706.998 11.1301 707.156 10.9763 707.263 10.7878C707.371 10.5993 707.425 10.401 707.425 10.193V9.491C707.393 9.53 707.321 9.56575 707.211 9.59825C707.102 9.62858 706.977 9.65567 706.834 9.6795C706.693 9.70117 706.555 9.72067 706.421 9.738C706.289 9.75317 706.181 9.76617 706.099 9.777C705.9 9.803 705.713 9.84525 705.54 9.90375C705.369 9.96008 705.23 10.0457 705.124 10.1605C705.02 10.2732 704.968 10.427 704.968 10.622C704.968 10.8885 705.067 11.09 705.264 11.2265C705.463 11.3608 705.716 11.428 706.021 11.428ZM710.359 8.997V12H709.592V7.008H710.333V7.788H710.398C710.515 7.5345 710.693 7.33083 710.931 7.177C711.169 7.021 711.477 6.943 711.854 6.943C712.192 6.943 712.488 7.01233 712.741 7.151C712.995 7.2875 713.192 7.4955 713.333 7.775C713.474 8.05233 713.544 8.40333 713.544 8.828V12H712.777V8.88C712.777 8.48783 712.675 8.18233 712.472 7.9635C712.268 7.7425 711.988 7.632 711.633 7.632C711.388 7.632 711.169 7.68508 710.977 7.79125C710.786 7.89742 710.635 8.05233 710.525 8.256C710.414 8.45967 710.359 8.70667 710.359 8.997ZM716.831 12.104C716.415 12.104 716.047 11.9989 715.729 11.7888C715.41 11.5764 715.161 11.2774 714.981 10.8918C714.801 10.5039 714.712 10.0457 714.712 9.517C714.712 8.99267 714.801 8.53767 714.981 8.152C715.161 7.76633 715.411 7.46842 715.732 7.25825C716.053 7.04808 716.423 6.943 716.844 6.943C717.169 6.943 717.425 6.99717 717.614 7.1055C717.804 7.21167 717.95 7.333 718.049 7.4695C718.151 7.60383 718.23 7.71433 718.287 7.801H718.352V5.344H719.119V12H718.378V11.233H718.287C718.23 11.324 718.15 11.4388 718.046 11.5775C717.942 11.714 717.794 11.8364 717.601 11.9448C717.408 12.0509 717.151 12.104 716.831 12.104ZM716.935 11.415C717.242 11.415 717.502 11.3348 717.715 11.1745C717.927 11.012 718.088 10.7878 718.199 10.5018C718.309 10.2136 718.365 9.881 718.365 9.504C718.365 9.13133 718.31 8.80525 718.202 8.52575C718.094 8.24408 717.933 8.02525 717.721 7.86925C717.509 7.71108 717.247 7.632 716.935 7.632C716.61 7.632 716.339 7.71542 716.122 7.88225C715.908 8.04692 715.746 8.27117 715.638 8.555C715.532 8.83667 715.479 9.153 715.479 9.504C715.479 9.85933 715.533 10.1822 715.641 10.4725C715.752 10.7607 715.914 10.9903 716.129 11.1615C716.345 11.3305 716.614 11.415 716.935 11.415ZM728.664 7.424H727.858C727.81 7.19217 727.727 6.9885 727.608 6.813C727.491 6.6375 727.348 6.49017 727.179 6.371C727.012 6.24967 726.826 6.15867 726.623 6.098C726.419 6.03733 726.207 6.007 725.986 6.007C725.583 6.007 725.218 6.10883 724.891 6.3125C724.566 6.51617 724.307 6.81625 724.114 7.21275C723.923 7.60925 723.828 8.09567 723.828 8.672C723.828 9.24833 723.923 9.73475 724.114 10.1313C724.307 10.5278 724.566 10.8278 724.891 11.0315C725.218 11.2352 725.583 11.337 725.986 11.337C726.207 11.337 726.419 11.3067 726.623 11.246C726.826 11.1853 727.012 11.0954 727.179 10.9763C727.348 10.8549 727.491 10.7065 727.608 10.531C727.727 10.3533 727.81 10.1497 727.858 9.92H728.664C728.603 10.2602 728.493 10.5646 728.332 10.8333C728.172 11.1019 727.973 11.3305 727.734 11.519C727.496 11.7053 727.228 11.8472 726.932 11.9448C726.637 12.0422 726.322 12.091 725.986 12.091C725.418 12.091 724.913 11.9523 724.471 11.675C724.029 11.3977 723.682 11.0033 723.428 10.492C723.175 9.98067 723.048 9.374 723.048 8.672C723.048 7.97 723.175 7.36333 723.428 6.852C723.682 6.34067 724.029 5.94633 724.471 5.669C724.913 5.39167 725.418 5.253 725.986 5.253C726.322 5.253 726.637 5.30175 726.932 5.39925C727.228 5.49675 727.496 5.63975 727.734 5.82825C727.973 6.01458 728.172 6.24208 728.332 6.51075C728.493 6.77725 728.603 7.08167 728.664 7.424ZM731.89 12.104C731.44 12.104 731.044 11.9967 730.704 11.7822C730.366 11.5677 730.102 11.2677 729.911 10.882C729.723 10.4963 729.628 10.0457 729.628 9.53C729.628 9.01 729.723 8.55608 729.911 8.16825C730.102 7.78042 730.366 7.47925 730.704 7.26475C731.044 7.05025 731.44 6.943 731.89 6.943C732.341 6.943 732.735 7.05025 733.073 7.26475C733.413 7.47925 733.678 7.78042 733.866 8.16825C734.057 8.55608 734.152 9.01 734.152 9.53C734.152 10.0457 734.057 10.4963 733.866 10.882C733.678 11.2677 733.413 11.5677 733.073 11.7822C732.735 11.9967 732.341 12.104 731.89 12.104ZM731.89 11.415C732.233 11.415 732.514 11.3273 732.735 11.1518C732.956 10.9763 733.12 10.7455 733.226 10.4595C733.332 10.1735 733.385 9.86367 733.385 9.53C733.385 9.19633 733.332 8.88542 733.226 8.59725C733.12 8.30908 732.956 8.07617 732.735 7.8985C732.514 7.72083 732.233 7.632 731.89 7.632C731.548 7.632 731.266 7.72083 731.045 7.8985C730.824 8.07617 730.661 8.30908 730.555 8.59725C730.448 8.88542 730.395 9.19633 730.395 9.53C730.395 9.86367 730.448 10.1735 730.555 10.4595C730.661 10.7455 730.824 10.9763 731.045 11.1518C731.266 11.3273 731.548 11.415 731.89 11.415ZM736.09 8.997V12H735.323V7.008H736.064V7.788H736.129C736.246 7.5345 736.424 7.33083 736.662 7.177C736.9 7.021 737.208 6.943 737.585 6.943C737.923 6.943 738.219 7.01233 738.472 7.151C738.726 7.2875 738.923 7.4955 739.064 7.775C739.205 8.05233 739.275 8.40333 739.275 8.828V12H738.508V8.88C738.508 8.48783 738.406 8.18233 738.203 7.9635C737.999 7.7425 737.719 7.632 737.364 7.632C737.119 7.632 736.9 7.68508 736.708 7.79125C736.517 7.89742 736.366 8.05233 736.256 8.256C736.145 8.45967 736.09 8.70667 736.09 8.997ZM742.848 7.008V7.658H740.261V7.008H742.848ZM741.015 5.812H741.782V10.57C741.782 10.7867 741.813 10.9492 741.876 11.0575C741.941 11.1637 742.023 11.2352 742.123 11.272C742.225 11.3067 742.332 11.324 742.445 11.324C742.529 11.324 742.598 11.3197 742.653 11.311C742.707 11.3002 742.75 11.2915 742.783 11.285L742.939 11.974C742.887 11.9935 742.814 12.013 742.721 12.0325C742.628 12.0542 742.51 12.065 742.367 12.065C742.15 12.065 741.938 12.0184 741.73 11.9252C741.524 11.8321 741.353 11.6902 741.216 11.4995C741.082 11.3088 741.015 11.0683 741.015 10.778V5.812ZM745.47 12.117C745.154 12.117 744.867 12.0574 744.609 11.9383C744.351 11.8169 744.147 11.6425 743.995 11.415C743.843 11.1853 743.767 10.908 743.767 10.583C743.767 10.297 743.824 10.0652 743.936 9.8875C744.049 9.70767 744.2 9.56683 744.388 9.465C744.577 9.36317 744.785 9.28733 745.012 9.2375C745.242 9.1855 745.473 9.14433 745.704 9.114C746.008 9.075 746.254 9.04575 746.442 9.02625C746.633 9.00458 746.771 8.96883 746.858 8.919C746.947 8.86917 746.991 8.7825 746.991 8.659V8.633C746.991 8.31233 746.904 8.06317 746.728 7.8855C746.555 7.70783 746.292 7.619 745.938 7.619C745.572 7.619 745.285 7.69917 745.077 7.8595C744.869 8.01983 744.723 8.191 744.638 8.373L743.91 8.113C744.04 7.80967 744.214 7.5735 744.43 7.4045C744.649 7.23333 744.888 7.11417 745.145 7.047C745.405 6.97767 745.661 6.943 745.912 6.943C746.073 6.943 746.257 6.9625 746.465 7.0015C746.675 7.03833 746.878 7.11525 747.073 7.23225C747.27 7.34925 747.433 7.52583 747.563 7.762C747.693 7.99817 747.758 8.3145 747.758 8.711V12H746.991V11.324H746.952C746.9 11.4323 746.814 11.5483 746.692 11.6718C746.571 11.7953 746.41 11.9003 746.208 11.987C746.007 12.0737 745.761 12.117 745.47 12.117ZM745.587 11.428C745.891 11.428 746.146 11.3684 746.354 11.2493C746.565 11.1301 746.723 10.9763 746.829 10.7878C746.937 10.5993 746.991 10.401 746.991 10.193V9.491C746.959 9.53 746.887 9.56575 746.777 9.59825C746.669 9.62858 746.543 9.65567 746.4 9.6795C746.259 9.70117 746.121 9.72067 745.987 9.738C745.855 9.75317 745.748 9.76617 745.665 9.777C745.466 9.803 745.28 9.84525 745.106 9.90375C744.935 9.96008 744.797 10.0457 744.69 10.1605C744.586 10.2732 744.534 10.427 744.534 10.622C744.534 10.8885 744.633 11.09 744.83 11.2265C745.029 11.3608 745.282 11.428 745.587 11.428ZM751.186 12.104C750.718 12.104 750.315 11.9935 749.977 11.7725C749.639 11.5515 749.379 11.2471 749.197 10.8593C749.015 10.4714 748.924 10.0283 748.924 9.53C748.924 9.023 749.017 8.57558 749.204 8.18775C749.392 7.79775 749.654 7.49333 749.99 7.2745C750.328 7.0535 750.723 6.943 751.173 6.943C751.524 6.943 751.841 7.008 752.122 7.138C752.404 7.268 752.635 7.45 752.815 7.684C752.994 7.918 753.106 8.191 753.149 8.503H752.382C752.324 8.2755 752.194 8.074 751.992 7.8985C751.793 7.72083 751.524 7.632 751.186 7.632C750.887 7.632 750.625 7.71 750.4 7.866C750.177 8.01983 750.002 8.23758 749.877 8.51925C749.753 8.79875 749.691 9.127 749.691 9.504C749.691 9.88967 749.752 10.2255 749.873 10.5115C749.997 10.7975 750.17 11.0196 750.393 11.1778C750.619 11.3359 750.883 11.415 751.186 11.415C751.386 11.415 751.567 11.3803 751.729 11.311C751.892 11.2417 752.029 11.142 752.142 11.012C752.254 10.882 752.335 10.726 752.382 10.544H753.149C753.106 10.8387 752.999 11.1041 752.828 11.3403C752.659 11.5743 752.434 11.7606 752.155 11.8992C751.877 12.0357 751.555 12.104 751.186 12.104ZM756.442 7.008V7.658H753.855V7.008H756.442ZM754.609 5.812H755.376V10.57C755.376 10.7867 755.407 10.9492 755.47 11.0575C755.535 11.1637 755.617 11.2352 755.717 11.272C755.819 11.3067 755.926 11.324 756.039 11.324C756.123 11.324 756.192 11.3197 756.247 11.311C756.301 11.3002 756.344 11.2915 756.377 11.285L756.533 11.974C756.481 11.9935 756.408 12.013 756.315 12.0325C756.222 12.0542 756.104 12.065 755.961 12.065C755.744 12.065 755.532 12.0184 755.324 11.9252C755.118 11.8321 754.947 11.6902 754.81 11.4995C754.676 11.3088 754.609 11.0683 754.609 10.778V5.812ZM762.327 12H760.273V5.344H762.418C763.064 5.344 763.616 5.47725 764.076 5.74375C764.535 6.00808 764.887 6.38833 765.132 6.8845C765.377 7.3785 765.499 7.97 765.499 8.659C765.499 9.35233 765.376 9.94925 765.129 10.4498C764.882 10.9481 764.522 11.3316 764.05 11.6002C763.577 11.8667 763.003 12 762.327 12ZM761.079 11.285H762.275C762.826 11.285 763.282 11.1788 763.644 10.9665C764.005 10.7542 764.275 10.4519 764.453 10.0598C764.63 9.66758 764.719 9.20067 764.719 8.659C764.719 8.12167 764.632 7.65908 764.456 7.27125C764.281 6.88125 764.018 6.58225 763.67 6.37425C763.321 6.16408 762.886 6.059 762.366 6.059H761.079V11.285ZM768.84 12.104C768.359 12.104 767.944 11.9978 767.596 11.7855C767.249 11.571 766.981 11.272 766.793 10.8885C766.606 10.5028 766.513 10.0543 766.513 9.543C766.513 9.03167 766.606 8.581 766.793 8.191C766.981 7.79883 767.243 7.49333 767.579 7.2745C767.917 7.0535 768.312 6.943 768.762 6.943C769.022 6.943 769.279 6.98633 769.533 7.073C769.786 7.15967 770.017 7.3005 770.225 7.4955C770.433 7.68833 770.599 7.944 770.722 8.2625C770.846 8.581 770.907 8.97317 770.907 9.439V9.764H767.059V9.101H770.127C770.127 8.81933 770.071 8.568 769.958 8.347C769.848 8.126 769.69 7.95158 769.484 7.82375C769.28 7.69592 769.04 7.632 768.762 7.632C768.457 7.632 768.192 7.70783 767.969 7.8595C767.748 8.009 767.578 8.204 767.459 8.4445C767.34 8.685 767.28 8.94283 767.28 9.218V9.66C767.28 10.037 767.345 10.3566 767.475 10.6188C767.607 10.8788 767.791 11.077 768.025 11.2135C768.259 11.3478 768.53 11.415 768.84 11.415C769.042 11.415 769.224 11.3868 769.386 11.3305C769.551 11.272 769.693 11.1853 769.812 11.0705C769.931 10.9535 770.023 10.8083 770.088 10.635L770.829 10.843C770.751 11.0943 770.62 11.3153 770.436 11.506C770.252 11.6945 770.024 11.8418 769.754 11.948C769.483 12.052 769.178 12.104 768.84 12.104ZM774.245 7.008V7.658H771.658V7.008H774.245ZM772.412 5.812H773.179V10.57C773.179 10.7867 773.21 10.9492 773.273 11.0575C773.338 11.1637 773.421 11.2352 773.52 11.272C773.622 11.3067 773.729 11.324 773.842 11.324C773.927 11.324 773.996 11.3197 774.05 11.311C774.104 11.3002 774.148 11.2915 774.18 11.285L774.336 11.974C774.284 11.9935 774.211 12.013 774.118 12.0325C774.025 12.0542 773.907 12.065 773.764 12.065C773.547 12.065 773.335 12.0184 773.127 11.9252C772.921 11.8321 772.75 11.6902 772.614 11.4995C772.479 11.3088 772.412 11.0683 772.412 10.778V5.812ZM776.868 12.117C776.551 12.117 776.264 12.0574 776.007 11.9383C775.749 11.8169 775.544 11.6425 775.392 11.415C775.241 11.1853 775.165 10.908 775.165 10.583C775.165 10.297 775.221 10.0652 775.334 9.8875C775.446 9.70767 775.597 9.56683 775.786 9.465C775.974 9.36317 776.182 9.28733 776.41 9.2375C776.639 9.1855 776.87 9.14433 777.102 9.114C777.405 9.075 777.651 9.04575 777.84 9.02625C778.03 9.00458 778.169 8.96883 778.256 8.919C778.344 8.86917 778.389 8.7825 778.389 8.659V8.633C778.389 8.31233 778.301 8.06317 778.126 7.8855C777.952 7.70783 777.689 7.619 777.336 7.619C776.97 7.619 776.683 7.69917 776.475 7.8595C776.267 8.01983 776.12 8.191 776.036 8.373L775.308 8.113C775.438 7.80967 775.611 7.5735 775.828 7.4045C776.047 7.23333 776.285 7.11417 776.543 7.047C776.803 6.97767 777.058 6.943 777.31 6.943C777.47 6.943 777.654 6.9625 777.862 7.0015C778.072 7.03833 778.275 7.11525 778.47 7.23225C778.667 7.34925 778.831 7.52583 778.961 7.762C779.091 7.99817 779.156 8.3145 779.156 8.711V12H778.389V11.324H778.35C778.298 11.4323 778.211 11.5483 778.09 11.6718C777.968 11.7953 777.807 11.9003 777.606 11.987C777.404 12.0737 777.158 12.117 776.868 12.117ZM776.985 11.428C777.288 11.428 777.544 11.3684 777.752 11.2493C777.962 11.1301 778.12 10.9763 778.226 10.7878C778.335 10.5993 778.389 10.401 778.389 10.193V9.491C778.356 9.53 778.285 9.56575 778.174 9.59825C778.066 9.62858 777.94 9.65567 777.797 9.6795C777.656 9.70117 777.519 9.72067 777.385 9.738C777.252 9.75317 777.145 9.76617 777.063 9.777C776.863 9.803 776.677 9.84525 776.504 9.90375C776.333 9.96008 776.194 10.0457 776.088 10.1605C775.984 10.2732 775.932 10.427 775.932 10.622C775.932 10.8885 776.03 11.09 776.228 11.2265C776.427 11.3608 776.679 11.428 776.985 11.428ZM780.556 12V7.008H781.323V12H780.556ZM780.946 6.176C780.796 6.176 780.667 6.12508 780.559 6.02325C780.453 5.92142 780.4 5.799 780.4 5.656C780.4 5.513 780.453 5.39058 780.559 5.28875C780.667 5.18692 780.796 5.136 780.946 5.136C781.095 5.136 781.223 5.18692 781.329 5.28875C781.438 5.39058 781.492 5.513 781.492 5.656C781.492 5.799 781.438 5.92142 781.329 6.02325C781.223 6.12508 781.095 6.176 780.946 6.176ZM783.495 5.344V12H782.728V5.344H783.495ZM788.435 8.126L787.746 8.321C787.703 8.20617 787.639 8.09458 787.555 7.98625C787.472 7.87575 787.36 7.78475 787.217 7.71325C787.074 7.64175 786.891 7.606 786.667 7.606C786.362 7.606 786.107 7.67642 785.904 7.81725C785.702 7.95592 785.601 8.1325 785.601 8.347C785.601 8.53767 785.671 8.68825 785.809 8.79875C785.948 8.90925 786.165 9.00133 786.459 9.075L787.2 9.257C787.647 9.36533 787.979 9.53108 788.198 9.75425C788.417 9.97525 788.526 10.2602 788.526 10.609C788.526 10.895 788.444 11.1507 788.279 11.376C788.117 11.6013 787.889 11.779 787.597 11.909C787.304 12.039 786.964 12.104 786.576 12.104C786.067 12.104 785.646 11.9935 785.312 11.7725C784.978 11.5515 784.767 11.2287 784.678 10.804L785.406 10.622C785.476 10.8907 785.607 11.0922 785.8 11.2265C785.995 11.3608 786.249 11.428 786.563 11.428C786.921 11.428 787.205 11.3522 787.415 11.2005C787.627 11.0467 787.733 10.8625 787.733 10.648C787.733 10.4747 787.673 10.3295 787.551 10.2125C787.43 10.0933 787.244 10.0045 786.992 9.946L786.16 9.751C785.703 9.64267 785.367 9.47475 785.153 9.24725C784.941 9.01758 784.834 8.7305 784.834 8.386C784.834 8.10433 784.913 7.85517 785.072 7.6385C785.232 7.42183 785.45 7.25175 785.725 7.12825C786.002 7.00475 786.316 6.943 786.667 6.943C787.161 6.943 787.549 7.05133 787.831 7.268C788.115 7.48467 788.316 7.77067 788.435 8.126Z" fill="#25C9BA"/>
</g>
<g opacity="0.7">
<g clip-path="url(#clip1_280_163)">
<path d="M805.456 7.14402H805V5.08002H807.176V5.53602H805.456V7.14402Z" fill="#25C9BA"/>
<path d="M812.745 7.14402H812.289V5.53602H810.721V5.08002H812.745V7.14402Z" fill="#25C9BA"/>
<path d="M807.176 12.9194H805V10.8554H805.456V12.4634H807.176V12.9194Z" fill="#25C9BA"/>
<path d="M812.745 12.9194H810.721V12.4634H812.289V10.8554H812.745V12.9194Z" fill="#25C9BA"/>
</g>
<path d="M821.19 7.008C821.151 6.67867 820.993 6.423 820.715 6.241C820.438 6.059 820.098 5.968 819.695 5.968C819.4 5.968 819.142 6.01567 818.921 6.111C818.703 6.20633 818.531 6.33742 818.408 6.50425C818.287 6.67108 818.226 6.86067 818.226 7.073C818.226 7.25067 818.268 7.40342 818.353 7.53125C818.439 7.65692 818.55 7.762 818.684 7.8465C818.818 7.92883 818.959 7.99708 819.107 8.05125C819.254 8.10325 819.389 8.1455 819.513 8.178L820.189 8.36C820.362 8.4055 820.555 8.46833 820.767 8.5485C820.982 8.62867 821.187 8.73808 821.382 8.87675C821.579 9.01325 821.741 9.18875 821.869 9.40325C821.997 9.61775 822.061 9.881 822.061 10.193C822.061 10.5527 821.967 10.8777 821.778 11.168C821.592 11.4583 821.319 11.6891 820.959 11.8603C820.602 12.0314 820.167 12.117 819.656 12.117C819.179 12.117 818.766 12.0401 818.418 11.8863C818.071 11.7324 817.798 11.5179 817.599 11.2428C817.401 10.9676 817.29 10.648 817.264 10.284H818.096C818.118 10.5353 818.202 10.7433 818.349 10.908C818.499 11.0705 818.687 11.1918 818.915 11.272C819.145 11.35 819.392 11.389 819.656 11.389C819.964 11.389 820.24 11.3392 820.485 11.2395C820.729 11.1377 820.923 10.9968 821.066 10.817C821.209 10.635 821.281 10.4227 821.281 10.18C821.281 9.959 821.219 9.77917 821.096 9.6405C820.972 9.50183 820.81 9.38917 820.608 9.3025C820.407 9.21583 820.189 9.14 819.955 9.075L819.136 8.841C818.616 8.6915 818.204 8.47808 817.901 8.20075C817.598 7.92342 817.446 7.5605 817.446 7.112C817.446 6.73933 817.547 6.41433 817.748 6.137C817.952 5.8575 818.225 5.64083 818.567 5.487C818.912 5.331 819.296 5.253 819.721 5.253C820.15 5.253 820.531 5.32992 820.865 5.48375C821.199 5.63542 821.463 5.84342 821.658 6.10775C821.855 6.37208 821.959 6.67217 821.97 7.008H821.19ZM824.049 8.997V12H823.282V5.344H824.049V7.788H824.114C824.231 7.53017 824.407 7.32542 824.641 7.17375C824.877 7.01992 825.191 6.943 825.583 6.943C825.923 6.943 826.221 7.01125 826.477 7.14775C826.733 7.28208 826.931 7.489 827.072 7.7685C827.215 8.04583 827.286 8.399 827.286 8.828V12H826.519V8.88C826.519 8.4835 826.416 8.17692 826.21 7.96025C826.007 7.74142 825.724 7.632 825.362 7.632C825.111 7.632 824.885 7.68508 824.686 7.79125C824.489 7.89742 824.333 8.05233 824.218 8.256C824.105 8.45967 824.049 8.70667 824.049 8.997ZM830.717 12.104C830.267 12.104 829.871 11.9967 829.531 11.7822C829.193 11.5677 828.929 11.2677 828.738 10.882C828.55 10.4963 828.455 10.0457 828.455 9.53C828.455 9.01 828.55 8.55608 828.738 8.16825C828.929 7.78042 829.193 7.47925 829.531 7.26475C829.871 7.05025 830.267 6.943 830.717 6.943C831.168 6.943 831.562 7.05025 831.9 7.26475C832.24 7.47925 832.505 7.78042 832.693 8.16825C832.884 8.55608 832.979 9.01 832.979 9.53C832.979 10.0457 832.884 10.4963 832.693 10.882C832.505 11.2677 832.24 11.5677 831.9 11.7822C831.562 11.9967 831.168 12.104 830.717 12.104ZM830.717 11.415C831.06 11.415 831.341 11.3273 831.562 11.1518C831.783 10.9763 831.947 10.7455 832.053 10.4595C832.159 10.1735 832.212 9.86367 832.212 9.53C832.212 9.19633 832.159 8.88542 832.053 8.59725C831.947 8.30908 831.783 8.07617 831.562 7.8985C831.341 7.72083 831.06 7.632 830.717 7.632C830.375 7.632 830.093 7.72083 829.872 7.8985C829.651 8.07617 829.488 8.30908 829.382 8.59725C829.275 8.88542 829.222 9.19633 829.222 9.53C829.222 9.86367 829.275 10.1735 829.382 10.4595C829.488 10.7455 829.651 10.9763 829.872 11.1518C830.093 11.3273 830.375 11.415 830.717 11.415ZM835.111 12L833.59 7.008H834.396L835.475 10.83H835.527L836.593 7.008H837.412L838.465 10.817H838.517L839.596 7.008H840.402L838.881 12H838.127L837.035 8.165H836.957L835.865 12H835.111ZM844.367 12H843.522L845.966 5.344H846.798L849.242 12H848.397L846.408 6.397H846.356L844.367 12ZM844.679 9.4H848.085V10.115H844.679V9.4ZM850.942 5.344V12H850.175V5.344H850.942ZM853.114 5.344V12H852.347V5.344H853.114ZM862.553 7.424H861.747C861.699 7.19217 861.616 6.9885 861.496 6.813C861.379 6.6375 861.236 6.49017 861.067 6.371C860.901 6.24967 860.715 6.15867 860.512 6.098C860.308 6.03733 860.096 6.007 859.875 6.007C859.472 6.007 859.107 6.10883 858.779 6.3125C858.454 6.51617 858.195 6.81625 858.003 7.21275C857.812 7.60925 857.717 8.09567 857.717 8.672C857.717 9.24833 857.812 9.73475 858.003 10.1313C858.195 10.5278 858.454 10.8278 858.779 11.0315C859.107 11.2352 859.472 11.337 859.875 11.337C860.096 11.337 860.308 11.3067 860.512 11.246C860.715 11.1853 860.901 11.0954 861.067 10.9763C861.236 10.8549 861.379 10.7065 861.496 10.531C861.616 10.3533 861.699 10.1497 861.747 9.92H862.553C862.492 10.2602 862.381 10.5646 862.221 10.8333C862.061 11.1019 861.861 11.3305 861.623 11.519C861.385 11.7053 861.117 11.8472 860.82 11.9448C860.526 12.0422 860.21 12.091 859.875 12.091C859.307 12.091 858.802 11.9523 858.36 11.675C857.918 11.3977 857.57 11.0033 857.317 10.492C857.063 9.98067 856.937 9.374 856.937 8.672C856.937 7.97 857.063 7.36333 857.317 6.852C857.57 6.34067 857.918 5.94633 858.36 5.669C858.802 5.39167 859.307 5.253 859.875 5.253C860.21 5.253 860.526 5.30175 860.82 5.39925C861.117 5.49675 861.385 5.63975 861.623 5.82825C861.861 6.01458 862.061 6.24208 862.221 6.51075C862.381 6.77725 862.492 7.08167 862.553 7.424ZM865.779 12.104C865.328 12.104 864.933 11.9967 864.593 11.7822C864.255 11.5677 863.99 11.2677 863.8 10.882C863.611 10.4963 863.517 10.0457 863.517 9.53C863.517 9.01 863.611 8.55608 863.8 8.16825C863.99 7.78042 864.255 7.47925 864.593 7.26475C864.933 7.05025 865.328 6.943 865.779 6.943C866.23 6.943 866.624 7.05025 866.962 7.26475C867.302 7.47925 867.567 7.78042 867.755 8.16825C867.946 8.55608 868.041 9.01 868.041 9.53C868.041 10.0457 867.946 10.4963 867.755 10.882C867.567 11.2677 867.302 11.5677 866.962 11.7822C866.624 11.9967 866.23 12.104 865.779 12.104ZM865.779 11.415C866.121 11.415 866.403 11.3273 866.624 11.1518C866.845 10.9763 867.009 10.7455 867.115 10.4595C867.221 10.1735 867.274 9.86367 867.274 9.53C867.274 9.19633 867.221 8.88542 867.115 8.59725C867.009 8.30908 866.845 8.07617 866.624 7.8985C866.403 7.72083 866.121 7.632 865.779 7.632C865.437 7.632 865.155 7.72083 864.934 7.8985C864.713 8.07617 864.549 8.30908 864.443 8.59725C864.337 8.88542 864.284 9.19633 864.284 9.53C864.284 9.86367 864.337 10.1735 864.443 10.4595C864.549 10.7455 864.713 10.9763 864.934 11.1518C865.155 11.3273 865.437 11.415 865.779 11.415ZM869.979 8.997V12H869.212V7.008H869.953V7.788H870.018C870.135 7.5345 870.313 7.33083 870.551 7.177C870.789 7.021 871.097 6.943 871.474 6.943C871.812 6.943 872.108 7.01233 872.361 7.151C872.615 7.2875 872.812 7.4955 872.953 7.775C873.093 8.05233 873.164 8.40333 873.164 8.828V12H872.397V8.88C872.397 8.48783 872.295 8.18233 872.091 7.9635C871.888 7.7425 871.608 7.632 871.253 7.632C871.008 7.632 870.789 7.68508 870.596 7.79125C870.406 7.89742 870.255 8.05233 870.145 8.256C870.034 8.45967 869.979 8.70667 869.979 8.997ZM876.736 7.008V7.658H874.149V7.008H876.736ZM874.903 5.812H875.67V10.57C875.67 10.7867 875.702 10.9492 875.765 11.0575C875.83 11.1637 875.912 11.2352 876.012 11.272C876.114 11.3067 876.221 11.324 876.333 11.324C876.418 11.324 876.487 11.3197 876.541 11.311C876.596 11.3002 876.639 11.2915 876.671 11.285L876.827 11.974C876.775 11.9935 876.703 12.013 876.61 12.0325C876.517 12.0542 876.398 12.065 876.255 12.065C876.039 12.065 875.826 12.0184 875.618 11.9252C875.413 11.8321 875.241 11.6902 875.105 11.4995C874.971 11.3088 874.903 11.0683 874.903 10.778V5.812ZM879.359 12.117C879.043 12.117 878.756 12.0574 878.498 11.9383C878.24 11.8169 878.035 11.6425 877.884 11.415C877.732 11.1853 877.656 10.908 877.656 10.583C877.656 10.297 877.713 10.0652 877.825 9.8875C877.938 9.70767 878.088 9.56683 878.277 9.465C878.465 9.36317 878.673 9.28733 878.901 9.2375C879.131 9.1855 879.361 9.14433 879.593 9.114C879.897 9.075 880.142 9.04575 880.331 9.02625C880.522 9.00458 880.66 8.96883 880.747 8.919C880.836 8.86917 880.88 8.7825 880.88 8.659V8.633C880.88 8.31233 880.792 8.06317 880.617 7.8855C880.444 7.70783 880.18 7.619 879.827 7.619C879.461 7.619 879.174 7.69917 878.966 7.8595C878.758 8.01983 878.612 8.191 878.527 8.373L877.799 8.113C877.929 7.80967 878.103 7.5735 878.319 7.4045C878.538 7.23333 878.776 7.11417 879.034 7.047C879.294 6.97767 879.55 6.943 879.801 6.943C879.962 6.943 880.146 6.9625 880.354 7.0015C880.564 7.03833 880.766 7.11525 880.961 7.23225C881.159 7.34925 881.322 7.52583 881.452 7.762C881.582 7.99817 881.647 8.3145 881.647 8.711V12H880.88V11.324H880.841C880.789 11.4323 880.703 11.5483 880.581 11.6718C880.46 11.7953 880.298 11.9003 880.097 11.987C879.895 12.0737 879.65 12.117 879.359 12.117ZM879.476 11.428C879.78 11.428 880.035 11.3684 880.243 11.2493C880.453 11.1301 880.612 10.9763 880.718 10.7878C880.826 10.5993 880.88 10.401 880.88 10.193V9.491C880.848 9.53 880.776 9.56575 880.666 9.59825C880.557 9.62858 880.432 9.65567 880.289 9.6795C880.148 9.70117 880.01 9.72067 879.876 9.738C879.744 9.75317 879.637 9.76617 879.554 9.777C879.355 9.803 879.169 9.84525 878.995 9.90375C878.824 9.96008 878.685 10.0457 878.579 10.1605C878.475 10.2732 878.423 10.427 878.423 10.622C878.423 10.8885 878.522 11.09 878.719 11.2265C878.918 11.3608 879.171 11.428 879.476 11.428ZM885.075 12.104C884.607 12.104 884.204 11.9935 883.866 11.7725C883.528 11.5515 883.268 11.2471 883.086 10.8593C882.904 10.4714 882.813 10.0283 882.813 9.53C882.813 9.023 882.906 8.57558 883.093 8.18775C883.281 7.79775 883.543 7.49333 883.879 7.2745C884.217 7.0535 884.611 6.943 885.062 6.943C885.413 6.943 885.729 7.008 886.011 7.138C886.293 7.268 886.524 7.45 886.703 7.684C886.883 7.918 886.995 8.191 887.038 8.503H886.271C886.213 8.2755 886.083 8.074 885.881 7.8985C885.682 7.72083 885.413 7.632 885.075 7.632C884.776 7.632 884.514 7.71 884.289 7.866C884.065 8.01983 883.891 8.23758 883.765 8.51925C883.642 8.79875 883.58 9.127 883.58 9.504C883.58 9.88967 883.641 10.2255 883.762 10.5115C883.886 10.7975 884.059 11.0196 884.282 11.1778C884.507 11.3359 884.772 11.415 885.075 11.415C885.274 11.415 885.455 11.3803 885.618 11.311C885.78 11.2417 885.918 11.142 886.031 11.012C886.143 10.882 886.223 10.726 886.271 10.544H887.038C886.995 10.8387 886.888 11.1041 886.716 11.3403C886.547 11.5743 886.323 11.7606 886.044 11.8992C885.766 12.0357 885.443 12.104 885.075 12.104ZM890.33 7.008V7.658H887.743V7.008H890.33ZM888.497 5.812H889.264V10.57C889.264 10.7867 889.296 10.9492 889.359 11.0575C889.424 11.1637 889.506 11.2352 889.606 11.272C889.707 11.3067 889.815 11.324 889.927 11.324C890.012 11.324 890.081 11.3197 890.135 11.311C890.19 11.3002 890.233 11.2915 890.265 11.285L890.421 11.974C890.369 11.9935 890.297 12.013 890.204 12.0325C890.11 12.0542 889.992 12.065 889.849 12.065C889.633 12.065 889.42 12.0184 889.212 11.9252C889.007 11.8321 888.835 11.6902 888.699 11.4995C888.565 11.3088 888.497 11.0683 888.497 10.778V5.812ZM894.931 8.126L894.242 8.321C894.198 8.20617 894.135 8.09458 894.05 7.98625C893.968 7.87575 893.855 7.78475 893.712 7.71325C893.569 7.64175 893.386 7.606 893.163 7.606C892.857 7.606 892.603 7.67642 892.399 7.81725C892.198 7.95592 892.097 8.1325 892.097 8.347C892.097 8.53767 892.166 8.68825 892.305 8.79875C892.443 8.90925 892.66 9.00133 892.955 9.075L893.696 9.257C894.142 9.36533 894.475 9.53108 894.694 9.75425C894.912 9.97525 895.022 10.2602 895.022 10.609C895.022 10.895 894.939 11.1507 894.775 11.376C894.612 11.6013 894.385 11.779 894.092 11.909C893.8 12.039 893.46 12.104 893.072 12.104C892.563 12.104 892.141 11.9935 891.808 11.7725C891.474 11.5515 891.263 11.2287 891.174 10.804L891.902 10.622C891.971 10.8907 892.102 11.0922 892.295 11.2265C892.49 11.3608 892.745 11.428 893.059 11.428C893.416 11.428 893.7 11.3522 893.91 11.2005C894.123 11.0467 894.229 10.8625 894.229 10.648C894.229 10.4747 894.168 10.3295 894.047 10.2125C893.925 10.0933 893.739 10.0045 893.488 9.946L892.656 9.751C892.199 9.64267 891.863 9.47475 891.648 9.24725C891.436 9.01758 891.33 8.7305 891.33 8.386C891.33 8.10433 891.409 7.85517 891.567 7.6385C891.727 7.42183 891.945 7.25175 892.22 7.12825C892.498 7.00475 892.812 6.943 893.163 6.943C893.657 6.943 894.045 7.05133 894.326 7.268C894.61 7.48467 894.812 7.77067 894.931 8.126Z" fill="#25C9BA"/>
</g>
<rect y="26.9277" width="419.661" height="29.952" rx="2.6624" fill="#FAFAFA" fill-opacity="0.1"/>
<path d="M11.5875 45.9037V38.1586H16.2316V38.9906H12.5254V41.6076H15.8837V42.4396H12.5254V45.9037H11.5875ZM17.7169 45.9037V40.0949H18.6094V45.9037H17.7169ZM18.1707 39.1267C17.9968 39.1267 17.8468 39.0675 17.7207 38.949C17.5972 38.8305 17.5354 38.688 17.5354 38.5216C17.5354 38.3552 17.5972 38.2128 17.7207 38.0943C17.8468 37.9758 17.9968 37.9165 18.1707 37.9165C18.3447 37.9165 18.4935 37.9758 18.617 38.0943C18.7431 38.2128 18.8061 38.3552 18.8061 38.5216C18.8061 38.688 18.7431 38.8305 18.617 38.949C18.4935 39.0675 18.3447 39.1267 18.1707 39.1267ZM20.2441 38.1586H21.1366V44.391C21.1366 44.6734 21.1682 44.8713 21.2312 44.9848C21.2942 45.0982 21.4241 45.1524 21.6207 45.1474C21.7266 45.1423 21.8048 45.1348 21.8552 45.1247C21.9081 45.1121 21.956 45.0995 21.9989 45.0869L22.1804 45.8584C22.1023 45.8811 22.0039 45.9012 21.8854 45.9189C21.7669 45.939 21.6434 45.9491 21.5148 45.9491C21.0913 45.9491 20.7736 45.8332 20.5618 45.6012C20.35 45.3693 20.2441 45.0465 20.2441 44.6331V38.1586ZM25.5264 40.0949V40.8512H22.5161V40.0949H25.5264ZM23.3934 38.7032H24.2859V44.2397C24.2859 44.4919 24.3225 44.681 24.3956 44.807C24.4713 44.9306 24.5671 45.0138 24.683 45.0566C24.8015 45.097 24.9263 45.1171 25.0574 45.1171C25.1558 45.1171 25.2364 45.1121 25.2995 45.102C25.3625 45.0894 25.4129 45.0793 25.4507 45.0717L25.6323 45.8735C25.5718 45.8962 25.4873 45.9189 25.3789 45.9416C25.2705 45.9668 25.1331 45.9794 24.9667 45.9794C24.7146 45.9794 24.4675 45.9252 24.2254 45.8168C23.9859 45.7084 23.7867 45.5432 23.6279 45.3213C23.4716 45.0995 23.3934 44.8196 23.3934 44.4818V38.7032ZM29.242 46.0248C28.6823 46.0248 28.1995 45.9012 27.7936 45.6541C27.3902 45.4045 27.0788 45.0566 26.8595 44.6104C26.6427 44.1616 26.5342 43.6397 26.5342 43.0447C26.5342 42.4497 26.6427 41.9253 26.8595 41.4715C27.0788 41.0151 27.3839 40.6596 27.7747 40.405C28.168 40.1478 28.6268 40.0192 29.1513 40.0192C29.4538 40.0192 29.7526 40.0697 30.0475 40.1705C30.3425 40.2714 30.611 40.4352 30.8531 40.6621C31.0951 40.8865 31.288 41.184 31.4317 41.5547C31.5754 41.9253 31.6473 42.3816 31.6473 42.9237V43.3019H27.1696V42.5304H30.7396C30.7396 42.2026 30.6741 41.9101 30.543 41.653C30.4144 41.3958 30.2303 41.1929 29.9908 41.0441C29.7538 40.8954 29.474 40.821 29.1513 40.821C28.7958 40.821 28.4882 40.9092 28.2285 41.0857C27.9713 41.2597 27.7734 41.4866 27.6347 41.7664C27.4961 42.0463 27.4267 42.3463 27.4267 42.6665V43.1808C27.4267 43.6195 27.5024 43.9914 27.6537 44.2965C27.8075 44.599 28.0205 44.8297 28.2928 44.9885C28.5651 45.1449 28.8815 45.223 29.242 45.223C29.4765 45.223 29.6883 45.1902 29.8774 45.1247C30.069 45.0566 30.2341 44.9558 30.3728 44.8221C30.5115 44.686 30.6186 44.5171 30.6942 44.3154L31.5565 44.5574C31.4657 44.8499 31.3132 45.107 31.0989 45.3289C30.8846 45.5483 30.6199 45.7197 30.3047 45.8432C29.9896 45.9643 29.6353 46.0248 29.242 46.0248ZM33.0049 45.9037V40.0949H33.8672V40.9723H33.9277C34.0311 40.6848 34.2214 40.4516 34.4987 40.2726C34.7761 40.0936 35.09 40.0041 35.4404 40.0041C35.6018 40.0041 35.743 40.023 35.864 40.0608C35.985 40.0987 36.0909 40.1503 36.1817 40.2159L35.8791 40.9723C35.8161 40.9395 35.7417 40.9143 35.656 40.8966C35.5728 40.8765 35.4757 40.8664 35.3648 40.8664C35.0824 40.8664 34.8303 40.9256 34.6084 41.0441C34.3891 41.1626 34.2151 41.324 34.0865 41.5282C33.9605 41.7324 33.8974 41.9656 33.8974 42.2278V45.9037H33.0049ZM40.0873 45.9037V40.0949H40.9496V40.9723H41.0101C41.1135 40.6848 41.3038 40.4516 41.5811 40.2726C41.8585 40.0936 42.1724 40.0041 42.5228 40.0041C42.6842 40.0041 42.8254 40.023 42.9464 40.0608C43.0674 40.0987 43.1733 40.1503 43.2641 40.2159L42.9615 40.9723C42.8985 40.9395 42.8241 40.9143 42.7384 40.8966C42.6552 40.8765 42.5581 40.8664 42.4472 40.8664C42.1648 40.8664 41.9127 40.9256 41.6908 41.0441C41.4715 41.1626 41.2975 41.324 41.1689 41.5282C41.0429 41.7324 40.9798 41.9656 40.9798 42.2278V45.9037H40.0873ZM46.4332 46.0248C45.8735 46.0248 45.3907 45.9012 44.9848 45.6541C44.5814 45.4045 44.27 45.0566 44.0507 44.6104C43.8339 44.1616 43.7254 43.6397 43.7254 43.0447C43.7254 42.4497 43.8339 41.9253 44.0507 41.4715C44.27 41.0151 44.5751 40.6596 44.9659 40.405C45.3592 40.1478 45.818 40.0192 46.3425 40.0192C46.645 40.0192 46.9438 40.0697 47.2387 40.1705C47.5337 40.2714 47.8022 40.4352 48.0443 40.6621C48.2863 40.8865 48.4792 41.184 48.6229 41.5547C48.7666 41.9253 48.8385 42.3816 48.8385 42.9237V43.3019H44.3608V42.5304H47.9308C47.9308 42.2026 47.8653 41.9101 47.7342 41.653C47.6056 41.3958 47.4215 41.1929 47.182 41.0441C46.945 40.8954 46.6652 40.821 46.3425 40.821C45.987 40.821 45.6794 40.9092 45.4197 41.0857C45.1625 41.2597 44.9646 41.4866 44.8259 41.7664C44.6873 42.0463 44.6179 42.3463 44.6179 42.6665V43.1808C44.6179 43.6195 44.6936 43.9914 44.8449 44.2965C44.9987 44.599 45.2117 44.8297 45.484 44.9885C45.7563 45.1449 46.0727 45.223 46.4332 45.223C46.6677 45.223 46.8795 45.1902 47.0686 45.1247C47.2602 45.0566 47.4253 44.9558 47.564 44.8221C47.7027 44.686 47.8098 44.5171 47.8854 44.3154L48.7477 44.5574C48.6569 44.8499 48.5044 45.107 48.2901 45.3289C48.0758 45.5483 47.8111 45.7197 47.4959 45.8432C47.1808 45.9643 46.8265 46.0248 46.4332 46.0248ZM54.3107 41.3958L53.509 41.6227C53.4586 41.4891 53.3842 41.3593 53.2859 41.2332C53.1901 41.1046 53.059 40.9987 52.8926 40.9155C52.7262 40.8323 52.5131 40.7907 52.2534 40.7907C51.8979 40.7907 51.6017 40.8727 51.3647 41.0365C51.1302 41.1979 51.013 41.4034 51.013 41.653C51.013 41.8749 51.0937 42.0501 51.255 42.1787C51.4164 42.3072 51.6685 42.4144 52.0114 42.5001L52.8737 42.7119C53.393 42.838 53.78 43.0308 54.0347 43.2905C54.2893 43.5477 54.4166 43.8792 54.4166 44.2851C54.4166 44.6179 54.3208 44.9154 54.1292 45.1776C53.9401 45.4398 53.6754 45.6466 53.335 45.7979C52.9947 45.9491 52.5988 46.0248 52.1475 46.0248C51.5551 46.0248 51.0647 45.8962 50.6764 45.639C50.2882 45.3819 50.0423 45.0062 49.939 44.512L50.7861 44.3003C50.8668 44.6129 51.0193 44.8474 51.2437 45.0037C51.4706 45.16 51.7668 45.2381 52.1324 45.2381C52.5484 45.2381 52.8787 45.1499 53.1233 44.9734C53.3703 44.7944 53.4939 44.5801 53.4939 44.3305C53.4939 44.1288 53.4233 43.9599 53.2821 43.8237C53.1409 43.6851 52.9241 43.5817 52.6316 43.5136L51.6635 43.2867C51.1315 43.1607 50.7407 42.9653 50.4911 42.7005C50.244 42.4333 50.1205 42.0992 50.1205 41.6984C50.1205 41.3706 50.2125 41.0807 50.3966 40.8285C50.5831 40.5764 50.8365 40.3785 51.1567 40.2348C51.4794 40.0911 51.845 40.0192 52.2534 40.0192C52.8283 40.0192 53.2796 40.1453 53.6073 40.3974C53.9376 40.6495 54.1721 40.9823 54.3107 41.3958ZM59.4209 43.5288V40.0949H60.3134V45.9037H59.4209V44.9205H59.3604C59.2243 45.2155 59.0125 45.4663 58.7251 45.6731C58.4377 45.8773 58.0746 45.9794 57.6359 45.9794C57.2729 45.9794 56.9501 45.9 56.6678 45.7411C56.3854 45.5798 56.1635 45.3377 56.0022 45.015C55.8408 44.6898 55.7601 44.2801 55.7601 43.7859V40.0949H56.6526V43.7254C56.6526 44.149 56.7711 44.4868 57.0081 44.7389C57.2476 44.9911 57.5527 45.1171 57.9233 45.1171C58.1452 45.1171 58.3708 45.0604 58.6003 44.9469C58.8322 44.8335 59.0264 44.6595 59.1827 44.4251C59.3415 44.1906 59.4209 43.8918 59.4209 43.5288ZM61.9481 38.1586H62.8406V44.391C62.8406 44.6734 62.8722 44.8713 62.9352 44.9848C62.9982 45.0982 63.1281 45.1524 63.3247 45.1474C63.4306 45.1423 63.5088 45.1348 63.5592 45.1247C63.6121 45.1121 63.66 45.0995 63.7029 45.0869L63.8844 45.8584C63.8063 45.8811 63.7079 45.9012 63.5894 45.9189C63.4709 45.939 63.3474 45.9491 63.2188 45.9491C62.7953 45.9491 62.4776 45.8332 62.2658 45.6012C62.054 45.3693 61.9481 45.0465 61.9481 44.6331V38.1586ZM67.2304 40.0949V40.8512H64.2201V40.0949H67.2304ZM65.0974 38.7032H65.99V44.2397C65.99 44.4919 66.0265 44.681 66.0996 44.807C66.1753 44.9306 66.2711 45.0138 66.387 45.0566C66.5055 45.097 66.6303 45.1171 66.7614 45.1171C66.8598 45.1171 66.9404 45.1121 67.0035 45.102C67.0665 45.0894 67.1169 45.0793 67.1548 45.0717L67.3363 45.8735C67.2758 45.8962 67.1913 45.9189 67.0829 45.9416C66.9745 45.9668 66.8371 45.9794 66.6707 45.9794C66.4186 45.9794 66.1715 45.9252 65.9294 45.8168C65.6899 45.7084 65.4908 45.5432 65.3319 45.3213C65.1756 45.0995 65.0974 44.8196 65.0974 44.4818V38.7032ZM72.5835 41.3958L71.7818 41.6227C71.7314 41.4891 71.657 41.3593 71.5587 41.2332C71.4629 41.1046 71.3318 40.9987 71.1654 40.9155C70.999 40.8323 70.7859 40.7907 70.5262 40.7907C70.1707 40.7907 69.8745 40.8727 69.6375 41.0365C69.403 41.1979 69.2858 41.4034 69.2858 41.653C69.2858 41.8749 69.3665 42.0501 69.5278 42.1787C69.6892 42.3072 69.9413 42.4144 70.2842 42.5001L71.1465 42.7119C71.6658 42.838 72.0528 43.0308 72.3075 43.2905C72.5621 43.5477 72.6894 43.8792 72.6894 44.2851C72.6894 44.6179 72.5936 44.9154 72.402 45.1776C72.2129 45.4398 71.9482 45.6466 71.6078 45.7979C71.2675 45.9491 70.8716 46.0248 70.4203 46.0248C69.8279 46.0248 69.3375 45.8962 68.9492 45.639C68.561 45.3819 68.3151 45.0062 68.2118 44.512L69.0589 44.3003C69.1396 44.6129 69.2921 44.8474 69.5165 45.0037C69.7434 45.16 70.0396 45.2381 70.4052 45.2381C70.8212 45.2381 71.1515 45.1499 71.3961 44.9734C71.6431 44.7944 71.7667 44.5801 71.7667 44.3305C71.7667 44.1288 71.6961 43.9599 71.5549 43.8237C71.4137 43.6851 71.1969 43.5817 70.9044 43.5136L69.9363 43.2867C69.4043 43.1607 69.0135 42.9653 68.7639 42.7005C68.5168 42.4333 68.3933 42.0992 68.3933 41.6984C68.3933 41.3706 68.4853 41.0807 68.6694 40.8285C68.8559 40.5764 69.1093 40.3785 69.4295 40.2348C69.7522 40.0911 70.1178 40.0192 70.5262 40.0192C71.1011 40.0192 71.5524 40.1453 71.8801 40.3974C72.2104 40.6495 72.4449 40.9823 72.5835 41.3958ZM74.6834 45.9643C74.4968 45.9643 74.3367 45.8974 74.2031 45.7638C74.0695 45.6302 74.0027 45.4701 74.0027 45.2835C74.0027 45.097 74.0695 44.9369 74.2031 44.8032C74.3367 44.6696 74.4968 44.6028 74.6834 44.6028C74.87 44.6028 75.0301 44.6696 75.1637 44.8032C75.2973 44.9369 75.3641 45.097 75.3641 45.2835C75.3641 45.4071 75.3326 45.5205 75.2696 45.6239C75.2091 45.7273 75.1271 45.8105 75.0238 45.8735C74.9229 45.934 74.8095 45.9643 74.6834 45.9643ZM77.6162 45.9643C77.4296 45.9643 77.2695 45.8974 77.1359 45.7638C77.0023 45.6302 76.9355 45.4701 76.9355 45.2835C76.9355 45.097 77.0023 44.9369 77.1359 44.8032C77.2695 44.6696 77.4296 44.6028 77.6162 44.6028C77.8028 44.6028 77.9629 44.6696 78.0965 44.8032C78.2301 44.9369 78.2969 45.097 78.2969 45.2835C78.2969 45.4071 78.2654 45.5205 78.2024 45.6239C78.1419 45.7273 78.0599 45.8105 77.9566 45.8735C77.8557 45.934 77.7423 45.9643 77.6162 45.9643ZM80.549 45.9643C80.3624 45.9643 80.2023 45.8974 80.0687 45.7638C79.9351 45.6302 79.8683 45.4701 79.8683 45.2835C79.8683 45.097 79.9351 44.9369 80.0687 44.8032C80.2023 44.6696 80.3624 44.6028 80.549 44.6028C80.7356 44.6028 80.8957 44.6696 81.0293 44.8032C81.1629 44.9369 81.2297 45.097 81.2297 45.2835C81.2297 45.4071 81.1982 45.5205 81.1352 45.6239C81.0747 45.7273 80.9927 45.8105 80.8894 45.8735C80.7885 45.934 80.6751 45.9643 80.549 45.9643Z" fill="#93A2AD"/>
<g clip-path="url(#clip2_280_163)">
<path fill-rule="evenodd" clip-rule="evenodd" d="M402.851 44.5052C402.855 44.5018 402.858 44.4983 402.862 44.495C402.866 44.4916 402.869 44.4882 402.873 44.4849C404.458 42.9606 404.512 40.4401 402.993 38.8485C401.469 37.2534 398.941 37.1951 397.346 38.7184C395.751 40.2417 395.693 42.7696 397.216 44.3647C398.736 45.9562 401.256 46.0178 402.851 44.5052ZM403.272 45.8877C401.146 47.4645 398.129 47.2477 396.253 45.2841C394.222 43.1573 394.3 39.7867 396.427 37.7557C398.554 35.7246 401.924 35.8023 403.955 37.9291C405.831 39.893 405.908 42.9174 404.234 44.9684L405.642 46.4421C405.896 46.7079 405.886 47.1293 405.62 47.3831C405.354 47.637 404.933 47.6273 404.679 47.3615L403.272 45.8877Z" fill="#93A2AD"/>
</g>
<defs>
<clipPath id="clip0_280_163">
<rect width="7.744" height="7.84" fill="white" transform="translate(676 4.58002)"/>
</clipPath>
<clipPath id="clip1_280_163">
<rect width="7.744" height="7.84" fill="white" transform="translate(805 5.08002)"/>
</clipPath>
<clipPath id="clip2_280_163">
<rect width="15.9744" height="15.9744" fill="white" transform="translate(393.037 33.9166)"/>
</clipPath>
</defs>
</svg>
