<svg width="218" height="32" viewBox="0 0 218 32" fill="none" xmlns="http://www.w3.org/2000/svg">
<rect x="1.01561" y="1.20018" width="119.808" height="29.952" rx="3.744" stroke="#25C9BA" stroke-width="0.832"/>
<path d="M25.6436 14.057C25.6032 13.699 25.4368 13.4217 25.1444 13.225C24.8519 13.0259 24.4838 12.9263 24.0401 12.9263C23.7224 12.9263 23.4476 12.9767 23.2156 13.0775C22.9837 13.1759 22.8034 13.312 22.6748 13.486C22.5488 13.6574 22.4857 13.8528 22.4857 14.0722C22.4857 14.2562 22.5286 14.415 22.6143 14.5487C22.7026 14.6823 22.8173 14.7945 22.9585 14.8853C23.1022 14.9735 23.256 15.0479 23.4199 15.1084C23.5837 15.1664 23.7413 15.2143 23.8926 15.2521L24.6489 15.4487C24.896 15.5093 25.1494 15.5912 25.4091 15.6946C25.6688 15.7979 25.9095 15.9341 26.1314 16.103C26.3533 16.2719 26.5323 16.4812 26.6684 16.7308C26.8071 16.9804 26.8764 17.2791 26.8764 17.6271C26.8764 18.0658 26.763 18.4553 26.5361 18.7957C26.3117 19.136 25.9852 19.4045 25.5566 19.6012C25.1305 19.7978 24.6149 19.8962 24.0098 19.8962C23.4299 19.8962 22.9282 19.8041 22.5047 19.6201C22.0811 19.436 21.7495 19.1751 21.51 18.8373C21.2705 18.4969 21.1382 18.0935 21.1129 17.6271H22.2853C22.308 17.9069 22.3988 18.1401 22.5576 18.3267C22.719 18.5108 22.9244 18.6482 23.174 18.7389C23.4262 18.8272 23.7022 18.8713 24.0023 18.8713C24.3325 18.8713 24.6263 18.8196 24.8834 18.7162C25.1431 18.6103 25.3473 18.4641 25.4961 18.2775C25.6448 18.0885 25.7192 17.8678 25.7192 17.6157C25.7192 17.3863 25.6536 17.1985 25.5225 17.0522C25.394 16.906 25.2187 16.785 24.9969 16.6892C24.7775 16.5934 24.5292 16.5089 24.2519 16.4358L23.3367 16.1862C22.7164 16.0173 22.2248 15.7689 21.8617 15.4412C21.5012 15.1134 21.3209 14.6798 21.3209 14.1402C21.3209 13.694 21.442 13.3045 21.684 12.9717C21.926 12.6389 22.2538 12.3804 22.6673 12.1964C23.0807 12.0098 23.5472 11.9165 24.0665 11.9165C24.591 11.9165 25.0536 12.0085 25.4545 12.1926C25.8579 12.3766 26.1755 12.63 26.4075 12.9527C26.6394 13.2729 26.7605 13.641 26.7705 14.057H25.6436ZM29.8726 19.8962C29.5045 19.8962 29.1717 19.8281 28.8742 19.6919C28.5767 19.5533 28.3409 19.3528 28.167 19.0906C27.9955 18.8284 27.9098 18.507 27.9098 18.1263C27.9098 17.7985 27.9728 17.5287 28.0989 17.317C28.225 17.1052 28.3951 16.9375 28.6095 16.814C28.8238 16.6904 29.0633 16.5972 29.328 16.5341C29.5927 16.4711 29.8625 16.4232 30.1373 16.3904C30.4852 16.3501 30.7676 16.3173 30.9844 16.2921C31.2013 16.2644 31.3588 16.2202 31.4572 16.1597C31.5555 16.0992 31.6047 16.0009 31.6047 15.8647V15.8383C31.6047 15.508 31.5114 15.2521 31.3248 15.0706C31.1407 14.889 30.8659 14.7983 30.5004 14.7983C30.1197 14.7983 29.8196 14.8827 29.6003 15.0517C29.3835 15.2181 29.2335 15.4034 29.1503 15.6076L28.0876 15.3655C28.2136 15.0126 28.3977 14.7277 28.6397 14.5109C28.8843 14.2915 29.1654 14.1327 29.4831 14.0343C29.8007 13.9335 30.1348 13.8831 30.4852 13.8831C30.7172 13.8831 30.963 13.9108 31.2227 13.9663C31.4849 14.0192 31.7295 14.1175 31.9564 14.2613C32.1858 14.405 32.3736 14.6104 32.5199 14.8777C32.6661 15.1424 32.7392 15.4866 32.7392 15.9101V19.7676H31.6349V18.9734H31.5895C31.5164 19.1196 31.4067 19.2633 31.2605 19.4045C31.1143 19.5457 30.9264 19.6629 30.697 19.7562C30.4676 19.8495 30.1928 19.8962 29.8726 19.8962ZM30.1184 18.9885C30.431 18.9885 30.6983 18.9268 30.9201 18.8032C31.1445 18.6797 31.3147 18.5183 31.4307 18.3191C31.5492 18.1174 31.6084 17.9019 31.6084 17.6725V16.9237C31.5681 16.964 31.4899 17.0018 31.374 17.0371C31.2605 17.0699 31.1307 17.0989 30.9844 17.1241C30.8382 17.1468 30.6958 17.1682 30.5571 17.1884C30.4184 17.206 30.3024 17.2212 30.2092 17.2338C29.9898 17.2615 29.7894 17.3081 29.6079 17.3737C29.4288 17.4392 29.2851 17.5338 29.1767 17.6573C29.0708 17.7783 29.0179 17.9397 29.0179 18.1414C29.0179 18.4213 29.1213 18.633 29.328 18.7767C29.5347 18.9179 29.7982 18.9885 30.1184 18.9885ZM39.0066 13.9587L36.9001 19.7676H35.69L33.5797 13.9587H34.7937L36.2648 18.4288H36.3253L37.7926 13.9587H39.0066ZM42.3753 19.8848C41.803 19.8848 41.3101 19.7625 40.8966 19.518C40.4856 19.2709 40.1679 18.9242 39.9436 18.478C39.7217 18.0292 39.6108 17.5035 39.6108 16.901C39.6108 16.306 39.7217 15.7815 39.9436 15.3277C40.1679 14.8739 40.4806 14.5197 40.8814 14.265C41.2848 14.0104 41.7563 13.8831 42.2958 13.8831C42.6236 13.8831 42.9413 13.9373 43.2489 14.0457C43.5565 14.1541 43.8325 14.3243 44.0771 14.5562C44.3216 14.7882 44.5145 15.0895 44.6557 15.4601C44.7969 15.8282 44.8675 16.2757 44.8675 16.8026V17.2035H40.2499V16.3564H43.7594C43.7594 16.0589 43.6989 15.7954 43.5779 15.566C43.4569 15.334 43.2867 15.1512 43.0673 15.0176C42.8505 14.884 42.5959 14.8172 42.3034 14.8172C41.9857 14.8172 41.7084 14.8953 41.4714 15.0517C41.2369 15.2054 41.0554 15.4071 40.9268 15.6567C40.8008 15.9038 40.7377 16.1723 40.7377 16.4623V17.1241C40.7377 17.5124 40.8058 17.8426 40.942 18.1149C41.0806 18.3872 41.2735 18.5952 41.5206 18.7389C41.7677 18.8801 42.0563 18.9507 42.3866 18.9507C42.6009 18.9507 42.7963 18.9205 42.9728 18.8599C43.1493 18.7969 43.3018 18.7036 43.4304 18.5801C43.559 18.4565 43.6573 18.304 43.7254 18.1225L44.7956 18.3154C44.7099 18.6305 44.5561 18.9066 44.3342 19.1436C44.1149 19.3781 43.8388 19.5608 43.506 19.6919C43.1758 19.8205 42.7988 19.8848 42.3753 19.8848ZM49.6855 19.7676H48.4451L51.2323 12.0224H52.5824L55.3696 19.7676H54.1292L51.9395 13.4293H51.879L49.6855 19.7676ZM49.8935 16.7346H53.9174V17.7178H49.8935V16.7346ZM57.5281 12.0224V19.7676H56.3973V12.0224H57.5281ZM60.1801 12.0224V19.7676H59.0493V12.0224H60.1801ZM71.0433 14.5411H69.8634C69.818 14.289 69.7336 14.0671 69.61 13.8755C69.4865 13.6839 69.3352 13.5213 69.1562 13.3877C68.9772 13.254 68.7768 13.1532 68.5549 13.0851C68.3356 13.017 68.1023 12.983 67.8553 12.983C67.409 12.983 67.0094 13.0952 66.6564 13.3196C66.306 13.544 66.0287 13.873 65.8244 14.3066C65.6227 14.7403 65.5219 15.2697 65.5219 15.895C65.5219 16.5253 65.6227 17.0573 65.8244 17.4909C66.0287 17.9246 66.3072 18.2523 66.6602 18.4742C67.0132 18.6961 67.4103 18.807 67.8515 18.807C68.096 18.807 68.328 18.7742 68.5473 18.7087C68.7692 18.6406 68.9696 18.541 69.1487 18.4099C69.3277 18.2788 69.4789 18.1187 69.6025 17.9296C69.7285 17.738 69.8155 17.5187 69.8634 17.2716L71.0433 17.2754C70.9803 17.6561 70.858 18.0065 70.6765 18.3267C70.4975 18.6444 70.2668 18.9192 69.9844 19.1511C69.7046 19.3806 69.3844 19.5583 69.0239 19.6844C68.6633 19.8104 68.27 19.8735 67.8439 19.8735C67.1733 19.8735 66.5758 19.7146 66.0513 19.397C65.5269 19.0768 65.1135 18.6192 64.8109 18.0242C64.5109 17.4292 64.3609 16.7194 64.3609 15.895C64.3609 15.068 64.5121 14.3583 64.8147 13.7658C65.1172 13.1708 65.5307 12.7145 66.0551 12.3968C66.5795 12.0766 67.1758 11.9165 67.8439 11.9165C68.2549 11.9165 68.6381 11.9758 68.9936 12.0943C69.3516 12.2102 69.6731 12.3817 69.958 12.6086C70.2429 12.833 70.4786 13.1078 70.6652 13.433C70.8517 13.7557 70.9778 14.1251 71.0433 14.5411ZM74.7977 19.8848C74.2532 19.8848 73.7779 19.76 73.372 19.5104C72.9661 19.2608 72.6509 18.9116 72.4265 18.4629C72.2022 18.0141 72.09 17.4897 72.09 16.8896C72.09 16.287 72.2022 15.7601 72.4265 15.3088C72.6509 14.8575 72.9661 14.5071 73.372 14.2575C73.7779 14.0079 74.2532 13.8831 74.7977 13.8831C75.3423 13.8831 75.8176 14.0079 76.2235 14.2575C76.6294 14.5071 76.9446 14.8575 77.1689 15.3088C77.3933 15.7601 77.5055 16.287 77.5055 16.8896C77.5055 17.4897 77.3933 18.0141 77.1689 18.4629C76.9446 18.9116 76.6294 19.2608 76.2235 19.5104C75.8176 19.76 75.3423 19.8848 74.7977 19.8848ZM74.8015 18.9356C75.1545 18.9356 75.447 18.8423 75.6789 18.6557C75.9109 18.4692 76.0823 18.2208 76.1932 17.9107C76.3067 17.6006 76.3634 17.259 76.3634 16.8858C76.3634 16.5152 76.3067 16.1749 76.1932 15.8647C76.0823 15.5521 75.9109 15.3013 75.6789 15.1122C75.447 14.9231 75.1545 14.8285 74.8015 14.8285C74.446 14.8285 74.1511 14.9231 73.9166 15.1122C73.6846 15.3013 73.5119 15.5521 73.3985 15.8647C73.2875 16.1749 73.2321 16.5152 73.2321 16.8858C73.2321 17.259 73.2875 17.6006 73.3985 17.9107C73.5119 18.2208 73.6846 18.4692 73.9166 18.6557C74.1511 18.8423 74.446 18.9356 74.8015 18.9356ZM79.8985 16.3186V19.7676H78.7677V13.9587H79.8531V14.9042H79.9249C80.0586 14.5966 80.2678 14.3495 80.5527 14.1629C80.8401 13.9764 81.2019 13.8831 81.6381 13.8831C82.0339 13.8831 82.3806 13.9663 82.6781 14.1327C82.9756 14.2965 83.2063 14.5411 83.3702 14.8663C83.5341 15.1916 83.616 15.5937 83.616 16.0727V19.7676H82.4852V16.2089C82.4852 15.7878 82.3756 15.4588 82.1562 15.2218C81.9369 14.9823 81.6356 14.8626 81.2524 14.8626C80.9902 14.8626 80.7569 14.9193 80.5527 15.0327C80.351 15.1462 80.1909 15.3126 80.0724 15.5319C79.9565 15.7488 79.8985 16.011 79.8985 16.3186ZM87.8441 13.9587V14.8663H84.6711V13.9587H87.8441ZM85.522 12.567H86.6528V18.062C86.6528 18.2813 86.6856 18.4465 86.7511 18.5574C86.8167 18.6658 86.9011 18.7402 87.0045 18.7805C87.1104 18.8183 87.2251 18.8373 87.3487 18.8373C87.4394 18.8373 87.5188 18.8309 87.5869 18.8183C87.655 18.8057 87.7079 18.7957 87.7457 18.7881L87.95 19.7222C87.8844 19.7474 87.7911 19.7726 87.6701 19.7978C87.5491 19.8256 87.3978 19.8407 87.2163 19.8432C86.9188 19.8483 86.6415 19.7953 86.3843 19.6844C86.1271 19.5734 85.9191 19.402 85.7603 19.1701C85.6015 18.9381 85.522 18.6469 85.522 18.2965V12.567ZM90.7854 19.8962C90.4173 19.8962 90.0845 19.8281 89.787 19.6919C89.4895 19.5533 89.2537 19.3528 89.0798 19.0906C88.9083 18.8284 88.8226 18.507 88.8226 18.1263C88.8226 17.7985 88.8856 17.5287 89.0117 17.317C89.1378 17.1052 89.308 16.9375 89.5223 16.814C89.7366 16.6904 89.9761 16.5972 90.2408 16.5341C90.5055 16.4711 90.7753 16.4232 91.0501 16.3904C91.398 16.3501 91.6804 16.3173 91.8972 16.2921C92.1141 16.2644 92.2716 16.2202 92.37 16.1597C92.4683 16.0992 92.5175 16.0009 92.5175 15.8647V15.8383C92.5175 15.508 92.4242 15.2521 92.2376 15.0706C92.0536 14.889 91.7787 14.7983 91.4132 14.7983C91.0325 14.7983 90.7324 14.8827 90.5131 15.0517C90.2963 15.2181 90.1463 15.4034 90.0631 15.6076L89.0004 15.3655C89.1264 15.0126 89.3105 14.7277 89.5525 14.5109C89.7971 14.2915 90.0782 14.1327 90.3959 14.0343C90.7135 13.9335 91.0476 13.8831 91.398 13.8831C91.63 13.8831 91.8758 13.9108 92.1355 13.9663C92.3977 14.0192 92.6423 14.1175 92.8692 14.2613C93.0986 14.405 93.2864 14.6104 93.4327 14.8777C93.5789 15.1424 93.652 15.4866 93.652 15.9101V19.7676H92.5477V18.9734H92.5023C92.4292 19.1196 92.3195 19.2633 92.1733 19.4045C92.0271 19.5457 91.8392 19.6629 91.6098 19.7562C91.3804 19.8495 91.1056 19.8962 90.7854 19.8962ZM91.0312 18.9885C91.3438 18.9885 91.6111 18.9268 91.8329 18.8032C92.0573 18.6797 92.2275 18.5183 92.3435 18.3191C92.462 18.1174 92.5212 17.9019 92.5212 17.6725V16.9237C92.4809 16.964 92.4027 17.0018 92.2868 17.0371C92.1733 17.0699 92.0435 17.0989 91.8972 17.1241C91.751 17.1468 91.6086 17.1682 91.4699 17.1884C91.3312 17.206 91.2152 17.2212 91.122 17.2338C90.9026 17.2615 90.7022 17.3081 90.5207 17.3737C90.3416 17.4392 90.1979 17.5338 90.0895 17.6573C89.9836 17.7783 89.9307 17.9397 89.9307 18.1414C89.9307 18.4213 90.0341 18.633 90.2408 18.7767C90.4475 18.9179 90.711 18.9885 91.0312 18.9885ZM97.6049 19.8848C97.0427 19.8848 96.5586 19.7575 96.1527 19.5029C95.7493 19.2457 95.4392 18.8915 95.2224 18.4402C95.0056 17.9889 94.8972 17.472 94.8972 16.8896C94.8972 16.2997 95.0081 15.779 95.23 15.3277C95.4518 14.8739 95.7645 14.5197 96.1678 14.265C96.5712 14.0104 97.0465 13.8831 97.5936 13.8831C98.0348 13.8831 98.4281 13.965 98.7735 14.1289C99.1189 14.2902 99.3975 14.5172 99.6093 14.8096C99.8236 15.1021 99.9509 15.4437 99.9913 15.8345H98.8908C98.8302 15.5622 98.6916 15.3277 98.4748 15.1311C98.2605 14.9344 97.973 14.8361 97.6125 14.8361C97.2974 14.8361 97.0213 14.9193 96.7843 15.0857C96.5498 15.2496 96.367 15.484 96.2359 15.7891C96.1048 16.0917 96.0393 16.4497 96.0393 16.8631C96.0393 17.2867 96.1036 17.6523 96.2321 17.9599C96.3607 18.2675 96.5422 18.5057 96.7767 18.6746C97.0137 18.8436 97.2923 18.928 97.6125 18.928C97.8268 18.928 98.0209 18.8889 98.1949 18.8108C98.3714 18.7301 98.5189 18.6154 98.6374 18.4666C98.7584 18.3179 98.8429 18.1389 98.8908 17.9296H99.9913C99.9509 18.3053 99.8286 18.6406 99.6244 18.9356C99.4202 19.2306 99.1467 19.4625 98.8038 19.6314C98.4634 19.8004 98.0638 19.8848 97.6049 19.8848ZM103.912 13.9587V14.8663H100.739V13.9587H103.912ZM101.59 12.567H102.721V18.062C102.721 18.2813 102.754 18.4465 102.819 18.5574C102.885 18.6658 102.969 18.7402 103.073 18.7805C103.178 18.8183 103.293 18.8373 103.417 18.8373C103.507 18.8373 103.587 18.8309 103.655 18.8183C103.723 18.8057 103.776 18.7957 103.814 18.7881L104.018 19.7222C103.952 19.7474 103.859 19.7726 103.738 19.7978C103.617 19.8256 103.466 19.8407 103.284 19.8432C102.987 19.8483 102.709 19.7953 102.452 19.6844C102.195 19.5734 101.987 19.402 101.828 19.1701C101.669 18.9381 101.59 18.6469 101.59 18.2965V12.567ZM109.422 15.3769L108.397 15.5584C108.354 15.4273 108.286 15.3025 108.193 15.184C108.102 15.0655 107.979 14.9685 107.822 14.8928C107.666 14.8172 107.471 14.7794 107.236 14.7794C106.916 14.7794 106.649 14.8512 106.435 14.9949C106.22 15.1361 106.113 15.3189 106.113 15.5433C106.113 15.7374 106.185 15.8937 106.329 16.0122C106.472 16.1307 106.704 16.2278 107.025 16.3034L107.947 16.5152C108.482 16.6388 108.88 16.8291 109.142 17.0863C109.405 17.3434 109.536 17.6775 109.536 18.0885C109.536 18.4364 109.435 18.7465 109.233 19.0188C109.034 19.2885 108.755 19.5003 108.397 19.6541C108.042 19.8079 107.63 19.8848 107.161 19.8848C106.51 19.8848 105.979 19.7461 105.569 19.4688C105.158 19.189 104.905 18.7919 104.812 18.2775L105.905 18.1111C105.973 18.396 106.113 18.6116 106.325 18.7578C106.537 18.9015 106.813 18.9734 107.153 18.9734C107.524 18.9734 107.82 18.8965 108.042 18.7427C108.264 18.5864 108.375 18.396 108.375 18.1717C108.375 17.9901 108.307 17.8376 108.17 17.7141C108.037 17.5905 107.831 17.4972 107.554 17.4342L106.571 17.2186C106.029 17.0951 105.628 16.8984 105.368 16.6287C105.111 16.3589 104.982 16.0173 104.982 15.6038C104.982 15.2609 105.078 14.9609 105.27 14.7037C105.461 14.4466 105.726 14.2461 106.064 14.1024C106.402 13.9562 106.789 13.8831 107.225 13.8831C107.853 13.8831 108.347 14.0192 108.707 14.2915C109.068 14.5613 109.306 14.9231 109.422 15.3769Z" fill="#25C9BA"/>
<path d="M17.2106 15.3984H8.08789V16.9232H17.2106V15.3984Z" fill="#25C9BA"/>
<path d="M13.4105 11.5996H11.8857V20.7223H13.4105V11.5996Z" fill="#25C9BA"/>
<rect x="128.312" y="1.20018" width="89.024" height="29.952" rx="3.744" stroke="#25C9BA" stroke-width="0.832"/>
<g clip-path="url(#clip0_245_164)">
<path d="M145.368 13.1254L142.388 16.1056V9.10352H141V16.1056L138.02 13.1254L137.048 14.0955L141.694 18.7414L146.34 14.0955L145.368 13.1254Z" fill="#25C9BA"/>
<path d="M145.506 20.1974H137.88V21.5835H145.506V20.1974Z" fill="#25C9BA"/>
</g>
<path d="M152.874 19.5916V11.8464H157.73V12.8524H154.043V15.2122H157.477V16.2144H154.043V18.5856H157.776V19.5916H152.874ZM160.093 13.7827L161.375 16.0442L162.668 13.7827H163.905L162.093 16.6871L163.92 19.5916H162.683L161.375 17.4208L160.07 19.5916H158.83L160.637 16.6871L158.852 13.7827H160.093ZM165.066 21.7699V13.7827H166.17V14.7244H166.265C166.33 14.6034 166.425 14.4634 166.548 14.3046C166.672 14.1458 166.843 14.0071 167.063 13.8886C167.282 13.7676 167.572 13.7071 167.933 13.7071C168.402 13.7071 168.82 13.8256 169.188 14.0626C169.556 14.2996 169.845 14.6412 170.054 15.0874C170.266 15.5337 170.372 16.0707 170.372 16.6985C170.372 17.3263 170.267 17.8646 170.058 18.3133C169.849 18.7596 169.561 19.1037 169.196 19.3458C168.83 19.5853 168.413 19.705 167.944 19.705C167.591 19.705 167.302 19.6458 167.078 19.5273C166.856 19.4088 166.682 19.2701 166.556 19.1113C166.43 18.9525 166.333 18.8113 166.265 18.6877H166.197V21.7699H165.066ZM166.174 16.6871C166.174 17.0956 166.233 17.4536 166.352 17.7612C166.47 18.0688 166.642 18.3095 166.866 18.4835C167.091 18.655 167.365 18.7407 167.691 18.7407C168.028 18.7407 168.311 18.6512 168.538 18.4722C168.765 18.2906 168.936 18.0448 169.052 17.7347C169.171 17.4246 169.23 17.0754 169.23 16.6871C169.23 16.3039 169.172 15.9598 169.056 15.6547C168.942 15.3496 168.771 15.1089 168.541 14.9324C168.315 14.7559 168.031 14.6677 167.691 14.6677C167.363 14.6677 167.085 14.7521 166.859 14.921C166.634 15.09 166.464 15.3257 166.348 15.6282C166.232 15.9308 166.174 16.2838 166.174 16.6871ZM174.086 19.7088C173.541 19.7088 173.066 19.584 172.66 19.3344C172.254 19.0848 171.939 18.7356 171.714 18.2869C171.49 17.8381 171.378 17.3137 171.378 16.7136C171.378 16.111 171.49 15.5841 171.714 15.1328C171.939 14.6815 172.254 14.3311 172.66 14.0815C173.066 13.8319 173.541 13.7071 174.086 13.7071C174.63 13.7071 175.105 13.8319 175.511 14.0815C175.917 14.3311 176.232 14.6815 176.457 15.1328C176.681 15.5841 176.793 16.111 176.793 16.7136C176.793 17.3137 176.681 17.8381 176.457 18.2869C176.232 18.7356 175.917 19.0848 175.511 19.3344C175.105 19.584 174.63 19.7088 174.086 19.7088ZM174.089 18.7596C174.442 18.7596 174.735 18.6663 174.967 18.4797C175.199 18.2932 175.37 18.0448 175.481 17.7347C175.595 17.4246 175.651 17.083 175.651 16.7098C175.651 16.3392 175.595 15.9989 175.481 15.6887C175.37 15.3761 175.199 15.1253 174.967 14.9362C174.735 14.7471 174.442 14.6525 174.089 14.6525C173.734 14.6525 173.439 14.7471 173.204 14.9362C172.973 15.1253 172.8 15.3761 172.686 15.6887C172.575 15.9989 172.52 16.3392 172.52 16.7098C172.52 17.083 172.575 17.4246 172.686 17.7347C172.8 18.0448 172.973 18.2932 173.204 18.4797C173.439 18.6663 173.734 18.7596 174.089 18.7596ZM178.056 19.5916V13.7827H179.149V14.7055H179.209C179.315 14.3928 179.501 14.147 179.769 13.968C180.039 13.7865 180.344 13.6957 180.684 13.6957C180.755 13.6957 180.838 13.6982 180.934 13.7033C181.032 13.7083 181.109 13.7146 181.164 13.7222V14.8038C181.119 14.7912 181.038 14.7773 180.922 14.7622C180.806 14.7446 180.69 14.7357 180.574 14.7357C180.307 14.7357 180.069 14.7925 179.86 14.9059C179.653 15.0168 179.489 15.1719 179.368 15.3711C179.247 15.5677 179.186 15.7921 179.186 16.0442V19.5916H178.056ZM185.198 13.7827V14.6903H182.025V13.7827H185.198ZM182.876 12.391H184.006V17.886C184.006 18.1053 184.039 18.2705 184.105 18.3814C184.17 18.4898 184.255 18.5642 184.358 18.6045C184.464 18.6423 184.579 18.6613 184.702 18.6613C184.793 18.6613 184.872 18.655 184.94 18.6423C185.008 18.6297 185.061 18.6197 185.099 18.6121L185.303 19.5462C185.238 19.5714 185.145 19.5966 185.024 19.6218C184.903 19.6496 184.751 19.6647 184.57 19.6672C184.272 19.6723 183.995 19.6193 183.738 19.5084C183.481 19.3974 183.273 19.226 183.114 18.9941C182.955 18.7621 182.876 18.4709 182.876 18.1205V12.391ZM190.012 19.5916H188.771L191.559 11.8464H192.909L195.696 19.5916H194.455L192.266 13.2533H192.205L190.012 19.5916ZM190.22 16.5586H194.244V17.5418H190.22V16.5586ZM197.854 11.8464V19.5916H196.724V11.8464H197.854ZM200.506 11.8464V19.5916H199.376V11.8464H200.506Z" fill="#25C9BA"/>
<defs>
<clipPath id="clip0_245_164">
<rect width="9.29178" height="12.48" fill="white" transform="translate(137.048 9.10352)"/>
</clipPath>
</defs>
</svg>
