<svg width="841" height="32" viewBox="0 0 841 32" fill="none" xmlns="http://www.w3.org/2000/svg">
<rect x="674.416" y="1.24803" width="165.678" height="29.952" rx="3.744" stroke="#25C9BA" stroke-width="0.832"/>
<path d="M697.992 12.0712L700.147 18.3793H700.234L702.39 12.0712H703.653L700.866 19.8164H699.516L696.729 12.0712H697.992ZM704.681 19.8164V14.0075H705.812V19.8164H704.681ZM705.252 13.1112C705.055 13.1112 704.886 13.0457 704.745 12.9146C704.606 12.781 704.537 12.6221 704.537 12.4381C704.537 12.2515 704.606 12.0927 704.745 11.9616C704.886 11.8279 705.055 11.7611 705.252 11.7611C705.449 11.7611 705.616 11.8279 705.755 11.9616C705.896 12.0927 705.967 12.2515 705.967 12.4381C705.967 12.6221 705.896 12.781 705.755 12.9146C705.616 13.0457 705.449 13.1112 705.252 13.1112ZM709.836 19.9336C709.264 19.9336 708.771 19.8114 708.358 19.5668C707.947 19.3197 707.629 18.9731 707.405 18.5268C707.183 18.078 707.072 17.5524 707.072 16.9498C707.072 16.3548 707.183 15.8304 707.405 15.3766C707.629 14.9227 707.942 14.5685 708.343 14.3139C708.746 14.0592 709.217 13.9319 709.757 13.9319C710.085 13.9319 710.402 13.9861 710.71 14.0945C711.018 14.2029 711.294 14.3731 711.538 14.6051C711.783 14.837 711.976 15.1383 712.117 15.5089C712.258 15.877 712.329 16.3245 712.329 16.8515V17.2523H707.711V16.4052H711.221C711.221 16.1077 711.16 15.8442 711.039 15.6148C710.918 15.3829 710.748 15.2001 710.528 15.0664C710.312 14.9328 710.057 14.866 709.765 14.866C709.447 14.866 709.17 14.9442 708.933 15.1005C708.698 15.2543 708.517 15.456 708.388 15.7056C708.262 15.9526 708.199 16.2212 708.199 16.5111V17.1729C708.199 17.5612 708.267 17.8915 708.403 18.1638C708.542 18.436 708.735 18.644 708.982 18.7878C709.229 18.9289 709.517 18.9995 709.848 18.9995C710.062 18.9995 710.257 18.9693 710.434 18.9088C710.61 18.8457 710.763 18.7525 710.892 18.6289C711.02 18.5054 711.118 18.3528 711.186 18.1713L712.257 18.3642C712.171 18.6793 712.017 18.9554 711.795 19.1924C711.576 19.4269 711.3 19.6097 710.967 19.7408C710.637 19.8694 710.26 19.9336 709.836 19.9336ZM714.832 19.8164L713.123 14.0075H714.291L715.43 18.2734H715.486L716.629 14.0075H717.797L718.932 18.2545H718.988L720.119 14.0075H721.288L719.582 19.8164H718.429L717.249 15.6224H717.162L715.982 19.8164H714.832ZM725.27 19.8164V12.0712H728.031C728.633 12.0712 729.132 12.1809 729.528 12.4003C729.924 12.6196 730.22 12.9196 730.417 13.3003C730.614 13.6785 730.712 14.1046 730.712 14.5786C730.712 15.0551 730.612 15.4837 730.413 15.8644C730.217 16.2426 729.919 16.5426 729.521 16.7645C729.125 16.9838 728.627 17.0935 728.027 17.0935H726.128V16.1027H727.921C728.302 16.1027 728.611 16.0371 728.848 15.906C729.085 15.7724 729.259 15.5909 729.369 15.3614C729.48 15.132 729.536 14.871 729.536 14.5786C729.536 14.2861 729.48 14.0264 729.369 13.7995C729.259 13.5726 729.083 13.3949 728.844 13.2663C728.607 13.1377 728.294 13.0734 727.906 13.0734H726.439V19.8164H725.27ZM734.422 19.9336C733.85 19.9336 733.357 19.8114 732.943 19.5668C732.532 19.3197 732.215 18.9731 731.99 18.5268C731.768 18.078 731.657 17.5524 731.657 16.9498C731.657 16.3548 731.768 15.8304 731.99 15.3766C732.215 14.9227 732.527 14.5685 732.928 14.3139C733.332 14.0592 733.803 13.9319 734.343 13.9319C734.67 13.9319 734.988 13.9861 735.296 14.0945C735.603 14.2029 735.879 14.3731 736.124 14.6051C736.368 14.837 736.561 15.1383 736.702 15.5089C736.844 15.877 736.914 16.3245 736.914 16.8515V17.2523H732.297V16.4052H735.806C735.806 16.1077 735.746 15.8442 735.625 15.6148C735.504 15.3829 735.333 15.2001 735.114 15.0664C734.897 14.9328 734.643 14.866 734.35 14.866C734.032 14.866 733.755 14.9442 733.518 15.1005C733.284 15.2543 733.102 15.456 732.974 15.7056C732.847 15.9526 732.784 16.2212 732.784 16.5111V17.1729C732.784 17.5612 732.853 17.8915 732.989 18.1638C733.127 18.436 733.32 18.644 733.567 18.7878C733.814 18.9289 734.103 18.9995 734.433 18.9995C734.648 18.9995 734.843 18.9693 735.02 18.9088C735.196 18.8457 735.349 18.7525 735.477 18.6289C735.606 18.5054 735.704 18.3528 735.772 18.1713L736.842 18.3642C736.757 18.6793 736.603 18.9554 736.381 19.1924C736.162 19.4269 735.886 19.6097 735.553 19.7408C735.222 19.8694 734.846 19.9336 734.422 19.9336ZM738.169 19.8164V14.0075H739.262V14.9303H739.322C739.428 14.6177 739.615 14.3718 739.882 14.1928C740.152 14.0113 740.457 13.9206 740.797 13.9206C740.868 13.9206 740.951 13.9231 741.047 13.9281C741.145 13.9332 741.222 13.9395 741.277 13.947V15.0286C741.232 15.016 741.151 15.0022 741.035 14.987C740.919 14.9694 740.803 14.9606 740.688 14.9606C740.42 14.9606 740.182 15.0173 739.973 15.1307C739.766 15.2417 739.602 15.3967 739.481 15.5959C739.36 15.7926 739.3 16.0169 739.3 16.2691V19.8164H738.169ZM746.609 15.4257L745.584 15.6072C745.541 15.4761 745.473 15.3513 745.38 15.2328C745.289 15.1143 745.165 15.0173 745.009 14.9416C744.853 14.866 744.657 14.8282 744.423 14.8282C744.103 14.8282 743.836 14.9 743.621 15.0438C743.407 15.1849 743.3 15.3677 743.3 15.5921C743.3 15.7862 743.372 15.9426 743.515 16.0611C743.659 16.1796 743.891 16.2766 744.211 16.3523L745.134 16.564C745.668 16.6876 746.067 16.8779 746.329 17.1351C746.591 17.3923 746.722 17.7263 746.722 18.1373C746.722 18.4852 746.621 18.7953 746.42 19.0676C746.221 19.3374 745.942 19.5492 745.584 19.703C745.229 19.8567 744.816 19.9336 744.347 19.9336C743.697 19.9336 743.166 19.795 742.755 19.5176C742.344 19.2378 742.092 18.8407 741.999 18.3264L743.092 18.16C743.16 18.4449 743.3 18.6604 743.512 18.8067C743.723 18.9504 743.999 19.0222 744.34 19.0222C744.71 19.0222 745.007 18.9453 745.229 18.7915C745.45 18.6352 745.561 18.4449 745.561 18.2205C745.561 18.039 745.493 17.8864 745.357 17.7629C745.223 17.6393 745.018 17.5461 744.741 17.483L743.757 17.2675C743.215 17.1439 742.814 16.9473 742.555 16.6775C742.298 16.4077 742.169 16.0661 742.169 15.6526C742.169 15.3097 742.265 15.0097 742.456 14.7526C742.648 14.4954 742.913 14.295 743.251 14.1512C743.588 14.005 743.975 13.9319 744.412 13.9319C745.039 13.9319 745.534 14.068 745.894 14.3403C746.255 14.6101 746.493 14.9719 746.609 15.4257ZM750.412 19.9336C749.868 19.9336 749.393 19.8088 748.987 19.5592C748.581 19.3096 748.266 18.9605 748.041 18.5117C747.817 18.0629 747.705 17.5385 747.705 16.9384C747.705 16.3359 747.817 15.8089 748.041 15.3576C748.266 14.9063 748.581 14.5559 748.987 14.3063C749.393 14.0567 749.868 13.9319 750.412 13.9319C750.957 13.9319 751.432 14.0567 751.838 14.3063C752.244 14.5559 752.559 14.9063 752.784 15.3576C753.008 15.8089 753.12 16.3359 753.12 16.9384C753.12 17.5385 753.008 18.0629 752.784 18.5117C752.559 18.9605 752.244 19.3096 751.838 19.5592C751.432 19.8088 750.957 19.9336 750.412 19.9336ZM750.416 18.9844C750.769 18.9844 751.062 18.8911 751.294 18.7046C751.526 18.518 751.697 18.2696 751.808 17.9595C751.921 17.6494 751.978 17.3078 751.978 16.9347C751.978 16.564 751.921 16.2237 751.808 15.9136C751.697 15.6009 751.526 15.3501 751.294 15.161C751.062 14.9719 750.769 14.8774 750.416 14.8774C750.061 14.8774 749.766 14.9719 749.531 15.161C749.299 15.3501 749.127 15.6009 749.013 15.9136C748.902 16.2237 748.847 16.564 748.847 16.9347C748.847 17.3078 748.902 17.6494 749.013 17.9595C749.127 18.2696 749.299 18.518 749.531 18.7046C749.766 18.8911 750.061 18.9844 750.416 18.9844ZM755.513 16.3674V19.8164H754.382V14.0075H755.468V14.953H755.54C755.673 14.6454 755.883 14.3983 756.167 14.2118C756.455 14.0252 756.817 13.9319 757.253 13.9319C757.649 13.9319 757.995 14.0151 758.293 14.1815C758.59 14.3454 758.821 14.5899 758.985 14.9152C759.149 15.2404 759.231 15.6425 759.231 16.1216V19.8164H758.1V16.2577C758.1 15.8367 757.99 15.5077 757.771 15.2707C757.552 15.0311 757.25 14.9114 756.867 14.9114C756.605 14.9114 756.372 14.9681 756.167 15.0816C755.966 15.195 755.806 15.3614 755.687 15.5808C755.571 15.7976 755.513 16.0598 755.513 16.3674ZM762.438 19.945C762.07 19.945 761.737 19.8769 761.439 19.7408C761.142 19.6021 760.906 19.4017 760.732 19.1395C760.561 18.8773 760.475 18.5558 760.475 18.1751C760.475 17.8473 760.538 17.5776 760.664 17.3658C760.79 17.154 760.96 16.9863 761.175 16.8628C761.389 16.7393 761.628 16.646 761.893 16.583C762.158 16.5199 762.428 16.472 762.702 16.4392C763.05 16.3989 763.333 16.3661 763.55 16.3409C763.766 16.3132 763.924 16.2691 764.022 16.2086C764.121 16.148 764.17 16.0497 764.17 15.9136V15.8871C764.17 15.5568 764.076 15.3009 763.89 15.1194C763.706 14.9379 763.431 14.8471 763.065 14.8471C762.685 14.8471 762.385 14.9316 762.165 15.1005C761.949 15.2669 761.799 15.4522 761.715 15.6564L760.653 15.4144C760.779 15.0614 760.963 14.7765 761.205 14.5597C761.449 14.3403 761.73 14.1815 762.048 14.0832C762.366 13.9823 762.7 13.9319 763.05 13.9319C763.282 13.9319 763.528 13.9596 763.788 14.0151C764.05 14.068 764.295 14.1664 764.521 14.3101C764.751 14.4538 764.939 14.6593 765.085 14.9265C765.231 15.1912 765.304 15.5354 765.304 15.959V19.8164H764.2V19.0222H764.155C764.082 19.1685 763.972 19.3122 763.826 19.4534C763.679 19.5945 763.492 19.7118 763.262 19.8051C763.033 19.8983 762.758 19.945 762.438 19.945ZM762.684 19.0374C762.996 19.0374 763.263 18.9756 763.485 18.852C763.71 18.7285 763.88 18.5671 763.996 18.368C764.114 18.1663 764.174 17.9507 764.174 17.7213V16.9725C764.133 17.0128 764.055 17.0506 763.939 17.0859C763.826 17.1187 763.696 17.1477 763.55 17.1729C763.403 17.1956 763.261 17.217 763.122 17.2372C762.984 17.2549 762.868 17.27 762.774 17.2826C762.555 17.3103 762.354 17.357 762.173 17.4225C761.994 17.4881 761.85 17.5826 761.742 17.7062C761.636 17.8272 761.583 17.9885 761.583 18.1902C761.583 18.4701 761.686 18.6819 761.893 18.8256C762.1 18.9668 762.363 19.0374 762.684 19.0374ZM767.941 12.0712V19.8164H766.81V12.0712H767.941ZM769.462 19.8164V14.0075H770.593V19.8164H769.462ZM770.033 13.1112C769.837 13.1112 769.668 13.0457 769.527 12.9146C769.388 12.781 769.319 12.6221 769.319 12.4381C769.319 12.2515 769.388 12.0927 769.527 11.9616C769.668 11.8279 769.837 11.7611 770.033 11.7611C770.23 11.7611 770.398 11.8279 770.536 11.9616C770.678 12.0927 770.748 12.2515 770.748 12.4381C770.748 12.6221 770.678 12.781 770.536 12.9146C770.398 13.0457 770.23 13.1112 770.033 13.1112ZM774.826 14.0075V14.9152H771.653V14.0075H774.826ZM772.504 12.6158H773.635V18.1108C773.635 18.3302 773.667 18.4953 773.733 18.6062C773.799 18.7146 773.883 18.789 773.986 18.8294C774.092 18.8672 774.207 18.8861 774.331 18.8861C774.421 18.8861 774.501 18.8798 774.569 18.8672C774.637 18.8546 774.69 18.8445 774.728 18.8369L774.932 19.771C774.866 19.7962 774.773 19.8214 774.652 19.8467C774.531 19.8744 774.38 19.8895 774.198 19.892C773.901 19.8971 773.623 19.8441 773.366 19.7332C773.109 19.6223 772.901 19.4508 772.742 19.2189C772.583 18.9869 772.504 18.6957 772.504 18.3453V12.6158ZM776.792 21.9947C776.623 21.9947 776.469 21.9809 776.33 21.9531C776.192 21.9279 776.088 21.9002 776.02 21.8699L776.292 20.9434C776.499 20.9989 776.683 21.0228 776.845 21.0152C777.006 21.0077 777.148 20.9472 777.272 20.8337C777.398 20.7203 777.509 20.535 777.605 20.2778L777.745 19.892L775.619 14.0075H776.829L778.301 18.5155H778.361L779.832 14.0075H781.046L778.652 20.5917C778.541 20.8942 778.4 21.1501 778.229 21.3594C778.057 21.5712 777.853 21.73 777.616 21.8359C777.379 21.9418 777.104 21.9947 776.792 21.9947ZM786.187 12.0712V19.8164H785.018V12.0712H786.187ZM788.928 16.3674V19.8164H787.798V14.0075H788.883V14.953H788.955C789.088 14.6454 789.298 14.3983 789.583 14.2118C789.87 14.0252 790.232 13.9319 790.668 13.9319C791.064 13.9319 791.411 14.0151 791.708 14.1815C792.006 14.3454 792.236 14.5899 792.4 14.9152C792.564 15.2404 792.646 15.6425 792.646 16.1216V19.8164H791.515V16.2577C791.515 15.8367 791.405 15.5077 791.186 15.2707C790.967 15.0311 790.665 14.9114 790.282 14.9114C790.02 14.9114 789.787 14.9681 789.583 15.0816C789.381 15.195 789.221 15.3614 789.102 15.5808C788.986 15.7976 788.928 16.0598 788.928 16.3674ZM798.515 15.4257L797.49 15.6072C797.448 15.4761 797.379 15.3513 797.286 15.2328C797.195 15.1143 797.072 15.0173 796.916 14.9416C796.759 14.866 796.564 14.8282 796.329 14.8282C796.009 14.8282 795.742 14.9 795.528 15.0438C795.313 15.1849 795.206 15.3677 795.206 15.5921C795.206 15.7862 795.278 15.9426 795.422 16.0611C795.565 16.1796 795.797 16.2766 796.118 16.3523L797.04 16.564C797.575 16.6876 797.973 16.8779 798.235 17.1351C798.498 17.3923 798.629 17.7263 798.629 18.1373C798.629 18.4852 798.528 18.7953 798.326 19.0676C798.127 19.3374 797.848 19.5492 797.49 19.703C797.135 19.8567 796.723 19.9336 796.254 19.9336C795.603 19.9336 795.073 19.795 794.662 19.5176C794.251 19.2378 793.999 18.8407 793.905 18.3264L794.998 18.16C795.066 18.4449 795.206 18.6604 795.418 18.8067C795.63 18.9504 795.906 19.0222 796.246 19.0222C796.617 19.0222 796.913 18.9453 797.135 18.7915C797.357 18.6352 797.468 18.4449 797.468 18.2205C797.468 18.039 797.4 17.8864 797.264 17.7629C797.13 17.6393 796.924 17.5461 796.647 17.483L795.664 17.2675C795.122 17.1439 794.721 16.9473 794.461 16.6775C794.204 16.4077 794.075 16.0661 794.075 15.6526C794.075 15.3097 794.171 15.0097 794.363 14.7526C794.554 14.4954 794.819 14.295 795.157 14.1512C795.495 14.005 795.882 13.9319 796.318 13.9319C796.946 13.9319 797.44 14.068 797.801 14.3403C798.161 14.6101 798.399 14.9719 798.515 15.4257ZM799.872 19.8164V14.0075H801.003V19.8164H799.872ZM800.443 13.1112C800.246 13.1112 800.077 13.0457 799.936 12.9146C799.798 12.781 799.728 12.6221 799.728 12.4381C799.728 12.2515 799.798 12.0927 799.936 11.9616C800.077 11.8279 800.246 11.7611 800.443 11.7611C800.64 11.7611 800.807 11.8279 800.946 11.9616C801.087 12.0927 801.158 12.2515 801.158 12.4381C801.158 12.6221 801.087 12.781 800.946 12.9146C800.807 13.0457 800.64 13.1112 800.443 13.1112ZM804.96 22.1158C804.498 22.1158 804.101 22.0552 803.768 21.9342C803.438 21.8132 803.168 21.6531 802.959 21.4539C802.75 21.2548 802.593 21.0367 802.49 20.7997L803.462 20.3988C803.53 20.5097 803.621 20.627 803.734 20.7505C803.85 20.8766 804.006 20.9837 804.203 21.072C804.402 21.1602 804.658 21.2043 804.971 21.2043C805.399 21.2043 805.754 21.0997 806.034 20.8904C806.313 20.6837 806.453 20.3534 806.453 19.8996V18.7575H806.381C806.313 18.881 806.215 19.0184 806.086 19.1697C805.96 19.321 805.786 19.4521 805.565 19.563C805.343 19.674 805.054 19.7294 804.699 19.7294C804.24 19.7294 803.826 19.6223 803.458 19.408C803.093 19.1911 802.803 18.8722 802.588 18.4512C802.377 18.0276 802.271 17.507 802.271 16.8893C802.271 16.2716 802.375 15.7421 802.585 15.3009C802.796 14.8597 803.086 14.5219 803.454 14.2874C803.822 14.0504 804.24 13.9319 804.706 13.9319C805.067 13.9319 805.358 13.9924 805.58 14.1134C805.802 14.2319 805.974 14.3706 806.098 14.5294C806.224 14.6883 806.321 14.8282 806.389 14.9492H806.472V14.0075H807.58V19.945C807.58 20.4442 807.464 20.8539 807.232 21.1741C807 21.4943 806.687 21.7313 806.291 21.8851C805.897 22.0389 805.454 22.1158 804.96 22.1158ZM804.948 18.7915C805.273 18.7915 805.548 18.7159 805.773 18.5646C806 18.4108 806.171 18.1915 806.287 17.9066C806.405 17.6192 806.465 17.275 806.465 16.8742C806.465 16.4834 806.407 16.1392 806.291 15.8417C806.175 15.5442 806.005 15.3123 805.78 15.1459C805.556 14.9769 805.278 14.8925 804.948 14.8925C804.608 14.8925 804.324 14.9807 804.097 15.1572C803.87 15.3312 803.699 15.5682 803.583 15.8682C803.469 16.1682 803.413 16.5035 803.413 16.8742C803.413 17.2549 803.471 17.5889 803.587 17.8763C803.703 18.1638 803.874 18.3881 804.101 18.5495C804.33 18.7109 804.613 18.7915 804.948 18.7915ZM810.228 16.3674V19.8164H809.097V12.0712H810.212V14.953H810.284C810.42 14.6404 810.628 14.392 810.908 14.208C811.188 14.0239 811.554 13.9319 812.005 13.9319C812.403 13.9319 812.751 14.0138 813.049 14.1777C813.349 14.3416 813.581 14.5862 813.745 14.9114C813.911 15.2341 813.994 15.6375 813.994 16.1216V19.8164H812.864V16.2577C812.864 15.8316 812.754 15.5014 812.534 15.2669C812.315 15.0299 812.01 14.9114 811.619 14.9114C811.352 14.9114 811.113 14.9681 810.901 15.0816C810.691 15.195 810.526 15.3614 810.405 15.5808C810.287 15.7976 810.228 16.0598 810.228 16.3674ZM818.215 14.0075V14.9152H815.042V14.0075H818.215ZM815.893 12.6158H817.024V18.1108C817.024 18.3302 817.056 18.4953 817.122 18.6062C817.187 18.7146 817.272 18.789 817.375 18.8294C817.481 18.8672 817.596 18.8861 817.719 18.8861C817.81 18.8861 817.89 18.8798 817.958 18.8672C818.026 18.8546 818.079 18.8445 818.116 18.8369L818.321 19.771C818.255 19.7962 818.162 19.8214 818.041 19.8467C817.92 19.8744 817.769 19.8895 817.587 19.892C817.289 19.8971 817.012 19.8441 816.755 19.7332C816.498 19.6223 816.29 19.4508 816.131 19.2189C815.972 18.9869 815.893 18.6957 815.893 18.3453V12.6158ZM823.725 15.4257L822.7 15.6072C822.657 15.4761 822.589 15.3513 822.496 15.2328C822.405 15.1143 822.281 15.0173 822.125 14.9416C821.969 14.866 821.773 14.8282 821.539 14.8282C821.219 14.8282 820.952 14.9 820.737 15.0438C820.523 15.1849 820.416 15.3677 820.416 15.5921C820.416 15.7862 820.488 15.9426 820.631 16.0611C820.775 16.1796 821.007 16.2766 821.327 16.3523L822.25 16.564C822.784 16.6876 823.183 16.8779 823.445 17.1351C823.707 17.3923 823.838 17.7263 823.838 18.1373C823.838 18.4852 823.737 18.7953 823.536 19.0676C823.337 19.3374 823.058 19.5492 822.7 19.703C822.345 19.8567 821.932 19.9336 821.463 19.9336C820.813 19.9336 820.282 19.795 819.871 19.5176C819.46 19.2378 819.208 18.8407 819.115 18.3264L820.208 18.16C820.276 18.4449 820.416 18.6604 820.628 18.8067C820.839 18.9504 821.115 19.0222 821.456 19.0222C821.826 19.0222 822.123 18.9453 822.345 18.7915C822.566 18.6352 822.677 18.4449 822.677 18.2205C822.677 18.039 822.609 17.8864 822.473 17.7629C822.339 17.6393 822.134 17.5461 821.857 17.483L820.873 17.2675C820.331 17.1439 819.93 16.9473 819.671 16.6775C819.414 16.4077 819.285 16.0661 819.285 15.6526C819.285 15.3097 819.381 15.0097 819.572 14.7526C819.764 14.4954 820.029 14.295 820.367 14.1512C820.704 14.005 821.091 13.9319 821.528 13.9319C822.155 13.9319 822.65 14.068 823.01 14.3403C823.371 14.6101 823.609 14.9719 823.725 15.4257Z" fill="#25C9BA"/>
<path d="M686.342 12.6195L689.322 15.5997L682.32 15.5997L682.32 16.9875L689.322 16.9875L686.342 19.9677L687.312 20.9395L691.958 16.2936L687.312 11.6477L686.342 12.6195Z" fill="#25C9BA"/>
<rect x="0.815414" y="1.24803" width="153.088" height="29.952" rx="3.744" stroke="#25C9BA" stroke-width="0.832"/>
<path d="M21.8726 20.6481H20.6322L23.4194 12.9029H24.7695L27.5567 20.6481H26.3162L24.1266 14.3097H24.0661L21.8726 20.6481ZM22.0806 17.6151H26.1044V18.5983H22.0806V17.6151ZM32.8957 16.2574L31.8708 16.4389C31.8279 16.3078 31.7598 16.183 31.6666 16.0645C31.5758 15.946 31.4523 15.8489 31.2959 15.7733C31.1396 15.6977 30.9442 15.6599 30.7098 15.6599C30.3896 15.6599 30.1223 15.7317 29.908 15.8754C29.6937 16.0166 29.5866 16.1994 29.5866 16.4238C29.5866 16.6179 29.6584 16.7742 29.8021 16.8927C29.9458 17.0112 30.1778 17.1083 30.498 17.1839L31.4207 17.3957C31.9552 17.5192 32.3536 17.7096 32.6158 17.9668C32.878 18.2239 33.0091 18.558 33.0091 18.9689C33.0091 19.3169 32.9083 19.627 32.7066 19.8993C32.5074 20.169 32.2288 20.3808 31.8708 20.5346C31.5153 20.6884 31.1031 20.7653 30.6341 20.7653C29.9837 20.7653 29.4529 20.6266 29.042 20.3493C28.631 20.0695 28.3789 19.6724 28.2856 19.158L29.3786 18.9916C29.4466 19.2765 29.5866 19.4921 29.7983 19.6383C30.0101 19.782 30.2862 19.8539 30.6266 19.8539C30.9972 19.8539 31.2934 19.777 31.5153 19.6232C31.7372 19.4669 31.8481 19.2765 31.8481 19.0521C31.8481 18.8706 31.78 18.7181 31.6439 18.5945C31.5102 18.471 31.3048 18.3777 31.0274 18.3147L30.0442 18.0991C29.5021 17.9756 29.1012 17.7789 28.8415 17.5092C28.5844 17.2394 28.4558 16.8978 28.4558 16.4843C28.4558 16.1414 28.5516 15.8414 28.7432 15.5842C28.9348 15.3271 29.1996 15.1266 29.5374 14.9829C29.8752 14.8367 30.2622 14.7636 30.6984 14.7636C31.3262 14.7636 31.8204 14.8997 32.1809 15.172C32.5414 15.4418 32.7797 15.8036 32.8957 16.2574ZM38.6052 16.2574L37.5804 16.4389C37.5375 16.3078 37.4694 16.183 37.3762 16.0645C37.2854 15.946 37.1619 15.8489 37.0055 15.7733C36.8492 15.6977 36.6538 15.6599 36.4194 15.6599C36.0992 15.6599 35.8319 15.7317 35.6176 15.8754C35.4033 16.0166 35.2962 16.1994 35.2962 16.4238C35.2962 16.6179 35.368 16.7742 35.5117 16.8927C35.6554 17.0112 35.8874 17.1083 36.2076 17.1839L37.1303 17.3957C37.6648 17.5192 38.0632 17.7096 38.3254 17.9668C38.5876 18.2239 38.7187 18.558 38.7187 18.9689C38.7187 19.3169 38.6179 19.627 38.4162 19.8993C38.217 20.169 37.9384 20.3808 37.5804 20.5346C37.2249 20.6884 36.8127 20.7653 36.3437 20.7653C35.6932 20.7653 35.1625 20.6266 34.7516 20.3493C34.3406 20.0695 34.0885 19.6724 33.9952 19.158L35.0882 18.9916C35.1562 19.2765 35.2962 19.4921 35.5079 19.6383C35.7197 19.782 35.9958 19.8539 36.3362 19.8539C36.7068 19.8539 37.003 19.777 37.2249 19.6232C37.4468 19.4669 37.5577 19.2765 37.5577 19.0521C37.5577 18.8706 37.4896 18.7181 37.3535 18.5945C37.2198 18.471 37.0144 18.3777 36.737 18.3147L35.7538 18.0991C35.2117 17.9756 34.8108 17.7789 34.5511 17.5092C34.294 17.2394 34.1654 16.8978 34.1654 16.4843C34.1654 16.1414 34.2612 15.8414 34.4528 15.5842C34.6444 15.3271 34.9092 15.1266 35.247 14.9829C35.5848 14.8367 35.9718 14.7636 36.408 14.7636C37.0358 14.7636 37.53 14.8997 37.8905 15.172C38.251 15.4418 38.4893 15.8036 38.6052 16.2574ZM39.962 20.6481V14.8392H41.0927V20.6481H39.962ZM40.533 13.9429C40.3364 13.9429 40.1675 13.8774 40.0263 13.7463C39.8876 13.6126 39.8183 13.4538 39.8183 13.2697C39.8183 13.0832 39.8876 12.9243 40.0263 12.7932C40.1675 12.6596 40.3364 12.5928 40.533 12.5928C40.7297 12.5928 40.8973 12.6596 41.036 12.7932C41.1772 12.9243 41.2478 13.0832 41.2478 13.2697C41.2478 13.4538 41.1772 13.6126 41.036 13.7463C40.8973 13.8774 40.7297 13.9429 40.533 13.9429ZM45.0495 22.9474C44.5881 22.9474 44.191 22.8869 43.8582 22.7659C43.5279 22.6449 43.2581 22.4848 43.0489 22.2856C42.8396 22.0864 42.6833 21.8683 42.5799 21.6313L43.5519 21.2305C43.6199 21.3414 43.7107 21.4586 43.8242 21.5822C43.9401 21.7082 44.0965 21.8154 44.2931 21.9036C44.4923 21.9919 44.7482 22.036 45.0608 22.036C45.4894 22.036 45.8437 21.9314 46.1235 21.7221C46.4034 21.5154 46.5433 21.1851 46.5433 20.7313V19.5892H46.4714C46.4034 19.7127 46.305 19.8501 46.1765 20.0014C46.0504 20.1527 45.8764 20.2838 45.6546 20.3947C45.4327 20.5056 45.144 20.5611 44.7885 20.5611C44.3297 20.5611 43.9162 20.4539 43.5481 20.2396C43.1825 20.0228 42.8926 19.7039 42.6783 19.2828C42.4665 18.8593 42.3606 18.3386 42.3606 17.7209C42.3606 17.1032 42.4652 16.5738 42.6745 16.1326C42.8863 15.6914 43.1762 15.3535 43.5443 15.1191C43.9124 14.8821 44.3297 14.7636 44.7961 14.7636C45.1566 14.7636 45.4478 14.8241 45.6697 14.9451C45.8916 15.0636 46.0643 15.2023 46.1878 15.3611C46.3139 15.5199 46.4109 15.6599 46.479 15.7809H46.5622V14.8392H47.6703V20.7767C47.6703 21.2759 47.5543 21.6856 47.3223 22.0057C47.0904 22.3259 46.7765 22.5629 46.3807 22.7167C45.9874 22.8705 45.5436 22.9474 45.0495 22.9474ZM45.0381 19.6232C45.3634 19.6232 45.6382 19.5476 45.8626 19.3963C46.0895 19.2425 46.2609 19.0232 46.3769 18.7383C46.4954 18.4508 46.5546 18.1067 46.5546 17.7058C46.5546 17.315 46.4966 16.9709 46.3807 16.6734C46.2647 16.3759 46.0945 16.1439 45.8701 15.9775C45.6457 15.8086 45.3684 15.7241 45.0381 15.7241C44.6978 15.7241 44.4141 15.8124 44.1872 15.9889C43.9603 16.1628 43.7889 16.3998 43.6729 16.6999C43.5594 16.9999 43.5027 17.3352 43.5027 17.7058C43.5027 18.0865 43.5607 18.4206 43.6767 18.708C43.7926 18.9954 43.9641 19.2198 44.191 19.3812C44.4204 19.5425 44.7028 19.6232 45.0381 19.6232ZM50.3175 17.1991V20.6481H49.1868V14.8392H50.2722V15.7847H50.344C50.4776 15.4771 50.6869 15.23 50.9718 15.0434C51.2592 14.8568 51.621 14.7636 52.0572 14.7636C52.453 14.7636 52.7997 14.8468 53.0972 15.0132C53.3947 15.177 53.6254 15.4216 53.7893 15.7468C53.9531 16.0721 54.0351 16.4742 54.0351 16.9532V20.6481H52.9043V17.0894C52.9043 16.6683 52.7946 16.3393 52.5753 16.1023C52.3559 15.8628 52.0547 15.7431 51.6714 15.7431C51.4092 15.7431 51.176 15.7998 50.9718 15.9132C50.7701 16.0267 50.61 16.1931 50.4915 16.4124C50.3755 16.6293 50.3175 16.8915 50.3175 17.1991ZM64.8936 15.4216H63.7137C63.6683 15.1695 63.5838 14.9476 63.4603 14.756C63.3368 14.5644 63.1855 14.4018 63.0065 14.2681C62.8275 14.1345 62.627 14.0337 62.4052 13.9656C62.1858 13.8975 61.9526 13.8635 61.7055 13.8635C61.2593 13.8635 60.8597 13.9757 60.5067 14.2001C60.1563 14.4245 59.8789 14.7535 59.6747 15.1871C59.473 15.6208 59.3722 16.1502 59.3722 16.7755C59.3722 17.4058 59.473 17.9378 59.6747 18.3714C59.8789 18.8051 60.1575 19.1328 60.5105 19.3547C60.8635 19.5766 61.2605 19.6875 61.7018 19.6875C61.9463 19.6875 62.1783 19.6547 62.3976 19.5892C62.6195 19.5211 62.8199 19.4215 62.9989 19.2904C63.1779 19.1593 63.3292 18.9992 63.4527 18.8101C63.5788 18.6185 63.6658 18.3991 63.7137 18.1521L64.8936 18.1559C64.8306 18.5366 64.7083 18.887 64.5268 19.2072C64.3478 19.5249 64.1171 19.7997 63.8347 20.0316C63.5549 20.2611 63.2347 20.4388 62.8741 20.5649C62.5136 20.6909 62.1203 20.754 61.6942 20.754C61.0236 20.754 60.426 20.5951 59.9016 20.2775C59.3772 19.9573 58.9637 19.4997 58.6612 18.9047C58.3612 18.3096 58.2111 17.5999 58.2111 16.7755C58.2111 15.9485 58.3624 15.2388 58.665 14.6463C58.9675 14.0513 59.381 13.595 59.9054 13.2773C60.4298 12.9571 61.0261 12.797 61.6942 12.797C62.1052 12.797 62.4884 12.8563 62.8439 12.9748C63.2019 13.0907 63.5233 13.2622 63.8082 13.4891C64.0931 13.7135 64.3289 13.9883 64.5154 14.3135C64.702 14.6362 64.8281 15.0056 64.8936 15.4216ZM68.648 20.7653C68.1034 20.7653 67.6282 20.6405 67.2223 20.3909C66.8164 20.1413 66.5012 19.7921 66.2768 19.3433C66.0524 18.8946 65.9402 18.3702 65.9402 17.7701C65.9402 17.1675 66.0524 16.6406 66.2768 16.1893C66.5012 15.738 66.8164 15.3876 67.2223 15.138C67.6282 14.8884 68.1034 14.7636 68.648 14.7636C69.1926 14.7636 69.6678 14.8884 70.0738 15.138C70.4797 15.3876 70.7948 15.738 71.0192 16.1893C71.2436 16.6406 71.3558 17.1675 71.3558 17.7701C71.3558 18.3702 71.2436 18.8946 71.0192 19.3433C70.7948 19.7921 70.4797 20.1413 70.0738 20.3909C69.6678 20.6405 69.1926 20.7653 68.648 20.7653ZM68.6518 19.8161C69.0048 19.8161 69.2972 19.7228 69.5292 19.5362C69.7611 19.3496 69.9326 19.1013 70.0435 18.7912C70.157 18.4811 70.2137 18.1395 70.2137 17.7663C70.2137 17.3957 70.157 17.0553 70.0435 16.7452C69.9326 16.4326 69.7611 16.1817 69.5292 15.9927C69.2972 15.8036 69.0048 15.709 68.6518 15.709C68.2963 15.709 68.0013 15.8036 67.7669 15.9927C67.5349 16.1817 67.3622 16.4326 67.2487 16.7452C67.1378 17.0553 67.0823 17.3957 67.0823 17.7663C67.0823 18.1395 67.1378 18.4811 67.2487 18.7912C67.3622 19.1013 67.5349 19.3496 67.7669 19.5362C68.0013 19.7228 68.2963 19.8161 68.6518 19.8161ZM73.7487 17.1991V20.6481H72.618V14.8392H73.7034V15.7847H73.7752C73.9088 15.4771 74.1181 15.23 74.403 15.0434C74.6904 14.8568 75.0522 14.7636 75.4884 14.7636C75.8842 14.7636 76.2309 14.8468 76.5284 15.0132C76.8259 15.177 77.0566 15.4216 77.2205 15.7468C77.3843 16.0721 77.4663 16.4742 77.4663 16.9532V20.6481H76.3355V17.0894C76.3355 16.6683 76.2258 16.3393 76.0065 16.1023C75.7871 15.8628 75.4859 15.7431 75.1026 15.7431C74.8404 15.7431 74.6072 15.7998 74.403 15.9132C74.2013 16.0267 74.0412 16.1931 73.9227 16.4124C73.8067 16.6293 73.7487 16.8915 73.7487 17.1991ZM81.6943 14.8392V15.7468H78.5214V14.8392H81.6943ZM79.3723 13.4475H80.5031V18.9425C80.5031 19.1618 80.5358 19.327 80.6014 19.4379C80.6669 19.5463 80.7514 19.6207 80.8548 19.661C80.9607 19.6988 81.0754 19.7177 81.1989 19.7177C81.2897 19.7177 81.3691 19.7114 81.4372 19.6988C81.5053 19.6862 81.5582 19.6761 81.596 19.6686L81.8002 20.6027C81.7347 20.6279 81.6414 20.6531 81.5204 20.6783C81.3994 20.7061 81.2481 20.7212 81.0666 20.7237C80.7691 20.7288 80.4917 20.6758 80.2346 20.5649C79.9774 20.4539 79.7694 20.2825 79.6106 20.0505C79.4517 19.8186 79.3723 19.5274 79.3723 19.1769V13.4475ZM84.6357 20.7767C84.2676 20.7767 83.9348 20.7086 83.6373 20.5724C83.3397 20.4338 83.104 20.2333 82.9301 19.9711C82.7586 19.7089 82.6729 19.3875 82.6729 19.0068C82.6729 18.679 82.7359 18.4092 82.862 18.1975C82.988 17.9857 83.1582 17.818 83.3725 17.6945C83.5868 17.5709 83.8263 17.4776 84.0911 17.4146C84.3558 17.3516 84.6256 17.3037 84.9004 17.2709C85.2483 17.2306 85.5307 17.1978 85.7475 17.1726C85.9643 17.1448 86.1219 17.1007 86.2202 17.0402C86.3186 16.9797 86.3677 16.8814 86.3677 16.7452V16.7188C86.3677 16.3885 86.2744 16.1326 86.0879 15.9511C85.9038 15.7695 85.629 15.6788 85.2634 15.6788C84.8827 15.6788 84.5827 15.7632 84.3634 15.9321C84.1465 16.0985 83.9965 16.2839 83.9133 16.4881L82.8506 16.246C82.9767 15.8931 83.1607 15.6082 83.4028 15.3913C83.6473 15.172 83.9285 15.0132 84.2461 14.9148C84.5638 14.814 84.8979 14.7636 85.2483 14.7636C85.4803 14.7636 85.7261 14.7913 85.9858 14.8468C86.248 14.8997 86.4925 14.998 86.7194 15.1417C86.9489 15.2855 87.1367 15.4909 87.2829 15.7582C87.4292 16.0229 87.5023 16.3671 87.5023 16.7906V20.6481H86.398V19.8539H86.3526C86.2795 20.0001 86.1698 20.1438 86.0236 20.285C85.8773 20.4262 85.6895 20.5434 85.4601 20.6367C85.2307 20.73 84.9558 20.7767 84.6357 20.7767ZM84.8815 19.869C85.1941 19.869 85.4613 19.8072 85.6832 19.6837C85.9076 19.5602 86.0778 19.3988 86.1938 19.1996C86.3123 18.9979 86.3715 18.7824 86.3715 18.5529V17.8041C86.3312 17.8445 86.253 17.8823 86.137 17.9176C86.0236 17.9504 85.8937 17.9794 85.7475 18.0046C85.6013 18.0273 85.4588 18.0487 85.3202 18.0689C85.1815 18.0865 85.0655 18.1016 84.9722 18.1143C84.7529 18.142 84.5525 18.1886 84.3709 18.2542C84.1919 18.3197 84.0482 18.4143 83.9398 18.5378C83.8339 18.6588 83.781 18.8202 83.781 19.0219C83.781 19.3017 83.8843 19.5135 84.0911 19.6572C84.2978 19.7984 84.5613 19.869 84.8815 19.869ZM91.4552 20.7653C90.893 20.7653 90.4089 20.638 90.003 20.3833C89.5996 20.1262 89.2895 19.772 89.0727 19.3207C88.8558 18.8694 88.7474 18.3525 88.7474 17.7701C88.7474 17.1801 88.8584 16.6595 89.0802 16.2082C89.3021 15.7544 89.6147 15.4002 90.0181 15.1455C90.4215 14.8909 90.8968 14.7636 91.4439 14.7636C91.8851 14.7636 92.2784 14.8455 92.6238 15.0094C92.9692 15.1707 93.2478 15.3976 93.4596 15.6901C93.6739 15.9826 93.8012 16.3242 93.8415 16.715H92.741C92.6805 16.4427 92.5419 16.2082 92.325 16.0116C92.1107 15.8149 91.8233 15.7166 91.4628 15.7166C91.1476 15.7166 90.8716 15.7998 90.6346 15.9662C90.4001 16.1301 90.2173 16.3645 90.0862 16.6696C89.9551 16.9721 89.8895 17.3302 89.8895 17.7436C89.8895 18.1672 89.9538 18.5328 90.0824 18.8404C90.211 19.148 90.3925 19.3862 90.627 19.5551C90.864 19.724 91.1426 19.8085 91.4628 19.8085C91.6771 19.8085 91.8712 19.7694 92.0452 19.6913C92.2217 19.6106 92.3692 19.4959 92.4876 19.3471C92.6087 19.1984 92.6931 19.0194 92.741 18.8101H93.8415C93.8012 19.1858 93.6789 19.5211 93.4747 19.8161C93.2705 20.1111 92.9969 20.343 92.654 20.5119C92.3137 20.6808 91.9141 20.7653 91.4552 20.7653ZM97.7623 14.8392V15.7468H94.5894V14.8392H97.7623ZM95.4403 13.4475H96.5711V18.9425C96.5711 19.1618 96.6038 19.327 96.6694 19.4379C96.7349 19.5463 96.8194 19.6207 96.9228 19.661C97.0287 19.6988 97.1434 19.7177 97.2669 19.7177C97.3577 19.7177 97.4371 19.7114 97.5052 19.6988C97.5733 19.6862 97.6262 19.6761 97.664 19.6686L97.8682 20.6027C97.8027 20.6279 97.7094 20.6531 97.5884 20.6783C97.4674 20.7061 97.3161 20.7212 97.1346 20.7237C96.8371 20.7288 96.5597 20.6758 96.3026 20.5649C96.0454 20.4539 95.8374 20.2825 95.6786 20.0505C95.5197 19.8186 95.4403 19.5274 95.4403 19.1769V13.4475ZM104.543 14.8392V15.7468H101.37V14.8392H104.543ZM102.221 13.4475H103.352V18.9425C103.352 19.1618 103.385 19.327 103.45 19.4379C103.516 19.5463 103.6 19.6207 103.704 19.661C103.809 19.6988 103.924 19.7177 104.048 19.7177C104.138 19.7177 104.218 19.7114 104.286 19.6988C104.354 19.6862 104.407 19.6761 104.445 19.6686L104.649 20.6027C104.583 20.6279 104.49 20.6531 104.369 20.6783C104.248 20.7061 104.097 20.7212 103.915 20.7237C103.618 20.7288 103.341 20.6758 103.083 20.5649C102.826 20.4539 102.618 20.2825 102.459 20.0505C102.301 19.8186 102.221 19.5274 102.221 19.1769V13.4475ZM108.178 20.7653C107.634 20.7653 107.159 20.6405 106.753 20.3909C106.347 20.1413 106.032 19.7921 105.807 19.3433C105.583 18.8946 105.471 18.3702 105.471 17.7701C105.471 17.1675 105.583 16.6406 105.807 16.1893C106.032 15.738 106.347 15.3876 106.753 15.138C107.159 14.8884 107.634 14.7636 108.178 14.7636C108.723 14.7636 109.198 14.8884 109.604 15.138C110.01 15.3876 110.325 15.738 110.55 16.1893C110.774 16.6406 110.886 17.1675 110.886 17.7701C110.886 18.3702 110.774 18.8946 110.55 19.3433C110.325 19.7921 110.01 20.1413 109.604 20.3909C109.198 20.6405 108.723 20.7653 108.178 20.7653ZM108.182 19.8161C108.535 19.8161 108.828 19.7228 109.06 19.5362C109.292 19.3496 109.463 19.1013 109.574 18.7912C109.687 18.4811 109.744 18.1395 109.744 17.7663C109.744 17.3957 109.687 17.0553 109.574 16.7452C109.463 16.4326 109.292 16.1817 109.06 15.9927C108.828 15.8036 108.535 15.709 108.182 15.709C107.827 15.709 107.532 15.8036 107.297 15.9927C107.065 16.1817 106.893 16.4326 106.779 16.7452C106.668 17.0553 106.613 17.3957 106.613 17.7663C106.613 18.1395 106.668 18.4811 106.779 18.7912C106.893 19.1013 107.065 19.3496 107.297 19.5362C107.532 19.7228 107.827 19.8161 108.182 19.8161ZM116.657 20.7767C116.289 20.7767 115.956 20.7086 115.659 20.5724C115.361 20.4338 115.126 20.2333 114.952 19.9711C114.78 19.7089 114.694 19.3875 114.694 19.0068C114.694 18.679 114.758 18.4092 114.884 18.1975C115.01 17.9857 115.18 17.818 115.394 17.6945C115.608 17.5709 115.848 17.4776 116.113 17.4146C116.377 17.3516 116.647 17.3037 116.922 17.2709C117.27 17.2306 117.552 17.1978 117.769 17.1726C117.986 17.1448 118.144 17.1007 118.242 17.0402C118.34 16.9797 118.389 16.8814 118.389 16.7452V16.7188C118.389 16.3885 118.296 16.1326 118.109 15.9511C117.925 15.7695 117.651 15.6788 117.285 15.6788C116.904 15.6788 116.604 15.7632 116.385 15.9321C116.168 16.0985 116.018 16.2839 115.935 16.4881L114.872 16.246C114.998 15.8931 115.182 15.6082 115.424 15.3913C115.669 15.172 115.95 15.0132 116.268 14.9148C116.585 14.814 116.919 14.7636 117.27 14.7636C117.502 14.7636 117.748 14.7913 118.007 14.8468C118.27 14.8997 118.514 14.998 118.741 15.1417C118.97 15.2855 119.158 15.4909 119.305 15.7582C119.451 16.0229 119.524 16.3671 119.524 16.7906V20.6481H118.42V19.8539H118.374C118.301 20.0001 118.191 20.1438 118.045 20.285C117.899 20.4262 117.711 20.5434 117.482 20.6367C117.252 20.73 116.977 20.7767 116.657 20.7767ZM116.903 19.869C117.216 19.869 117.483 19.8072 117.705 19.6837C117.929 19.5602 118.099 19.3988 118.215 19.1996C118.334 18.9979 118.393 18.7824 118.393 18.5529V17.8041C118.353 17.8445 118.275 17.8823 118.159 17.9176C118.045 17.9504 117.915 17.9794 117.769 18.0046C117.623 18.0273 117.48 18.0487 117.342 18.0689C117.203 18.0865 117.087 18.1016 116.994 18.1143C116.774 18.142 116.574 18.1886 116.393 18.2542C116.214 18.3197 116.07 18.4143 115.961 18.5378C115.856 18.6588 115.803 18.8202 115.803 19.0219C115.803 19.3017 115.906 19.5135 116.113 19.6572C116.319 19.7984 116.583 19.869 116.903 19.869ZM123.939 20.6481V12.9029H125.108V19.6421H128.617V20.6481H123.939ZM129.86 20.6481V14.8392H130.99V20.6481H129.86ZM130.431 13.9429C130.234 13.9429 130.065 13.8774 129.924 13.7463C129.785 13.6126 129.716 13.4538 129.716 13.2697C129.716 13.0832 129.785 12.9243 129.924 12.7932C130.065 12.6596 130.234 12.5928 130.431 12.5928C130.627 12.5928 130.795 12.6596 130.934 12.7932C131.075 12.9243 131.145 13.0832 131.145 13.2697C131.145 13.4538 131.075 13.6126 130.934 13.7463C130.795 13.8774 130.627 13.9429 130.431 13.9429ZM136.864 16.2574L135.84 16.4389C135.797 16.3078 135.729 16.183 135.635 16.0645C135.545 15.946 135.421 15.8489 135.265 15.7733C135.108 15.6977 134.913 15.6599 134.679 15.6599C134.358 15.6599 134.091 15.7317 133.877 15.8754C133.663 16.0166 133.555 16.1994 133.555 16.4238C133.555 16.6179 133.627 16.7742 133.771 16.8927C133.915 17.0112 134.147 17.1083 134.467 17.1839L135.39 17.3957C135.924 17.5192 136.322 17.7096 136.585 17.9668C136.847 18.2239 136.978 18.558 136.978 18.9689C136.978 19.3169 136.877 19.627 136.675 19.8993C136.476 20.169 136.198 20.3808 135.84 20.5346C135.484 20.6884 135.072 20.7653 134.603 20.7653C133.952 20.7653 133.422 20.6266 133.011 20.3493C132.6 20.0695 132.348 19.6724 132.254 19.158L133.347 18.9916C133.415 19.2765 133.555 19.4921 133.767 19.6383C133.979 19.782 134.255 19.8539 134.595 19.8539C134.966 19.8539 135.262 19.777 135.484 19.6232C135.706 19.4669 135.817 19.2765 135.817 19.0521C135.817 18.8706 135.749 18.7181 135.613 18.5945C135.479 18.471 135.274 18.3777 134.996 18.3147L134.013 18.0991C133.471 17.9756 133.07 17.7789 132.81 17.5092C132.553 17.2394 132.425 16.8978 132.425 16.4843C132.425 16.1414 132.52 15.8414 132.712 15.5842C132.904 15.3271 133.168 15.1266 133.506 14.9829C133.844 14.8367 134.231 14.7636 134.667 14.7636C135.295 14.7636 135.789 14.8997 136.15 15.172C136.51 15.4418 136.748 15.8036 136.864 16.2574ZM140.933 14.8392V15.7468H137.76V14.8392H140.933ZM138.611 13.4475H139.741V18.9425C139.741 19.1618 139.774 19.327 139.84 19.4379C139.905 19.5463 139.99 19.6207 140.093 19.661C140.199 19.6988 140.314 19.7177 140.437 19.7177C140.528 19.7177 140.608 19.7114 140.676 19.6988C140.744 19.6862 140.797 19.6761 140.834 19.6686L141.039 20.6027C140.973 20.6279 140.88 20.6531 140.759 20.6783C140.638 20.7061 140.486 20.7212 140.305 20.7237C140.007 20.7288 139.73 20.6758 139.473 20.5649C139.216 20.4539 139.008 20.2825 138.849 20.0505C138.69 19.8186 138.611 19.5274 138.611 19.1769V13.4475Z" fill="#25C9BA"/>
<path d="M17.0102 15.446H7.88745V16.9708H17.0102V15.446Z" fill="#25C9BA"/>
<path d="M13.2098 11.6481H11.6851V20.7708H13.2098V11.6481Z" fill="#25C9BA"/>
<rect x="158.735" y="1.24803" width="86.508" height="29.952" rx="3.744" stroke="#25C9BA" stroke-width="0.832"/>
<g clip-path="url(#clip0_249_169)">
<path d="M175.791 14.0063L172.811 16.9865V9.98438H171.423V16.9865L168.443 14.0063L167.471 14.9764L172.117 19.6223L176.763 14.9764L175.791 14.0063Z" fill="#25C9BA"/>
<path d="M175.93 21.0782H168.303V22.4644H175.93V21.0782Z" fill="#25C9BA"/>
</g>
<path d="M183.298 20.6484V12.9032H188.154V13.9092H184.467V16.269H187.901V17.2712H184.467V19.6424H188.2V20.6484H183.298ZM190.517 14.8395L191.799 17.101L193.092 14.8395H194.329L192.518 17.7439L194.344 20.6484H193.108L191.799 18.4776L190.494 20.6484H189.254L191.062 17.7439L189.277 14.8395H190.517ZM195.49 22.8267V14.8395H196.594V15.7812H196.689C196.754 15.6602 196.849 15.5202 196.973 15.3614C197.096 15.2026 197.268 15.0639 197.487 14.9454C197.706 14.8244 197.996 14.7639 198.357 14.7639C198.826 14.7639 199.244 14.8824 199.612 15.1194C199.98 15.3564 200.269 15.698 200.478 16.1442C200.69 16.5905 200.796 17.1275 200.796 17.7553C200.796 18.3831 200.691 18.9213 200.482 19.3701C200.273 19.8164 199.985 20.1605 199.62 20.4026C199.254 20.6421 198.837 20.7618 198.368 20.7618C198.015 20.7618 197.726 20.7026 197.502 20.5841C197.28 20.4656 197.106 20.3269 196.98 20.1681C196.854 20.0092 196.757 19.8681 196.689 19.7445H196.621V22.8267H195.49ZM196.598 17.7439C196.598 18.1524 196.657 18.5104 196.776 18.818C196.894 19.1256 197.066 19.3663 197.29 19.5403C197.515 19.7117 197.789 19.7975 198.115 19.7975C198.452 19.7975 198.735 19.708 198.962 19.529C199.189 19.3474 199.36 19.1016 199.476 18.7915C199.595 18.4814 199.654 18.1322 199.654 17.7439C199.654 17.3607 199.596 17.0166 199.48 16.7115C199.366 16.4064 199.195 16.1657 198.966 15.9892C198.739 15.8127 198.455 15.7244 198.115 15.7244C197.787 15.7244 197.51 15.8089 197.283 15.9778C197.058 16.1468 196.888 16.3825 196.772 16.685C196.656 16.9876 196.598 17.3405 196.598 17.7439ZM204.51 20.7656C203.965 20.7656 203.49 20.6408 203.084 20.3912C202.678 20.1416 202.363 19.7924 202.138 19.3436C201.914 18.8949 201.802 18.3705 201.802 17.7704C201.802 17.1678 201.914 16.6409 202.138 16.1896C202.363 15.7383 202.678 15.3879 203.084 15.1383C203.49 14.8887 203.965 14.7639 204.51 14.7639C205.054 14.7639 205.53 14.8887 205.935 15.1383C206.341 15.3879 206.657 15.7383 206.881 16.1896C207.105 16.6409 207.217 17.1678 207.217 17.7704C207.217 18.3705 207.105 18.8949 206.881 19.3436C206.657 19.7924 206.341 20.1416 205.935 20.3912C205.53 20.6408 205.054 20.7656 204.51 20.7656ZM204.513 19.8164C204.866 19.8164 205.159 19.7231 205.391 19.5365C205.623 19.35 205.794 19.1016 205.905 18.7915C206.019 18.4814 206.075 18.1398 206.075 17.7666C206.075 17.396 206.019 17.0556 205.905 16.7455C205.794 16.4329 205.623 16.182 205.391 15.993C205.159 15.8039 204.866 15.7093 204.513 15.7093C204.158 15.7093 203.863 15.8039 203.629 15.993C203.397 16.182 203.224 16.4329 203.11 16.7455C202.999 17.0556 202.944 17.396 202.944 17.7666C202.944 18.1398 202.999 18.4814 203.11 18.7915C203.224 19.1016 203.397 19.35 203.629 19.5365C203.863 19.7231 204.158 19.8164 204.513 19.8164ZM208.48 20.6484V14.8395H209.573V15.7623H209.633C209.739 15.4496 209.926 15.2038 210.193 15.0248C210.463 14.8433 210.768 14.7525 211.108 14.7525C211.179 14.7525 211.262 14.755 211.358 14.7601C211.456 14.7651 211.533 14.7714 211.588 14.779V15.8606C211.543 15.848 211.462 15.8341 211.346 15.819C211.23 15.8013 211.114 15.7925 210.998 15.7925C210.731 15.7925 210.493 15.8492 210.284 15.9627C210.077 16.0736 209.913 16.2287 209.792 16.4279C209.671 16.6245 209.61 16.8489 209.61 17.101V20.6484H208.48ZM215.622 14.8395V15.7471H212.449V14.8395H215.622ZM213.3 13.4478H214.43V18.9428C214.43 19.1621 214.463 19.3273 214.529 19.4382C214.594 19.5466 214.679 19.621 214.782 19.6613C214.888 19.6991 215.003 19.718 215.126 19.718C215.217 19.718 215.296 19.7117 215.364 19.6991C215.433 19.6865 215.485 19.6764 215.523 19.6689L215.728 20.603C215.662 20.6282 215.569 20.6534 215.448 20.6786C215.327 20.7064 215.175 20.7215 214.994 20.724C214.696 20.7291 214.419 20.6761 214.162 20.5652C213.905 20.4542 213.697 20.2828 213.538 20.0508C213.379 19.8189 213.3 19.5277 213.3 19.1772V13.4478Z" fill="#25C9BA"/>
<path fill-rule="evenodd" clip-rule="evenodd" d="M228.289 15.9142C228.419 15.7725 228.63 15.7725 228.76 15.9142L230.951 18.3039C231.081 18.4456 231.292 18.4456 231.422 18.3039L233.614 15.9142C233.744 15.7725 233.954 15.7725 234.084 15.9142C234.214 16.0559 234.214 16.2857 234.084 16.4274L231.893 18.8171C231.503 19.2422 230.871 19.2422 230.481 18.8171L228.289 16.4274C228.159 16.2857 228.159 16.0559 228.289 15.9142Z" fill="#25C9BA"/>
<rect x="250.075" y="1.24803" width="81.508" height="29.952" rx="3.744" stroke="#25C9BA" stroke-width="0.832"/>
<path d="M263.659 22.3297C264.492 22.3297 265.166 21.6558 265.166 20.822H262.151C262.151 21.6558 262.825 22.3297 263.659 22.3297Z" fill="#25C9BA"/>
<path d="M267.967 18.4564C267.73 18.4564 267.537 18.2641 267.537 18.0265V15.4411C267.537 13.6354 266.302 12.1169 264.63 11.685V11.24C264.628 10.7022 264.194 10.2702 263.658 10.2702C263.122 10.2702 262.688 10.7043 262.688 11.24V11.685C261.016 12.1148 259.781 13.6332 259.781 15.4411V18.0265C259.781 18.2641 259.586 18.4564 259.351 18.4564C258.876 18.4564 258.489 18.843 258.489 19.3182C258.489 19.7934 258.876 20.18 259.353 20.18H267.965C268.442 20.18 268.829 19.7934 268.829 19.3182C268.829 18.843 268.44 18.4564 267.967 18.4564Z" fill="#25C9BA"/>
<path d="M275.293 20.6481H274.052L276.839 12.9029H278.19L280.977 20.6481H279.736L277.547 14.3097H277.486L275.293 20.6481ZM275.501 17.6151H279.524V18.5983H275.501V17.6151ZM283.135 12.9029V20.6481H282.004V12.9029H283.135ZM287.16 20.7653C286.588 20.7653 286.095 20.643 285.681 20.3985C285.27 20.1514 284.953 19.8047 284.728 19.3585C284.506 18.9097 284.395 18.384 284.395 17.7815C284.395 17.1864 284.506 16.662 284.728 16.2082C284.953 15.7544 285.265 15.4002 285.666 15.1455C286.07 14.8909 286.541 14.7636 287.081 14.7636C287.408 14.7636 287.726 14.8178 288.034 14.9262C288.341 15.0346 288.617 15.2048 288.862 15.4367C289.106 15.6687 289.299 15.97 289.44 16.3406C289.582 16.7087 289.652 17.1562 289.652 17.6831V18.084H285.035V17.2369H288.544C288.544 16.9394 288.484 16.6759 288.363 16.4465C288.242 16.2145 288.071 16.0317 287.852 15.8981C287.635 15.7645 287.381 15.6977 287.088 15.6977C286.77 15.6977 286.493 15.7758 286.256 15.9321C286.022 16.0859 285.84 16.2876 285.712 16.5372C285.585 16.7843 285.522 17.0528 285.522 17.3428V18.0046C285.522 18.3928 285.591 18.7231 285.727 18.9954C285.865 19.2677 286.058 19.4757 286.305 19.6194C286.552 19.7606 286.841 19.8312 287.171 19.8312C287.386 19.8312 287.581 19.8009 287.758 19.7404C287.934 19.6774 288.087 19.5841 288.215 19.4606C288.344 19.337 288.442 19.1845 288.51 19.003L289.58 19.1959C289.495 19.511 289.341 19.7871 289.119 20.0241C288.9 20.2585 288.624 20.4413 288.291 20.5724C287.96 20.701 287.584 20.7653 287.16 20.7653ZM290.907 20.6481V14.8392H292V15.762H292.06C292.166 15.4493 292.353 15.2035 292.62 15.0245C292.89 14.843 293.195 14.7522 293.535 14.7522C293.606 14.7522 293.689 14.7547 293.785 14.7598C293.883 14.7648 293.96 14.7711 294.015 14.7787V15.8603C293.97 15.8477 293.889 15.8338 293.773 15.8187C293.657 15.801 293.541 15.7922 293.426 15.7922C293.158 15.7922 292.92 15.8489 292.711 15.9624C292.504 16.0733 292.34 16.2284 292.219 16.4276C292.098 16.6242 292.038 16.8486 292.038 17.1007V20.6481H290.907ZM298.049 14.8392V15.7468H294.876V14.8392H298.049ZM295.727 13.4475H296.858V18.9425C296.858 19.1618 296.89 19.327 296.956 19.4379C297.021 19.5463 297.106 19.6207 297.209 19.661C297.315 19.6988 297.43 19.7177 297.553 19.7177C297.644 19.7177 297.724 19.7114 297.792 19.6988C297.86 19.6862 297.913 19.6761 297.95 19.6686L298.155 20.6027C298.089 20.6279 297.996 20.6531 297.875 20.6783C297.754 20.7061 297.603 20.7212 297.421 20.7237C297.124 20.7288 296.846 20.6758 296.589 20.5649C296.332 20.4539 296.124 20.2825 295.965 20.0505C295.806 19.8186 295.727 19.5274 295.727 19.1769V13.4475ZM302.209 12.9029H303.627L306.093 18.9236H306.183L308.649 12.9029H310.067V20.6481H308.956V15.0434H308.884L306.599 20.6367H305.677L303.392 15.0396H303.321V20.6481H302.209V12.9029ZM314.179 20.7653C313.607 20.7653 313.114 20.643 312.7 20.3985C312.29 20.1514 311.972 19.8047 311.747 19.3585C311.526 18.9097 311.415 18.384 311.415 17.7815C311.415 17.1864 311.526 16.662 311.747 16.2082C311.972 15.7544 312.284 15.4002 312.685 15.1455C313.089 14.8909 313.56 14.7636 314.1 14.7636C314.428 14.7636 314.745 14.8178 315.053 14.9262C315.36 15.0346 315.636 15.2048 315.881 15.4367C316.126 15.6687 316.318 15.97 316.46 16.3406C316.601 16.7087 316.671 17.1562 316.671 17.6831V18.084H312.054V17.2369H315.563C315.563 16.9394 315.503 16.6759 315.382 16.4465C315.261 16.2145 315.091 16.0317 314.871 15.8981C314.654 15.7645 314.4 15.6977 314.107 15.6977C313.79 15.6977 313.512 15.7758 313.275 15.9321C313.041 16.0859 312.859 16.2876 312.731 16.5372C312.605 16.7843 312.542 17.0528 312.542 17.3428V18.0046C312.542 18.3928 312.61 18.7231 312.746 18.9954C312.885 19.2677 313.077 19.4757 313.324 19.6194C313.572 19.7606 313.86 19.8312 314.191 19.8312C314.405 19.8312 314.6 19.8009 314.777 19.7404C314.953 19.6774 315.106 19.5841 315.234 19.4606C315.363 19.337 315.461 19.1845 315.529 19.003L316.6 19.1959C316.514 19.511 316.36 19.7871 316.138 20.0241C315.919 20.2585 315.643 20.4413 315.31 20.5724C314.98 20.701 314.603 20.7653 314.179 20.7653Z" fill="#25C9BA"/>
<rect x="336.415" y="1.24803" width="81.508" height="29.952" rx="3.744" stroke="#25C9BA" stroke-width="0.832"/>
<path d="M351.53 14.283C351.642 14.1707 351.642 13.9871 351.53 13.8726C351.417 13.7581 351.234 13.7581 351.119 13.8726L347.91 17.0802C347.795 17.1925 347.795 17.3761 347.91 17.4906C348.022 17.6051 348.206 17.6051 348.32 17.4906L351.53 14.283ZM347.463 17.9377C347.409 17.8837 347.335 17.8535 347.257 17.8535C347.18 17.8535 347.106 17.8837 347.052 17.9377L346.59 18.4021C346.536 18.4561 346.506 18.5295 346.506 18.6073C346.506 18.6851 346.536 18.7585 346.59 18.8125C346.644 18.8665 346.717 18.8967 346.795 18.8967C346.873 18.8967 346.946 18.8665 347 18.8125L347.463 18.3481C347.517 18.2941 347.547 18.2207 347.547 18.1429C347.547 18.0651 347.517 17.9917 347.463 17.9377ZM354.502 15.8123L348.489 21.8257L344.866 18.2034L350.884 12.1943L354.504 15.8123H354.502ZM344.529 18.6851L344.069 22.3074C344.058 22.3895 344.084 22.4737 344.14 22.5363C344.197 22.599 344.277 22.6357 344.359 22.6335H344.395L348.018 22.1735L344.527 18.6851H344.529ZM351.292 11.7839L351.871 11.205C352.456 10.6218 353.403 10.6218 353.988 11.205L355.493 12.7062C355.774 12.987 355.932 13.3671 355.932 13.7646C355.932 14.162 355.774 14.5422 355.493 14.823L354.915 15.4019L351.294 11.7839H351.292Z" fill="#25C9BA"/>
<path d="M361.633 20.6484H360.392L363.179 12.9033H364.529L367.317 20.6484H366.076L363.887 14.3101H363.826L361.633 20.6484ZM361.841 17.6154H365.864V18.5987H361.841V17.6154ZM370.425 20.7619C369.956 20.7619 369.538 20.6421 369.17 20.4026C368.804 20.1606 368.517 19.8164 368.308 19.3702C368.101 18.9214 367.997 18.3831 367.997 17.7553C367.997 17.1276 368.102 16.5905 368.311 16.1443C368.523 15.698 368.813 15.3564 369.181 15.1194C369.549 14.8824 369.966 14.7639 370.433 14.7639C370.793 14.7639 371.083 14.8244 371.303 14.9455C371.525 15.064 371.696 15.2026 371.817 15.3615C371.941 15.5203 372.036 15.6602 372.104 15.7812H372.173V12.9033H373.303V20.6484H372.199V19.7446H372.104C372.036 19.8681 371.938 20.0093 371.809 20.1681C371.683 20.327 371.509 20.4656 371.288 20.5841C371.066 20.7026 370.778 20.7619 370.425 20.7619ZM370.675 19.7975C371 19.7975 371.275 19.7118 371.499 19.5404C371.726 19.3664 371.898 19.1256 372.014 18.818C372.132 18.5104 372.191 18.1524 372.191 17.744C372.191 17.3406 372.133 16.9876 372.017 16.6851C371.902 16.3825 371.731 16.1468 371.507 15.9779C371.283 15.809 371.005 15.7245 370.675 15.7245C370.335 15.7245 370.051 15.8128 369.824 15.9892C369.597 16.1657 369.426 16.4065 369.31 16.7116C369.196 17.0166 369.14 17.3608 369.14 17.744C369.14 18.1323 369.198 18.4815 369.313 18.7916C369.429 19.1017 369.601 19.3475 369.828 19.529C370.057 19.708 370.34 19.7975 370.675 19.7975ZM377.092 20.7619C376.623 20.7619 376.204 20.6421 375.836 20.4026C375.471 20.1606 375.183 19.8164 374.974 19.3702C374.767 18.9214 374.664 18.3831 374.664 17.7553C374.664 17.1276 374.768 16.5905 374.978 16.1443C375.189 15.698 375.479 15.3564 375.848 15.1194C376.216 14.8824 376.633 14.7639 377.099 14.7639C377.46 14.7639 377.75 14.8244 377.969 14.9455C378.191 15.064 378.362 15.2026 378.483 15.3615C378.607 15.5203 378.703 15.6602 378.771 15.7812H378.839V12.9033H379.97V20.6484H378.865V19.7446H378.771C378.703 19.8681 378.604 20.0093 378.476 20.1681C378.35 20.327 378.176 20.4656 377.954 20.5841C377.732 20.7026 377.445 20.7619 377.092 20.7619ZM377.341 19.7975C377.667 19.7975 377.941 19.7118 378.166 19.5404C378.393 19.3664 378.564 19.1256 378.68 18.818C378.799 18.5104 378.858 18.1524 378.858 17.744C378.858 17.3406 378.8 16.9876 378.684 16.6851C378.568 16.3825 378.398 16.1468 378.173 15.9779C377.949 15.809 377.672 15.7245 377.341 15.7245C377.001 15.7245 376.717 15.8128 376.49 15.9892C376.264 16.1657 376.092 16.4065 375.976 16.7116C375.863 17.0166 375.806 17.3608 375.806 17.744C375.806 18.1323 375.864 18.4815 375.98 18.7916C376.096 19.1017 376.267 19.3475 376.494 19.529C376.724 19.708 377.006 19.7975 377.341 19.7975ZM390.744 12.9033V20.6484H389.67L385.733 14.9681H385.661V20.6484H384.493V12.9033H385.574L389.515 18.5911H389.587V12.9033H390.744ZM394.805 20.7657C394.26 20.7657 393.785 20.6409 393.379 20.3913C392.973 20.1417 392.658 19.7925 392.434 19.3437C392.209 18.8949 392.097 18.3705 392.097 17.7705C392.097 17.1679 392.209 16.641 392.434 16.1897C392.658 15.7384 392.973 15.3879 393.379 15.1383C393.785 14.8887 394.26 14.7639 394.805 14.7639C395.349 14.7639 395.825 14.8887 396.231 15.1383C396.636 15.3879 396.952 15.7384 397.176 16.1897C397.4 16.641 397.513 17.1679 397.513 17.7705C397.513 18.3705 397.4 18.8949 397.176 19.3437C396.952 19.7925 396.636 20.1417 396.231 20.3913C395.825 20.6409 395.349 20.7657 394.805 20.7657ZM394.809 19.8164C395.162 19.8164 395.454 19.7232 395.686 19.5366C395.918 19.35 396.089 19.1017 396.2 18.7916C396.314 18.4815 396.37 18.1398 396.37 17.7667C396.37 17.3961 396.314 17.0557 396.2 16.7456C396.089 16.433 395.918 16.1821 395.686 15.993C395.454 15.8039 395.162 15.7094 394.809 15.7094C394.453 15.7094 394.158 15.8039 393.924 15.993C393.692 16.1821 393.519 16.433 393.406 16.7456C393.295 17.0557 393.239 17.3961 393.239 17.7667C393.239 18.1398 393.295 18.4815 393.406 18.7916C393.519 19.1017 393.692 19.35 393.924 19.5366C394.158 19.7232 394.453 19.8164 394.809 19.8164ZM401.486 14.8396V15.7472H398.313V14.8396H401.486ZM399.164 13.4479H400.295V18.9428C400.295 19.1622 400.328 19.3273 400.393 19.4383C400.459 19.5467 400.543 19.621 400.647 19.6614C400.753 19.6992 400.867 19.7181 400.991 19.7181C401.082 19.7181 401.161 19.7118 401.229 19.6992C401.297 19.6866 401.35 19.6765 401.388 19.6689L401.592 20.6031C401.527 20.6283 401.433 20.6535 401.312 20.6787C401.191 20.7064 401.04 20.7216 400.859 20.7241C400.561 20.7291 400.284 20.6762 400.027 20.5652C399.769 20.4543 399.561 20.2829 399.403 20.0509C399.244 19.819 399.164 19.5278 399.164 19.1773V13.4479ZM405.178 20.7657C404.606 20.7657 404.113 20.6434 403.7 20.3988C403.289 20.1518 402.971 19.8051 402.747 19.3588C402.525 18.9101 402.414 18.3844 402.414 17.7818C402.414 17.1868 402.525 16.6624 402.747 16.2086C402.971 15.7548 403.284 15.4005 403.685 15.1459C404.088 14.8912 404.559 14.7639 405.099 14.7639C405.427 14.7639 405.744 14.8181 406.052 14.9265C406.36 15.035 406.636 15.2051 406.88 15.4371C407.125 15.669 407.318 15.9703 407.459 16.3409C407.6 16.709 407.671 17.1566 407.671 17.6835V18.0844H403.053V17.2372H406.562C406.562 16.9397 406.502 16.6763 406.381 16.4468C406.26 16.2149 406.09 16.0321 405.87 15.8985C405.654 15.7648 405.399 15.698 405.106 15.698C404.789 15.698 404.511 15.7762 404.274 15.9325C404.04 16.0863 403.858 16.288 403.73 16.5376C403.604 16.7847 403.541 17.0532 403.541 17.3431V18.0049C403.541 18.3932 403.609 18.7235 403.745 18.9958C403.884 19.2681 404.077 19.4761 404.324 19.6198C404.571 19.761 404.859 19.8316 405.19 19.8316C405.404 19.8316 405.599 19.8013 405.776 19.7408C405.952 19.6778 406.105 19.5845 406.233 19.4609C406.362 19.3374 406.46 19.1849 406.528 19.0033L407.599 19.1962C407.513 19.5114 407.359 19.7874 407.137 20.0244C406.918 20.2589 406.642 20.4417 406.309 20.5728C405.979 20.7014 405.602 20.7657 405.178 20.7657Z" fill="#25C9BA"/>
<defs>
<clipPath id="clip0_249_169">
<rect width="9.29178" height="12.48" fill="white" transform="translate(167.471 9.98438)"/>
</clipPath>
</defs>
</svg>
