<svg width="57" height="18" viewBox="0 0 57 18" fill="none" xmlns="http://www.w3.org/2000/svg">
<path d="M0.416 4.16C0.416 2.09225 2.09225 0.416 4.16 0.416H52.84C54.9078 0.416 56.584 2.09225 56.584 4.16V13.84C56.584 15.9078 54.9078 17.584 52.84 17.584H4.16C2.09224 17.584 0.416 15.9078 0.416 13.84V4.16Z" stroke="white" stroke-width="0.832"/>
<path d="M11.7926 12.5V5.95455H15.7429V6.65767H12.5852V8.86932H15.5384V9.57244H12.5852V11.7969H15.794V12.5H11.7926ZM17.6317 7.59091L18.8079 9.59801L19.984 7.59091H20.8533L19.2681 10.0455L20.8533 12.5H19.984L18.8079 10.5952L17.6317 12.5H16.7624L18.3221 10.0455L16.7624 7.59091H17.6317ZM21.9296 14.3409V7.59091H22.6583V8.37074H22.7478C22.8032 8.28551 22.8799 8.17685 22.9779 8.04474C23.078 7.91051 23.2208 7.79119 23.4062 7.68679C23.5937 7.58026 23.8472 7.52699 24.1668 7.52699C24.5802 7.52699 24.9445 7.63033 25.2599 7.837C25.5752 8.04368 25.8213 8.33665 25.9981 8.71591C26.175 9.09517 26.2634 9.54261 26.2634 10.0582C26.2634 10.5781 26.175 11.0288 25.9981 11.4102C25.8213 11.7894 25.5763 12.0835 25.2631 12.2923C24.9498 12.4989 24.5887 12.6023 24.1796 12.6023C23.8643 12.6023 23.6118 12.5501 23.4221 12.4457C23.2325 12.3391 23.0866 12.2187 22.9843 12.0845C22.882 11.9482 22.8032 11.8352 22.7478 11.7457H22.6839V14.3409H21.9296ZM22.6711 10.0455C22.6711 10.4162 22.7254 10.7433 22.8341 11.0266C22.9427 11.3079 23.1015 11.5284 23.3103 11.6882C23.5191 11.8459 23.7748 11.9247 24.0773 11.9247C24.3927 11.9247 24.6558 11.8416 24.8667 11.6754C25.0798 11.5071 25.2396 11.2812 25.3461 10.9979C25.4548 10.7124 25.5091 10.3949 25.5091 10.0455C25.5091 9.70028 25.4559 9.3892 25.3493 9.11222C25.2449 8.8331 25.0862 8.61257 24.8731 8.45064C24.6622 8.28658 24.3969 8.20455 24.0773 8.20455C23.7705 8.20455 23.5127 8.28232 23.3039 8.43786C23.0951 8.59126 22.9374 8.80646 22.8309 9.08345C22.7243 9.35831 22.6711 9.67898 22.6711 10.0455ZM29.4083 12.6023C28.9651 12.6023 28.5763 12.4968 28.2417 12.2859C27.9094 12.0749 27.6494 11.7798 27.4619 11.4006C27.2765 11.0213 27.1839 10.5781 27.1839 10.071C27.1839 9.55966 27.2765 9.11328 27.4619 8.73189C27.6494 8.3505 27.9094 8.05433 28.2417 7.84339C28.5763 7.63246 28.9651 7.52699 29.4083 7.52699C29.8515 7.52699 30.2393 7.63246 30.5716 7.84339C30.9062 8.05433 31.1661 8.3505 31.3515 8.73189C31.539 9.11328 31.6327 9.55966 31.6327 10.071C31.6327 10.5781 31.539 11.0213 31.3515 11.4006C31.1661 11.7798 30.9062 12.0749 30.5716 12.2859C30.2393 12.4968 29.8515 12.6023 29.4083 12.6023ZM29.4083 11.9247C29.7449 11.9247 30.0219 11.8384 30.2393 11.6658C30.4566 11.4933 30.6175 11.2663 30.7219 10.9851C30.8263 10.7038 30.8785 10.3991 30.8785 10.071C30.8785 9.7429 30.8263 9.43714 30.7219 9.15376C30.6175 8.87038 30.4566 8.64134 30.2393 8.46662C30.0219 8.2919 29.7449 8.20455 29.4083 8.20455C29.0716 8.20455 28.7947 8.2919 28.5773 8.46662C28.36 8.64134 28.1991 8.87038 28.0947 9.15376C27.9903 9.43714 27.9381 9.7429 27.9381 10.071C27.9381 10.3991 27.9903 10.7038 28.0947 10.9851C28.1991 11.2663 28.36 11.4933 28.5773 11.6658C28.7947 11.8384 29.0716 11.9247 29.4083 11.9247ZM32.7841 12.5V7.59091H33.5128V8.33239H33.5639C33.6534 8.08949 33.8153 7.8924 34.0497 7.74112C34.2841 7.58984 34.5483 7.5142 34.8423 7.5142C34.8977 7.5142 34.967 7.51527 35.0501 7.5174C35.1332 7.51953 35.196 7.52273 35.2386 7.52699V8.29403C35.2131 8.28764 35.1545 8.27805 35.0629 8.26527C34.9734 8.25035 34.8786 8.2429 34.7784 8.2429C34.5398 8.2429 34.3267 8.29297 34.1392 8.39311C33.9538 8.49112 33.8068 8.62749 33.6982 8.8022C33.5916 8.97479 33.5384 9.17187 33.5384 9.39347V12.5H32.7841ZM38.5753 7.59091V8.23011H36.0312V7.59091H38.5753ZM36.7727 6.41477H37.527V11.0938C37.527 11.3068 37.5579 11.4666 37.6197 11.5732C37.6836 11.6776 37.7646 11.7479 37.8626 11.7841C37.9627 11.8182 38.0682 11.8352 38.179 11.8352C38.2621 11.8352 38.3303 11.831 38.3835 11.8224C38.4368 11.8118 38.4794 11.8033 38.5114 11.7969L38.6648 12.4744C38.6136 12.4936 38.5423 12.5128 38.4506 12.532C38.359 12.5533 38.2429 12.5639 38.1023 12.5639C37.8892 12.5639 37.6804 12.5181 37.4759 12.4265C37.2734 12.3349 37.1051 12.1953 36.9709 12.0078C36.8388 11.8203 36.7727 11.5838 36.7727 11.2983V6.41477Z" fill="white"/>
<path fill-rule="evenodd" clip-rule="evenodd" d="M44.2574 7.94228C44.3874 7.80057 44.5981 7.80057 44.728 7.94228L46.9198 10.332C47.0498 10.4737 47.2605 10.4737 47.3904 10.332L49.5822 7.94228C49.7122 7.80057 49.9229 7.80057 50.0528 7.94228C50.1828 8.08398 50.1828 8.31373 50.0528 8.45544L47.8611 10.8452C47.4712 11.2703 46.839 11.2703 46.4491 10.8452L44.2574 8.45544C44.1274 8.31373 44.1274 8.08398 44.2574 7.94228Z" fill="white" fill-opacity="0.4"/>
</svg>
