<svg width="192" height="31" viewBox="0 0 192 31" fill="none" xmlns="http://www.w3.org/2000/svg">
<rect x="101.416" y="0.416" width="90.168" height="30.168" rx="3.744" stroke="#93A2AD" stroke-width="0.832"/>
<path d="M116.259 13.2717V19.9277H115.453V13.2717H116.259ZM118.539 16.9247V19.9277H117.772V14.9357H118.513V15.7157H118.578C118.695 15.4622 118.872 15.2586 119.111 15.1047C119.349 14.9487 119.657 14.8707 120.034 14.8707C120.372 14.8707 120.667 14.9401 120.921 15.0787C121.174 15.2152 121.371 15.4232 121.512 15.7027C121.653 15.9801 121.724 16.3311 121.724 16.7557V19.9277H120.957V16.8077C120.957 16.4156 120.855 16.1101 120.651 15.8912C120.447 15.6702 120.168 15.5597 119.813 15.5597C119.568 15.5597 119.349 15.6128 119.156 15.719C118.965 15.8252 118.815 15.9801 118.704 16.1837C118.594 16.3874 118.539 16.6344 118.539 16.9247ZM125.01 20.0317C124.594 20.0317 124.227 19.9267 123.908 19.7165C123.59 19.5042 123.341 19.2052 123.161 18.8195C122.981 18.4317 122.891 17.9734 122.891 17.4447C122.891 16.9204 122.981 16.4654 123.161 16.0797C123.341 15.6941 123.591 15.3962 123.912 15.186C124.232 14.9758 124.603 14.8707 125.023 14.8707C125.348 14.8707 125.605 14.9249 125.793 15.0332C125.984 15.1394 126.129 15.2607 126.229 15.3972C126.331 15.5316 126.41 15.6421 126.466 15.7287H126.531V13.2717H127.298V19.9277H126.557V19.1607H126.466C126.41 19.2517 126.33 19.3666 126.226 19.5052C126.122 19.6417 125.973 19.7642 125.78 19.8725C125.588 19.9787 125.331 20.0317 125.01 20.0317ZM125.114 19.3427C125.422 19.3427 125.682 19.2626 125.894 19.1022C126.106 18.9397 126.268 18.7155 126.378 18.4295C126.489 18.1413 126.544 17.8087 126.544 17.4317C126.544 17.0591 126.49 16.733 126.382 16.4535C126.273 16.1718 126.113 15.953 125.901 15.797C125.688 15.6388 125.426 15.5597 125.114 15.5597C124.789 15.5597 124.518 15.6432 124.302 15.81C124.087 15.9747 123.926 16.1989 123.817 16.4827C123.711 16.7644 123.658 17.0807 123.658 17.4317C123.658 17.7871 123.712 18.1099 123.821 18.4002C123.931 18.6884 124.094 18.9181 124.308 19.0892C124.525 19.2582 124.793 19.3427 125.114 19.3427ZM131.955 17.8867V14.9357H132.722V19.9277H131.955V19.0827H131.903C131.786 19.3362 131.604 19.5518 131.357 19.7295C131.11 19.905 130.798 19.9927 130.421 19.9927C130.109 19.9927 129.832 19.9245 129.589 19.788C129.347 19.6493 129.156 19.4413 129.017 19.164C128.879 18.8845 128.809 18.5324 128.809 18.1077V14.9357H129.576V18.0557C129.576 18.4197 129.678 18.7101 129.882 18.9267C130.088 19.1434 130.35 19.2517 130.668 19.2517C130.859 19.2517 131.053 19.203 131.25 19.1055C131.449 19.008 131.616 18.8585 131.751 18.657C131.887 18.4555 131.955 18.1987 131.955 17.8867ZM137.663 16.0537L136.974 16.2487C136.931 16.1339 136.867 16.0223 136.782 15.914C136.7 15.8035 136.587 15.7125 136.444 15.641C136.301 15.5695 136.118 15.5337 135.895 15.5337C135.59 15.5337 135.335 15.6042 135.131 15.745C134.93 15.8837 134.829 16.0602 134.829 16.2747C134.829 16.4654 134.898 16.616 135.037 16.7265C135.176 16.837 135.392 16.9291 135.687 17.0027L136.428 17.1847C136.874 17.2931 137.207 17.4588 137.426 17.682C137.645 17.903 137.754 18.1879 137.754 18.5367C137.754 18.8227 137.672 19.0784 137.507 19.3037C137.345 19.5291 137.117 19.7067 136.825 19.8367C136.532 19.9667 136.192 20.0317 135.804 20.0317C135.295 20.0317 134.874 19.9212 134.54 19.7002C134.206 19.4792 133.995 19.1564 133.906 18.7317L134.634 18.5497C134.703 18.8184 134.835 19.0199 135.027 19.1542C135.222 19.2886 135.477 19.3557 135.791 19.3557C136.149 19.3557 136.432 19.2799 136.643 19.1282C136.855 18.9744 136.961 18.7902 136.961 18.5757C136.961 18.4024 136.9 18.2572 136.779 18.1402C136.658 18.0211 136.471 17.9322 136.22 17.8737L135.388 17.6787C134.931 17.5704 134.595 17.4025 134.381 17.175C134.168 16.9453 134.062 16.6582 134.062 16.3137C134.062 16.0321 134.141 15.7829 134.299 15.5662C134.46 15.3496 134.677 15.1795 134.953 15.056C135.23 14.9325 135.544 14.8707 135.895 14.8707C136.389 14.8707 136.777 14.9791 137.059 15.1957C137.342 15.4124 137.544 15.6984 137.663 16.0537ZM141.08 14.9357V15.5857H138.493V14.9357H141.08ZM139.247 13.7397H140.014V18.4977C140.014 18.7144 140.045 18.8769 140.108 18.9852C140.173 19.0914 140.255 19.1629 140.355 19.1997C140.457 19.2344 140.564 19.2517 140.677 19.2517C140.761 19.2517 140.831 19.2474 140.885 19.2387C140.939 19.2279 140.982 19.2192 141.015 19.2127L141.171 19.9017C141.119 19.9212 141.046 19.9407 140.953 19.9602C140.86 19.9819 140.742 19.9927 140.599 19.9927C140.382 19.9927 140.17 19.9462 139.962 19.853C139.756 19.7598 139.585 19.6179 139.448 19.4272C139.314 19.2366 139.247 18.9961 139.247 18.7057V13.7397ZM142.233 19.9277V14.9357H142.974V15.6897H143.026C143.117 15.4427 143.282 15.2423 143.52 15.0885C143.759 14.9347 144.027 14.8577 144.326 14.8577C144.383 14.8577 144.453 14.8588 144.538 14.861C144.622 14.8632 144.686 14.8664 144.729 14.8707V15.6507C144.703 15.6442 144.644 15.6345 144.551 15.6215C144.46 15.6063 144.363 15.5987 144.261 15.5987C144.019 15.5987 143.802 15.6497 143.611 15.7515C143.423 15.8512 143.273 15.9898 143.163 16.1675C143.055 16.343 143 16.5434 143 16.7687V19.9277H142.233ZM145.639 19.9277V14.9357H146.406V19.9277H145.639ZM146.029 14.1037C145.879 14.1037 145.75 14.0528 145.642 13.951C145.536 13.8492 145.483 13.7267 145.483 13.5837C145.483 13.4407 145.536 13.3183 145.642 13.2165C145.75 13.1147 145.879 13.0637 146.029 13.0637C146.178 13.0637 146.306 13.1147 146.412 13.2165C146.52 13.3183 146.575 13.4407 146.575 13.5837C146.575 13.7267 146.52 13.8492 146.412 13.951C146.306 14.0528 146.178 14.1037 146.029 14.1037ZM149.903 20.0317C149.422 20.0317 149.008 19.9256 148.659 19.7132C148.312 19.4987 148.044 19.1997 147.856 18.8162C147.67 18.4306 147.576 17.9821 147.576 17.4707C147.576 16.9594 147.67 16.5087 147.856 16.1187C148.044 15.7266 148.307 15.4211 148.642 15.2022C148.98 14.9812 149.375 14.8707 149.825 14.8707C150.085 14.8707 150.342 14.9141 150.596 15.0007C150.849 15.0874 151.08 15.2282 151.288 15.4232C151.496 15.6161 151.662 15.8717 151.785 16.1902C151.909 16.5087 151.97 16.9009 151.97 17.3667V17.6917H148.122V17.0287H151.19C151.19 16.7471 151.134 16.4957 151.021 16.2747C150.911 16.0537 150.753 15.8793 150.547 15.7515C150.343 15.6237 150.103 15.5597 149.825 15.5597C149.52 15.5597 149.256 15.6356 149.032 15.7872C148.811 15.9367 148.641 16.1317 148.522 16.3722C148.403 16.6127 148.343 16.8706 148.343 17.1457V17.5877C148.343 17.9647 148.408 18.2843 148.538 18.5465C148.671 18.8065 148.854 19.0047 149.088 19.1412C149.322 19.2756 149.594 19.3427 149.903 19.3427C150.105 19.3427 150.287 19.3146 150.449 19.2582C150.614 19.1997 150.756 19.1131 150.875 18.9982C150.994 18.8812 151.086 18.7361 151.151 18.5627L151.892 18.7707C151.814 19.0221 151.683 19.2431 151.499 19.4337C151.315 19.6222 151.088 19.7696 150.817 19.8757C150.546 19.9797 150.241 20.0317 149.903 20.0317ZM156.673 16.0537L155.984 16.2487C155.941 16.1339 155.877 16.0223 155.792 15.914C155.71 15.8035 155.597 15.7125 155.454 15.641C155.311 15.5695 155.128 15.5337 154.905 15.5337C154.6 15.5337 154.345 15.6042 154.141 15.745C153.94 15.8837 153.839 16.0602 153.839 16.2747C153.839 16.4654 153.909 16.616 154.047 16.7265C154.186 16.837 154.403 16.9291 154.697 17.0027L155.438 17.1847C155.885 17.2931 156.217 17.4588 156.436 17.682C156.655 17.903 156.764 18.1879 156.764 18.5367C156.764 18.8227 156.682 19.0784 156.517 19.3037C156.355 19.5291 156.127 19.7067 155.835 19.8367C155.542 19.9667 155.202 20.0317 154.814 20.0317C154.305 20.0317 153.884 19.9212 153.55 19.7002C153.216 19.4792 153.005 19.1564 152.916 18.7317L153.644 18.5497C153.714 18.8184 153.845 19.0199 154.037 19.1542C154.232 19.2886 154.487 19.3557 154.801 19.3557C155.159 19.3557 155.443 19.2799 155.653 19.1282C155.865 18.9744 155.971 18.7902 155.971 18.5757C155.971 18.4024 155.911 18.2572 155.789 18.1402C155.668 18.0211 155.482 17.9322 155.23 17.8737L154.398 17.6787C153.941 17.5704 153.605 17.4025 153.391 17.175C153.178 16.9453 153.072 16.6582 153.072 16.3137C153.072 16.0321 153.151 15.7829 153.309 15.5662C153.47 15.3496 153.688 15.1795 153.963 15.056C154.24 14.9325 154.554 14.8707 154.905 14.8707C155.399 14.8707 155.787 14.9791 156.069 15.1957C156.353 15.4124 156.554 15.6984 156.673 16.0537Z" fill="white"/>
<path fill-rule="evenodd" clip-rule="evenodd" d="M176.313 14.9383C176.443 14.7966 176.654 14.7966 176.784 14.9383L178.976 17.328C179.106 17.4697 179.316 17.4697 179.446 17.328L181.638 14.9383C181.768 14.7966 181.979 14.7966 182.109 14.9383C182.239 15.08 182.239 15.3098 182.109 15.4515L179.917 17.8412C179.527 18.2663 178.895 18.2663 178.505 17.8412L176.313 15.4515C176.183 15.3098 176.183 15.08 176.313 14.9383Z" fill="white" fill-opacity="0.4"/>
<rect x="0.416" y="0.416" width="90.168" height="30.168" rx="3.744" stroke="#93A2AD" stroke-width="0.832"/>
<path d="M18.0935 14.9357C18.0545 14.6064 17.8963 14.3507 17.619 14.1687C17.3416 13.9867 17.0015 13.8957 16.5985 13.8957C16.3038 13.8957 16.046 13.9434 15.825 14.0387C15.6061 14.1341 15.435 14.2652 15.3115 14.432C15.1901 14.5988 15.1295 14.7884 15.1295 15.0007C15.1295 15.1784 15.1717 15.3312 15.2562 15.459C15.3429 15.5847 15.4534 15.6897 15.5877 15.7742C15.722 15.8566 15.8629 15.9248 16.0102 15.979C16.1575 16.031 16.293 16.0732 16.4165 16.1057L17.0925 16.2877C17.2658 16.3332 17.4586 16.3961 17.671 16.4762C17.8855 16.5564 18.0902 16.6658 18.2852 16.8045C18.4824 16.941 18.6449 17.1165 18.7727 17.331C18.9005 17.5455 18.9645 17.8087 18.9645 18.1207C18.9645 18.4804 18.8702 18.8054 18.6817 19.0957C18.4954 19.3861 18.2224 19.6168 17.8627 19.788C17.5052 19.9592 17.0708 20.0447 16.5595 20.0447C16.0828 20.0447 15.67 19.9678 15.3212 19.814C14.9745 19.6602 14.7015 19.4457 14.5022 19.1705C14.305 18.8953 14.1935 18.5757 14.1675 18.2117H14.9995C15.0211 18.4631 15.1056 18.6711 15.253 18.8357C15.4025 18.9982 15.591 19.1196 15.8185 19.1997C16.0481 19.2777 16.2951 19.3167 16.5595 19.3167C16.8671 19.3167 17.1434 19.2669 17.3882 19.1672C17.633 19.0654 17.827 18.9246 17.97 18.7447C18.113 18.5627 18.1845 18.3504 18.1845 18.1077C18.1845 17.8867 18.1227 17.7069 17.9992 17.5682C17.8757 17.4296 17.7132 17.3169 17.5117 17.2302C17.3102 17.1436 17.0925 17.0677 16.8585 17.0027L16.0395 16.7687C15.5195 16.6192 15.1078 16.4058 14.8045 16.1285C14.5011 15.8512 14.3495 15.4882 14.3495 15.0397C14.3495 14.6671 14.4502 14.3421 14.6517 14.0647C14.8554 13.7852 15.1284 13.5686 15.4707 13.4147C15.8152 13.2587 16.1998 13.1807 16.6245 13.1807C17.0535 13.1807 17.4348 13.2577 17.7685 13.4115C18.1021 13.5632 18.3665 13.7712 18.5615 14.0355C18.7586 14.2998 18.8626 14.5999 18.8735 14.9357H18.0935ZM22.3566 14.9357V15.5857H19.7696V14.9357H22.3566ZM20.5236 13.7397H21.2906V18.4977C21.2906 18.7144 21.3221 18.8769 21.3849 18.9852C21.4499 19.0914 21.5322 19.1629 21.6319 19.1997C21.7337 19.2344 21.841 19.2517 21.9536 19.2517C22.0381 19.2517 22.1075 19.2474 22.1616 19.2387C22.2158 19.2279 22.2591 19.2192 22.2916 19.2127L22.4476 19.9017C22.3956 19.9212 22.3231 19.9407 22.2299 19.9602C22.1367 19.9819 22.0186 19.9927 21.8756 19.9927C21.659 19.9927 21.4466 19.9462 21.2386 19.853C21.0328 19.7598 20.8616 19.6179 20.7251 19.4272C20.5908 19.2366 20.5236 18.9961 20.5236 18.7057V13.7397ZM24.9794 20.0447C24.6631 20.0447 24.376 19.9852 24.1181 19.866C23.8603 19.7447 23.6556 19.5702 23.5039 19.3427C23.3522 19.1131 23.2764 18.8357 23.2764 18.5107C23.2764 18.2247 23.3327 17.9929 23.4454 17.8152C23.5581 17.6354 23.7086 17.4946 23.8971 17.3927C24.0856 17.2909 24.2936 17.2151 24.5211 17.1652C24.7508 17.1132 24.9816 17.0721 25.2134 17.0417C25.5167 17.0027 25.7626 16.9735 25.9511 16.954C26.1418 16.9323 26.2805 16.8966 26.3671 16.8467C26.456 16.7969 26.5004 16.7102 26.5004 16.5867V16.5607C26.5004 16.2401 26.4126 15.9909 26.2371 15.8132C26.0638 15.6356 25.8006 15.5467 25.4474 15.5467C25.0812 15.5467 24.7941 15.6269 24.5861 15.7872C24.3781 15.9476 24.2319 16.1187 24.1474 16.3007L23.4194 16.0407C23.5494 15.7374 23.7227 15.5012 23.9394 15.3322C24.1582 15.1611 24.3966 15.0419 24.6544 14.9747C24.9144 14.9054 25.1701 14.8707 25.4214 14.8707C25.5817 14.8707 25.7659 14.8902 25.9739 14.9292C26.1841 14.9661 26.3866 15.043 26.5816 15.16C26.7788 15.277 26.9424 15.4536 27.0724 15.6897C27.2024 15.9259 27.2674 16.2422 27.2674 16.6387V19.9277H26.5004V19.2517H26.4614C26.4094 19.3601 26.3227 19.476 26.2014 19.5995C26.0801 19.723 25.9186 19.8281 25.7171 19.9147C25.5156 20.0014 25.2697 20.0447 24.9794 20.0447ZM25.0964 19.3557C25.3997 19.3557 25.6554 19.2962 25.8634 19.177C26.0736 19.0578 26.2317 18.904 26.3379 18.7155C26.4462 18.527 26.5004 18.3287 26.5004 18.1207V17.4187C26.4679 17.4577 26.3964 17.4935 26.2859 17.526C26.1776 17.5563 26.0519 17.5834 25.9089 17.6072C25.7681 17.6289 25.6305 17.6484 25.4961 17.6657C25.364 17.6809 25.2567 17.6939 25.1744 17.7047C24.9751 17.7307 24.7887 17.773 24.6154 17.8315C24.4442 17.8878 24.3056 17.9734 24.1994 18.0882C24.0954 18.2009 24.0434 18.3547 24.0434 18.5497C24.0434 18.8162 24.142 19.0177 24.3391 19.1542C24.5385 19.2886 24.7909 19.3557 25.0964 19.3557ZM30.8383 14.9357V15.5857H28.2513V14.9357H30.8383ZM29.0053 13.7397H29.7723V18.4977C29.7723 18.7144 29.8038 18.8769 29.8666 18.9852C29.9316 19.0914 30.0139 19.1629 30.1136 19.1997C30.2154 19.2344 30.3227 19.2517 30.4353 19.2517C30.5198 19.2517 30.5892 19.2474 30.6433 19.2387C30.6975 19.2279 30.7408 19.2192 30.7733 19.2127L30.9293 19.9017C30.8773 19.9212 30.8048 19.9407 30.7116 19.9602C30.6184 19.9819 30.5003 19.9927 30.3573 19.9927C30.1407 19.9927 29.9283 19.9462 29.7203 19.853C29.5145 19.7598 29.3433 19.6179 29.2068 19.4272C29.0725 19.2366 29.0053 18.9961 29.0053 18.7057V13.7397ZM34.0315 20.0317C33.5505 20.0317 33.1355 19.9256 32.7867 19.7132C32.44 19.4987 32.1725 19.1997 31.984 18.8162C31.7976 18.4306 31.7045 17.9821 31.7045 17.4707C31.7045 16.9594 31.7976 16.5087 31.984 16.1187C32.1725 15.7266 32.4346 15.4211 32.7705 15.2022C33.1085 14.9812 33.5028 14.8707 33.9535 14.8707C34.2135 14.8707 34.4702 14.9141 34.7237 15.0007C34.9772 15.0874 35.208 15.2282 35.416 15.4232C35.624 15.6161 35.7897 15.8717 35.9132 16.1902C36.0367 16.5087 36.0985 16.9009 36.0985 17.3667V17.6917H32.2505V17.0287H35.3185C35.3185 16.7471 35.2621 16.4957 35.1495 16.2747C35.039 16.0537 34.8808 15.8793 34.675 15.7515C34.4713 15.6237 34.2308 15.5597 33.9535 15.5597C33.648 15.5597 33.3836 15.6356 33.1605 15.7872C32.9395 15.9367 32.7694 16.1317 32.6502 16.3722C32.531 16.6127 32.4715 16.8706 32.4715 17.1457V17.5877C32.4715 17.9647 32.5365 18.2843 32.6665 18.5465C32.7986 18.8065 32.9817 19.0047 33.2157 19.1412C33.4497 19.2756 33.7216 19.3427 34.0315 19.3427C34.233 19.3427 34.415 19.3146 34.5775 19.2582C34.7421 19.1997 34.884 19.1131 35.0032 18.9982C35.1224 18.8812 35.2145 18.7361 35.2795 18.5627L36.0205 18.7707C35.9425 19.0221 35.8114 19.2431 35.6272 19.4337C35.443 19.6222 35.2155 19.7696 34.9447 19.8757C34.6739 19.9797 34.3695 20.0317 34.0315 20.0317Z" fill="white"/>
<path fill-rule="evenodd" clip-rule="evenodd" d="M75.3133 14.9383C75.4433 14.7966 75.654 14.7966 75.7839 14.9383L77.9757 17.328C78.1057 17.4697 78.3164 17.4697 78.4463 17.328L80.6381 14.9383C80.7681 14.7966 80.9788 14.7966 81.1087 14.9383C81.2387 15.08 81.2387 15.3098 81.1087 15.4515L78.917 17.8412C78.5271 18.2663 77.8949 18.2663 77.505 17.8412L75.3133 15.4515C75.1833 15.3098 75.1833 15.08 75.3133 14.9383Z" fill="white" fill-opacity="0.4"/>
</svg>
