<svg width="106" height="19" viewBox="0 0 106 19" fill="none" xmlns="http://www.w3.org/2000/svg">
<rect x="0.599609" y="0.448242" width="56.4096" height="17.6384" rx="8.8192" fill="white" fill-opacity="0.1"/>
<path d="M16.5882 8.04098H15.4083C15.3629 7.78886 15.2785 7.567 15.1549 7.37538C15.0314 7.18377 14.8801 7.02115 14.7011 6.88753C14.5221 6.7539 14.3217 6.65306 14.0998 6.58498C13.8804 6.51691 13.6472 6.48287 13.4002 6.48287C12.9539 6.48287 12.5543 6.59507 12.2013 6.81946C11.8509 7.04384 11.5735 7.37286 11.3693 7.80651C11.1676 8.24016 11.0668 8.76961 11.0668 9.39487C11.0668 10.0252 11.1676 10.5572 11.3693 10.9908C11.5735 11.4244 11.8521 11.7522 12.2051 11.9741C12.5581 12.1959 12.9552 12.3069 13.3964 12.3069C13.6409 12.3069 13.8729 12.2741 14.0922 12.2085C14.3141 12.1405 14.5145 12.0409 14.6935 11.9098C14.8725 11.7787 15.0238 11.6186 15.1474 11.4295C15.2734 11.2379 15.3604 11.0185 15.4083 10.7715L16.5882 10.7752C16.5252 11.1559 16.4029 11.5064 16.2214 11.8266C16.0424 12.1443 15.8117 12.4191 15.5293 12.651C15.2495 12.8804 14.9293 13.0582 14.5687 13.1843C14.2082 13.3103 13.8149 13.3733 13.3888 13.3733C12.7182 13.3733 12.1206 13.2145 11.5962 12.8968C11.0718 12.5766 10.6583 12.119 10.3558 11.524C10.0558 10.929 9.90575 10.2193 9.90575 9.39487C9.90575 8.56792 10.057 7.8582 10.3596 7.26571C10.6621 6.6707 11.0756 6.21436 11.6 5.89669C12.1244 5.5765 12.7207 5.4164 13.3888 5.4164C13.7998 5.4164 14.183 5.47565 14.5385 5.59415C14.8965 5.71012 15.2179 5.88156 15.5028 6.10847C15.7877 6.33286 16.0235 6.60767 16.21 6.93291C16.3966 7.25563 16.5227 7.62498 16.5882 8.04098ZM21.5755 10.8584V7.45858H22.71V13.2675H21.5982V12.2615H21.5377C21.4041 12.5716 21.1898 12.83 20.8948 13.0368C20.6023 13.241 20.238 13.3431 19.8018 13.3431C19.4287 13.3431 19.0984 13.2612 18.811 13.0973C18.5261 12.9309 18.3017 12.6851 18.1378 12.3598C17.9765 12.0346 17.8958 11.6324 17.8958 11.1534V7.45858H19.0266V11.0173C19.0266 11.4131 19.1362 11.7283 19.3556 11.9627C19.5749 12.1972 19.8598 12.3144 20.2103 12.3144C20.422 12.3144 20.6326 12.2615 20.8418 12.1556C21.0536 12.0497 21.2288 11.8896 21.3675 11.6753C21.5087 11.461 21.578 11.1887 21.5755 10.8584ZM24.2294 13.2675V7.45858H25.3223V8.38135H25.3828C25.4887 8.06872 25.6753 7.8229 25.9426 7.64389C26.2123 7.46236 26.5174 7.3716 26.8578 7.3716C26.9283 7.3716 27.0115 7.37412 27.1074 7.37917C27.2057 7.38421 27.2826 7.39051 27.338 7.39807V8.47967C27.2927 8.46707 27.212 8.4532 27.096 8.43807C26.98 8.42043 26.8641 8.4116 26.7481 8.4116C26.4808 8.4116 26.2426 8.46833 26.0333 8.58178C25.8266 8.69272 25.6627 8.84777 25.5417 9.04695C25.4207 9.2436 25.3602 9.46799 25.3602 9.72011V13.2675H24.2294ZM28.3166 13.2675V7.45858H29.4095V8.38135H29.47C29.5759 8.06872 29.7625 7.8229 30.0298 7.64389C30.2995 7.46236 30.6046 7.3716 30.945 7.3716C31.0155 7.3716 31.0987 7.37412 31.1946 7.37917C31.2929 7.38421 31.3698 7.39051 31.4252 7.39807V8.47967C31.3799 8.46707 31.2992 8.4532 31.1832 8.43807C31.0672 8.42043 30.9513 8.4116 30.8353 8.4116C30.568 8.4116 30.3298 8.46833 30.1205 8.58178C29.9138 8.69272 29.7499 8.84777 29.6289 9.04695C29.5079 9.2436 29.4474 9.46799 29.4474 9.72011V13.2675H28.3166ZM34.6994 13.3847C34.127 13.3847 33.6341 13.2624 33.2207 13.0179C32.8097 12.7708 32.492 12.4241 32.2676 11.9779C32.0458 11.5291 31.9348 11.0034 31.9348 10.4008C31.9348 9.80583 32.0458 9.28142 32.2676 8.8276C32.492 8.37378 32.8047 8.01955 33.2055 7.76491C33.6089 7.51027 34.0804 7.38295 34.6199 7.38295C34.9477 7.38295 35.2654 7.43715 35.573 7.54557C35.8805 7.65398 36.1566 7.82416 36.4012 8.05611C36.6457 8.28806 36.8386 8.58935 36.9798 8.95997C37.121 9.32806 37.1916 9.77558 37.1916 10.3025V10.7034H32.574V9.85626H36.0835C36.0835 9.55875 36.023 9.29529 35.902 9.06586C35.781 8.8339 35.6108 8.65112 35.3914 8.51749C35.1746 8.38387 34.92 8.31706 34.6275 8.31706C34.3098 8.31706 34.0325 8.39521 33.7955 8.55153C33.561 8.70532 33.3795 8.90702 33.2509 9.15662C33.1249 9.4037 33.0618 9.67221 33.0618 9.96215V10.624C33.0618 11.0122 33.1299 11.3425 33.266 11.6148C33.4047 11.8871 33.5976 12.0951 33.8447 12.2388C34.0917 12.38 34.3804 12.4506 34.7107 12.4506C34.925 12.4506 35.1204 12.4203 35.2969 12.3598C35.4734 12.2968 35.6259 12.2035 35.7545 12.08C35.8831 11.9564 35.9814 11.8039 36.0495 11.6224L37.1197 11.8152C37.034 12.1304 36.8802 12.4065 36.6583 12.6435C36.439 12.8779 36.1629 13.0607 35.8301 13.1918C35.4998 13.3204 35.1229 13.3847 34.6994 13.3847ZM39.577 9.81844V13.2675H38.4462V7.45858H39.5316V8.40404H39.6034C39.737 8.09645 39.9463 7.84937 40.2312 7.6628C40.5186 7.47623 40.8804 7.38295 41.3166 7.38295C41.7124 7.38295 42.0591 7.46615 42.3566 7.63255C42.6541 7.79643 42.8848 8.04098 43.0487 8.36622C43.2125 8.69146 43.2945 9.09359 43.2945 9.57262V13.2675H42.1637V9.70877C42.1637 9.28772 42.054 8.9587 41.8347 8.72171C41.6154 8.4822 41.3141 8.36244 40.9308 8.36244C40.6686 8.36244 40.4354 8.41916 40.2312 8.53262C40.0295 8.64607 39.8694 8.81247 39.7509 9.03182C39.6349 9.24864 39.577 9.51085 39.577 9.81844ZM47.5226 7.45858V8.36622H44.3496V7.45858H47.5226ZM45.2005 6.06687H46.3313V11.5619C46.3313 11.7812 46.3641 11.9463 46.4296 12.0573C46.4952 12.1657 46.5796 12.2401 46.683 12.2804C46.7889 12.3182 46.9036 12.3371 47.0271 12.3371C47.1179 12.3371 47.1973 12.3308 47.2654 12.3182C47.3335 12.3056 47.3864 12.2955 47.4242 12.288L47.6284 13.2221C47.5629 13.2473 47.4696 13.2725 47.3486 13.2977C47.2276 13.3254 47.0763 13.3406 46.8948 13.3431C46.5973 13.3481 46.3199 13.2952 46.0628 13.1843C45.8056 13.0733 45.5976 12.9019 45.4388 12.6699C45.2799 12.438 45.2005 12.1468 45.2005 11.7963V6.06687Z" fill="white"/>
<path d="M70.2395 3.37994V13.8117H69.1988V3.37994H70.2395Z" fill="#37424A" fill-opacity="0.5"/>
<path d="M78.2468 12.7675V5.02229H81.1513C81.7463 5.02229 82.2455 5.13323 82.6489 5.35509C83.0548 5.57696 83.3611 5.88203 83.5679 6.27029C83.7771 6.65604 83.8817 7.09473 83.8817 7.58637C83.8817 8.08304 83.7771 8.52426 83.5679 8.91C83.3586 9.29575 83.0497 9.59955 82.6413 9.82142C82.2329 10.0408 81.7299 10.1504 81.1324 10.1504H79.2074V8.99698H80.9433C81.2912 8.99698 81.5761 8.93647 81.798 8.81546C82.0198 8.69444 82.1837 8.52804 82.2896 8.31626C82.398 8.10447 82.4522 7.86118 82.4522 7.58637C82.4522 7.31155 82.398 7.06952 82.2896 6.86026C82.1837 6.651 82.0186 6.48838 81.7942 6.3724C81.5723 6.2539 81.2862 6.19466 80.9357 6.19466H79.6499V12.7675H78.2468ZM86.6075 12.8847C86.2394 12.8847 85.9079 12.8191 85.6129 12.688C85.3204 12.5544 85.0885 12.3578 84.917 12.0981C84.7481 11.8384 84.6636 11.5182 84.6636 11.1375C84.6636 10.8097 84.7241 10.5387 84.8452 10.3244C84.9662 10.1101 85.1313 9.93866 85.3406 9.81007C85.5498 9.68149 85.7856 9.58443 86.0478 9.51887C86.3125 9.4508 86.5861 9.40164 86.8684 9.37138C87.2088 9.33609 87.4849 9.30457 87.6967 9.27684C87.9084 9.24658 88.0622 9.2012 88.158 9.14069C88.2564 9.07766 88.3055 8.9806 88.3055 8.84949V8.8268C88.3055 8.5419 88.2211 8.3213 88.0521 8.16498C87.8832 8.00867 87.6399 7.93051 87.3223 7.93051C86.9869 7.93051 86.7209 8.00363 86.5243 8.14986C86.3302 8.29609 86.1991 8.46879 86.131 8.66797L84.8527 8.48644C84.9536 8.13347 85.12 7.83849 85.3519 7.60149C85.5839 7.36198 85.8675 7.18297 86.2028 7.06447C86.5382 6.94346 86.9088 6.88295 87.3147 6.88295C87.5945 6.88295 87.8731 6.91572 88.1505 6.98127C88.4278 7.04683 88.6812 7.15524 88.9106 7.30651C89.14 7.45526 89.3241 7.65822 89.4628 7.91538C89.604 8.17255 89.6745 8.494 89.6745 8.87975V12.7675H88.3585V11.9695H88.3131C88.2299 12.1308 88.1127 12.2821 87.9614 12.4233C87.8126 12.562 87.6248 12.6742 87.3979 12.7599C87.1735 12.8431 86.91 12.8847 86.6075 12.8847ZM86.963 11.8787C87.2378 11.8787 87.476 11.8245 87.6777 11.7161C87.8794 11.6052 88.0345 11.4589 88.1429 11.2774C88.2538 11.0959 88.3093 10.898 88.3093 10.6837V9.99917C88.2664 10.0345 88.1933 10.0672 88.09 10.0975C87.9891 10.1277 87.8757 10.1542 87.7496 10.1769C87.6235 10.1996 87.4987 10.2198 87.3752 10.2374C87.2517 10.2551 87.1445 10.2702 87.0537 10.2828C86.8495 10.3105 86.6667 10.3559 86.5054 10.4189C86.344 10.482 86.2167 10.5702 86.1234 10.6837C86.0301 10.7946 85.9835 10.9383 85.9835 11.1148C85.9835 11.3669 86.0755 11.5573 86.2596 11.6859C86.4436 11.8144 86.6781 11.8787 86.963 11.8787ZM95.6423 8.494L94.3943 8.63015C94.359 8.50409 94.2972 8.38559 94.2089 8.27466C94.1232 8.16372 94.0072 8.07422 93.861 8.00615C93.7148 7.93807 93.5358 7.90404 93.324 7.90404C93.0391 7.90404 92.7996 7.96581 92.6055 8.08935C92.4138 8.21289 92.3193 8.37298 92.3218 8.56964C92.3193 8.73856 92.3811 8.87597 92.5071 8.98186C92.6357 9.08775 92.8475 9.17473 93.1425 9.2428L94.1333 9.45458C94.6829 9.57308 95.0914 9.76091 95.3586 10.0181C95.6284 10.2752 95.7645 10.6118 95.7671 11.0278C95.7645 11.3934 95.6574 11.7161 95.4456 11.996C95.2363 12.2733 94.9451 12.4901 94.572 12.6464C94.1989 12.8028 93.7703 12.8809 93.2862 12.8809C92.5752 12.8809 92.0029 12.7322 91.5692 12.4347C91.1356 12.1346 90.8772 11.7174 90.794 11.1829L92.1289 11.0543C92.1895 11.3165 92.318 11.5144 92.5147 11.648C92.7113 11.7817 92.9672 11.8485 93.2824 11.8485C93.6076 11.8485 93.8686 11.7817 94.0652 11.648C94.2644 11.5144 94.364 11.3493 94.364 11.1526C94.364 10.9862 94.2997 10.8488 94.1711 10.7404C94.0451 10.632 93.8484 10.5488 93.5812 10.4908L92.5903 10.2828C92.0331 10.1668 91.6209 9.97143 91.3537 9.69662C91.0864 9.41929 90.9541 9.06884 90.9566 8.64527C90.9541 8.28726 91.0511 7.97715 91.2478 7.71495C91.447 7.45022 91.723 7.246 92.076 7.10229C92.4315 6.95606 92.8412 6.88295 93.3051 6.88295C93.9858 6.88295 94.5216 7.02792 94.9124 7.31786C95.3057 7.6078 95.549 7.99984 95.6423 8.494ZM99.7966 6.95858V8.01749H96.4572V6.95858H99.7966ZM97.2817 5.56687H98.6507V11.0203C98.6507 11.2043 98.6784 11.3455 98.7339 11.4438C98.7919 11.5396 98.8675 11.6052 98.9608 11.6405C99.0541 11.6758 99.1575 11.6934 99.2709 11.6934C99.3566 11.6934 99.4348 11.6871 99.5054 11.6745C99.5785 11.6619 99.634 11.6506 99.6718 11.6405L99.9025 12.7107C99.8294 12.7359 99.7247 12.7637 99.5886 12.7939C99.455 12.8242 99.2911 12.8418 99.0969 12.8469C98.7541 12.857 98.4452 12.8053 98.1704 12.6918C97.8956 12.5758 97.6775 12.3968 97.5161 12.1548C97.3573 11.9128 97.2792 11.6102 97.2817 11.2472V5.56687Z" fill="#93A2AD"/>
</svg>
