<svg width="55" height="9" viewBox="0 0 55 9" fill="none" xmlns="http://www.w3.org/2000/svg">
<path d="M0.937891 8.29602V0.550857H1.87578V3.99988H6.00553V0.550857H6.94342V8.29602H6.00553V4.83188H1.87578V8.29602H0.937891ZM10.4095 8.43217C10.0414 8.43217 9.7073 8.36283 9.40727 8.22417C9.10725 8.08298 8.86899 7.88002 8.69251 7.61529C8.51602 7.34804 8.42778 7.02533 8.42778 6.64715C8.42778 6.31435 8.49333 6.04458 8.62444 5.83784C8.75554 5.62858 8.93076 5.4647 9.15011 5.3462C9.36945 5.22771 9.61149 5.13946 9.87622 5.08148C10.1435 5.02097 10.412 4.97306 10.6817 4.93777C11.0347 4.89238 11.3209 4.85835 11.5402 4.83566C11.7621 4.81044 11.9234 4.76884 12.0243 4.71086C12.1277 4.65287 12.1793 4.55202 12.1793 4.40831V4.37806C12.1793 4.00492 12.0772 3.71498 11.873 3.50824C11.6713 3.3015 11.365 3.19813 10.954 3.19813C10.528 3.19813 10.1939 3.29141 9.95185 3.47798C9.70982 3.66455 9.53964 3.86373 9.44131 4.07551L8.59418 3.77297C8.74545 3.42 8.94715 3.14518 9.19927 2.94853C9.45392 2.74935 9.73125 2.61069 10.0313 2.53253C10.3338 2.45185 10.6313 2.41151 10.9238 2.41151C11.1104 2.41151 11.3247 2.4342 11.5667 2.47958C11.8112 2.52244 12.047 2.61195 12.2739 2.74809C12.5033 2.88424 12.6937 3.08972 12.8449 3.36453C12.9962 3.63934 13.0719 4.00744 13.0719 4.46882V8.29602H12.1793V7.5094H12.134C12.0735 7.63546 11.9726 7.77035 11.8314 7.91406C11.6902 8.05777 11.5024 8.18004 11.2679 8.28089C11.0335 8.38174 10.7473 8.43217 10.4095 8.43217ZM10.5456 7.63042C10.8986 7.63042 11.1961 7.56109 11.4381 7.42242C11.6827 7.28375 11.8667 7.10475 11.9903 6.8854C12.1163 6.66606 12.1793 6.43537 12.1793 6.19333V5.37646C12.1415 5.42184 12.0583 5.46344 11.9297 5.50126C11.8037 5.53655 11.6575 5.56807 11.4911 5.5958C11.3272 5.62101 11.1671 5.64371 11.0108 5.66388C10.857 5.68152 10.7322 5.69665 10.6364 5.70926C10.4044 5.73951 10.1876 5.78867 9.98589 5.85675C9.78672 5.9223 9.62536 6.02189 9.50182 6.15551C9.3808 6.28661 9.32029 6.46562 9.32029 6.69253C9.32029 7.00264 9.43501 7.23711 9.66444 7.39595C9.89639 7.55226 10.1901 7.63042 10.5456 7.63042ZM19.2428 2.48715L17.0948 8.29602H16.1871L14.0391 2.48715H15.0072L16.6107 7.11609H16.6712L18.2747 2.48715H19.2428ZM21.9535 8.43217C21.5854 8.43217 21.2513 8.36283 20.9513 8.22417C20.6512 8.08298 20.413 7.88002 20.2365 7.61529C20.06 7.34804 19.9718 7.02533 19.9718 6.64715C19.9718 6.31435 20.0373 6.04458 20.1684 5.83784C20.2995 5.62858 20.4748 5.4647 20.6941 5.3462C20.9135 5.22771 21.1555 5.13946 21.4202 5.08148C21.6875 5.02097 21.956 4.97306 22.2257 4.93777C22.5787 4.89238 22.8649 4.85835 23.0842 4.83566C23.3061 4.81044 23.4674 4.76884 23.5683 4.71086C23.6717 4.65287 23.7233 4.55202 23.7233 4.40831V4.37806C23.7233 4.00492 23.6212 3.71498 23.417 3.50824C23.2153 3.3015 22.909 3.19813 22.498 3.19813C22.072 3.19813 21.7379 3.29141 21.4959 3.47798C21.2538 3.66455 21.0836 3.86373 20.9853 4.07551L20.1382 3.77297C20.2895 3.42 20.4912 3.14518 20.7433 2.94853C20.9979 2.74935 21.2752 2.61069 21.5753 2.53253C21.8778 2.45185 22.1753 2.41151 22.4678 2.41151C22.6544 2.41151 22.8687 2.4342 23.1107 2.47958C23.3552 2.52244 23.591 2.61195 23.8179 2.74809C24.0473 2.88424 24.2377 3.08972 24.3889 3.36453C24.5402 3.63934 24.6159 4.00744 24.6159 4.46882V8.29602H23.7233V7.5094H23.678C23.6175 7.63546 23.5166 7.77035 23.3754 7.91406C23.2342 8.05777 23.0464 8.18004 22.8119 8.28089C22.5775 8.38174 22.2913 8.43217 21.9535 8.43217ZM22.0896 7.63042C22.4426 7.63042 22.7401 7.56109 22.9821 7.42242C23.2267 7.28375 23.4107 7.10475 23.5343 6.8854C23.6603 6.66606 23.7233 6.43537 23.7233 6.19333V5.37646C23.6855 5.42184 23.6023 5.46344 23.4737 5.50126C23.3477 5.53655 23.2015 5.56807 23.0351 5.5958C22.8712 5.62101 22.7111 5.64371 22.5548 5.66388C22.401 5.68152 22.2762 5.69665 22.1804 5.70926C21.9484 5.73951 21.7316 5.78867 21.5299 5.85675C21.3307 5.9223 21.1694 6.02189 21.0458 6.15551C20.9248 6.28661 20.8643 6.46562 20.8643 6.69253C20.8643 7.00264 20.979 7.23711 21.2084 7.39595C21.4404 7.55226 21.7341 7.63042 22.0896 7.63042ZM30.3595 3.78809L29.5577 4.015C29.5073 3.88138 29.4329 3.75154 29.3346 3.62548C29.2388 3.49689 29.1077 3.391 28.9413 3.3078C28.7749 3.2246 28.5619 3.183 28.3022 3.183C27.9467 3.183 27.6504 3.26494 27.4135 3.42882C27.179 3.59018 27.0617 3.79566 27.0617 4.04526C27.0617 4.26712 27.1424 4.44235 27.3038 4.57093C27.4651 4.69951 27.7173 4.80666 28.0601 4.89238L28.9224 5.10417C29.4418 5.23023 29.8288 5.4231 30.0834 5.68278C30.3381 5.93995 30.4654 6.27149 30.4654 6.6774C30.4654 7.0102 30.3696 7.30771 30.178 7.56991C29.9889 7.83212 29.7241 8.03886 29.3838 8.19013C29.0434 8.3414 28.6476 8.41704 28.1963 8.41704C27.6038 8.41704 27.1134 8.28846 26.7252 8.03129C26.3369 7.77413 26.0911 7.39847 25.9877 6.90431L26.8348 6.69253C26.9155 7.00516 27.068 7.23963 27.2924 7.39595C27.5193 7.55226 27.8156 7.63042 28.1812 7.63042C28.5972 7.63042 28.9274 7.54218 29.172 7.36569C29.4191 7.18669 29.5426 6.97238 29.5426 6.72278C29.5426 6.52109 29.472 6.35217 29.3308 6.21602C29.1896 6.07735 28.9728 5.97398 28.6804 5.90591L27.7122 5.679C27.1802 5.55294 26.7895 5.35755 26.5399 5.09282C26.2928 4.82557 26.1692 4.49151 26.1692 4.09064C26.1692 3.76288 26.2613 3.47294 26.4453 3.22082C26.6319 2.9687 26.8853 2.77078 27.2055 2.62707C27.5282 2.48337 27.8937 2.41151 28.3022 2.41151C28.877 2.41151 29.3283 2.53757 29.6561 2.78969C29.9864 3.04181 30.2208 3.37461 30.3595 3.78809ZM32.4593 8.35653C32.2728 8.35653 32.1127 8.28972 31.9791 8.15609C31.8454 8.02247 31.7786 7.86237 31.7786 7.6758C31.7786 7.48923 31.8454 7.32914 31.9791 7.19551C32.1127 7.06189 32.2728 6.99508 32.4593 6.99508C32.6459 6.99508 32.806 7.06189 32.9396 7.19551C33.0733 7.32914 33.1401 7.48923 33.1401 7.6758C33.1401 7.79934 33.1086 7.9128 33.0455 8.01617C32.985 8.11954 32.9031 8.20274 32.7997 8.26577C32.6989 8.32628 32.5854 8.35653 32.4593 8.35653ZM38.7958 0.550857V8.29602H37.8579V0.550857H38.7958ZM41.4478 4.80162V8.29602H40.5553V2.48715H41.4175V3.39478H41.4932C41.6293 3.0998 41.836 2.86281 42.1134 2.6838C42.3907 2.50228 42.7487 2.41151 43.1874 2.41151C43.5807 2.41151 43.9249 2.49219 44.2199 2.65355C44.5148 2.81238 44.7443 3.05442 44.9081 3.37966C45.072 3.70237 45.154 4.11081 45.154 4.60497V8.29602H44.2615V4.66548C44.2615 4.20914 44.143 3.85364 43.906 3.599C43.669 3.34184 43.3437 3.21326 42.9303 3.21326C42.6454 3.21326 42.3907 3.27503 42.1663 3.39857C41.9445 3.52211 41.7692 3.70237 41.6407 3.93937C41.5121 4.17636 41.4478 4.46378 41.4478 4.80162ZM49.1447 8.41704C48.6001 8.41704 48.1312 8.28846 47.7379 8.03129C47.3446 7.77413 47.042 7.4199 46.8303 6.9686C46.6185 6.51731 46.5126 6.00172 46.5126 5.42184C46.5126 4.83187 46.621 4.31124 46.8378 3.85995C47.0572 3.40613 47.3622 3.0519 47.753 2.79726C48.1463 2.54009 48.6052 2.41151 49.1296 2.41151C49.538 2.41151 49.9061 2.48715 50.2339 2.63842C50.5617 2.78969 50.8302 3.00147 51.0394 3.27377C51.2487 3.54606 51.3785 3.86373 51.4289 4.22678H50.5364C50.4684 3.96206 50.3171 3.72758 50.0826 3.52337C49.8507 3.31663 49.538 3.21326 49.1447 3.21326C48.7968 3.21326 48.4917 3.30402 48.2295 3.48555C47.9698 3.66455 47.7669 3.91794 47.6207 4.24569C47.4769 4.57093 47.4051 4.95289 47.4051 5.39158C47.4051 5.84036 47.4757 6.23115 47.6169 6.56395C47.7606 6.89675 47.9623 7.15517 48.222 7.33922C48.4842 7.52327 48.7918 7.61529 49.1447 7.61529C49.3767 7.61529 49.5872 7.57495 49.7763 7.49428C49.9654 7.4136 50.1255 7.29762 50.2566 7.14635C50.3877 6.99507 50.481 6.81355 50.5364 6.60177H51.4289C51.3785 6.94465 51.2537 7.2535 51.0545 7.52831C50.8579 7.8006 50.5969 8.01743 50.2717 8.17878C49.949 8.33762 49.5733 8.41704 49.1447 8.41704ZM53.3841 8.35653C53.1976 8.35653 53.0375 8.28972 52.9039 8.15609C52.7702 8.02247 52.7034 7.86237 52.7034 7.6758C52.7034 7.48923 52.7702 7.32914 52.9039 7.19551C53.0375 7.06189 53.1976 6.99508 53.3841 6.99508C53.5707 6.99508 53.7308 7.06189 53.8644 7.19551C53.9981 7.32914 54.0649 7.48923 54.0649 7.6758C54.0649 7.79934 54.0334 7.9128 53.9703 8.01617C53.9098 8.11954 53.8279 8.20274 53.7245 8.26577C53.6237 8.32628 53.5102 8.35653 53.3841 8.35653Z" fill="white"/>
</svg>
