<svg width="49" height="9" viewBox="0 0 49 9" fill="none" xmlns="http://www.w3.org/2000/svg">
<path d="M7.07956 0.254836V8H6.17193L1.95142 1.91884H1.87578V8H0.937891V0.254836H1.84553L6.08116 6.35113H6.1568V0.254836H7.07956ZM8.83527 8V2.19113H9.72778V8H8.83527ZM9.28909 1.22298C9.11513 1.22298 8.96512 1.16373 8.83905 1.04524C8.71552 0.926739 8.65375 0.784291 8.65375 0.617891C8.65375 0.451491 8.71552 0.309042 8.83905 0.190545C8.96512 0.0720484 9.11513 0.0128 9.28909 0.0128C9.46305 0.0128 9.61181 0.0720484 9.73535 0.190545C9.86141 0.309042 9.92444 0.451491 9.92444 0.617891C9.92444 0.784291 9.86141 0.926739 9.73535 1.04524C9.61181 1.16373 9.46305 1.22298 9.28909 1.22298ZM12.1945 5.88218L12.1793 4.77789H12.3609L14.9023 2.19113H16.0065L13.2988 4.92916H13.2231L12.1945 5.88218ZM11.3625 8V0.254836H12.255V8H11.3625ZM15.0535 8L12.7844 5.12582L13.4198 4.5056L16.1881 8H15.0535ZM19.3516 8.12102C18.7919 8.12102 18.309 7.99748 17.9031 7.7504C17.4997 7.5008 17.1884 7.15287 16.969 6.70662C16.7522 6.25784 16.6438 5.73595 16.6438 5.14095C16.6438 4.54594 16.7522 4.02153 16.969 3.56771C17.1884 3.11137 17.4934 2.75588 17.8842 2.50124C18.2775 2.24407 18.7364 2.11549 19.2608 2.11549C19.5633 2.11549 19.8621 2.16592 20.1571 2.26676C20.4521 2.36761 20.7206 2.53149 20.9626 2.7584C21.2047 2.98279 21.3975 3.28029 21.5412 3.65091C21.6849 4.02153 21.7568 4.47787 21.7568 5.01993V5.39811H17.2791V4.62662H20.8492C20.8492 4.29886 20.7836 4.0064 20.6525 3.74924C20.5239 3.49207 20.3399 3.28911 20.1004 3.14036C19.8634 2.99161 19.5835 2.91724 19.2608 2.91724C18.9053 2.91724 18.5977 3.00548 18.338 3.18196C18.0809 3.35593 17.883 3.58284 17.7443 3.86269C17.6056 4.14255 17.5363 4.44257 17.5363 4.76276V5.27709C17.5363 5.71578 17.6119 6.08766 17.7632 6.39273C17.917 6.69527 18.13 6.92596 18.4023 7.0848C18.6746 7.24112 18.991 7.31927 19.3516 7.31927C19.586 7.31927 19.7978 7.2865 19.9869 7.22095C20.1785 7.15287 20.3437 7.05202 20.4823 6.9184C20.621 6.78225 20.7281 6.61333 20.8038 6.41164L21.666 6.65367C21.5753 6.94613 21.4227 7.2033 21.2084 7.42516C20.9941 7.64451 20.7294 7.81595 20.4143 7.93949C20.0991 8.06051 19.7449 8.12102 19.3516 8.12102ZM27.4711 2.19113C27.4257 1.8079 27.2417 1.5104 26.919 1.29862C26.5963 1.08684 26.2004 0.980945 25.7315 0.980945C25.3886 0.980945 25.0886 1.03641 24.8314 1.14735C24.5768 1.25828 24.3776 1.41081 24.2339 1.60495C24.0927 1.79908 24.0221 2.01968 24.0221 2.26676C24.0221 2.4735 24.0713 2.65125 24.1696 2.8C24.2704 2.94623 24.399 3.06851 24.5553 3.16684C24.7117 3.26264 24.8755 3.34206 25.047 3.40509C25.2184 3.4656 25.376 3.51476 25.5197 3.55258L26.3063 3.76436C26.508 3.81731 26.7324 3.89042 26.9795 3.98371C27.2291 4.07699 27.4673 4.20431 27.6943 4.36567C27.9237 4.52451 28.1128 4.72873 28.2615 4.97833C28.4103 5.22793 28.4847 5.53425 28.4847 5.89731C28.4847 6.31583 28.375 6.69401 28.1556 7.03185C27.9388 7.3697 27.6211 7.63821 27.2026 7.83738C26.7866 8.03656 26.2811 8.13615 25.6861 8.13615C25.1314 8.13615 24.6512 8.04664 24.2452 7.86764C23.8418 7.68863 23.5242 7.43903 23.2922 7.11884C23.0628 6.79864 22.9329 6.42676 22.9027 6.0032H23.8708C23.896 6.29566 23.9944 6.5377 24.1658 6.72931C24.3398 6.9184 24.5591 7.05959 24.8239 7.15287C25.0911 7.24364 25.3785 7.28902 25.6861 7.28902C26.0441 7.28902 26.3656 7.23103 26.6505 7.11505C26.9354 6.99656 27.161 6.83268 27.3274 6.62342C27.4938 6.41164 27.577 6.16456 27.577 5.88218C27.577 5.62502 27.5052 5.41576 27.3615 5.2544C27.2177 5.09304 27.0287 4.96194 26.7942 4.86109C26.5597 4.76024 26.3063 4.672 26.034 4.59636L25.081 4.32407C24.4759 4.15011 23.9969 3.90177 23.6439 3.57905C23.291 3.25634 23.1145 2.83404 23.1145 2.31215C23.1145 1.8785 23.2317 1.50031 23.4662 1.1776C23.7032 0.852363 24.0208 0.600242 24.4192 0.421236C24.8201 0.239709 25.2676 0.148945 25.7617 0.148945C26.2609 0.148945 26.7047 0.238448 27.0929 0.417454C27.4812 0.593939 27.7888 0.835975 28.0157 1.14356C28.2451 1.45115 28.3662 1.80034 28.3788 2.19113H27.4711ZM32.4319 2.19113V2.94749H29.4216V2.19113H32.4319ZM30.299 0.799418H31.1915V6.336C31.1915 6.58812 31.228 6.77721 31.3012 6.90327C31.3768 7.02681 31.4726 7.11001 31.5886 7.15287C31.7071 7.19321 31.8319 7.21338 31.963 7.21338C32.0613 7.21338 32.142 7.20834 32.205 7.19825C32.268 7.18565 32.3185 7.17556 32.3563 7.168L32.5378 7.96975C32.4773 7.99244 32.3928 8.01513 32.2844 8.03782C32.176 8.06303 32.0386 8.07564 31.8722 8.07564C31.6201 8.07564 31.373 8.02143 31.131 7.91302C30.8915 7.80461 30.6923 7.63947 30.5335 7.4176C30.3771 7.19573 30.299 6.91588 30.299 6.57804V0.799418ZM36.0719 8.12102C35.5475 8.12102 35.0874 7.99622 34.6916 7.74662C34.2983 7.49702 33.9907 7.14783 33.7688 6.69905C33.5495 6.25028 33.4398 5.72587 33.4398 5.12582C33.4398 4.52073 33.5495 3.99253 33.7688 3.54124C33.9907 3.08994 34.2983 2.73949 34.6916 2.48989C35.0874 2.24029 35.5475 2.11549 36.0719 2.11549C36.5963 2.11549 37.0552 2.24029 37.4485 2.48989C37.8443 2.73949 38.1519 3.08994 38.3713 3.54124C38.5931 3.99253 38.7041 4.52073 38.7041 5.12582C38.7041 5.72587 38.5931 6.25028 38.3713 6.69905C38.1519 7.14783 37.8443 7.49702 37.4485 7.74662C37.0552 7.99622 36.5963 8.12102 36.0719 8.12102ZM36.0719 7.31927C36.4703 7.31927 36.798 7.21716 37.0552 7.01295C37.3124 6.80873 37.5027 6.54022 37.6263 6.20742C37.7498 5.87462 37.8116 5.51408 37.8116 5.12582C37.8116 4.73755 37.7498 4.37576 37.6263 4.04044C37.5027 3.70512 37.3124 3.43408 37.0552 3.22735C36.798 3.02061 36.4703 2.91724 36.0719 2.91724C35.6736 2.91724 35.3458 3.02061 35.0887 3.22735C34.8315 3.43408 34.6411 3.70512 34.5176 4.04044C34.3941 4.37576 34.3323 4.73755 34.3323 5.12582C34.3323 5.51408 34.3941 5.87462 34.5176 6.20742C34.6411 6.54022 34.8315 6.80873 35.0887 7.01295C35.3458 7.21716 35.6736 7.31927 36.0719 7.31927ZM40.0665 8V2.19113H40.9287V3.06851H40.9892C41.0951 2.78109 41.2867 2.54788 41.5641 2.36887C41.8414 2.18987 42.154 2.10036 42.502 2.10036C42.5675 2.10036 42.6495 2.10162 42.7478 2.10415C42.8461 2.10667 42.9205 2.11045 42.9709 2.11549V3.02313C42.9407 3.01556 42.8713 3.00422 42.7629 2.98909C42.657 2.97144 42.5448 2.96262 42.4263 2.96262C42.144 2.96262 41.8918 3.02187 41.67 3.14036C41.4506 3.25634 41.2767 3.4177 41.1481 3.62444C41.022 3.82865 40.959 4.06187 40.959 4.32407V8H40.0665ZM46.2876 8.12102C45.7279 8.12102 45.245 7.99748 44.8391 7.7504C44.4357 7.5008 44.1244 7.15287 43.905 6.70662C43.6882 6.25784 43.5798 5.73595 43.5798 5.14095C43.5798 4.54594 43.6882 4.02153 43.905 3.56771C44.1244 3.11137 44.4294 2.75588 44.8202 2.50124C45.2135 2.24407 45.6724 2.11549 46.1968 2.11549C46.4993 2.11549 46.7981 2.16592 47.0931 2.26676C47.3881 2.36761 47.6566 2.53149 47.8986 2.7584C48.1407 2.98279 48.3335 3.28029 48.4772 3.65091C48.6209 4.02153 48.6928 4.47787 48.6928 5.01993V5.39811H44.2151V4.62662H47.7852C47.7852 4.29886 47.7196 4.0064 47.5885 3.74924C47.4599 3.49207 47.2759 3.28911 47.0364 3.14036C46.7994 2.99161 46.5195 2.91724 46.1968 2.91724C45.8413 2.91724 45.5337 3.00548 45.274 3.18196C45.0169 3.35593 44.819 3.58284 44.6803 3.86269C44.5416 4.14255 44.4723 4.44257 44.4723 4.76276V5.27709C44.4723 5.71578 44.5479 6.08766 44.6992 6.39273C44.853 6.69527 45.066 6.92596 45.3383 7.0848C45.6106 7.24112 45.927 7.31927 46.2876 7.31927C46.522 7.31927 46.7338 7.2865 46.9229 7.22095C47.1145 7.15287 47.2797 7.05202 47.4183 6.9184C47.557 6.78225 47.6641 6.61333 47.7398 6.41164L48.602 6.65367C48.5113 6.94613 48.3587 7.2033 48.1444 7.42516C47.9301 7.64451 47.6654 7.81595 47.3503 7.93949C47.0351 8.06051 46.6809 8.12102 46.2876 8.12102Z" fill="white"/>
</svg>
