<svg width="118" height="14" viewBox="0 0 118 14" fill="none" xmlns="http://www.w3.org/2000/svg">
<rect y="0.646362" width="60.6496" height="12.6464" rx="2.6624" fill="#2567C9" fill-opacity="0.6"/>
<path d="M5.85665 4.12888H6.74301L8.2841 7.89179H8.34083L9.88192 4.12888H10.7683V8.9696H10.0734V5.4667H10.0285L8.60083 8.96251H8.0241L6.59647 5.46433H6.55156V8.9696H5.85665V4.12888ZM13.3381 9.04288C12.9805 9.04288 12.6724 8.96645 12.414 8.8136C12.1571 8.65918 11.9586 8.44251 11.8183 8.1636C11.6797 7.88312 11.6103 7.55457 11.6103 7.17797C11.6103 6.80609 11.6797 6.47833 11.8183 6.1947C11.9586 5.91106 12.154 5.68967 12.4045 5.53051C12.6566 5.37136 12.9513 5.29179 13.2885 5.29179C13.4934 5.29179 13.6919 5.32567 13.8841 5.39342C14.0764 5.46118 14.2489 5.56754 14.4018 5.71251C14.5546 5.85748 14.6752 6.04579 14.7634 6.27742C14.8517 6.50748 14.8958 6.78718 14.8958 7.11651V7.36706H12.0098V6.8376H14.2032C14.2032 6.65167 14.1654 6.487 14.0898 6.3436C14.0141 6.19863 13.9078 6.08439 13.7707 6.00088C13.6352 5.91736 13.476 5.8756 13.2932 5.8756C13.0947 5.8756 12.9214 5.92445 12.7732 6.02215C12.6267 6.11827 12.5132 6.24433 12.4329 6.40033C12.3541 6.55476 12.3147 6.72257 12.3147 6.90379V7.31742C12.3147 7.56009 12.3572 7.76651 12.4423 7.9367C12.529 8.10688 12.6495 8.23688 12.804 8.3267C12.9584 8.41494 13.1388 8.45906 13.3452 8.45906C13.4792 8.45906 13.6013 8.44015 13.7116 8.40233C13.8219 8.36294 13.9172 8.30463 13.9976 8.22742C14.078 8.15021 14.1394 8.05488 14.182 7.94142L14.8509 8.06197C14.7973 8.25894 14.7012 8.43148 14.5625 8.5796C14.4254 8.72615 14.2529 8.84039 14.0449 8.92233C13.8384 9.0027 13.6029 9.04288 13.3381 9.04288ZM17.039 9.04051C16.7459 9.04051 16.4843 8.96567 16.2543 8.81597C16.0258 8.6647 15.8462 8.4496 15.7154 8.1707C15.5862 7.89021 15.5216 7.55379 15.5216 7.16142C15.5216 6.76906 15.5869 6.43342 15.7177 6.15451C15.8501 5.8756 16.0313 5.66209 16.2614 5.51397C16.4914 5.36585 16.7522 5.29179 17.0437 5.29179C17.2691 5.29179 17.4503 5.3296 17.5874 5.40524C17.726 5.4793 17.8332 5.56597 17.9088 5.66524C17.986 5.76451 18.0459 5.85197 18.0885 5.9276H18.131V4.12888H18.8377V8.9696H18.1476V8.4047H18.0885C18.0459 8.48191 17.9845 8.57015 17.9041 8.66942C17.8253 8.7687 17.7166 8.85536 17.5779 8.92942C17.4393 9.00348 17.2596 9.04051 17.039 9.04051ZM17.195 8.43779C17.3983 8.43779 17.57 8.38421 17.7103 8.27706C17.8521 8.16833 17.9593 8.01785 18.0317 7.8256C18.1058 7.63336 18.1428 7.4096 18.1428 7.15433C18.1428 6.90221 18.1066 6.6816 18.0341 6.49251C17.9616 6.30342 17.8553 6.15609 17.715 6.05051C17.5748 5.94494 17.4014 5.89215 17.195 5.89215C16.9823 5.89215 16.805 5.9473 16.6632 6.0576C16.5214 6.16791 16.4142 6.31839 16.3417 6.50906C16.2708 6.69973 16.2354 6.91482 16.2354 7.15433C16.2354 7.397 16.2716 7.61524 16.3441 7.80906C16.4166 8.00288 16.5237 8.15651 16.6656 8.26997C16.8089 8.38185 16.9854 8.43779 17.195 8.43779ZM19.8464 8.9696V5.33906H20.5531V8.9696H19.8464ZM20.2033 4.77888C20.0804 4.77888 19.9748 4.73791 19.8866 4.65597C19.7999 4.57245 19.7566 4.47318 19.7566 4.35815C19.7566 4.24154 19.7999 4.14227 19.8866 4.06033C19.9748 3.97682 20.0804 3.93506 20.2033 3.93506C20.3262 3.93506 20.431 3.97682 20.5177 4.06033C20.6059 4.14227 20.6501 4.24154 20.6501 4.35815C20.6501 4.47318 20.6059 4.57245 20.5177 4.65597C20.431 4.73791 20.3262 4.77888 20.2033 4.77888ZM22.863 9.04051C22.5699 9.04051 22.3083 8.96567 22.0783 8.81597C21.8498 8.6647 21.6702 8.4496 21.5394 8.1707C21.4102 7.89021 21.3456 7.55379 21.3456 7.16142C21.3456 6.76906 21.4109 6.43342 21.5417 6.15451C21.6741 5.8756 21.8553 5.66209 22.0854 5.51397C22.3154 5.36585 22.5762 5.29179 22.8677 5.29179C23.0931 5.29179 23.2743 5.3296 23.4114 5.40524C23.55 5.4793 23.6572 5.56597 23.7328 5.66524C23.81 5.76451 23.8699 5.85197 23.9125 5.9276H23.955V5.33906H24.6617V8.9696H23.9716V8.4047H23.9125C23.8699 8.48191 23.8085 8.57015 23.7281 8.66942C23.6493 8.7687 23.5406 8.85536 23.4019 8.92942C23.2633 9.00348 23.0836 9.04051 22.863 9.04051ZM23.019 8.43779C23.2223 8.43779 23.394 8.38421 23.5343 8.27706C23.6761 8.16833 23.7833 8.01785 23.8557 7.8256C23.9298 7.63336 23.9668 7.4096 23.9668 7.15433C23.9668 6.90221 23.9306 6.6816 23.8581 6.49251C23.7856 6.30342 23.6793 6.15609 23.539 6.05051C23.3988 5.94494 23.2254 5.89215 23.019 5.89215C22.8063 5.89215 22.629 5.9473 22.4872 6.0576C22.3454 6.16791 22.2382 6.31839 22.1657 6.50906C22.0948 6.69973 22.0594 6.91482 22.0594 7.15433C22.0594 7.397 22.0956 7.61524 22.1681 7.80906C22.2406 8.00288 22.3477 8.15651 22.4896 8.26997C22.6329 8.38185 22.8094 8.43779 23.019 8.43779ZM27.4886 8.9696V4.12888H29.2141C29.5907 4.12888 29.9027 4.19742 30.1501 4.33451C30.3975 4.4716 30.5826 4.65912 30.7056 4.89706C30.8285 5.13342 30.8899 5.39973 30.8899 5.69597C30.8899 5.99379 30.8277 6.26167 30.7032 6.4996C30.5803 6.73597 30.3943 6.92348 30.1454 7.06215C29.898 7.19924 29.5868 7.26779 29.2117 7.26779H28.0252V6.64851H29.1456C29.3835 6.64851 29.5765 6.60754 29.7246 6.5256C29.8728 6.44209 29.9815 6.32863 30.0508 6.18524C30.1202 6.04185 30.1548 5.87876 30.1548 5.69597C30.1548 5.51318 30.1202 5.35088 30.0508 5.20906C29.9815 5.06724 29.872 4.95615 29.7223 4.87579C29.5742 4.79542 29.3788 4.75524 29.1361 4.75524H28.219V8.9696H27.4886ZM32.3961 4.12888V8.9696H31.6894V4.12888H32.3961ZM34.706 9.04051C34.4129 9.04051 34.1513 8.96567 33.9213 8.81597C33.6928 8.6647 33.5132 8.4496 33.3824 8.1707C33.2532 7.89021 33.1886 7.55379 33.1886 7.16142C33.1886 6.76906 33.2539 6.43342 33.3847 6.15451C33.5171 5.8756 33.6983 5.66209 33.9284 5.51397C34.1584 5.36585 34.4192 5.29179 34.7107 5.29179C34.9361 5.29179 35.1173 5.3296 35.2544 5.40524C35.393 5.4793 35.5002 5.56597 35.5758 5.66524C35.653 5.76451 35.7129 5.85197 35.7555 5.9276H35.798V5.33906H36.5047V8.9696H35.8146V8.4047H35.7555C35.7129 8.48191 35.6515 8.57015 35.5711 8.66942C35.4923 8.7687 35.3836 8.85536 35.2449 8.92942C35.1063 9.00348 34.9266 9.04051 34.706 9.04051ZM34.862 8.43779C35.0653 8.43779 35.237 8.38421 35.3773 8.27706C35.5191 8.16833 35.6263 8.01785 35.6987 7.8256C35.7728 7.63336 35.8098 7.4096 35.8098 7.15433C35.8098 6.90221 35.7736 6.6816 35.7011 6.49251C35.6286 6.30342 35.5223 6.15609 35.382 6.05051C35.2418 5.94494 35.0684 5.89215 34.862 5.89215C34.6493 5.89215 34.472 5.9473 34.3302 6.0576C34.1884 6.16791 34.0812 6.31839 34.0087 6.50906C33.9378 6.69973 33.9024 6.91482 33.9024 7.15433C33.9024 7.397 33.9386 7.61524 34.0111 7.80906C34.0836 8.00288 34.1907 8.15651 34.3326 8.26997C34.4759 8.38185 34.6524 8.43779 34.862 8.43779ZM38.2201 6.81397V8.9696H37.5134V5.33906H38.1918V5.92997H38.2367C38.3202 5.73773 38.451 5.5833 38.6291 5.4667C38.8087 5.35009 39.0348 5.29179 39.3074 5.29179C39.5548 5.29179 39.7715 5.34379 39.9574 5.44779C40.1434 5.55021 40.2875 5.70306 40.39 5.90633C40.4924 6.1096 40.5436 6.36094 40.5436 6.66033V8.9696H39.8369V6.74542C39.8369 6.48227 39.7683 6.27663 39.6312 6.12851C39.4941 5.97882 39.3058 5.90397 39.0663 5.90397C38.9024 5.90397 38.7567 5.93942 38.6291 6.01033C38.503 6.08124 38.4029 6.18524 38.3289 6.32233C38.2564 6.45785 38.2201 6.62173 38.2201 6.81397ZM42.1981 6.81397V8.9696H41.4914V5.33906H42.1698V5.92997H42.2147C42.2982 5.73773 42.429 5.5833 42.6071 5.4667C42.7867 5.35009 43.0128 5.29179 43.2854 5.29179C43.5328 5.29179 43.7495 5.34379 43.9354 5.44779C44.1214 5.55021 44.2655 5.70306 44.368 5.90633C44.4704 6.1096 44.5216 6.36094 44.5216 6.66033V8.9696H43.8149V6.74542C43.8149 6.48227 43.7463 6.27663 43.6092 6.12851C43.4721 5.97882 43.2838 5.90397 43.0443 5.90397C42.8804 5.90397 42.7347 5.93942 42.6071 6.01033C42.481 6.08124 42.3809 6.18524 42.3069 6.32233C42.2344 6.45785 42.1981 6.62173 42.1981 6.81397ZM45.4694 8.9696V5.33906H46.1761V8.9696H45.4694ZM45.8263 4.77888C45.7034 4.77888 45.5978 4.73791 45.5096 4.65597C45.4229 4.57245 45.3796 4.47318 45.3796 4.35815C45.3796 4.24154 45.4229 4.14227 45.5096 4.06033C45.5978 3.97682 45.7034 3.93506 45.8263 3.93506C45.9492 3.93506 46.054 3.97682 46.1407 4.06033C46.2289 4.14227 46.2731 4.24154 46.2731 4.35815C46.2731 4.47318 46.2289 4.57245 46.1407 4.65597C46.054 4.73791 45.9492 4.77888 45.8263 4.77888ZM47.8336 6.81397V8.9696H47.1269V5.33906H47.8053V5.92997H47.8502C47.9337 5.73773 48.0645 5.5833 48.2426 5.4667C48.4222 5.35009 48.6483 5.29179 48.9209 5.29179C49.1683 5.29179 49.385 5.34379 49.5709 5.44779C49.7569 5.55021 49.901 5.70306 50.0035 5.90633C50.1059 6.1096 50.1571 6.36094 50.1571 6.66033V8.9696H49.4504V6.74542C49.4504 6.48227 49.3818 6.27663 49.2447 6.12851C49.1076 5.97882 48.9193 5.90397 48.6798 5.90397C48.5159 5.90397 48.3702 5.93942 48.2426 6.01033C48.1165 6.08124 48.0164 6.18524 47.9424 6.32233C47.8699 6.45785 47.8336 6.62173 47.8336 6.81397ZM52.6271 10.4067C52.3387 10.4067 52.0906 10.3689 51.8826 10.2932C51.6761 10.2176 51.5075 10.1175 51.3767 9.99306C51.2459 9.86857 51.1482 9.73227 51.0836 9.58415L51.6911 9.3336C51.7336 9.40294 51.7904 9.47621 51.8613 9.55342C51.9338 9.63221 52.0315 9.69918 52.1544 9.75433C52.2789 9.80948 52.4388 9.83706 52.6342 9.83706C52.9021 9.83706 53.1235 9.77167 53.2984 9.64088C53.4733 9.51167 53.5607 9.30524 53.5607 9.0216V8.30779H53.5158C53.4733 8.385 53.4118 8.47088 53.3315 8.56542C53.2527 8.65997 53.1439 8.74191 53.0053 8.81124C52.8666 8.88057 52.6862 8.91524 52.464 8.91524C52.1772 8.91524 51.9188 8.84827 51.6887 8.71433C51.4602 8.57882 51.279 8.37948 51.1451 8.11633C51.0127 7.8516 50.9466 7.52621 50.9466 7.14015C50.9466 6.75409 51.0119 6.42318 51.1427 6.14742C51.2751 5.87167 51.4563 5.66051 51.6864 5.51397C51.9164 5.36585 52.1772 5.29179 52.4687 5.29179C52.6941 5.29179 52.8761 5.3296 53.0147 5.40524C53.1534 5.4793 53.2613 5.56597 53.3386 5.66524C53.4173 5.76451 53.478 5.85197 53.5206 5.9276H53.5726V5.33906H54.2651V9.04997C54.2651 9.36197 54.1926 9.61803 54.0476 9.81815C53.9027 10.0183 53.7065 10.1664 53.4591 10.2625C53.2133 10.3586 52.9359 10.4067 52.6271 10.4067ZM52.62 8.32906C52.8233 8.32906 52.995 8.28179 53.1353 8.18724C53.2771 8.09112 53.3842 7.95403 53.4567 7.77597C53.5308 7.59633 53.5678 7.38124 53.5678 7.1307C53.5678 6.88645 53.5316 6.67136 53.4591 6.48542C53.3866 6.29948 53.2802 6.15451 53.14 6.05051C52.9998 5.94494 52.8264 5.89215 52.62 5.89215C52.4073 5.89215 52.23 5.9473 52.0882 6.0576C51.9464 6.16633 51.8392 6.31445 51.7667 6.50197C51.6958 6.68948 51.6604 6.89906 51.6604 7.1307C51.6604 7.36863 51.6966 7.57742 51.7691 7.75706C51.8416 7.9367 51.9487 8.07694 52.0906 8.17779C52.2339 8.27863 52.4104 8.32906 52.62 8.32906Z" fill="white"/>
<rect x="62.6497" y="0.646362" width="54.6496" height="12.6464" rx="2.6624" fill="#2567C9" fill-opacity="0.6"/>
<path d="M68.5063 4.12888H69.3927L70.9338 7.89179H70.9905L72.5316 4.12888H73.4179V8.9696H72.723V5.4667H72.6781L71.2505 8.96251H70.6738L69.2461 5.46433H69.2012V8.9696H68.5063V4.12888ZM75.9878 9.04288C75.6301 9.04288 75.322 8.96645 75.0636 8.8136C74.8068 8.65918 74.6082 8.44251 74.468 8.1636C74.3293 7.88312 74.26 7.55457 74.26 7.17797C74.26 6.80609 74.3293 6.47833 74.468 6.1947C74.6082 5.91106 74.8036 5.68967 75.0542 5.53051C75.3063 5.37136 75.601 5.29179 75.9382 5.29179C76.143 5.29179 76.3416 5.32567 76.5338 5.39342C76.726 5.46118 76.8986 5.56754 77.0514 5.71251C77.2043 5.85748 77.3248 6.04579 77.4131 6.27742C77.5013 6.50748 77.5454 6.78718 77.5454 7.11651V7.36706H74.6594V6.8376H76.8529C76.8529 6.65167 76.8151 6.487 76.7394 6.3436C76.6638 6.19863 76.5574 6.08439 76.4204 6.00088C76.2848 5.91736 76.1257 5.8756 75.9429 5.8756C75.7444 5.8756 75.571 5.92445 75.4229 6.02215C75.2764 6.11827 75.1629 6.24433 75.0825 6.40033C75.0037 6.55476 74.9644 6.72257 74.9644 6.90379V7.31742C74.9644 7.56009 75.0069 7.76651 75.092 7.9367C75.1787 8.10688 75.2992 8.23688 75.4536 8.3267C75.608 8.41494 75.7885 8.45906 75.9949 8.45906C76.1288 8.45906 76.251 8.44015 76.3613 8.40233C76.4716 8.36294 76.5669 8.30463 76.6473 8.22742C76.7276 8.15021 76.7891 8.05488 76.8316 7.94142L77.5005 8.06197C77.447 8.25894 77.3508 8.43148 77.2122 8.5796C77.0751 8.72615 76.9025 8.84039 76.6945 8.92233C76.4881 9.0027 76.2525 9.04288 75.9878 9.04288ZM79.6887 9.04051C79.3956 9.04051 79.134 8.96567 78.9039 8.81597C78.6755 8.6647 78.4958 8.4496 78.365 8.1707C78.2358 7.89021 78.1712 7.55379 78.1712 7.16142C78.1712 6.76906 78.2366 6.43342 78.3674 6.15451C78.4998 5.8756 78.681 5.66209 78.911 5.51397C79.1411 5.36585 79.4019 5.29179 79.6934 5.29179C79.9187 5.29179 80.0999 5.3296 80.237 5.40524C80.3757 5.4793 80.4829 5.56597 80.5585 5.66524C80.6357 5.76451 80.6956 5.85197 80.7381 5.9276H80.7807V4.12888H81.4874V8.9696H80.7972V8.4047H80.7381C80.6956 8.48191 80.6341 8.57015 80.5538 8.66942C80.475 8.7687 80.3662 8.85536 80.2276 8.92942C80.0889 9.00348 79.9093 9.04051 79.6887 9.04051ZM79.8447 8.43779C80.0479 8.43779 80.2197 8.38421 80.3599 8.27706C80.5018 8.16833 80.6089 8.01785 80.6814 7.8256C80.7555 7.63336 80.7925 7.4096 80.7925 7.15433C80.7925 6.90221 80.7562 6.6816 80.6838 6.49251C80.6113 6.30342 80.5049 6.15609 80.3647 6.05051C80.2244 5.94494 80.0511 5.89215 79.8447 5.89215C79.6319 5.89215 79.4547 5.9473 79.3129 6.0576C79.171 6.16791 79.0639 6.31839 78.9914 6.50906C78.9205 6.69973 78.885 6.91482 78.885 7.15433C78.885 7.397 78.9213 7.61524 78.9938 7.80906C79.0662 8.00288 79.1734 8.15651 79.3152 8.26997C79.4586 8.38185 79.6351 8.43779 79.8447 8.43779ZM82.4961 8.9696V5.33906H83.2028V8.9696H82.4961ZM82.853 4.77888C82.7301 4.77888 82.6245 4.73791 82.5363 4.65597C82.4496 4.57245 82.4063 4.47318 82.4063 4.35815C82.4063 4.24154 82.4496 4.14227 82.5363 4.06033C82.6245 3.97682 82.7301 3.93506 82.853 3.93506C82.9759 3.93506 83.0807 3.97682 83.1674 4.06033C83.2556 4.14227 83.2997 4.24154 83.2997 4.35815C83.2997 4.47318 83.2556 4.57245 83.1674 4.65597C83.0807 4.73791 82.9759 4.77888 82.853 4.77888ZM85.5127 9.04051C85.2196 9.04051 84.958 8.96567 84.7279 8.81597C84.4995 8.6647 84.3198 8.4496 84.189 8.1707C84.0598 7.89021 83.9952 7.55379 83.9952 7.16142C83.9952 6.76906 84.0606 6.43342 84.1914 6.15451C84.3238 5.8756 84.505 5.66209 84.735 5.51397C84.9651 5.36585 85.2259 5.29179 85.5174 5.29179C85.7427 5.29179 85.9239 5.3296 86.061 5.40524C86.1997 5.4793 86.3069 5.56597 86.3825 5.66524C86.4597 5.76451 86.5196 5.85197 86.5621 5.9276H86.6047V5.33906H87.3114V8.9696H86.6212V8.4047H86.5621C86.5196 8.48191 86.4581 8.57015 86.3778 8.66942C86.299 8.7687 86.1902 8.85536 86.0516 8.92942C85.9129 9.00348 85.7333 9.04051 85.5127 9.04051ZM85.6687 8.43779C85.8719 8.43779 86.0437 8.38421 86.1839 8.27706C86.3258 8.16833 86.4329 8.01785 86.5054 7.8256C86.5795 7.63336 86.6165 7.4096 86.6165 7.15433C86.6165 6.90221 86.5802 6.6816 86.5078 6.49251C86.4353 6.30342 86.3289 6.15609 86.1887 6.05051C86.0484 5.94494 85.8751 5.89215 85.6687 5.89215C85.4559 5.89215 85.2787 5.9473 85.1369 6.0576C84.995 6.16791 84.8879 6.31839 84.8154 6.50906C84.7445 6.69973 84.709 6.91482 84.709 7.15433C84.709 7.397 84.7453 7.61524 84.8178 7.80906C84.8902 8.00288 84.9974 8.15651 85.1392 8.26997C85.2826 8.38185 85.4591 8.43779 85.6687 8.43779ZM90.1383 8.9696V4.12888H91.911C92.2545 4.12888 92.539 4.1856 92.7643 4.29906C92.9896 4.41094 93.1582 4.563 93.2701 4.75524C93.382 4.94591 93.4379 5.161 93.4379 5.40051C93.4379 5.60221 93.4009 5.77239 93.3268 5.91106C93.2528 6.04815 93.1535 6.15845 93.029 6.24197C92.9061 6.32391 92.7706 6.38379 92.6225 6.4216V6.46888C92.7832 6.47676 92.94 6.52876 93.0928 6.62488C93.2473 6.71942 93.3749 6.85415 93.4758 7.02906C93.5766 7.20397 93.627 7.4167 93.627 7.66724C93.627 7.91463 93.5687 8.13682 93.4521 8.33379C93.3371 8.52918 93.159 8.68439 92.9179 8.79942C92.6768 8.91288 92.3688 8.9696 91.9938 8.9696H90.1383ZM90.8687 8.34324H91.9228C92.2727 8.34324 92.5232 8.27548 92.6745 8.13997C92.8258 8.00445 92.9014 7.83506 92.9014 7.63179C92.9014 7.47894 92.8628 7.3387 92.7856 7.21106C92.7084 7.08342 92.5981 6.98179 92.4547 6.90615C92.3128 6.83051 92.1442 6.7927 91.9488 6.7927H90.8687V8.34324ZM90.8687 6.22306H91.8472C92.0111 6.22306 92.1584 6.19154 92.2892 6.12851C92.4216 6.06548 92.5264 5.97724 92.6036 5.86379C92.6824 5.74876 92.7218 5.61324 92.7218 5.45724C92.7218 5.25712 92.6516 5.0893 92.5114 4.95379C92.3712 4.81827 92.1561 4.75051 91.8661 4.75051H90.8687V6.22306ZM96.7364 7.46397V5.33906H97.4455V8.9696H96.7506V8.34088H96.7128C96.6292 8.5347 96.4953 8.69621 96.3109 8.82542C96.1282 8.95306 95.9005 9.01688 95.6278 9.01688C95.3946 9.01688 95.1882 8.96567 95.0086 8.86324C94.8305 8.75924 94.6903 8.6056 94.5878 8.40233C94.487 8.19906 94.4366 7.94773 94.4366 7.64833V5.33906H95.1433V7.56324C95.1433 7.81063 95.2118 8.0076 95.3489 8.15415C95.486 8.3007 95.6641 8.37397 95.8831 8.37397C96.0155 8.37397 96.1471 8.34088 96.2778 8.2747C96.4102 8.20851 96.5197 8.10845 96.6064 7.97451C96.6946 7.84057 96.738 7.67039 96.7364 7.46397ZM98.8418 10.3311C98.7362 10.3311 98.6401 10.3224 98.5534 10.3051C98.4668 10.2893 98.4022 10.272 98.3596 10.2531L98.5298 9.67397C98.659 9.70863 98.774 9.7236 98.8749 9.71888C98.9757 9.71415 99.0648 9.67633 99.142 9.60542C99.2208 9.53451 99.2901 9.4187 99.35 9.25797L99.4374 9.01688L98.1091 5.33906H98.8654L99.7849 8.15651H99.8227L100.742 5.33906H101.501L100.005 9.45415C99.9354 9.64324 99.8471 9.80318 99.74 9.93397C99.6328 10.0663 99.5052 10.1656 99.3571 10.2318C99.209 10.298 99.0372 10.3311 98.8418 10.3311ZM102.165 8.9696V5.33906H102.872V8.9696H102.165ZM102.522 4.77888C102.399 4.77888 102.293 4.73791 102.205 4.65597C102.119 4.57245 102.075 4.47318 102.075 4.35815C102.075 4.24154 102.119 4.14227 102.205 4.06033C102.293 3.97682 102.399 3.93506 102.522 3.93506C102.645 3.93506 102.75 3.97682 102.836 4.06033C102.925 4.14227 102.969 4.24154 102.969 4.35815C102.969 4.47318 102.925 4.57245 102.836 4.65597C102.75 4.73791 102.645 4.77888 102.522 4.77888ZM104.529 6.81397V8.9696H103.823V5.33906H104.501V5.92997H104.546C104.629 5.73773 104.76 5.5833 104.938 5.4667C105.118 5.35009 105.344 5.29179 105.617 5.29179C105.864 5.29179 106.081 5.34379 106.267 5.44779C106.453 5.55021 106.597 5.70306 106.699 5.90633C106.802 6.1096 106.853 6.36094 106.853 6.66033V8.9696H106.146V6.74542C106.146 6.48227 106.077 6.27663 105.94 6.12851C105.803 5.97882 105.615 5.90397 105.375 5.90397C105.212 5.90397 105.066 5.93942 104.938 6.01033C104.812 6.08124 104.712 6.18524 104.638 6.32233C104.566 6.45785 104.529 6.62173 104.529 6.81397ZM109.323 10.4067C109.034 10.4067 108.786 10.3689 108.578 10.2932C108.372 10.2176 108.203 10.1175 108.072 9.99306C107.942 9.86857 107.844 9.73227 107.779 9.58415L108.387 9.3336C108.429 9.40294 108.486 9.47621 108.557 9.55342C108.629 9.63221 108.727 9.69918 108.85 9.75433C108.975 9.80948 109.134 9.83706 109.33 9.83706C109.598 9.83706 109.819 9.77167 109.994 9.64088C110.169 9.51167 110.256 9.30524 110.256 9.0216V8.30779H110.211C110.169 8.385 110.107 8.47088 110.027 8.56542C109.948 8.65997 109.84 8.74191 109.701 8.81124C109.562 8.88057 109.382 8.91524 109.16 8.91524C108.873 8.91524 108.614 8.84827 108.384 8.71433C108.156 8.57882 107.975 8.37948 107.841 8.11633C107.708 7.8516 107.642 7.52621 107.642 7.14015C107.642 6.75409 107.708 6.42318 107.838 6.14742C107.971 5.87167 108.152 5.66051 108.382 5.51397C108.612 5.36585 108.873 5.29179 109.164 5.29179C109.39 5.29179 109.572 5.3296 109.71 5.40524C109.849 5.4793 109.957 5.56597 110.034 5.66524C110.113 5.76451 110.174 5.85197 110.216 5.9276H110.268V5.33906H110.961V9.04997C110.961 9.36197 110.888 9.61803 110.743 9.81815C110.598 10.0183 110.402 10.1664 110.155 10.2625C109.909 10.3586 109.632 10.4067 109.323 10.4067ZM109.316 8.32906C109.519 8.32906 109.691 8.28179 109.831 8.18724C109.973 8.09112 110.08 7.95403 110.152 7.77597C110.226 7.59633 110.263 7.38124 110.263 7.1307C110.263 6.88645 110.227 6.67136 110.155 6.48542C110.082 6.29948 109.976 6.15451 109.836 6.05051C109.695 5.94494 109.522 5.89215 109.316 5.89215C109.103 5.89215 108.926 5.9473 108.784 6.0576C108.642 6.16633 108.535 6.31445 108.462 6.50197C108.391 6.68948 108.356 6.89906 108.356 7.1307C108.356 7.36863 108.392 7.57742 108.465 7.75706C108.537 7.9367 108.644 8.07694 108.786 8.17779C108.93 8.27863 109.106 8.32906 109.316 8.32906Z" fill="white"/>
</svg>
