<svg width="144" height="13" viewBox="0 0 144 13" fill="none" xmlns="http://www.w3.org/2000/svg">
<rect width="24.6496" height="12.6464" rx="2.6624" fill="#25C9BA" fill-opacity="0.5"/>
<path d="M6.26556 8.32324H5.49028L7.23228 3.48252H8.0761L9.8181 8.32324H9.04283L7.67428 4.36179H7.63647L6.26556 8.32324ZM6.39556 6.42761H8.91047V7.04215H6.39556V6.42761ZM14.4946 5.90288C14.4946 6.41973 14.4 6.86409 14.2109 7.23597C14.0218 7.60627 13.7626 7.89148 13.4333 8.09161C13.1055 8.29015 12.7329 8.38942 12.3153 8.38942C11.8961 8.38942 11.5219 8.29015 11.1926 8.09161C10.8648 7.89148 10.6064 7.60548 10.4173 7.23361C10.2282 6.86173 10.1336 6.41815 10.1336 5.90288C10.1336 5.38603 10.2282 4.94245 10.4173 4.57215C10.6064 4.20027 10.8648 3.91506 11.1926 3.71652C11.5219 3.51639 11.8961 3.41633 12.3153 3.41633C12.7329 3.41633 13.1055 3.51639 13.4333 3.71652C13.7626 3.91506 14.0218 4.20027 14.2109 4.57215C14.4 4.94245 14.4946 5.38603 14.4946 5.90288ZM13.7713 5.90288C13.7713 5.50894 13.7075 5.17724 13.5798 4.90779C13.4538 4.63676 13.2804 4.43191 13.0598 4.29324C12.8408 4.153 12.5926 4.08288 12.3153 4.08288C12.0364 4.08288 11.7874 4.153 11.5684 4.29324C11.3493 4.43191 11.176 4.63676 11.0484 4.90779C10.9223 5.17724 10.8593 5.50894 10.8593 5.90288C10.8593 6.29682 10.9223 6.6293 11.0484 6.90033C11.176 7.16979 11.3493 7.37464 11.5684 7.51488C11.7874 7.65355 12.0364 7.72288 12.3153 7.72288C12.5926 7.72288 12.8408 7.65355 13.0598 7.51488C13.2804 7.37464 13.4538 7.16979 13.5798 6.90033C13.7075 6.6293 13.7713 6.29682 13.7713 5.90288ZM15.4051 8.32324V3.48252H17.1306C17.5056 3.48252 17.8168 3.54712 18.0642 3.67633C18.3132 3.80555 18.4991 3.98439 18.6221 4.21288C18.745 4.43979 18.8064 4.70215 18.8064 4.99997C18.8064 5.29621 18.7442 5.557 18.6197 5.78233C18.4968 6.00609 18.3108 6.18021 18.0619 6.3047C17.8145 6.42918 17.5033 6.49142 17.1282 6.49142H15.8211V5.8627H17.0621C17.2984 5.8627 17.4907 5.82882 17.6388 5.76106C17.7885 5.6933 17.898 5.59482 17.9673 5.46561C18.0367 5.33639 18.0713 5.18118 18.0713 4.99997C18.0713 4.81718 18.0359 4.65882 17.965 4.52488C17.8956 4.39094 17.7861 4.28851 17.6364 4.21761C17.4883 4.14512 17.2937 4.10888 17.0526 4.10888H16.1355V8.32324H15.4051ZM17.7948 6.13924L18.9908 8.32324H18.1588L16.9864 6.13924H17.7948Z" fill="white"/>
<rect x="26.6497" width="60.6496" height="12.6464" rx="2.6624" fill="#2567C9" fill-opacity="0.6"/>
<path d="M32.5063 3.48252H33.3927L34.9338 7.24542H34.9905L36.5316 3.48252H37.4179V8.32324H36.723V4.82033H36.6781L35.2505 8.31615H34.6738L33.2461 4.81797H33.2012V8.32324H32.5063V3.48252ZM39.9878 8.39651C39.6301 8.39651 39.322 8.32009 39.0636 8.16724C38.8068 8.01282 38.6082 7.79615 38.468 7.51724C38.3293 7.23676 38.26 6.90821 38.26 6.53161C38.26 6.15973 38.3293 5.83197 38.468 5.54833C38.6082 5.2647 38.8036 5.0433 39.0542 4.88415C39.3063 4.725 39.601 4.64542 39.9382 4.64542C40.143 4.64542 40.3416 4.6793 40.5338 4.74706C40.726 4.81482 40.8986 4.92118 41.0514 5.06615C41.2043 5.21112 41.3248 5.39942 41.4131 5.63106C41.5013 5.86112 41.5454 6.14082 41.5454 6.47015V6.7207H38.6594V6.19124H40.8529C40.8529 6.0053 40.8151 5.84064 40.7394 5.69724C40.6638 5.55227 40.5574 5.43803 40.4204 5.35451C40.2848 5.271 40.1257 5.22924 39.9429 5.22924C39.7444 5.22924 39.571 5.27809 39.4229 5.37579C39.2764 5.47191 39.1629 5.59797 39.0825 5.75397C39.0037 5.90839 38.9644 6.07621 38.9644 6.25742V6.67106C38.9644 6.91373 39.0069 7.12015 39.092 7.29033C39.1787 7.46051 39.2992 7.59051 39.4536 7.68033C39.608 7.76858 39.7885 7.8127 39.9949 7.8127C40.1288 7.8127 40.251 7.79379 40.3613 7.75597C40.4716 7.71658 40.5669 7.65827 40.6473 7.58106C40.7276 7.50385 40.7891 7.40851 40.8316 7.29506L41.5005 7.41561C41.447 7.61258 41.3508 7.78512 41.2122 7.93324C41.0751 8.07979 40.9025 8.19403 40.6945 8.27597C40.4881 8.35633 40.2525 8.39651 39.9878 8.39651ZM43.6887 8.39415C43.3956 8.39415 43.134 8.3193 42.9039 8.16961C42.6755 8.01833 42.4958 7.80324 42.365 7.52433C42.2358 7.24385 42.1712 6.90742 42.1712 6.51506C42.1712 6.1227 42.2366 5.78706 42.3674 5.50815C42.4998 5.22924 42.681 5.01573 42.911 4.86761C43.1411 4.71948 43.4019 4.64542 43.6934 4.64542C43.9187 4.64542 44.0999 4.68324 44.237 4.75888C44.3757 4.83294 44.4829 4.91961 44.5585 5.01888C44.6357 5.11815 44.6956 5.20561 44.7381 5.28124H44.7807V3.48252H45.4874V8.32324H44.7972V7.75833H44.7381C44.6956 7.83555 44.6341 7.92379 44.5538 8.02306C44.475 8.12233 44.3662 8.209 44.2276 8.28306C44.0889 8.35712 43.9093 8.39415 43.6887 8.39415ZM43.8447 7.79142C44.0479 7.79142 44.2197 7.73785 44.3599 7.6307C44.5018 7.52197 44.6089 7.37148 44.6814 7.17924C44.7555 6.987 44.7925 6.76324 44.7925 6.50797C44.7925 6.25585 44.7562 6.03524 44.6838 5.84615C44.6113 5.65706 44.5049 5.50973 44.3647 5.40415C44.2244 5.29858 44.0511 5.24579 43.8447 5.24579C43.6319 5.24579 43.4547 5.30094 43.3129 5.41124C43.171 5.52155 43.0639 5.67203 42.9914 5.8627C42.9205 6.05336 42.885 6.26845 42.885 6.50797C42.885 6.75064 42.9213 6.96888 42.9938 7.1627C43.0662 7.35651 43.1734 7.51015 43.3152 7.62361C43.4586 7.73548 43.6351 7.79142 43.8447 7.79142ZM46.4961 8.32324V4.6927H47.2028V8.32324H46.4961ZM46.853 4.13251C46.7301 4.13251 46.6245 4.09155 46.5363 4.00961C46.4496 3.92609 46.4063 3.82682 46.4063 3.71179C46.4063 3.59518 46.4496 3.49591 46.5363 3.41397C46.6245 3.33045 46.7301 3.2887 46.853 3.2887C46.9759 3.2887 47.0807 3.33045 47.1674 3.41397C47.2556 3.49591 47.2997 3.59518 47.2997 3.71179C47.2997 3.82682 47.2556 3.92609 47.1674 4.00961C47.0807 4.09155 46.9759 4.13251 46.853 4.13251ZM49.5127 8.39415C49.2196 8.39415 48.958 8.3193 48.7279 8.16961C48.4995 8.01833 48.3198 7.80324 48.189 7.52433C48.0598 7.24385 47.9952 6.90742 47.9952 6.51506C47.9952 6.1227 48.0606 5.78706 48.1914 5.50815C48.3238 5.22924 48.505 5.01573 48.735 4.86761C48.9651 4.71948 49.2259 4.64542 49.5174 4.64542C49.7427 4.64542 49.9239 4.68324 50.061 4.75888C50.1997 4.83294 50.3069 4.91961 50.3825 5.01888C50.4597 5.11815 50.5196 5.20561 50.5621 5.28124H50.6047V4.6927H51.3114V8.32324H50.6212V7.75833H50.5621C50.5196 7.83555 50.4581 7.92379 50.3778 8.02306C50.299 8.12233 50.1902 8.209 50.0516 8.28306C49.9129 8.35712 49.7333 8.39415 49.5127 8.39415ZM49.6687 7.79142C49.8719 7.79142 50.0437 7.73785 50.1839 7.6307C50.3258 7.52197 50.4329 7.37148 50.5054 7.17924C50.5795 6.987 50.6165 6.76324 50.6165 6.50797C50.6165 6.25585 50.5802 6.03524 50.5078 5.84615C50.4353 5.65706 50.3289 5.50973 50.1887 5.40415C50.0484 5.29858 49.8751 5.24579 49.6687 5.24579C49.4559 5.24579 49.2787 5.30094 49.1369 5.41124C48.995 5.52155 48.8879 5.67203 48.8154 5.8627C48.7445 6.05336 48.709 6.26845 48.709 6.50797C48.709 6.75064 48.7453 6.96888 48.8178 7.1627C48.8902 7.35651 48.9974 7.51015 49.1392 7.62361C49.2826 7.73548 49.4591 7.79142 49.6687 7.79142ZM54.1383 8.32324V3.48252H55.8638C56.2404 3.48252 56.5524 3.55106 56.7998 3.68815C57.0472 3.82524 57.2323 4.01276 57.3552 4.2507C57.4781 4.48706 57.5396 4.75336 57.5396 5.04961C57.5396 5.34742 57.4773 5.6153 57.3528 5.85324C57.2299 6.08961 57.044 6.27712 56.795 6.41579C56.5476 6.55288 56.2364 6.62142 55.8614 6.62142H54.6748V6.00215H55.7952C56.0332 6.00215 56.2262 5.96118 56.3743 5.87924C56.5224 5.79573 56.6312 5.68227 56.7005 5.53888C56.7698 5.39548 56.8045 5.23239 56.8045 5.04961C56.8045 4.86682 56.7698 4.70452 56.7005 4.5627C56.6312 4.42088 56.5216 4.30979 56.3719 4.22942C56.2238 4.14906 56.0284 4.10888 55.7858 4.10888H54.8687V8.32324H54.1383ZM59.0458 3.48252V8.32324H58.3391V3.48252H59.0458ZM61.3557 8.39415C61.0626 8.39415 60.801 8.3193 60.5709 8.16961C60.3425 8.01833 60.1628 7.80324 60.032 7.52433C59.9028 7.24385 59.8382 6.90742 59.8382 6.51506C59.8382 6.1227 59.9036 5.78706 60.0344 5.50815C60.1668 5.22924 60.348 5.01573 60.578 4.86761C60.8081 4.71948 61.0689 4.64542 61.3604 4.64542C61.5857 4.64542 61.7669 4.68324 61.904 4.75888C62.0427 4.83294 62.1498 4.91961 62.2255 5.01888C62.3027 5.11815 62.3626 5.20561 62.4051 5.28124H62.4477V4.6927H63.1544V8.32324H62.4642V7.75833H62.4051C62.3626 7.83555 62.3011 7.92379 62.2208 8.02306C62.142 8.12233 62.0332 8.209 61.8946 8.28306C61.7559 8.35712 61.5763 8.39415 61.3557 8.39415ZM61.5117 7.79142C61.7149 7.79142 61.8867 7.73785 62.0269 7.6307C62.1688 7.52197 62.2759 7.37148 62.3484 7.17924C62.4225 6.987 62.4595 6.76324 62.4595 6.50797C62.4595 6.25585 62.4232 6.03524 62.3508 5.84615C62.2783 5.65706 62.1719 5.50973 62.0317 5.40415C61.8914 5.29858 61.7181 5.24579 61.5117 5.24579C61.2989 5.24579 61.1217 5.30094 60.9798 5.41124C60.838 5.52155 60.7309 5.67203 60.6584 5.8627C60.5875 6.05336 60.552 6.26845 60.552 6.50797C60.552 6.75064 60.5883 6.96888 60.6608 7.1627C60.7332 7.35651 60.8404 7.51015 60.9822 7.62361C61.1256 7.73548 61.3021 7.79142 61.5117 7.79142ZM64.8698 6.16761V8.32324H64.1631V4.6927H64.8414V5.28361H64.8863C64.9699 5.09136 65.1007 4.93694 65.2787 4.82033C65.4583 4.70373 65.6845 4.64542 65.9571 4.64542C66.2045 4.64542 66.4211 4.69742 66.6071 4.80142C66.793 4.90385 66.9372 5.0567 67.0396 5.25997C67.142 5.46324 67.1933 5.71458 67.1933 6.01397V8.32324H66.4865V6.09906C66.4865 5.83591 66.418 5.63027 66.2809 5.48215C66.1438 5.33245 65.9555 5.25761 65.716 5.25761C65.5521 5.25761 65.4063 5.29306 65.2787 5.36397C65.1527 5.43488 65.0526 5.53888 64.9785 5.67597C64.906 5.81148 64.8698 5.97536 64.8698 6.16761ZM68.8478 6.16761V8.32324H68.1411V4.6927H68.8194V5.28361H68.8643C68.9479 5.09136 69.0787 4.93694 69.2567 4.82033C69.4363 4.70373 69.6625 4.64542 69.9351 4.64542C70.1825 4.64542 70.3991 4.69742 70.5851 4.80142C70.771 4.90385 70.9152 5.0567 71.0176 5.25997C71.12 5.46324 71.1713 5.71458 71.1713 6.01397V8.32324H70.4645V6.09906C70.4645 5.83591 70.396 5.63027 70.2589 5.48215C70.1218 5.33245 69.9335 5.25761 69.694 5.25761C69.5301 5.25761 69.3843 5.29306 69.2567 5.36397C69.1307 5.43488 69.0306 5.53888 68.9565 5.67597C68.884 5.81148 68.8478 5.97536 68.8478 6.16761ZM72.1191 8.32324V4.6927H72.8258V8.32324H72.1191ZM72.476 4.13251C72.3531 4.13251 72.2475 4.09155 72.1593 4.00961C72.0726 3.92609 72.0293 3.82682 72.0293 3.71179C72.0293 3.59518 72.0726 3.49591 72.1593 3.41397C72.2475 3.33045 72.3531 3.2887 72.476 3.2887C72.5989 3.2887 72.7037 3.33045 72.7903 3.41397C72.8786 3.49591 72.9227 3.59518 72.9227 3.71179C72.9227 3.82682 72.8786 3.92609 72.7903 4.00961C72.7037 4.09155 72.5989 4.13251 72.476 4.13251ZM74.4833 6.16761V8.32324H73.7766V4.6927H74.4549V5.28361H74.4998C74.5834 5.09136 74.7141 4.93694 74.8922 4.82033C75.0718 4.70373 75.298 4.64542 75.5706 4.64542C75.818 4.64542 76.0346 4.69742 76.2206 4.80142C76.4065 4.90385 76.5507 5.0567 76.6531 5.25997C76.7555 5.46324 76.8068 5.71458 76.8068 6.01397V8.32324H76.1V6.09906C76.1 5.83591 76.0315 5.63027 75.8944 5.48215C75.7573 5.33245 75.569 5.25761 75.3295 5.25761C75.1656 5.25761 75.0198 5.29306 74.8922 5.36397C74.7661 5.43488 74.6661 5.53888 74.592 5.67597C74.5195 5.81148 74.4833 5.97536 74.4833 6.16761ZM79.2768 9.76033C78.9884 9.76033 78.7402 9.72251 78.5322 9.64688C78.3258 9.57124 78.1572 9.47118 78.0264 9.3467C77.8956 9.22221 77.7979 9.08591 77.7333 8.93779L78.3408 8.68724C78.3833 8.75658 78.44 8.82985 78.5109 8.90706C78.5834 8.98585 78.6811 9.05282 78.804 9.10797C78.9285 9.16312 79.0885 9.1907 79.2838 9.1907C79.5517 9.1907 79.7731 9.1253 79.948 8.99451C80.1229 8.8653 80.2104 8.65888 80.2104 8.37524V7.66142H80.1655C80.1229 7.73864 80.0615 7.82451 79.9811 7.91906C79.9023 8.01361 79.7936 8.09555 79.6549 8.16488C79.5163 8.23421 79.3358 8.26888 79.1137 8.26888C78.8269 8.26888 78.5685 8.20191 78.3384 8.06797C78.1099 7.93245 77.9287 7.73312 77.7948 7.46997C77.6624 7.20524 77.5962 6.87985 77.5962 6.49379C77.5962 6.10773 77.6616 5.77682 77.7924 5.50106C77.9248 5.2253 78.106 5.01415 78.336 4.86761C78.5661 4.71948 78.8269 4.64542 79.1184 4.64542C79.3437 4.64542 79.5257 4.68324 79.6644 4.75888C79.8031 4.83294 79.911 4.91961 79.9882 5.01888C80.067 5.11815 80.1277 5.20561 80.1702 5.28124H80.2222V4.6927H80.9148V8.40361C80.9148 8.71561 80.8423 8.97167 80.6973 9.17179C80.5523 9.37191 80.3562 9.52003 80.1088 9.61615C79.8629 9.71227 79.5856 9.76033 79.2768 9.76033ZM79.2697 7.6827C79.4729 7.6827 79.6447 7.63542 79.7849 7.54088C79.9268 7.44476 80.0339 7.30767 80.1064 7.12961C80.1805 6.94997 80.2175 6.73488 80.2175 6.48433C80.2175 6.24009 80.1812 6.025 80.1088 5.83906C80.0363 5.65312 79.9299 5.50815 79.7897 5.40415C79.6494 5.29858 79.4761 5.24579 79.2697 5.24579C79.0569 5.24579 78.8797 5.30094 78.7378 5.41124C78.596 5.51997 78.4889 5.66809 78.4164 5.85561C78.3455 6.04312 78.31 6.2527 78.31 6.48433C78.31 6.72227 78.3463 6.93106 78.4188 7.1107C78.4912 7.29033 78.5984 7.43058 78.7402 7.53142C78.8836 7.63227 79.0601 7.6827 79.2697 7.6827Z" fill="white"/>
<rect x="89.2992" width="54.6496" height="12.6464" rx="2.6624" fill="#2567C9" fill-opacity="0.6"/>
<path d="M95.1558 3.48252H96.0422L97.5833 7.24542H97.64L99.1811 3.48252H100.067V8.32324H99.3726V4.82033H99.3277L97.9 8.31615H97.3233L95.8957 4.81797H95.8508V8.32324H95.1558V3.48252ZM102.637 8.39651C102.28 8.39651 101.972 8.32009 101.713 8.16724C101.456 8.01282 101.258 7.79615 101.118 7.51724C100.979 7.23676 100.91 6.90821 100.91 6.53161C100.91 6.15973 100.979 5.83197 101.118 5.54833C101.258 5.2647 101.453 5.0433 101.704 4.88415C101.956 4.725 102.25 4.64542 102.588 4.64542C102.793 4.64542 102.991 4.6793 103.183 4.74706C103.376 4.81482 103.548 4.92118 103.701 5.06615C103.854 5.21112 103.974 5.39942 104.063 5.63106C104.151 5.86112 104.195 6.14082 104.195 6.47015V6.7207H101.309V6.19124H103.502C103.502 6.0053 103.465 5.84064 103.389 5.69724C103.313 5.55227 103.207 5.43803 103.07 5.35451C102.934 5.271 102.775 5.22924 102.592 5.22924C102.394 5.22924 102.221 5.27809 102.072 5.37579C101.926 5.47191 101.812 5.59797 101.732 5.75397C101.653 5.90839 101.614 6.07621 101.614 6.25742V6.67106C101.614 6.91373 101.656 7.12015 101.742 7.29033C101.828 7.46051 101.949 7.59051 102.103 7.68033C102.258 7.76858 102.438 7.8127 102.644 7.8127C102.778 7.8127 102.9 7.79379 103.011 7.75597C103.121 7.71658 103.216 7.65827 103.297 7.58106C103.377 7.50385 103.439 7.40851 103.481 7.29506L104.15 7.41561C104.096 7.61258 104 7.78512 103.862 7.93324C103.725 8.07979 103.552 8.19403 103.344 8.27597C103.138 8.35633 102.902 8.39651 102.637 8.39651ZM106.338 8.39415C106.045 8.39415 105.784 8.3193 105.553 8.16961C105.325 8.01833 105.145 7.80324 105.015 7.52433C104.885 7.24385 104.821 6.90742 104.821 6.51506C104.821 6.1227 104.886 5.78706 105.017 5.50815C105.149 5.22924 105.331 5.01573 105.561 4.86761C105.791 4.71948 106.051 4.64542 106.343 4.64542C106.568 4.64542 106.749 4.68324 106.887 4.75888C107.025 4.83294 107.132 4.91961 107.208 5.01888C107.285 5.11815 107.345 5.20561 107.388 5.28124H107.43V3.48252H108.137V8.32324H107.447V7.75833H107.388C107.345 7.83555 107.284 7.92379 107.203 8.02306C107.125 8.12233 107.016 8.209 106.877 8.28306C106.738 8.35712 106.559 8.39415 106.338 8.39415ZM106.494 7.79142C106.697 7.79142 106.869 7.73785 107.009 7.6307C107.151 7.52197 107.258 7.37148 107.331 7.17924C107.405 6.987 107.442 6.76324 107.442 6.50797C107.442 6.25585 107.406 6.03524 107.333 5.84615C107.261 5.65706 107.154 5.50973 107.014 5.40415C106.874 5.29858 106.701 5.24579 106.494 5.24579C106.281 5.24579 106.104 5.30094 105.962 5.41124C105.821 5.52155 105.713 5.67203 105.641 5.8627C105.57 6.05336 105.535 6.26845 105.535 6.50797C105.535 6.75064 105.571 6.96888 105.643 7.1627C105.716 7.35651 105.823 7.51015 105.965 7.62361C106.108 7.73548 106.285 7.79142 106.494 7.79142ZM109.146 8.32324V4.6927H109.852V8.32324H109.146ZM109.503 4.13251C109.38 4.13251 109.274 4.09155 109.186 4.00961C109.099 3.92609 109.056 3.82682 109.056 3.71179C109.056 3.59518 109.099 3.49591 109.186 3.41397C109.274 3.33045 109.38 3.2887 109.503 3.2887C109.625 3.2887 109.73 3.33045 109.817 3.41397C109.905 3.49591 109.949 3.59518 109.949 3.71179C109.949 3.82682 109.905 3.92609 109.817 4.00961C109.73 4.09155 109.625 4.13251 109.503 4.13251ZM112.162 8.39415C111.869 8.39415 111.608 8.3193 111.377 8.16961C111.149 8.01833 110.969 7.80324 110.839 7.52433C110.709 7.24385 110.645 6.90742 110.645 6.51506C110.645 6.1227 110.71 5.78706 110.841 5.50815C110.973 5.22924 111.155 5.01573 111.385 4.86761C111.615 4.71948 111.875 4.64542 112.167 4.64542C112.392 4.64542 112.573 4.68324 112.711 4.75888C112.849 4.83294 112.956 4.91961 113.032 5.01888C113.109 5.11815 113.169 5.20561 113.212 5.28124H113.254V4.6927H113.961V8.32324H113.271V7.75833H113.212C113.169 7.83555 113.108 7.92379 113.027 8.02306C112.949 8.12233 112.84 8.209 112.701 8.28306C112.562 8.35712 112.383 8.39415 112.162 8.39415ZM112.318 7.79142C112.521 7.79142 112.693 7.73785 112.833 7.6307C112.975 7.52197 113.082 7.37148 113.155 7.17924C113.229 6.987 113.266 6.76324 113.266 6.50797C113.266 6.25585 113.23 6.03524 113.157 5.84615C113.085 5.65706 112.978 5.50973 112.838 5.40415C112.698 5.29858 112.525 5.24579 112.318 5.24579C112.105 5.24579 111.928 5.30094 111.786 5.41124C111.645 5.52155 111.537 5.67203 111.465 5.8627C111.394 6.05336 111.359 6.26845 111.359 6.50797C111.359 6.75064 111.395 6.96888 111.467 7.1627C111.54 7.35651 111.647 7.51015 111.789 7.62361C111.932 7.73548 112.109 7.79142 112.318 7.79142ZM116.788 8.32324V3.48252H118.561C118.904 3.48252 119.189 3.53924 119.414 3.6527C119.639 3.76458 119.808 3.91664 119.92 4.10888C120.032 4.29955 120.087 4.51464 120.087 4.75415C120.087 4.95585 120.05 5.12603 119.976 5.2647C119.902 5.40179 119.803 5.51209 119.679 5.59561C119.556 5.67755 119.42 5.73742 119.272 5.77524V5.82251C119.433 5.83039 119.59 5.88239 119.742 5.97851C119.897 6.07306 120.024 6.20779 120.125 6.3827C120.226 6.55761 120.277 6.77033 120.277 7.02088C120.277 7.26827 120.218 7.49045 120.102 7.68742C119.987 7.88282 119.809 8.03803 119.567 8.15306C119.326 8.26651 119.018 8.32324 118.643 8.32324H116.788ZM117.518 7.69688H118.572C118.922 7.69688 119.173 7.62912 119.324 7.49361C119.475 7.35809 119.551 7.1887 119.551 6.98542C119.551 6.83258 119.512 6.69233 119.435 6.5647C119.358 6.43706 119.248 6.33542 119.104 6.25979C118.962 6.18415 118.794 6.14633 118.598 6.14633H117.518V7.69688ZM117.518 5.5767H118.497C118.661 5.5767 118.808 5.54518 118.939 5.48215C119.071 5.41912 119.176 5.33088 119.253 5.21742C119.332 5.10239 119.371 4.96688 119.371 4.81088C119.371 4.61076 119.301 4.44294 119.161 4.30742C119.021 4.17191 118.806 4.10415 118.516 4.10415H117.518V5.5767ZM123.386 6.81761V4.6927H124.095V8.32324H123.4V7.69451H123.362C123.279 7.88833 123.145 8.04985 122.96 8.17906C122.778 8.3067 122.55 8.37051 122.277 8.37051C122.044 8.37051 121.838 8.3193 121.658 8.21688C121.48 8.11288 121.34 7.95924 121.237 7.75597C121.137 7.5527 121.086 7.30136 121.086 7.00197V4.6927H121.793V6.91688C121.793 7.16427 121.861 7.36124 121.998 7.50779C122.136 7.65433 122.314 7.72761 122.533 7.72761C122.665 7.72761 122.797 7.69451 122.927 7.62833C123.06 7.56215 123.169 7.46209 123.256 7.32815C123.344 7.19421 123.388 7.02403 123.386 6.81761ZM125.491 9.6847C125.386 9.6847 125.29 9.67603 125.203 9.6587C125.116 9.64294 125.052 9.62561 125.009 9.6067L125.179 9.02761C125.309 9.06227 125.424 9.07724 125.524 9.07251C125.625 9.06779 125.714 9.02997 125.792 8.95906C125.87 8.88815 125.94 8.77233 126 8.61161L126.087 8.37051L124.759 4.6927H125.515L126.434 7.51015H126.472L127.392 4.6927H128.15L126.654 8.80779C126.585 8.99688 126.497 9.15682 126.39 9.28761C126.282 9.41997 126.155 9.51924 126.007 9.58542C125.858 9.65161 125.687 9.6847 125.491 9.6847ZM128.815 8.32324V4.6927H129.521V8.32324H128.815ZM129.172 4.13251C129.049 4.13251 128.943 4.09155 128.855 4.00961C128.768 3.92609 128.725 3.82682 128.725 3.71179C128.725 3.59518 128.768 3.49591 128.855 3.41397C128.943 3.33045 129.049 3.2887 129.172 3.2887C129.294 3.2887 129.399 3.33045 129.486 3.41397C129.574 3.49591 129.618 3.59518 129.618 3.71179C129.618 3.82682 129.574 3.92609 129.486 4.00961C129.399 4.09155 129.294 4.13251 129.172 4.13251ZM131.179 6.16761V8.32324H130.472V4.6927H131.15V5.28361H131.195C131.279 5.09136 131.41 4.93694 131.588 4.82033C131.767 4.70373 131.994 4.64542 132.266 4.64542C132.514 4.64542 132.73 4.69742 132.916 4.80142C133.102 4.90385 133.246 5.0567 133.349 5.25997C133.451 5.46324 133.502 5.71458 133.502 6.01397V8.32324H132.796V6.09906C132.796 5.83591 132.727 5.63027 132.59 5.48215C132.453 5.33245 132.265 5.25761 132.025 5.25761C131.861 5.25761 131.715 5.29306 131.588 5.36397C131.462 5.43488 131.362 5.53888 131.288 5.67597C131.215 5.81148 131.179 5.97536 131.179 6.16761ZM135.972 9.76033C135.684 9.76033 135.436 9.72251 135.228 9.64688C135.021 9.57124 134.853 9.47118 134.722 9.3467C134.591 9.22221 134.493 9.08591 134.429 8.93779L135.036 8.68724C135.079 8.75658 135.136 8.82985 135.206 8.90706C135.279 8.98585 135.377 9.05282 135.5 9.10797C135.624 9.16312 135.784 9.1907 135.979 9.1907C136.247 9.1907 136.469 9.1253 136.644 8.99451C136.818 8.8653 136.906 8.65888 136.906 8.37524V7.66142H136.861C136.818 7.73864 136.757 7.82451 136.677 7.91906C136.598 8.01361 136.489 8.09555 136.35 8.16488C136.212 8.23421 136.031 8.26888 135.809 8.26888C135.522 8.26888 135.264 8.20191 135.034 8.06797C134.805 7.93245 134.624 7.73312 134.49 7.46997C134.358 7.20524 134.292 6.87985 134.292 6.49379C134.292 6.10773 134.357 5.77682 134.488 5.50106C134.62 5.2253 134.802 5.01415 135.032 4.86761C135.262 4.71948 135.522 4.64542 135.814 4.64542C136.039 4.64542 136.221 4.68324 136.36 4.75888C136.499 4.83294 136.607 4.91961 136.684 5.01888C136.763 5.11815 136.823 5.20561 136.866 5.28124H136.918V4.6927H137.61V8.40361C137.61 8.71561 137.538 8.97167 137.393 9.17179C137.248 9.37191 137.052 9.52003 136.804 9.61615C136.558 9.71227 136.281 9.76033 135.972 9.76033ZM135.965 7.6827C136.168 7.6827 136.34 7.63542 136.48 7.54088C136.622 7.44476 136.729 7.30767 136.802 7.12961C136.876 6.94997 136.913 6.73488 136.913 6.48433C136.913 6.24009 136.877 6.025 136.804 5.83906C136.732 5.65312 136.625 5.50815 136.485 5.40415C136.345 5.29858 136.172 5.24579 135.965 5.24579C135.752 5.24579 135.575 5.30094 135.433 5.41124C135.292 5.51997 135.184 5.66809 135.112 5.85561C135.041 6.04312 135.006 6.2527 135.006 6.48433C135.006 6.72227 135.042 6.93106 135.114 7.1107C135.187 7.29033 135.294 7.43058 135.436 7.53142C135.579 7.63227 135.756 7.6827 135.965 7.6827Z" fill="white"/>
</svg>
