<svg width="185" height="26" viewBox="0 0 185 26" fill="none" xmlns="http://www.w3.org/2000/svg">
<g clip-path="url(#clip0_75_141)">
<path d="M12.9369 25.8885C20.0818 25.8885 25.8739 20.0965 25.8739 12.9516C25.8739 5.80672 20.0818 0.0146484 12.9369 0.0146484C5.79207 0.0146484 0 5.80672 0 12.9516C0 20.0965 5.79207 25.8885 12.9369 25.8885Z" fill="#074058"/>
<path d="M18.6084 16.41C17.7352 16.1452 16.8438 15.9451 15.9422 15.8116C16.1605 15.0031 16.2939 14.1723 16.3404 13.3354H19.7C19.6009 14.4331 19.233 15.4882 18.6307 16.41H18.6084ZM14.4929 19.3168C14.9517 18.5506 15.3257 17.738 15.6127 16.8911C16.3667 17.0043 17.1166 17.1599 17.8524 17.356C16.9569 18.3242 15.7967 19.0075 14.5151 19.3168H14.4929ZM8.04662 17.356C8.78444 17.1599 9.53235 17.0043 10.2863 16.8911C10.5714 17.736 10.9473 18.5506 11.4062 19.3168C10.1246 19.0055 8.96434 18.3242 8.06886 17.356H8.04662ZM6.25971 13.3354H9.61927C9.6597 14.1703 9.78098 14.999 9.98312 15.8116C9.07956 15.9471 8.1861 16.1472 7.31084 16.41C6.71452 15.4862 6.35269 14.431 6.25769 13.3354H6.25971ZM7.32903 9.14103C8.20227 9.40584 9.09371 9.60595 9.99525 9.73937C9.78503 10.5499 9.6597 11.3787 9.61927 12.2156H6.25971C6.35876 11.118 6.72665 10.0628 7.32903 9.14103ZM11.4446 6.23426C10.9857 7.00037 10.6118 7.81297 10.3247 8.65994C9.57076 8.54674 8.82082 8.39109 8.08503 8.19502C8.98658 7.22273 10.1549 6.54151 11.4446 6.23426ZM17.8908 8.18895C17.153 8.38503 16.4051 8.54068 15.6511 8.65388C15.3661 7.80893 14.9901 6.99431 14.5313 6.2282C15.8209 6.53747 16.9893 7.2207 17.8908 8.19502V8.18895ZM12.8899 6.05436H13.086C13.6803 6.89728 14.1593 7.81702 14.509 8.78729C13.9996 8.85399 13.4903 8.85399 12.9809 8.85399C12.4715 8.85399 11.9621 8.85399 11.4527 8.79335C11.8105 7.82106 12.2956 6.90132 12.8919 6.05436H12.8899ZM11.109 9.88491C11.7316 9.94555 12.3583 9.97991 12.9788 9.97991C13.5994 9.97991 14.222 9.95161 14.8446 9.89097C15.0447 10.651 15.17 11.4293 15.2206 12.2156H10.7391C10.7816 11.4272 10.9049 10.6429 11.109 9.88086V9.88693V9.88491ZM13.0698 19.4967H12.8737C12.2794 18.6537 11.8004 17.734 11.4507 16.7637C11.9601 16.697 12.4694 16.697 12.9788 16.697C13.4882 16.697 13.9976 16.697 14.507 16.7577C14.1492 17.73 13.6641 18.6497 13.0678 19.4967H13.0698ZM14.8729 15.6722C14.2281 15.6115 13.6014 15.5772 12.9809 15.5772C12.3603 15.5772 11.7377 15.6055 11.1151 15.6661C10.915 14.904 10.7876 14.1238 10.7391 13.3354H15.2206C15.1781 14.1238 15.0548 14.9081 14.8507 15.6701H14.8729V15.6722ZM19.7 12.2156H16.3404C16.3 11.3807 16.1787 10.552 15.9766 9.73937C16.8801 9.60393 17.7736 9.40381 18.6489 9.14103C19.2452 10.0648 19.607 11.12 19.702 12.2156H19.7ZM20.8198 12.2156C20.7228 10.9967 20.3387 9.8182 19.7 8.77718C19.5039 8.44365 19.2795 8.12831 19.0329 7.83117C17.717 6.20596 15.8048 5.17707 13.7227 4.97493H13.6439C13.4316 4.94865 13.2093 4.93652 12.9768 4.93652H12.2087C10.1287 5.13866 8.21642 6.16755 6.89847 7.79276C6.65792 8.10405 6.44366 8.43354 6.25364 8.7792C5.61488 9.82022 5.23082 10.9987 5.13379 12.2176V13.3375C5.23082 14.5564 5.61488 15.7348 6.25364 16.7759C6.44972 17.1094 6.6741 17.4247 6.92071 17.7219C8.23664 19.3471 10.1489 20.376 12.2309 20.5781H12.3098C12.526 20.6044 12.7484 20.6165 12.9768 20.6165C13.2052 20.6165 13.4296 20.6165 13.654 20.5882H13.7429C15.8229 20.3861 17.7352 19.3572 19.0531 17.732C19.2917 17.4308 19.508 17.1094 19.698 16.7738C20.3367 15.7328 20.7208 14.5543 20.8178 13.3354V12.2156H20.8198Z" fill="white"/>
</g>
<path fill-rule="evenodd" clip-rule="evenodd" d="M44.7224 25.8816C51.8656 25.8816 57.6559 20.0913 57.6559 12.9481C57.6559 5.80494 51.8656 0.0146484 44.7224 0.0146484C37.5803 0.0146484 31.7889 5.80494 31.7889 12.9481C31.7889 20.0913 37.5803 25.8816 44.7224 25.8816ZM47.3398 8.13929C47.0221 8.13701 46.7046 8.13473 46.3875 8.14532C45.7419 8.16834 45.2648 8.41423 45.2418 9.21989C45.2261 9.80792 45.2187 11.1618 45.2187 11.1618C45.2187 11.1618 46.7338 11.165 47.394 11.1618H47.9151C47.8597 11.5859 47.8058 12.0023 47.7524 12.4154C47.6877 12.9154 47.6236 13.4105 47.5583 13.9084H45.2376V20.767H42.3937V13.8969H40.0657V11.1639H42.4073V10.9589C42.407 10.8039 42.406 10.6492 42.4049 10.4945C42.4023 10.0998 42.3996 9.70561 42.4094 9.31092C42.4178 8.9604 42.4335 8.60466 42.4941 8.26042C42.6396 7.42651 43.0236 6.72025 43.7225 6.21802C44.3325 5.78066 45.0304 5.60069 45.7681 5.58604C46.2242 5.57516 46.6812 5.59609 47.1374 5.61697C47.1636 5.61817 47.1899 5.61938 47.2162 5.62057C47.4032 5.62877 47.5907 5.64969 47.7738 5.67013C47.8479 5.6784 47.9213 5.68658 47.9936 5.69381V8.14114H47.799C47.6459 8.14148 47.4929 8.14038 47.3398 8.13929Z" fill="#074058"/>
<path fill-rule="evenodd" clip-rule="evenodd" d="M76.5044 25.8816C83.6476 25.8816 89.4379 20.0913 89.4379 12.9481C89.4379 5.80494 83.6476 0.0146484 76.5044 0.0146484C69.3623 0.0146484 63.5709 5.80494 63.5709 12.9481C63.5709 20.0913 69.3623 25.8816 76.5044 25.8816ZM77.3928 11.5237L81.5045 7.16705H82.7668L77.9442 12.2763L82.9108 19.0544H79.1945L75.8524 14.493L71.5212 19.0826H70.2589L75.301 13.7405L70.4841 7.16705H74.2011L77.3928 11.5237ZM79.6591 18.1366H81.1L77.3032 12.9554L76.7518 12.2028L73.7351 8.08483H72.2942L75.9413 13.062L76.4927 13.8146L79.6591 18.1366Z" fill="#074058"/>
<path fill-rule="evenodd" clip-rule="evenodd" d="M108.285 25.8795C115.428 25.8795 121.217 20.0896 121.217 12.9471C121.217 5.80447 115.428 0.0146484 108.285 0.0146484C101.144 0.0146484 95.3528 5.80447 95.3528 12.9471C95.3528 20.0896 101.144 25.8795 108.285 25.8795ZM104.068 6.05141C104.907 6.05141 105.587 6.73251 105.587 7.56949C105.587 8.40856 104.907 9.0907 104.068 9.0907C103.227 9.0907 102.547 8.40856 102.547 7.56949C102.547 6.73251 103.227 6.05141 104.068 6.05141ZM102.755 18.6729H105.38V10.2414H102.755V18.6729ZM107.024 10.2412H109.538V11.3941H109.573C109.923 10.7308 110.778 10.0319 112.054 10.0319C114.708 10.0319 115.197 11.777 115.197 14.0484V18.6727H112.579V14.5736C112.579 13.5954 112.559 12.3378 111.216 12.3378C109.851 12.3378 109.644 13.4029 109.644 14.5025V18.6727H107.024V10.2412Z" fill="#074058"/>
<path fill-rule="evenodd" clip-rule="evenodd" d="M140.066 25.8816C147.209 25.8816 153 20.0913 153 12.9481C153 5.80494 147.209 0.0146484 140.066 0.0146484C132.924 0.0146484 127.133 5.80494 127.133 12.9481C127.133 20.0913 132.924 25.8816 140.066 25.8816ZM143.524 10.1484C143.979 10.1494 144.348 9.78216 144.349 9.32806C144.35 8.87396 143.983 8.50461 143.529 8.50356C143.075 8.50252 142.705 8.86977 142.704 9.32387C142.703 9.77797 143.07 10.1473 143.524 10.1484ZM137.602 12.9523C137.59 14.2068 138.598 15.2322 139.852 15.2437C141.108 15.2552 142.133 14.2476 142.145 12.9931C142.156 11.7385 141.149 10.7121 139.894 10.7006C138.638 10.6891 137.613 11.6977 137.602 12.9523ZM136.362 12.9722C136.363 11.0313 137.936 9.45974 139.877 9.46079C141.817 9.46184 143.389 11.0355 143.388 12.9754C143.387 14.9152 141.813 16.4878 139.873 16.4868C137.933 16.4857 136.361 14.9121 136.362 12.9722ZM143.174 18.4766C144.377 18.3458 145.171 17.604 145.355 16.407C145.54 15.1995 145.505 10.804 145.383 9.68023C145.251 8.47488 144.511 7.67864 143.317 7.49553C142.154 7.31766 137.787 7.33231 136.573 7.46833C135.377 7.60226 134.583 8.342 134.403 9.52852C134.21 10.7893 134.249 15.4998 134.405 16.4426C134.567 17.4303 135.128 18.1041 136.108 18.3782C137.134 18.6649 142.069 18.598 143.174 18.4766ZM145.506 7.22323C146.177 7.86253 146.522 8.65982 146.614 9.56174C146.724 10.6405 146.834 15.7318 146.52 16.9288C146.111 18.4868 145.096 19.4138 143.519 19.6681C142.327 19.8616 137.016 19.8972 135.936 19.6179C134.374 19.2161 133.443 18.2053 133.184 16.6306C132.992 15.4776 132.927 10.1048 133.254 8.93918C133.679 7.42412 134.684 6.52848 136.218 6.27841C137.56 6.05973 141.385 6.11518 142.995 6.20307C143.94 6.2533 144.802 6.55045 145.506 7.22323Z" fill="#074058"/>
<path fill-rule="evenodd" clip-rule="evenodd" d="M171.848 25.8816C178.991 25.8816 184.782 20.0913 184.782 12.9481C184.782 5.80494 178.991 0.0146484 171.848 0.0146484C164.706 0.0146484 158.915 5.80494 158.915 12.9481C158.915 20.0913 164.706 25.8816 171.848 25.8816ZM171.857 14.1238C171.296 14.4148 170.735 14.7059 170.172 14.9979V10.6024C171.58 11.3379 172.978 12.0672 174.397 12.807C173.546 13.2482 172.701 13.686 171.857 14.1238ZM165.403 16.4212C165.588 16.9307 165.933 17.2676 166.447 17.4351C167.598 17.8149 176.604 17.8211 177.479 17.3618C177.802 17.1923 178.058 16.9548 178.215 16.6189C178.791 15.3811 178.774 10.7052 178.28 9.4203C178.091 8.93063 177.744 8.60941 177.254 8.43363C176.418 8.13229 169.168 8.09672 166.823 8.34888C166.367 8.39806 165.984 8.60313 165.686 8.9526C164.817 9.97799 164.951 15.1782 165.403 16.4212Z" fill="#074058"/>
<defs>
<clipPath id="clip0_75_141">
<rect width="25.8739" height="25.8739" fill="white" transform="translate(0 0.0146484)"/>
</clipPath>
</defs>
</svg>
