<svg width="250" height="257" viewBox="0 0 250 257" fill="none" xmlns="http://www.w3.org/2000/svg">
<rect x="0.5" y="0.5" width="249" height="36" rx="2.5" stroke="#5781F2"/>
<path d="M93.4985 26.8745C94.6565 26.8745 95.5925 25.9385 95.5925 24.7805H91.4045C91.4045 25.9385 92.3405 26.8745 93.4985 26.8745Z" fill="#5781F2"/>
<path d="M99.4836 21.4952C99.1536 21.4952 98.8866 21.2282 98.8866 20.8982V17.3072C98.8866 14.7992 97.1706 12.6902 94.8486 12.0902V11.4722C94.8456 10.7252 94.2426 10.1252 93.4986 10.1252C92.7546 10.1252 92.1516 10.7282 92.1516 11.4722V12.0902C89.8296 12.6872 88.1136 14.7962 88.1136 17.3072V20.8982C88.1136 21.2282 87.8436 21.4952 87.5166 21.4952C86.8566 21.4952 86.3196 22.0322 86.3196 22.6922C86.3196 23.3522 86.8566 23.8892 87.5196 23.8892H99.4806C100.144 23.8892 100.681 23.3522 100.681 22.6922C100.681 22.0322 100.141 21.4952 99.4836 21.4952Z" fill="#5781F2"/>
<path d="M119.921 23H118.381L117.625 21.068H113.047L112.291 23H110.751L114.461 13.662H116.211L119.921 23ZM117.219 19.822L115.329 14.88L113.453 19.822H117.219ZM122.273 23H121.013V13.662H122.273V23ZM123.86 19.612C123.86 17.652 125.274 16.07 127.248 16.07C129.278 16.07 130.538 17.652 130.538 19.724V20.032H125.19C125.288 21.18 126.128 22.132 127.486 22.132C128.2 22.132 128.984 21.852 129.488 21.334L130.076 22.16C129.404 22.818 128.452 23.168 127.36 23.168C125.344 23.168 123.86 21.74 123.86 19.612ZM127.248 17.106C125.89 17.106 125.246 18.198 125.176 19.122H129.306C129.278 18.226 128.676 17.106 127.248 17.106ZM133.374 23H132.114V16.238H133.374V17.274C133.892 16.602 134.69 16.084 135.586 16.084V17.358C135.46 17.33 135.32 17.316 135.152 17.316C134.522 17.316 133.668 17.792 133.374 18.296V23ZM138.707 23.168C137.643 23.168 137.097 22.566 137.097 21.502V17.344H135.977V16.238H137.097V14.39H138.357V16.238H139.729V17.344H138.357V21.222C138.357 21.698 138.581 22.048 139.015 22.048C139.309 22.048 139.575 21.922 139.701 21.782L140.023 22.734C139.757 22.986 139.365 23.168 138.707 23.168ZM154.198 23H152.798V15.58L149.774 23H149.186L146.162 15.58V23H144.762V13.662H146.764L149.48 20.368L152.196 13.662H154.198V23ZM155.825 19.612C155.825 17.652 157.239 16.07 159.213 16.07C161.243 16.07 162.503 17.652 162.503 19.724V20.032H157.155C157.253 21.18 158.093 22.132 159.451 22.132C160.165 22.132 160.949 21.852 161.453 21.334L162.041 22.16C161.369 22.818 160.417 23.168 159.325 23.168C157.309 23.168 155.825 21.74 155.825 19.612ZM159.213 17.106C157.855 17.106 157.211 18.198 157.141 19.122H161.271C161.243 18.226 160.641 17.106 159.213 17.106Z" fill="#5781F2"/>
<rect x="0.5" y="44.5" width="249" height="36" rx="2.5" stroke="#5781F2"/>
<path d="M92.1256 59.1423C92.2816 58.9863 92.2816 58.7313 92.1256 58.5723C91.9696 58.4133 91.7146 58.4133 91.5556 58.5723L87.0976 63.0273C86.9386 63.1833 86.9386 63.4383 87.0976 63.5973C87.2536 63.7563 87.5086 63.7563 87.6676 63.5973L92.1256 59.1423ZM86.4766 64.2183C86.4016 64.1433 86.2996 64.1013 86.1916 64.1013C86.0836 64.1013 85.9816 64.1433 85.9066 64.2183L85.2646 64.8633C85.1896 64.9383 85.1476 65.0403 85.1476 65.1483C85.1476 65.2563 85.1896 65.3583 85.2646 65.4333C85.3396 65.5083 85.4416 65.5503 85.5496 65.5503C85.6576 65.5503 85.7596 65.5083 85.8346 65.4333L86.4766 64.7883C86.5516 64.7133 86.5936 64.6113 86.5936 64.5033C86.5936 64.3953 86.5516 64.2933 86.4766 64.2183ZM96.2536 61.2663L87.9016 69.6183L82.8706 64.5873L91.2286 56.2413L96.2566 61.2663H96.2536ZM82.4026 65.2563L81.7636 70.2873C81.7486 70.4013 81.7846 70.5183 81.8626 70.6053C81.9406 70.6923 82.0516 70.7433 82.1656 70.7403H82.2166L87.2476 70.1013L82.3996 65.2563H82.4026ZM91.7956 55.6713L92.5996 54.8673C93.4126 54.0573 94.7266 54.0573 95.5396 54.8673L97.6306 56.9523C98.0206 57.3423 98.2396 57.8703 98.2396 58.4223C98.2396 58.9743 98.0206 59.5023 97.6306 59.8923L96.8266 60.6963L91.7986 55.6713H91.7956Z" fill="#5781F2"/>
<path d="M117.48 67H115.94L115.184 65.068H110.606L109.85 67H108.31L112.02 57.662H113.77L117.48 67ZM114.778 63.822L112.888 58.88L111.012 63.822H114.778ZM124.648 67H123.388V66.034C122.884 66.706 122.072 67.168 121.176 67.168C119.412 67.168 118.152 65.838 118.152 63.626C118.152 61.456 119.412 60.07 121.176 60.07C122.044 60.07 122.842 60.49 123.388 61.218V57.662H124.648V67ZM123.388 65.068V62.184C123.038 61.638 122.282 61.19 121.512 61.19C120.252 61.19 119.468 62.212 119.468 63.626C119.468 65.026 120.252 66.048 121.512 66.048C122.282 66.048 123.038 65.614 123.388 65.068ZM132.742 67H131.482V66.034C130.978 66.706 130.166 67.168 129.27 67.168C127.506 67.168 126.246 65.838 126.246 63.626C126.246 61.456 127.506 60.07 129.27 60.07C130.138 60.07 130.936 60.49 131.482 61.218V57.662H132.742V67ZM131.482 65.068V62.184C131.132 61.638 130.376 61.19 129.606 61.19C128.346 61.19 127.562 62.212 127.562 63.626C127.562 65.026 128.346 66.048 129.606 66.048C130.376 66.048 131.132 65.614 131.482 65.068ZM146.321 67H144.963L139.797 59.832V67H138.397V57.662H139.839L144.921 64.662V57.662H146.321V67ZM151.359 67.168C149.259 67.168 147.943 65.572 147.943 63.612C147.943 61.666 149.259 60.07 151.359 60.07C153.473 60.07 154.775 61.666 154.775 63.612C154.775 65.572 153.473 67.168 151.359 67.168ZM151.359 66.048C152.717 66.048 153.459 64.9 153.459 63.612C153.459 62.338 152.717 61.19 151.359 61.19C150.015 61.19 149.259 62.338 149.259 63.612C149.259 64.9 150.015 66.048 151.359 66.048ZM158.237 67.168C157.173 67.168 156.627 66.566 156.627 65.502V61.344H155.507V60.238H156.627V58.39H157.887V60.238H159.259V61.344H157.887V65.222C157.887 65.698 158.111 66.048 158.545 66.048C158.839 66.048 159.105 65.922 159.231 65.782L159.553 66.734C159.287 66.986 158.895 67.168 158.237 67.168ZM160.234 63.612C160.234 61.652 161.648 60.07 163.622 60.07C165.652 60.07 166.912 61.652 166.912 63.724V64.032H161.564C161.662 65.18 162.502 66.132 163.86 66.132C164.574 66.132 165.358 65.852 165.862 65.334L166.45 66.16C165.778 66.818 164.826 67.168 163.734 67.168C161.718 67.168 160.234 65.74 160.234 63.612ZM163.622 61.106C162.264 61.106 161.62 62.198 161.55 63.122H165.68C165.652 62.226 165.05 61.106 163.622 61.106Z" fill="#5781F2"/>
<rect x="0.5" y="88.5" width="249" height="36" rx="2.5" stroke="#5781F2"/>
<path d="M59.4026 106.499H58.4111V111.092C58.4111 111.198 58.3243 111.285 58.2182 111.285H54.775C54.6689 111.285 54.5821 111.198 54.5821 111.092V106.499H53.5906C53.2472 106.499 53.0775 106.088 53.3186 105.847L56.2236 102.784C56.3741 102.633 56.6152 102.633 56.7657 102.784L59.6707 105.847C59.9119 106.088 59.7382 106.499 59.3987 106.499H59.4026ZM64.281 106.152C64.1537 106.069 64.1035 105.93 64.1035 105.775C64.1035 101.786 61.266 100.328 61.2294 100.312C58.9011 99.2882 56.6364 99.89 55.1858 101.316C55.0547 101.443 54.8656 101.462 54.7113 101.364C53.9474 100.874 53.0042 100.64 51.9876 100.822C50.755 101.044 49.7114 101.91 49.1925 103.048C48.7623 103.985 48.77 104.859 48.9996 105.636C49.0517 105.814 48.9803 105.991 48.8221 106.084C47.5876 106.811 46.789 108.202 46.951 109.776C47.1535 111.753 48.9321 113.2 50.9228 113.2H62.0897C64.0071 113.2 65.7432 111.856 66.0267 109.955C66.264 108.351 65.504 106.923 64.2829 106.15L64.281 106.152Z" fill="#5781F2"/>
<path d="M83.3778 111H77.1058V101.662H83.3778V102.894H78.5058V105.624H83.2798V106.856H78.5058V109.768H83.3778V111ZM90.8572 111H89.4292L87.5392 108.368L85.6352 111H84.2072L86.7412 107.528L84.3612 104.238H85.7892L87.5392 106.674L89.2752 104.238H90.7032L88.3092 107.528L90.8572 111ZM93.2402 110.02V113.576H91.9802V104.238H93.2402V105.204C93.7302 104.532 94.5422 104.07 95.4522 104.07C97.2162 104.07 98.4622 105.4 98.4622 107.612C98.4622 109.824 97.2162 111.168 95.4522 111.168C94.5702 111.168 93.7862 110.762 93.2402 110.02ZM97.1462 107.612C97.1462 106.212 96.3762 105.19 95.1162 105.19C94.3462 105.19 93.5762 105.638 93.2402 106.184V109.054C93.5762 109.586 94.3462 110.048 95.1162 110.048C96.3762 110.048 97.1462 109.026 97.1462 107.612ZM103.056 111.168C100.956 111.168 99.6402 109.572 99.6402 107.612C99.6402 105.666 100.956 104.07 103.056 104.07C105.17 104.07 106.472 105.666 106.472 107.612C106.472 109.572 105.17 111.168 103.056 111.168ZM103.056 110.048C104.414 110.048 105.156 108.9 105.156 107.612C105.156 106.338 104.414 105.19 103.056 105.19C101.712 105.19 100.956 106.338 100.956 107.612C100.956 108.9 101.712 110.048 103.056 110.048ZM109.332 111H108.072V104.238H109.332V105.274C109.85 104.602 110.648 104.084 111.544 104.084V105.358C111.418 105.33 111.278 105.316 111.11 105.316C110.48 105.316 109.626 105.792 109.332 106.296V111ZM114.664 111.168C113.6 111.168 113.054 110.566 113.054 109.502V105.344H111.934V104.238H113.054V102.39H114.314V104.238H115.686V105.344H114.314V109.222C114.314 109.698 114.538 110.048 114.972 110.048C115.266 110.048 115.532 109.922 115.658 109.782L115.98 110.734C115.714 110.986 115.322 111.168 114.664 111.168ZM124.401 111H123.001V102.894H120.103V101.662H127.285V102.894H124.401V111ZM130.168 111.168C128.068 111.168 126.752 109.572 126.752 107.612C126.752 105.666 128.068 104.07 130.168 104.07C132.282 104.07 133.584 105.666 133.584 107.612C133.584 109.572 132.282 111.168 130.168 111.168ZM130.168 110.048C131.526 110.048 132.268 108.9 132.268 107.612C132.268 106.338 131.526 105.19 130.168 105.19C128.824 105.19 128.068 106.338 128.068 107.612C128.068 108.9 128.824 110.048 130.168 110.048ZM138.247 109.684L139.045 108.606C139.675 109.306 140.683 109.922 141.985 109.922C143.497 109.922 144.029 109.152 144.029 108.48C144.029 107.5 142.965 107.22 141.775 106.912C140.277 106.52 138.541 106.086 138.541 104.182C138.541 102.642 139.899 101.522 141.845 101.522C143.287 101.522 144.421 101.984 145.247 102.824L144.435 103.86C143.721 103.104 142.741 102.768 141.733 102.768C140.697 102.768 139.983 103.3 139.983 104.084C139.983 104.924 140.991 105.19 142.153 105.484C143.679 105.89 145.457 106.366 145.457 108.354C145.457 109.81 144.449 111.168 141.929 111.168C140.263 111.168 139.045 110.566 138.247 109.684ZM152.482 111H151.222V110.258C150.69 110.846 149.92 111.168 149.01 111.168C147.89 111.168 146.658 110.412 146.658 108.928C146.658 107.388 147.876 106.716 149.01 106.716C149.92 106.716 150.704 107.01 151.222 107.612V106.492C151.222 105.652 150.536 105.148 149.57 105.148C148.8 105.148 148.142 105.442 147.54 106.044L146.994 105.176C147.75 104.434 148.674 104.07 149.766 104.07C151.236 104.07 152.482 104.714 152.482 106.436V111ZM151.222 109.516V108.368C150.844 107.864 150.186 107.598 149.486 107.598C148.576 107.598 147.932 108.144 147.932 108.942C147.932 109.74 148.576 110.286 149.486 110.286C150.186 110.286 150.844 110.02 151.222 109.516ZM155.762 111H154.502V101.662H155.762V111ZM157.349 107.612C157.349 105.652 158.763 104.07 160.737 104.07C162.767 104.07 164.027 105.652 164.027 107.724V108.032H158.679C158.777 109.18 159.617 110.132 160.975 110.132C161.689 110.132 162.473 109.852 162.977 109.334L163.565 110.16C162.893 110.818 161.941 111.168 160.849 111.168C158.833 111.168 157.349 109.74 157.349 107.612ZM160.737 105.106C159.379 105.106 158.735 106.198 158.665 107.122H162.795C162.767 106.226 162.165 105.106 160.737 105.106ZM165.015 110.118L165.617 109.194C166.079 109.698 166.975 110.16 167.885 110.16C168.837 110.16 169.341 109.768 169.341 109.194C169.341 108.522 168.571 108.298 167.703 108.102C166.555 107.836 165.211 107.528 165.211 106.072C165.211 104.994 166.135 104.07 167.787 104.07C168.949 104.07 169.789 104.49 170.363 105.036L169.803 105.918C169.411 105.442 168.655 105.092 167.801 105.092C166.947 105.092 166.415 105.428 166.415 105.974C166.415 106.562 167.143 106.758 167.983 106.954C169.159 107.22 170.559 107.542 170.559 109.096C170.559 110.258 169.607 111.168 167.829 111.168C166.695 111.168 165.701 110.818 165.015 110.118ZM175.092 105.344H173.72V111H172.46V105.344H171.34V104.238H172.46V103.79C172.46 102.334 173.314 101.522 174.518 101.522C174.952 101.522 175.33 101.606 175.624 101.774L175.33 102.712C175.162 102.614 174.952 102.558 174.728 102.558C174.098 102.558 173.72 102.978 173.72 103.79V104.238H175.092V105.344ZM179.291 111.168C177.191 111.168 175.875 109.572 175.875 107.612C175.875 105.666 177.191 104.07 179.291 104.07C181.405 104.07 182.707 105.666 182.707 107.612C182.707 109.572 181.405 111.168 179.291 111.168ZM179.291 110.048C180.649 110.048 181.391 108.9 181.391 107.612C181.391 106.338 180.649 105.19 179.291 105.19C177.947 105.19 177.191 106.338 177.191 107.612C177.191 108.9 177.947 110.048 179.291 110.048ZM185.566 111H184.306V104.238H185.566V105.274C186.084 104.602 186.882 104.084 187.778 104.084V105.358C187.652 105.33 187.512 105.316 187.344 105.316C186.714 105.316 185.86 105.792 185.566 106.296V111ZM188.617 107.612C188.617 105.582 190.017 104.07 192.061 104.07C193.335 104.07 194.105 104.602 194.595 105.26L193.755 106.03C193.349 105.456 192.803 105.19 192.117 105.19C190.787 105.19 189.933 106.212 189.933 107.612C189.933 109.012 190.787 110.048 192.117 110.048C192.803 110.048 193.349 109.768 193.755 109.208L194.595 109.978C194.105 110.636 193.335 111.168 192.061 111.168C190.017 111.168 188.617 109.642 188.617 107.612ZM195.562 107.612C195.562 105.652 196.976 104.07 198.95 104.07C200.98 104.07 202.24 105.652 202.24 107.724V108.032H196.892C196.99 109.18 197.83 110.132 199.188 110.132C199.902 110.132 200.686 109.852 201.19 109.334L201.778 110.16C201.106 110.818 200.154 111.168 199.062 111.168C197.046 111.168 195.562 109.74 195.562 107.612ZM198.95 105.106C197.592 105.106 196.948 106.198 196.878 107.122H201.008C200.98 106.226 200.378 105.106 198.95 105.106Z" fill="#5781F2"/>
<rect x="0.5" y="132.5" width="249" height="36" rx="2.5" stroke="#5781F2"/>
<path d="M65.4026 150.499H64.4111V155.092C64.4111 155.198 64.3243 155.285 64.2182 155.285H60.775C60.6689 155.285 60.5821 155.198 60.5821 155.092V150.499H59.5906C59.2472 150.499 59.0775 150.088 59.3186 149.847L62.2236 146.784C62.3741 146.633 62.6152 146.633 62.7657 146.784L65.6707 149.847C65.9119 150.088 65.7382 150.499 65.3987 150.499H65.4026ZM70.281 150.152C70.1537 150.069 70.1035 149.93 70.1035 149.775C70.1035 145.786 67.266 144.328 67.2294 144.312C64.9011 143.288 62.6364 143.89 61.1858 145.316C61.0547 145.443 60.8656 145.462 60.7113 145.364C59.9474 144.874 59.0042 144.64 57.9876 144.822C56.755 145.044 55.7114 145.91 55.1925 147.048C54.7623 147.985 54.77 148.859 54.9996 149.636C55.0517 149.814 54.9803 149.991 54.8221 150.084C53.5876 150.811 52.789 152.202 52.951 153.776C53.1535 155.753 54.9321 157.2 56.9228 157.2H68.0897C70.0071 157.2 71.7432 155.856 72.0267 153.955C72.264 152.351 71.504 150.923 70.2829 150.15L70.281 150.152Z" fill="#5781F2"/>
<path d="M89.3778 155H83.1058V145.662H89.3778V146.894H84.5058V149.624H89.2798V150.856H84.5058V153.768H89.3778V155ZM96.8572 155H95.4292L93.5392 152.368L91.6352 155H90.2072L92.7412 151.528L90.3612 148.238H91.7892L93.5392 150.674L95.2752 148.238H96.7032L94.3092 151.528L96.8572 155ZM99.2402 154.02V157.576H97.9802V148.238H99.2402V149.204C99.7302 148.532 100.542 148.07 101.452 148.07C103.216 148.07 104.462 149.4 104.462 151.612C104.462 153.824 103.216 155.168 101.452 155.168C100.57 155.168 99.7862 154.762 99.2402 154.02ZM103.146 151.612C103.146 150.212 102.376 149.19 101.116 149.19C100.346 149.19 99.5762 149.638 99.2402 150.184V153.054C99.5762 153.586 100.346 154.048 101.116 154.048C102.376 154.048 103.146 153.026 103.146 151.612ZM109.056 155.168C106.956 155.168 105.64 153.572 105.64 151.612C105.64 149.666 106.956 148.07 109.056 148.07C111.17 148.07 112.472 149.666 112.472 151.612C112.472 153.572 111.17 155.168 109.056 155.168ZM109.056 154.048C110.414 154.048 111.156 152.9 111.156 151.612C111.156 150.338 110.414 149.19 109.056 149.19C107.712 149.19 106.956 150.338 106.956 151.612C106.956 152.9 107.712 154.048 109.056 154.048ZM115.332 155H114.072V148.238H115.332V149.274C115.85 148.602 116.648 148.084 117.544 148.084V149.358C117.418 149.33 117.278 149.316 117.11 149.316C116.48 149.316 115.626 149.792 115.332 150.296V155ZM120.664 155.168C119.6 155.168 119.054 154.566 119.054 153.502V149.344H117.934V148.238H119.054V146.39H120.314V148.238H121.686V149.344H120.314V153.222C120.314 153.698 120.538 154.048 120.972 154.048C121.266 154.048 121.532 153.922 121.658 153.782L121.98 154.734C121.714 154.986 121.322 155.168 120.664 155.168ZM130.401 155H129.001V146.894H126.103V145.662H133.285V146.894H130.401V155ZM136.168 155.168C134.068 155.168 132.752 153.572 132.752 151.612C132.752 149.666 134.068 148.07 136.168 148.07C138.282 148.07 139.584 149.666 139.584 151.612C139.584 153.572 138.282 155.168 136.168 155.168ZM136.168 154.048C137.526 154.048 138.268 152.9 138.268 151.612C138.268 150.338 137.526 149.19 136.168 149.19C134.824 149.19 134.068 150.338 134.068 151.612C134.068 152.9 134.824 154.048 136.168 154.048ZM152.787 155H151.387V150.828H146.221V155H144.821V145.662H146.221V149.582H151.387V145.662H152.787V155ZM160.652 155H159.392V154.076C158.874 154.636 158.02 155.168 156.984 155.168C155.542 155.168 154.828 154.44 154.828 153.012V148.238H156.088V152.592C156.088 153.712 156.648 154.048 157.516 154.048C158.3 154.048 159.014 153.6 159.392 153.096V148.238H160.652V155ZM163.908 155H162.648V145.662H163.908V149.218C164.44 148.49 165.238 148.07 166.12 148.07C167.884 148.07 169.13 149.456 169.13 151.626C169.13 153.838 167.87 155.168 166.12 155.168C165.21 155.168 164.412 154.706 163.908 154.034V155ZM163.908 150.198V153.068C164.244 153.614 165.014 154.048 165.784 154.048C167.044 154.048 167.828 153.04 167.828 151.626C167.828 150.212 167.044 149.19 165.784 149.19C165.014 149.19 164.244 149.652 163.908 150.198ZM170.154 154.118L170.756 153.194C171.218 153.698 172.114 154.16 173.024 154.16C173.976 154.16 174.48 153.768 174.48 153.194C174.48 152.522 173.71 152.298 172.842 152.102C171.694 151.836 170.35 151.528 170.35 150.072C170.35 148.994 171.274 148.07 172.926 148.07C174.088 148.07 174.928 148.49 175.502 149.036L174.942 149.918C174.55 149.442 173.794 149.092 172.94 149.092C172.086 149.092 171.554 149.428 171.554 149.974C171.554 150.562 172.282 150.758 173.122 150.954C174.298 151.22 175.698 151.542 175.698 153.096C175.698 154.258 174.746 155.168 172.968 155.168C171.834 155.168 170.84 154.818 170.154 154.118ZM178.551 154.02V157.576H177.291V148.238H178.551V149.204C179.041 148.532 179.853 148.07 180.763 148.07C182.527 148.07 183.773 149.4 183.773 151.612C183.773 153.824 182.527 155.168 180.763 155.168C179.881 155.168 179.097 154.762 178.551 154.02ZM182.457 151.612C182.457 150.212 181.687 149.19 180.427 149.19C179.657 149.19 178.887 149.638 178.551 150.184V153.054C178.887 153.586 179.657 154.048 180.427 154.048C181.687 154.048 182.457 153.026 182.457 151.612ZM188.367 155.168C186.267 155.168 184.951 153.572 184.951 151.612C184.951 149.666 186.267 148.07 188.367 148.07C190.481 148.07 191.783 149.666 191.783 151.612C191.783 153.572 190.481 155.168 188.367 155.168ZM188.367 154.048C189.725 154.048 190.467 152.9 190.467 151.612C190.467 150.338 189.725 149.19 188.367 149.19C187.023 149.19 186.267 150.338 186.267 151.612C186.267 152.9 187.023 154.048 188.367 154.048ZM195.245 155.168C194.181 155.168 193.635 154.566 193.635 153.502V149.344H192.515V148.238H193.635V146.39H194.895V148.238H196.267V149.344H194.895V153.222C194.895 153.698 195.119 154.048 195.553 154.048C195.847 154.048 196.113 153.922 196.239 153.782L196.561 154.734C196.295 154.986 195.903 155.168 195.245 155.168Z" fill="#5781F2"/>
<rect x="0.5" y="176.5" width="249" height="36" rx="2.5" stroke="#5781F2"/>
<path d="M61.4026 194.499H60.4111V199.092C60.4111 199.198 60.3243 199.285 60.2182 199.285H56.775C56.6689 199.285 56.5821 199.198 56.5821 199.092V194.499H55.5906C55.2472 194.499 55.0775 194.088 55.3186 193.847L58.2236 190.784C58.3741 190.633 58.6152 190.633 58.7657 190.784L61.6707 193.847C61.9119 194.088 61.7382 194.499 61.3987 194.499H61.4026ZM66.281 194.152C66.1537 194.069 66.1035 193.93 66.1035 193.775C66.1035 189.786 63.266 188.328 63.2294 188.312C60.9011 187.288 58.6364 187.89 57.1858 189.316C57.0547 189.443 56.8656 189.462 56.7113 189.364C55.9474 188.874 55.0042 188.64 53.9876 188.822C52.755 189.044 51.7114 189.91 51.1925 191.048C50.7623 191.985 50.77 192.859 50.9996 193.636C51.0517 193.814 50.9803 193.991 50.8221 194.084C49.5876 194.811 48.789 196.202 48.951 197.776C49.1535 199.753 50.9321 201.2 52.9228 201.2H64.0897C66.0071 201.2 67.7432 199.856 68.0267 197.955C68.264 196.351 67.504 194.923 66.2829 194.15L66.281 194.152Z" fill="#5781F2"/>
<path d="M85.3778 199H79.1058V189.662H85.3778V190.894H80.5058V193.624H85.2798V194.856H80.5058V197.768H85.3778V199ZM92.8572 199H91.4292L89.5392 196.368L87.6352 199H86.2072L88.7412 195.528L86.3612 192.238H87.7892L89.5392 194.674L91.2752 192.238H92.7032L90.3092 195.528L92.8572 199ZM95.2402 198.02V201.576H93.9802V192.238H95.2402V193.204C95.7302 192.532 96.5422 192.07 97.4522 192.07C99.2162 192.07 100.462 193.4 100.462 195.612C100.462 197.824 99.2162 199.168 97.4522 199.168C96.5702 199.168 95.7862 198.762 95.2402 198.02ZM99.1462 195.612C99.1462 194.212 98.3762 193.19 97.1162 193.19C96.3462 193.19 95.5762 193.638 95.2402 194.184V197.054C95.5762 197.586 96.3462 198.048 97.1162 198.048C98.3762 198.048 99.1462 197.026 99.1462 195.612ZM105.056 199.168C102.956 199.168 101.64 197.572 101.64 195.612C101.64 193.666 102.956 192.07 105.056 192.07C107.17 192.07 108.472 193.666 108.472 195.612C108.472 197.572 107.17 199.168 105.056 199.168ZM105.056 198.048C106.414 198.048 107.156 196.9 107.156 195.612C107.156 194.338 106.414 193.19 105.056 193.19C103.712 193.19 102.956 194.338 102.956 195.612C102.956 196.9 103.712 198.048 105.056 198.048ZM111.332 199H110.072V192.238H111.332V193.274C111.85 192.602 112.648 192.084 113.544 192.084V193.358C113.418 193.33 113.278 193.316 113.11 193.316C112.48 193.316 111.626 193.792 111.332 194.296V199ZM116.664 199.168C115.6 199.168 115.054 198.566 115.054 197.502V193.344H113.934V192.238H115.054V190.39H116.314V192.238H117.686V193.344H116.314V197.222C116.314 197.698 116.538 198.048 116.972 198.048C117.266 198.048 117.532 197.922 117.658 197.782L117.98 198.734C117.714 198.986 117.322 199.168 116.664 199.168ZM126.401 199H125.001V190.894H122.103V189.662H129.285V190.894H126.401V199ZM132.168 199.168C130.068 199.168 128.752 197.572 128.752 195.612C128.752 193.666 130.068 192.07 132.168 192.07C134.282 192.07 135.584 193.666 135.584 195.612C135.584 197.572 134.282 199.168 132.168 199.168ZM132.168 198.048C133.526 198.048 134.268 196.9 134.268 195.612C134.268 194.338 133.526 193.19 132.168 193.19C130.824 193.19 130.068 194.338 130.068 195.612C130.068 196.9 130.824 198.048 132.168 198.048ZM144.153 199H140.821V189.662H144.153C147.065 189.662 148.997 191.65 148.997 194.338C148.997 197.04 147.065 199 144.153 199ZM142.221 190.894V197.768H144.153C146.309 197.768 147.555 196.228 147.555 194.338C147.555 192.42 146.351 190.894 144.153 190.894H142.221ZM150.328 201.646L150.524 200.512C150.678 200.582 150.916 200.624 151.084 200.624C151.546 200.624 151.854 200.47 152.064 199.966L152.456 199.07L149.67 192.238H151.014L153.128 197.544L155.242 192.238H156.6L153.268 200.288C152.834 201.352 152.092 201.73 151.112 201.744C150.902 201.744 150.524 201.702 150.328 201.646ZM163.447 199H162.187V194.674C162.187 193.554 161.613 193.19 160.745 193.19C159.961 193.19 159.247 193.666 158.883 194.17V199H157.623V192.238H158.883V193.19C159.331 192.644 160.227 192.07 161.277 192.07C162.705 192.07 163.447 192.826 163.447 194.254V199ZM170.875 199H169.615V198.258C169.083 198.846 168.313 199.168 167.403 199.168C166.283 199.168 165.051 198.412 165.051 196.928C165.051 195.388 166.269 194.716 167.403 194.716C168.313 194.716 169.097 195.01 169.615 195.612V194.492C169.615 193.652 168.929 193.148 167.963 193.148C167.193 193.148 166.535 193.442 165.933 194.044L165.387 193.176C166.143 192.434 167.067 192.07 168.159 192.07C169.629 192.07 170.875 192.714 170.875 194.436V199ZM169.615 197.516V196.368C169.237 195.864 168.579 195.598 167.879 195.598C166.969 195.598 166.325 196.144 166.325 196.942C166.325 197.74 166.969 198.286 167.879 198.286C168.579 198.286 169.237 198.02 169.615 197.516ZM182.372 199H181.112V194.492C181.112 193.708 180.762 193.19 179.936 193.19C179.25 193.19 178.578 193.666 178.256 194.156V199H176.996V194.492C176.996 193.708 176.66 193.19 175.806 193.19C175.148 193.19 174.49 193.68 174.154 194.17V199H172.894V192.238H174.154V193.19C174.434 192.77 175.33 192.07 176.338 192.07C177.36 192.07 177.962 192.602 178.172 193.33C178.564 192.7 179.46 192.07 180.454 192.07C181.7 192.07 182.372 192.756 182.372 194.114V199ZM184.995 191.104C184.561 191.104 184.183 190.754 184.183 190.306C184.183 189.858 184.561 189.494 184.995 189.494C185.443 189.494 185.807 189.858 185.807 190.306C185.807 190.754 185.443 191.104 184.995 191.104ZM185.639 199H184.379V192.238H185.639V199ZM187.226 195.612C187.226 193.582 188.626 192.07 190.67 192.07C191.944 192.07 192.714 192.602 193.204 193.26L192.364 194.03C191.958 193.456 191.412 193.19 190.726 193.19C189.396 193.19 188.542 194.212 188.542 195.612C188.542 197.012 189.396 198.048 190.726 198.048C191.412 198.048 191.958 197.768 192.364 197.208L193.204 197.978C192.714 198.636 191.944 199.168 190.67 199.168C188.626 199.168 187.226 197.642 187.226 195.612ZM194.003 198.118L194.605 197.194C195.067 197.698 195.963 198.16 196.873 198.16C197.825 198.16 198.329 197.768 198.329 197.194C198.329 196.522 197.559 196.298 196.691 196.102C195.543 195.836 194.199 195.528 194.199 194.072C194.199 192.994 195.123 192.07 196.775 192.07C197.937 192.07 198.777 192.49 199.351 193.036L198.791 193.918C198.399 193.442 197.643 193.092 196.789 193.092C195.935 193.092 195.403 193.428 195.403 193.974C195.403 194.562 196.131 194.758 196.971 194.954C198.147 195.22 199.547 195.542 199.547 197.096C199.547 198.258 198.595 199.168 196.817 199.168C195.683 199.168 194.689 198.818 194.003 198.118Z" fill="#5781F2"/>
<rect x="0.5" y="220.5" width="249" height="36" rx="2.5" stroke="#5781F2"/>
<path fill-rule="evenodd" clip-rule="evenodd" d="M54.0072 232.57H55.9893V237.509H60.9298V239.491H55.9893V244.43H54.0072V239.491H49.0703V237.509H54.0072V232.57Z" fill="#5781F2"/>
<path d="M80.1697 243H78.6297L77.8737 241.068H73.2957L72.5397 243H70.9997L74.7097 233.662H76.4597L80.1697 243ZM77.4677 239.822L75.5777 234.88L73.7017 239.822H77.4677ZM87.3379 243H86.0779V242.034C85.5739 242.706 84.7619 243.168 83.8659 243.168C82.1019 243.168 80.8419 241.838 80.8419 239.626C80.8419 237.456 82.1019 236.07 83.8659 236.07C84.7339 236.07 85.5319 236.49 86.0779 237.218V233.662H87.3379V243ZM86.0779 241.068V238.184C85.7279 237.638 84.9719 237.19 84.2019 237.19C82.9419 237.19 82.1579 238.212 82.1579 239.626C82.1579 241.026 82.9419 242.048 84.2019 242.048C84.9719 242.048 85.7279 241.614 86.0779 241.068ZM95.4317 243H94.1717V242.034C93.6677 242.706 92.8557 243.168 91.9597 243.168C90.1957 243.168 88.9357 241.838 88.9357 239.626C88.9357 237.456 90.1957 236.07 91.9597 236.07C92.8277 236.07 93.6257 236.49 94.1717 237.218V233.662H95.4317V243ZM94.1717 241.068V238.184C93.8217 237.638 93.0657 237.19 92.2957 237.19C91.0357 237.19 90.2517 238.212 90.2517 239.626C90.2517 241.026 91.0357 242.048 92.2957 242.048C93.0657 242.048 93.8217 241.614 94.1717 241.068ZM105.483 243.168C102.823 243.168 100.695 241.208 100.695 238.338C100.695 235.468 102.823 233.508 105.483 233.508C107.317 233.508 108.465 234.39 109.193 235.482L108.003 236.112C107.513 235.328 106.589 234.754 105.483 234.754C103.593 234.754 102.137 236.238 102.137 238.338C102.137 240.424 103.593 241.922 105.483 241.922C106.589 241.922 107.513 241.348 108.003 240.564L109.193 241.194C108.451 242.286 107.317 243.168 105.483 243.168ZM113.557 243.168C111.457 243.168 110.141 241.572 110.141 239.612C110.141 237.666 111.457 236.07 113.557 236.07C115.671 236.07 116.973 237.666 116.973 239.612C116.973 241.572 115.671 243.168 113.557 243.168ZM113.557 242.048C114.915 242.048 115.657 240.9 115.657 239.612C115.657 238.338 114.915 237.19 113.557 237.19C112.213 237.19 111.457 238.338 111.457 239.612C111.457 240.9 112.213 242.048 113.557 242.048ZM124.396 243H123.136V238.674C123.136 237.554 122.562 237.19 121.694 237.19C120.91 237.19 120.196 237.666 119.832 238.17V243H118.572V236.238H119.832V237.19C120.28 236.644 121.176 236.07 122.226 236.07C123.654 236.07 124.396 236.826 124.396 238.254V243ZM128.255 243.168C127.191 243.168 126.645 242.566 126.645 241.502V237.344H125.525V236.238H126.645V234.39H127.905V236.238H129.277V237.344H127.905V241.222C127.905 241.698 128.129 242.048 128.563 242.048C128.857 242.048 129.123 241.922 129.249 241.782L129.571 242.734C129.305 242.986 128.913 243.168 128.255 243.168ZM136.104 243H134.844V242.258C134.312 242.846 133.542 243.168 132.632 243.168C131.512 243.168 130.28 242.412 130.28 240.928C130.28 239.388 131.498 238.716 132.632 238.716C133.542 238.716 134.326 239.01 134.844 239.612V238.492C134.844 237.652 134.158 237.148 133.192 237.148C132.422 237.148 131.764 237.442 131.162 238.044L130.616 237.176C131.372 236.434 132.296 236.07 133.388 236.07C134.858 236.07 136.104 236.714 136.104 238.436V243ZM134.844 241.516V240.368C134.466 239.864 133.808 239.598 133.108 239.598C132.198 239.598 131.554 240.144 131.554 240.942C131.554 241.74 132.198 242.286 133.108 242.286C133.808 242.286 134.466 242.02 134.844 241.516ZM137.703 239.612C137.703 237.582 139.103 236.07 141.147 236.07C142.421 236.07 143.191 236.602 143.681 237.26L142.841 238.03C142.435 237.456 141.889 237.19 141.203 237.19C139.873 237.19 139.019 238.212 139.019 239.612C139.019 241.012 139.873 242.048 141.203 242.048C141.889 242.048 142.435 241.768 142.841 241.208L143.681 241.978C143.191 242.636 142.421 243.168 141.147 243.168C139.103 243.168 137.703 241.642 137.703 239.612ZM146.931 243.168C145.867 243.168 145.321 242.566 145.321 241.502V237.344H144.201V236.238H145.321V234.39H146.581V236.238H147.953V237.344H146.581V241.222C146.581 241.698 146.805 242.048 147.239 242.048C147.533 242.048 147.799 241.922 147.925 241.782L148.247 242.734C147.981 242.986 147.589 243.168 146.931 243.168ZM154.819 243.168C153.755 243.168 153.209 242.566 153.209 241.502V237.344H152.089V236.238H153.209V234.39H154.469V236.238H155.841V237.344H154.469V241.222C154.469 241.698 154.693 242.048 155.127 242.048C155.421 242.048 155.687 241.922 155.813 241.782L156.135 242.734C155.869 242.986 155.477 243.168 154.819 243.168ZM160.233 243.168C158.133 243.168 156.817 241.572 156.817 239.612C156.817 237.666 158.133 236.07 160.233 236.07C162.347 236.07 163.649 237.666 163.649 239.612C163.649 241.572 162.347 243.168 160.233 243.168ZM160.233 242.048C161.591 242.048 162.333 240.9 162.333 239.612C162.333 238.338 161.591 237.19 160.233 237.19C158.889 237.19 158.133 238.338 158.133 239.612C158.133 240.9 158.889 242.048 160.233 242.048ZM174.29 243H173.03V242.258C172.498 242.846 171.728 243.168 170.818 243.168C169.698 243.168 168.466 242.412 168.466 240.928C168.466 239.388 169.684 238.716 170.818 238.716C171.728 238.716 172.512 239.01 173.03 239.612V238.492C173.03 237.652 172.344 237.148 171.378 237.148C170.608 237.148 169.95 237.442 169.348 238.044L168.802 237.176C169.558 236.434 170.482 236.07 171.574 236.07C173.044 236.07 174.29 236.714 174.29 238.436V243ZM173.03 241.516V240.368C172.652 239.864 171.994 239.598 171.294 239.598C170.384 239.598 169.74 240.144 169.74 240.942C169.74 241.74 170.384 242.286 171.294 242.286C171.994 242.286 172.652 242.02 173.03 241.516ZM185.588 243H179.946V233.662H181.346V241.768H185.588V243ZM187.712 235.104C187.278 235.104 186.9 234.754 186.9 234.306C186.9 233.858 187.278 233.494 187.712 233.494C188.16 233.494 188.524 233.858 188.524 234.306C188.524 234.754 188.16 235.104 187.712 235.104ZM188.356 243H187.096V236.238H188.356V243ZM189.775 242.118L190.377 241.194C190.839 241.698 191.735 242.16 192.645 242.16C193.597 242.16 194.101 241.768 194.101 241.194C194.101 240.522 193.331 240.298 192.463 240.102C191.315 239.836 189.971 239.528 189.971 238.072C189.971 236.994 190.895 236.07 192.547 236.07C193.709 236.07 194.549 236.49 195.123 237.036L194.563 237.918C194.171 237.442 193.415 237.092 192.561 237.092C191.707 237.092 191.175 237.428 191.175 237.974C191.175 238.562 191.903 238.758 192.743 238.954C193.919 239.22 195.319 239.542 195.319 241.096C195.319 242.258 194.367 243.168 192.589 243.168C191.455 243.168 190.461 242.818 189.775 242.118ZM198.774 243.168C197.71 243.168 197.164 242.566 197.164 241.502V237.344H196.044V236.238H197.164V234.39H198.424V236.238H199.796V237.344H198.424V241.222C198.424 241.698 198.648 242.048 199.082 242.048C199.376 242.048 199.642 241.922 199.768 241.782L200.09 242.734C199.824 242.986 199.432 243.168 198.774 243.168Z" fill="#5781F2"/>
</svg>
