<svg width="250" height="169" viewBox="0 0 250 169" fill="none" xmlns="http://www.w3.org/2000/svg">
<rect x="0.5" y="0.5" width="249" height="36" rx="2.5" stroke="#5781F2"/>
<path d="M93.4983 26.8745C94.6563 26.8745 95.5923 25.9385 95.5923 24.7805H91.4043C91.4043 25.9385 92.3403 26.8745 93.4983 26.8745Z" fill="#5781F2"/>
<path d="M99.4833 21.4952C99.1533 21.4952 98.8863 21.2282 98.8863 20.8982V17.3072C98.8863 14.7992 97.1703 12.6902 94.8483 12.0902V11.4722C94.8453 10.7252 94.2423 10.1252 93.4983 10.1252C92.7543 10.1252 92.1513 10.7282 92.1513 11.4722V12.0902C89.8293 12.6872 88.1133 14.7962 88.1133 17.3072V20.8982C88.1133 21.2282 87.8433 21.4952 87.5163 21.4952C86.8563 21.4952 86.3193 22.0322 86.3193 22.6922C86.3193 23.3522 86.8563 23.8892 87.5193 23.8892H99.4803C100.143 23.8892 100.68 23.3522 100.68 22.6922C100.68 22.0322 100.14 21.4952 99.4833 21.4952Z" fill="#5781F2"/>
<path d="M119.921 23H118.381L117.625 21.068H113.047L112.291 23H110.751L114.461 13.662H116.211L119.921 23ZM117.219 19.822L115.329 14.88L113.453 19.822H117.219ZM122.273 23H121.013V13.662H122.273V23ZM123.86 19.612C123.86 17.652 125.274 16.07 127.248 16.07C129.278 16.07 130.538 17.652 130.538 19.724V20.032H125.19C125.288 21.18 126.128 22.132 127.486 22.132C128.2 22.132 128.984 21.852 129.488 21.334L130.076 22.16C129.404 22.818 128.452 23.168 127.36 23.168C125.344 23.168 123.86 21.74 123.86 19.612ZM127.248 17.106C125.89 17.106 125.246 18.198 125.176 19.122H129.306C129.278 18.226 128.676 17.106 127.248 17.106ZM133.374 23H132.114V16.238H133.374V17.274C133.892 16.602 134.69 16.084 135.586 16.084V17.358C135.46 17.33 135.32 17.316 135.152 17.316C134.522 17.316 133.668 17.792 133.374 18.296V23ZM138.707 23.168C137.643 23.168 137.097 22.566 137.097 21.502V17.344H135.977V16.238H137.097V14.39H138.357V16.238H139.729V17.344H138.357V21.222C138.357 21.698 138.581 22.048 139.015 22.048C139.309 22.048 139.575 21.922 139.701 21.782L140.023 22.734C139.757 22.986 139.365 23.168 138.707 23.168ZM154.198 23H152.798V15.58L149.774 23H149.186L146.162 15.58V23H144.762V13.662H146.764L149.48 20.368L152.196 13.662H154.198V23ZM155.825 19.612C155.825 17.652 157.239 16.07 159.213 16.07C161.243 16.07 162.503 17.652 162.503 19.724V20.032H157.155C157.253 21.18 158.093 22.132 159.451 22.132C160.165 22.132 160.949 21.852 161.453 21.334L162.041 22.16C161.369 22.818 160.417 23.168 159.325 23.168C157.309 23.168 155.825 21.74 155.825 19.612ZM159.213 17.106C157.855 17.106 157.211 18.198 157.141 19.122H161.271C161.243 18.226 160.641 17.106 159.213 17.106Z" fill="#5781F2"/>
<rect x="0.5" y="44.5" width="249" height="36" rx="2.5" stroke="#5781F2"/>
<path d="M92.1256 59.1423C92.2816 58.9863 92.2816 58.7313 92.1256 58.5723C91.9696 58.4133 91.7146 58.4133 91.5556 58.5723L87.0976 63.0273C86.9386 63.1833 86.9386 63.4383 87.0976 63.5973C87.2536 63.7563 87.5086 63.7563 87.6676 63.5973L92.1256 59.1423ZM86.4766 64.2183C86.4016 64.1433 86.2996 64.1013 86.1916 64.1013C86.0836 64.1013 85.9816 64.1433 85.9066 64.2183L85.2646 64.8633C85.1896 64.9383 85.1476 65.0403 85.1476 65.1483C85.1476 65.2563 85.1896 65.3583 85.2646 65.4333C85.3396 65.5083 85.4416 65.5503 85.5496 65.5503C85.6576 65.5503 85.7596 65.5083 85.8346 65.4333L86.4766 64.7883C86.5516 64.7133 86.5936 64.6113 86.5936 64.5033C86.5936 64.3953 86.5516 64.2933 86.4766 64.2183ZM96.2536 61.2663L87.9016 69.6183L82.8706 64.5873L91.2286 56.2413L96.2566 61.2663H96.2536ZM82.4026 65.2563L81.7636 70.2873C81.7486 70.4013 81.7846 70.5183 81.8626 70.6053C81.9406 70.6923 82.0516 70.7433 82.1656 70.7403H82.2166L87.2476 70.1013L82.3996 65.2563H82.4026ZM91.7956 55.6713L92.5996 54.8673C93.4126 54.0573 94.7266 54.0573 95.5396 54.8673L97.6306 56.9523C98.0206 57.3423 98.2396 57.8703 98.2396 58.4223C98.2396 58.9743 98.0206 59.5023 97.6306 59.8923L96.8266 60.6963L91.7986 55.6713H91.7956Z" fill="#5781F2"/>
<path d="M117.48 67H115.94L115.184 65.068H110.606L109.85 67H108.31L112.02 57.662H113.77L117.48 67ZM114.778 63.822L112.888 58.88L111.012 63.822H114.778ZM124.648 67H123.388V66.034C122.884 66.706 122.072 67.168 121.176 67.168C119.412 67.168 118.152 65.838 118.152 63.626C118.152 61.456 119.412 60.07 121.176 60.07C122.044 60.07 122.842 60.49 123.388 61.218V57.662H124.648V67ZM123.388 65.068V62.184C123.038 61.638 122.282 61.19 121.512 61.19C120.252 61.19 119.468 62.212 119.468 63.626C119.468 65.026 120.252 66.048 121.512 66.048C122.282 66.048 123.038 65.614 123.388 65.068ZM132.742 67H131.482V66.034C130.978 66.706 130.166 67.168 129.27 67.168C127.506 67.168 126.246 65.838 126.246 63.626C126.246 61.456 127.506 60.07 129.27 60.07C130.138 60.07 130.936 60.49 131.482 61.218V57.662H132.742V67ZM131.482 65.068V62.184C131.132 61.638 130.376 61.19 129.606 61.19C128.346 61.19 127.562 62.212 127.562 63.626C127.562 65.026 128.346 66.048 129.606 66.048C130.376 66.048 131.132 65.614 131.482 65.068ZM146.321 67H144.963L139.797 59.832V67H138.397V57.662H139.839L144.921 64.662V57.662H146.321V67ZM151.359 67.168C149.259 67.168 147.943 65.572 147.943 63.612C147.943 61.666 149.259 60.07 151.359 60.07C153.473 60.07 154.775 61.666 154.775 63.612C154.775 65.572 153.473 67.168 151.359 67.168ZM151.359 66.048C152.717 66.048 153.459 64.9 153.459 63.612C153.459 62.338 152.717 61.19 151.359 61.19C150.015 61.19 149.259 62.338 149.259 63.612C149.259 64.9 150.015 66.048 151.359 66.048ZM158.237 67.168C157.173 67.168 156.627 66.566 156.627 65.502V61.344H155.507V60.238H156.627V58.39H157.887V60.238H159.259V61.344H157.887V65.222C157.887 65.698 158.111 66.048 158.545 66.048C158.839 66.048 159.105 65.922 159.231 65.782L159.553 66.734C159.287 66.986 158.895 67.168 158.237 67.168ZM160.234 63.612C160.234 61.652 161.648 60.07 163.622 60.07C165.652 60.07 166.912 61.652 166.912 63.724V64.032H161.564C161.662 65.18 162.502 66.132 163.86 66.132C164.574 66.132 165.358 65.852 165.862 65.334L166.45 66.16C165.778 66.818 164.826 67.168 163.734 67.168C161.718 67.168 160.234 65.74 160.234 63.612ZM163.622 61.106C162.264 61.106 161.62 62.198 161.55 63.122H165.68C165.652 62.226 165.05 61.106 163.622 61.106Z" fill="#5781F2"/>
<rect x="0.5" y="88.5" width="249" height="36" rx="2.5" stroke="#5781F2"/>
<path d="M59.4026 106.499H58.4111V111.092C58.4111 111.198 58.3243 111.285 58.2182 111.285H54.775C54.6689 111.285 54.5821 111.198 54.5821 111.092V106.499H53.5906C53.2472 106.499 53.0775 106.088 53.3186 105.847L56.2236 102.784C56.3741 102.633 56.6152 102.633 56.7657 102.784L59.6707 105.847C59.9119 106.088 59.7382 106.499 59.3987 106.499H59.4026ZM64.281 106.152C64.1537 106.069 64.1035 105.93 64.1035 105.775C64.1035 101.786 61.266 100.328 61.2294 100.312C58.9011 99.2882 56.6364 99.89 55.1858 101.316C55.0547 101.443 54.8656 101.462 54.7113 101.364C53.9474 100.874 53.0042 100.64 51.9876 100.822C50.755 101.044 49.7114 101.91 49.1925 103.048C48.7623 103.985 48.77 104.859 48.9996 105.636C49.0517 105.814 48.9803 105.991 48.8221 106.084C47.5876 106.811 46.789 108.202 46.951 109.776C47.1535 111.753 48.9321 113.2 50.9228 113.2H62.0897C64.0071 113.2 65.7432 111.856 66.0267 109.955C66.264 108.351 65.504 106.923 64.2829 106.15L64.281 106.152Z" fill="#5781F2"/>
<path d="M83.3778 111H77.1058V101.662H83.3778V102.894H78.5058V105.624H83.2798V106.856H78.5058V109.768H83.3778V111ZM90.8572 111H89.4292L87.5392 108.368L85.6352 111H84.2072L86.7412 107.528L84.3612 104.238H85.7892L87.5392 106.674L89.2752 104.238H90.7032L88.3092 107.528L90.8572 111ZM93.2402 110.02V113.576H91.9802V104.238H93.2402V105.204C93.7302 104.532 94.5422 104.07 95.4522 104.07C97.2162 104.07 98.4622 105.4 98.4622 107.612C98.4622 109.824 97.2162 111.168 95.4522 111.168C94.5702 111.168 93.7862 110.762 93.2402 110.02ZM97.1462 107.612C97.1462 106.212 96.3762 105.19 95.1162 105.19C94.3462 105.19 93.5762 105.638 93.2402 106.184V109.054C93.5762 109.586 94.3462 110.048 95.1162 110.048C96.3762 110.048 97.1462 109.026 97.1462 107.612ZM103.056 111.168C100.956 111.168 99.6402 109.572 99.6402 107.612C99.6402 105.666 100.956 104.07 103.056 104.07C105.17 104.07 106.472 105.666 106.472 107.612C106.472 109.572 105.17 111.168 103.056 111.168ZM103.056 110.048C104.414 110.048 105.156 108.9 105.156 107.612C105.156 106.338 104.414 105.19 103.056 105.19C101.712 105.19 100.956 106.338 100.956 107.612C100.956 108.9 101.712 110.048 103.056 110.048ZM109.332 111H108.072V104.238H109.332V105.274C109.85 104.602 110.648 104.084 111.544 104.084V105.358C111.418 105.33 111.278 105.316 111.11 105.316C110.48 105.316 109.626 105.792 109.332 106.296V111ZM114.664 111.168C113.6 111.168 113.054 110.566 113.054 109.502V105.344H111.934V104.238H113.054V102.39H114.314V104.238H115.686V105.344H114.314V109.222C114.314 109.698 114.538 110.048 114.972 110.048C115.266 110.048 115.532 109.922 115.658 109.782L115.98 110.734C115.714 110.986 115.322 111.168 114.664 111.168ZM124.401 111H123.001V102.894H120.103V101.662H127.285V102.894H124.401V111ZM130.168 111.168C128.068 111.168 126.752 109.572 126.752 107.612C126.752 105.666 128.068 104.07 130.168 104.07C132.282 104.07 133.584 105.666 133.584 107.612C133.584 109.572 132.282 111.168 130.168 111.168ZM130.168 110.048C131.526 110.048 132.268 108.9 132.268 107.612C132.268 106.338 131.526 105.19 130.168 105.19C128.824 105.19 128.068 106.338 128.068 107.612C128.068 108.9 128.824 110.048 130.168 110.048ZM138.247 109.684L139.045 108.606C139.675 109.306 140.683 109.922 141.985 109.922C143.497 109.922 144.029 109.152 144.029 108.48C144.029 107.5 142.965 107.22 141.775 106.912C140.277 106.52 138.541 106.086 138.541 104.182C138.541 102.642 139.899 101.522 141.845 101.522C143.287 101.522 144.421 101.984 145.247 102.824L144.435 103.86C143.721 103.104 142.741 102.768 141.733 102.768C140.697 102.768 139.983 103.3 139.983 104.084C139.983 104.924 140.991 105.19 142.153 105.484C143.679 105.89 145.457 106.366 145.457 108.354C145.457 109.81 144.449 111.168 141.929 111.168C140.263 111.168 139.045 110.566 138.247 109.684ZM152.482 111H151.222V110.258C150.69 110.846 149.92 111.168 149.01 111.168C147.89 111.168 146.658 110.412 146.658 108.928C146.658 107.388 147.876 106.716 149.01 106.716C149.92 106.716 150.704 107.01 151.222 107.612V106.492C151.222 105.652 150.536 105.148 149.57 105.148C148.8 105.148 148.142 105.442 147.54 106.044L146.994 105.176C147.75 104.434 148.674 104.07 149.766 104.07C151.236 104.07 152.482 104.714 152.482 106.436V111ZM151.222 109.516V108.368C150.844 107.864 150.186 107.598 149.486 107.598C148.576 107.598 147.932 108.144 147.932 108.942C147.932 109.74 148.576 110.286 149.486 110.286C150.186 110.286 150.844 110.02 151.222 109.516ZM155.762 111H154.502V101.662H155.762V111ZM157.349 107.612C157.349 105.652 158.763 104.07 160.737 104.07C162.767 104.07 164.027 105.652 164.027 107.724V108.032H158.679C158.777 109.18 159.617 110.132 160.975 110.132C161.689 110.132 162.473 109.852 162.977 109.334L163.565 110.16C162.893 110.818 161.941 111.168 160.849 111.168C158.833 111.168 157.349 109.74 157.349 107.612ZM160.737 105.106C159.379 105.106 158.735 106.198 158.665 107.122H162.795C162.767 106.226 162.165 105.106 160.737 105.106ZM165.015 110.118L165.617 109.194C166.079 109.698 166.975 110.16 167.885 110.16C168.837 110.16 169.341 109.768 169.341 109.194C169.341 108.522 168.571 108.298 167.703 108.102C166.555 107.836 165.211 107.528 165.211 106.072C165.211 104.994 166.135 104.07 167.787 104.07C168.949 104.07 169.789 104.49 170.363 105.036L169.803 105.918C169.411 105.442 168.655 105.092 167.801 105.092C166.947 105.092 166.415 105.428 166.415 105.974C166.415 106.562 167.143 106.758 167.983 106.954C169.159 107.22 170.559 107.542 170.559 109.096C170.559 110.258 169.607 111.168 167.829 111.168C166.695 111.168 165.701 110.818 165.015 110.118ZM175.092 105.344H173.72V111H172.46V105.344H171.34V104.238H172.46V103.79C172.46 102.334 173.314 101.522 174.518 101.522C174.952 101.522 175.33 101.606 175.624 101.774L175.33 102.712C175.162 102.614 174.952 102.558 174.728 102.558C174.098 102.558 173.72 102.978 173.72 103.79V104.238H175.092V105.344ZM179.291 111.168C177.191 111.168 175.875 109.572 175.875 107.612C175.875 105.666 177.191 104.07 179.291 104.07C181.405 104.07 182.707 105.666 182.707 107.612C182.707 109.572 181.405 111.168 179.291 111.168ZM179.291 110.048C180.649 110.048 181.391 108.9 181.391 107.612C181.391 106.338 180.649 105.19 179.291 105.19C177.947 105.19 177.191 106.338 177.191 107.612C177.191 108.9 177.947 110.048 179.291 110.048ZM185.566 111H184.306V104.238H185.566V105.274C186.084 104.602 186.882 104.084 187.778 104.084V105.358C187.652 105.33 187.512 105.316 187.344 105.316C186.714 105.316 185.86 105.792 185.566 106.296V111ZM188.617 107.612C188.617 105.582 190.017 104.07 192.061 104.07C193.335 104.07 194.105 104.602 194.595 105.26L193.755 106.03C193.349 105.456 192.803 105.19 192.117 105.19C190.787 105.19 189.933 106.212 189.933 107.612C189.933 109.012 190.787 110.048 192.117 110.048C192.803 110.048 193.349 109.768 193.755 109.208L194.595 109.978C194.105 110.636 193.335 111.168 192.061 111.168C190.017 111.168 188.617 109.642 188.617 107.612ZM195.562 107.612C195.562 105.652 196.976 104.07 198.95 104.07C200.98 104.07 202.24 105.652 202.24 107.724V108.032H196.892C196.99 109.18 197.83 110.132 199.188 110.132C199.902 110.132 200.686 109.852 201.19 109.334L201.778 110.16C201.106 110.818 200.154 111.168 199.062 111.168C197.046 111.168 195.562 109.74 195.562 107.612ZM198.95 105.106C197.592 105.106 196.948 106.198 196.878 107.122H201.008C200.98 106.226 200.378 105.106 198.95 105.106Z" fill="#5781F2"/>
<rect x="0.5" y="132.5" width="249" height="36" rx="2.5" stroke="#5781F2"/>
<path fill-rule="evenodd" clip-rule="evenodd" d="M54.0072 144.57H55.9893V149.509H60.9298V151.491H55.9893V156.43H54.0072V151.491H49.0703V149.509H54.0072V144.57Z" fill="#5781F2"/>
<path d="M80.1697 155H78.6297L77.8737 153.068H73.2957L72.5397 155H70.9997L74.7097 145.662H76.4597L80.1697 155ZM77.4677 151.822L75.5777 146.88L73.7017 151.822H77.4677ZM87.3379 155H86.0779V154.034C85.5739 154.706 84.7619 155.168 83.8659 155.168C82.1019 155.168 80.8419 153.838 80.8419 151.626C80.8419 149.456 82.1019 148.07 83.8659 148.07C84.7339 148.07 85.5319 148.49 86.0779 149.218V145.662H87.3379V155ZM86.0779 153.068V150.184C85.7279 149.638 84.9719 149.19 84.2019 149.19C82.9419 149.19 82.1579 150.212 82.1579 151.626C82.1579 153.026 82.9419 154.048 84.2019 154.048C84.9719 154.048 85.7279 153.614 86.0779 153.068ZM95.4317 155H94.1717V154.034C93.6677 154.706 92.8557 155.168 91.9597 155.168C90.1957 155.168 88.9357 153.838 88.9357 151.626C88.9357 149.456 90.1957 148.07 91.9597 148.07C92.8277 148.07 93.6257 148.49 94.1717 149.218V145.662H95.4317V155ZM94.1717 153.068V150.184C93.8217 149.638 93.0657 149.19 92.2957 149.19C91.0357 149.19 90.2517 150.212 90.2517 151.626C90.2517 153.026 91.0357 154.048 92.2957 154.048C93.0657 154.048 93.8217 153.614 94.1717 153.068ZM105.483 155.168C102.823 155.168 100.695 153.208 100.695 150.338C100.695 147.468 102.823 145.508 105.483 145.508C107.317 145.508 108.465 146.39 109.193 147.482L108.003 148.112C107.513 147.328 106.589 146.754 105.483 146.754C103.593 146.754 102.137 148.238 102.137 150.338C102.137 152.424 103.593 153.922 105.483 153.922C106.589 153.922 107.513 153.348 108.003 152.564L109.193 153.194C108.451 154.286 107.317 155.168 105.483 155.168ZM113.557 155.168C111.457 155.168 110.141 153.572 110.141 151.612C110.141 149.666 111.457 148.07 113.557 148.07C115.671 148.07 116.973 149.666 116.973 151.612C116.973 153.572 115.671 155.168 113.557 155.168ZM113.557 154.048C114.915 154.048 115.657 152.9 115.657 151.612C115.657 150.338 114.915 149.19 113.557 149.19C112.213 149.19 111.457 150.338 111.457 151.612C111.457 152.9 112.213 154.048 113.557 154.048ZM124.396 155H123.136V150.674C123.136 149.554 122.562 149.19 121.694 149.19C120.91 149.19 120.196 149.666 119.832 150.17V155H118.572V148.238H119.832V149.19C120.28 148.644 121.176 148.07 122.226 148.07C123.654 148.07 124.396 148.826 124.396 150.254V155ZM128.255 155.168C127.191 155.168 126.645 154.566 126.645 153.502V149.344H125.525V148.238H126.645V146.39H127.905V148.238H129.277V149.344H127.905V153.222C127.905 153.698 128.129 154.048 128.563 154.048C128.857 154.048 129.123 153.922 129.249 153.782L129.571 154.734C129.305 154.986 128.913 155.168 128.255 155.168ZM136.104 155H134.844V154.258C134.312 154.846 133.542 155.168 132.632 155.168C131.512 155.168 130.28 154.412 130.28 152.928C130.28 151.388 131.498 150.716 132.632 150.716C133.542 150.716 134.326 151.01 134.844 151.612V150.492C134.844 149.652 134.158 149.148 133.192 149.148C132.422 149.148 131.764 149.442 131.162 150.044L130.616 149.176C131.372 148.434 132.296 148.07 133.388 148.07C134.858 148.07 136.104 148.714 136.104 150.436V155ZM134.844 153.516V152.368C134.466 151.864 133.808 151.598 133.108 151.598C132.198 151.598 131.554 152.144 131.554 152.942C131.554 153.74 132.198 154.286 133.108 154.286C133.808 154.286 134.466 154.02 134.844 153.516ZM137.703 151.612C137.703 149.582 139.103 148.07 141.147 148.07C142.421 148.07 143.191 148.602 143.681 149.26L142.841 150.03C142.435 149.456 141.889 149.19 141.203 149.19C139.873 149.19 139.019 150.212 139.019 151.612C139.019 153.012 139.873 154.048 141.203 154.048C141.889 154.048 142.435 153.768 142.841 153.208L143.681 153.978C143.191 154.636 142.421 155.168 141.147 155.168C139.103 155.168 137.703 153.642 137.703 151.612ZM146.931 155.168C145.867 155.168 145.321 154.566 145.321 153.502V149.344H144.201V148.238H145.321V146.39H146.581V148.238H147.953V149.344H146.581V153.222C146.581 153.698 146.805 154.048 147.239 154.048C147.533 154.048 147.799 153.922 147.925 153.782L148.247 154.734C147.981 154.986 147.589 155.168 146.931 155.168ZM154.819 155.168C153.755 155.168 153.209 154.566 153.209 153.502V149.344H152.089V148.238H153.209V146.39H154.469V148.238H155.841V149.344H154.469V153.222C154.469 153.698 154.693 154.048 155.127 154.048C155.421 154.048 155.687 153.922 155.813 153.782L156.135 154.734C155.869 154.986 155.477 155.168 154.819 155.168ZM160.233 155.168C158.133 155.168 156.817 153.572 156.817 151.612C156.817 149.666 158.133 148.07 160.233 148.07C162.347 148.07 163.649 149.666 163.649 151.612C163.649 153.572 162.347 155.168 160.233 155.168ZM160.233 154.048C161.591 154.048 162.333 152.9 162.333 151.612C162.333 150.338 161.591 149.19 160.233 149.19C158.889 149.19 158.133 150.338 158.133 151.612C158.133 152.9 158.889 154.048 160.233 154.048ZM174.29 155H173.03V154.258C172.498 154.846 171.728 155.168 170.818 155.168C169.698 155.168 168.466 154.412 168.466 152.928C168.466 151.388 169.684 150.716 170.818 150.716C171.728 150.716 172.512 151.01 173.03 151.612V150.492C173.03 149.652 172.344 149.148 171.378 149.148C170.608 149.148 169.95 149.442 169.348 150.044L168.802 149.176C169.558 148.434 170.482 148.07 171.574 148.07C173.044 148.07 174.29 148.714 174.29 150.436V155ZM173.03 153.516V152.368C172.652 151.864 171.994 151.598 171.294 151.598C170.384 151.598 169.74 152.144 169.74 152.942C169.74 153.74 170.384 154.286 171.294 154.286C171.994 154.286 172.652 154.02 173.03 153.516ZM185.588 155H179.946V145.662H181.346V153.768H185.588V155ZM187.712 147.104C187.278 147.104 186.9 146.754 186.9 146.306C186.9 145.858 187.278 145.494 187.712 145.494C188.16 145.494 188.524 145.858 188.524 146.306C188.524 146.754 188.16 147.104 187.712 147.104ZM188.356 155H187.096V148.238H188.356V155ZM189.775 154.118L190.377 153.194C190.839 153.698 191.735 154.16 192.645 154.16C193.597 154.16 194.101 153.768 194.101 153.194C194.101 152.522 193.331 152.298 192.463 152.102C191.315 151.836 189.971 151.528 189.971 150.072C189.971 148.994 190.895 148.07 192.547 148.07C193.709 148.07 194.549 148.49 195.123 149.036L194.563 149.918C194.171 149.442 193.415 149.092 192.561 149.092C191.707 149.092 191.175 149.428 191.175 149.974C191.175 150.562 191.903 150.758 192.743 150.954C193.919 151.22 195.319 151.542 195.319 153.096C195.319 154.258 194.367 155.168 192.589 155.168C191.455 155.168 190.461 154.818 189.775 154.118ZM198.774 155.168C197.71 155.168 197.164 154.566 197.164 153.502V149.344H196.044V148.238H197.164V146.39H198.424V148.238H199.796V149.344H198.424V153.222C198.424 153.698 198.648 154.048 199.082 154.048C199.376 154.048 199.642 153.922 199.768 153.782L200.09 154.734C199.824 154.986 199.432 155.168 198.774 155.168Z" fill="#5781F2"/>
</svg>
