<svg width="127" height="127" viewBox="0 0 127 127" fill="none" xmlns="http://www.w3.org/2000/svg">
<rect x="0.5" y="0.5" width="126" height="36" rx="2.5" stroke="#5781F2"/>
<path d="M37.9983 26.8746C39.1563 26.8746 40.0923 25.9386 40.0923 24.7806H35.9043C35.9043 25.9386 36.8403 26.8746 37.9983 26.8746Z" fill="#5781F2"/>
<path d="M43.9833 21.4954C43.6533 21.4954 43.3863 21.2284 43.3863 20.8984V17.3074C43.3863 14.7994 41.6703 12.6904 39.3483 12.0904V11.4724C39.3453 10.7254 38.7423 10.1254 37.9983 10.1254C37.2543 10.1254 36.6513 10.7284 36.6513 11.4724V12.0904C34.3293 12.6874 32.6133 14.7964 32.6133 17.3074V20.8984C32.6133 21.2284 32.3433 21.4954 32.0163 21.4954C31.3563 21.4954 30.8193 22.0324 30.8193 22.6924C30.8193 23.3524 31.3563 23.8894 32.0193 23.8894H43.9803C44.6433 23.8894 45.1803 23.3524 45.1803 22.6924C45.1803 22.0324 44.6403 21.4954 43.9833 21.4954Z" fill="#5781F2"/>
<path d="M57.6167 23H56.2167V13.662H62.4887V14.894H57.6167V17.624H62.3907V18.856H57.6167V23ZM66.964 23.168C64.864 23.168 63.548 21.572 63.548 19.612C63.548 17.666 64.864 16.07 66.964 16.07C69.078 16.07 70.38 17.666 70.38 19.612C70.38 21.572 69.078 23.168 66.964 23.168ZM66.964 22.048C68.322 22.048 69.064 20.9 69.064 19.612C69.064 18.338 68.322 17.19 66.964 17.19C65.62 17.19 64.864 18.338 64.864 19.612C64.864 20.9 65.62 22.048 66.964 22.048ZM73.2397 23H71.9797V13.662H73.2397V23ZM76.5073 23H75.2473V13.662H76.5073V23ZM81.5108 23.168C79.4108 23.168 78.0948 21.572 78.0948 19.612C78.0948 17.666 79.4108 16.07 81.5108 16.07C83.6248 16.07 84.9268 17.666 84.9268 19.612C84.9268 21.572 83.6248 23.168 81.5108 23.168ZM81.5108 22.048C82.8688 22.048 83.6108 20.9 83.6108 19.612C83.6108 18.338 82.8688 17.19 81.5108 17.19C80.1668 17.19 79.4108 18.338 79.4108 19.612C79.4108 20.9 80.1668 22.048 81.5108 22.048ZM93.6946 23H92.3926L90.7266 17.806L89.0606 23H87.7586L85.6306 16.238H86.9466L88.4866 21.39L90.1806 16.238H91.2726L92.9666 21.39L94.5066 16.238H95.8226L93.6946 23Z" fill="#5781F2"/>
<rect x="0.5" y="45.5" width="126" height="36" rx="2.5" stroke="#5781F2"/>
<path d="M30.6256 60.1422C30.7816 59.9862 30.7816 59.7312 30.6256 59.5722C30.4696 59.4132 30.2146 59.4132 30.0556 59.5722L25.5976 64.0272C25.4386 64.1832 25.4386 64.4382 25.5976 64.5972C25.7536 64.7562 26.0086 64.7562 26.1676 64.5972L30.6256 60.1422ZM24.9766 65.2182C24.9016 65.1432 24.7996 65.1012 24.6916 65.1012C24.5836 65.1012 24.4816 65.1432 24.4066 65.2182L23.7646 65.8632C23.6896 65.9382 23.6476 66.0402 23.6476 66.1482C23.6476 66.2562 23.6896 66.3582 23.7646 66.4332C23.8396 66.5082 23.9416 66.5502 24.0496 66.5502C24.1576 66.5502 24.2596 66.5082 24.3346 66.4332L24.9766 65.7882C25.0516 65.7132 25.0936 65.6112 25.0936 65.5032C25.0936 65.3952 25.0516 65.2932 24.9766 65.2182ZM34.7536 62.2662L26.4016 70.6182L21.3706 65.5872L29.7286 57.2412L34.7566 62.2662H34.7536ZM20.9026 66.2562L20.2636 71.2872C20.2486 71.4012 20.2846 71.5182 20.3626 71.6052C20.4406 71.6922 20.5516 71.7432 20.6656 71.7402H20.7166L25.7476 71.1012L20.8996 66.2562H20.9026ZM30.2956 56.6712L31.0996 55.8672C31.9126 55.0572 33.2266 55.0572 34.0396 55.8672L36.1306 57.9522C36.5206 58.3422 36.7396 58.8702 36.7396 59.4222C36.7396 59.9742 36.5206 60.5022 36.1306 60.8922L35.3266 61.6962L30.2986 56.6712H30.2956Z" fill="#5781F2"/>
<path d="M55.9797 68H54.4397L53.6837 66.068H49.1057L48.3497 68H46.8097L50.5197 58.662H52.2697L55.9797 68ZM53.2777 64.822L51.3877 59.88L49.5117 64.822H53.2777ZM63.148 68H61.888V67.034C61.384 67.706 60.572 68.168 59.676 68.168C57.912 68.168 56.652 66.838 56.652 64.626C56.652 62.456 57.912 61.07 59.676 61.07C60.544 61.07 61.342 61.49 61.888 62.218V58.662H63.148V68ZM61.888 66.068V63.184C61.538 62.638 60.782 62.19 60.012 62.19C58.752 62.19 57.968 63.212 57.968 64.626C57.968 66.026 58.752 67.048 60.012 67.048C60.782 67.048 61.538 66.614 61.888 66.068ZM71.2417 68H69.9817V67.034C69.4777 67.706 68.6657 68.168 67.7697 68.168C66.0057 68.168 64.7457 66.838 64.7457 64.626C64.7457 62.456 66.0057 61.07 67.7697 61.07C68.6377 61.07 69.4357 61.49 69.9817 62.218V58.662H71.2417V68ZM69.9817 66.068V63.184C69.6317 62.638 68.8757 62.19 68.1057 62.19C66.8457 62.19 66.0617 63.212 66.0617 64.626C66.0617 66.026 66.8457 67.048 68.1057 67.048C68.8757 67.048 69.6317 66.614 69.9817 66.068ZM84.8208 68H83.4628L78.2968 60.832V68H76.8968V58.662H78.3388L83.4208 65.662V58.662H84.8208V68ZM89.859 68.168C87.759 68.168 86.443 66.572 86.443 64.612C86.443 62.666 87.759 61.07 89.859 61.07C91.973 61.07 93.275 62.666 93.275 64.612C93.275 66.572 91.973 68.168 89.859 68.168ZM89.859 67.048C91.217 67.048 91.959 65.9 91.959 64.612C91.959 63.338 91.217 62.19 89.859 62.19C88.515 62.19 87.759 63.338 87.759 64.612C87.759 65.9 88.515 67.048 89.859 67.048ZM96.7367 68.168C95.6727 68.168 95.1267 67.566 95.1267 66.502V62.344H94.0067V61.238H95.1267V59.39H96.3867V61.238H97.7587V62.344H96.3867V66.222C96.3867 66.698 96.6107 67.048 97.0447 67.048C97.3387 67.048 97.6047 66.922 97.7307 66.782L98.0527 67.734C97.7867 67.986 97.3947 68.168 96.7367 68.168ZM98.734 64.612C98.734 62.652 100.148 61.07 102.122 61.07C104.152 61.07 105.412 62.652 105.412 64.724V65.032H100.064C100.162 66.18 101.002 67.132 102.36 67.132C103.074 67.132 103.858 66.852 104.362 66.334L104.95 67.16C104.278 67.818 103.326 68.168 102.234 68.168C100.218 68.168 98.734 66.74 98.734 64.612ZM102.122 62.106C100.764 62.106 100.12 63.198 100.05 64.122H104.18C104.152 63.226 103.55 62.106 102.122 62.106Z" fill="#5781F2"/>
<rect x="0.5" y="90.5" width="126" height="36" rx="2.5" stroke="#5781F2"/>
<path d="M27.4334 105.494H17.5664V102.497C17.5634 102.425 17.5634 102.356 17.5664 102.284C17.6804 101.066 18.7034 100.136 19.9274 100.136H25.0724C26.2934 100.139 27.3104 101.072 27.4244 102.284C27.4304 102.353 27.4304 102.425 27.4244 102.497L27.4334 105.494ZM25.0244 115.574H19.9244C19.3334 115.574 18.8564 115.094 18.8564 114.506V113.225H26.1884V114.506C26.1884 114.797 26.0684 115.076 25.8584 115.28C25.6484 115.481 25.3634 115.589 25.0724 115.577H25.0244V115.574ZM28.4564 111.074C28.1084 111.074 27.7964 110.864 27.6644 110.546C27.5324 110.225 27.6044 109.856 27.8504 109.61C28.0964 109.364 28.4654 109.292 28.7864 109.424C29.1074 109.556 29.3174 109.868 29.3174 110.216C29.3174 110.672 28.9604 111.05 28.5044 111.074H28.4564ZM25.8824 109.358C26.2304 109.358 26.5424 109.568 26.6744 109.886C26.8064 110.207 26.7344 110.576 26.4884 110.822C26.2424 111.068 25.8734 111.14 25.5524 111.008C25.2314 110.876 25.0244 110.564 25.0244 110.216C25.0244 109.979 25.1204 109.754 25.2914 109.592C25.4624 109.43 25.6934 109.346 25.9274 109.358H25.8794H25.8824ZM29.5724 105.992V102.968C29.5844 102.794 29.5274 102.623 29.4104 102.494C29.2934 102.365 29.1284 102.29 28.9544 102.287H28.3634C28.3694 102.356 28.3694 102.428 28.3634 102.5V106.418H16.6424V102.5C16.6364 102.428 16.6364 102.359 16.6424 102.287H16.0424C15.8684 102.29 15.7034 102.368 15.5864 102.494C15.4694 102.623 15.4094 102.794 15.4244 102.968V105.992C14.7764 106.337 14.2334 106.853 13.8554 107.483C13.4774 108.113 13.2764 108.833 13.2764 109.568V113C13.2764 113.627 13.5254 114.227 13.9694 114.668C14.4134 115.109 15.0134 115.361 15.6374 115.361H17.7314C18.0824 116.267 18.9554 116.864 19.9274 116.864H25.0724C26.0444 116.864 26.9174 116.267 27.2684 115.361H29.3624C30.6674 115.361 31.7234 114.305 31.7234 113V109.568C31.7234 108.833 31.5224 108.113 31.1444 107.483C30.7664 106.853 30.2234 106.337 29.5754 105.992H29.5724Z" fill="#5781F2"/>
<path d="M44.1596 113H42.7596V103.662H46.6936C48.6116 103.662 49.6756 104.978 49.6756 106.532C49.6756 108.086 48.5976 109.402 46.6936 109.402H44.1596V113ZM48.2336 106.532C48.2336 105.552 47.5196 104.894 46.5116 104.894H44.1596V108.17H46.5116C47.5196 108.17 48.2336 107.512 48.2336 106.532ZM52.3451 113H51.0851V106.238H52.3451V107.274C52.8631 106.602 53.6611 106.084 54.5571 106.084V107.358C54.4311 107.33 54.2911 107.316 54.1231 107.316C53.4931 107.316 52.6391 107.792 52.3451 108.296V113ZM56.4316 105.104C55.9976 105.104 55.6196 104.754 55.6196 104.306C55.6196 103.858 55.9976 103.494 56.4316 103.494C56.8796 103.494 57.2436 103.858 57.2436 104.306C57.2436 104.754 56.8796 105.104 56.4316 105.104ZM57.0756 113H55.8156V106.238H57.0756V113ZM64.9072 113H63.6472V108.674C63.6472 107.554 63.0732 107.19 62.2052 107.19C61.4212 107.19 60.7072 107.666 60.3432 108.17V113H59.0832V106.238H60.3432V107.19C60.7912 106.644 61.6872 106.07 62.7372 106.07C64.1652 106.07 64.9072 106.826 64.9072 108.254V113ZM68.7655 113.168C67.7015 113.168 67.1555 112.566 67.1555 111.502V107.344H66.0355V106.238H67.1555V104.39H68.4155V106.238H69.7875V107.344H68.4155V111.222C68.4155 111.698 68.6395 112.048 69.0735 112.048C69.3675 112.048 69.6335 111.922 69.7595 111.782L70.0815 112.734C69.8155 112.986 69.4235 113.168 68.7655 113.168ZM76.2202 113H74.8202V103.662H78.7542C80.6722 103.662 81.7362 104.978 81.7362 106.532C81.7362 108.086 80.6582 109.402 78.7542 109.402H76.2202V113ZM80.2942 106.532C80.2942 105.552 79.5802 104.894 78.5722 104.894H76.2202V108.17H78.5722C79.5802 108.17 80.2942 107.512 80.2942 106.532ZM84.4057 113H83.1457V106.238H84.4057V107.274C84.9237 106.602 85.7217 106.084 86.6177 106.084V107.358C86.4917 107.33 86.3517 107.316 86.1837 107.316C85.5537 107.316 84.6997 107.792 84.4057 108.296V113ZM90.8722 113.168C88.7722 113.168 87.4562 111.572 87.4562 109.612C87.4562 107.666 88.7722 106.07 90.8722 106.07C92.9862 106.07 94.2882 107.666 94.2882 109.612C94.2882 111.572 92.9862 113.168 90.8722 113.168ZM90.8722 112.048C92.2302 112.048 92.9722 110.9 92.9722 109.612C92.9722 108.338 92.2302 107.19 90.8722 107.19C89.5282 107.19 88.7722 108.338 88.7722 109.612C88.7722 110.9 89.5282 112.048 90.8722 112.048ZM100.648 105.104C100.214 105.104 99.8359 104.754 99.8359 104.306C99.8359 103.858 100.214 103.494 100.648 103.494C101.096 103.494 101.46 103.858 101.46 104.306C101.46 104.754 101.096 105.104 100.648 105.104ZM97.4559 107.344V113H96.1959V107.344H95.0759V106.238H96.1959V105.79C96.1959 104.334 97.0499 103.522 98.2539 103.522C98.6879 103.522 99.0659 103.606 99.3599 103.774L99.0659 104.712C98.9119 104.614 98.7159 104.558 98.4639 104.558C97.8339 104.558 97.4559 104.978 97.4559 105.79V106.238H98.8279V107.344H97.4559ZM101.292 113H100.032V106.238H101.292V113ZM104.558 113H103.298V103.662H104.558V113ZM106.146 109.612C106.146 107.652 107.56 106.07 109.534 106.07C111.564 106.07 112.824 107.652 112.824 109.724V110.032H107.476C107.574 111.18 108.414 112.132 109.772 112.132C110.486 112.132 111.27 111.852 111.774 111.334L112.362 112.16C111.69 112.818 110.738 113.168 109.646 113.168C107.63 113.168 106.146 111.74 106.146 109.612ZM109.534 107.106C108.176 107.106 107.532 108.198 107.462 109.122H111.592C111.564 108.226 110.962 107.106 109.534 107.106Z" fill="#5781F2"/>
</svg>
