<svg width="334" height="335" viewBox="0 0 334 335" fill="none" xmlns="http://www.w3.org/2000/svg">
<g clip-path="url(#clip0_75_728)">
<g opacity="0.4">
<path d="M133.297 328.988C133.792 329.813 134.694 330.616 136.003 330.869C137.521 331.155 138.203 330.484 138.324 329.813C138.511 328.834 137.499 328.35 136.355 327.811C134.925 327.129 133.264 326.37 133.627 324.456C133.924 322.916 135.497 322.047 137.444 322.41C138.896 322.685 139.941 323.367 140.612 324.357L139.6 325.248C139.028 324.357 138.104 323.829 137.092 323.642C136.047 323.444 135.233 323.84 135.09 324.632C134.936 325.479 135.893 325.93 137.004 326.447C138.456 327.14 140.15 327.954 139.776 329.956C139.501 331.419 138.225 332.585 135.706 332.112C134.034 331.793 132.923 330.957 132.296 329.923L133.308 328.988H133.297Z" fill="#231F20"/>
<path d="M143.714 333.258L144.825 325.052L141.888 324.656L142.053 323.413L149.324 324.403L149.159 325.646L146.244 325.25L145.133 333.456L143.714 333.269V333.258Z" fill="#231F20"/>
<path d="M155.968 334.533L155.363 332.498L150.699 332.113L149.764 334.016L148.191 333.884L152.756 324.699L154.538 324.842L157.519 334.665L155.946 334.533H155.968ZM153.548 326.008L151.216 330.881L155.044 331.2L153.537 326.008H153.548Z" fill="#231F20"/>
<path d="M159.345 334.732L159.565 325.195L164.042 325.294C165.747 325.338 166.704 326.394 166.671 327.791C166.638 328.99 165.835 329.771 164.966 329.936C165.978 330.112 166.781 331.168 166.759 332.323C166.726 333.819 165.703 334.875 163.943 334.831L159.356 334.721L159.345 334.732ZM160.808 333.511L163.657 333.577C164.658 333.599 165.274 333.038 165.296 332.114C165.318 331.333 164.79 330.629 163.734 330.607L160.896 330.541L160.83 333.511H160.808ZM160.907 329.276L163.679 329.342C164.636 329.364 165.175 328.781 165.197 327.989C165.219 327.208 164.702 326.57 163.745 326.559L160.973 326.493L160.907 329.276Z" fill="#231F20"/>
<path d="M168.993 334.852L168.828 325.304L170.258 325.282L170.423 334.819L168.993 334.841V334.852Z" fill="#231F20"/>
<path d="M173.051 334.764L172.545 325.249L173.975 325.172L174.415 333.433L178.738 333.202L178.804 334.456L173.051 334.764Z" fill="#231F20"/>
<path d="M180.905 334.27L180.058 324.777L181.477 324.645L182.324 334.138L180.905 334.27Z" fill="#231F20"/>
<path d="M187.252 333.608L186.207 325.402L183.27 325.776L183.116 324.533L190.387 323.609L190.541 324.852L187.626 325.226L188.671 333.432L187.252 333.608Z" fill="#231F20"/>
<path d="M196.404 332.223L195.678 328.296L191.003 323.522L192.62 323.225L196.151 326.91L198.109 322.213L199.737 321.916L197.086 328.043L197.812 331.97L196.404 332.234V332.223Z" fill="#231F20"/>
</g>
<path d="M25.288 257.345L26.564 255.662L24.122 251.68L22.032 252.054L21.207 250.712L31.316 248.974L32.251 250.503L26.091 258.709L25.266 257.367L25.288 257.345ZM30.733 250.36L25.431 251.361L27.433 254.639L30.733 250.36Z" fill="#231F20"/>
<path d="M30.524 256.706C32.933 255.034 35.815 255.672 37.366 257.905C38.433 259.445 38.367 260.919 37.872 262.173L36.651 261.546C37.025 260.677 36.97 259.566 36.321 258.642C35.221 257.058 33.12 256.706 31.36 257.927C29.611 259.148 29.204 261.238 30.304 262.822C30.953 263.746 31.976 264.186 32.911 264.142L33.076 265.506C31.723 265.517 30.326 265.088 29.259 263.548C27.708 261.315 28.104 258.389 30.513 256.717L30.524 256.706Z" fill="#231F20"/>
<path d="M36.321 264.957C38.62 263.142 41.535 263.593 43.218 265.727C44.384 267.19 44.406 268.675 43.988 269.951L42.734 269.401C43.053 268.51 42.921 267.41 42.228 266.519C41.029 265.012 38.917 264.781 37.234 266.112C35.562 267.432 35.287 269.544 36.486 271.062C37.19 271.942 38.235 272.327 39.17 272.217L39.423 273.57C38.081 273.669 36.651 273.317 35.496 271.854C33.813 269.72 34.033 266.783 36.321 264.957Z" fill="#231F20"/>
<path d="M46.4301 269.928L47.3981 270.995L43.1191 274.845C41.9091 275.934 41.7331 277.298 42.8551 278.541C43.9771 279.784 45.3411 279.74 46.5511 278.651L50.8301 274.801L51.7981 275.868L47.4971 279.74C45.7371 281.324 43.7021 281.379 41.9091 279.388C40.1161 277.408 40.3801 275.362 42.1181 273.789L46.4301 269.906V269.928Z" fill="#231F20"/>
<path d="M50.5879 288.123L51.5449 283.911L50.2689 282.656L47.6949 285.274L46.6719 284.273L53.3489 277.475L56.2089 280.291C57.5069 281.567 57.5729 283.272 56.3409 284.526C55.1419 285.747 53.6679 285.593 52.6999 284.856L51.7649 289.289L50.5769 288.123H50.5879ZM55.2079 281.061L53.4919 279.378L51.1489 281.765L52.8649 283.448C53.6019 284.174 54.6029 284.207 55.2959 283.492C55.9999 282.777 55.9339 281.776 55.2079 281.061Z" fill="#231F20"/>
<path d="M58.6064 295.338L59.3214 293.347L55.8014 290.267L53.9204 291.246L52.7324 290.212L61.8624 285.515L63.2044 286.692L59.7834 296.372L58.5954 295.338H58.6064ZM61.7194 287.033L56.9564 289.574L59.8494 292.104L61.7194 287.033Z" fill="#231F20"/>
<path d="M63.3921 293.149C65.1851 290.828 68.1331 290.586 70.2781 292.247C71.7631 293.391 72.1371 294.821 72.0381 296.163L70.6851 295.932C70.7841 294.997 70.3881 293.952 69.4971 293.259C67.9681 292.082 65.8671 292.368 64.5581 294.062C63.2491 295.745 63.4911 297.868 65.0201 299.045C65.9111 299.738 67.0111 299.848 67.9021 299.529L68.4631 300.783C67.1761 301.201 65.7131 301.201 64.2391 300.057C62.0941 298.396 61.5991 295.481 63.3921 293.16V293.149Z" fill="#231F20"/>
<path d="M71.1028 304.855L73.3578 301.566L73.4238 294.878L74.7768 295.813L74.6778 300.917L79.3748 298.981L80.7388 299.916L74.5348 302.38L72.2688 305.669L71.0918 304.855H71.1028Z" fill="#231F20"/>
<g opacity="0.4">
<path d="M250.998 309.464C251.922 309.739 253.132 309.739 254.265 309.035C255.585 308.232 255.629 307.275 255.277 306.692C254.749 305.834 253.682 306.164 252.483 306.527C250.965 306.989 249.227 307.539 248.204 305.878C247.379 304.536 247.962 302.842 249.656 301.797C250.91 301.027 252.142 300.829 253.319 301.115L253.165 302.457C252.142 302.182 251.108 302.413 250.228 302.952C249.326 303.502 248.985 304.349 249.403 305.031C249.854 305.768 250.866 305.46 252.043 305.086C253.594 304.624 255.387 304.085 256.454 305.823C257.235 307.088 257.081 308.815 254.881 310.157C253.429 311.048 252.043 311.169 250.888 310.828L251.009 309.464H250.998Z" fill="#231F20"/>
<path d="M254.353 299.035L255.541 298.21L258.841 302.929C259.776 304.26 261.107 304.601 262.482 303.644C263.857 302.687 263.978 301.323 263.043 299.981L259.743 295.262L260.931 294.437L264.242 299.178C265.606 301.125 265.397 303.149 263.208 304.678C261.019 306.207 259.028 305.701 257.675 303.776L254.353 299.013V299.035Z" fill="#231F20"/>
<path d="M268.609 300.586L262.68 293.106L265.837 290.609C267.377 289.388 269.06 289.773 270.05 291.016C271.04 292.259 271.007 293.997 269.478 295.207L267.454 296.813L269.742 299.695L268.62 300.586H268.609ZM266.475 291.709L264.594 293.205L266.673 295.823L268.554 294.327C269.357 293.689 269.511 292.71 268.895 291.918C268.279 291.126 267.289 291.06 266.475 291.698V291.709Z" fill="#231F20"/>
<path d="M275.747 294.846L269.422 287.696L272.436 285.034C273.899 283.736 275.604 284.022 276.66 285.21C277.716 286.398 277.782 288.136 276.319 289.423L274.383 291.139L276.814 293.889L275.747 294.835V294.846ZM273.129 286.101L271.325 287.696L273.547 290.204L275.351 288.609C276.121 287.927 276.22 286.937 275.56 286.189C274.9 285.441 273.91 285.419 273.129 286.101Z" fill="#231F20"/>
<path d="M278.85 278.742C280.863 276.729 283.734 276.828 285.736 278.83C287.738 280.832 287.848 283.703 285.835 285.716C283.822 287.729 280.951 287.63 278.949 285.628C276.947 283.626 276.837 280.755 278.85 278.742ZM279.752 279.644C278.311 281.096 278.498 283.098 279.983 284.594C281.457 286.068 283.481 286.266 284.933 284.825C286.352 283.395 286.176 281.36 284.691 279.875C283.206 278.39 281.171 278.225 279.741 279.644H279.752Z" fill="#231F20"/>
<path d="M294.327 276.288L290.059 275.573L288.882 276.915L291.643 279.346L290.697 280.424L283.525 274.121L286.176 271.096C287.375 269.732 289.08 269.567 290.4 270.733C291.687 271.866 291.61 273.34 290.928 274.363L295.416 275.045L294.316 276.288H294.327ZM287.012 272.064L285.428 273.868L287.947 276.079L289.531 274.275C290.213 273.505 290.202 272.493 289.443 271.833C288.695 271.173 287.694 271.283 287.012 272.064Z" fill="#231F20"/>
<path d="M298.232 271.536L291.72 266.41L289.883 268.742L288.893 267.961L293.436 262.197L294.426 262.978L292.6 265.299L299.112 270.425L298.221 271.547L298.232 271.536Z" fill="#231F20"/>
</g>
<path d="M164.119 23.915C87.3283 25.367 25.3543 87.3411 23.9023 164.132H164.119V23.915Z" fill="#FFEBDB"/>
<path opacity="0.5" d="M121.649 31.1973C65.6588 49.8423 25.0688 102.158 23.9028 164.132H164.12V64.4943C144.056 63.3393 127.336 49.6883 121.649 31.1973Z" fill="#25C9BA"/>
<g opacity="0.4">
<path d="M146.784 10.8023L145.728 8.96534L141.097 9.64734L140.624 11.7153L139.073 11.9463L141.427 1.95834L143.198 1.69434L148.335 10.5713L146.784 10.8023ZM142.494 3.05834L141.339 8.32734L145.145 7.76634L142.505 3.05834H142.494Z" fill="#231F20"/>
<path d="M148.291 5.8094C148.038 2.8944 150.018 0.7054 152.724 0.4634C154.594 0.298399 155.837 1.0904 156.673 2.1354L155.518 2.8834C154.946 2.1244 153.956 1.6294 152.834 1.7284C150.909 1.8934 149.567 3.5324 149.754 5.6664C149.941 7.7894 151.558 9.1864 153.472 9.0104C154.594 8.9114 155.485 8.2404 155.914 7.4044L157.179 7.9434C156.519 9.1204 155.452 10.1214 153.582 10.2864C150.876 10.5284 148.533 8.7244 148.28 5.7984L148.291 5.8094Z" fill="#231F20"/>
<path d="M161.282 9.67016L161.04 1.38716L158.081 1.47516L158.037 0.22116L165.374 0.00115967L165.407 1.25516L162.459 1.34316L162.701 9.62616L161.271 9.67016H161.282Z" fill="#231F20"/>
<path d="M167.332 9.57112L167.409 0.0341187H168.839L168.762 9.58212H167.332V9.57112Z" fill="#231F20"/>
<path d="M175.989 0.144312C178.827 0.298312 180.664 2.50931 180.51 5.33631C180.356 8.16331 178.277 10.1543 175.439 9.98931C172.601 9.82431 170.764 7.62431 170.918 4.79731C171.072 1.97031 173.14 -0.0206884 175.989 0.144312ZM175.923 1.40931C173.888 1.29931 172.513 2.78431 172.392 4.87431C172.282 6.95331 173.47 8.60331 175.516 8.71331C177.529 8.82331 178.926 7.32731 179.047 5.24831C179.168 3.14731 177.936 1.51931 175.923 1.40931Z" fill="#231F20"/>
<path d="M188.782 11.0896L184.437 3.18063L183.546 10.4516L182.127 10.2756L183.293 0.804626L184.756 0.980626L189.035 8.71363L189.904 1.60763L191.323 1.78363L190.157 11.2546L188.782 11.0896Z" fill="#231F20"/>
</g>
<path d="M237.853 26.4348L242.319 18.0088L247.973 21.0118L247.379 22.1228L242.979 19.7908L241.67 22.2548L245.982 24.5428L245.388 25.6538L241.076 23.3658L239.679 25.9948L244.079 28.3268L243.485 29.4378L237.831 26.4348H237.853Z" fill="#231F20"/>
<path d="M250.91 33.8607L250.217 24.8627L246.4 31.1107L245.179 30.3627L250.151 22.2227L251.405 22.9927L252.109 31.8037L255.838 25.6987L257.059 26.4467L252.087 34.5867L250.899 33.8607H250.91Z" fill="#231F20"/>
<path d="M255.893 37.1705L260.623 30.3725L258.192 28.6785L258.907 27.6445L264.935 31.8355L264.22 32.8695L261.8 31.1865L257.07 37.9845L255.893 37.1705Z" fill="#231F20"/>
<path d="M266.068 44.772L268.697 41.417L264.55 38.161L261.921 41.505L260.799 40.625L266.695 33.123L267.817 34.003L265.342 37.149L269.489 40.405L271.964 37.259L273.086 38.139L267.19 45.641L266.068 44.761V44.772Z" fill="#231F20"/>
<path d="M275.396 40.0308L276.452 41.0098L272.536 45.2448C271.425 46.4438 271.381 47.8188 272.613 48.9518C273.845 50.0848 275.198 49.9198 276.309 48.7208L280.225 44.4858L281.281 45.4648L277.354 49.7218C275.748 51.4598 273.724 51.6908 271.755 49.8758C269.786 48.0608 269.863 46.0038 271.458 44.2768L275.396 40.0088V40.0308Z" fill="#231F20"/>
<path d="M278.421 52.4928C278.366 53.4498 278.641 54.6268 279.576 55.5728C280.665 56.6728 281.6 56.5078 282.095 56.0238C282.81 55.3198 282.249 54.3408 281.611 53.2628C280.819 51.8988 279.884 50.3258 281.27 48.9508C282.392 47.8398 284.174 48.0268 285.571 49.4348C286.605 50.4798 287.089 51.6348 287.067 52.8338L285.736 52.9878C285.769 51.9318 285.307 50.9748 284.592 50.2378C283.844 49.4898 282.953 49.3468 282.381 49.9078C281.776 50.5128 282.304 51.4368 282.92 52.4928C283.723 53.8898 284.658 55.5288 283.206 56.9478C282.15 57.9928 280.434 58.2348 278.63 56.4088C277.431 55.1988 277.002 53.8898 277.068 52.6688L278.421 52.4708V52.4928Z" fill="#231F20"/>
<path d="M282.524 60.2486L289.564 53.8026L290.532 54.8586L283.492 61.3046L282.524 60.2486Z" fill="#231F20"/>
<path d="M289.443 68.2231L290.455 66.3641L287.452 62.7891L285.45 63.4711L284.438 62.2721L294.173 59.0381L295.328 60.4021L290.466 69.4331L289.454 68.2341L289.443 68.2231ZM293.788 60.5011L288.695 62.2831L291.17 65.2311L293.788 60.5121V60.5011Z" fill="#231F20"/>
<path d="M293.215 69.0495C293.028 69.9955 293.138 71.1945 293.93 72.2615C294.854 73.4935 295.811 73.4605 296.361 73.0535C297.164 72.4595 296.746 71.4145 296.262 70.2485C295.668 68.7855 294.964 67.1024 296.515 65.9364C297.769 64.9904 299.518 65.4194 300.706 67.0144C301.586 68.1914 301.905 69.4014 301.718 70.5894L300.376 70.5565C300.563 69.5115 300.233 68.4995 299.617 67.6745C298.979 66.8275 298.11 66.5745 297.472 67.0475C296.79 67.5645 297.186 68.5435 297.648 69.6765C298.253 71.1725 298.946 72.9215 297.318 74.1315C296.13 75.0225 294.403 75.0225 292.863 72.9655C291.84 71.6015 291.587 70.2375 291.829 69.0495H293.193H293.215Z" fill="#231F20"/>
<path d="M300.695 84.0751L307.053 79.9501L299.023 81.4901L298.693 80.9841L303.368 74.2631L297.01 78.3881L296.229 77.1891L304.226 71.9971L305.337 73.7131L301.113 79.7741L308.362 78.3661L309.473 80.0821L301.476 85.2741L300.695 84.0751Z" fill="#231F20"/>
<g opacity="0.4">
<path d="M321.145 116.975C323.95 116.15 326.491 117.668 327.261 120.275C327.789 122.068 327.261 123.454 326.392 124.477L325.435 123.498C326.062 122.794 326.359 121.716 326.04 120.638C325.49 118.79 323.62 117.789 321.563 118.394C319.517 118.999 318.472 120.858 319.022 122.706C319.341 123.795 320.166 124.532 321.079 124.785L320.804 126.127C319.517 125.72 318.329 124.862 317.801 123.058C317.031 120.451 318.34 117.8 321.156 116.975H321.145Z" fill="#231F20"/>
<path d="M329.835 130.34C330.451 133.123 328.823 135.488 326.062 136.104C323.301 136.72 320.815 135.268 320.199 132.485C319.583 129.702 321.211 127.337 323.972 126.721C326.733 126.105 329.219 127.557 329.835 130.34ZM328.592 130.615C328.152 128.613 326.348 127.7 324.291 128.162C322.256 128.613 321.002 130.219 321.442 132.21C321.882 134.179 323.697 135.125 325.743 134.663C327.8 134.201 329.032 132.584 328.592 130.615Z" fill="#231F20"/>
<path d="M321.717 139.019L331.133 137.501L331.364 138.909L323.191 140.229L323.884 144.508L322.641 144.706L321.728 139.019H321.717Z" fill="#231F20"/>
<path d="M322.861 146.423L332.332 145.345L332.497 146.764L324.269 147.699L324.753 152L323.499 152.143L322.85 146.412L322.861 146.423Z" fill="#231F20"/>
<path d="M324.093 160.7L326.007 159.798L325.699 155.134L323.675 154.496L323.576 152.923L333.344 156.08L333.465 157.862L324.192 162.273L324.093 160.7ZM332.167 157.048L327.008 155.464L327.261 159.303L332.167 157.048Z" fill="#231F20"/>
<path d="M324.17 163.526H333.707V168.003C333.707 169.708 332.662 170.687 331.276 170.687C330.077 170.687 329.274 169.906 329.087 169.026C328.933 170.038 327.899 170.874 326.744 170.874C325.248 170.874 324.17 169.873 324.17 168.113V163.526ZM325.424 164.956V167.805C325.424 168.806 325.996 169.411 326.92 169.411C327.712 169.411 328.394 168.872 328.394 167.805V164.956H325.424ZM329.659 164.956V167.728C329.659 168.685 330.253 169.213 331.045 169.213C331.837 169.213 332.453 168.685 332.453 167.728V164.956H329.659Z" fill="#231F20"/>
<path d="M333.509 177.804C333.322 180.642 331.1 182.457 328.273 182.281C325.446 182.094 323.477 180.004 323.664 177.166C323.851 174.328 326.073 172.513 328.9 172.689C331.727 172.876 333.696 174.966 333.509 177.804ZM332.244 177.716C332.376 175.681 330.902 174.295 328.812 174.152C326.733 174.02 325.083 175.197 324.94 177.243C324.808 179.256 326.293 180.664 328.372 180.807C330.473 180.939 332.112 179.729 332.244 177.716Z" fill="#231F20"/>
<path d="M322.608 189.267L326.546 187.474L326.777 185.703L323.125 185.23L323.312 183.811L332.772 185.021L332.266 189.003C332.035 190.807 330.715 191.885 328.966 191.665C327.261 191.445 326.502 190.18 326.502 188.959L322.399 190.895L322.608 189.245V189.267ZM331.034 188.673L331.342 186.286L328.02 185.857L327.712 188.244C327.58 189.267 328.152 190.092 329.142 190.213C330.132 190.345 330.902 189.685 331.023 188.662L331.034 188.673Z" fill="#231F20"/>
<path d="M320.837 199.41L322.916 199.014L323.785 194.416L321.992 193.294L322.289 191.754L330.946 197.254L330.616 199.014L320.54 200.961L320.837 199.421V199.41ZM329.56 197.892L324.962 195.065L324.247 198.838L329.56 197.881V197.892Z" fill="#231F20"/>
<path d="M319.869 203.567L327.91 205.536L328.614 202.654L329.835 202.951L328.097 210.079L326.876 209.782L327.58 206.922L319.539 204.953L319.88 203.567H319.869Z" fill="#231F20"/>
<path d="M318.351 209.43L327.525 212.048L327.129 213.423L317.955 210.805L318.351 209.43Z" fill="#231F20"/>
<path d="M325.127 220.309C324.214 223.004 321.596 224.192 318.912 223.29C316.228 222.388 314.864 219.858 315.777 217.163C316.69 214.468 319.308 213.28 321.992 214.182C324.676 215.084 326.04 217.614 325.127 220.309ZM323.917 219.902C324.566 217.966 323.51 216.239 321.508 215.568C319.528 214.897 317.625 215.612 316.976 217.559C316.327 219.473 317.405 221.222 319.374 221.882C321.365 222.553 323.268 221.805 323.906 219.891L323.917 219.902Z" fill="#231F20"/>
<path d="M311.157 229.671L319.946 227.614L313.181 224.798L313.731 223.478L322.542 227.141L321.97 228.505L313.368 230.551L319.968 233.301L319.418 234.621L310.607 230.958L311.135 229.682L311.157 229.671Z" fill="#231F20"/>
</g>
<path d="M41.3486 71.9849L37.0365 71.6329L35.9806 73.0738L38.9396 75.2519L38.0926 76.4068L30.4146 70.7528L32.8016 67.5188C33.8796 66.0558 35.5626 65.7478 36.9816 66.7928C38.3676 67.8158 38.4116 69.2898 37.8176 70.3568L42.3496 70.6539L41.3595 71.9849H41.3486ZM33.6926 68.4098L32.2626 70.3458L34.9576 72.3369L36.3876 70.4008C36.9926 69.5758 36.8936 68.5748 36.0906 67.9808C35.2876 67.3868 34.2976 67.5848 33.6926 68.4208V68.4098Z" fill="#231F20"/>
<path d="M43.4715 69.223L36.1125 63.151L40.1935 58.212L41.1615 59.015L37.9935 62.854L40.1495 64.625L43.2515 60.863L44.2195 61.666L41.1175 65.428L43.4165 67.32L46.5845 63.481L47.5525 64.284L43.4715 69.223Z" fill="#231F20"/>
<path d="M47.19 60.9959C48.158 60.9959 49.313 60.6769 50.215 59.6979C51.26 58.5649 51.051 57.6299 50.545 57.1679C49.808 56.4859 48.862 57.1019 47.806 57.7839C46.475 58.6419 44.946 59.6429 43.516 58.3229C42.361 57.2559 42.46 55.4629 43.802 53.9999C44.803 52.9109 45.925 52.3829 47.135 52.3389L47.355 53.6699C46.288 53.6809 45.364 54.1869 44.66 54.9459C43.945 55.7269 43.846 56.6289 44.44 57.1679C45.067 57.7509 45.969 57.1679 46.992 56.5079C48.356 55.6389 49.94 54.6379 51.436 56.0019C52.536 57.0139 52.855 58.7079 51.117 60.5999C49.962 61.8539 48.675 62.3489 47.454 62.3379L47.19 60.9959Z" fill="#231F20"/>
<path d="M48.0586 49.6657L49.1036 48.6647L53.1076 52.8117C54.2406 53.9887 55.6156 54.1097 56.8146 52.9547C58.0246 51.7887 57.9366 50.4247 56.8036 49.2477L52.7996 45.1007L53.8336 44.0997L57.8596 48.2687C59.5096 49.9737 59.6196 52.0087 57.6946 53.8677C55.7696 55.7267 53.7236 55.5397 52.0956 53.8457L48.0696 49.6657H48.0586Z" fill="#231F20"/>
<path d="M62.1943 49.4343L55.9573 42.2183L57.0353 41.2833L62.4473 47.5423L65.7253 44.7043L66.5503 45.6613L62.1943 49.4343Z" fill="#231F20"/>
<path d="M68.6289 44.0225L63.4809 37.5325L61.1599 39.3695L60.3789 38.3795L66.1319 33.8145L66.9129 34.8045L64.6029 36.6415L69.7509 43.1315L68.6289 44.0225Z" fill="#231F20"/>
<path d="M72.1155 38.2366C73.0505 38.4456 74.2605 38.3576 75.3385 37.5876C76.5925 36.6966 76.5815 35.7396 76.1855 35.1786C75.6025 34.3646 74.5575 34.7606 73.3805 35.2116C71.9065 35.7726 70.2015 36.4326 69.0685 34.8486C68.1555 33.5726 68.6285 31.8346 70.2455 30.6796C71.4445 29.8216 72.6655 29.5356 73.8425 29.7556L73.7765 31.0976C72.7315 30.8886 71.7195 31.1856 70.8835 31.7906C70.0255 32.4066 69.7395 33.2646 70.2015 33.9246C70.6965 34.6286 71.6975 34.2436 72.8305 33.8036C74.3375 33.2426 76.0975 32.5826 77.2745 34.2326C78.1325 35.4426 78.0995 37.1696 75.9985 38.6656C74.6125 39.6556 73.2375 39.8756 72.0605 39.6116L72.0825 38.2476L72.1155 38.2366Z" fill="#231F20"/>
<path d="M11.3297 212.753C8.50269 213.512 6.00569 211.917 5.30169 209.299C4.81769 207.495 5.38969 206.12 6.26969 205.119L7.20469 206.131C6.55569 206.824 6.23669 207.88 6.52269 208.98C7.01769 210.85 8.86569 211.895 10.9337 211.345C12.9907 210.795 14.0907 208.969 13.5957 207.099C13.3097 206.01 12.4957 205.251 11.5937 204.965L11.9017 203.623C13.1777 204.063 14.3437 204.954 14.8277 206.769C15.5317 209.398 14.1567 212.005 11.3187 212.764L11.3297 212.753Z" fill="#231F20"/>
<path d="M12.0562 195.01L7.87615 195.835L8.89915 201.005L13.0792 200.18L13.3542 201.577L4.00415 203.436L3.72915 202.028L7.65615 201.247L6.63315 196.066L2.70615 196.847L2.43115 195.45L11.7812 193.602L12.0562 195.01Z" fill="#231F20"/>
<path d="M10.5273 184.637L8.66826 185.66L9.28426 190.291L11.3413 190.797L11.5503 192.359L1.59526 189.851L1.36426 188.08L10.3183 183.075L10.5273 184.637ZM2.71726 188.817L7.97526 190.06L7.46926 186.243L2.71726 188.817Z" fill="#231F20"/>
<path d="M10.241 181.798L0.725967 182.535L0.615967 181.105L8.87697 180.467L8.54697 176.144L9.80097 176.045L10.241 181.798Z" fill="#231F20"/>
<path d="M9.74581 174.296L0.208809 174.67L0.153809 173.24L8.42581 172.91L8.24981 168.576L9.50381 168.532L9.73481 174.296H9.74581Z" fill="#231F20"/>
<path d="M9.537 166.806L0 166.63L0.121 160.228L1.375 160.25L1.276 165.222L4.059 165.277L4.147 160.404L5.401 160.426L5.313 165.299L8.283 165.354L8.382 160.382L9.636 160.404L9.515 166.806H9.537Z" fill="#231F20"/>
<path d="M10.2522 151.79L2.54121 156.487L9.84521 157.059L9.73522 158.489L0.220215 157.752L0.330215 156.278L7.86522 151.658L0.737215 151.097L0.847215 149.667L10.3622 150.404L10.2522 151.79Z" fill="#231F20"/>
<path d="M1.67187 142.286C1.92487 140.515 2.90387 139.459 4.08087 138.821L4.57587 140.064C3.77287 140.493 3.07987 141.362 2.92587 142.473C2.63987 144.442 3.92687 146.125 6.04987 146.444C8.16187 146.752 9.89987 145.498 10.1859 143.529C10.3399 142.484 9.95487 141.516 9.60287 140.999L7.90887 140.757L7.46887 143.782L6.22587 143.606L6.87487 139.162L10.3399 139.668C11.2089 140.724 11.6929 142.121 11.4619 143.716C11.0659 146.422 8.79987 148.325 5.85187 147.896C2.90387 147.467 1.28687 144.992 1.68287 142.286H1.67187Z" fill="#231F20"/>
<path d="M12.1881 137.908L2.84912 135.972L4.14712 129.702L5.37912 129.955L4.36712 134.828L7.09512 135.389L8.08512 130.615L9.31712 130.868L8.32712 135.642L11.2421 136.247L12.2541 131.374L13.4861 131.627L12.1881 137.897V137.908Z" fill="#231F20"/>
<path d="M23.9028 169.632C25.3548 246.423 87.3288 308.397 164.12 309.849V169.632H23.9028Z" fill="#FFEBDB"/>
<path d="M309.826 164.132C308.374 87.3411 246.4 25.367 169.609 23.915V164.132H309.826Z" fill="#FFEBDB"/>
<path opacity="0.5" d="M279.07 85.4819C280.94 85.4819 282.788 85.5809 284.614 85.7349C270.545 65.3629 251.328 48.8299 228.844 37.9949C214.819 52.9879 188.265 63.5369 169.62 64.5049V164.132H215.644C214.687 159.699 214.17 155.101 214.17 150.382C214.17 114.544 243.232 85.4819 279.07 85.4819Z" fill="#FF601A"/>
<path d="M169.62 309.849C246.411 308.397 308.385 246.423 309.837 169.632H169.62V309.849Z" fill="#FFEBDB"/>
<path d="M169.62 77.1769V164.132H212.938C211.42 130.659 195.283 100.266 169.62 77.1769Z" fill="#FF601A"/>
<path d="M23.9026 164.132H164.12V72.4577C146.454 58.0037 124.85 46.8057 100.749 40.0627C55.8246 63.5367 24.9146 110.177 23.9026 164.132Z" fill="#25C9BA"/>
<path d="M213.059 169.632H169.609V261.482C196.515 237.271 212.96 205.03 213.059 169.632Z" fill="#296EB4"/>
<path d="M164.12 169.632H23.9028C24.9698 226.029 58.6738 274.44 106.931 296.737C128.546 289.884 147.972 279.401 164.12 266.201V169.632Z" fill="#F9C80E"/>
<path d="M90.3318 129.503V89.1554H104.731C117.315 89.1554 125.664 97.7464 125.664 109.362C125.664 120.978 117.315 129.503 104.731 129.503H90.3318ZM96.3818 124.179H104.731C114.048 124.179 119.427 117.524 119.427 109.362C119.427 101.2 114.224 94.4794 104.731 94.4794H96.3818V124.179Z" fill="white"/>
<path d="M226.413 91.9385C226.413 90.0025 228.052 88.4295 229.922 88.4295C231.792 88.4295 233.431 90.0025 233.431 91.9385C233.431 93.8745 231.858 95.3815 229.922 95.3815C227.986 95.3815 226.413 93.8635 226.413 91.9385ZM227.26 129.504V100.288H232.705V129.504H227.26Z" fill="white"/>
<path d="M88.6377 228.163C88.6377 215.766 97.8337 207.296 109.329 207.296C117.249 207.296 122.21 211.102 125.356 215.821L120.219 218.538C118.107 215.15 114.114 212.675 109.329 212.675C101.167 212.675 94.8747 219.088 94.8747 228.163C94.8747 237.238 101.167 243.651 109.329 243.651C114.103 243.651 118.096 241.176 120.219 237.788L125.356 240.505C122.144 245.224 117.249 249.03 109.329 249.03C97.8337 249.03 88.6377 240.56 88.6377 228.163Z" fill="white"/>
<path d="M217.558 237.963C220.275 240.988 224.631 243.65 230.263 243.65C236.797 243.65 239.096 240.328 239.096 237.424C239.096 233.189 234.498 231.979 229.361 230.648C222.893 228.954 215.391 227.073 215.391 218.856C215.391 212.201 221.254 207.361 229.669 207.361C235.895 207.361 240.801 209.363 244.365 212.982L240.856 217.459C237.776 214.192 233.541 212.74 229.185 212.74C224.829 212.74 221.628 215.039 221.628 218.427C221.628 222.057 225.984 223.201 231 224.477C237.6 226.226 245.278 228.283 245.278 236.874C245.278 243.166 240.922 249.029 230.032 249.029C222.838 249.029 217.569 246.422 214.126 242.616L217.569 237.963H217.558Z" fill="white"/>
<g opacity="0.3">
<path d="M166.87 316.481C249.492 316.481 316.47 249.503 316.47 166.881C316.47 84.2595 249.492 17.2813 166.87 17.2813C84.2485 17.2813 17.2703 84.2595 17.2703 166.881C17.2703 249.503 84.2485 316.481 166.87 316.481Z" stroke="#231F20" stroke-width="1.1" stroke-miterlimit="10" stroke-dasharray="2.2 2.2"/>
</g>
<path d="M125.379 132.239L116.823 123.683L108.267 132.239L116.823 140.795L125.379 132.239Z" fill="#403F4C"/>
</g>
<defs>
<clipPath id="clip0_75_728">
<rect width="333.707" height="334.851" fill="white"/>
</clipPath>
</defs>
</svg>
