<svg width="319" height="60" viewBox="0 0 319 60" fill="none" xmlns="http://www.w3.org/2000/svg">
<rect x="1.19165" y="0.5" width="317.308" height="59" rx="4.5" stroke="#5781F2"/>
<path d="M31.5688 30.006C31.5688 26.208 34.4488 23.796 37.9588 23.796C40.4428 23.796 42.0088 25.002 42.9268 26.424L40.8028 27.576C40.2448 26.73 39.2188 26.064 37.9588 26.064C35.7808 26.064 34.1968 27.738 34.1968 30.006C34.1968 32.274 35.7808 33.948 37.9588 33.948C39.0568 33.948 40.0288 33.498 40.5508 33.03V31.572H37.3468V29.376H43.0708V33.966C41.8468 35.334 40.1368 36.234 37.9588 36.234C34.4488 36.234 31.5688 33.786 31.5688 30.006ZM44.4879 31.644C44.4879 29.124 46.3419 27.09 48.9879 27.09C51.5799 27.09 53.3439 29.034 53.3439 31.878V32.382H46.8819C47.0259 33.48 47.9079 34.398 49.3839 34.398C50.1939 34.398 51.1479 34.074 51.7059 33.534L52.7139 35.01C51.8319 35.82 50.4819 36.216 49.1319 36.216C46.4859 36.216 44.4879 34.434 44.4879 31.644ZM48.9879 28.908C47.5659 28.908 46.9539 29.97 46.8459 30.834H51.1299C51.0759 30.006 50.4999 28.908 48.9879 28.908ZM63.1491 36H60.8631V30.744C60.8631 29.538 60.2331 29.124 59.2611 29.124C58.3611 29.124 57.6591 29.628 57.2811 30.15V36H54.9951V27.306H57.2811V28.44C57.8391 27.774 58.9011 27.09 60.3231 27.09C62.2311 27.09 63.1491 28.17 63.1491 29.862V36ZM64.8609 31.644C64.8609 29.124 66.7149 27.09 69.3609 27.09C71.9529 27.09 73.7169 29.034 73.7169 31.878V32.382H67.2549C67.3989 33.48 68.2809 34.398 69.7569 34.398C70.5669 34.398 71.5209 34.074 72.0789 33.534L73.0869 35.01C72.2049 35.82 70.8549 36.216 69.5049 36.216C66.8589 36.216 64.8609 34.434 64.8609 31.644ZM69.3609 28.908C67.9389 28.908 67.3269 29.97 67.2189 30.834H71.5029C71.4489 30.006 70.8729 28.908 69.3609 28.908ZM77.6541 36H75.3681V27.306H77.6541V28.494C78.2661 27.72 79.3461 27.108 80.4261 27.108V29.34C80.2641 29.304 80.0481 29.286 79.7961 29.286C79.0401 29.286 78.0321 29.7 77.6541 30.258V36ZM89.3604 36H87.0744V35.1C86.4804 35.802 85.4544 36.216 84.3204 36.216C82.9344 36.216 81.2964 35.28 81.2964 33.336C81.2964 31.302 82.9344 30.564 84.3204 30.564C85.4724 30.564 86.4984 30.924 87.0744 31.626V30.42C87.0744 29.538 86.3184 28.962 85.1664 28.962C84.2304 28.962 83.3664 29.304 82.6284 29.988L81.7644 28.458C82.8264 27.522 84.1944 27.09 85.5624 27.09C87.5424 27.09 89.3604 27.882 89.3604 30.384V36ZM87.0744 33.912V32.832C86.6964 32.328 85.9764 32.076 85.2384 32.076C84.3384 32.076 83.6004 32.562 83.6004 33.39C83.6004 34.2 84.3384 34.668 85.2384 34.668C85.9764 34.668 86.6964 34.416 87.0744 33.912ZM94.5439 36.216C92.9419 36.216 92.0779 35.388 92.0779 33.84V29.304H90.6379V27.306H92.0779V24.93H94.3819V27.306H96.1459V29.304H94.3819V33.228C94.3819 33.768 94.6699 34.182 95.1739 34.182C95.5159 34.182 95.8399 34.056 95.9659 33.93L96.4519 35.658C96.1099 35.964 95.4979 36.216 94.5439 36.216ZM97.1519 31.644C97.1519 29.124 99.0059 27.09 101.652 27.09C104.244 27.09 106.008 29.034 106.008 31.878V32.382H99.5459C99.6899 33.48 100.572 34.398 102.048 34.398C102.858 34.398 103.812 34.074 104.37 33.534L105.378 35.01C104.496 35.82 103.146 36.216 101.796 36.216C99.1499 36.216 97.1519 34.434 97.1519 31.644ZM101.652 28.908C100.23 28.908 99.6179 29.97 99.5099 30.834H103.794C103.74 30.006 103.164 28.908 101.652 28.908ZM122.039 36H119.105L116.747 31.698H114.875V36H112.319V23.994H117.935C120.437 23.994 121.967 25.632 121.967 27.864C121.967 29.988 120.635 31.122 119.339 31.428L122.039 36ZM119.357 27.846C119.357 26.838 118.583 26.19 117.557 26.19H114.875V29.502H117.557C118.583 29.502 119.357 28.854 119.357 27.846ZM122.728 31.644C122.728 29.124 124.582 27.09 127.228 27.09C129.82 27.09 131.584 29.034 131.584 31.878V32.382H125.122C125.266 33.48 126.148 34.398 127.624 34.398C128.434 34.398 129.388 34.074 129.946 33.534L130.954 35.01C130.072 35.82 128.722 36.216 127.372 36.216C124.726 36.216 122.728 34.434 122.728 31.644ZM127.228 28.908C125.806 28.908 125.194 29.97 125.086 30.834H129.37C129.316 30.006 128.74 28.908 127.228 28.908ZM132.677 31.644C132.677 28.98 134.603 27.09 137.285 27.09C139.067 27.09 140.147 27.864 140.723 28.674L139.229 30.06C138.815 29.466 138.185 29.124 137.393 29.124C136.007 29.124 135.035 30.132 135.035 31.644C135.035 33.156 136.007 34.182 137.393 34.182C138.185 34.182 138.815 33.822 139.229 33.246L140.723 34.632C140.147 35.442 139.067 36.216 137.285 36.216C134.603 36.216 132.677 34.326 132.677 31.644ZM146.25 36.216C143.388 36.216 141.66 34.128 141.66 31.644C141.66 29.178 143.388 27.09 146.25 27.09C149.13 27.09 150.858 29.178 150.858 31.644C150.858 34.128 149.13 36.216 146.25 36.216ZM146.25 34.182C147.672 34.182 148.482 33.012 148.482 31.644C148.482 30.294 147.672 29.124 146.25 29.124C144.828 29.124 144.036 30.294 144.036 31.644C144.036 33.012 144.828 34.182 146.25 34.182ZM165.64 36H163.336V30.51C163.336 29.7 162.976 29.124 162.04 29.124C161.23 29.124 160.564 29.664 160.24 30.132V36H157.936V30.51C157.936 29.7 157.576 29.124 156.64 29.124C155.848 29.124 155.182 29.664 154.84 30.15V36H152.554V27.306H154.84V28.44C155.2 27.918 156.352 27.09 157.684 27.09C158.962 27.09 159.772 27.684 160.096 28.674C160.6 27.882 161.752 27.09 163.084 27.09C164.686 27.09 165.64 27.936 165.64 29.718V36ZM180.968 36H178.664V30.51C178.664 29.7 178.304 29.124 177.368 29.124C176.558 29.124 175.892 29.664 175.568 30.132V36H173.264V30.51C173.264 29.7 172.904 29.124 171.968 29.124C171.176 29.124 170.51 29.664 170.168 30.15V36H167.882V27.306H170.168V28.44C170.528 27.918 171.68 27.09 173.012 27.09C174.29 27.09 175.1 27.684 175.424 28.674C175.928 27.882 177.08 27.09 178.412 27.09C180.014 27.09 180.968 27.936 180.968 29.718V36ZM182.652 31.644C182.652 29.124 184.506 27.09 187.152 27.09C189.744 27.09 191.508 29.034 191.508 31.878V32.382H185.046C185.19 33.48 186.072 34.398 187.548 34.398C188.358 34.398 189.312 34.074 189.87 33.534L190.878 35.01C189.996 35.82 188.646 36.216 187.296 36.216C184.65 36.216 182.652 34.434 182.652 31.644ZM187.152 28.908C185.73 28.908 185.118 29.97 185.01 30.834H189.294C189.24 30.006 188.664 28.908 187.152 28.908ZM201.313 36H199.027V30.744C199.027 29.538 198.397 29.124 197.425 29.124C196.525 29.124 195.823 29.628 195.445 30.15V36H193.159V27.306H195.445V28.44C196.003 27.774 197.065 27.09 198.487 27.09C200.395 27.09 201.313 28.17 201.313 29.862V36ZM211.863 36H209.559V34.902C208.875 35.748 207.921 36.216 206.877 36.216C204.681 36.216 203.025 34.56 203.025 31.662C203.025 28.818 204.663 27.09 206.877 27.09C207.903 27.09 208.875 27.54 209.559 28.422V23.994H211.863V36ZM209.559 33.192V30.114C209.163 29.538 208.353 29.124 207.579 29.124C206.283 29.124 205.383 30.15 205.383 31.662C205.383 33.156 206.283 34.182 207.579 34.182C208.353 34.182 209.163 33.768 209.559 33.192ZM213.572 31.644C213.572 29.124 215.426 27.09 218.072 27.09C220.664 27.09 222.428 29.034 222.428 31.878V32.382H215.966C216.11 33.48 216.992 34.398 218.468 34.398C219.278 34.398 220.232 34.074 220.79 33.534L221.798 35.01C220.916 35.82 219.566 36.216 218.216 36.216C215.57 36.216 213.572 34.434 213.572 31.644ZM218.072 28.908C216.65 28.908 216.038 29.97 215.93 30.834H220.214C220.16 30.006 219.584 28.908 218.072 28.908ZM232.359 36H230.055V34.902C229.371 35.748 228.417 36.216 227.373 36.216C225.177 36.216 223.521 34.56 223.521 31.662C223.521 28.818 225.159 27.09 227.373 27.09C228.399 27.09 229.371 27.54 230.055 28.422V23.994H232.359V36ZM230.055 33.192V30.114C229.659 29.538 228.849 29.124 228.075 29.124C226.779 29.124 225.879 30.15 225.879 31.662C225.879 33.156 226.779 34.182 228.075 34.182C228.849 34.182 229.659 33.768 230.055 33.192ZM247.781 36H239.285V23.994H247.781V26.19H241.841V28.8H247.655V30.996H241.841V33.786H247.781V36ZM262.812 36H260.508V30.51C260.508 29.7 260.148 29.124 259.212 29.124C258.402 29.124 257.736 29.664 257.412 30.132V36H255.108V30.51C255.108 29.7 254.748 29.124 253.812 29.124C253.02 29.124 252.354 29.664 252.012 30.15V36H249.726V27.306H252.012V28.44C252.372 27.918 253.524 27.09 254.856 27.09C256.134 27.09 256.944 27.684 257.268 28.674C257.772 27.882 258.924 27.09 260.256 27.09C261.858 27.09 262.812 27.936 262.812 29.718V36ZM272.56 36H270.274V35.1C269.68 35.802 268.654 36.216 267.52 36.216C266.134 36.216 264.496 35.28 264.496 33.336C264.496 31.302 266.134 30.564 267.52 30.564C268.672 30.564 269.698 30.924 270.274 31.626V30.42C270.274 29.538 269.518 28.962 268.366 28.962C267.43 28.962 266.566 29.304 265.828 29.988L264.964 28.458C266.026 27.522 267.394 27.09 268.762 27.09C270.742 27.09 272.56 27.882 272.56 30.384V36ZM270.274 33.912V32.832C269.896 32.328 269.176 32.076 268.438 32.076C267.538 32.076 266.8 32.562 266.8 33.39C266.8 34.2 267.538 34.668 268.438 34.668C269.176 34.668 269.896 34.416 270.274 33.912ZM275.961 26.028C275.223 26.028 274.593 25.416 274.593 24.66C274.593 23.904 275.223 23.292 275.961 23.292C276.717 23.292 277.329 23.904 277.329 24.66C277.329 25.416 276.717 26.028 275.961 26.028ZM277.113 36H274.827V27.306H277.113V36ZM281.666 36H279.38V23.994H281.666V36ZM286.219 36H283.933V23.994H286.219V36Z" fill="#5781F2"/>
</svg>
