<svg width="859" height="32" viewBox="0 0 859 32" fill="none" xmlns="http://www.w3.org/2000/svg">
<rect x="762.096" y="1.24803" width="95.68" height="29.952" rx="3.744" stroke="#25C9BA" stroke-width="0.832"/>
<path d="M785.672 12.0709L787.827 18.3789H787.914L790.07 12.0709H791.333L788.546 19.816H787.196L784.409 12.0709H785.672ZM792.361 19.816V14.0072H793.492V19.816H792.361ZM792.932 13.1109C792.735 13.1109 792.566 13.0453 792.425 12.9142C792.286 12.7806 792.217 12.6218 792.217 12.4377C792.217 12.2511 792.286 12.0923 792.425 11.9612C792.566 11.8276 792.735 11.7608 792.932 11.7608C793.129 11.7608 793.296 11.8276 793.435 11.9612C793.576 12.0923 793.647 12.2511 793.647 12.4377C793.647 12.6218 793.576 12.7806 793.435 12.9142C793.296 13.0453 793.129 13.1109 792.932 13.1109ZM797.516 19.9333C796.944 19.9333 796.451 19.811 796.038 19.5664C795.627 19.3194 795.309 18.9727 795.085 18.5264C794.863 18.0777 794.752 17.552 794.752 16.9494C794.752 16.3544 794.863 15.83 795.085 15.3762C795.309 14.9224 795.622 14.5681 796.023 14.3135C796.426 14.0589 796.897 13.9315 797.437 13.9315C797.765 13.9315 798.082 13.9857 798.39 14.0941C798.698 14.2026 798.974 14.3727 799.218 14.6047C799.463 14.8366 799.656 15.1379 799.797 15.5085C799.938 15.8766 800.009 16.3242 800.009 16.8511V17.252H795.391V16.4048H798.901C798.901 16.1073 798.84 15.8439 798.719 15.6144C798.598 15.3825 798.428 15.1997 798.208 15.0661C797.992 14.9325 797.737 14.8656 797.445 14.8656C797.127 14.8656 796.85 14.9438 796.613 15.1001C796.378 15.2539 796.197 15.4556 796.068 15.7052C795.942 15.9523 795.879 16.2208 795.879 16.5107V17.1725C795.879 17.5608 795.947 17.8911 796.083 18.1634C796.222 18.4357 796.415 18.6437 796.662 18.7874C796.909 18.9286 797.197 18.9992 797.528 18.9992C797.742 18.9992 797.937 18.9689 798.114 18.9084C798.29 18.8454 798.443 18.7521 798.571 18.6285C798.7 18.505 798.798 18.3525 798.866 18.1709L799.937 18.3638C799.851 18.679 799.697 18.955 799.475 19.192C799.256 19.4265 798.98 19.6093 798.647 19.7404C798.317 19.869 797.94 19.9333 797.516 19.9333ZM802.512 19.816L800.803 14.0072H801.971L803.11 18.2731H803.166L804.309 14.0072H805.477L806.612 18.2541H806.668L807.799 14.0072H808.968L807.262 19.816H806.109L804.929 15.622H804.842L803.662 19.816H802.512ZM812.95 19.816V12.0709H815.711C816.313 12.0709 816.812 12.1805 817.208 12.3999C817.604 12.6192 817.9 12.9193 818.097 13.3C818.294 13.6781 818.392 14.1042 818.392 14.5782C818.392 15.0547 818.292 15.4833 818.093 15.864C817.897 16.2422 817.599 16.5422 817.201 16.7641C816.805 16.9835 816.307 17.0931 815.707 17.0931H813.808V16.1023H815.601C815.982 16.1023 816.291 16.0367 816.528 15.9056C816.765 15.772 816.939 15.5905 817.049 15.3611C817.16 15.1316 817.216 14.8707 817.216 14.5782C817.216 14.2858 817.16 14.0261 817.049 13.7992C816.939 13.5723 816.763 13.3945 816.524 13.2659C816.287 13.1373 815.974 13.0731 815.586 13.0731H814.119V19.816H812.95ZM819.671 19.816V14.0072H820.764V14.9299H820.825C820.931 14.6173 821.117 14.3715 821.384 14.1925C821.654 14.0109 821.959 13.9202 822.3 13.9202C822.37 13.9202 822.453 13.9227 822.549 13.9277C822.647 13.9328 822.724 13.9391 822.78 13.9467V15.0283C822.734 15.0157 822.654 15.0018 822.538 14.9867C822.422 14.969 822.306 14.9602 822.19 14.9602C821.923 14.9602 821.684 15.0169 821.475 15.1304C821.268 15.2413 821.105 15.3964 820.983 15.5955C820.862 15.7922 820.802 16.0166 820.802 16.2687V19.816H819.671ZM825.997 19.9333C825.453 19.9333 824.977 19.8085 824.571 19.5589C824.166 19.3093 823.85 18.9601 823.626 18.5113C823.402 18.0625 823.289 17.5381 823.289 16.9381C823.289 16.3355 823.402 15.8086 823.626 15.3573C823.85 14.906 824.166 14.5555 824.571 14.3059C824.977 14.0563 825.453 13.9315 825.997 13.9315C826.542 13.9315 827.017 14.0563 827.423 14.3059C827.829 14.5555 828.144 14.906 828.368 15.3573C828.593 15.8086 828.705 16.3355 828.705 16.9381C828.705 17.5381 828.593 18.0625 828.368 18.5113C828.144 18.9601 827.829 19.3093 827.423 19.5589C827.017 19.8085 826.542 19.9333 825.997 19.9333ZM826.001 18.984C826.354 18.984 826.646 18.8908 826.878 18.7042C827.11 18.5176 827.282 18.2693 827.393 17.9592C827.506 17.6491 827.563 17.3074 827.563 16.9343C827.563 16.5637 827.506 16.2233 827.393 15.9132C827.282 15.6006 827.11 15.3497 826.878 15.1606C826.646 14.9715 826.354 14.877 826.001 14.877C825.646 14.877 825.351 14.9715 825.116 15.1606C824.884 15.3497 824.711 15.6006 824.598 15.9132C824.487 16.2233 824.432 16.5637 824.432 16.9343C824.432 17.3074 824.487 17.6491 824.598 17.9592C824.711 18.2693 824.884 18.5176 825.116 18.7042C825.351 18.8908 825.646 18.984 826.001 18.984ZM832.732 14.0072V14.9148H829.449V14.0072H832.732ZM830.349 19.816V13.334C830.349 12.9709 830.429 12.6697 830.587 12.4301C830.746 12.1881 830.957 12.0078 831.219 11.8893C831.481 11.7683 831.766 11.7078 832.074 11.7078C832.301 11.7078 832.495 11.7267 832.656 11.7645C832.817 11.7998 832.937 11.8326 833.015 11.8629L832.751 12.7781C832.698 12.7629 832.63 12.7453 832.546 12.7251C832.463 12.7024 832.362 12.6911 832.244 12.6911C831.969 12.6911 831.772 12.7592 831.654 12.8953C831.538 13.0315 831.48 13.2281 831.48 13.4853V19.816H830.349ZM833.898 19.816V14.0072H835.029V19.816H833.898ZM834.469 13.1109C834.273 13.1109 834.104 13.0453 833.963 12.9142C833.824 12.7806 833.755 12.6218 833.755 12.4377C833.755 12.2511 833.824 12.0923 833.963 11.9612C834.104 11.8276 834.273 11.7608 834.469 11.7608C834.666 11.7608 834.834 11.8276 834.972 11.9612C835.114 12.0923 835.184 12.2511 835.184 12.4377C835.184 12.6218 835.114 12.7806 834.972 12.9142C834.834 13.0453 834.666 13.1109 834.469 13.1109ZM837.681 12.0709V19.816H836.55V12.0709H837.681ZM841.706 19.9333C841.134 19.9333 840.641 19.811 840.227 19.5664C839.816 19.3194 839.499 18.9727 839.274 18.5264C839.052 18.0777 838.941 17.552 838.941 16.9494C838.941 16.3544 839.052 15.83 839.274 15.3762C839.499 14.9224 839.811 14.5681 840.212 14.3135C840.616 14.0589 841.087 13.9315 841.627 13.9315C841.954 13.9315 842.272 13.9857 842.58 14.0941C842.887 14.2026 843.163 14.3727 843.408 14.6047C843.652 14.8366 843.845 15.1379 843.986 15.5085C844.128 15.8766 844.198 16.3242 844.198 16.8511V17.252H839.581V16.4048H843.09C843.09 16.1073 843.03 15.8439 842.909 15.6144C842.788 15.3825 842.617 15.1997 842.398 15.0661C842.181 14.9325 841.927 14.8656 841.634 14.8656C841.316 14.8656 841.039 14.9438 840.802 15.1001C840.568 15.2539 840.386 15.4556 840.258 15.7052C840.131 15.9523 840.068 16.2208 840.068 16.5107V17.1725C840.068 17.5608 840.137 17.8911 840.273 18.1634C840.411 18.4357 840.604 18.6437 840.851 18.7874C841.098 18.9286 841.387 18.9992 841.717 18.9992C841.932 18.9992 842.127 18.9689 842.303 18.9084C842.48 18.8454 842.633 18.7521 842.761 18.6285C842.89 18.505 842.988 18.3525 843.056 18.1709L844.126 18.3638C844.041 18.679 843.887 18.955 843.665 19.192C843.446 19.4265 843.17 19.6093 842.837 19.7404C842.506 19.869 842.13 19.9333 841.706 19.9333Z" fill="#25C9BA"/>
<path d="M774.022 12.6198L777.002 15.6L770 15.6L770 16.9878L777.002 16.9878L774.022 19.968L774.992 20.9398L779.638 16.2939L774.992 11.648L774.022 12.6198Z" fill="#25C9BA"/>
<rect x="158.896" y="1.24803" width="96.512" height="29.952" rx="3.744" stroke="#25C9BA" stroke-width="0.832"/>
<g clip-path="url(#clip0_95_159)">
<path d="M175.952 14.0059L172.972 16.9862V9.98404H171.584V16.9862L168.604 14.0059L167.632 14.976L172.278 19.6219L176.924 14.976L175.952 14.0059Z" fill="#25C9BA"/>
<path d="M176.09 21.0779H168.464V22.4641H176.09V21.0779Z" fill="#25C9BA"/>
</g>
<path d="M185.966 20.648H183.459V12.9029H186.046C186.804 12.9029 187.456 13.0579 188.001 13.368C188.545 13.6756 188.963 14.1181 189.252 14.6955C189.545 15.2703 189.691 15.9598 189.691 16.7641C189.691 17.5709 189.544 18.2642 189.249 18.8441C188.956 19.424 188.533 19.8702 187.978 20.1829C187.423 20.493 186.753 20.648 185.966 20.648ZM184.627 19.6269H185.902C186.492 19.6269 186.982 19.516 187.373 19.2941C187.764 19.0698 188.056 18.7458 188.25 18.3222C188.444 17.8961 188.542 17.3768 188.542 16.7641C188.542 16.1565 188.444 15.6409 188.25 15.2173C188.059 14.7938 187.773 14.4723 187.392 14.253C187.011 14.0336 186.538 13.924 185.974 13.924H184.627V19.6269ZM193.5 20.7653C192.956 20.7653 192.481 20.6405 192.075 20.3909C191.669 20.1413 191.354 19.7921 191.129 19.3433C190.905 18.8945 190.793 18.3701 190.793 17.7701C190.793 17.1675 190.905 16.6406 191.129 16.1893C191.354 15.738 191.669 15.3875 192.075 15.1379C192.481 14.8883 192.956 14.7635 193.5 14.7635C194.045 14.7635 194.52 14.8883 194.926 15.1379C195.332 15.3875 195.647 15.738 195.872 16.1893C196.096 16.6406 196.208 17.1675 196.208 17.7701C196.208 18.3701 196.096 18.8945 195.872 19.3433C195.647 19.7921 195.332 20.1413 194.926 20.3909C194.52 20.6405 194.045 20.7653 193.5 20.7653ZM193.504 19.816C193.857 19.816 194.15 19.7228 194.382 19.5362C194.614 19.3496 194.785 19.1013 194.896 18.7912C195.009 18.4811 195.066 18.1394 195.066 17.7663C195.066 17.3957 195.009 17.0553 194.896 16.7452C194.785 16.4326 194.614 16.1817 194.382 15.9926C194.15 15.8035 193.857 15.709 193.504 15.709C193.149 15.709 192.854 15.8035 192.619 15.9926C192.387 16.1817 192.215 16.4326 192.101 16.7452C191.99 17.0553 191.935 17.3957 191.935 17.7663C191.935 18.1394 191.99 18.4811 192.101 18.7912C192.215 19.1013 192.387 19.3496 192.619 19.5362C192.854 19.7228 193.149 19.816 193.504 19.816ZM198.553 20.648L196.844 14.8392H198.012L199.15 19.1051H199.207L200.349 14.8392H201.518L202.652 19.0861H202.709L203.84 14.8392H205.008L203.303 20.648H202.149L200.97 16.454H200.883L199.703 20.648H198.553ZM207.212 17.199V20.648H206.082V14.8392H207.167V15.7846H207.239C207.372 15.477 207.582 15.23 207.867 15.0434C208.154 14.8568 208.516 14.7635 208.952 14.7635C209.348 14.7635 209.694 14.8467 209.992 15.0131C210.289 15.177 210.52 15.4216 210.684 15.7468C210.848 16.072 210.93 16.4742 210.93 16.9532V20.648H209.799V17.0893C209.799 16.6683 209.689 16.3393 209.47 16.1023C209.251 15.8628 208.949 15.743 208.566 15.743C208.304 15.743 208.071 15.7997 207.867 15.9132C207.665 16.0267 207.505 16.1931 207.386 16.4124C207.27 16.6292 207.212 16.8914 207.212 17.199ZM213.577 12.9029V20.648H212.446V12.9029H213.577ZM217.545 20.7653C217.001 20.7653 216.525 20.6405 216.119 20.3909C215.714 20.1413 215.398 19.7921 215.174 19.3433C214.95 18.8945 214.837 18.3701 214.837 17.7701C214.837 17.1675 214.95 16.6406 215.174 16.1893C215.398 15.738 215.714 15.3875 216.119 15.1379C216.525 14.8883 217.001 14.7635 217.545 14.7635C218.09 14.7635 218.565 14.8883 218.971 15.1379C219.377 15.3875 219.692 15.738 219.916 16.1893C220.141 16.6406 220.253 17.1675 220.253 17.7701C220.253 18.3701 220.141 18.8945 219.916 19.3433C219.692 19.7921 219.377 20.1413 218.971 20.3909C218.565 20.6405 218.09 20.7653 217.545 20.7653ZM217.549 19.816C217.902 19.816 218.194 19.7228 218.426 19.5362C218.658 19.3496 218.83 19.1013 218.941 18.7912C219.054 18.4811 219.111 18.1394 219.111 17.7663C219.111 17.3957 219.054 17.0553 218.941 16.7452C218.83 16.4326 218.658 16.1817 218.426 15.9926C218.194 15.8035 217.902 15.709 217.549 15.709C217.194 15.709 216.899 15.8035 216.664 15.9926C216.432 16.1817 216.259 16.4326 216.146 16.7452C216.035 17.0553 215.98 17.3957 215.98 17.7663C215.98 18.1394 216.035 18.4811 216.146 18.7912C216.259 19.1013 216.432 19.3496 216.664 19.5362C216.899 19.7228 217.194 19.816 217.549 19.816ZM223.206 20.7766C222.838 20.7766 222.505 20.7085 222.207 20.5724C221.91 20.4337 221.674 20.2333 221.5 19.9711C221.329 19.7089 221.243 19.3874 221.243 19.0067C221.243 18.679 221.306 18.4092 221.432 18.1974C221.558 17.9856 221.728 17.818 221.943 17.6944C222.157 17.5709 222.396 17.4776 222.661 17.4146C222.926 17.3516 223.196 17.3037 223.47 17.2709C223.818 17.2305 224.101 17.1978 224.318 17.1725C224.534 17.1448 224.692 17.1007 224.79 17.0402C224.889 16.9797 224.938 16.8813 224.938 16.7452V16.7187C224.938 16.3885 224.844 16.1325 224.658 15.951C224.474 15.7695 224.199 15.6787 223.833 15.6787C223.453 15.6787 223.153 15.7632 222.933 15.9321C222.717 16.0985 222.567 16.2838 222.483 16.488L221.421 16.246C221.547 15.893 221.731 15.6081 221.973 15.3913C222.217 15.172 222.498 15.0131 222.816 14.9148C223.134 14.814 223.468 14.7635 223.818 14.7635C224.05 14.7635 224.296 14.7913 224.556 14.8467C224.818 14.8997 225.063 14.998 225.289 15.1417C225.519 15.2854 225.707 15.4909 225.853 15.7581C225.999 16.0229 226.072 16.367 226.072 16.7906V20.648H224.968V19.8539H224.923C224.849 20.0001 224.74 20.1438 224.594 20.285C224.447 20.4262 224.26 20.5434 224.03 20.6367C223.801 20.73 223.526 20.7766 223.206 20.7766ZM223.451 19.869C223.764 19.869 224.031 19.8072 224.253 19.6837C224.478 19.5601 224.648 19.3988 224.764 19.1996C224.882 18.9979 224.942 18.7823 224.942 18.5529V17.8041C224.901 17.8445 224.823 17.8823 224.707 17.9176C224.594 17.9503 224.464 17.9793 224.318 18.0045C224.171 18.0272 224.029 18.0487 223.89 18.0688C223.751 18.0865 223.636 18.1016 223.542 18.1142C223.323 18.142 223.122 18.1886 222.941 18.2541C222.762 18.3197 222.618 18.4142 222.51 18.5378C222.404 18.6588 222.351 18.8202 222.351 19.0219C222.351 19.3017 222.454 19.5135 222.661 19.6572C222.868 19.7984 223.131 19.869 223.451 19.869ZM229.753 20.7615C229.284 20.7615 228.865 20.6417 228.497 20.4022C228.132 20.1602 227.844 19.816 227.635 19.3698C227.428 18.921 227.325 18.3827 227.325 17.7549C227.325 17.1272 227.43 16.5901 227.639 16.1439C227.851 15.6976 228.141 15.356 228.509 15.119C228.877 14.882 229.294 14.7635 229.76 14.7635C230.121 14.7635 230.411 14.824 230.63 14.9451C230.852 15.0636 231.024 15.2022 231.145 15.3611C231.268 15.5199 231.364 15.6598 231.432 15.7808H231.5V12.9029H232.631V20.648H231.527V19.7442H231.432C231.364 19.8677 231.266 20.0089 231.137 20.1677C231.011 20.3266 230.837 20.4653 230.615 20.5837C230.393 20.7022 230.106 20.7615 229.753 20.7615ZM230.003 19.7971C230.328 19.7971 230.603 19.7114 230.827 19.54C231.054 19.366 231.225 19.1252 231.341 18.8176C231.46 18.5101 231.519 18.152 231.519 17.7436C231.519 17.3402 231.461 16.9872 231.345 16.6847C231.229 16.3821 231.059 16.1464 230.835 15.9775C230.61 15.8086 230.333 15.7241 230.003 15.7241C229.662 15.7241 229.379 15.8124 229.152 15.9888C228.925 16.1653 228.753 16.4061 228.637 16.7112C228.524 17.0162 228.467 17.3604 228.467 17.7436C228.467 18.1319 228.525 18.4811 228.641 18.7912C228.757 19.1013 228.928 19.3471 229.155 19.5286C229.385 19.7076 229.667 19.7971 230.003 19.7971Z" fill="#25C9BA"/>
<path fill-rule="evenodd" clip-rule="evenodd" d="M238.449 15.9143C238.579 15.7726 238.79 15.7726 238.92 15.9143L241.112 18.304C241.242 18.4458 241.452 18.4458 241.582 18.304L243.774 15.9143C243.904 15.7726 244.115 15.7726 244.245 15.9143C244.375 16.056 244.375 16.2858 244.245 16.4275L242.053 18.8172C241.663 19.2423 241.031 19.2423 240.641 18.8172L238.449 16.4275C238.319 16.2858 238.319 16.056 238.449 15.9143Z" fill="#25C9BA"/>
<rect x="0.815841" y="1.24803" width="153.088" height="29.952" rx="3.744" stroke="#25C9BA" stroke-width="0.832"/>
<path d="M21.873 20.648H20.6326L23.4198 12.9029H24.7699L27.5571 20.648H26.3167L24.127 14.3097H24.0665L21.873 20.648ZM22.081 17.615H26.1049V18.5983H22.081V17.615ZM32.8961 16.2573L31.8712 16.4389C31.8283 16.3078 31.7603 16.183 31.667 16.0645C31.5762 15.946 31.4527 15.8489 31.2964 15.7733C31.1401 15.6976 30.9447 15.6598 30.7102 15.6598C30.39 15.6598 30.1227 15.7317 29.9084 15.8754C29.6941 16.0166 29.587 16.1994 29.587 16.4237C29.587 16.6179 29.6588 16.7742 29.8026 16.8927C29.9463 17.0112 30.1782 17.1083 30.4984 17.1839L31.4212 17.3957C31.9557 17.5192 32.354 17.7096 32.6162 17.9667C32.8784 18.2239 33.0095 18.558 33.0095 18.9689C33.0095 19.3168 32.9087 19.6269 32.707 19.8992C32.5078 20.169 32.2292 20.3808 31.8712 20.5346C31.5157 20.6884 31.1035 20.7653 30.6346 20.7653C29.9841 20.7653 29.4534 20.6266 29.0424 20.3493C28.6314 20.0694 28.3793 19.6723 28.286 19.158L29.379 18.9916C29.4471 19.2765 29.587 19.4921 29.7988 19.6383C30.0106 19.782 30.2866 19.8539 30.627 19.8539C30.9976 19.8539 31.2938 19.777 31.5157 19.6232C31.7376 19.4669 31.8485 19.2765 31.8485 19.0521C31.8485 18.8706 31.7804 18.7181 31.6443 18.5945C31.5107 18.471 31.3052 18.3777 31.0279 18.3147L30.0446 18.0991C29.5025 17.9756 29.1017 17.7789 28.842 17.5091C28.5848 17.2394 28.4562 16.8977 28.4562 16.4843C28.4562 16.1414 28.552 15.8413 28.7436 15.5842C28.9353 15.327 29.2 15.1266 29.5378 14.9829C29.8757 14.8366 30.2627 14.7635 30.6988 14.7635C31.3266 14.7635 31.8208 14.8997 32.1813 15.172C32.5418 15.4417 32.7801 15.8035 32.8961 16.2573ZM38.6057 16.2573L37.5808 16.4389C37.5379 16.3078 37.4699 16.183 37.3766 16.0645C37.2858 15.946 37.1623 15.8489 37.006 15.7733C36.8497 15.6976 36.6543 15.6598 36.4198 15.6598C36.0996 15.6598 35.8323 15.7317 35.618 15.8754C35.4037 16.0166 35.2966 16.1994 35.2966 16.4237C35.2966 16.6179 35.3684 16.7742 35.5121 16.8927C35.6559 17.0112 35.8878 17.1083 36.208 17.1839L37.1308 17.3957C37.6653 17.5192 38.0636 17.7096 38.3258 17.9667C38.588 18.2239 38.7191 18.558 38.7191 18.9689C38.7191 19.3168 38.6183 19.6269 38.4166 19.8992C38.2174 20.169 37.9388 20.3808 37.5808 20.5346C37.2253 20.6884 36.8131 20.7653 36.3441 20.7653C35.6937 20.7653 35.163 20.6266 34.752 20.3493C34.341 20.0694 34.0889 19.6723 33.9956 19.158L35.0886 18.9916C35.1567 19.2765 35.2966 19.4921 35.5084 19.6383C35.7201 19.782 35.9962 19.8539 36.3366 19.8539C36.7072 19.8539 37.0034 19.777 37.2253 19.6232C37.4472 19.4669 37.5581 19.2765 37.5581 19.0521C37.5581 18.8706 37.49 18.7181 37.3539 18.5945C37.2203 18.471 37.0148 18.3777 36.7375 18.3147L35.7542 18.0991C35.2121 17.9756 34.8113 17.7789 34.5516 17.5091C34.2944 17.2394 34.1658 16.8977 34.1658 16.4843C34.1658 16.1414 34.2616 15.8413 34.4532 15.5842C34.6449 15.327 34.9096 15.1266 35.2474 14.9829C35.5853 14.8366 35.9723 14.7635 36.4084 14.7635C37.0362 14.7635 37.5304 14.8997 37.8909 15.172C38.2514 15.4417 38.4897 15.8035 38.6057 16.2573ZM39.9624 20.648V14.8392H41.0932V20.648H39.9624ZM40.5335 13.9429C40.3368 13.9429 40.1679 13.8773 40.0267 13.7462C39.888 13.6126 39.8187 13.4538 39.8187 13.2697C39.8187 13.0831 39.888 12.9243 40.0267 12.7932C40.1679 12.6596 40.3368 12.5928 40.5335 12.5928C40.7301 12.5928 40.8978 12.6596 41.0364 12.7932C41.1776 12.9243 41.2482 13.0831 41.2482 13.2697C41.2482 13.4538 41.1776 13.6126 41.0364 13.7462C40.8978 13.8773 40.7301 13.9429 40.5335 13.9429ZM45.0499 22.9474C44.5885 22.9474 44.1914 22.8869 43.8586 22.7659C43.5283 22.6448 43.2586 22.4847 43.0493 22.2856C42.8401 22.0864 42.6837 21.8683 42.5804 21.6313L43.5523 21.2304C43.6204 21.3414 43.7111 21.4586 43.8246 21.5821C43.9406 21.7082 44.0969 21.8154 44.2935 21.9036C44.4927 21.9918 44.7486 22.036 45.0612 22.036C45.4898 22.036 45.8441 21.9313 46.1239 21.7221C46.4038 21.5153 46.5437 21.1851 46.5437 20.7312V19.5891H46.4719C46.4038 19.7127 46.3055 19.8501 46.1769 20.0013C46.0508 20.1526 45.8769 20.2837 45.655 20.3947C45.4331 20.5056 45.1444 20.5611 44.789 20.5611C44.3301 20.5611 43.9166 20.4539 43.5485 20.2396C43.1829 20.0228 42.893 19.7038 42.6787 19.2828C42.4669 18.8592 42.361 18.3386 42.361 17.7209C42.361 17.1032 42.4657 16.5738 42.6749 16.1325C42.8867 15.6913 43.1766 15.3535 43.5447 15.119C43.9128 14.882 44.3301 14.7635 44.7965 14.7635C45.157 14.7635 45.4482 14.824 45.6701 14.9451C45.892 15.0636 46.0647 15.2022 46.1882 15.3611C46.3143 15.5199 46.4114 15.6598 46.4794 15.7808H46.5626V14.8392H47.6707V20.7766C47.6707 21.2758 47.5547 21.6855 47.3228 22.0057C47.0908 22.3259 46.7769 22.5629 46.3811 22.7167C45.9878 22.8705 45.5441 22.9474 45.0499 22.9474ZM45.0386 19.6232C45.3638 19.6232 45.6386 19.5475 45.863 19.3963C46.0899 19.2425 46.2613 19.0231 46.3773 18.7382C46.4958 18.4508 46.5551 18.1067 46.5551 17.7058C46.5551 17.315 46.4971 16.9709 46.3811 16.6733C46.2651 16.3758 46.0949 16.1439 45.8706 15.9775C45.6462 15.8086 45.3688 15.7241 45.0386 15.7241C44.6982 15.7241 44.4146 15.8124 44.1876 15.9888C43.9607 16.1628 43.7893 16.3998 43.6733 16.6998C43.5599 16.9998 43.5031 17.3352 43.5031 17.7058C43.5031 18.0865 43.5611 18.4205 43.6771 18.708C43.7931 18.9954 43.9645 19.2198 44.1914 19.3811C44.4209 19.5425 44.7032 19.6232 45.0386 19.6232ZM50.318 17.199V20.648H49.1872V14.8392H50.2726V15.7846H50.3444C50.4781 15.477 50.6873 15.23 50.9722 15.0434C51.2596 14.8568 51.6214 14.7635 52.0576 14.7635C52.4534 14.7635 52.8001 14.8467 53.0976 15.0131C53.3951 15.177 53.6258 15.4216 53.7897 15.7468C53.9536 16.072 54.0355 16.4742 54.0355 16.9532V20.648H52.9047V17.0893C52.9047 16.6683 52.7951 16.3393 52.5757 16.1023C52.3564 15.8628 52.0551 15.743 51.6719 15.743C51.4097 15.743 51.1764 15.7997 50.9722 15.9132C50.7705 16.0267 50.6104 16.1931 50.4919 16.4124C50.376 16.6292 50.318 16.8914 50.318 17.199ZM64.894 15.4216H63.7141C63.6687 15.1694 63.5843 14.9476 63.4607 14.756C63.3372 14.5644 63.1859 14.4017 63.0069 14.2681C62.8279 14.1345 62.6275 14.0336 62.4056 13.9656C62.1863 13.8975 61.953 13.8635 61.706 13.8635C61.2597 13.8635 60.8601 13.9757 60.5071 14.2C60.1567 14.4244 59.8794 14.7534 59.6751 15.1871C59.4734 15.6207 59.3726 16.1502 59.3726 16.7755C59.3726 17.4058 59.4734 17.9377 59.6751 18.3714C59.8794 18.805 60.1579 19.1328 60.5109 19.3547C60.8639 19.5765 61.261 19.6875 61.7022 19.6875C61.9467 19.6875 62.1787 19.6547 62.398 19.5891C62.6199 19.5211 62.8203 19.4215 62.9994 19.2904C63.1784 19.1593 63.3296 18.9992 63.4532 18.8101C63.5792 18.6185 63.6662 18.3991 63.7141 18.152L64.894 18.1558C64.831 18.5365 64.7087 18.887 64.5272 19.2072C64.3482 19.5248 64.1175 19.7997 63.8351 20.0316C63.5553 20.261 63.2351 20.4388 62.8746 20.5648C62.514 20.6909 62.1207 20.7539 61.6946 20.7539C61.024 20.7539 60.4265 20.5951 59.902 20.2774C59.3776 19.9572 58.9642 19.4996 58.6616 18.9046C58.3616 18.3096 58.2116 17.5999 58.2116 16.7755C58.2116 15.9485 58.3628 15.2388 58.6654 14.6463C58.9679 14.0513 59.3814 13.5949 59.9058 13.2773C60.4302 12.9571 61.0265 12.797 61.6946 12.797C62.1056 12.797 62.4888 12.8562 62.8443 12.9747C63.2023 13.0907 63.5238 13.2621 63.8087 13.4891C64.0936 13.7134 64.3293 13.9883 64.5159 14.3135C64.7024 14.6362 64.8285 15.0056 64.894 15.4216ZM68.6484 20.7653C68.1039 20.7653 67.6286 20.6405 67.2227 20.3909C66.8168 20.1413 66.5016 19.7921 66.2772 19.3433C66.0529 18.8945 65.9407 18.3701 65.9407 17.7701C65.9407 17.1675 66.0529 16.6406 66.2772 16.1893C66.5016 15.738 66.8168 15.3875 67.2227 15.1379C67.6286 14.8883 68.1039 14.7635 68.6484 14.7635C69.193 14.7635 69.6683 14.8883 70.0742 15.1379C70.4801 15.3875 70.7953 15.738 71.0196 16.1893C71.244 16.6406 71.3562 17.1675 71.3562 17.7701C71.3562 18.3701 71.244 18.8945 71.0196 19.3433C70.7953 19.7921 70.4801 20.1413 70.0742 20.3909C69.6683 20.6405 69.193 20.7653 68.6484 20.7653ZM68.6522 19.816C69.0052 19.816 69.2977 19.7228 69.5296 19.5362C69.7616 19.3496 69.933 19.1013 70.0439 18.7912C70.1574 18.4811 70.2141 18.1394 70.2141 17.7663C70.2141 17.3957 70.1574 17.0553 70.0439 16.7452C69.933 16.4326 69.7616 16.1817 69.5296 15.9926C69.2977 15.8035 69.0052 15.709 68.6522 15.709C68.2967 15.709 68.0018 15.8035 67.7673 15.9926C67.5353 16.1817 67.3626 16.4326 67.2492 16.7452C67.1382 17.0553 67.0828 17.3957 67.0828 17.7663C67.0828 18.1394 67.1382 18.4811 67.2492 18.7912C67.3626 19.1013 67.5353 19.3496 67.7673 19.5362C68.0018 19.7228 68.2967 19.816 68.6522 19.816ZM73.7492 17.199V20.648H72.6184V14.8392H73.7038V15.7846H73.7756C73.9093 15.477 74.1185 15.23 74.4034 15.0434C74.6908 14.8568 75.0526 14.7635 75.4888 14.7635C75.8846 14.7635 76.2313 14.8467 76.5288 15.0131C76.8263 15.177 77.057 15.4216 77.2209 15.7468C77.3848 16.072 77.4667 16.4742 77.4667 16.9532V20.648H76.3359V17.0893C76.3359 16.6683 76.2263 16.3393 76.0069 16.1023C75.7876 15.8628 75.4863 15.743 75.1031 15.743C74.8409 15.743 74.6076 15.7997 74.4034 15.9132C74.2017 16.0267 74.0416 16.1931 73.9231 16.4124C73.8072 16.6292 73.7492 16.8914 73.7492 17.199ZM81.6948 14.8392V15.7468H78.5218V14.8392H81.6948ZM79.3727 13.4475H80.5035V18.9424C80.5035 19.1618 80.5363 19.3269 80.6018 19.4379C80.6674 19.5463 80.7518 19.6206 80.8552 19.661C80.9611 19.6988 81.0758 19.7177 81.1994 19.7177C81.2901 19.7177 81.3695 19.7114 81.4376 19.6988C81.5057 19.6862 81.5586 19.6761 81.5964 19.6685L81.8007 20.6027C81.7351 20.6279 81.6418 20.6531 81.5208 20.6783C81.3998 20.706 81.2485 20.7212 81.067 20.7237C80.7695 20.7287 80.4922 20.6758 80.235 20.5648C79.9778 20.4539 79.7698 20.2825 79.611 20.0505C79.4522 19.8186 79.3727 19.5274 79.3727 19.1769V13.4475ZM84.6361 20.7766C84.268 20.7766 83.9352 20.7085 83.6377 20.5724C83.3402 20.4337 83.1044 20.2333 82.9305 19.9711C82.759 19.7089 82.6733 19.3874 82.6733 19.0067C82.6733 18.679 82.7363 18.4092 82.8624 18.1974C82.9885 17.9856 83.1586 17.818 83.373 17.6944C83.5873 17.5709 83.8268 17.4776 84.0915 17.4146C84.3562 17.3516 84.626 17.3037 84.9008 17.2709C85.2487 17.2305 85.5311 17.1978 85.7479 17.1725C85.9648 17.1448 86.1223 17.1007 86.2207 17.0402C86.319 16.9797 86.3682 16.8813 86.3682 16.7452V16.7187C86.3682 16.3885 86.2749 16.1325 86.0883 15.951C85.9042 15.7695 85.6294 15.6787 85.2639 15.6787C84.8832 15.6787 84.5831 15.7632 84.3638 15.9321C84.147 16.0985 83.997 16.2838 83.9138 16.488L82.8511 16.246C82.9771 15.893 83.1612 15.6081 83.4032 15.3913C83.6478 15.172 83.9289 15.0131 84.2466 14.9148C84.5642 14.814 84.8983 14.7635 85.2487 14.7635C85.4807 14.7635 85.7265 14.7913 85.9862 14.8467C86.2484 14.8997 86.493 14.998 86.7199 15.1417C86.9493 15.2854 87.1371 15.4909 87.2834 15.7581C87.4296 16.0229 87.5027 16.367 87.5027 16.7906V20.648H86.3984V19.8539H86.353C86.2799 20.0001 86.1702 20.1438 86.024 20.285C85.8778 20.4262 85.6899 20.5434 85.4605 20.6367C85.2311 20.73 84.9563 20.7766 84.6361 20.7766ZM84.8819 19.869C85.1945 19.869 85.4618 19.8072 85.6836 19.6837C85.908 19.5601 86.0782 19.3988 86.1942 19.1996C86.3127 18.9979 86.3719 18.7823 86.3719 18.5529V17.8041C86.3316 17.8445 86.2534 17.8823 86.1375 17.9176C86.024 17.9503 85.8942 17.9793 85.7479 18.0045C85.6017 18.0272 85.4593 18.0487 85.3206 18.0688C85.1819 18.0865 85.0659 18.1016 84.9727 18.1142C84.7533 18.142 84.5529 18.1886 84.3714 18.2541C84.1923 18.3197 84.0486 18.4142 83.9402 18.5378C83.8343 18.6588 83.7814 18.8202 83.7814 19.0219C83.7814 19.3017 83.8848 19.5135 84.0915 19.6572C84.2982 19.7984 84.5617 19.869 84.8819 19.869ZM91.4556 20.7653C90.8934 20.7653 90.4093 20.638 90.0034 20.3833C89.6 20.1261 89.2899 19.7719 89.0731 19.3206C88.8563 18.8693 88.7479 18.3525 88.7479 17.7701C88.7479 17.1801 88.8588 16.6595 89.0807 16.2082C89.3025 15.7544 89.6152 15.4001 90.0185 15.1455C90.4219 14.8909 90.8972 14.7635 91.4443 14.7635C91.8855 14.7635 92.2788 14.8455 92.6242 15.0093C92.9696 15.1707 93.2482 15.3976 93.46 15.6901C93.6743 15.9825 93.8016 16.3242 93.842 16.7149H92.7415C92.6809 16.4427 92.5423 16.2082 92.3255 16.0115C92.1112 15.8149 91.8237 15.7165 91.4632 15.7165C91.1481 15.7165 90.872 15.7997 90.635 15.9661C90.4005 16.13 90.2177 16.3645 90.0866 16.6696C89.9555 16.9721 89.89 17.3301 89.89 17.7436C89.89 18.1672 89.9543 18.5327 90.0828 18.8403C90.2114 19.1479 90.3929 19.3862 90.6274 19.5551C90.8644 19.724 91.143 19.8085 91.4632 19.8085C91.6775 19.8085 91.8716 19.7694 92.0456 19.6912C92.2221 19.6106 92.3696 19.4958 92.4881 19.3471C92.6091 19.1983 92.6936 19.0193 92.7415 18.8101H93.842C93.8016 19.1857 93.6793 19.5211 93.4751 19.816C93.2709 20.111 92.9974 20.343 92.6545 20.5119C92.3141 20.6808 91.9145 20.7653 91.4556 20.7653ZM97.7628 14.8392V15.7468H94.5898V14.8392H97.7628ZM95.4407 13.4475H96.5715V18.9424C96.5715 19.1618 96.6043 19.3269 96.6698 19.4379C96.7354 19.5463 96.8198 19.6206 96.9232 19.661C97.0291 19.6988 97.1438 19.7177 97.2674 19.7177C97.3581 19.7177 97.4375 19.7114 97.5056 19.6988C97.5737 19.6862 97.6266 19.6761 97.6644 19.6685L97.8687 20.6027C97.8031 20.6279 97.7098 20.6531 97.5888 20.6783C97.4678 20.706 97.3165 20.7212 97.135 20.7237C96.8375 20.7287 96.5602 20.6758 96.303 20.5648C96.0458 20.4539 95.8378 20.2825 95.679 20.0505C95.5202 19.8186 95.4407 19.5274 95.4407 19.1769V13.4475ZM104.544 14.8392V15.7468H101.371V14.8392H104.544ZM102.222 13.4475H103.352V18.9424C103.352 19.1618 103.385 19.3269 103.451 19.4379C103.516 19.5463 103.601 19.6206 103.704 19.661C103.81 19.6988 103.925 19.7177 104.048 19.7177C104.139 19.7177 104.218 19.7114 104.286 19.6988C104.354 19.6862 104.407 19.6761 104.445 19.6685L104.649 20.6027C104.584 20.6279 104.491 20.6531 104.37 20.6783C104.249 20.706 104.097 20.7212 103.916 20.7237C103.618 20.7287 103.341 20.6758 103.084 20.5648C102.827 20.4539 102.619 20.2825 102.46 20.0505C102.301 19.8186 102.222 19.5274 102.222 19.1769V13.4475ZM108.179 20.7653C107.634 20.7653 107.159 20.6405 106.753 20.3909C106.347 20.1413 106.032 19.7921 105.808 19.3433C105.583 18.8945 105.471 18.3701 105.471 17.7701C105.471 17.1675 105.583 16.6406 105.808 16.1893C106.032 15.738 106.347 15.3875 106.753 15.1379C107.159 14.8883 107.634 14.7635 108.179 14.7635C108.723 14.7635 109.199 14.8883 109.605 15.1379C110.011 15.3875 110.326 15.738 110.55 16.1893C110.774 16.6406 110.887 17.1675 110.887 17.7701C110.887 18.3701 110.774 18.8945 110.55 19.3433C110.326 19.7921 110.011 20.1413 109.605 20.3909C109.199 20.6405 108.723 20.7653 108.179 20.7653ZM108.183 19.816C108.536 19.816 108.828 19.7228 109.06 19.5362C109.292 19.3496 109.463 19.1013 109.574 18.7912C109.688 18.4811 109.745 18.1394 109.745 17.7663C109.745 17.3957 109.688 17.0553 109.574 16.7452C109.463 16.4326 109.292 16.1817 109.06 15.9926C108.828 15.8035 108.536 15.709 108.183 15.709C107.827 15.709 107.532 15.8035 107.298 15.9926C107.066 16.1817 106.893 16.4326 106.78 16.7452C106.669 17.0553 106.613 17.3957 106.613 17.7663C106.613 18.1394 106.669 18.4811 106.78 18.7912C106.893 19.1013 107.066 19.3496 107.298 19.5362C107.532 19.7228 107.827 19.816 108.183 19.816ZM116.658 20.7766C116.29 20.7766 115.957 20.7085 115.659 20.5724C115.362 20.4337 115.126 20.2333 114.952 19.9711C114.781 19.7089 114.695 19.3874 114.695 19.0067C114.695 18.679 114.758 18.4092 114.884 18.1974C115.01 17.9856 115.18 17.818 115.395 17.6944C115.609 17.5709 115.848 17.4776 116.113 17.4146C116.378 17.3516 116.648 17.3037 116.922 17.2709C117.27 17.2305 117.553 17.1978 117.77 17.1725C117.986 17.1448 118.144 17.1007 118.242 17.0402C118.341 16.9797 118.39 16.8813 118.39 16.7452V16.7187C118.39 16.3885 118.296 16.1325 118.11 15.951C117.926 15.7695 117.651 15.6787 117.285 15.6787C116.905 15.6787 116.605 15.7632 116.385 15.9321C116.169 16.0985 116.019 16.2838 115.935 16.488L114.873 16.246C114.999 15.893 115.183 15.6081 115.425 15.3913C115.669 15.172 115.95 15.0131 116.268 14.9148C116.586 14.814 116.92 14.7635 117.27 14.7635C117.502 14.7635 117.748 14.7913 118.008 14.8467C118.27 14.8997 118.515 14.998 118.741 15.1417C118.971 15.2854 119.159 15.4909 119.305 15.7581C119.451 16.0229 119.524 16.367 119.524 16.7906V20.648H118.42V19.8539H118.375C118.302 20.0001 118.192 20.1438 118.046 20.285C117.899 20.4262 117.712 20.5434 117.482 20.6367C117.253 20.73 116.978 20.7766 116.658 20.7766ZM116.903 19.869C117.216 19.869 117.483 19.8072 117.705 19.6837C117.93 19.5601 118.1 19.3988 118.216 19.1996C118.334 18.9979 118.394 18.7823 118.394 18.5529V17.8041C118.353 17.8445 118.275 17.8823 118.159 17.9176C118.046 17.9503 117.916 17.9793 117.77 18.0045C117.623 18.0272 117.481 18.0487 117.342 18.0688C117.204 18.0865 117.088 18.1016 116.994 18.1142C116.775 18.142 116.574 18.1886 116.393 18.2541C116.214 18.3197 116.07 18.4142 115.962 18.5378C115.856 18.6588 115.803 18.8202 115.803 19.0219C115.803 19.3017 115.906 19.5135 116.113 19.6572C116.32 19.7984 116.583 19.869 116.903 19.869ZM123.94 20.648V12.9029H125.108V19.6421H128.618V20.648H123.94ZM129.86 20.648V14.8392H130.991V20.648H129.86ZM130.431 13.9429C130.234 13.9429 130.065 13.8773 129.924 13.7462C129.786 13.6126 129.716 13.4538 129.716 13.2697C129.716 13.0831 129.786 12.9243 129.924 12.7932C130.065 12.6596 130.234 12.5928 130.431 12.5928C130.628 12.5928 130.795 12.6596 130.934 12.7932C131.075 12.9243 131.146 13.0831 131.146 13.2697C131.146 13.4538 131.075 13.6126 130.934 13.7462C130.795 13.8773 130.628 13.9429 130.431 13.9429ZM136.865 16.2573L135.84 16.4389C135.797 16.3078 135.729 16.183 135.636 16.0645C135.545 15.946 135.421 15.8489 135.265 15.7733C135.109 15.6976 134.913 15.6598 134.679 15.6598C134.359 15.6598 134.092 15.7317 133.877 15.8754C133.663 16.0166 133.556 16.1994 133.556 16.4237C133.556 16.6179 133.628 16.7742 133.771 16.8927C133.915 17.0112 134.147 17.1083 134.467 17.1839L135.39 17.3957C135.924 17.5192 136.323 17.7096 136.585 17.9667C136.847 18.2239 136.978 18.558 136.978 18.9689C136.978 19.3168 136.877 19.6269 136.676 19.8992C136.477 20.169 136.198 20.3808 135.84 20.5346C135.485 20.6884 135.072 20.7653 134.603 20.7653C133.953 20.7653 133.422 20.6266 133.011 20.3493C132.6 20.0694 132.348 19.6723 132.255 19.158L133.348 18.9916C133.416 19.2765 133.556 19.4921 133.768 19.6383C133.979 19.782 134.255 19.8539 134.596 19.8539C134.966 19.8539 135.263 19.777 135.485 19.6232C135.706 19.4669 135.817 19.2765 135.817 19.0521C135.817 18.8706 135.749 18.7181 135.613 18.5945C135.479 18.471 135.274 18.3777 134.997 18.3147L134.013 18.0991C133.471 17.9756 133.07 17.7789 132.811 17.5091C132.554 17.2394 132.425 16.8977 132.425 16.4843C132.425 16.1414 132.521 15.8413 132.712 15.5842C132.904 15.327 133.169 15.1266 133.507 14.9829C133.844 14.8366 134.231 14.7635 134.668 14.7635C135.295 14.7635 135.79 14.8997 136.15 15.172C136.511 15.4417 136.749 15.8035 136.865 16.2573ZM140.933 14.8392V15.7468H137.76V14.8392H140.933ZM138.611 13.4475H139.742V18.9424C139.742 19.1618 139.775 19.3269 139.84 19.4379C139.906 19.5463 139.99 19.6206 140.094 19.661C140.199 19.6988 140.314 19.7177 140.438 19.7177C140.529 19.7177 140.608 19.7114 140.676 19.6988C140.744 19.6862 140.797 19.6761 140.835 19.6685L141.039 20.6027C140.974 20.6279 140.88 20.6531 140.759 20.6783C140.638 20.706 140.487 20.7212 140.305 20.7237C140.008 20.7287 139.731 20.6758 139.473 20.5648C139.216 20.4539 139.008 20.2825 138.849 20.0505C138.691 19.8186 138.611 19.5274 138.611 19.1769V13.4475Z" fill="#25C9BA"/>
<path d="M17.0106 15.4461H7.88785V16.9708H17.0106V15.4461Z" fill="#25C9BA"/>
<path d="M13.2102 11.648H11.6855V20.7708H13.2102V11.648Z" fill="#25C9BA"/>
<defs>
<clipPath id="clip0_95_159">
<rect width="9.29178" height="12.48" fill="white" transform="translate(167.632 9.98404)"/>
</clipPath>
</defs>
</svg>
