<svg width="90" height="25" viewBox="0 0 90 25" fill="none" xmlns="http://www.w3.org/2000/svg">
<g filter="url(#filter0_f_1_1289)">
<path d="M11.4227 8.67888H12.3606V14.2155C12.3606 14.7096 12.2698 15.1294 12.0883 15.4748C11.9067 15.8202 11.6508 16.0824 11.3206 16.2614C10.9903 16.4404 10.6008 16.5299 10.152 16.5299C9.72842 16.5299 9.3515 16.453 9.02122 16.2992C8.69094 16.1429 8.43125 15.9211 8.24216 15.6336C8.05307 15.3462 7.95853 15.0046 7.95853 14.6088H8.88129C8.88129 14.8281 8.9355 15.0197 9.04391 15.1836C9.15484 15.345 9.30612 15.471 9.49773 15.5618C9.68934 15.6526 9.90742 15.6979 10.152 15.6979C10.4218 15.6979 10.6512 15.6412 10.8403 15.5278C11.0294 15.4143 11.1731 15.2479 11.2714 15.0286C11.3722 14.8067 11.4227 14.5357 11.4227 14.2155V8.67888ZM15.8285 16.5602C15.4604 16.5602 15.1263 16.4909 14.8263 16.3522C14.5263 16.211 14.288 16.008 14.1115 15.7433C13.9351 15.4761 13.8468 15.1534 13.8468 14.7752C13.8468 14.4424 13.9124 14.1726 14.0435 13.9659C14.1746 13.7566 14.3498 13.5927 14.5691 13.4742C14.7885 13.3557 15.0305 13.2675 15.2953 13.2095C15.5625 13.149 15.831 13.1011 16.1008 13.0658C16.4538 13.0204 16.7399 12.9864 16.9593 12.9637C17.1811 12.9385 17.3425 12.8969 17.4433 12.8389C17.5467 12.7809 17.5984 12.68 17.5984 12.5363V12.5061C17.5984 12.1329 17.4963 11.843 17.2921 11.6363C17.0904 11.4295 16.784 11.3262 16.3731 11.3262C15.947 11.3262 15.6129 11.4194 15.3709 11.606C15.1289 11.7926 14.9587 11.9918 14.8603 12.2035L14.0132 11.901C14.1645 11.548 14.3662 11.2732 14.6183 11.0766C14.873 10.8774 15.1503 10.7387 15.4503 10.6606C15.7529 10.5799 16.0504 10.5395 16.3428 10.5395C16.5294 10.5395 16.7437 10.5622 16.9857 10.6076C17.2303 10.6505 17.466 10.74 17.6929 10.8761C17.9224 11.0123 18.1127 11.2177 18.264 11.4926C18.4153 11.7674 18.4909 12.1355 18.4909 12.5968V16.424H17.5984V15.6374H17.553C17.4925 15.7635 17.3916 15.8984 17.2505 16.0421C17.1093 16.1858 16.9214 16.3081 16.687 16.4089C16.4525 16.5098 16.1663 16.5602 15.8285 16.5602ZM15.9646 15.7584C16.3176 15.7584 16.6151 15.6891 16.8571 15.5504C17.1017 15.4118 17.2858 15.2328 17.4093 15.0134C17.5354 14.7941 17.5984 14.5634 17.5984 14.3214V13.5045C17.5606 13.5499 17.4774 13.5915 17.3488 13.6293C17.2227 13.6646 17.0765 13.6961 16.9101 13.7238C16.7462 13.749 16.5861 13.7717 16.4298 13.7919C16.276 13.8095 16.1512 13.8247 16.0554 13.8373C15.8234 13.8675 15.6066 13.9167 15.4049 13.9848C15.2058 14.0503 15.0444 14.1499 14.9209 14.2835C14.7998 14.4146 14.7393 14.5936 14.7393 14.8206C14.7393 15.1307 14.854 15.3651 15.0835 15.524C15.3154 15.6803 15.6091 15.7584 15.9646 15.7584ZM21.0124 12.9296V16.424H20.1199V10.6152H20.9822V11.5228H21.0578C21.1939 11.2278 21.4007 10.9908 21.678 10.8118C21.9554 10.6303 22.3134 10.5395 22.7521 10.5395C23.1454 10.5395 23.4895 10.6202 23.7845 10.7816C24.0795 10.9404 24.3089 11.1824 24.4728 11.5077C24.6367 11.8304 24.7186 12.2388 24.7186 12.733V16.424H23.8261V12.7935C23.8261 12.3372 23.7076 11.9817 23.4706 11.727C23.2336 11.4699 22.9084 11.3413 22.4949 11.3413C22.21 11.3413 21.9554 11.403 21.731 11.5266C21.5091 11.6501 21.3339 11.8304 21.2053 12.0674C21.0767 12.3044 21.0124 12.5918 21.0124 12.9296ZM26.3495 16.424V10.6152H27.242V16.424H26.3495ZM26.8033 9.64702C26.6294 9.64702 26.4794 9.58778 26.3533 9.46928C26.2298 9.35078 26.168 9.20833 26.168 9.04193C26.168 8.87553 26.2298 8.73308 26.3533 8.61459C26.4794 8.49609 26.6294 8.43684 26.8033 8.43684C26.9773 8.43684 27.126 8.49609 27.2496 8.61459C27.3756 8.73308 27.4387 8.87553 27.4387 9.04193C27.4387 9.20833 27.3756 9.35078 27.2496 9.46928C27.126 9.58778 26.9773 9.64702 26.8033 9.64702ZM29.7692 12.9296V16.424H28.8767V10.6152H29.739V11.5228H29.8146C29.9507 11.2278 30.1575 10.9908 30.4348 10.8118C30.7122 10.6303 31.0702 10.5395 31.5089 10.5395C31.9022 10.5395 32.2463 10.6202 32.5413 10.7816C32.8363 10.9404 33.0657 11.1824 33.2296 11.5077C33.3935 11.8304 33.4754 12.2388 33.4754 12.733V16.424H32.5829V12.7935C32.5829 12.3372 32.4644 11.9817 32.2274 11.727C31.9904 11.4699 31.6652 11.3413 31.2517 11.3413C30.9668 11.3413 30.7122 11.403 30.4878 11.5266C30.2659 11.6501 30.0907 11.8304 29.9621 12.0674C29.8335 12.3044 29.7692 12.5918 29.7692 12.9296ZM37.4662 16.5451C36.9216 16.5451 36.4526 16.4165 36.0593 16.1593C35.666 15.9022 35.3635 15.5479 35.1517 15.0966C34.9399 14.6453 34.834 14.1297 34.834 13.5499C34.834 12.9599 34.9424 12.4393 35.1593 11.988C35.3786 11.5342 35.6837 11.1799 36.0745 10.9253C36.4678 10.6681 36.9266 10.5395 37.451 10.5395C37.8595 10.5395 38.2276 10.6152 38.5553 10.7664C38.8831 10.9177 39.1516 11.1295 39.3609 11.4018C39.5701 11.6741 39.7 11.9918 39.7504 12.3548H38.8579C38.7898 12.0901 38.6385 11.8556 38.4041 11.6514C38.1721 11.4446 37.8595 11.3413 37.4662 11.3413C37.1182 11.3413 36.8132 11.432 36.551 11.6136C36.2913 11.7926 36.0883 12.046 35.9421 12.3737C35.7984 12.699 35.7265 13.0809 35.7265 13.5196C35.7265 13.9684 35.7971 14.3592 35.9383 14.692C36.082 15.0248 36.2837 15.2832 36.5434 15.4672C36.8056 15.6513 37.1132 15.7433 37.4662 15.7433C37.6981 15.7433 37.9086 15.703 38.0977 15.6223C38.2868 15.5416 38.4469 15.4256 38.578 15.2744C38.7091 15.1231 38.8024 14.9416 38.8579 14.7298H39.7504C39.7 15.0727 39.5752 15.3815 39.376 15.6563C39.1793 15.9286 38.9184 16.1454 38.5931 16.3068C38.2704 16.4656 37.8948 16.5451 37.4662 16.5451ZM43.4906 16.5451C42.9309 16.5451 42.4481 16.4215 42.0422 16.1744C41.6388 15.9248 41.3274 15.5769 41.1081 15.1307C40.8912 14.6819 40.7828 14.16 40.7828 13.565C40.7828 12.97 40.8912 12.4456 41.1081 11.9918C41.3274 11.5354 41.6325 11.1799 42.0233 10.9253C42.4166 10.6681 42.8754 10.5395 43.3998 10.5395C43.7024 10.5395 44.0011 10.59 44.2961 10.6908C44.5911 10.7917 44.8596 10.9555 45.1017 11.1824C45.3437 11.4068 45.5366 11.7043 45.6803 12.075C45.824 12.4456 45.8958 12.9019 45.8958 13.444V13.8222H41.4182V13.0507H44.9882C44.9882 12.7229 44.9226 12.4304 44.7915 12.1733C44.663 11.9161 44.4789 11.7132 44.2394 11.5644C44.0024 11.4157 43.7226 11.3413 43.3998 11.3413C43.0443 11.3413 42.7368 11.4295 42.4771 11.606C42.2199 11.78 42.022 12.0069 41.8833 12.2867C41.7447 12.5666 41.6753 12.8666 41.6753 13.1868V13.7011C41.6753 14.1398 41.751 14.5117 41.9022 14.8168C42.056 15.1193 42.2691 15.35 42.5414 15.5088C42.8137 15.6652 43.1301 15.7433 43.4906 15.7433C43.7251 15.7433 43.9369 15.7105 44.1259 15.645C44.3176 15.5769 44.4827 15.4761 44.6214 15.3424C44.76 15.2063 44.8672 15.0374 44.9428 14.8357L45.8051 15.0777C45.7143 15.3702 45.5618 15.6273 45.3475 15.8492C45.1332 16.0686 44.8684 16.24 44.5533 16.3635C44.2381 16.4846 43.8839 16.5451 43.4906 16.5451ZM56.6022 11.0992H55.6643C55.6088 10.8295 55.5117 10.5925 55.3731 10.3883C55.2369 10.184 55.0705 10.0126 54.8739 9.87393C54.6797 9.73274 54.4642 9.62685 54.2272 9.55626C53.9902 9.48567 53.7431 9.45037 53.4859 9.45037C53.017 9.45037 52.5922 9.56887 52.2115 9.80586C51.8333 10.0429 51.532 10.392 51.3076 10.8534C51.0858 11.3148 50.9748 11.8808 50.9748 12.5515C50.9748 13.2221 51.0858 13.7881 51.3076 14.2495C51.532 14.7109 51.8333 15.0601 52.2115 15.2971C52.5922 15.5341 53.017 15.6526 53.4859 15.6526C53.7431 15.6526 53.9902 15.6173 54.2272 15.5467C54.4642 15.4761 54.6797 15.3714 54.8739 15.2328C55.0705 15.0916 55.2369 14.9189 55.3731 14.7147C55.5117 14.5079 55.6088 14.2709 55.6643 14.0037H56.6022C56.5316 14.3995 56.403 14.7537 56.2164 15.0664C56.0298 15.379 55.7979 15.645 55.5206 15.8643C55.2432 16.0812 54.9319 16.2463 54.5865 16.3598C54.2436 16.4732 53.8767 16.5299 53.4859 16.5299C52.8254 16.5299 52.2379 16.3686 51.7236 16.0459C51.2093 15.7231 50.8046 15.2643 50.5097 14.6693C50.2147 14.0743 50.0672 13.3683 50.0672 12.5515C50.0672 11.7346 50.2147 11.0286 50.5097 10.4336C50.8046 9.83864 51.2093 9.37978 51.7236 9.05706C52.2379 8.73434 52.8254 8.57299 53.4859 8.57299C53.8767 8.57299 54.2436 8.62971 54.5865 8.74317C54.9319 8.85662 55.2432 9.02302 55.5206 9.24237C55.7979 9.45919 56.0298 9.72392 56.2164 10.0366C56.403 10.3467 56.5316 10.7009 56.6022 11.0992ZM60.3566 16.5451C59.8322 16.5451 59.372 16.4203 58.9762 16.1707C58.5829 15.9211 58.2753 15.5719 58.0534 15.1231C57.8341 14.6743 57.7244 14.1499 57.7244 13.5499C57.7244 12.9448 57.8341 12.4166 58.0534 11.9653C58.2753 11.514 58.5829 11.1635 58.9762 10.9139C59.372 10.6643 59.8322 10.5395 60.3566 10.5395C60.881 10.5395 61.3398 10.6643 61.7331 10.9139C62.129 11.1635 62.4366 11.514 62.6559 11.9653C62.8778 12.4166 62.9887 12.9448 62.9887 13.5499C62.9887 14.1499 62.8778 14.6743 62.6559 15.1231C62.4366 15.5719 62.129 15.9211 61.7331 16.1707C61.3398 16.4203 60.881 16.5451 60.3566 16.5451ZM60.3566 15.7433C60.7549 15.7433 61.0827 15.6412 61.3398 15.437C61.597 15.2328 61.7874 14.9643 61.9109 14.6315C62.0344 14.2987 62.0962 13.9381 62.0962 13.5499C62.0962 13.1616 62.0344 12.7998 61.9109 12.4645C61.7874 12.1292 61.597 11.8581 61.3398 11.6514C61.0827 11.4446 60.7549 11.3413 60.3566 11.3413C59.9582 11.3413 59.6305 11.4446 59.3733 11.6514C59.1161 11.8581 58.9258 12.1292 58.8022 12.4645C58.6787 12.7998 58.6169 13.1616 58.6169 13.5499C58.6169 13.9381 58.6787 14.2987 58.8022 14.6315C58.9258 14.9643 59.1161 15.2328 59.3733 15.437C59.6305 15.6412 59.9582 15.7433 60.3566 15.7433ZM65.2436 8.67888V16.424H64.3511V8.67888H65.2436ZM67.7708 8.67888V16.424H66.8783V8.67888H67.7708ZM69.4055 16.424V10.6152H70.298V16.424H69.4055ZM69.8593 9.64702C69.6854 9.64702 69.5354 9.58778 69.4093 9.46928C69.2858 9.35078 69.224 9.20833 69.224 9.04193C69.224 8.87553 69.2858 8.73308 69.4093 8.61459C69.5354 8.49609 69.6854 8.43684 69.8593 8.43684C70.0333 8.43684 70.182 8.49609 70.3056 8.61459C70.4316 8.73308 70.4947 8.87553 70.4947 9.04193C70.4947 9.20833 70.4316 9.35078 70.3056 9.46928C70.182 9.58778 70.0333 9.64702 69.8593 9.64702ZM72.8252 12.9296V16.424H71.9327V10.6152H72.795V11.5228H72.8706C73.0067 11.2278 73.2135 10.9908 73.4908 10.8118C73.7682 10.6303 74.1262 10.5395 74.5649 10.5395C74.9582 10.5395 75.3023 10.6202 75.5973 10.7816C75.8923 10.9404 76.1217 11.1824 76.2856 11.5077C76.4495 11.8304 76.5314 12.2388 76.5314 12.733V16.424H75.6389V12.7935C75.6389 12.3372 75.5204 11.9817 75.2834 11.727C75.0464 11.4699 74.7212 11.3413 74.3077 11.3413C74.0228 11.3413 73.7682 11.403 73.5438 11.5266C73.3219 11.6501 73.1467 11.8304 73.0181 12.0674C72.8895 12.3044 72.8252 12.5918 72.8252 12.9296ZM82.2769 11.9161L81.4752 12.143C81.4248 12.0094 81.3504 11.8796 81.2521 11.7535C81.1562 11.6249 81.0251 11.519 80.8587 11.4358C80.6923 11.3526 80.4793 11.311 80.2196 11.311C79.8641 11.311 79.5679 11.393 79.3309 11.5568C79.0964 11.7182 78.9792 11.9237 78.9792 12.1733C78.9792 12.3951 79.0599 12.5704 79.2212 12.699C79.3826 12.8275 79.6347 12.9347 79.9776 13.0204L80.8398 13.2322C81.3592 13.3582 81.7462 13.5511 82.0009 13.8108C82.2555 14.068 82.3828 14.3995 82.3828 14.8054C82.3828 15.1382 82.287 15.4357 82.0954 15.6979C81.9063 15.9601 81.6416 16.1669 81.3012 16.3182C80.9609 16.4694 80.565 16.5451 80.1137 16.5451C79.5212 16.5451 79.0309 16.4165 78.6426 16.1593C78.2543 15.9022 78.0085 15.5265 77.9051 15.0323L78.7523 14.8206C78.833 15.1332 78.9855 15.3677 79.2099 15.524C79.4368 15.6803 79.733 15.7584 80.0986 15.7584C80.5146 15.7584 80.8449 15.6702 81.0894 15.4937C81.3365 15.3147 81.4601 15.1004 81.4601 14.8508C81.4601 14.6491 81.3895 14.4802 81.2483 14.344C81.1071 14.2054 80.8903 14.102 80.5978 14.0339L79.6297 13.807C79.0977 13.681 78.7069 13.4856 78.4573 13.2208C78.2102 12.9536 78.0867 12.6195 78.0867 12.2187C78.0867 11.8909 78.1787 11.601 78.3627 11.3488C78.5493 11.0967 78.8027 10.8988 79.1229 10.7551C79.4456 10.6114 79.8112 10.5395 80.2196 10.5395C80.7945 10.5395 81.2458 10.6656 81.5735 10.9177C81.9038 11.1698 82.1383 11.5026 82.2769 11.9161Z" fill="white"/>
</g>
<defs>
<filter id="filter0_f_1_1289" x="0.470527" y="0.948829" width="89.4003" height="23.0994" filterUnits="userSpaceOnUse" color-interpolation-filters="sRGB">
<feFlood flood-opacity="0" result="BackgroundImageFix"/>
<feBlend mode="normal" in="SourceGraphic" in2="BackgroundImageFix" result="shape"/>
<feGaussianBlur stdDeviation="3.744" result="effect1_foregroundBlur_1_1289"/>
</filter>
</defs>
</svg>
