<svg width="96" height="25" viewBox="0 0 96 25" fill="none" xmlns="http://www.w3.org/2000/svg">
<g filter="url(#filter0_f_1_1290)">
<path d="M7.65438 12.3515C7.65438 11.3985 7.77792 10.5223 8.025 9.72311C8.2746 8.92137 8.63009 8.18391 9.09147 7.51075H9.87809C9.69656 7.76035 9.52638 8.06794 9.36755 8.43351C9.21123 8.79657 9.07382 9.19618 8.95533 9.63235C8.83683 10.066 8.74355 10.5148 8.67547 10.9787C8.60992 11.4426 8.57715 11.9002 8.57715 12.3515C8.57715 12.9515 8.63513 13.5604 8.75111 14.1781C8.86708 14.7958 9.0234 15.3694 9.22005 15.8988C9.41671 16.4283 9.63605 16.8594 9.87809 17.1922H9.09147C8.63009 16.519 8.2746 15.7828 8.025 14.9836C7.77792 14.1819 7.65438 13.3045 7.65438 12.3515ZM13.6003 16.33C13.1566 16.33 12.757 16.2417 12.4015 16.0652C12.046 15.8887 11.7611 15.6467 11.5468 15.3391C11.3325 15.0315 11.2153 14.6811 11.1951 14.2878H12.1027C12.138 14.6382 12.2969 14.9282 12.5793 15.1576C12.8642 15.3845 13.2045 15.498 13.6003 15.498C13.918 15.498 14.2004 15.4236 14.4475 15.2748C14.6971 15.1261 14.8925 14.9219 15.0337 14.6622C15.1774 14.4 15.2492 14.1037 15.2492 13.7734C15.2492 13.4356 15.1748 13.1343 15.0261 12.8696C14.8799 12.6023 14.6782 12.3918 14.421 12.238C14.1638 12.0842 13.8701 12.0061 13.5398 12.0036C13.3028 12.001 13.0595 12.0376 12.8099 12.1132C12.5603 12.1863 12.3549 12.2809 12.1935 12.3969L11.3161 12.291L11.7851 8.4789H15.8089V9.3109H12.5717L12.2994 11.5951H12.3448C12.5036 11.4691 12.7028 11.3644 12.9423 11.2812C13.1818 11.198 13.4314 11.1564 13.6911 11.1564C14.1651 11.1564 14.5874 11.2699 14.958 11.4968C15.3312 11.7212 15.6236 12.0288 15.8354 12.4196C16.0497 12.8103 16.1569 13.2566 16.1569 13.7583C16.1569 14.2525 16.0459 14.6937 15.8241 15.082C15.6047 15.4677 15.3022 15.7728 14.9164 15.9972C14.5307 16.219 14.092 16.33 13.6003 16.33ZM20.1854 16.33C19.6156 16.33 19.1303 16.1749 18.7294 15.8648C18.3286 15.5522 18.0222 15.0996 17.8105 14.5071C17.5987 13.9121 17.4928 13.1936 17.4928 12.3515C17.4928 11.5144 17.5987 10.7997 17.8105 10.2072C18.0248 9.61218 18.3323 9.15836 18.7332 8.84573C19.1366 8.53058 19.6207 8.37301 20.1854 8.37301C20.7502 8.37301 21.233 8.53058 21.6339 8.84573C22.0373 9.15836 22.3449 9.61218 22.5566 10.2072C22.7709 10.7997 22.8781 11.5144 22.8781 12.3515C22.8781 13.1936 22.7722 13.9121 22.5604 14.5071C22.3486 15.0996 22.0423 15.5522 21.6414 15.8648C21.2406 16.1749 20.7552 16.33 20.1854 16.33ZM20.1854 15.498C20.7502 15.498 21.1889 15.2257 21.5015 14.6811C21.8141 14.1365 21.9705 13.36 21.9705 12.3515C21.9705 11.6808 21.8986 11.1098 21.7549 10.6383C21.6137 10.1668 21.4095 9.80757 21.1422 9.5605C20.8775 9.31342 20.5586 9.18988 20.1854 9.18988C19.6257 9.18988 19.1883 9.46595 18.8731 10.0181C18.558 10.5677 18.4004 11.3455 18.4004 12.3515C18.4004 13.0221 18.471 13.5919 18.6122 14.0609C18.7534 14.5298 18.9563 14.8866 19.2211 15.1311C19.4883 15.3757 19.8098 15.498 20.1854 15.498ZM26.9322 16.33C26.433 16.33 25.988 16.2442 25.5972 16.0728C25.209 15.9013 24.9001 15.6631 24.6707 15.358C24.4438 15.0504 24.3202 14.6937 24.3001 14.2878H25.2531C25.2732 14.5374 25.359 14.7529 25.5102 14.9345C25.6615 15.1135 25.8594 15.2521 26.104 15.3505C26.3485 15.4488 26.6196 15.498 26.9171 15.498C27.2499 15.498 27.5449 15.44 27.802 15.324C28.0592 15.208 28.2609 15.0467 28.4071 14.8399C28.5533 14.6332 28.6265 14.3937 28.6265 14.1214C28.6265 13.8365 28.5559 13.5856 28.4147 13.3688C28.2735 13.1494 28.0667 12.978 27.7945 12.8545C27.5222 12.7309 27.1894 12.6692 26.7961 12.6692H26.1758V11.8372H26.7961C27.1036 11.8372 27.3734 11.7817 27.6054 11.6708C27.8398 11.5598 28.0226 11.4035 28.1537 11.2018C28.2874 11.0001 28.3542 10.7631 28.3542 10.4908C28.3542 10.2286 28.2962 10.0004 28.1802 9.80631C28.0642 9.61218 27.9003 9.46091 27.6886 9.3525C27.4793 9.24408 27.2322 9.18988 26.9473 9.18988C26.6801 9.18988 26.428 9.23904 26.191 9.33737C25.9565 9.43318 25.7649 9.5731 25.6161 9.75715C25.4674 9.93868 25.3867 10.158 25.3741 10.4152H24.4665C24.4816 10.0093 24.6039 9.65378 24.8333 9.34871C25.0627 9.04113 25.3627 8.80161 25.7334 8.63017C26.1065 8.45873 26.5162 8.37301 26.9625 8.37301C27.4415 8.37301 27.8524 8.47007 28.1953 8.66421C28.5382 8.85582 28.8017 9.1092 28.9857 9.42435C29.1698 9.7395 29.2618 10.0799 29.2618 10.4454C29.2618 10.8816 29.1471 11.2535 28.9177 11.5611C28.6907 11.8687 28.3819 12.0817 27.9911 12.2002V12.2607C28.4802 12.3414 28.8622 12.5494 29.137 12.8847C29.4118 13.2175 29.5492 13.6297 29.5492 14.1214C29.5492 14.5424 29.4345 14.9206 29.2051 15.2559C28.9782 15.5887 28.6681 15.8509 28.2747 16.0425C27.8814 16.2341 27.4339 16.33 26.9322 16.33ZM33.0171 12.3515C33.0171 13.3045 32.8923 14.1819 32.6427 14.9836C32.3957 15.7828 32.0414 16.519 31.5801 17.1922H30.7934C30.975 16.9426 31.1439 16.635 31.3002 16.2694C31.459 15.9064 31.5977 15.508 31.7162 15.0744C31.8347 14.6382 31.9267 14.1882 31.9923 13.7243C32.0603 13.2579 32.0944 12.8003 32.0944 12.3515C32.0944 11.7514 32.0364 11.1426 31.9204 10.5249C31.8044 9.90716 31.6481 9.33359 31.4515 8.80413C31.2548 8.27468 31.0355 7.84355 30.7934 7.51075H31.5801C32.0414 8.18391 32.3957 8.92137 32.6427 9.72311C32.8923 10.5223 33.0171 11.3985 33.0171 12.3515ZM38.2975 11.9355V12.7675H34.909V11.9355H38.2975ZM42.4244 16.33C42.1067 16.3249 41.7891 16.2644 41.4714 16.1484C41.1537 16.0324 40.8638 15.8371 40.6016 15.5622C40.3394 15.2849 40.1289 14.9105 39.97 14.439C39.8112 13.9651 39.7318 13.37 39.7318 12.654C39.7318 11.9683 39.7961 11.3606 39.9246 10.8312C40.0532 10.2992 40.2398 9.8517 40.4843 9.48864C40.7289 9.12307 41.0239 8.84573 41.3693 8.65664C41.7172 8.46755 42.1093 8.37301 42.5454 8.37301C42.9791 8.37301 43.3648 8.45999 43.7027 8.63395C44.043 8.80539 44.3204 9.04491 44.5347 9.3525C44.749 9.66008 44.8876 10.0143 44.9507 10.4152H44.0279C43.9422 10.0673 43.7758 9.77858 43.5287 9.54915C43.2816 9.31972 42.9539 9.20501 42.5454 9.20501C41.9454 9.20501 41.4727 9.46595 41.1273 9.98784C40.7844 10.5097 40.6117 11.2421 40.6091 12.1851H40.6697C40.8108 11.9708 40.9785 11.788 41.1726 11.6367C41.3693 11.4829 41.5861 11.3644 41.8231 11.2812C42.0601 11.198 42.311 11.1564 42.5757 11.1564C43.0194 11.1564 43.4253 11.2674 43.7934 11.4892C44.1615 11.7086 44.4565 12.0124 44.6784 12.4006C44.9002 12.7864 45.0112 13.2289 45.0112 13.7281C45.0112 14.2071 44.904 14.6458 44.6897 15.0441C44.4754 15.44 44.1741 15.7551 43.7859 15.9896C43.4001 16.2215 42.9463 16.335 42.4244 16.33ZM42.4244 15.498C42.7421 15.498 43.027 15.4185 43.2791 15.2597C43.5338 15.1009 43.7342 14.8878 43.8804 14.6206C44.0292 14.3533 44.1035 14.0558 44.1035 13.7281C44.1035 13.4079 44.0317 13.1167 43.888 12.8545C43.7468 12.5897 43.5514 12.3792 43.3018 12.2229C43.0547 12.0666 42.7723 11.9884 42.4547 11.9884C42.2152 11.9884 41.992 12.0363 41.7853 12.1321C41.5786 12.2254 41.397 12.354 41.2407 12.5179C41.0869 12.6818 40.9659 12.8696 40.8777 13.0814C40.7894 13.2906 40.7453 13.5112 40.7453 13.7432C40.7453 14.0508 40.8171 14.3382 40.9609 14.6054C41.1071 14.8727 41.3063 15.0883 41.5584 15.2521C41.813 15.416 42.1017 15.498 42.4244 15.498ZM46.7404 16.2241L50.2046 9.37141V9.3109H46.211V8.4789H51.1727V9.35628L47.7237 16.2241H46.7404ZM55.3053 8.4789V16.2241H54.3674V9.46217H54.322L52.4311 10.7177V9.76471L54.3674 8.4789H55.3053ZM60.8759 11.9355V12.7675H57.4874V11.9355H60.8759ZM65.0028 16.33C64.6851 16.3249 64.3675 16.2644 64.0498 16.1484C63.7321 16.0324 63.4422 15.8371 63.18 15.5622C62.9178 15.2849 62.7073 14.9105 62.5484 14.439C62.3896 13.9651 62.3102 13.37 62.3102 12.654C62.3102 11.9683 62.3745 11.3606 62.503 10.8312C62.6316 10.2992 62.8182 9.8517 63.0627 9.48864C63.3073 9.12307 63.6023 8.84573 63.9477 8.65664C64.2956 8.46755 64.6877 8.37301 65.1238 8.37301C65.5575 8.37301 65.9432 8.45999 66.2811 8.63395C66.6214 8.80539 66.8988 9.04491 67.1131 9.3525C67.3274 9.66008 67.466 10.0143 67.5291 10.4152H66.6063C66.5206 10.0673 66.3542 9.77858 66.1071 9.54915C65.86 9.31972 65.5323 9.20501 65.1238 9.20501C64.5238 9.20501 64.0511 9.46595 63.7057 9.98784C63.3628 10.5097 63.1901 11.2421 63.1875 12.1851H63.2481C63.3892 11.9708 63.5569 11.788 63.751 11.6367C63.9477 11.4829 64.1645 11.3644 64.4015 11.2812C64.6385 11.198 64.8894 11.1564 65.1541 11.1564C65.5978 11.1564 66.0037 11.2674 66.3718 11.4892C66.7399 11.7086 67.0349 12.0124 67.2568 12.4006C67.4786 12.7864 67.5896 13.2289 67.5896 13.7281C67.5896 14.2071 67.4824 14.6458 67.2681 15.0441C67.0538 15.44 66.7525 15.7551 66.3643 15.9896C65.9785 16.2215 65.5247 16.335 65.0028 16.33ZM65.0028 15.498C65.3205 15.498 65.6054 15.4185 65.8575 15.2597C66.1122 15.1009 66.3126 14.8878 66.4588 14.6206C66.6076 14.3533 66.6819 14.0558 66.6819 13.7281C66.6819 13.4079 66.6101 13.1167 66.4664 12.8545C66.3252 12.5897 66.1298 12.3792 65.8802 12.2229C65.6331 12.0666 65.3507 11.9884 65.0331 11.9884C64.7936 11.9884 64.5704 12.0363 64.3637 12.1321C64.157 12.2254 63.9754 12.354 63.8191 12.5179C63.6653 12.6818 63.5443 12.8696 63.4561 13.0814C63.3678 13.2906 63.3237 13.5112 63.3237 13.7432C63.3237 14.0508 63.3955 14.3382 63.5393 14.6054C63.6855 14.8727 63.8847 15.0883 64.1368 15.2521C64.3914 15.416 64.6801 15.498 65.0028 15.498ZM68.8953 14.6357V13.8642L72.2989 8.4789H72.8586V9.67395H72.4804L69.9088 13.7432V13.8037H74.4923V14.6357H68.8953ZM72.5409 16.2241V14.4012V14.042V8.4789H73.4334V16.2241H72.5409ZM78.3299 16.33C77.8862 16.33 77.4866 16.2417 77.1311 16.0652C76.7756 15.8887 76.4907 15.6467 76.2764 15.3391C76.0621 15.0315 75.9449 14.6811 75.9247 14.2878H76.8323C76.8676 14.6382 77.0265 14.9282 77.3089 15.1576C77.5937 15.3845 77.9341 15.498 78.3299 15.498C78.6476 15.498 78.93 15.4236 79.1771 15.2748C79.4267 15.1261 79.6221 14.9219 79.7633 14.6622C79.907 14.4 79.9788 14.1037 79.9788 13.7734C79.9788 13.4356 79.9044 13.1343 79.7557 12.8696C79.6095 12.6023 79.4078 12.3918 79.1506 12.238C78.8934 12.0842 78.5997 12.0061 78.2694 12.0036C78.0324 12.001 77.7891 12.0376 77.5395 12.1132C77.2899 12.1863 77.0845 12.2809 76.9231 12.3969L76.0457 12.291L76.5147 8.4789H80.5385V9.3109H77.3013L77.029 11.5951H77.0744C77.2332 11.4691 77.4324 11.3644 77.6719 11.2812C77.9114 11.198 78.161 11.1564 78.4207 11.1564C78.8947 11.1564 79.317 11.2699 79.6876 11.4968C80.0608 11.7212 80.3532 12.0288 80.565 12.4196C80.7793 12.8103 80.8865 13.2566 80.8865 13.7583C80.8865 14.2525 80.7755 14.6937 80.5537 15.082C80.3343 15.4677 80.0318 15.7728 79.646 15.9972C79.2603 16.219 78.8216 16.33 78.3299 16.33ZM85.0058 16.33C84.5066 16.33 84.0616 16.2442 83.6708 16.0728C83.2826 15.9013 82.9737 15.6631 82.7443 15.358C82.5174 15.0504 82.3938 14.6937 82.3737 14.2878H83.3267C83.3468 14.5374 83.4326 14.7529 83.5838 14.9345C83.7351 15.1135 83.933 15.2521 84.1776 15.3505C84.4221 15.4488 84.6932 15.498 84.9907 15.498C85.3235 15.498 85.6185 15.44 85.8756 15.324C86.1328 15.208 86.3345 15.0467 86.4807 14.8399C86.6269 14.6332 86.7001 14.3937 86.7001 14.1214C86.7001 13.8365 86.6295 13.5856 86.4883 13.3688C86.3471 13.1494 86.1403 12.978 85.8681 12.8545C85.5958 12.7309 85.263 12.6692 84.8697 12.6692H84.2494V11.8372H84.8697C85.1772 11.8372 85.447 11.7817 85.679 11.6708C85.9134 11.5598 86.0962 11.4035 86.2273 11.2018C86.361 11.0001 86.4278 10.7631 86.4278 10.4908C86.4278 10.2286 86.3698 10.0004 86.2538 9.80631C86.1378 9.61218 85.9739 9.46091 85.7622 9.3525C85.5529 9.24408 85.3058 9.18988 85.0209 9.18988C84.7537 9.18988 84.5016 9.23904 84.2646 9.33737C84.0301 9.43318 83.8385 9.5731 83.6897 9.75715C83.541 9.93868 83.4603 10.158 83.4477 10.4152H82.5401C82.5552 10.0093 82.6775 9.65378 82.9069 9.34871C83.1363 9.04113 83.4363 8.80161 83.807 8.63017C84.1801 8.45873 84.5898 8.37301 85.0361 8.37301C85.5151 8.37301 85.926 8.47007 86.2689 8.66421C86.6118 8.85582 86.8753 9.1092 87.0593 9.42435C87.2434 9.7395 87.3354 10.0799 87.3354 10.4454C87.3354 10.8816 87.2207 11.2535 86.9913 11.5611C86.7643 11.8687 86.4555 12.0817 86.0647 12.2002V12.2607C86.5538 12.3414 86.9358 12.5494 87.2106 12.8847C87.4854 13.2175 87.6228 13.6297 87.6228 14.1214C87.6228 14.5424 87.5081 14.9206 87.2787 15.2559C87.0518 15.5887 86.7417 15.8509 86.3483 16.0425C85.955 16.2341 85.5075 16.33 85.0058 16.33Z" fill="white"/>
</g>
<defs>
<filter id="filter0_f_1_1290" x="0.166381" y="0.0227423" width="94.9444" height="24.6575" filterUnits="userSpaceOnUse" color-interpolation-filters="sRGB">
<feFlood flood-opacity="0" result="BackgroundImageFix"/>
<feBlend mode="normal" in="SourceGraphic" in2="BackgroundImageFix" result="shape"/>
<feGaussianBlur stdDeviation="3.744" result="effect1_foregroundBlur_1_1290"/>
</filter>
</defs>
</svg>
