<svg width="150" height="26" viewBox="0 0 150 26" fill="none" xmlns="http://www.w3.org/2000/svg">
<g filter="url(#filter0_f_95_158)">
<path d="M7.65438 12.7515C7.65438 11.7985 7.77792 10.9223 8.025 10.1231C8.2746 9.32136 8.63009 8.58391 9.09147 7.91074H9.87809C9.69656 8.16034 9.52638 8.46793 9.36755 8.83351C9.21123 9.19656 9.07382 9.59618 8.95533 10.0323C8.83683 10.466 8.74355 10.9148 8.67547 11.3787C8.60992 11.8426 8.57715 12.3002 8.57715 12.7515C8.57715 13.3515 8.63513 13.9604 8.75111 14.5781C8.86708 15.1958 9.0234 15.7694 9.22005 16.2988C9.41671 16.8283 9.63605 17.2594 9.87809 17.5922H9.09147C8.63009 16.919 8.2746 16.1828 8.025 15.3836C7.77792 14.5819 7.65438 13.7045 7.65438 12.7515ZM13.6003 16.7299C13.1566 16.7299 12.757 16.6417 12.4015 16.4652C12.046 16.2887 11.7611 16.0467 11.5468 15.7391C11.3325 15.4315 11.2153 15.0811 11.1951 14.6878H12.1027C12.138 15.0382 12.2969 15.3282 12.5793 15.5576C12.8642 15.7845 13.2045 15.8979 13.6003 15.8979C13.918 15.8979 14.2004 15.8236 14.4475 15.6748C14.6971 15.5261 14.8925 15.3218 15.0337 15.0622C15.1774 14.8 15.2492 14.5037 15.2492 14.1734C15.2492 13.8356 15.1748 13.5343 15.0261 13.2696C14.8799 13.0023 14.6782 12.7918 14.421 12.638C14.1638 12.4842 13.8701 12.4061 13.5398 12.4035C13.3028 12.401 13.0595 12.4376 12.8099 12.5132C12.5603 12.5863 12.3549 12.6809 12.1935 12.7969L11.3161 12.691L11.7851 8.87889H15.8089V9.71089H12.5717L12.2994 11.9951H12.3448C12.5036 11.869 12.7028 11.7644 12.9423 11.6812C13.1818 11.598 13.4314 11.5564 13.6911 11.5564C14.1651 11.5564 14.5874 11.6699 14.958 11.8968C15.3312 12.1212 15.6236 12.4288 15.8354 12.8195C16.0497 13.2103 16.1569 13.6566 16.1569 14.1583C16.1569 14.6525 16.0459 15.0937 15.8241 15.4819C15.6047 15.8677 15.3022 16.1728 14.9164 16.3971C14.5307 16.619 14.092 16.7299 13.6003 16.7299ZM20.1854 16.7299C19.6156 16.7299 19.1303 16.5749 18.7294 16.2648C18.3286 15.9522 18.0222 15.4996 17.8105 14.9071C17.5987 14.3121 17.4928 13.5936 17.4928 12.7515C17.4928 11.9144 17.5987 11.1997 17.8105 10.6072C18.0248 10.0122 18.3323 9.55836 18.7332 9.24573C19.1366 8.93057 19.6207 8.773 20.1854 8.773C20.7502 8.773 21.233 8.93057 21.6339 9.24573C22.0373 9.55836 22.3449 10.0122 22.5566 10.6072C22.7709 11.1997 22.8781 11.9144 22.8781 12.7515C22.8781 13.5936 22.7722 14.3121 22.5604 14.9071C22.3486 15.4996 22.0423 15.9522 21.6414 16.2648C21.2406 16.5749 20.7552 16.7299 20.1854 16.7299ZM20.1854 15.8979C20.7502 15.8979 21.1889 15.6257 21.5015 15.0811C21.8141 14.5365 21.9705 13.76 21.9705 12.7515C21.9705 12.0808 21.8986 11.5098 21.7549 11.0383C21.6137 10.5668 21.4095 10.2076 21.1422 9.96049C20.8775 9.71341 20.5586 9.58987 20.1854 9.58987C19.6257 9.58987 19.1883 9.86594 18.8731 10.4181C18.558 10.9677 18.4004 11.7455 18.4004 12.7515C18.4004 13.4221 18.471 13.9919 18.6122 14.4609C18.7534 14.9298 18.9563 15.2866 19.2211 15.5311C19.4883 15.7757 19.8098 15.8979 20.1854 15.8979ZM26.9322 16.7299C26.433 16.7299 25.988 16.6442 25.5972 16.4728C25.209 16.3013 24.9001 16.0631 24.6707 15.758C24.4438 15.4504 24.3202 15.0937 24.3001 14.6878H25.2531C25.2732 14.9374 25.359 15.1529 25.5102 15.3345C25.6615 15.5135 25.8594 15.6521 26.104 15.7505C26.3485 15.8488 26.6196 15.8979 26.9171 15.8979C27.2499 15.8979 27.5449 15.84 27.802 15.724C28.0592 15.608 28.2609 15.4466 28.4071 15.2399C28.5533 15.0332 28.6265 14.7937 28.6265 14.5214C28.6265 14.2365 28.5559 13.9856 28.4147 13.7688C28.2735 13.5494 28.0667 13.378 27.7945 13.2545C27.5222 13.1309 27.1894 13.0691 26.7961 13.0691H26.1758V12.2371H26.7961C27.1036 12.2371 27.3734 12.1817 27.6054 12.0707C27.8398 11.9598 28.0226 11.8035 28.1537 11.6018C28.2874 11.4001 28.3542 11.1631 28.3542 10.8908C28.3542 10.6286 28.2962 10.4004 28.1802 10.2063C28.0642 10.0122 27.9003 9.8609 27.6886 9.75249C27.4793 9.64408 27.2322 9.58987 26.9473 9.58987C26.6801 9.58987 26.428 9.63904 26.191 9.73736C25.9565 9.83317 25.7649 9.9731 25.6161 10.1571C25.4674 10.3387 25.3867 10.558 25.3741 10.8152H24.4665C24.4816 10.4093 24.6039 10.0538 24.8333 9.74871C25.0627 9.44112 25.3627 9.20161 25.7334 9.03016C26.1065 8.85872 26.5162 8.773 26.9625 8.773C27.4415 8.773 27.8524 8.87007 28.1953 9.0642C28.5382 9.25581 28.8017 9.50919 28.9857 9.82434C29.1698 10.1395 29.2618 10.4799 29.2618 10.8454C29.2618 11.2816 29.1471 11.6535 28.9177 11.9611C28.6907 12.2687 28.3819 12.4817 27.9911 12.6002V12.6607C28.4802 12.7414 28.8622 12.9494 29.137 13.2847C29.4118 13.6175 29.5492 14.0297 29.5492 14.5214C29.5492 14.9424 29.4345 15.3206 29.2051 15.6559C28.9782 15.9887 28.6681 16.2509 28.2747 16.4425C27.8814 16.6341 27.4339 16.7299 26.9322 16.7299ZM33.0171 12.7515C33.0171 13.7045 32.8923 14.5819 32.6427 15.3836C32.3957 16.1828 32.0414 16.919 31.5801 17.5922H30.7934C30.975 17.3426 31.1439 17.035 31.3002 16.6694C31.459 16.3064 31.5977 15.908 31.7162 15.4744C31.8347 15.0382 31.9267 14.5882 31.9923 14.1243C32.0603 13.6578 32.0944 13.2002 32.0944 12.7515C32.0944 12.1514 32.0364 11.5426 31.9204 10.9249C31.8044 10.3072 31.6481 9.73358 31.4515 9.20413C31.2548 8.67467 31.0355 8.24354 30.7934 7.91074H31.5801C32.0414 8.58391 32.3957 9.32136 32.6427 10.1231C32.8923 10.9223 33.0171 11.7985 33.0171 12.7515ZM38.2975 12.3355V13.1675H34.909V12.3355H38.2975ZM42.4244 16.7299C42.1067 16.7249 41.7891 16.6644 41.4714 16.5484C41.1537 16.4324 40.8638 16.237 40.6016 15.9622C40.3394 15.6849 40.1289 15.3105 39.97 14.839C39.8112 14.365 39.7318 13.77 39.7318 13.054C39.7318 12.3682 39.7961 11.7606 39.9246 11.2312C40.0532 10.6992 40.2398 10.2517 40.4843 9.88864C40.7289 9.52306 41.0239 9.24573 41.3693 9.05664C41.7172 8.86754 42.1093 8.773 42.5454 8.773C42.9791 8.773 43.3648 8.85998 43.7027 9.03394C44.043 9.20539 44.3204 9.4449 44.5347 9.75249C44.749 10.0601 44.8876 10.4143 44.9507 10.8152H44.0279C43.9422 10.4673 43.7758 10.1786 43.5287 9.94914C43.2816 9.71971 42.9539 9.605 42.5454 9.605C41.9454 9.605 41.4727 9.86594 41.1273 10.3878C40.7844 10.9097 40.6117 11.6421 40.6091 12.5851H40.6697C40.8108 12.3708 40.9785 12.188 41.1726 12.0367C41.3693 11.8829 41.5861 11.7644 41.8231 11.6812C42.0601 11.598 42.311 11.5564 42.5757 11.5564C43.0194 11.5564 43.4253 11.6674 43.7934 11.8892C44.1615 12.1086 44.4565 12.4124 44.6784 12.8006C44.9002 13.1864 45.0112 13.6289 45.0112 14.1281C45.0112 14.6071 44.904 15.0458 44.6897 15.4441C44.4754 15.84 44.1741 16.1551 43.7859 16.3896C43.4001 16.6215 42.9463 16.735 42.4244 16.7299ZM42.4244 15.8979C42.7421 15.8979 43.027 15.8185 43.2791 15.6597C43.5338 15.5009 43.7342 15.2878 43.8804 15.0206C44.0292 14.7533 44.1035 14.4558 44.1035 14.1281C44.1035 13.8079 44.0317 13.5167 43.888 13.2545C43.7468 12.9897 43.5514 12.7792 43.3018 12.6229C43.0547 12.4666 42.7723 12.3884 42.4547 12.3884C42.2152 12.3884 41.992 12.4363 41.7853 12.5321C41.5786 12.6254 41.397 12.754 41.2407 12.9179C41.0869 13.0818 40.9659 13.2696 40.8777 13.4814C40.7894 13.6906 40.7453 13.9112 40.7453 14.1432C40.7453 14.4508 40.8171 14.7382 40.9609 15.0054C41.1071 15.2727 41.3063 15.4882 41.5584 15.6521C41.813 15.816 42.1017 15.8979 42.4244 15.8979ZM46.7404 16.6241L50.2046 9.7714V9.71089H46.211V8.87889H51.1727V9.75627L47.7237 16.6241H46.7404ZM55.3053 8.87889V16.6241H54.3674V9.86216H54.322L52.4311 11.1177V10.1647L54.3674 8.87889H55.3053ZM60.8759 12.3355V13.1675H57.4874V12.3355H60.8759ZM65.0028 16.7299C64.6851 16.7249 64.3675 16.6644 64.0498 16.5484C63.7321 16.4324 63.4422 16.237 63.18 15.9622C62.9178 15.6849 62.7073 15.3105 62.5484 14.839C62.3896 14.365 62.3102 13.77 62.3102 13.054C62.3102 12.3682 62.3745 11.7606 62.503 11.2312C62.6316 10.6992 62.8182 10.2517 63.0627 9.88864C63.3073 9.52306 63.6023 9.24573 63.9477 9.05664C64.2956 8.86754 64.6877 8.773 65.1238 8.773C65.5575 8.773 65.9432 8.85998 66.2811 9.03394C66.6214 9.20539 66.8988 9.4449 67.1131 9.75249C67.3274 10.0601 67.466 10.4143 67.5291 10.8152H66.6063C66.5206 10.4673 66.3542 10.1786 66.1071 9.94914C65.86 9.71971 65.5323 9.605 65.1238 9.605C64.5238 9.605 64.0511 9.86594 63.7057 10.3878C63.3628 10.9097 63.1901 11.6421 63.1875 12.5851H63.2481C63.3892 12.3708 63.5569 12.188 63.751 12.0367C63.9477 11.8829 64.1645 11.7644 64.4015 11.6812C64.6385 11.598 64.8894 11.5564 65.1541 11.5564C65.5978 11.5564 66.0037 11.6674 66.3718 11.8892C66.7399 12.1086 67.0349 12.4124 67.2568 12.8006C67.4786 13.1864 67.5896 13.6289 67.5896 14.1281C67.5896 14.6071 67.4824 15.0458 67.2681 15.4441C67.0538 15.84 66.7525 16.1551 66.3643 16.3896C65.9785 16.6215 65.5247 16.735 65.0028 16.7299ZM65.0028 15.8979C65.3205 15.8979 65.6054 15.8185 65.8575 15.6597C66.1122 15.5009 66.3126 15.2878 66.4588 15.0206C66.6076 14.7533 66.6819 14.4558 66.6819 14.1281C66.6819 13.8079 66.6101 13.5167 66.4664 13.2545C66.3252 12.9897 66.1298 12.7792 65.8802 12.6229C65.6331 12.4666 65.3507 12.3884 65.0331 12.3884C64.7936 12.3884 64.5704 12.4363 64.3637 12.5321C64.157 12.6254 63.9754 12.754 63.8191 12.9179C63.6653 13.0818 63.5443 13.2696 63.4561 13.4814C63.3678 13.6906 63.3237 13.9112 63.3237 14.1432C63.3237 14.4508 63.3955 14.7382 63.5393 15.0054C63.6855 15.2727 63.8847 15.4882 64.1368 15.6521C64.3914 15.816 64.6801 15.8979 65.0028 15.8979ZM68.8953 15.0357V14.2642L72.2989 8.87889H72.8586V10.0739H72.4804L69.9088 14.1432V14.2037H74.4923V15.0357H68.8953ZM72.5409 16.6241V14.8012V14.4419V8.87889H73.4334V16.6241H72.5409ZM78.3299 16.7299C77.8862 16.7299 77.4866 16.6417 77.1311 16.4652C76.7756 16.2887 76.4907 16.0467 76.2764 15.7391C76.0621 15.4315 75.9449 15.0811 75.9247 14.6878H76.8323C76.8676 15.0382 77.0265 15.3282 77.3089 15.5576C77.5937 15.7845 77.9341 15.8979 78.3299 15.8979C78.6476 15.8979 78.93 15.8236 79.1771 15.6748C79.4267 15.5261 79.6221 15.3218 79.7633 15.0622C79.907 14.8 79.9788 14.5037 79.9788 14.1734C79.9788 13.8356 79.9044 13.5343 79.7557 13.2696C79.6095 13.0023 79.4078 12.7918 79.1506 12.638C78.8934 12.4842 78.5997 12.4061 78.2694 12.4035C78.0324 12.401 77.7891 12.4376 77.5395 12.5132C77.2899 12.5863 77.0845 12.6809 76.9231 12.7969L76.0457 12.691L76.5147 8.87889H80.5385V9.71089H77.3013L77.029 11.9951H77.0744C77.2332 11.869 77.4324 11.7644 77.6719 11.6812C77.9114 11.598 78.161 11.5564 78.4207 11.5564C78.8947 11.5564 79.317 11.6699 79.6876 11.8968C80.0608 12.1212 80.3532 12.4288 80.565 12.8195C80.7793 13.2103 80.8865 13.6566 80.8865 14.1583C80.8865 14.6525 80.7755 15.0937 80.5537 15.4819C80.3343 15.8677 80.0318 16.1728 79.646 16.3971C79.2603 16.619 78.8216 16.7299 78.3299 16.7299ZM85.0058 16.7299C84.5066 16.7299 84.0616 16.6442 83.6708 16.4728C83.2826 16.3013 82.9737 16.0631 82.7443 15.758C82.5174 15.4504 82.3938 15.0937 82.3737 14.6878H83.3267C83.3468 14.9374 83.4326 15.1529 83.5838 15.3345C83.7351 15.5135 83.933 15.6521 84.1776 15.7505C84.4221 15.8488 84.6932 15.8979 84.9907 15.8979C85.3235 15.8979 85.6185 15.84 85.8756 15.724C86.1328 15.608 86.3345 15.4466 86.4807 15.2399C86.6269 15.0332 86.7001 14.7937 86.7001 14.5214C86.7001 14.2365 86.6295 13.9856 86.4883 13.7688C86.3471 13.5494 86.1403 13.378 85.8681 13.2545C85.5958 13.1309 85.263 13.0691 84.8697 13.0691H84.2494V12.2371H84.8697C85.1772 12.2371 85.447 12.1817 85.679 12.0707C85.9134 11.9598 86.0962 11.8035 86.2273 11.6018C86.361 11.4001 86.4278 11.1631 86.4278 10.8908C86.4278 10.6286 86.3698 10.4004 86.2538 10.2063C86.1378 10.0122 85.9739 9.8609 85.7622 9.75249C85.5529 9.64408 85.3058 9.58987 85.0209 9.58987C84.7537 9.58987 84.5016 9.63904 84.2646 9.73736C84.0301 9.83317 83.8385 9.9731 83.6897 10.1571C83.541 10.3387 83.4603 10.558 83.4477 10.8152H82.5401C82.5552 10.4093 82.6775 10.0538 82.9069 9.74871C83.1363 9.44112 83.4363 9.20161 83.807 9.03016C84.1801 8.85872 84.5898 8.773 85.0361 8.773C85.5151 8.773 85.926 8.87007 86.2689 9.0642C86.6118 9.25581 86.8753 9.50919 87.0593 9.82434C87.2434 10.1395 87.3354 10.4799 87.3354 10.8454C87.3354 11.2816 87.2207 11.6535 86.9913 11.9611C86.7643 12.2687 86.4555 12.4817 86.0647 12.6002V12.6607C86.5538 12.7414 86.9358 12.9494 87.2106 13.2847C87.4854 13.6175 87.6228 14.0297 87.6228 14.5214C87.6228 14.9424 87.5081 15.3206 87.2787 15.6559C87.0518 15.9887 86.7417 16.2509 86.3483 16.4425C85.955 16.6341 85.5075 16.7299 85.0058 16.7299Z" fill="white"/>
</g>
<path d="M102.956 16.7451C102.396 16.7451 101.914 16.6215 101.508 16.3745C101.104 16.1249 100.793 15.7769 100.574 15.3307C100.357 14.8819 100.248 14.36 100.248 13.765C100.248 13.17 100.357 12.6456 100.574 12.1918C100.793 11.7354 101.098 11.3799 101.489 11.1253C101.882 10.8681 102.341 10.7395 102.865 10.7395C103.168 10.7395 103.467 10.79 103.762 10.8908C104.057 10.9917 104.325 11.1555 104.567 11.3825C104.809 11.6068 105.002 11.9043 105.146 12.275C105.29 12.6456 105.361 13.1019 105.361 13.644V14.0222H100.884V13.2507H104.454C104.454 12.9229 104.388 12.6305 104.257 12.3733C104.129 12.1161 103.945 11.9132 103.705 11.7644C103.468 11.6157 103.188 11.5413 102.865 11.5413C102.51 11.5413 102.202 11.6295 101.943 11.806C101.686 11.98 101.488 12.2069 101.349 12.4867C101.21 12.7666 101.141 13.0666 101.141 13.3868V13.9011C101.141 14.3398 101.217 14.7117 101.368 15.0168C101.522 15.3193 101.735 15.55 102.007 15.7089C102.279 15.8652 102.596 15.9433 102.956 15.9433C103.191 15.9433 103.402 15.9106 103.592 15.845C103.783 15.7769 103.948 15.6761 104.087 15.5425C104.226 15.4063 104.333 15.2374 104.408 15.0357L105.271 15.2777C105.18 15.5702 105.027 15.8274 104.813 16.0492C104.599 16.2686 104.334 16.44 104.019 16.5635C103.704 16.6846 103.35 16.7451 102.956 16.7451ZM107.229 10.8152L108.62 13.1902L110.012 10.8152H111.041L109.165 13.7196L111.041 16.6241H110.012L108.62 14.3701L107.229 16.6241H106.2L108.046 13.7196L106.2 10.8152H107.229ZM114.841 10.8152V11.5715H111.83V10.8152H114.841ZM112.708 9.42347H113.6V14.9601C113.6 15.2122 113.637 15.4013 113.71 15.5273C113.785 15.6509 113.881 15.7341 113.997 15.7769C114.116 15.8173 114.241 15.8374 114.372 15.8374C114.47 15.8374 114.551 15.8324 114.614 15.8223C114.677 15.8097 114.727 15.7996 114.765 15.7921L114.946 16.5938C114.886 16.6165 114.801 16.6392 114.693 16.6619C114.585 16.6871 114.447 16.6997 114.281 16.6997C114.029 16.6997 113.782 16.6455 113.54 16.5371C113.3 16.4287 113.101 16.2635 112.942 16.0417C112.786 15.8198 112.708 15.5399 112.708 15.2021V9.42347ZM116.834 16.6846C116.647 16.6846 116.487 16.6178 116.353 16.4841C116.22 16.3505 116.153 16.1904 116.153 16.0038C116.153 15.8173 116.22 15.6572 116.353 15.5235C116.487 15.3899 116.647 15.3231 116.834 15.3231C117.02 15.3231 117.18 15.3899 117.314 15.5235C117.448 15.6572 117.514 15.8173 117.514 16.0038C117.514 16.1274 117.483 16.2408 117.42 16.3442C117.359 16.4476 117.277 16.5308 117.174 16.5938C117.073 16.6543 116.96 16.6846 116.834 16.6846ZM116.834 12.3733C116.647 12.3733 116.487 12.3065 116.353 12.1729C116.22 12.0392 116.153 11.8791 116.153 11.6926C116.153 11.506 116.22 11.3459 116.353 11.2123C116.487 11.0786 116.647 11.0118 116.834 11.0118C117.02 11.0118 117.18 11.0786 117.314 11.2123C117.448 11.3459 117.514 11.506 117.514 11.6926C117.514 11.8161 117.483 11.9296 117.42 12.0329C117.359 12.1363 117.277 12.2195 117.174 12.2825C117.073 12.343 116.96 12.3733 116.834 12.3733Z" fill="white"/>
<g filter="url(#filter1_f_95_158)">
<path d="M127.916 16.7451C127.357 16.7451 126.874 16.6215 126.468 16.3745C126.064 16.1249 125.753 15.7769 125.534 15.3307C125.317 14.8819 125.208 14.36 125.208 13.765C125.208 13.17 125.317 12.6456 125.534 12.1918C125.753 11.7354 126.058 11.3799 126.449 11.1253C126.842 10.8681 127.301 10.7395 127.825 10.7395C128.128 10.7395 128.427 10.79 128.722 10.8908C129.017 10.9917 129.285 11.1555 129.527 11.3825C129.769 11.6068 129.962 11.9043 130.106 12.275C130.25 12.6456 130.321 13.1019 130.321 13.644V14.0222H125.844V13.2507H129.414C129.414 12.9229 129.348 12.6305 129.217 12.3733C129.089 12.1161 128.905 11.9132 128.665 11.7644C128.428 11.6157 128.148 11.5413 127.825 11.5413C127.47 11.5413 127.162 11.6295 126.903 11.806C126.646 11.98 126.448 12.2069 126.309 12.4867C126.17 12.7666 126.101 13.0666 126.101 13.3868V13.9011C126.101 14.3398 126.177 14.7117 126.328 15.0168C126.482 15.3193 126.695 15.55 126.967 15.7089C127.239 15.8652 127.556 15.9433 127.916 15.9433C128.151 15.9433 128.362 15.9106 128.552 15.845C128.743 15.7769 128.908 15.6761 129.047 15.5425C129.186 15.4063 129.293 15.2374 129.368 15.0357L130.231 15.2777C130.14 15.5702 129.987 15.8274 129.773 16.0492C129.559 16.2686 129.294 16.44 128.979 16.5635C128.664 16.6846 128.31 16.7451 127.916 16.7451ZM132.189 10.8152L133.58 13.1902L134.972 10.8152H136.001L134.125 13.7196L136.001 16.6241H134.972L133.58 14.3701L132.189 16.6241H131.16L133.006 13.7196L131.16 10.8152H132.189ZM139.801 10.8152V11.5715H136.79V10.8152H139.801ZM137.668 9.42347H138.56V14.9601C138.56 15.2122 138.597 15.4013 138.67 15.5273C138.745 15.6509 138.841 15.7341 138.957 15.7769C139.076 15.8173 139.201 15.8374 139.332 15.8374C139.43 15.8374 139.511 15.8324 139.574 15.8223C139.637 15.8097 139.687 15.7996 139.725 15.7921L139.906 16.5938C139.846 16.6165 139.761 16.6392 139.653 16.6619C139.545 16.6871 139.407 16.6997 139.241 16.6997C138.989 16.6997 138.742 16.6455 138.5 16.5371C138.26 16.4287 138.061 16.2635 137.902 16.0417C137.746 15.8198 137.668 15.5399 137.668 15.2021V9.42347ZM141.794 16.6846C141.607 16.6846 141.447 16.6178 141.313 16.4841C141.18 16.3505 141.113 16.1904 141.113 16.0038C141.113 15.8173 141.18 15.6572 141.313 15.5235C141.447 15.3899 141.607 15.3231 141.794 15.3231C141.98 15.3231 142.14 15.3899 142.274 15.5235C142.408 15.6572 142.474 15.8173 142.474 16.0038C142.474 16.1274 142.443 16.2408 142.38 16.3442C142.319 16.4476 142.237 16.5308 142.134 16.5938C142.033 16.6543 141.92 16.6846 141.794 16.6846ZM141.794 12.3733C141.607 12.3733 141.447 12.3065 141.313 12.1729C141.18 12.0392 141.113 11.8791 141.113 11.6926C141.113 11.506 141.18 11.3459 141.313 11.2123C141.447 11.0786 141.607 11.0118 141.794 11.0118C141.98 11.0118 142.14 11.0786 142.274 11.2123C142.408 11.3459 142.474 11.506 142.474 11.6926C142.474 11.8161 142.443 11.9296 142.38 12.0329C142.319 12.1363 142.237 12.2195 142.134 12.2825C142.033 12.343 141.92 12.3733 141.794 12.3733Z" fill="white"/>
</g>
<defs>
<filter id="filter0_f_95_158" x="0.166381" y="0.422736" width="94.9444" height="24.6575" filterUnits="userSpaceOnUse" color-interpolation-filters="sRGB">
<feFlood flood-opacity="0" result="BackgroundImageFix"/>
<feBlend mode="normal" in="SourceGraphic" in2="BackgroundImageFix" result="shape"/>
<feGaussianBlur stdDeviation="3.744" result="effect1_foregroundBlur_95_158"/>
</filter>
<filter id="filter1_f_95_158" x="117.72" y="1.93546" width="32.2419" height="22.2976" filterUnits="userSpaceOnUse" color-interpolation-filters="sRGB">
<feFlood flood-opacity="0" result="BackgroundImageFix"/>
<feBlend mode="normal" in="SourceGraphic" in2="BackgroundImageFix" result="shape"/>
<feGaussianBlur stdDeviation="3.744" result="effect1_foregroundBlur_95_158"/>
</filter>
</defs>
</svg>
