<svg width="148" height="26" viewBox="0 0 148 26" fill="none" xmlns="http://www.w3.org/2000/svg">
<g filter="url(#filter0_f_1_1279)">
<path d="M14.6902 10.6992H13.7523C13.6968 10.4295 13.5997 10.1925 13.4611 9.98827C13.3249 9.78405 13.1585 9.61261 12.9619 9.47394C12.7677 9.33275 12.5522 9.22686 12.3152 9.15627C12.0782 9.08567 11.8311 9.05037 11.5739 9.05037C11.105 9.05037 10.6802 9.16887 10.2995 9.40587C9.92129 9.64286 9.62001 9.99205 9.39562 10.4534C9.17375 10.9148 9.06282 11.4808 9.06282 12.1515C9.06282 12.8221 9.17375 13.3881 9.39562 13.8495C9.62001 14.3109 9.92129 14.6601 10.2995 14.8971C10.6802 15.1341 11.105 15.2526 11.5739 15.2526C11.8311 15.2526 12.0782 15.2173 12.3152 15.1467C12.5522 15.0761 12.7677 14.9714 12.9619 14.8328C13.1585 14.6916 13.3249 14.5189 13.4611 14.3147C13.5997 14.1079 13.6968 13.8709 13.7523 13.6037H14.6902C14.6196 13.9995 14.491 14.3537 14.3044 14.6664C14.1178 14.979 13.8859 15.245 13.6086 15.4643C13.3312 15.6812 13.0199 15.8463 12.6745 15.9598C12.3316 16.0732 11.9647 16.1299 11.5739 16.1299C10.9134 16.1299 10.3259 15.9686 9.81162 15.6459C9.29729 15.3232 8.89264 14.8643 8.59765 14.2693C8.30267 13.6743 8.15518 12.9683 8.15518 12.1515C8.15518 11.3346 8.30267 10.6287 8.59765 10.0336C8.89264 9.43864 9.29729 8.97978 9.81162 8.65707C10.3259 8.33435 10.9134 8.17299 11.5739 8.17299C11.9647 8.17299 12.3316 8.22972 12.6745 8.34317C13.0199 8.45663 13.3312 8.62303 13.6086 8.84237C13.8859 9.0592 14.1178 9.32393 14.3044 9.63656C14.491 9.94667 14.6196 10.3009 14.6902 10.6992ZM17.7941 16.1602C17.426 16.1602 17.0919 16.0909 16.7919 15.9522C16.4919 15.811 16.2536 15.608 16.0771 15.3433C15.9007 15.0761 15.8124 14.7534 15.8124 14.3752C15.8124 14.0424 15.878 13.7726 16.0091 13.5659C16.1402 13.3566 16.3154 13.1927 16.5347 13.0742C16.7541 12.9557 16.9961 12.8675 17.2609 12.8095C17.5281 12.749 17.7966 12.7011 18.0664 12.6658C18.4194 12.6204 18.7055 12.5864 18.9249 12.5637C19.1467 12.5385 19.3081 12.4969 19.4089 12.4389C19.5123 12.3809 19.564 12.28 19.564 12.1363V12.1061C19.564 11.7329 19.4619 11.443 19.2577 11.2363C19.056 11.0295 18.7496 10.9262 18.3387 10.9262C17.9126 10.9262 17.5785 11.0194 17.3365 11.206C17.0945 11.3926 16.9243 11.5918 16.8259 11.8035L15.9788 11.501C16.1301 11.148 16.3318 10.8732 16.5839 10.6766C16.8386 10.4774 17.1159 10.3387 17.4159 10.2606C17.7185 10.1799 18.016 10.1395 18.3084 10.1395C18.495 10.1395 18.7093 10.1622 18.9513 10.2076C19.1959 10.2505 19.4316 10.34 19.6585 10.4761C19.888 10.6123 20.0783 10.8177 20.2296 11.0926C20.3809 11.3674 20.4565 11.7355 20.4565 12.1968V16.024H19.564V15.2374H19.5186C19.4581 15.3635 19.3572 15.4984 19.2161 15.6421C19.0749 15.7858 18.887 15.9081 18.6526 16.0089C18.4181 16.1098 18.1319 16.1602 17.7941 16.1602ZM17.9302 15.3584C18.2832 15.3584 18.5807 15.2891 18.8227 15.1504C19.0673 15.0118 19.2514 14.8328 19.3749 14.6134C19.501 14.3941 19.564 14.1634 19.564 13.9214V13.1045C19.5262 13.1499 19.443 13.1915 19.3144 13.2293C19.1883 13.2646 19.0421 13.2961 18.8757 13.3238C18.7118 13.349 18.5517 13.3717 18.3954 13.3919C18.2416 13.4096 18.1168 13.4247 18.021 13.4373C17.789 13.4675 17.5722 13.5167 17.3705 13.5848C17.1714 13.6503 17.01 13.7499 16.8865 13.8835C16.7654 14.0146 16.7049 14.1936 16.7049 14.4206C16.7049 14.7307 16.8196 14.9651 17.0491 15.124C17.281 15.2803 17.5747 15.3584 17.9302 15.3584ZM22.0855 16.024V10.2152H22.978V16.024H22.0855ZM22.5393 9.24703C22.3654 9.24703 22.2154 9.18778 22.0893 9.06928C21.9658 8.95079 21.904 8.80834 21.904 8.64194C21.904 8.47554 21.9658 8.33309 22.0893 8.21459C22.2154 8.0961 22.3654 8.03685 22.5393 8.03685C22.7133 8.03685 22.862 8.0961 22.9856 8.21459C23.1116 8.33309 23.1747 8.47554 23.1747 8.64194C23.1747 8.80834 23.1116 8.95079 22.9856 9.06928C22.862 9.18778 22.7133 9.24703 22.5393 9.24703ZM27.139 10.2152V10.9715H24.1286V10.2152H27.139ZM25.006 8.82347H25.8985V14.36C25.8985 14.6122 25.9351 14.8013 26.0082 14.9273C26.0838 15.0509 26.1796 15.1341 26.2956 15.1769C26.4141 15.2173 26.5389 15.2374 26.67 15.2374C26.7683 15.2374 26.849 15.2324 26.9121 15.2223C26.9751 15.2097 27.0255 15.1996 27.0633 15.192L27.2449 15.9938C27.1843 16.0165 27.0999 16.0392 26.9915 16.0619C26.8831 16.0871 26.7457 16.0997 26.5793 16.0997C26.3271 16.0997 26.0801 16.0455 25.838 15.9371C25.5985 15.8287 25.3993 15.6635 25.2405 15.4416C25.0842 15.2198 25.006 14.9399 25.006 14.6021V8.82347ZM29.4988 8.27888V16.024H28.6063V8.27888H29.4988ZM31.1335 16.024V10.2152H32.026V16.024H31.1335ZM31.5873 9.24703C31.4134 9.24703 31.2634 9.18778 31.1373 9.06928C31.0138 8.95079 30.952 8.80834 30.952 8.64194C30.952 8.47554 31.0138 8.33309 31.1373 8.21459C31.2634 8.0961 31.4134 8.03685 31.5873 8.03685C31.7613 8.03685 31.91 8.0961 32.0336 8.21459C32.1596 8.33309 32.2227 8.47554 32.2227 8.64194C32.2227 8.80834 32.1596 8.95079 32.0336 9.06928C31.91 9.18778 31.7613 9.24703 31.5873 9.24703ZM34.5532 12.5296V16.024H33.6607V10.2152H34.523V11.1228H34.5986C34.7347 10.8278 34.9415 10.5908 35.2188 10.4118C35.4962 10.2303 35.8542 10.1395 36.2929 10.1395C36.6862 10.1395 37.0303 10.2202 37.3253 10.3816C37.6203 10.5404 37.8497 10.7824 38.0136 11.1077C38.1775 11.4304 38.2594 11.8388 38.2594 12.333V16.024H37.3669V12.3935C37.3669 11.9372 37.2484 11.5817 37.0114 11.327C36.7744 11.0699 36.4492 10.9413 36.0357 10.9413C35.7508 10.9413 35.4962 11.0031 35.2718 11.1266C35.0499 11.2501 34.8747 11.4304 34.7461 11.6674C34.6175 11.9044 34.5532 12.1918 34.5532 12.5296ZM44.247 10.2152C44.2016 9.83195 44.0175 9.53445 43.6948 9.32267C43.3721 9.11088 42.9763 9.00499 42.5073 9.00499C42.1644 9.00499 41.8644 9.06046 41.6073 9.17139C41.3526 9.28233 41.1534 9.43486 41.0097 9.62899C40.8685 9.82313 40.7979 10.0437 40.7979 10.2908C40.7979 10.4976 40.8471 10.6753 40.9454 10.824C41.0463 10.9703 41.1749 11.0926 41.3312 11.1909C41.4875 11.2867 41.6514 11.3661 41.8228 11.4291C41.9943 11.4896 42.1518 11.5388 42.2955 11.5766L43.0822 11.7884C43.2839 11.8414 43.5082 11.9145 43.7553 12.0078C44.0049 12.101 44.2432 12.2284 44.4701 12.3897C44.6995 12.5486 44.8886 12.7528 45.0374 13.0024C45.1861 13.252 45.2605 13.5583 45.2605 13.9214C45.2605 14.3399 45.1508 14.7181 44.9315 15.0559C44.7146 15.3937 44.397 15.6623 43.9785 15.8614C43.5625 16.0606 43.057 16.1602 42.4619 16.1602C41.9073 16.1602 41.427 16.0707 41.0211 15.8917C40.6177 15.7127 40.3 15.4631 40.0681 15.1429C39.8386 14.8227 39.7088 14.4508 39.6785 14.0272H40.6467C40.6719 14.3197 40.7702 14.5617 40.9417 14.7534C41.1156 14.9424 41.335 15.0836 41.5997 15.1769C41.8669 15.2677 42.1544 15.3131 42.4619 15.3131C42.82 15.3131 43.1414 15.2551 43.4263 15.1391C43.7112 15.0206 43.9369 14.8567 44.1033 14.6475C44.2697 14.4357 44.3529 14.1886 44.3529 13.9062C44.3529 13.6491 44.281 13.4398 44.1373 13.2784C43.9936 13.1171 43.8045 12.986 43.57 12.8851C43.3355 12.7843 43.0822 12.696 42.8099 12.6204L41.8569 12.3481C41.2518 12.1742 40.7727 11.9258 40.4198 11.6031C40.0668 11.2804 39.8903 10.8581 39.8903 10.3362C39.8903 9.90254 40.0075 9.52436 40.242 9.20165C40.479 8.87641 40.7967 8.62429 41.195 8.44528C41.5959 8.26376 42.0434 8.17299 42.5376 8.17299C43.0368 8.17299 43.4805 8.2625 43.8688 8.4415C44.257 8.61799 44.5646 8.86002 44.7915 9.16761C45.021 9.4752 45.142 9.82439 45.1546 10.2152H44.247ZM51.1441 18.0662C50.3726 18.0662 49.6906 17.9603 49.0981 17.7486C48.5056 17.5393 48.0077 17.2304 47.6043 16.822C47.2009 16.4136 46.8958 15.9131 46.6891 15.3206C46.4823 14.7281 46.379 14.0499 46.379 13.286C46.379 12.5473 46.4836 11.8867 46.6929 11.3043C46.9046 10.7219 47.211 10.2278 47.6118 9.82187C48.0152 9.41343 48.5043 9.10206 49.0792 8.88776C49.6565 8.67345 50.3095 8.5663 51.0382 8.5663C51.7466 8.5663 52.3668 8.68228 52.8988 8.91423C53.4333 9.14366 53.8796 9.45503 54.2376 9.84834C54.5981 10.2391 54.8679 10.6791 55.0469 11.1682C55.2284 11.6573 55.3192 12.1616 55.3192 12.6809C55.3192 13.0465 55.3015 13.4171 55.2662 13.7928C55.2309 14.1684 55.1566 14.5138 55.0431 14.829C54.9297 15.1416 54.7544 15.3937 54.5174 15.5854C54.283 15.777 53.9653 15.8728 53.5644 15.8728C53.3879 15.8728 53.1938 15.845 52.982 15.7896C52.7702 15.7341 52.5824 15.6421 52.4185 15.5135C52.2546 15.3849 52.1576 15.2122 52.1273 14.9954H52.0819C52.0214 15.1416 51.9282 15.2803 51.8021 15.4114C51.6786 15.5425 51.5159 15.6471 51.3142 15.7253C51.1151 15.8034 50.8718 15.8375 50.5843 15.8274C50.2566 15.8148 49.9679 15.7417 49.7183 15.608C49.4687 15.4719 49.2594 15.2879 49.0905 15.0559C48.9241 14.8214 48.7981 14.5504 48.7123 14.2428C48.6291 13.9327 48.5875 13.5986 48.5875 13.2406C48.5875 12.9003 48.638 12.5889 48.7388 12.3065C48.8397 12.0241 48.9796 11.7771 49.1586 11.5653C49.3401 11.3535 49.5519 11.1846 49.7939 11.0585C50.0385 10.9299 50.302 10.8505 50.5843 10.8203C50.8365 10.7951 51.0659 10.8064 51.2726 10.8543C51.4794 10.8997 51.6496 10.969 51.7832 11.0623C51.9168 11.1531 52.0013 11.2539 52.0366 11.3648H52.0819V10.9413H52.8837V14.36C52.8837 14.5718 52.9429 14.7584 53.0614 14.9198C53.1799 15.0811 53.3526 15.1618 53.5795 15.1618C53.8367 15.1618 54.0334 15.0736 54.1695 14.8971C54.3082 14.7206 54.4027 14.4483 54.4531 14.0802C54.5061 13.7121 54.5326 13.2406 54.5326 12.6658C54.5326 12.328 54.4859 11.9952 54.3926 11.6674C54.3019 11.3371 54.1632 11.0283 53.9766 10.7408C53.7926 10.4534 53.5594 10.2 53.277 9.9807C52.9946 9.76136 52.6631 9.58991 52.2824 9.46637C51.9042 9.34031 51.4743 9.27728 50.9928 9.27728C50.4003 9.27728 49.8696 9.36931 49.4006 9.55336C48.9342 9.73488 48.5371 10.0009 48.2094 10.3513C47.8841 10.6992 47.6358 11.1228 47.4643 11.622C47.2954 12.1187 47.211 12.6834 47.211 13.3163C47.211 13.9592 47.2954 14.5302 47.4643 15.0294C47.6358 15.5286 47.8879 15.9497 48.2207 16.2926C48.556 16.6354 48.9708 16.8951 49.4649 17.0716C49.9591 17.2506 50.5289 17.3401 51.1743 17.3401C51.4516 17.3401 51.7252 17.3136 51.995 17.2607C52.2647 17.2078 52.503 17.1498 52.7097 17.0867C52.9165 17.0237 53.0652 16.9771 53.156 16.9468L53.3678 17.6427C53.2114 17.7082 53.0072 17.7738 52.7551 17.8393C52.5055 17.9049 52.2383 17.9591 51.9534 18.0019C51.671 18.0448 51.4012 18.0662 51.1441 18.0662ZM50.7054 15.0559C51.0432 15.0559 51.3168 14.9878 51.526 14.8517C51.7353 14.7155 51.8878 14.5101 51.9836 14.2352C52.0794 13.9604 52.1273 13.6138 52.1273 13.1952C52.1273 12.7717 52.0744 12.4414 51.9685 12.2044C51.8626 11.9674 51.7063 11.801 51.4995 11.7052C51.2928 11.6094 51.0382 11.5615 50.7356 11.5615C50.4482 11.5615 50.2024 11.6371 49.9982 11.7884C49.7965 11.9372 49.6414 12.1363 49.533 12.3859C49.4271 12.633 49.3742 12.9028 49.3742 13.1952C49.3742 13.518 49.417 13.8218 49.5027 14.1067C49.5885 14.389 49.7284 14.6185 49.9225 14.795C50.1167 14.9689 50.3776 15.0559 50.7054 15.0559ZM56.6551 10.2152H57.5476V16.4476C57.5476 16.8056 57.4858 17.1157 57.3623 17.3779C57.2413 17.6401 57.0572 17.8431 56.8102 17.9868C56.5656 18.1305 56.2568 18.2024 55.8836 18.2024C55.8534 18.2024 55.8231 18.2024 55.7929 18.2024C55.7626 18.2024 55.7323 18.2024 55.7021 18.2024V17.3704C55.7323 17.3704 55.7601 17.3704 55.7853 17.3704C55.8105 17.3704 55.8382 17.3704 55.8685 17.3704C56.1408 17.3704 56.34 17.2897 56.466 17.1283C56.5921 16.9695 56.6551 16.7426 56.6551 16.4476V10.2152ZM57.0938 9.24703C56.9198 9.24703 56.7698 9.18778 56.6438 9.06928C56.5202 8.95079 56.4585 8.80834 56.4585 8.64194C56.4585 8.47554 56.5202 8.33309 56.6438 8.21459C56.7698 8.0961 56.9198 8.03685 57.0938 8.03685C57.2678 8.03685 57.4165 8.0961 57.5401 8.21459C57.6661 8.33309 57.7291 8.47554 57.7291 8.64194C57.7291 8.80834 57.6661 8.95079 57.5401 9.06928C57.4165 9.18778 57.2678 9.24703 57.0938 9.24703ZM61.5422 16.1451C61.0178 16.1451 60.5576 16.0203 60.1618 15.7707C59.7685 15.5211 59.4609 15.1719 59.239 14.7231C59.0197 14.2743 58.91 13.7499 58.91 13.1499C58.91 12.5448 59.0197 12.0166 59.239 11.5653C59.4609 11.114 59.7685 10.7635 60.1618 10.5139C60.5576 10.2643 61.0178 10.1395 61.5422 10.1395C62.0666 10.1395 62.5254 10.2643 62.9187 10.5139C63.3146 10.7635 63.6222 11.114 63.8415 11.5653C64.0634 12.0166 64.1743 12.5448 64.1743 13.1499C64.1743 13.7499 64.0634 14.2743 63.8415 14.7231C63.6222 15.1719 63.3146 15.5211 62.9187 15.7707C62.5254 16.0203 62.0666 16.1451 61.5422 16.1451ZM61.5422 15.3433C61.9405 15.3433 62.2683 15.2412 62.5254 15.037C62.7826 14.8328 62.973 14.5643 63.0965 14.2315C63.22 13.8987 63.2818 13.5381 63.2818 13.1499C63.2818 12.7616 63.22 12.3998 63.0965 12.0645C62.973 11.7292 62.7826 11.4581 62.5254 11.2514C62.2683 11.0447 61.9405 10.9413 61.5422 10.9413C61.1438 10.9413 60.8161 11.0447 60.5589 11.2514C60.3017 11.4581 60.1114 11.7292 59.9878 12.0645C59.8643 12.3998 59.8025 12.7616 59.8025 13.1499C59.8025 13.5381 59.8643 13.8987 59.9878 14.2315C60.1114 14.5643 60.3017 14.8328 60.5589 15.037C60.8161 15.2412 61.1438 15.3433 61.5422 15.3433ZM65.5367 16.024V10.2152H66.399V11.0926H66.4595C66.5654 10.8051 66.757 10.5719 67.0343 10.3929C67.3116 10.2139 67.6243 10.1244 67.9722 10.1244C68.0378 10.1244 68.1197 10.1257 68.218 10.1282C68.3163 10.1307 68.3907 10.1345 68.4411 10.1395V11.0472C68.4109 11.0396 68.3416 11.0283 68.2331 11.0131C68.1273 10.9955 68.0151 10.9867 67.8966 10.9867C67.6142 10.9867 67.3621 11.0459 67.1402 11.1644C66.9209 11.2804 66.7469 11.4417 66.6183 11.6485C66.4922 11.8527 66.4292 12.0859 66.4292 12.3481V16.024H65.5367ZM71.5158 16.1451C71.0317 16.1451 70.6043 16.0228 70.2337 15.7782C69.8631 15.5312 69.5732 15.1832 69.3639 14.7344C69.1546 14.2832 69.05 13.7499 69.05 13.1347C69.05 12.5246 69.1546 11.9952 69.3639 11.5464C69.5732 11.0976 69.8644 10.7509 70.2375 10.5064C70.6106 10.2618 71.0418 10.1395 71.5309 10.1395C71.9091 10.1395 72.2078 10.2026 72.4272 10.3286C72.649 10.4522 72.818 10.5934 72.9339 10.7522C73.0524 10.9085 73.1445 11.0371 73.21 11.1379H73.2857V8.27888H74.1782V16.024H73.3159V15.1315H73.21C73.1445 15.2374 73.0512 15.3711 72.9302 15.5324C72.8091 15.6912 72.6364 15.8337 72.4121 15.9598C72.1877 16.0833 71.8889 16.1451 71.5158 16.1451ZM71.6368 15.3433C71.9948 15.3433 72.2973 15.25 72.5444 15.0635C72.7915 14.8744 72.9793 14.6134 73.1079 14.2806C73.2365 13.9453 73.3008 13.5583 73.3008 13.1196C73.3008 12.686 73.2378 12.3065 73.1117 11.9813C72.9856 11.6535 72.7991 11.3989 72.552 11.2174C72.3049 11.0333 71.9998 10.9413 71.6368 10.9413C71.2586 10.9413 70.9434 11.0384 70.6913 11.2325C70.4417 11.4241 70.2539 11.685 70.1278 12.0153C70.0043 12.3431 69.9425 12.7112 69.9425 13.1196C69.9425 13.5331 70.0056 13.9088 70.1316 14.2466C70.2602 14.5819 70.4493 14.8492 70.6989 15.0483C70.951 15.245 71.2636 15.3433 71.6368 15.3433ZM77.6461 16.1602C77.278 16.1602 76.9439 16.0909 76.6439 15.9522C76.3439 15.811 76.1056 15.608 75.9291 15.3433C75.7527 15.0761 75.6644 14.7534 75.6644 14.3752C75.6644 14.0424 75.73 13.7726 75.8611 13.5659C75.9922 13.3566 76.1674 13.1927 76.3867 13.0742C76.6061 12.9557 76.8481 12.8675 77.1129 12.8095C77.3801 12.749 77.6486 12.7011 77.9184 12.6658C78.2714 12.6204 78.5575 12.5864 78.7769 12.5637C78.9987 12.5385 79.1601 12.4969 79.2609 12.4389C79.3643 12.3809 79.416 12.28 79.416 12.1363V12.1061C79.416 11.7329 79.3139 11.443 79.1097 11.2363C78.908 11.0295 78.6016 10.9262 78.1907 10.9262C77.7646 10.9262 77.4305 11.0194 77.1885 11.206C76.9465 11.3926 76.7763 11.5918 76.6779 11.8035L75.8308 11.501C75.9821 11.148 76.1838 10.8732 76.4359 10.6766C76.6906 10.4774 76.9679 10.3387 77.2679 10.2606C77.5705 10.1799 77.868 10.1395 78.1604 10.1395C78.347 10.1395 78.5613 10.1622 78.8033 10.2076C79.0479 10.2505 79.2836 10.34 79.5105 10.4761C79.74 10.6123 79.9303 10.8177 80.0816 11.0926C80.2329 11.3674 80.3085 11.7355 80.3085 12.1968V16.024H79.416V15.2374H79.3706C79.3101 15.3635 79.2092 15.4984 79.0681 15.6421C78.9269 15.7858 78.739 15.9081 78.5046 16.0089C78.2701 16.1098 77.9839 16.1602 77.6461 16.1602ZM77.7822 15.3584C78.1352 15.3584 78.4327 15.2891 78.6747 15.1504C78.9193 15.0118 79.1034 14.8328 79.2269 14.6134C79.353 14.3941 79.416 14.1634 79.416 13.9214V13.1045C79.3782 13.1499 79.295 13.1915 79.1664 13.2293C79.0403 13.2646 78.8941 13.2961 78.7277 13.3238C78.5638 13.349 78.4037 13.3717 78.2474 13.3919C78.0936 13.4096 77.9688 13.4247 77.873 13.4373C77.641 13.4675 77.4242 13.5167 77.2225 13.5848C77.0234 13.6503 76.862 13.7499 76.7385 13.8835C76.6174 14.0146 76.5569 14.1936 76.5569 14.4206C76.5569 14.7307 76.6716 14.9651 76.9011 15.124C77.133 15.2803 77.4267 15.3584 77.7822 15.3584ZM82.83 12.5296V16.024H81.9375V10.2152H82.7998V11.1228H82.8754C83.0115 10.8278 83.2183 10.5908 83.4956 10.4118C83.773 10.2303 84.131 10.1395 84.5697 10.1395C84.963 10.1395 85.3071 10.2202 85.6021 10.3816C85.8971 10.5404 86.1265 10.7824 86.2904 11.1077C86.4543 11.4304 86.5362 11.8388 86.5362 12.333V16.024H85.6437V12.3935C85.6437 11.9372 85.5252 11.5817 85.2882 11.327C85.0512 11.0699 84.726 10.9413 84.3125 10.9413C84.0276 10.9413 83.773 11.0031 83.5486 11.1266C83.3267 11.2501 83.1515 11.4304 83.0229 11.6674C82.8943 11.9044 82.83 12.1918 82.83 12.5296ZM88.2881 16.024V8.27888H89.1806V11.1379H89.2563C89.3218 11.0371 89.4126 10.9085 89.5286 10.7522C89.6471 10.5934 89.816 10.4522 90.0353 10.3286C90.2572 10.2026 90.5572 10.1395 90.9354 10.1395C91.4245 10.1395 91.8556 10.2618 92.2288 10.5064C92.6019 10.7509 92.8931 11.0976 93.1024 11.5464C93.3116 11.9952 93.4163 12.5246 93.4163 13.1347C93.4163 13.7499 93.3116 14.2832 93.1024 14.7344C92.8931 15.1832 92.6032 15.5312 92.2326 15.7782C91.8619 16.0228 91.4346 16.1451 90.9505 16.1451C90.5774 16.1451 90.2786 16.0833 90.0542 15.9598C89.8298 15.8337 89.6571 15.6912 89.5361 15.5324C89.4151 15.3711 89.3218 15.2374 89.2563 15.1315H89.1504V16.024H88.2881ZM89.1655 13.1196C89.1655 13.5583 89.2298 13.9453 89.3584 14.2806C89.487 14.6134 89.6748 14.8744 89.9219 15.0635C90.169 15.25 90.4715 15.3433 90.8295 15.3433C91.2026 15.3433 91.514 15.245 91.7636 15.0483C92.0157 14.8492 92.2048 14.5819 92.3309 14.2466C92.4595 13.9088 92.5238 13.5331 92.5238 13.1196C92.5238 12.7112 92.4607 12.3431 92.3347 12.0153C92.2111 11.685 92.0233 11.4241 91.7712 11.2325C91.5216 11.0384 91.2077 10.9413 90.8295 10.9413C90.4665 10.9413 90.1614 11.0333 89.9143 11.2174C89.6672 11.3989 89.4807 11.6535 89.3546 11.9813C89.2285 12.3065 89.1655 12.686 89.1655 13.1196ZM94.7815 16.024V10.2152H95.6438V11.0926H95.7043C95.8102 10.8051 96.0018 10.5719 96.2791 10.3929C96.5564 10.2139 96.8691 10.1244 97.217 10.1244C97.2826 10.1244 97.3645 10.1257 97.4628 10.1282C97.5611 10.1307 97.6355 10.1345 97.6859 10.1395V11.0472C97.6557 11.0396 97.5864 11.0283 97.4779 11.0131C97.3721 10.9955 97.2599 10.9867 97.1414 10.9867C96.859 10.9867 96.6069 11.0459 96.385 11.1644C96.1657 11.2804 95.9917 11.4417 95.8631 11.6485C95.737 11.8527 95.674 12.0859 95.674 12.3481V16.024H94.7815ZM100.453 16.1602C100.085 16.1602 99.7511 16.0909 99.4511 15.9522C99.1511 15.811 98.9128 15.608 98.7363 15.3433C98.5599 15.0761 98.4716 14.7534 98.4716 14.3752C98.4716 14.0424 98.5372 13.7726 98.6683 13.5659C98.7994 13.3566 98.9746 13.1927 99.1939 13.0742C99.4133 12.9557 99.6553 12.8675 99.9201 12.8095C100.187 12.749 100.456 12.7011 100.726 12.6658C101.079 12.6204 101.365 12.5864 101.584 12.5637C101.806 12.5385 101.967 12.4969 102.068 12.4389C102.172 12.3809 102.223 12.28 102.223 12.1363V12.1061C102.223 11.7329 102.121 11.443 101.917 11.2363C101.715 11.0295 101.409 10.9262 100.998 10.9262C100.572 10.9262 100.238 11.0194 99.9957 11.206C99.7537 11.3926 99.5835 11.5918 99.4851 11.8035L98.638 11.501C98.7893 11.148 98.991 10.8732 99.2431 10.6766C99.4978 10.4774 99.7751 10.3387 100.075 10.2606C100.378 10.1799 100.675 10.1395 100.968 10.1395C101.154 10.1395 101.368 10.1622 101.611 10.2076C101.855 10.2505 102.091 10.34 102.318 10.4761C102.547 10.6123 102.738 10.8177 102.889 11.0926C103.04 11.3674 103.116 11.7355 103.116 12.1968V16.024H102.223V15.2374H102.178C102.117 15.3635 102.016 15.4984 101.875 15.6421C101.734 15.7858 101.546 15.9081 101.312 16.0089C101.077 16.1098 100.791 16.1602 100.453 16.1602ZM100.589 15.3584C100.942 15.3584 101.24 15.2891 101.482 15.1504C101.727 15.0118 101.911 14.8328 102.034 14.6134C102.16 14.3941 102.223 14.1634 102.223 13.9214V13.1045C102.185 13.1499 102.102 13.1915 101.974 13.2293C101.848 13.2646 101.701 13.2961 101.535 13.3238C101.371 13.349 101.211 13.3717 101.055 13.3919C100.901 13.4096 100.776 13.4247 100.68 13.4373C100.448 13.4675 100.231 13.5167 100.03 13.5848C99.8306 13.6503 99.6692 13.7499 99.5457 13.8835C99.4246 14.0146 99.3641 14.1936 99.3641 14.4206C99.3641 14.7307 99.4788 14.9651 99.7083 15.124C99.9402 15.2803 100.234 15.3584 100.589 15.3584ZM105.637 12.5296V16.024H104.745V10.2152H105.607V11.1228H105.683C105.819 10.8278 106.025 10.5908 106.303 10.4118C106.58 10.2303 106.938 10.1395 107.377 10.1395C107.77 10.1395 108.114 10.2202 108.409 10.3816C108.704 10.5404 108.934 10.7824 109.098 11.1077C109.261 11.4304 109.343 11.8388 109.343 12.333V16.024H108.451V12.3935C108.451 11.9372 108.332 11.5817 108.095 11.327C107.858 11.0699 107.533 10.9413 107.12 10.9413C106.835 10.9413 106.58 11.0031 106.356 11.1266C106.134 11.2501 105.959 11.4304 105.83 11.6674C105.702 11.9044 105.637 12.1918 105.637 12.5296ZM113.168 16.1451C112.684 16.1451 112.256 16.0228 111.886 15.7782C111.515 15.5312 111.225 15.1832 111.016 14.7344C110.807 14.2832 110.702 13.7499 110.702 13.1347C110.702 12.5246 110.807 11.9952 111.016 11.5464C111.225 11.0976 111.516 10.7509 111.89 10.5064C112.263 10.2618 112.694 10.1395 113.183 10.1395C113.561 10.1395 113.86 10.2026 114.079 10.3286C114.301 10.4522 114.47 10.5934 114.586 10.7522C114.704 10.9085 114.796 11.0371 114.862 11.1379H114.938V8.27888H115.83V16.024H114.968V15.1315H114.862C114.796 15.2374 114.703 15.3711 114.582 15.5324C114.461 15.6912 114.288 15.8337 114.064 15.9598C113.84 16.0833 113.541 16.1451 113.168 16.1451ZM113.289 15.3433C113.647 15.3433 113.949 15.25 114.196 15.0635C114.444 14.8744 114.631 14.6134 114.76 14.2806C114.888 13.9453 114.953 13.5583 114.953 13.1196C114.953 12.686 114.89 12.3065 114.764 11.9813C114.638 11.6535 114.451 11.3989 114.204 11.2174C113.957 11.0333 113.652 10.9413 113.289 10.9413C112.911 10.9413 112.595 11.0384 112.343 11.2325C112.094 11.4241 111.906 11.685 111.78 12.0153C111.656 12.3431 111.595 12.7112 111.595 13.1196C111.595 13.5331 111.658 13.9088 111.784 14.2466C111.912 14.5819 112.101 14.8492 112.351 15.0483C112.603 15.245 112.916 15.3433 113.289 15.3433ZM118.239 16.0846C118.053 16.0846 117.893 16.0177 117.759 15.8841C117.625 15.7505 117.558 15.5904 117.558 15.4038C117.558 15.2173 117.625 15.0572 117.759 14.9235C117.893 14.7899 118.053 14.7231 118.239 14.7231C118.426 14.7231 118.586 14.7899 118.719 14.9235C118.853 15.0572 118.92 15.2173 118.92 15.4038C118.92 15.5274 118.888 15.6408 118.825 15.7442C118.765 15.8476 118.683 15.9308 118.58 15.9938C118.479 16.0543 118.365 16.0846 118.239 16.0846ZM122.881 16.1451C122.337 16.1451 121.868 16.0165 121.475 15.7593C121.081 15.5022 120.779 15.1479 120.567 14.6966C120.355 14.2453 120.249 13.7297 120.249 13.1499C120.249 12.5599 120.358 12.0393 120.574 11.588C120.794 11.1342 121.099 10.7799 121.49 10.5253C121.883 10.2681 122.342 10.1395 122.866 10.1395C123.275 10.1395 123.643 10.2152 123.971 10.3664C124.298 10.5177 124.567 10.7295 124.776 11.0018C124.985 11.2741 125.115 11.5918 125.166 11.9548H124.273C124.205 11.6901 124.054 11.4556 123.819 11.2514C123.587 11.0447 123.275 10.9413 122.881 10.9413C122.533 10.9413 122.228 11.032 121.966 11.2136C121.706 11.3926 121.504 11.646 121.357 11.9737C121.214 12.299 121.142 12.6809 121.142 13.1196C121.142 13.5684 121.212 13.9592 121.354 14.292C121.497 14.6248 121.699 14.8832 121.959 15.0672C122.221 15.2513 122.528 15.3433 122.881 15.3433C123.113 15.3433 123.324 15.303 123.513 15.2223C123.702 15.1416 123.862 15.0256 123.993 14.8744C124.124 14.7231 124.218 14.5416 124.273 14.3298H125.166C125.115 14.6727 124.99 14.9815 124.791 15.2563C124.595 15.5286 124.334 15.7455 124.008 15.9068C123.686 16.0656 123.31 16.1451 122.881 16.1451ZM128.83 16.1451C128.306 16.1451 127.846 16.0203 127.45 15.7707C127.056 15.5211 126.749 15.1719 126.527 14.7231C126.308 14.2743 126.198 13.7499 126.198 13.1499C126.198 12.5448 126.308 12.0166 126.527 11.5653C126.749 11.114 127.056 10.7635 127.45 10.5139C127.846 10.2643 128.306 10.1395 128.83 10.1395C129.355 10.1395 129.813 10.2643 130.207 10.5139C130.603 10.7635 130.91 11.114 131.13 11.5653C131.351 12.0166 131.462 12.5448 131.462 13.1499C131.462 13.7499 131.351 14.2743 131.13 14.7231C130.91 15.1719 130.603 15.5211 130.207 15.7707C129.813 16.0203 129.355 16.1451 128.83 16.1451ZM128.83 15.3433C129.229 15.3433 129.556 15.2412 129.813 15.037C130.071 14.8328 130.261 14.5643 130.384 14.2315C130.508 13.8987 130.57 13.5381 130.57 13.1499C130.57 12.7616 130.508 12.3998 130.384 12.0645C130.261 11.7292 130.071 11.4581 129.813 11.2514C129.556 11.0447 129.229 10.9413 128.83 10.9413C128.432 10.9413 128.104 11.0447 127.847 11.2514C127.59 11.4581 127.399 11.7292 127.276 12.0645C127.152 12.3998 127.091 12.7616 127.091 13.1499C127.091 13.5381 127.152 13.8987 127.276 14.2315C127.399 14.5643 127.59 14.8328 127.847 15.037C128.104 15.2412 128.432 15.3433 128.83 15.3433ZM132.825 16.024V10.2152H133.687V11.1228H133.763C133.884 10.8127 134.079 10.5719 134.349 10.4005C134.619 10.2265 134.943 10.1395 135.321 10.1395C135.704 10.1395 136.023 10.2265 136.278 10.4005C136.535 10.5719 136.735 10.8127 136.879 11.1228H136.939C137.088 10.8228 137.311 10.5845 137.609 10.408C137.906 10.229 138.263 10.1395 138.679 10.1395C139.198 10.1395 139.623 10.3022 139.953 10.6274C140.284 10.9501 140.449 11.4531 140.449 12.1363V16.024H139.556V12.1363C139.556 11.7077 139.439 11.4014 139.205 11.2174C138.97 11.0333 138.694 10.9413 138.376 10.9413C137.968 10.9413 137.652 11.0648 137.427 11.3119C137.203 11.5565 137.091 11.8666 137.091 12.2422V16.024H136.183V12.0456C136.183 11.7153 136.076 11.4493 135.862 11.2476C135.647 11.0434 135.371 10.9413 135.033 10.9413C134.801 10.9413 134.585 11.0031 134.383 11.1266C134.184 11.2501 134.022 11.4216 133.899 11.6409C133.778 11.8577 133.717 12.1086 133.717 12.3935V16.024H132.825Z" fill="white"/>
</g>
<defs>
<filter id="filter0_f_1_1279" x="0.667182" y="0.548835" width="147.27" height="25.1415" filterUnits="userSpaceOnUse" color-interpolation-filters="sRGB">
<feFlood flood-opacity="0" result="BackgroundImageFix"/>
<feBlend mode="normal" in="SourceGraphic" in2="BackgroundImageFix" result="shape"/>
<feGaussianBlur stdDeviation="3.744" result="effect1_foregroundBlur_1_1279"/>
</filter>
</defs>
</svg>
