<svg width="898" height="31" viewBox="0 0 898 31" fill="none" xmlns="http://www.w3.org/2000/svg">
<rect x="639.992" y="0.512069" width="99.008" height="29.952" rx="3.744" stroke="#93A2AD" stroke-width="0.832"/>
<rect x="743.992" y="0.512069" width="77.376" height="29.952" rx="3.744" stroke="#93A2AD" stroke-width="0.832"/>
<path d="M826.36 4.25607C826.36 2.18832 828.036 0.512069 830.104 0.512069H893.336C895.404 0.512069 897.08 2.18832 897.08 4.25607V26.7201C897.08 28.7878 895.404 30.4641 893.336 30.4641H830.104C828.036 30.4641 826.36 28.7878 826.36 26.7201V4.25607Z" stroke="#93A2AD" stroke-width="0.832"/>
<path d="M653.694 19.8201V13.1641H655.943C656.463 13.1641 656.89 13.2529 657.223 13.4306C657.557 13.6061 657.804 13.8477 657.964 14.1553C658.125 14.463 658.205 14.8129 658.205 15.2051C658.205 15.5972 658.125 15.945 657.964 16.2483C657.804 16.5517 657.558 16.79 657.227 16.9633C656.895 17.1345 656.472 17.2201 655.956 17.2201H654.136V16.4921H655.93C656.285 16.4921 656.571 16.4401 656.788 16.3361C657.007 16.2321 657.165 16.0847 657.262 15.8941C657.362 15.7012 657.412 15.4716 657.412 15.2051C657.412 14.9386 657.362 14.7057 657.262 14.5063C657.163 14.307 657.003 14.1532 656.785 14.0448C656.566 13.9343 656.277 13.8791 655.917 13.8791H654.5V19.8201H653.694ZM656.827 16.8301L658.465 19.8201H657.529L655.917 16.8301H656.827ZM661.483 19.9241C661.002 19.9241 660.587 19.8179 660.239 19.6056C659.892 19.3911 659.624 19.0921 659.436 18.7086C659.249 18.3229 659.156 17.8744 659.156 17.3631C659.156 16.8517 659.249 16.4011 659.436 16.0111C659.624 15.6189 659.886 15.3134 660.222 15.0946C660.56 14.8736 660.955 14.7631 661.405 14.7631C661.665 14.7631 661.922 14.8064 662.176 14.8931C662.429 14.9797 662.66 15.1206 662.868 15.3156C663.076 15.5084 663.242 15.7641 663.365 16.0826C663.489 16.4011 663.55 16.7932 663.55 17.2591V17.5841H659.702V16.9211H662.77C662.77 16.6394 662.714 16.3881 662.601 16.1671C662.491 15.9461 662.333 15.7717 662.127 15.6438C661.923 15.516 661.683 15.4521 661.405 15.4521C661.1 15.4521 660.835 15.5279 660.612 15.6796C660.391 15.8291 660.221 16.0241 660.102 16.2646C659.983 16.5051 659.923 16.7629 659.923 17.0381V17.4801C659.923 17.8571 659.988 18.1767 660.118 18.4388C660.25 18.6988 660.434 18.8971 660.668 19.0336C660.902 19.1679 661.173 19.2351 661.483 19.2351C661.685 19.2351 661.867 19.2069 662.029 19.1506C662.194 19.0921 662.336 19.0054 662.455 18.8906C662.574 18.7736 662.666 18.6284 662.731 18.4551L663.472 18.6631C663.394 18.9144 663.263 19.1354 663.079 19.3261C662.895 19.5146 662.667 19.6619 662.397 19.7681C662.126 19.8721 661.821 19.9241 661.483 19.9241ZM665.484 13.1641V19.8201H664.717V13.1641H665.484ZM668.358 19.9371C668.042 19.9371 667.754 19.8775 667.497 19.7583C667.239 19.637 667.034 19.4626 666.882 19.2351C666.731 19.0054 666.655 18.7281 666.655 18.4031C666.655 18.1171 666.711 17.8852 666.824 17.7076C666.937 17.5277 667.087 17.3869 667.276 17.2851C667.464 17.1832 667.672 17.1074 667.9 17.0576C668.129 17.0056 668.36 16.9644 668.592 16.9341C668.895 16.8951 669.141 16.8658 669.33 16.8463C669.52 16.8247 669.659 16.7889 669.746 16.7391C669.834 16.6892 669.879 16.6026 669.879 16.4791V16.4531C669.879 16.1324 669.791 15.8832 669.616 15.7056C669.442 15.5279 669.179 15.4391 668.826 15.4391C668.46 15.4391 668.173 15.5192 667.965 15.6796C667.757 15.8399 667.61 16.0111 667.526 16.1931L666.798 15.9331C666.928 15.6297 667.101 15.3936 667.318 15.2246C667.537 15.0534 667.775 14.9342 668.033 14.8671C668.293 14.7977 668.549 14.7631 668.8 14.7631C668.96 14.7631 669.144 14.7826 669.352 14.8216C669.563 14.8584 669.765 14.9353 669.96 15.0523C670.157 15.1693 670.321 15.3459 670.451 15.5821C670.581 15.8182 670.646 16.1346 670.646 16.5311V19.8201H669.879V19.1441H669.84C669.788 19.2524 669.701 19.3683 669.58 19.4918C669.459 19.6153 669.297 19.7204 669.096 19.8071C668.894 19.8937 668.648 19.9371 668.358 19.9371ZM668.475 19.2481C668.778 19.2481 669.034 19.1885 669.242 19.0693C669.452 18.9502 669.61 18.7963 669.716 18.6078C669.825 18.4193 669.879 18.2211 669.879 18.0131V17.3111C669.846 17.3501 669.775 17.3858 669.664 17.4183C669.556 17.4487 669.43 17.4757 669.287 17.4996C669.147 17.5212 669.009 17.5407 668.875 17.5581C668.742 17.5732 668.635 17.5862 668.553 17.5971C668.354 17.6231 668.167 17.6653 667.994 17.7238C667.823 17.7802 667.684 17.8657 667.578 17.9806C667.474 18.0932 667.422 18.2471 667.422 18.4421C667.422 18.7086 667.52 18.9101 667.718 19.0466C667.917 19.1809 668.169 19.2481 668.475 19.2481ZM674.217 14.8281V15.4781H671.63V14.8281H674.217ZM672.384 13.6321H673.151V18.3901C673.151 18.6067 673.182 18.7692 673.245 18.8776C673.31 18.9837 673.392 19.0552 673.492 19.0921C673.594 19.1267 673.701 19.1441 673.814 19.1441C673.898 19.1441 673.968 19.1397 674.022 19.1311C674.076 19.1202 674.119 19.1116 674.152 19.1051L674.308 19.7941C674.256 19.8136 674.183 19.8331 674.09 19.8526C673.997 19.8742 673.879 19.8851 673.736 19.8851C673.519 19.8851 673.307 19.8385 673.099 19.7453C672.893 19.6522 672.722 19.5102 672.585 19.3196C672.451 19.1289 672.384 18.8884 672.384 18.5981V13.6321ZM677.41 19.9241C676.929 19.9241 676.514 19.8179 676.165 19.6056C675.819 19.3911 675.551 19.0921 675.362 18.7086C675.176 18.3229 675.083 17.8744 675.083 17.3631C675.083 16.8517 675.176 16.4011 675.362 16.0111C675.551 15.6189 675.813 15.3134 676.149 15.0946C676.487 14.8736 676.881 14.7631 677.332 14.7631C677.592 14.7631 677.849 14.8064 678.102 14.8931C678.356 14.9797 678.586 15.1206 678.794 15.3156C679.002 15.5084 679.168 15.7641 679.292 16.0826C679.415 16.4011 679.477 16.7932 679.477 17.2591V17.5841H675.629V16.9211H678.697C678.697 16.6394 678.641 16.3881 678.528 16.1671C678.417 15.9461 678.259 15.7717 678.053 15.6438C677.85 15.516 677.609 15.4521 677.332 15.4521C677.026 15.4521 676.762 15.5279 676.539 15.6796C676.318 15.8291 676.148 16.0241 676.029 16.2646C675.91 16.5051 675.85 16.7629 675.85 17.0381V17.4801C675.85 17.8571 675.915 18.1767 676.045 18.4388C676.177 18.6988 676.36 18.8971 676.594 19.0336C676.828 19.1679 677.1 19.2351 677.41 19.2351C677.611 19.2351 677.793 19.2069 677.956 19.1506C678.121 19.0921 678.263 19.0054 678.382 18.8906C678.501 18.7736 678.593 18.6284 678.658 18.4551L679.399 18.6631C679.321 18.9144 679.19 19.1354 679.006 19.3261C678.822 19.5146 678.594 19.6619 678.323 19.7681C678.052 19.8721 677.748 19.9241 677.41 19.9241ZM682.529 19.9241C682.113 19.9241 681.745 19.819 681.427 19.6088C681.108 19.3965 680.859 19.0975 680.679 18.7118C680.5 18.324 680.41 17.8657 680.41 17.3371C680.41 16.8127 680.5 16.3577 680.679 15.9721C680.859 15.5864 681.11 15.2885 681.43 15.0783C681.751 14.8682 682.121 14.7631 682.542 14.7631C682.867 14.7631 683.123 14.8172 683.312 14.9256C683.503 15.0317 683.648 15.1531 683.747 15.2896C683.849 15.4239 683.928 15.5344 683.985 15.6211H684.05V13.1641H684.817V19.8201H684.076V19.0531H683.985C683.928 19.1441 683.848 19.2589 683.744 19.3976C683.64 19.5341 683.492 19.6565 683.299 19.7648C683.106 19.871 682.849 19.9241 682.529 19.9241ZM682.633 19.2351C682.94 19.2351 683.2 19.1549 683.413 18.9946C683.625 18.8321 683.786 18.6078 683.897 18.3218C684.007 18.0337 684.063 17.7011 684.063 17.3241C684.063 16.9514 684.009 16.6253 683.9 16.3458C683.792 16.0642 683.632 15.8453 683.419 15.6893C683.207 15.5312 682.945 15.4521 682.633 15.4521C682.308 15.4521 682.037 15.5355 681.82 15.7023C681.606 15.867 681.444 16.0912 681.336 16.3751C681.23 16.6567 681.177 16.9731 681.177 17.3241C681.177 17.6794 681.231 18.0022 681.339 18.2926C681.45 18.5807 681.612 18.8104 681.827 18.9816C682.043 19.1506 682.312 19.2351 682.633 19.2351ZM689.006 19.8201V13.1641H691.333C691.797 13.1641 692.179 13.2442 692.48 13.4046C692.781 13.5627 693.006 13.7762 693.153 14.0448C693.3 14.3113 693.374 14.6071 693.374 14.9321C693.374 15.2181 693.323 15.4542 693.221 15.6406C693.122 15.8269 692.989 15.9742 692.825 16.0826C692.662 16.1909 692.486 16.2711 692.295 16.3231V16.3881C692.499 16.4011 692.703 16.4726 692.909 16.6026C693.115 16.7326 693.287 16.9189 693.426 17.1616C693.565 17.4042 693.634 17.7011 693.634 18.0521C693.634 18.3857 693.558 18.6858 693.406 18.9523C693.255 19.2188 693.015 19.4301 692.688 19.5861C692.361 19.7421 691.935 19.8201 691.411 19.8201H689.006ZM689.812 19.1051H691.411C691.937 19.1051 692.311 19.0032 692.532 18.7996C692.755 18.5937 692.867 18.3446 692.867 18.0521C692.867 17.8267 692.81 17.6187 692.695 17.4281C692.58 17.2352 692.416 17.0814 692.204 16.9666C691.992 16.8496 691.74 16.7911 691.45 16.7911H689.812V19.1051ZM689.812 16.0891H691.307C691.55 16.0891 691.768 16.0414 691.963 15.9461C692.161 15.8507 692.317 15.7164 692.431 15.5431C692.548 15.3697 692.607 15.1661 692.607 14.9321C692.607 14.6396 692.505 14.3915 692.301 14.1878C692.098 13.982 691.775 13.8791 691.333 13.8791H689.812V16.0891ZM694.854 19.8201V14.8281H695.595V15.5821H695.647C695.738 15.3351 695.903 15.1347 696.141 14.9808C696.38 14.827 696.648 14.7501 696.947 14.7501C697.004 14.7501 697.074 14.7512 697.159 14.7533C697.243 14.7555 697.307 14.7587 697.35 14.7631V15.5431C697.324 15.5366 697.265 15.5268 697.172 15.5138C697.081 15.4987 696.984 15.4911 696.882 15.4911C696.64 15.4911 696.423 15.542 696.232 15.6438C696.044 15.7435 695.894 15.8822 695.784 16.0598C695.675 16.2353 695.621 16.4357 695.621 16.6611V19.8201H694.854ZM699.729 19.9371C699.412 19.9371 699.125 19.8775 698.867 19.7583C698.609 19.637 698.405 19.4626 698.253 19.2351C698.101 19.0054 698.026 18.7281 698.026 18.4031C698.026 18.1171 698.082 17.8852 698.195 17.7076C698.307 17.5277 698.458 17.3869 698.646 17.2851C698.835 17.1832 699.043 17.1074 699.27 17.0576C699.5 17.0056 699.731 16.9644 699.963 16.9341C700.266 16.8951 700.512 16.8658 700.7 16.8463C700.891 16.8247 701.03 16.7889 701.116 16.7391C701.205 16.6892 701.25 16.6026 701.25 16.4791V16.4531C701.25 16.1324 701.162 15.8832 700.986 15.7056C700.813 15.5279 700.55 15.4391 700.197 15.4391C699.83 15.4391 699.543 15.5192 699.335 15.6796C699.127 15.8399 698.981 16.0111 698.897 16.1931L698.169 15.9331C698.299 15.6297 698.472 15.3936 698.689 15.2246C698.907 15.0534 699.146 14.9342 699.404 14.8671C699.664 14.7977 699.919 14.7631 700.171 14.7631C700.331 14.7631 700.515 14.7826 700.723 14.8216C700.933 14.8584 701.136 14.9353 701.331 15.0523C701.528 15.1693 701.692 15.3459 701.822 15.5821C701.952 15.8182 702.017 16.1346 702.017 16.5311V19.8201H701.25V19.1441H701.211C701.159 19.2524 701.072 19.3683 700.951 19.4918C700.829 19.6153 700.668 19.7204 700.466 19.8071C700.265 19.8937 700.019 19.9371 699.729 19.9371ZM699.846 19.2481C700.149 19.2481 700.405 19.1885 700.613 19.0693C700.823 18.9502 700.981 18.7963 701.087 18.6078C701.195 18.4193 701.25 18.2211 701.25 18.0131V17.3111C701.217 17.3501 701.146 17.3858 701.035 17.4183C700.927 17.4487 700.801 17.4757 700.658 17.4996C700.517 17.5212 700.38 17.5407 700.245 17.5581C700.113 17.5732 700.006 17.5862 699.924 17.5971C699.724 17.6231 699.538 17.6653 699.365 17.7238C699.193 17.7802 699.055 17.8657 698.949 17.9806C698.845 18.0932 698.793 18.2471 698.793 18.4421C698.793 18.7086 698.891 18.9101 699.088 19.0466C699.288 19.1809 699.54 19.2481 699.846 19.2481ZM704.183 16.8171V19.8201H703.416V14.8281H704.157V15.6081H704.222C704.339 15.3546 704.517 15.1509 704.755 14.9971C704.994 14.8411 705.301 14.7631 705.678 14.7631C706.016 14.7631 706.312 14.8324 706.566 14.9711C706.819 15.1076 707.016 15.3156 707.157 15.5951C707.298 15.8724 707.368 16.2234 707.368 16.6481V19.8201H706.601V16.7001C706.601 16.3079 706.5 16.0024 706.296 15.7836C706.092 15.5626 705.813 15.4521 705.457 15.4521C705.213 15.4521 704.994 15.5052 704.801 15.6113C704.61 15.7175 704.46 15.8724 704.349 16.0761C704.239 16.2797 704.183 16.5267 704.183 16.8171ZM710.655 19.9241C710.239 19.9241 709.872 19.819 709.553 19.6088C709.235 19.3965 708.986 19.0975 708.806 18.7118C708.626 18.324 708.536 17.8657 708.536 17.3371C708.536 16.8127 708.626 16.3577 708.806 15.9721C708.986 15.5864 709.236 15.2885 709.557 15.0783C709.877 14.8682 710.248 14.7631 710.668 14.7631C710.993 14.7631 711.25 14.8172 711.438 14.9256C711.629 15.0317 711.774 15.1531 711.874 15.2896C711.976 15.4239 712.055 15.5344 712.111 15.6211H712.176V13.1641H712.943V19.8201H712.202V19.0531H712.111C712.055 19.1441 711.975 19.2589 711.871 19.3976C711.767 19.5341 711.618 19.6565 711.425 19.7648C711.232 19.871 710.976 19.9241 710.655 19.9241ZM710.759 19.2351C711.067 19.2351 711.327 19.1549 711.539 18.9946C711.751 18.8321 711.913 18.6078 712.023 18.3218C712.134 18.0337 712.189 17.7011 712.189 17.3241C712.189 16.9514 712.135 16.6253 712.027 16.3458C711.918 16.0642 711.758 15.8453 711.546 15.6893C711.333 15.5312 711.071 15.4521 710.759 15.4521C710.434 15.4521 710.163 15.5355 709.947 15.7023C709.732 15.867 709.571 16.0912 709.462 16.3751C709.356 16.6567 709.303 16.9731 709.303 17.3241C709.303 17.6794 709.357 18.0022 709.466 18.2926C709.576 18.5807 709.739 18.8104 709.953 18.9816C710.17 19.1506 710.438 19.2351 710.759 19.2351ZM717.99 15.9461L717.301 16.1411C717.258 16.0262 717.194 15.9147 717.11 15.8063C717.027 15.6958 716.915 15.6048 716.772 15.5333C716.629 15.4618 716.445 15.4261 716.222 15.4261C715.917 15.4261 715.662 15.4965 715.459 15.6373C715.257 15.776 715.156 15.9526 715.156 16.1671C715.156 16.3577 715.226 16.5083 715.364 16.6188C715.503 16.7293 715.72 16.8214 716.014 16.8951L716.755 17.0771C717.202 17.1854 717.534 17.3512 717.753 17.5743C717.972 17.7953 718.081 18.0802 718.081 18.4291C718.081 18.7151 717.999 18.9707 717.834 19.1961C717.672 19.4214 717.444 19.5991 717.152 19.7291C716.859 19.8591 716.519 19.9241 716.131 19.9241C715.622 19.9241 715.201 19.8136 714.867 19.5926C714.533 19.3716 714.322 19.0487 714.233 18.6241L714.961 18.4421C715.031 18.7107 715.162 18.9122 715.355 19.0466C715.55 19.1809 715.804 19.2481 716.118 19.2481C716.476 19.2481 716.76 19.1722 716.97 19.0206C717.182 18.8667 717.288 18.6826 717.288 18.4681C717.288 18.2947 717.228 18.1496 717.106 18.0326C716.985 17.9134 716.799 17.8246 716.547 17.7661L715.715 17.5711C715.258 17.4627 714.922 17.2948 714.708 17.0673C714.495 16.8377 714.389 16.5506 714.389 16.2061C714.389 15.9244 714.468 15.6752 714.627 15.4586C714.787 15.2419 715.005 15.0718 715.28 14.9483C715.557 14.8248 715.871 14.7631 716.222 14.7631C716.716 14.7631 717.104 14.8714 717.386 15.0881C717.67 15.3047 717.871 15.5907 717.99 15.9461Z" fill="white"/>
<path fill-rule="evenodd" clip-rule="evenodd" d="M723.145 14.7623C723.275 14.6206 723.486 14.6206 723.616 14.7623L725.808 17.1521C725.938 17.2938 726.148 17.2938 726.278 17.1521L728.47 14.7623C728.6 14.6206 728.811 14.6206 728.941 14.7623C729.071 14.9041 729.071 15.1338 728.941 15.2755L726.749 17.6652C726.359 18.0903 725.727 18.0903 725.337 17.6652L723.145 15.2755C723.015 15.1338 723.015 14.9041 723.145 14.7623Z" fill="white" fill-opacity="0.4"/>
<path d="M757.33 13.8791V13.1641H762.322V13.8791H760.229V19.8201H759.423V13.8791H757.33ZM763.462 19.8201V14.8281H764.229V19.8201H763.462ZM763.852 13.9961C763.702 13.9961 763.573 13.9452 763.465 13.8433C763.359 13.7415 763.306 13.6191 763.306 13.4761C763.306 13.3331 763.359 13.2107 763.465 13.1088C763.573 13.007 763.702 12.9561 763.852 12.9561C764.001 12.9561 764.129 13.007 764.235 13.1088C764.344 13.2107 764.398 13.3331 764.398 13.4761C764.398 13.6191 764.344 13.7415 764.235 13.8433C764.129 13.9452 764.001 13.9961 763.852 13.9961ZM767.805 14.8281V15.4781H765.218V14.8281H767.805ZM765.972 13.6321H766.739V18.3901C766.739 18.6067 766.77 18.7692 766.833 18.8776C766.898 18.9837 766.98 19.0552 767.08 19.0921C767.182 19.1267 767.289 19.1441 767.402 19.1441C767.486 19.1441 767.555 19.1397 767.61 19.1311C767.664 19.1202 767.707 19.1116 767.74 19.1051L767.896 19.7941C767.844 19.8136 767.771 19.8331 767.678 19.8526C767.585 19.8742 767.467 19.8851 767.324 19.8851C767.107 19.8851 766.895 19.8385 766.687 19.7453C766.481 19.6522 766.31 19.5102 766.173 19.3196C766.039 19.1289 765.972 18.8884 765.972 18.5981V13.6321ZM769.833 13.1641V19.8201H769.066V13.1641H769.833ZM773.33 19.9241C772.849 19.9241 772.435 19.8179 772.086 19.6056C771.739 19.3911 771.471 19.0921 771.283 18.7086C771.097 18.3229 771.003 17.8744 771.003 17.3631C771.003 16.8517 771.097 16.4011 771.283 16.0111C771.471 15.6189 771.734 15.3134 772.069 15.0946C772.407 14.8736 772.802 14.7631 773.252 14.7631C773.512 14.7631 773.769 14.8064 774.023 14.8931C774.276 14.9797 774.507 15.1206 774.715 15.3156C774.923 15.5084 775.089 15.7641 775.212 16.0826C775.336 16.4011 775.397 16.7932 775.397 17.2591V17.5841H771.549V16.9211H774.617C774.617 16.6394 774.561 16.3881 774.448 16.1671C774.338 15.9461 774.18 15.7717 773.974 15.6438C773.77 15.516 773.53 15.4521 773.252 15.4521C772.947 15.4521 772.683 15.5279 772.459 15.6796C772.238 15.8291 772.068 16.0241 771.949 16.2646C771.83 16.5051 771.77 16.7629 771.77 17.0381V17.4801C771.77 17.8571 771.835 18.1767 771.965 18.4388C772.098 18.6988 772.281 18.8971 772.515 19.0336C772.749 19.1679 773.021 19.2351 773.33 19.2351C773.532 19.2351 773.714 19.2069 773.876 19.1506C774.041 19.0921 774.183 19.0054 774.302 18.8906C774.421 18.7736 774.513 18.6284 774.578 18.4551L775.319 18.6631C775.241 18.9144 775.11 19.1354 774.926 19.3261C774.742 19.5146 774.515 19.6619 774.244 19.7681C773.973 19.8721 773.668 19.9241 773.33 19.9241ZM779.242 19.8201V13.1641H781.491C782.011 13.1641 782.438 13.2529 782.772 13.4306C783.105 13.6061 783.352 13.8477 783.513 14.1553C783.673 14.463 783.753 14.8129 783.753 15.2051C783.753 15.5972 783.673 15.945 783.513 16.2483C783.352 16.5517 783.106 16.79 782.775 16.9633C782.443 17.1345 782.02 17.2201 781.504 17.2201H779.684V16.4921H781.478C781.834 16.4921 782.12 16.4401 782.336 16.3361C782.555 16.2321 782.713 16.0847 782.811 15.8941C782.91 15.7012 782.96 15.4716 782.96 15.2051C782.96 14.9386 782.91 14.7057 782.811 14.5063C782.711 14.307 782.552 14.1532 782.333 14.0448C782.114 13.9343 781.825 13.8791 781.465 13.8791H780.048V19.8201H779.242ZM782.375 16.8301L784.013 19.8201H783.077L781.465 16.8301H782.375ZM786.461 19.9371C786.145 19.9371 785.858 19.8775 785.6 19.7583C785.342 19.637 785.137 19.4626 784.986 19.2351C784.834 19.0054 784.758 18.7281 784.758 18.4031C784.758 18.1171 784.815 17.8852 784.927 17.7076C785.04 17.5277 785.191 17.3869 785.379 17.2851C785.568 17.1832 785.776 17.1074 786.003 17.0576C786.233 17.0056 786.463 16.9644 786.695 16.9341C786.999 16.8951 787.245 16.8658 787.433 16.8463C787.624 16.8247 787.762 16.7889 787.849 16.7391C787.938 16.6892 787.982 16.6026 787.982 16.4791V16.4531C787.982 16.1324 787.895 15.8832 787.719 15.7056C787.546 15.5279 787.282 15.4391 786.929 15.4391C786.563 15.4391 786.276 15.5192 786.068 15.6796C785.86 15.8399 785.714 16.0111 785.629 16.1931L784.901 15.9331C785.031 15.6297 785.205 15.3936 785.421 15.2246C785.64 15.0534 785.878 14.9342 786.136 14.8671C786.396 14.7977 786.652 14.7631 786.903 14.7631C787.064 14.7631 787.248 14.7826 787.456 14.8216C787.666 14.8584 787.869 14.9353 788.064 15.0523C788.261 15.1693 788.424 15.3459 788.554 15.5821C788.684 15.8182 788.749 16.1346 788.749 16.5311V19.8201H787.982V19.1441H787.943C787.891 19.2524 787.805 19.3683 787.683 19.4918C787.562 19.6153 787.401 19.7204 787.199 19.8071C786.998 19.8937 786.752 19.9371 786.461 19.9371ZM786.578 19.2481C786.882 19.2481 787.137 19.1885 787.345 19.0693C787.555 18.9502 787.714 18.7963 787.82 18.6078C787.928 18.4193 787.982 18.2211 787.982 18.0131V17.3111C787.95 17.3501 787.878 17.3858 787.768 17.4183C787.659 17.4487 787.534 17.4757 787.391 17.4996C787.25 17.5212 787.112 17.5407 786.978 17.5581C786.846 17.5732 786.739 17.5862 786.656 17.5971C786.457 17.6231 786.271 17.6653 786.097 17.7238C785.926 17.7802 785.787 17.8657 785.681 17.9806C785.577 18.0932 785.525 18.2471 785.525 18.4421C785.525 18.7086 785.624 18.9101 785.821 19.0466C786.02 19.1809 786.273 19.2481 786.578 19.2481ZM790.916 16.8171V19.8201H790.149V14.8281H790.89V15.6081H790.955C791.072 15.3546 791.25 15.1509 791.488 14.9971C791.727 14.8411 792.034 14.7631 792.411 14.7631C792.749 14.7631 793.045 14.8324 793.298 14.9711C793.552 15.1076 793.749 15.3156 793.89 15.5951C794.031 15.8724 794.101 16.2234 794.101 16.6481V19.8201H793.334V16.7001C793.334 16.3079 793.232 16.0024 793.029 15.7836C792.825 15.5626 792.546 15.4521 792.19 15.4521C791.945 15.4521 791.727 15.5052 791.534 15.6113C791.343 15.7175 791.192 15.8724 791.082 16.0761C790.971 16.2797 790.916 16.5267 790.916 16.8171ZM796.218 18.0001L796.205 17.0511H796.361L798.545 14.8281H799.494L797.167 17.1811H797.102L796.218 18.0001ZM795.503 19.8201V13.1641H796.27V19.8201H795.503ZM798.675 19.8201L796.725 17.3501L797.271 16.8171L799.65 19.8201H798.675Z" fill="white"/>
<path fill-rule="evenodd" clip-rule="evenodd" d="M804.145 14.7623C804.275 14.6206 804.486 14.6206 804.616 14.7623L806.808 17.1521C806.938 17.2938 807.148 17.2938 807.278 17.1521L809.47 14.7623C809.6 14.6206 809.811 14.6206 809.941 14.7623C810.071 14.9041 810.071 15.1338 809.941 15.2755L807.749 17.6652C807.359 18.0903 806.727 18.0903 806.337 17.6652L804.145 15.2755C804.015 15.1338 804.015 14.9041 804.145 14.7623Z" fill="white" fill-opacity="0.4"/>
<path d="M842.61 13.1641H843.416V17.9221C843.416 18.3467 843.338 18.7075 843.182 19.0043C843.026 19.3012 842.806 19.5265 842.522 19.6803C842.238 19.8342 841.904 19.9111 841.518 19.9111C841.154 19.9111 840.83 19.845 840.546 19.7128C840.262 19.5785 840.039 19.3878 839.877 19.1408C839.714 18.8938 839.633 18.6002 839.633 18.2601H840.426C840.426 18.4486 840.472 18.6132 840.566 18.7541C840.661 18.8927 840.791 19.0011 840.956 19.0791C841.12 19.1571 841.308 19.1961 841.518 19.1961C841.75 19.1961 841.947 19.1473 842.109 19.0498C842.272 18.9523 842.395 18.8093 842.48 18.6208C842.567 18.4302 842.61 18.1972 842.61 17.9221V13.1641ZM846.955 19.9241C846.504 19.9241 846.109 19.8168 845.769 19.6023C845.431 19.3878 845.167 19.0877 844.976 18.7021C844.787 18.3164 844.693 17.8657 844.693 17.3501C844.693 16.8301 844.787 16.3762 844.976 15.9883C845.167 15.6005 845.431 15.2993 845.769 15.0848C846.109 14.8703 846.504 14.7631 846.955 14.7631C847.406 14.7631 847.8 14.8703 848.138 15.0848C848.478 15.2993 848.743 15.6005 848.931 15.9883C849.122 16.3762 849.217 16.8301 849.217 17.3501C849.217 17.8657 849.122 18.3164 848.931 18.7021C848.743 19.0877 848.478 19.3878 848.138 19.6023C847.8 19.8168 847.406 19.9241 846.955 19.9241ZM846.955 19.2351C847.297 19.2351 847.579 19.1473 847.8 18.9718C848.021 18.7963 848.185 18.5656 848.291 18.2796C848.397 17.9936 848.45 17.6837 848.45 17.3501C848.45 17.0164 848.397 16.7055 848.291 16.4173C848.185 16.1292 848.021 15.8962 847.8 15.7186C847.579 15.5409 847.297 15.4521 846.955 15.4521C846.613 15.4521 846.331 15.5409 846.11 15.7186C845.889 15.8962 845.726 16.1292 845.619 16.4173C845.513 16.7055 845.46 17.0164 845.46 17.3501C845.46 17.6837 845.513 17.9936 845.619 18.2796C845.726 18.5656 845.889 18.7963 846.11 18.9718C846.331 19.1473 846.613 19.2351 846.955 19.2351ZM850.492 19.8201V13.1641H851.259V15.6211H851.324C851.38 15.5344 851.458 15.4239 851.558 15.2896C851.66 15.1531 851.805 15.0317 851.993 14.9256C852.184 14.8172 852.442 14.7631 852.767 14.7631C853.187 14.7631 853.558 14.8682 853.878 15.0783C854.199 15.2885 854.449 15.5864 854.629 15.9721C854.809 16.3577 854.899 16.8127 854.899 17.3371C854.899 17.8657 854.809 18.324 854.629 18.7118C854.449 19.0975 854.2 19.3965 853.882 19.6088C853.563 19.819 853.196 19.9241 852.78 19.9241C852.459 19.9241 852.203 19.871 852.01 19.7648C851.817 19.6565 851.668 19.5341 851.564 19.3976C851.46 19.2589 851.38 19.1441 851.324 19.0531H851.233V19.8201H850.492ZM851.246 17.3241C851.246 17.7011 851.301 18.0337 851.412 18.3218C851.522 18.6078 851.684 18.8321 851.896 18.9946C852.108 19.1549 852.368 19.2351 852.676 19.2351C852.997 19.2351 853.264 19.1506 853.479 18.9816C853.695 18.8104 853.858 18.5807 853.966 18.2926C854.077 18.0022 854.132 17.6794 854.132 17.3241C854.132 16.9731 854.078 16.6567 853.969 16.3751C853.863 16.0912 853.702 15.867 853.485 15.7023C853.271 15.5355 853.001 15.4521 852.676 15.4521C852.364 15.4521 852.102 15.5312 851.889 15.6893C851.677 15.8453 851.517 16.0642 851.408 16.3458C851.3 16.6253 851.246 16.9514 851.246 17.3241ZM858.75 19.8201V13.1641H860.999C861.519 13.1641 861.946 13.2529 862.28 13.4306C862.613 13.6061 862.86 13.8477 863.021 14.1553C863.181 14.463 863.261 14.8129 863.261 15.2051C863.261 15.5972 863.181 15.945 863.021 16.2483C862.86 16.5517 862.614 16.79 862.283 16.9633C861.951 17.1345 861.528 17.2201 861.012 17.2201H859.192V16.4921H860.986C861.342 16.4921 861.628 16.4401 861.844 16.3361C862.063 16.2321 862.221 16.0847 862.319 15.8941C862.418 15.7012 862.468 15.4716 862.468 15.2051C862.468 14.9386 862.418 14.7057 862.319 14.5063C862.219 14.307 862.06 14.1532 861.841 14.0448C861.622 13.9343 861.333 13.8791 860.973 13.8791H859.556V19.8201H858.75ZM861.883 16.8301L863.521 19.8201H862.585L860.973 16.8301H861.883ZM866.475 19.9241C866.024 19.9241 865.629 19.8168 865.288 19.6023C864.95 19.3878 864.686 19.0877 864.495 18.7021C864.307 18.3164 864.213 17.8657 864.213 17.3501C864.213 16.8301 864.307 16.3762 864.495 15.9883C864.686 15.6005 864.95 15.2993 865.288 15.0848C865.629 14.8703 866.024 14.7631 866.475 14.7631C866.925 14.7631 867.32 14.8703 867.658 15.0848C867.998 15.2993 868.262 15.6005 868.451 15.9883C868.641 16.3762 868.737 16.8301 868.737 17.3501C868.737 17.8657 868.641 18.3164 868.451 18.7021C868.262 19.0877 867.998 19.3878 867.658 19.6023C867.32 19.8168 866.925 19.9241 866.475 19.9241ZM866.475 19.2351C866.817 19.2351 867.099 19.1473 867.32 18.9718C867.541 18.7963 867.704 18.5656 867.81 18.2796C867.917 17.9936 867.97 17.6837 867.97 17.3501C867.97 17.0164 867.917 16.7055 867.81 16.4173C867.704 16.1292 867.541 15.8962 867.32 15.7186C867.099 15.5409 866.817 15.4521 866.475 15.4521C866.132 15.4521 865.851 15.5409 865.63 15.7186C865.409 15.8962 865.245 16.1292 865.139 16.4173C865.033 16.7055 864.98 17.0164 864.98 17.3501C864.98 17.6837 865.033 17.9936 865.139 18.2796C865.245 18.5656 865.409 18.7963 865.63 18.9718C865.851 19.1473 866.132 19.2351 866.475 19.2351ZM870.674 13.1641V19.8201H869.907V13.1641H870.674ZM874.172 19.9241C873.691 19.9241 873.276 19.8179 872.927 19.6056C872.581 19.3911 872.313 19.0921 872.125 18.7086C871.938 18.3229 871.845 17.8744 871.845 17.3631C871.845 16.8517 871.938 16.4011 872.125 16.0111C872.313 15.6189 872.575 15.3134 872.911 15.0946C873.249 14.8736 873.644 14.7631 874.094 14.7631C874.354 14.7631 874.611 14.8064 874.864 14.8931C875.118 14.9797 875.349 15.1206 875.557 15.3156C875.765 15.5084 875.93 15.7641 876.054 16.0826C876.177 16.4011 876.239 16.7932 876.239 17.2591V17.5841H872.391V16.9211H875.459C875.459 16.6394 875.403 16.3881 875.29 16.1671C875.18 15.9461 875.022 15.7717 874.816 15.6438C874.612 15.516 874.372 15.4521 874.094 15.4521C873.789 15.4521 873.524 15.5279 873.301 15.6796C873.08 15.8291 872.91 16.0241 872.791 16.2646C872.672 16.5051 872.612 16.7629 872.612 17.0381V17.4801C872.612 17.8571 872.677 18.1767 872.807 18.4388C872.939 18.6988 873.122 18.8971 873.356 19.0336C873.59 19.1679 873.862 19.2351 874.172 19.2351C874.374 19.2351 874.556 19.2069 874.718 19.1506C874.883 19.0921 875.025 19.0054 875.144 18.8906C875.263 18.7736 875.355 18.6284 875.42 18.4551L876.161 18.6631C876.083 18.9144 875.952 19.1354 875.768 19.3261C875.584 19.5146 875.356 19.6619 875.085 19.7681C874.815 19.8721 874.51 19.9241 874.172 19.9241Z" fill="white"/>
<path fill-rule="evenodd" clip-rule="evenodd" d="M881.513 14.7623C881.643 14.6206 881.854 14.6206 881.984 14.7623L884.176 17.1521C884.306 17.2938 884.516 17.2938 884.646 17.1521L886.838 14.7623C886.968 14.6206 887.179 14.6206 887.309 14.7623C887.439 14.9041 887.439 15.1338 887.309 15.2755L885.117 17.6652C884.727 18.0903 884.095 18.0903 883.705 17.6652L881.513 15.2755C881.383 15.1338 881.383 14.9041 881.513 14.7623Z" fill="white" fill-opacity="0.4"/>
<path d="M8.10676 14.6305H6.45033C6.42007 14.4162 6.3583 14.2258 6.26502 14.0594C6.17173 13.8905 6.05198 13.7468 5.90574 13.6283C5.75951 13.5098 5.59059 13.419 5.39898 13.356C5.20989 13.293 5.00441 13.2614 4.78254 13.2614C4.38167 13.2614 4.03248 13.361 3.73498 13.5602C3.43748 13.7569 3.20679 14.0443 3.04291 14.4225C2.87903 14.7981 2.79709 15.2545 2.79709 15.7915C2.79709 16.3436 2.87903 16.8075 3.04291 17.1832C3.20931 17.5589 3.44126 17.8425 3.73876 18.0341C4.03627 18.2257 4.38041 18.3215 4.7712 18.3215C4.99054 18.3215 5.1935 18.2925 5.38007 18.2345C5.56916 18.1765 5.73682 18.0921 5.88305 17.9812C6.02928 17.8677 6.1503 17.7303 6.24611 17.5689C6.34444 17.4076 6.41251 17.2235 6.45033 17.0168L8.10676 17.0244C8.0639 17.3798 7.95675 17.7227 7.78531 18.053C7.61639 18.3808 7.38822 18.6745 7.1008 18.9342C6.8159 19.1913 6.47554 19.3956 6.07971 19.5468C5.6864 19.6956 5.24141 19.77 4.74473 19.77C4.05391 19.77 3.43622 19.6136 2.89164 19.301C2.34957 18.9884 1.92097 18.5358 1.60582 17.9433C1.29319 17.3509 1.13687 16.6336 1.13687 15.7915C1.13687 14.9469 1.29571 14.2283 1.61338 13.6358C1.93105 13.0434 2.36218 12.5921 2.90676 12.282C3.45134 11.9693 4.064 11.813 4.74473 11.813C5.1935 11.813 5.6095 11.876 5.99273 12.0021C6.37847 12.1282 6.7201 12.3122 7.0176 12.5542C7.3151 12.7938 7.55714 13.0875 7.74371 13.4354C7.9328 13.7833 8.05382 14.1817 8.10676 14.6305ZM11.8753 19.7775C11.2879 19.7775 10.7799 19.6527 10.3513 19.4031C9.92519 19.151 9.59617 18.8005 9.36422 18.3518C9.13227 17.9005 9.01629 17.3773 9.01629 16.7823C9.01629 16.1823 9.13227 15.6579 9.36422 15.2091C9.59617 14.7578 9.92519 14.4073 10.3513 14.1577C10.7799 13.9056 11.2879 13.7796 11.8753 13.7796C12.4628 13.7796 12.9696 13.9056 13.3956 14.1577C13.8242 14.4073 14.1545 14.7578 14.3865 15.2091C14.6184 15.6579 14.7344 16.1823 14.7344 16.7823C14.7344 17.3773 14.6184 17.9005 14.3865 18.3518C14.1545 18.8005 13.8242 19.151 13.3956 19.4031C12.9696 19.6527 12.4628 19.7775 11.8753 19.7775ZM11.8829 18.5295C12.1502 18.5295 12.3733 18.4539 12.5523 18.3026C12.7313 18.1488 12.8662 17.9396 12.9569 17.6748C13.0502 17.4101 13.0969 17.1088 13.0969 16.771C13.0969 16.4331 13.0502 16.1318 12.9569 15.8671C12.8662 15.6024 12.7313 15.3931 12.5523 15.2393C12.3733 15.0855 12.1502 15.0086 11.8829 15.0086C11.6131 15.0086 11.3862 15.0855 11.2022 15.2393C11.0207 15.3931 10.8832 15.6024 10.79 15.8671C10.6992 16.1318 10.6538 16.4331 10.6538 16.771C10.6538 17.1088 10.6992 17.4101 10.79 17.6748C10.8832 17.9396 11.0207 18.1488 11.2022 18.3026C11.3862 18.4539 11.6131 18.5295 11.8829 18.5295ZM17.393 16.3058V19.6641H15.782V13.8552H17.3174V14.8801H17.3855C17.514 14.5422 17.7296 14.275 18.0321 14.0783C18.3347 13.8791 18.7015 13.7796 19.1327 13.7796C19.536 13.7796 19.8878 13.8678 20.1878 14.0443C20.4878 14.2208 20.721 14.4729 20.8874 14.8006C21.0538 15.1259 21.137 15.5141 21.137 15.9654V19.6641H19.526V16.2529C19.5285 15.8974 19.4377 15.62 19.2537 15.4209C19.0696 15.2192 18.8162 15.1183 18.4935 15.1183C18.2767 15.1183 18.0851 15.165 17.9187 15.2582C17.7548 15.3515 17.6262 15.4877 17.5329 15.6667C17.4422 15.8432 17.3955 16.0562 17.393 16.3058ZM25.4965 13.8552V15.0654H21.9983V13.8552H25.4965ZM22.7925 12.4635H24.4036V17.879C24.4036 18.0278 24.4263 18.1438 24.4716 18.227C24.517 18.3077 24.58 18.3644 24.6607 18.3972C24.7439 18.4299 24.8397 18.4463 24.9481 18.4463C25.0238 18.4463 25.0994 18.44 25.1751 18.4274C25.2507 18.4123 25.3087 18.4009 25.349 18.3934L25.6024 19.5922C25.5217 19.6174 25.4083 19.6464 25.262 19.6792C25.1158 19.7145 24.9381 19.7359 24.7288 19.7435C24.3405 19.7586 24.0002 19.7069 23.7077 19.5884C23.4178 19.4699 23.1921 19.2859 23.0308 19.0363C22.8694 18.7867 22.79 18.4715 22.7925 18.0908V12.4635ZM28.6241 19.7586C28.1829 19.7586 27.7832 19.6452 27.4252 19.4182C27.0697 19.1888 26.7874 18.8522 26.5781 18.4085C26.3714 17.9622 26.268 17.4151 26.268 16.7672C26.268 16.1016 26.3752 15.5482 26.5895 15.107C26.8038 14.6632 27.0887 14.3317 27.4441 14.1124C27.8022 13.8905 28.1942 13.7796 28.6203 13.7796C28.9455 13.7796 29.2166 13.835 29.4334 13.946C29.6527 14.0544 29.8292 14.1905 29.9628 14.3544C30.099 14.5157 30.2024 14.6746 30.2729 14.8309H30.3221V13.8552H31.9294V19.6641H30.341V18.7337H30.2729C30.1973 18.8951 30.0902 19.0552 29.9515 19.214C29.8153 19.3703 29.6376 19.5002 29.4183 19.6036C29.2014 19.7069 28.9367 19.7586 28.6241 19.7586ZM29.1346 18.4766C29.3943 18.4766 29.6136 18.406 29.7927 18.2648C29.9742 18.1211 30.1128 17.9206 30.2087 17.6635C30.307 17.4063 30.3561 17.105 30.3561 16.7596C30.3561 16.4142 30.3082 16.1142 30.2124 15.8596C30.1166 15.6049 29.978 15.4083 29.7964 15.2696C29.6149 15.1309 29.3943 15.0616 29.1346 15.0616C28.8699 15.0616 28.6468 15.1334 28.4652 15.2772C28.2837 15.4209 28.1463 15.62 28.053 15.8747C27.9597 16.1293 27.9131 16.4243 27.9131 16.7596C27.9131 17.0975 27.9597 17.3962 28.053 17.6559C28.1488 17.9131 28.2862 18.1148 28.4652 18.261C28.6468 18.4047 28.8699 18.4766 29.1346 18.4766ZM35.8785 19.7775C35.2835 19.7775 34.7717 19.6515 34.3431 19.3993C33.917 19.1447 33.5893 18.7917 33.3599 18.3404C33.1329 17.8891 33.0195 17.3698 33.0195 16.7823C33.0195 16.1873 33.1342 15.6654 33.3636 15.2166C33.5956 14.7653 33.9246 14.4136 34.3507 14.1615C34.7768 13.9069 35.2835 13.7796 35.871 13.7796C36.3777 13.7796 36.8215 13.8716 37.2022 14.0556C37.5829 14.2397 37.8842 14.4981 38.106 14.8309C38.3279 15.1637 38.4502 15.5545 38.4729 16.0033H36.9526C36.9097 15.7133 36.7963 15.4801 36.6122 15.3036C36.4307 15.1246 36.1924 15.0351 35.8975 15.0351C35.6479 15.0351 35.4298 15.1032 35.2432 15.2393C35.0592 15.373 34.9154 15.5684 34.8121 15.8255C34.7087 16.0827 34.657 16.3941 34.657 16.7596C34.657 17.1302 34.7074 17.4454 34.8083 17.7051C34.9117 17.9648 35.0566 18.1627 35.2432 18.2988C35.4298 18.435 35.6479 18.503 35.8975 18.503C36.0815 18.503 36.2466 18.4652 36.3929 18.3896C36.5416 18.314 36.6639 18.2043 36.7597 18.0606C36.858 17.9143 36.9223 17.7391 36.9526 17.5349H38.4729C38.4477 17.9786 38.3266 18.3694 38.1098 18.7073C37.8955 19.0426 37.5993 19.3048 37.2211 19.4939C36.8429 19.683 36.3954 19.7775 35.8785 19.7775ZM42.5941 13.8552V15.0654H39.0959V13.8552H42.5941ZM39.8901 12.4635H41.5012V17.879C41.5012 18.0278 41.5239 18.1438 41.5692 18.227C41.6146 18.3077 41.6776 18.3644 41.7583 18.3972C41.8415 18.4299 41.9373 18.4463 42.0457 18.4463C42.1214 18.4463 42.197 18.44 42.2727 18.4274C42.3483 18.4123 42.4063 18.4009 42.4466 18.3934L42.7 19.5922C42.6193 19.6174 42.5059 19.6464 42.3596 19.6792C42.2134 19.7145 42.0357 19.7359 41.8264 19.7435C41.4381 19.7586 41.0978 19.7069 40.8053 19.5884C40.5154 19.4699 40.2897 19.2859 40.1284 19.0363C39.967 18.7867 39.8876 18.4715 39.8901 18.0908V12.4635ZM48.4039 15.5116L46.929 15.6024C46.9038 15.4763 46.8496 15.3629 46.7664 15.262C46.6832 15.1587 46.5735 15.0767 46.4374 15.0162C46.3038 14.9532 46.1437 14.9217 45.9571 14.9217C45.7075 14.9217 45.497 14.9746 45.3255 15.0805C45.1541 15.1839 45.0684 15.3225 45.0684 15.4965C45.0684 15.6352 45.1238 15.7524 45.2348 15.8482C45.3457 15.944 45.536 16.0209 45.8058 16.0789L46.8572 16.2907C47.4219 16.4067 47.843 16.5932 48.1203 16.8504C48.3976 17.1076 48.5363 17.4454 48.5363 17.8639C48.5363 18.2446 48.4241 18.5787 48.1997 18.8661C47.9778 19.1535 47.6728 19.3779 47.2845 19.5393C46.8988 19.6981 46.4538 19.7775 45.9495 19.7775C45.1806 19.7775 44.5679 19.6174 44.1116 19.2972C43.6577 18.9745 43.3918 18.5358 43.3136 17.9812L44.8982 17.898C44.9461 18.1324 45.0621 18.3114 45.2461 18.435C45.4302 18.556 45.6659 18.6165 45.9533 18.6165C46.2357 18.6165 46.4626 18.5623 46.634 18.4539C46.808 18.3429 46.8962 18.2005 46.8988 18.0265C46.8962 17.8803 46.8345 17.7605 46.7135 17.6673C46.5924 17.5715 46.4059 17.4983 46.1537 17.4479L45.1478 17.2475C44.5805 17.134 44.1582 16.9374 43.8809 16.6575C43.6061 16.3777 43.4687 16.0209 43.4687 15.5873C43.4687 15.2141 43.5695 14.8927 43.7712 14.6229C43.9754 14.3531 44.2616 14.1451 44.6297 13.9989C45.0003 13.8527 45.4339 13.7796 45.9306 13.7796C46.6643 13.7796 47.2416 13.9346 47.6627 14.2447C48.0863 14.5548 48.3333 14.9771 48.4039 15.5116ZM52.3711 15.7915C52.3711 14.8536 52.4959 13.9901 52.7455 13.2009C52.9976 12.4118 53.3821 11.6806 53.8989 11.0075H55.4381C55.2415 11.2571 55.0587 11.5621 54.8897 11.9227C54.7208 12.2807 54.5733 12.674 54.4473 13.1026C54.3212 13.5312 54.2229 13.9749 54.1523 14.4338C54.0817 14.8901 54.0464 15.3427 54.0464 15.7915C54.0464 16.389 54.1069 16.9928 54.2279 17.603C54.3515 18.2106 54.5179 18.7753 54.7271 19.2972C54.9389 19.8191 55.1759 20.2465 55.4381 20.5793H53.8989C53.3821 19.9061 52.9976 19.1749 52.7455 18.3858C52.4959 17.5967 52.3711 16.7319 52.3711 15.7915ZM59.1868 19.77C58.6523 19.77 58.1758 19.6716 57.7573 19.475C57.3413 19.2783 57.011 19.0073 56.7665 18.6619C56.5219 18.3165 56.3946 17.9206 56.3845 17.4744H57.9729C57.9905 17.7744 58.1166 18.0177 58.3511 18.2043C58.5855 18.3909 58.8641 18.4841 59.1868 18.4841C59.444 18.4841 59.6709 18.4274 59.8676 18.314C60.0667 18.198 60.2218 18.0379 60.3327 17.8337C60.4462 17.6269 60.5029 17.3899 60.5029 17.1227C60.5029 16.8504 60.4449 16.6109 60.3289 16.4041C60.2155 16.1974 60.0579 16.036 59.8562 15.9201C59.6545 15.8041 59.4238 15.7448 59.1641 15.7423C58.9372 15.7423 58.7166 15.789 58.5023 15.8822C58.2905 15.9755 58.1254 16.1029 58.0069 16.2642L56.5509 16.0033L56.9177 11.9189H61.6526V13.2577H58.2679L58.0674 15.1977H58.1128C58.2489 15.0061 58.4544 14.8473 58.7292 14.7212C59.004 14.5952 59.3116 14.5321 59.652 14.5321C60.1184 14.5321 60.5344 14.6418 60.9 14.8612C61.2656 15.0805 61.5543 15.3818 61.766 15.765C61.9778 16.1457 62.0824 16.5844 62.0799 17.0811C62.0824 17.603 61.9614 18.0669 61.7169 18.4728C61.4748 18.8762 61.1357 19.1939 60.6996 19.4258C60.2659 19.6552 59.7617 19.77 59.1868 19.77ZM66.6105 11.5558L64.1145 20.8289H62.7266L65.2226 11.5558H66.6105ZM67.2544 18.3026V17.013L70.1475 11.9189H71.7245L68.8995 16.9298V16.9903H73.4982V18.3026H67.2544ZM70.9719 19.6641V17.9206L71.0173 17.3382V14.8233H72.5111V19.6641H70.9719ZM74.5741 17.1492C74.5741 16.8769 74.6094 16.6058 74.68 16.3361C74.7531 16.0663 74.8628 15.7877 75.009 15.5003C75.1553 15.2129 75.3406 14.904 75.5649 14.5737L77.3575 11.9189H79.0064L77.1268 14.6721C77.2226 14.6519 77.321 14.6342 77.4218 14.6191C77.5252 14.6015 77.6298 14.5926 77.7357 14.5926C78.2122 14.5926 78.6345 14.6998 79.0026 14.9141C79.3707 15.1284 79.6594 15.4246 79.8687 15.8028C80.0804 16.181 80.1863 16.6184 80.1863 17.1151C80.1863 17.6471 80.0666 18.1123 79.8271 18.5106C79.5875 18.909 79.2585 19.2191 78.84 19.4409C78.4215 19.6603 77.9437 19.77 77.4067 19.77C76.8898 19.77 76.4159 19.6666 75.9847 19.4598C75.5561 19.2531 75.2132 18.9543 74.9561 18.5636C74.6989 18.1728 74.5716 17.7013 74.5741 17.1492ZM76.1738 17.1643C76.1738 17.424 76.2255 17.6534 76.3289 17.8526C76.4322 18.0517 76.576 18.2081 76.76 18.3215C76.9441 18.435 77.1571 18.4917 77.3991 18.4917C77.6386 18.4917 77.8492 18.435 78.0307 18.3215C78.2147 18.2081 78.3572 18.0517 78.458 17.8526C78.5614 17.6534 78.6131 17.4265 78.6131 17.1718C78.6131 16.9122 78.5601 16.684 78.4543 16.4873C78.3509 16.2882 78.2072 16.1331 78.0231 16.0222C77.8416 15.9087 77.6336 15.852 77.3991 15.852C77.1571 15.852 76.9441 15.9087 76.76 16.0222C76.576 16.1331 76.4322 16.2882 76.3289 16.4873C76.2255 16.684 76.1738 16.9096 76.1738 17.1643ZM84.3548 19.8342C83.7044 19.8317 83.1447 19.6716 82.6757 19.354C82.2093 19.0363 81.85 18.5762 81.5979 17.9736C81.3483 17.371 81.2248 16.6462 81.2273 15.799C81.2273 14.9544 81.3521 14.2346 81.6017 13.6396C81.8538 13.0446 82.2131 12.5921 82.6795 12.282C83.1484 11.9693 83.7069 11.813 84.3548 11.813C85.0028 11.813 85.56 11.9693 86.0264 12.282C86.4953 12.5946 86.8559 13.0484 87.108 13.6434C87.3601 14.2359 87.4849 14.9544 87.4824 15.799C87.4824 16.6487 87.3563 17.3748 87.1042 17.9774C86.8546 18.5799 86.4966 19.0401 86.0302 19.3577C85.5638 19.6754 85.0053 19.8342 84.3548 19.8342ZM84.3548 18.4766C84.7986 18.4766 85.1528 18.2534 85.4175 17.8072C85.6823 17.3609 85.8134 16.6916 85.8108 15.799C85.8108 15.2116 85.7503 14.7225 85.6293 14.3317C85.5108 13.9409 85.3419 13.6472 85.1225 13.4505C84.9057 13.2539 84.6498 13.1556 84.3548 13.1556C83.9136 13.1556 83.5607 13.3762 83.2959 13.8174C83.0312 14.2586 82.8976 14.9191 82.8951 15.799C82.8951 16.3941 82.9543 16.8907 83.0728 17.2891C83.1938 17.6849 83.364 17.9824 83.5833 18.1816C83.8027 18.3782 84.0599 18.4766 84.3548 18.4766ZM91.3805 15.7915C91.3805 16.7319 91.2544 17.5967 91.0023 18.3858C90.7527 19.1749 90.3695 19.9061 89.8527 20.5793H88.3135C88.5101 20.3297 88.6929 20.0246 88.8618 19.6641C89.0307 19.3035 89.1782 18.9102 89.3043 18.4841C89.4304 18.0555 89.5287 17.6118 89.5993 17.1529C89.6699 16.6941 89.7052 16.2403 89.7052 15.7915C89.7052 15.194 89.6434 14.5914 89.5199 13.9838C89.3988 13.3736 89.2324 12.8089 89.0207 12.2895C88.8114 11.7676 88.5757 11.3403 88.3135 11.0075H89.8527C90.3695 11.6806 90.7527 12.4118 91.0023 13.2009C91.2544 13.9901 91.3805 14.8536 91.3805 15.7915Z" fill="white"/>
<rect x="150.36" y="0.92804" width="419.661" height="29.952" rx="2.6624" fill="#FAFAFA" fill-opacity="0.1"/>
<path d="M161.947 19.9041V12.1589H166.591V12.9909H162.885V15.6079H166.243V16.4399H162.885V19.9041H161.947ZM168.077 19.9041V14.0952H168.969V19.9041H168.077ZM168.531 13.127C168.357 13.127 168.207 13.0678 168.08 12.9493C167.957 12.8308 167.895 12.6883 167.895 12.5219C167.895 12.3555 167.957 12.2131 168.08 12.0946C168.207 11.9761 168.357 11.9169 168.531 11.9169C168.704 11.9169 168.853 11.9761 168.977 12.0946C169.103 12.2131 169.166 12.3555 169.166 12.5219C169.166 12.6883 169.103 12.8308 168.977 12.9493C168.853 13.0678 168.704 13.127 168.531 13.127ZM170.604 12.1589H171.496V18.3913C171.496 18.6737 171.528 18.8716 171.591 18.9851C171.654 19.0985 171.784 19.1527 171.98 19.1477C172.086 19.1426 172.165 19.1351 172.215 19.125C172.268 19.1124 172.316 19.0998 172.359 19.0872L172.54 19.8587C172.462 19.8814 172.364 19.9015 172.245 19.9192C172.127 19.9393 172.003 19.9494 171.875 19.9494C171.451 19.9494 171.133 19.8335 170.922 19.6015C170.71 19.3696 170.604 19.0468 170.604 18.6334V12.1589ZM175.886 14.0952V14.8515H172.876V14.0952H175.886ZM173.753 12.7035H174.646V18.2401C174.646 18.4922 174.682 18.6813 174.755 18.8073C174.831 18.9309 174.927 19.0141 175.043 19.0569C175.161 19.0973 175.286 19.1174 175.417 19.1174C175.516 19.1174 175.596 19.1124 175.659 19.1023C175.722 19.0897 175.773 19.0796 175.811 19.0721L175.992 19.8738C175.932 19.8965 175.847 19.9192 175.739 19.9419C175.63 19.9671 175.493 19.9797 175.326 19.9797C175.074 19.9797 174.827 19.9255 174.585 19.8171C174.346 19.7087 174.147 19.5435 173.988 19.3217C173.831 19.0998 173.753 18.8199 173.753 18.4821V12.7035ZM179.602 20.0251C179.042 20.0251 178.559 19.9015 178.153 19.6545C177.75 19.4049 177.439 19.0569 177.219 18.6107C177.002 18.1619 176.894 17.64 176.894 17.045C176.894 16.45 177.002 15.9256 177.219 15.4718C177.439 15.0154 177.744 14.6599 178.134 14.4053C178.528 14.1481 178.987 14.0195 179.511 14.0195C179.814 14.0195 180.112 14.07 180.407 14.1708C180.702 14.2717 180.971 14.4355 181.213 14.6625C181.455 14.8868 181.648 15.1843 181.791 15.555C181.935 15.9256 182.007 16.3819 182.007 16.924V17.3022H177.529V16.5307H181.099C181.099 16.2029 181.034 15.9105 180.903 15.6533C180.774 15.3961 180.59 15.1932 180.351 15.0444C180.114 14.8957 179.834 14.8213 179.511 14.8213C179.156 14.8213 178.848 14.9095 178.588 15.086C178.331 15.26 178.133 15.4869 177.995 15.7667C177.856 16.0466 177.787 16.3466 177.787 16.6668V17.1811C177.787 17.6198 177.862 17.9917 178.013 18.2968C178.167 18.5993 178.38 18.83 178.653 18.9889C178.925 19.1452 179.241 19.2233 179.602 19.2233C179.836 19.2233 180.048 19.1905 180.237 19.125C180.429 19.0569 180.594 18.9561 180.733 18.8225C180.871 18.6863 180.978 18.5174 181.054 18.3157L181.916 18.5577C181.826 18.8502 181.673 19.1073 181.459 19.3292C181.244 19.5486 180.98 19.72 180.664 19.8435C180.349 19.9646 179.995 20.0251 179.602 20.0251ZM183.365 19.9041V14.0952H184.227V14.9726H184.287C184.391 14.6851 184.581 14.4519 184.859 14.2729C185.136 14.0939 185.45 14.0044 185.8 14.0044C185.962 14.0044 186.103 14.0233 186.224 14.0611C186.345 14.099 186.451 14.1506 186.541 14.2162L186.239 14.9726C186.176 14.9398 186.101 14.9146 186.016 14.8969C185.933 14.8768 185.835 14.8667 185.725 14.8667C185.442 14.8667 185.19 14.9259 184.968 15.0444C184.749 15.1629 184.575 15.3243 184.446 15.5285C184.32 15.7327 184.257 15.9659 184.257 16.2281V19.9041H183.365ZM190.447 19.9041V14.0952H191.309V14.9726H191.37C191.473 14.6851 191.664 14.4519 191.941 14.2729C192.218 14.0939 192.532 14.0044 192.883 14.0044C193.044 14.0044 193.185 14.0233 193.306 14.0611C193.427 14.099 193.533 14.1506 193.624 14.2162L193.321 14.9726C193.258 14.9398 193.184 14.9146 193.098 14.8969C193.015 14.8768 192.918 14.8667 192.807 14.8667C192.525 14.8667 192.272 14.9259 192.051 15.0444C191.831 15.1629 191.657 15.3243 191.529 15.5285C191.403 15.7327 191.34 15.9659 191.34 16.2281V19.9041H190.447ZM196.793 20.0251C196.233 20.0251 195.75 19.9015 195.345 19.6545C194.941 19.4049 194.63 19.0569 194.41 18.6107C194.194 18.1619 194.085 17.64 194.085 17.045C194.085 16.45 194.194 15.9256 194.41 15.4718C194.63 15.0154 194.935 14.6599 195.326 14.4053C195.719 14.1481 196.178 14.0195 196.702 14.0195C197.005 14.0195 197.304 14.07 197.599 14.1708C197.894 14.2717 198.162 14.4355 198.404 14.6625C198.646 14.8868 198.839 15.1843 198.983 15.555C199.126 15.9256 199.198 16.3819 199.198 16.924V17.3022H194.721V16.5307H198.291C198.291 16.2029 198.225 15.9105 198.094 15.6533C197.965 15.3961 197.781 15.1932 197.542 15.0444C197.305 14.8957 197.025 14.8213 196.702 14.8213C196.347 14.8213 196.039 14.9095 195.779 15.086C195.522 15.26 195.324 15.4869 195.186 15.7667C195.047 16.0466 194.978 16.3466 194.978 16.6668V17.1811C194.978 17.6198 195.053 17.9917 195.205 18.2968C195.358 18.5993 195.571 18.83 195.844 18.9889C196.116 19.1452 196.432 19.2233 196.793 19.2233C197.027 19.2233 197.239 19.1905 197.428 19.125C197.62 19.0569 197.785 18.9561 197.924 18.8225C198.062 18.6863 198.17 18.5174 198.245 18.3157L199.107 18.5577C199.017 18.8502 198.864 19.1073 198.65 19.3292C198.436 19.5486 198.171 19.72 197.856 19.8435C197.541 19.9646 197.186 20.0251 196.793 20.0251ZM204.671 15.3961L203.869 15.623C203.818 15.4894 203.744 15.3596 203.646 15.2335C203.55 15.1049 203.419 14.999 203.252 14.9158C203.086 14.8326 202.873 14.791 202.613 14.791C202.258 14.791 201.961 14.873 201.724 15.0369C201.49 15.1982 201.373 15.4037 201.373 15.6533C201.373 15.8752 201.453 16.0504 201.615 16.179C201.776 16.3075 202.028 16.4147 202.371 16.5004L203.233 16.7122C203.753 16.8383 204.14 17.0311 204.394 17.2908C204.649 17.548 204.776 17.8795 204.776 18.2854C204.776 18.6182 204.681 18.9157 204.489 19.1779C204.3 19.4401 204.035 19.6469 203.695 19.7982C203.354 19.9494 202.959 20.0251 202.507 20.0251C201.915 20.0251 201.424 19.8965 201.036 19.6393C200.648 19.3822 200.402 19.0065 200.299 18.5123L201.146 18.3006C201.227 18.6132 201.379 18.8477 201.603 19.004C201.83 19.1603 202.127 19.2385 202.492 19.2385C202.908 19.2385 203.238 19.1502 203.483 18.9737C203.73 18.7947 203.854 18.5804 203.854 18.3308C203.854 18.1291 203.783 17.9602 203.642 17.8241C203.501 17.6854 203.284 17.582 202.991 17.5139L202.023 17.287C201.491 17.161 201.1 16.9656 200.851 16.7009C200.604 16.4336 200.48 16.0995 200.48 15.6987C200.48 15.3709 200.572 15.081 200.756 14.8289C200.943 14.5767 201.196 14.3788 201.516 14.2351C201.839 14.0914 202.205 14.0195 202.613 14.0195C203.188 14.0195 203.639 14.1456 203.967 14.3977C204.297 14.6498 204.532 14.9826 204.671 15.3961ZM209.781 17.5291V14.0952H210.673V19.9041H209.781V18.9208H209.72C209.584 19.2158 209.372 19.4666 209.085 19.6734C208.797 19.8776 208.434 19.9797 207.996 19.9797C207.633 19.9797 207.31 19.9003 207.028 19.7414C206.745 19.5801 206.523 19.338 206.362 19.0153C206.201 18.6901 206.12 18.2804 206.12 17.7862V14.0952H207.012V17.7257C207.012 18.1493 207.131 18.4871 207.368 18.7393C207.607 18.9914 207.912 19.1174 208.283 19.1174C208.505 19.1174 208.731 19.0607 208.96 18.9473C209.192 18.8338 209.386 18.6598 209.542 18.4254C209.701 18.1909 209.781 17.8921 209.781 17.5291ZM212.308 12.1589H213.2V18.3913C213.2 18.6737 213.232 18.8716 213.295 18.9851C213.358 19.0985 213.488 19.1527 213.684 19.1477C213.79 19.1426 213.869 19.1351 213.919 19.125C213.972 19.1124 214.02 19.0998 214.063 19.0872L214.244 19.8587C214.166 19.8814 214.068 19.9015 213.949 19.9192C213.831 19.9393 213.707 19.9494 213.579 19.9494C213.155 19.9494 212.837 19.8335 212.626 19.6015C212.414 19.3696 212.308 19.0468 212.308 18.6334V12.1589ZM217.59 14.0952V14.8515H214.58V14.0952H217.59ZM215.457 12.7035H216.35V18.2401C216.35 18.4922 216.386 18.6813 216.459 18.8073C216.535 18.9309 216.631 19.0141 216.747 19.0569C216.865 19.0973 216.99 19.1174 217.121 19.1174C217.22 19.1174 217.3 19.1124 217.363 19.1023C217.426 19.0897 217.477 19.0796 217.515 19.0721L217.696 19.8738C217.636 19.8965 217.551 19.9192 217.443 19.9419C217.334 19.9671 217.197 19.9797 217.03 19.9797C216.778 19.9797 216.531 19.9255 216.289 19.8171C216.05 19.7087 215.851 19.5435 215.692 19.3217C215.535 19.0998 215.457 18.8199 215.457 18.4821V12.7035ZM222.943 15.3961L222.142 15.623C222.091 15.4894 222.017 15.3596 221.918 15.2335C221.823 15.1049 221.692 14.999 221.525 14.9158C221.359 14.8326 221.146 14.791 220.886 14.791C220.531 14.791 220.234 14.873 219.997 15.0369C219.763 15.1982 219.646 15.4037 219.646 15.6533C219.646 15.8752 219.726 16.0504 219.888 16.179C220.049 16.3075 220.301 16.4147 220.644 16.5004L221.506 16.7122C222.026 16.8383 222.413 17.0311 222.667 17.2908C222.922 17.548 223.049 17.8795 223.049 18.2854C223.049 18.6182 222.953 18.9157 222.762 19.1779C222.573 19.4401 222.308 19.6469 221.968 19.7982C221.627 19.9494 221.231 20.0251 220.78 20.0251C220.188 20.0251 219.697 19.8965 219.309 19.6393C218.921 19.3822 218.675 19.0065 218.572 18.5123L219.419 18.3006C219.499 18.6132 219.652 18.8477 219.876 19.004C220.103 19.1603 220.399 19.2385 220.765 19.2385C221.181 19.2385 221.511 19.1502 221.756 18.9737C222.003 18.7947 222.126 18.5804 222.126 18.3308C222.126 18.1291 222.056 17.9602 221.915 17.8241C221.773 17.6854 221.557 17.582 221.264 17.5139L220.296 17.287C219.764 17.161 219.373 16.9656 219.124 16.7009C218.877 16.4336 218.753 16.0995 218.753 15.6987C218.753 15.3709 218.845 15.081 219.029 14.8289C219.216 14.5767 219.469 14.3788 219.789 14.2351C220.112 14.0914 220.478 14.0195 220.886 14.0195C221.461 14.0195 221.912 14.1456 222.24 14.3977C222.57 14.6498 222.805 14.9826 222.943 15.3961ZM225.043 19.9646C224.857 19.9646 224.697 19.8977 224.563 19.7641C224.429 19.6305 224.362 19.4704 224.362 19.2838C224.362 19.0973 224.429 18.9372 224.563 18.8035C224.697 18.6699 224.857 18.6031 225.043 18.6031C225.23 18.6031 225.39 18.6699 225.523 18.8035C225.657 18.9372 225.724 19.0973 225.724 19.2838C225.724 19.4074 225.692 19.5208 225.629 19.6242C225.569 19.7276 225.487 19.8108 225.384 19.8738C225.283 19.9343 225.169 19.9646 225.043 19.9646ZM227.976 19.9646C227.789 19.9646 227.629 19.8977 227.496 19.7641C227.362 19.6305 227.295 19.4704 227.295 19.2838C227.295 19.0973 227.362 18.9372 227.496 18.8035C227.629 18.6699 227.789 18.6031 227.976 18.6031C228.163 18.6031 228.323 18.6699 228.456 18.8035C228.59 18.9372 228.657 19.0973 228.657 19.2838C228.657 19.4074 228.625 19.5208 228.562 19.6242C228.502 19.7276 228.42 19.8108 228.316 19.8738C228.215 19.9343 228.102 19.9646 227.976 19.9646ZM230.909 19.9646C230.722 19.9646 230.562 19.8977 230.428 19.7641C230.295 19.6305 230.228 19.4704 230.228 19.2838C230.228 19.0973 230.295 18.9372 230.428 18.8035C230.562 18.6699 230.722 18.6031 230.909 18.6031C231.095 18.6031 231.255 18.6699 231.389 18.8035C231.523 18.9372 231.59 19.0973 231.59 19.2838C231.59 19.4074 231.558 19.5208 231.495 19.6242C231.434 19.7276 231.353 19.8108 231.249 19.8738C231.148 19.9343 231.035 19.9646 230.909 19.9646Z" fill="#93A2AD"/>
<g clip-path="url(#clip0_321_165)">
<path fill-rule="evenodd" clip-rule="evenodd" d="M553.223 18.4944C553.223 18.4946 553.223 18.4949 553.223 18.4951C551.627 20.0184 549.1 19.9602 547.576 18.3651C546.053 16.77 546.111 14.242 547.706 12.7188C549.301 11.1955 551.829 11.2537 553.353 12.8488C554.876 14.4437 554.818 16.9711 553.223 18.4944ZM554.595 18.9684C556.268 16.9174 556.191 13.8932 554.315 11.9294C552.284 9.80265 548.914 9.72501 546.787 11.756C544.66 13.7871 544.583 17.1576 546.614 19.2844C548.489 21.2482 551.506 21.4649 553.632 19.8877L555.04 21.3616C555.294 21.6275 555.715 21.6372 555.981 21.3833C556.247 21.1294 556.256 20.7081 556.002 20.4423L554.595 18.9684Z" fill="#93A2AD"/>
</g>
<defs>
<clipPath id="clip0_321_165">
<rect width="15.9744" height="15.9744" fill="white" transform="translate(543.397 7.91687)"/>
</clipPath>
</defs>
</svg>
