<svg width="218" height="32" viewBox="0 0 218 32" fill="none" xmlns="http://www.w3.org/2000/svg">
<rect x="1.01585" y="1.2" width="119.808" height="29.952" rx="3.744" stroke="#25C9BA" stroke-width="0.832"/>
<path d="M25.643 14.0575C25.6027 13.6995 25.4363 13.4222 25.1438 13.2255C24.8514 13.0263 24.4833 12.9268 24.0395 12.9268C23.7219 12.9268 23.4471 12.9772 23.2151 13.078C22.9832 13.1764 22.8029 13.3125 22.6743 13.4865C22.5483 13.6579 22.4852 13.8533 22.4852 14.0726C22.4852 14.2567 22.5281 14.4155 22.6138 14.5492C22.702 14.6828 22.8168 14.795 22.9579 14.8857C23.1017 14.974 23.2555 15.0484 23.4193 15.1089C23.5832 15.1669 23.7408 15.2148 23.8921 15.2526L24.6484 15.4492C24.8955 15.5097 25.1489 15.5917 25.4086 15.695C25.6683 15.7984 25.909 15.9346 26.1309 16.1035C26.3528 16.2724 26.5318 16.4817 26.6679 16.7313C26.8066 16.9809 26.8759 17.2796 26.8759 17.6276C26.8759 18.0662 26.7625 18.4558 26.5355 18.7961C26.3112 19.1365 25.9847 19.405 25.5561 19.6017C25.13 19.7983 24.6144 19.8966 24.0093 19.8966C23.4294 19.8966 22.9277 19.8046 22.5041 19.6206C22.0806 19.4365 21.749 19.1756 21.5095 18.8377C21.27 18.4974 21.1376 18.094 21.1124 17.6276H22.2848C22.3075 17.9074 22.3982 18.1406 22.5571 18.3272C22.7184 18.5112 22.9239 18.6486 23.1735 18.7394C23.4256 18.8277 23.7017 18.8718 24.0017 18.8718C24.332 18.8718 24.6257 18.8201 24.8829 18.7167C25.1426 18.6108 25.3468 18.4646 25.4955 18.278C25.6443 18.0889 25.7187 17.8683 25.7187 17.6162C25.7187 17.3868 25.6531 17.199 25.522 17.0527C25.3934 16.9065 25.2182 16.7855 24.9963 16.6897C24.777 16.5939 24.5287 16.5094 24.2513 16.4363L23.3361 16.1867C22.7159 16.0178 22.2243 15.7694 21.8612 15.4417C21.5007 15.1139 21.3204 14.6803 21.3204 14.1407C21.3204 13.6945 21.4414 13.3049 21.6835 12.9721C21.9255 12.6393 22.2533 12.3809 22.6667 12.1969C23.0802 12.0103 23.5467 11.917 24.066 11.917C24.5904 11.917 25.0531 12.009 25.4539 12.1931C25.8573 12.3771 26.175 12.6305 26.407 12.9532C26.6389 13.2734 26.7599 13.6415 26.77 14.0575H25.643ZM29.8721 19.8966C29.504 19.8966 29.1712 19.8286 28.8737 19.6924C28.5762 19.5538 28.3404 19.3533 28.1665 19.0911C27.995 18.8289 27.9093 18.5075 27.9093 18.1268C27.9093 17.799 27.9723 17.5292 28.0984 17.3174C28.2244 17.1057 28.3946 16.938 28.6089 16.8145C28.8232 16.6909 29.0627 16.5976 29.3275 16.5346C29.5922 16.4716 29.862 16.4237 30.1368 16.3909C30.4847 16.3506 30.7671 16.3178 30.9839 16.2926C31.2007 16.2648 31.3583 16.2207 31.4566 16.1602C31.555 16.0997 31.6041 16.0014 31.6041 15.8652V15.8388C31.6041 15.5085 31.5108 15.2526 31.3243 15.071C31.1402 14.8895 30.8654 14.7988 30.4998 14.7988C30.1191 14.7988 29.8191 14.8832 29.5998 15.0521C29.3829 15.2185 29.2329 15.4038 29.1497 15.6081L28.087 15.366C28.2131 15.0131 28.3971 14.7282 28.6392 14.5113C28.8837 14.292 29.1649 14.1332 29.4825 14.0348C29.8002 13.934 30.1343 13.8836 30.4847 13.8836C30.7167 13.8836 30.9625 13.9113 31.2222 13.9668C31.4844 14.0197 31.7289 14.118 31.9558 14.2617C32.1853 14.4054 32.3731 14.6109 32.5193 14.8782C32.6656 15.1429 32.7387 15.487 32.7387 15.9106V19.7681H31.6344V18.9739H31.589C31.5159 19.1201 31.4062 19.2638 31.26 19.405C31.1138 19.5462 30.9259 19.6634 30.6965 19.7567C30.4671 19.85 30.1923 19.8966 29.8721 19.8966ZM30.1179 18.989C30.4305 18.989 30.6978 18.9272 30.9196 18.8037C31.144 18.6802 31.3142 18.5188 31.4302 18.3196C31.5487 18.1179 31.6079 17.9024 31.6079 17.6729V16.9241C31.5676 16.9645 31.4894 17.0023 31.3734 17.0376C31.26 17.0704 31.1301 17.0994 30.9839 17.1246C30.8377 17.1473 30.6952 17.1687 30.5566 17.1889C30.4179 17.2065 30.3019 17.2216 30.2086 17.2342C29.9893 17.262 29.7889 17.3086 29.6073 17.3742C29.4283 17.4397 29.2846 17.5343 29.1762 17.6578C29.0703 17.7788 29.0174 17.9402 29.0174 18.1419C29.0174 18.4217 29.1207 18.6335 29.3275 18.7772C29.5342 18.9184 29.7977 18.989 30.1179 18.989ZM39.0061 13.9592L36.8996 19.7681H35.6894L33.5792 13.9592H34.7931L36.2643 18.4293H36.3248L37.7921 13.9592H39.0061ZM42.3747 19.8853C41.8024 19.8853 41.3095 19.763 40.8961 19.5185C40.4851 19.2714 40.1674 18.9247 39.943 18.4785C39.7212 18.0297 39.6102 17.504 39.6102 16.9014C39.6102 16.3064 39.7212 15.782 39.943 15.3282C40.1674 14.8744 40.4801 14.5202 40.8809 14.2655C41.2843 14.0109 41.7558 13.8836 42.2953 13.8836C42.6231 13.8836 42.9408 13.9378 43.2483 14.0462C43.5559 14.1546 43.832 14.3248 44.0766 14.5567C44.3211 14.7887 44.514 15.09 44.6552 15.4606C44.7964 15.8287 44.867 16.2762 44.867 16.8031V17.204H40.2494V16.3569H43.7589C43.7589 16.0594 43.6984 15.7959 43.5774 15.5665C43.4563 15.3345 43.2862 15.1517 43.0668 15.0181C42.85 14.8845 42.5954 14.8177 42.3029 14.8177C41.9852 14.8177 41.7079 14.8958 41.4709 15.0521C41.2364 15.2059 41.0549 15.4076 40.9263 15.6572C40.8003 15.9043 40.7372 16.1728 40.7372 16.4628V17.1246C40.7372 17.5128 40.8053 17.8431 40.9414 18.1154C41.0801 18.3877 41.273 18.5957 41.5201 18.7394C41.7671 18.8806 42.0558 18.9512 42.3861 18.9512C42.6004 18.9512 42.7958 18.9209 42.9723 18.8604C43.1488 18.7974 43.3013 18.7041 43.4299 18.5806C43.5585 18.457 43.6568 18.3045 43.7249 18.123L44.7951 18.3158C44.7094 18.631 44.5556 18.9071 44.3337 19.1441C44.1144 19.3785 43.8383 19.5613 43.5055 19.6924C43.1752 19.821 42.7983 19.8853 42.3747 19.8853ZM49.685 19.7681H48.4446L51.2318 12.0229H52.5819L55.3691 19.7681H54.1286L51.939 13.4297H51.8785L49.685 19.7681ZM49.893 16.735H53.9169V17.7183H49.893V16.735ZM57.5276 12.0229V19.7681H56.3968V12.0229H57.5276ZM60.1795 12.0229V19.7681H59.0488V12.0229H60.1795ZM71.0428 14.5416H69.8629C69.8175 14.2895 69.7331 14.0676 69.6095 13.876C69.486 13.6844 69.3347 13.5218 69.1557 13.3881C68.9767 13.2545 68.7763 13.1537 68.5544 13.0856C68.335 13.0175 68.1018 12.9835 67.8548 12.9835C67.4085 12.9835 67.0089 13.0957 66.6559 13.3201C66.3055 13.5445 66.0281 13.8735 65.8239 14.3071C65.6222 14.7408 65.5214 15.2702 65.5214 15.8955C65.5214 16.5258 65.6222 17.0578 65.8239 17.4914C66.0281 17.9251 66.3067 18.2528 66.6597 18.4747C67.0127 18.6966 67.4098 18.8075 67.851 18.8075C68.0955 18.8075 68.3275 18.7747 68.5468 18.7092C68.7687 18.6411 68.9691 18.5415 69.1481 18.4104C69.3271 18.2793 69.4784 18.1192 69.6019 17.9301C69.728 17.7385 69.815 17.5191 69.8629 17.2721L71.0428 17.2758C70.9798 17.6566 70.8575 18.007 70.676 18.3272C70.497 18.6449 70.2663 18.9197 69.9839 19.1516C69.7041 19.3811 69.3839 19.5588 69.0233 19.6849C68.6628 19.8109 68.2695 19.874 67.8434 19.874C67.1728 19.874 66.5752 19.7151 66.0508 19.3974C65.5264 19.0773 65.1129 18.6197 64.8104 18.0246C64.5104 17.4296 64.3603 16.7199 64.3603 15.8955C64.3603 15.0685 64.5116 14.3588 64.8142 13.7663C65.1167 13.1713 65.5302 12.715 66.0546 12.3973C66.579 12.0771 67.1753 11.917 67.8434 11.917C68.2544 11.917 68.6376 11.9763 68.9931 12.0948C69.3511 12.2107 69.6725 12.3822 69.9574 12.6091C70.2423 12.8335 70.4781 13.1083 70.6646 13.4335C70.8512 13.7562 70.9773 14.1256 71.0428 14.5416ZM74.7972 19.8853C74.2526 19.8853 73.7774 19.7605 73.3715 19.5109C72.9656 19.2613 72.6504 18.9121 72.426 18.4633C72.2016 18.0146 72.0894 17.4902 72.0894 16.8901C72.0894 16.2875 72.2016 15.7606 72.426 15.3093C72.6504 14.858 72.9656 14.5076 73.3715 14.258C73.7774 14.0084 74.2526 13.8836 74.7972 13.8836C75.3418 13.8836 75.8171 14.0084 76.223 14.258C76.6289 14.5076 76.944 14.858 77.1684 15.3093C77.3928 15.7606 77.505 16.2875 77.505 16.8901C77.505 17.4902 77.3928 18.0146 77.1684 18.4633C76.944 18.9121 76.6289 19.2613 76.223 19.5109C75.8171 19.7605 75.3418 19.8853 74.7972 19.8853ZM74.801 18.9361C75.154 18.9361 75.4464 18.8428 75.6784 18.6562C75.9103 18.4696 76.0818 18.2213 76.1927 17.9112C76.3062 17.6011 76.3629 17.2595 76.3629 16.8863C76.3629 16.5157 76.3062 16.1753 76.1927 15.8652C76.0818 15.5526 75.9103 15.3017 75.6784 15.1126C75.4464 14.9236 75.154 14.829 74.801 14.829C74.4455 14.829 74.1505 14.9236 73.9161 15.1126C73.6841 15.3017 73.5114 15.5526 73.3979 15.8652C73.287 16.1753 73.2315 16.5157 73.2315 16.8863C73.2315 17.2595 73.287 17.6011 73.3979 17.9112C73.5114 18.2213 73.6841 18.4696 73.9161 18.6562C74.1505 18.8428 74.4455 18.9361 74.801 18.9361ZM79.898 16.319V19.7681H78.7672V13.9592H79.8526V14.9046H79.9244C80.058 14.5971 80.2673 14.35 80.5522 14.1634C80.8396 13.9768 81.2014 13.8836 81.6376 13.8836C82.0334 13.8836 82.3801 13.9668 82.6776 14.1332C82.9751 14.297 83.2058 14.5416 83.3697 14.8668C83.5335 15.1921 83.6155 15.5942 83.6155 16.0732V19.7681H82.4847V16.2094C82.4847 15.7883 82.375 15.4593 82.1557 15.2223C81.9364 14.9828 81.6351 14.863 81.2518 14.863C80.9896 14.863 80.7564 14.9198 80.5522 15.0332C80.3505 15.1467 80.1904 15.3131 80.0719 15.5324C79.9559 15.7493 79.898 16.0115 79.898 16.319ZM87.8436 13.9592V14.8668H84.6706V13.9592H87.8436ZM85.5215 12.5675H86.6523V18.0625C86.6523 18.2818 86.6851 18.447 86.7506 18.5579C86.8162 18.6663 86.9006 18.7407 87.004 18.781C87.1099 18.8188 87.2246 18.8377 87.3481 18.8377C87.4389 18.8377 87.5183 18.8314 87.5864 18.8188C87.6545 18.8062 87.7074 18.7961 87.7452 18.7886L87.9494 19.7227C87.8839 19.7479 87.7906 19.7731 87.6696 19.7983C87.5486 19.8261 87.3973 19.8412 87.2158 19.8437C86.9183 19.8487 86.6409 19.7958 86.3838 19.6849C86.1266 19.5739 85.9186 19.4025 85.7598 19.1705C85.6009 18.9386 85.5215 18.6474 85.5215 18.2969V12.5675ZM90.7849 19.8966C90.4168 19.8966 90.084 19.8286 89.7865 19.6924C89.489 19.5538 89.2532 19.3533 89.0793 19.0911C88.9078 18.8289 88.8221 18.5075 88.8221 18.1268C88.8221 17.799 88.8851 17.5292 89.0112 17.3174C89.1372 17.1057 89.3074 16.938 89.5217 16.8145C89.736 16.6909 89.9756 16.5976 90.2403 16.5346C90.505 16.4716 90.7748 16.4237 91.0496 16.3909C91.3975 16.3506 91.6799 16.3178 91.8967 16.2926C92.1135 16.2648 92.2711 16.2207 92.3694 16.1602C92.4678 16.0997 92.5169 16.0014 92.5169 15.8652V15.8388C92.5169 15.5085 92.4236 15.2526 92.2371 15.071C92.053 14.8895 91.7782 14.7988 91.4126 14.7988C91.0319 14.7988 90.7319 14.8832 90.5126 15.0521C90.2957 15.2185 90.1457 15.4038 90.0625 15.6081L88.9998 15.366C89.1259 15.0131 89.31 14.7282 89.552 14.5113C89.7965 14.292 90.0777 14.1332 90.3953 14.0348C90.713 13.934 91.0471 13.8836 91.3975 13.8836C91.6295 13.8836 91.8753 13.9113 92.135 13.9668C92.3972 14.0197 92.6417 14.118 92.8686 14.2617C93.0981 14.4054 93.2859 14.6109 93.4321 14.8782C93.5784 15.1429 93.6515 15.487 93.6515 15.9106V19.7681H92.5472V18.9739H92.5018C92.4287 19.1201 92.319 19.2638 92.1728 19.405C92.0266 19.5462 91.8387 19.6634 91.6093 19.7567C91.3799 19.85 91.1051 19.8966 90.7849 19.8966ZM91.0307 18.989C91.3433 18.989 91.6106 18.9272 91.8324 18.8037C92.0568 18.6802 92.227 18.5188 92.343 18.3196C92.4615 18.1179 92.5207 17.9024 92.5207 17.6729V16.9241C92.4804 16.9645 92.4022 17.0023 92.2862 17.0376C92.1728 17.0704 92.0429 17.0994 91.8967 17.1246C91.7505 17.1473 91.608 17.1687 91.4694 17.1889C91.3307 17.2065 91.2147 17.2216 91.1214 17.2342C90.9021 17.262 90.7017 17.3086 90.5201 17.3742C90.3411 17.4397 90.1974 17.5343 90.089 17.6578C89.9831 17.7788 89.9302 17.9402 89.9302 18.1419C89.9302 18.4217 90.0335 18.6335 90.2403 18.7772C90.447 18.9184 90.7105 18.989 91.0307 18.989ZM97.6044 19.8853C97.0422 19.8853 96.5581 19.758 96.1522 19.5033C95.7488 19.2462 95.4387 18.8919 95.2219 18.4406C95.0051 17.9894 94.8966 17.4725 94.8966 16.8901C94.8966 16.3001 95.0076 15.7795 95.2294 15.3282C95.4513 14.8744 95.7639 14.5202 96.1673 14.2655C96.5707 14.0109 97.046 13.8836 97.5931 13.8836C98.0343 13.8836 98.4276 13.9655 98.773 14.1294C99.1184 14.2907 99.397 14.5176 99.6088 14.8101C99.8231 15.1026 99.9504 15.4442 99.9907 15.835H98.8902C98.8297 15.5627 98.6911 15.3282 98.4742 15.1316C98.2599 14.9349 97.9725 14.8366 97.612 14.8366C97.2968 14.8366 97.0208 14.9198 96.7838 15.0862C96.5493 15.2501 96.3665 15.4845 96.2354 15.7896C96.1043 16.0921 96.0387 16.4502 96.0387 16.8636C96.0387 17.2872 96.103 17.6528 96.2316 17.9604C96.3602 18.2679 96.5417 18.5062 96.7762 18.6751C97.0132 18.844 97.2918 18.9285 97.612 18.9285C97.8263 18.9285 98.0204 18.8894 98.1944 18.8113C98.3709 18.7306 98.5184 18.6159 98.6369 18.4671C98.7579 18.3184 98.8423 18.1394 98.8902 17.9301H99.9907C99.9504 18.3058 99.8281 18.6411 99.6239 18.9361C99.4197 19.231 99.1461 19.463 98.8033 19.6319C98.4629 19.8008 98.0633 19.8853 97.6044 19.8853ZM103.912 13.9592V14.8668H100.739V13.9592H103.912ZM101.59 12.5675H102.72V18.0625C102.72 18.2818 102.753 18.447 102.819 18.5579C102.884 18.6663 102.969 18.7407 103.072 18.781C103.178 18.8188 103.293 18.8377 103.416 18.8377C103.507 18.8377 103.586 18.8314 103.654 18.8188C103.722 18.8062 103.775 18.7961 103.813 18.7886L104.017 19.7227C103.952 19.7479 103.859 19.7731 103.738 19.7983C103.617 19.8261 103.465 19.8412 103.284 19.8437C102.986 19.8487 102.709 19.7958 102.452 19.6849C102.195 19.5739 101.987 19.4025 101.828 19.1705C101.669 18.9386 101.59 18.6474 101.59 18.2969V12.5675ZM109.422 15.3774L108.397 15.5589C108.354 15.4278 108.286 15.303 108.193 15.1845C108.102 15.066 107.978 14.9689 107.822 14.8933C107.666 14.8177 107.47 14.7798 107.236 14.7798C106.916 14.7798 106.648 14.8517 106.434 14.9954C106.22 15.1366 106.113 15.3194 106.113 15.5438C106.113 15.7379 106.184 15.8942 106.328 16.0127C106.472 16.1312 106.704 16.2283 107.024 16.3039L107.947 16.5157C108.481 16.6392 108.88 16.8296 109.142 17.0868C109.404 17.3439 109.535 17.678 109.535 18.0889C109.535 18.4369 109.434 18.747 109.233 19.0193C109.033 19.289 108.755 19.5008 108.397 19.6546C108.041 19.8084 107.629 19.8853 107.16 19.8853C106.51 19.8853 105.979 19.7466 105.568 19.4693C105.157 19.1894 104.905 18.7924 104.812 18.278L105.905 18.1116C105.973 18.3965 106.113 18.6121 106.324 18.7583C106.536 18.902 106.812 18.9739 107.153 18.9739C107.523 18.9739 107.819 18.897 108.041 18.7432C108.263 18.5869 108.374 18.3965 108.374 18.1721C108.374 17.9906 108.306 17.8381 108.17 17.7145C108.036 17.591 107.831 17.4977 107.553 17.4347L106.57 17.2191C106.028 17.0956 105.627 16.8989 105.368 16.6292C105.11 16.3594 104.982 16.0178 104.982 15.6043C104.982 15.2614 105.078 14.9614 105.269 14.7042C105.461 14.447 105.726 14.2466 106.063 14.1029C106.401 13.9567 106.788 13.8836 107.224 13.8836C107.852 13.8836 108.346 14.0197 108.707 14.292C109.067 14.5618 109.306 14.9236 109.422 15.3774Z" fill="#25C9BA"/>
<path d="M17.2106 15.3981H8.08786V16.9228H17.2106V15.3981Z" fill="#25C9BA"/>
<path d="M13.4102 11.6H11.8855V20.7228H13.4102V11.6Z" fill="#25C9BA"/>
<rect x="128.312" y="1.2" width="89.024" height="29.952" rx="3.744" stroke="#25C9BA" stroke-width="0.832"/>
<g clip-path="url(#clip0_73_95)">
<path d="M145.368 13.1259L142.388 16.1061V9.104H141V16.1061L138.02 13.1259L137.048 14.096L141.694 18.7419L146.34 14.096L145.368 13.1259Z" fill="#25C9BA"/>
<path d="M145.506 20.1979H137.88V21.584H145.506V20.1979Z" fill="#25C9BA"/>
</g>
<path d="M152.875 19.5921V11.8469H157.731V12.8529H154.043V15.2127H157.477V16.2149H154.043V18.5861H157.776V19.5921H152.875ZM160.093 13.7832L161.375 16.0447L162.669 13.7832H163.905L162.094 16.6876L163.921 19.5921H162.684L161.375 17.4213L160.071 19.5921H158.83L160.638 16.6876L158.853 13.7832H160.093ZM165.066 21.7704V13.7832H166.171V14.7249H166.265C166.331 14.6038 166.425 14.4639 166.549 14.3051C166.672 14.1462 166.844 14.0076 167.063 13.8891C167.283 13.7681 167.572 13.7076 167.933 13.7076C168.402 13.7076 168.82 13.8261 169.189 14.063C169.557 14.3 169.845 14.6417 170.055 15.0879C170.266 15.5342 170.372 16.0712 170.372 16.699C170.372 17.3268 170.268 17.865 170.058 18.3138C169.849 18.7601 169.562 19.1042 169.196 19.3462C168.831 19.5858 168.413 19.7055 167.944 19.7055C167.591 19.7055 167.303 19.6463 167.078 19.5278C166.856 19.4093 166.682 19.2706 166.556 19.1118C166.43 18.9529 166.333 18.8117 166.265 18.6882H166.197V21.7704H165.066ZM166.174 16.6876C166.174 17.0961 166.234 17.4541 166.352 17.7617C166.471 18.0693 166.642 18.31 166.867 18.484C167.091 18.6554 167.366 18.7412 167.691 18.7412C168.029 18.7412 168.311 18.6517 168.538 18.4726C168.765 18.2911 168.936 18.0453 169.052 17.7352C169.171 17.4251 169.23 17.0759 169.23 16.6876C169.23 16.3044 169.172 15.9603 169.056 15.6552C168.943 15.3501 168.771 15.1093 168.542 14.9329C168.315 14.7564 168.031 14.6681 167.691 14.6681C167.363 14.6681 167.086 14.7526 166.859 14.9215C166.635 15.0904 166.464 15.3262 166.348 15.6287C166.232 15.9313 166.174 16.2842 166.174 16.6876ZM174.086 19.7093C173.541 19.7093 173.066 19.5845 172.66 19.3349C172.254 19.0853 171.939 18.7361 171.715 18.2873C171.49 17.8386 171.378 17.3141 171.378 16.7141C171.378 16.1115 171.49 15.5846 171.715 15.1333C171.939 14.682 172.254 14.3316 172.66 14.082C173.066 13.8324 173.541 13.7076 174.086 13.7076C174.631 13.7076 175.106 13.8324 175.512 14.082C175.918 14.3316 176.233 14.682 176.457 15.1333C176.682 15.5846 176.794 16.1115 176.794 16.7141C176.794 17.3141 176.682 17.8386 176.457 18.2873C176.233 18.7361 175.918 19.0853 175.512 19.3349C175.106 19.5845 174.631 19.7093 174.086 19.7093ZM174.09 18.7601C174.443 18.7601 174.735 18.6668 174.967 18.4802C175.199 18.2936 175.371 18.0453 175.482 17.7352C175.595 17.4251 175.652 17.0835 175.652 16.7103C175.652 16.3397 175.595 15.9993 175.482 15.6892C175.371 15.3766 175.199 15.1257 174.967 14.9366C174.735 14.7476 174.443 14.653 174.09 14.653C173.734 14.653 173.439 14.7476 173.205 14.9366C172.973 15.1257 172.8 15.3766 172.687 15.6892C172.576 15.9993 172.52 16.3397 172.52 16.7103C172.52 17.0835 172.576 17.4251 172.687 17.7352C172.8 18.0453 172.973 18.2936 173.205 18.4802C173.439 18.6668 173.734 18.7601 174.09 18.7601ZM178.056 19.5921V13.7832H179.149V14.706H179.209C179.315 14.3933 179.502 14.1475 179.769 13.9685C180.039 13.787 180.344 13.6962 180.684 13.6962C180.755 13.6962 180.838 13.6987 180.934 13.7038C181.032 13.7088 181.109 13.7151 181.165 13.7227V14.8043C181.119 14.7917 181.039 14.7778 180.923 14.7627C180.807 14.745 180.691 14.7362 180.575 14.7362C180.307 14.7362 180.069 14.7929 179.86 14.9064C179.653 15.0173 179.489 15.1724 179.368 15.3716C179.247 15.5682 179.187 15.7926 179.187 16.0447V19.5921H178.056ZM185.198 13.7832V14.6908H182.025V13.7832H185.198ZM182.876 12.3915H184.007V17.8865C184.007 18.1058 184.039 18.2709 184.105 18.3819C184.171 18.4903 184.255 18.5647 184.358 18.605C184.464 18.6428 184.579 18.6617 184.703 18.6617C184.793 18.6617 184.873 18.6554 184.941 18.6428C185.009 18.6302 185.062 18.6201 185.1 18.6126L185.304 19.5467C185.238 19.5719 185.145 19.5971 185.024 19.6223C184.903 19.6501 184.752 19.6652 184.57 19.6677C184.273 19.6727 183.995 19.6198 183.738 19.5089C183.481 19.3979 183.273 19.2265 183.114 18.9945C182.955 18.7626 182.876 18.4714 182.876 18.1209V12.3915ZM190.012 19.5921H188.772L191.559 11.8469H192.909L195.696 19.5921H194.456L192.266 13.2537H192.206L190.012 19.5921ZM190.22 16.559H194.244V17.5423H190.22V16.559ZM197.855 11.8469V19.5921H196.724V11.8469H197.855ZM200.507 11.8469V19.5921H199.376V11.8469H200.507Z" fill="#25C9BA"/>
<defs>
<clipPath id="clip0_73_95">
<rect width="9.29178" height="12.48" fill="white" transform="translate(137.048 9.104)"/>
</clipPath>
</defs>
</svg>
