<svg width="898" height="43" viewBox="0 0 898 43" fill="none" xmlns="http://www.w3.org/2000/svg">
<rect y="30.2847" width="61.4016" height="12.6464" rx="6.3232" fill="#FFEBDB"/>
<path d="M6.96299 33.7672V38.6079H6.23262V33.7672H6.96299ZM8.67662 36.4523V38.6079H7.9699V34.9774H8.64826V35.5683H8.69317C8.77668 35.376 8.90747 35.2216 9.08553 35.105C9.26517 34.9884 9.49129 34.9301 9.7639 34.9301C10.0113 34.9301 10.228 34.9821 10.4139 35.0861C10.5998 35.1885 10.744 35.3414 10.8464 35.5446C10.9489 35.7479 11.0001 35.9992 11.0001 36.2986V38.6079H10.2934V36.3837C10.2934 36.1206 10.2248 35.9149 10.0877 35.7668C9.95062 35.6171 9.76232 35.5423 9.52281 35.5423C9.35893 35.5423 9.21317 35.5777 9.08553 35.6486C8.95947 35.7195 8.85941 35.8235 8.78535 35.9606C8.71287 36.0962 8.67662 36.26 8.67662 36.4523ZM14.087 36.2561V36.8683H11.9408V36.2561H14.087ZM15.7356 36.4523V38.6079H15.0289V33.7672H15.7262V35.5683H15.7711C15.8562 35.3729 15.9862 35.2177 16.1611 35.1026C16.336 34.9876 16.5645 34.9301 16.8465 34.9301C17.0955 34.9301 17.313 34.9813 17.4989 35.0837C17.6864 35.1862 17.8314 35.339 17.9338 35.5423C18.0378 35.744 18.0898 35.9961 18.0898 36.2986V38.6079H17.3831V36.3837C17.3831 36.1174 17.3145 35.911 17.1774 35.7645C17.0404 35.6163 16.8497 35.5423 16.6054 35.5423C16.4384 35.5423 16.2887 35.5777 16.1564 35.6486C16.0256 35.7195 15.9224 35.8235 15.8467 35.9606C15.7727 36.0962 15.7356 36.26 15.7356 36.4523ZM20.5622 38.6812C20.2218 38.6812 19.9248 38.6032 19.6711 38.4472C19.4174 38.2912 19.2204 38.0729 19.0802 37.7925C18.9399 37.512 18.8698 37.1842 18.8698 36.8092C18.8698 36.4326 18.9399 36.1032 19.0802 35.8212C19.2204 35.5391 19.4174 35.3201 19.6711 35.1641C19.9248 35.0081 20.2218 34.9301 20.5622 34.9301C20.9025 34.9301 21.1996 35.0081 21.4533 35.1641C21.707 35.3201 21.9039 35.5391 22.0442 35.8212C22.1844 36.1032 22.2545 36.4326 22.2545 36.8092C22.2545 37.1842 22.1844 37.512 22.0442 37.7925C21.9039 38.0729 21.707 38.2912 21.4533 38.4472C21.1996 38.6032 20.9025 38.6812 20.5622 38.6812ZM20.5645 38.0879C20.7851 38.0879 20.9679 38.0296 21.1129 37.913C21.2579 37.7964 21.365 37.6412 21.4344 37.4474C21.5053 37.2535 21.5407 37.04 21.5407 36.8068C21.5407 36.5752 21.5053 36.3625 21.4344 36.1686C21.365 35.9732 21.2579 35.8165 21.1129 35.6983C20.9679 35.5801 20.7851 35.521 20.5645 35.521C20.3424 35.521 20.158 35.5801 20.0114 35.6983C19.8665 35.8165 19.7585 35.9732 19.6876 36.1686C19.6183 36.3625 19.5836 36.5752 19.5836 36.8068C19.5836 37.04 19.6183 37.2535 19.6876 37.4474C19.7585 37.6412 19.8665 37.7964 20.0114 37.913C20.158 38.0296 20.3424 38.0879 20.5645 38.0879ZM25.3432 37.1023V34.9774H26.0523V38.6079H25.3574V37.9792H25.3196C25.2361 38.173 25.1021 38.3345 24.9178 38.4637C24.735 38.5914 24.5073 38.6552 24.2347 38.6552C24.0015 38.6552 23.795 38.604 23.6154 38.5015C23.4373 38.3975 23.2971 38.2439 23.1947 38.0406C23.0938 37.8374 23.0434 37.586 23.0434 37.2866V34.9774H23.7501V37.2015C23.7501 37.4489 23.8187 37.6459 23.9558 37.7925C24.0928 37.939 24.2709 38.0123 24.4899 38.0123C24.6223 38.0123 24.7539 37.9792 24.8847 37.913C25.017 37.8468 25.1265 37.7468 25.2132 37.6128C25.3015 37.4789 25.3448 37.3087 25.3432 37.1023ZM29.7224 35.8637L29.0819 35.9772C29.0551 35.8952 29.0126 35.8172 28.9543 35.7432C28.8975 35.6691 28.8203 35.6085 28.7226 35.5612C28.6249 35.5139 28.5028 35.4903 28.3563 35.4903C28.1561 35.4903 27.9891 35.5352 27.8552 35.625C27.7212 35.7132 27.6543 35.8275 27.6543 35.9677C27.6543 36.0891 27.6992 36.1868 27.789 36.2608C27.8788 36.3349 28.0238 36.3955 28.2239 36.4428L28.8006 36.5752C29.1347 36.6524 29.3837 36.7714 29.5475 36.9321C29.7114 37.0928 29.7933 37.3016 29.7933 37.5585C29.7933 37.7759 29.7303 37.9697 29.6043 38.1399C29.4798 38.3085 29.3057 38.4409 29.0819 38.537C28.8597 38.6331 28.6021 38.6812 28.309 38.6812C27.9024 38.6812 27.5707 38.5945 27.3139 38.4212C27.057 38.2463 26.8995 37.9981 26.8412 37.6766L27.5243 37.5726C27.5668 37.7507 27.6543 37.8854 27.7866 37.9768C27.919 38.0666 28.0915 38.1115 28.3043 38.1115C28.5359 38.1115 28.721 38.0635 28.8597 37.9674C28.9984 37.8697 29.0677 37.7507 29.0677 37.6105C29.0677 37.497 29.0252 37.4017 28.9401 37.3245C28.8566 37.2472 28.7281 37.1889 28.5548 37.1495L27.9403 37.0148C27.6015 36.9376 27.3509 36.8147 27.1886 36.6461C27.0279 36.4775 26.9475 36.264 26.9475 36.0055C26.9475 35.7912 27.0074 35.6037 27.1272 35.443C27.2469 35.2823 27.4124 35.157 27.6235 35.0672C27.8347 34.9758 28.0766 34.9301 28.3492 34.9301C28.7415 34.9301 29.0504 35.0152 29.2757 35.1854C29.501 35.354 29.65 35.5801 29.7224 35.8637ZM32.1351 38.6812C31.7774 38.6812 31.4694 38.6048 31.2109 38.4519C30.9541 38.2975 30.7555 38.0808 30.6153 37.8019C30.4766 37.5214 30.4073 37.1929 30.4073 36.8163C30.4073 36.4444 30.4766 36.1166 30.6153 35.833C30.7555 35.5494 30.9509 35.328 31.2015 35.1688C31.4536 35.0097 31.7483 34.9301 32.0855 34.9301C32.2903 34.9301 32.4889 34.964 32.6811 35.0317C32.8734 35.0995 33.0459 35.2058 33.1988 35.3508C33.3516 35.4958 33.4722 35.6841 33.5604 35.9157C33.6486 36.1458 33.6928 36.4255 33.6928 36.7548V37.0054H30.8068V36.4759H33.0002C33.0002 36.29 32.9624 36.1253 32.8868 35.9819C32.8111 35.8369 32.7048 35.7227 32.5677 35.6392C32.4322 35.5557 32.273 35.5139 32.0902 35.5139C31.8917 35.5139 31.7183 35.5628 31.5702 35.6605C31.4237 35.7566 31.3102 35.8826 31.2298 36.0386C31.1511 36.1931 31.1117 36.3609 31.1117 36.5421V36.9557C31.1117 37.1984 31.1542 37.4048 31.2393 37.575C31.326 37.7452 31.4465 37.8752 31.6009 37.965C31.7554 38.0532 31.9358 38.0974 32.1422 38.0974C32.2762 38.0974 32.3983 38.0785 32.5086 38.0406C32.6189 38.0012 32.7142 37.9429 32.7946 37.8657C32.8749 37.7885 32.9364 37.6932 32.9789 37.5797L33.6478 37.7003C33.5943 37.8972 33.4982 38.0698 33.3595 38.2179C33.2224 38.3645 33.0498 38.4787 32.8418 38.5606C32.6354 38.641 32.3998 38.6812 32.1351 38.6812ZM36.2951 33.7672H37.1815L38.7226 37.5301H38.7793L40.3204 33.7672H41.2068V38.6079H40.5118V35.105H40.4669L39.0393 38.6008H38.4626L37.0349 35.1026H36.99V38.6079H36.2951V33.7672ZM43.7766 38.6812C43.4189 38.6812 43.1109 38.6048 42.8524 38.4519C42.5956 38.2975 42.397 38.0808 42.2568 37.8019C42.1181 37.5214 42.0488 37.1929 42.0488 36.8163C42.0488 36.4444 42.1181 36.1166 42.2568 35.833C42.397 35.5494 42.5924 35.328 42.843 35.1688C43.0951 35.0097 43.3898 34.9301 43.727 34.9301C43.9318 34.9301 44.1304 34.964 44.3226 35.0317C44.5149 35.0995 44.6874 35.2058 44.8403 35.3508C44.9931 35.4958 45.1137 35.6841 45.2019 35.9157C45.2901 36.1458 45.3343 36.4255 45.3343 36.7548V37.0054H42.4483V36.4759H44.6417C44.6417 36.29 44.6039 36.1253 44.5283 35.9819C44.4526 35.8369 44.3463 35.7227 44.2092 35.6392C44.0737 35.5557 43.9145 35.5139 43.7317 35.5139C43.5332 35.5139 43.3598 35.5628 43.2117 35.6605C43.0652 35.7566 42.9517 35.8826 42.8714 36.0386C42.7926 36.1931 42.7532 36.3609 42.7532 36.5421V36.9557C42.7532 37.1984 42.7957 37.4048 42.8808 37.575C42.9675 37.7452 43.088 37.8752 43.2424 37.965C43.3969 38.0532 43.5773 38.0974 43.7837 38.0974C43.9177 38.0974 44.0398 38.0785 44.1501 38.0406C44.2604 38.0012 44.3557 37.9429 44.4361 37.8657C44.5164 37.7885 44.5779 37.6932 44.6204 37.5797L45.2894 37.7003C45.2358 37.8972 45.1397 38.0698 45.001 38.2179C44.8639 38.3645 44.6914 38.4787 44.4834 38.5606C44.2769 38.641 44.0414 38.6812 43.7766 38.6812ZM47.4775 38.6788C47.1844 38.6788 46.9228 38.604 46.6928 38.4543C46.4643 38.303 46.2846 38.0879 46.1538 37.809C46.0246 37.5285 45.96 37.1921 45.96 36.7997C45.96 36.4074 46.0254 36.0717 46.1562 35.7928C46.2886 35.5139 46.4698 35.3004 46.6998 35.1523C46.9299 35.0042 47.1907 34.9301 47.4822 34.9301C47.7075 34.9301 47.8888 34.9679 48.0258 35.0435C48.1645 35.1176 48.2717 35.2043 48.3473 35.3035C48.4245 35.4028 48.4844 35.4903 48.5269 35.5659H48.5695V33.7672H49.2762V38.6079H48.586V38.043H48.5269C48.4844 38.1202 48.4229 38.2085 48.3426 38.3077C48.2638 38.407 48.1551 38.4937 48.0164 38.5677C47.8777 38.6418 47.6981 38.6788 47.4775 38.6788ZM47.6335 38.0761C47.8368 38.0761 48.0085 38.0225 48.1488 37.9154C48.2906 37.8066 48.3977 37.6562 48.4702 37.4639C48.5443 37.2717 48.5813 37.0479 48.5813 36.7926C48.5813 36.5405 48.5451 36.3199 48.4726 36.1308C48.4001 35.9417 48.2937 35.7944 48.1535 35.6888C48.0132 35.5832 47.8399 35.5305 47.6335 35.5305C47.4208 35.5305 47.2435 35.5856 47.1017 35.6959C46.9598 35.8062 46.8527 35.9567 46.7802 36.1474C46.7093 36.338 46.6738 36.5531 46.6738 36.7926C46.6738 37.0353 46.7101 37.2535 46.7826 37.4474C46.8551 37.6412 46.9622 37.7948 47.104 37.9083C47.2474 38.0202 47.4239 38.0761 47.6335 38.0761ZM50.2849 38.6079V34.9774H50.9916V38.6079H50.2849ZM50.6418 34.4172C50.5189 34.4172 50.4133 34.3762 50.3251 34.2943C50.2384 34.2108 50.1951 34.1115 50.1951 33.9965C50.1951 33.8798 50.2384 33.7806 50.3251 33.6986C50.4133 33.6151 50.5189 33.5734 50.6418 33.5734C50.7647 33.5734 50.8695 33.6151 50.9562 33.6986C51.0444 33.7806 51.0885 33.8798 51.0885 33.9965C51.0885 34.1115 51.0444 34.2108 50.9562 34.2943C50.8695 34.3762 50.7647 34.4172 50.6418 34.4172ZM53.3015 38.6788C53.0084 38.6788 52.7468 38.604 52.5168 38.4543C52.2883 38.303 52.1086 38.0879 51.9778 37.809C51.8486 37.5285 51.784 37.1921 51.784 36.7997C51.784 36.4074 51.8494 36.0717 51.9802 35.7928C52.1126 35.5139 52.2938 35.3004 52.5238 35.1523C52.7539 35.0042 53.0147 34.9301 53.3062 34.9301C53.5315 34.9301 53.7128 34.9679 53.8498 35.0435C53.9885 35.1176 54.0957 35.2043 54.1713 35.3035C54.2485 35.4028 54.3084 35.4903 54.3509 35.5659H54.3935V34.9774H55.1002V38.6079H54.41V38.043H54.3509C54.3084 38.1202 54.2469 38.2085 54.1666 38.3077C54.0878 38.407 53.9791 38.4937 53.8404 38.5677C53.7017 38.6418 53.5221 38.6788 53.3015 38.6788ZM53.4575 38.0761C53.6608 38.0761 53.8325 38.0225 53.9728 37.9154C54.1146 37.8066 54.2217 37.6562 54.2942 37.4639C54.3683 37.2717 54.4053 37.0479 54.4053 36.7926C54.4053 36.5405 54.3691 36.3199 54.2966 36.1308C54.2241 35.9417 54.1177 35.7944 53.9775 35.6888C53.8372 35.5832 53.6639 35.5305 53.4575 35.5305C53.2448 35.5305 53.0675 35.5856 52.9257 35.6959C52.7838 35.8062 52.6767 35.9567 52.6042 36.1474C52.5333 36.338 52.4978 36.5531 52.4978 36.7926C52.4978 37.0353 52.5341 37.2535 52.6066 37.4474C52.6791 37.6412 52.7862 37.7948 52.928 37.9083C53.0714 38.0202 53.2479 38.0761 53.4575 38.0761Z" fill="#074058"/>
<path d="M879.757 16.2239V25.3759H878.093C877.983 25.3759 877.877 25.332 877.799 25.254C877.721 25.176 877.677 25.0702 877.677 24.9599V16.6399C877.677 16.5295 877.721 16.4237 877.799 16.3457C877.877 16.2677 877.983 16.2239 878.093 16.2239H879.757Z" fill="#93A2AD" fill-opacity="0.1"/>
<path d="M885.165 19.9679C885.165 20.0782 885.121 20.184 885.043 20.262C884.965 20.34 884.859 20.3839 884.749 20.3839H881.421C881.311 20.3839 881.205 20.34 881.127 20.262C881.049 20.184 881.005 20.0782 881.005 19.9679C881.005 19.8575 881.049 19.7517 881.127 19.6737C881.205 19.5957 881.311 19.5519 881.421 19.5519H884.749C884.859 19.5519 884.965 19.5957 885.043 19.6737C885.121 19.7517 885.165 19.8575 885.165 19.9679ZM884.749 21.2159H881.421C881.311 21.2159 881.205 21.2597 881.127 21.3377C881.049 21.4157 881.005 21.5215 881.005 21.6319C881.005 21.7422 881.049 21.848 881.127 21.926C881.205 22.004 881.311 22.0479 881.421 22.0479H884.749C884.859 22.0479 884.965 22.004 885.043 21.926C885.121 21.848 885.165 21.7422 885.165 21.6319C885.165 21.5215 885.121 21.4157 885.043 21.3377C884.965 21.2597 884.859 21.2159 884.749 21.2159ZM887.245 16.6399V24.9599C887.245 25.1805 887.158 25.3921 887.001 25.5482C886.845 25.7042 886.634 25.7919 886.413 25.7919H878.093C877.873 25.7919 877.661 25.7042 877.505 25.5482C877.349 25.3921 877.261 25.1805 877.261 24.9599V16.6399C877.261 16.4192 877.349 16.2076 877.505 16.0515C877.661 15.8955 877.873 15.8079 878.093 15.8079H886.413C886.634 15.8079 886.845 15.8955 887.001 16.0515C887.158 16.2076 887.245 16.4192 887.245 16.6399ZM878.093 24.9599H879.341V16.6399H878.093V24.9599ZM886.413 24.9599V16.6399H880.173V24.9599H886.413Z" fill="#93A2AD"/>
<rect x="789.485" y="6.23997" width="107.328" height="29.952" rx="3.744" stroke="#93A2AD" stroke-width="0.832"/>
<path d="M806.827 20.488C806.788 20.1586 806.63 19.903 806.353 19.721C806.075 19.539 805.735 19.448 805.332 19.448C805.037 19.448 804.78 19.4956 804.559 19.591C804.34 19.6863 804.169 19.8174 804.045 19.9842C803.924 20.1511 803.863 20.3406 803.863 20.553C803.863 20.7306 803.905 20.8834 803.99 21.0112C804.077 21.1369 804.187 21.242 804.321 21.3265C804.456 21.4088 804.597 21.4771 804.744 21.5312C804.891 21.5832 805.027 21.6255 805.15 21.658L805.826 21.84C805.999 21.8855 806.192 21.9483 806.405 22.0285C806.619 22.1086 806.824 22.2181 807.019 22.3567C807.216 22.4932 807.379 22.6687 807.506 22.8832C807.634 23.0977 807.698 23.361 807.698 23.673C807.698 24.0326 807.604 24.3576 807.415 24.648C807.229 24.9383 806.956 25.1691 806.596 25.3402C806.239 25.5114 805.804 25.597 805.293 25.597C804.816 25.597 804.404 25.5201 804.055 25.3662C803.708 25.2124 803.435 24.9979 803.236 24.7227C803.039 24.4476 802.927 24.128 802.901 23.764H803.733C803.755 24.0153 803.839 24.2233 803.987 24.388C804.136 24.5505 804.325 24.6718 804.552 24.752C804.782 24.83 805.029 24.869 805.293 24.869C805.601 24.869 805.877 24.8191 806.122 24.7195C806.367 24.6176 806.561 24.4768 806.704 24.297C806.847 24.115 806.918 23.9026 806.918 23.66C806.918 23.439 806.856 23.2591 806.733 23.1205C806.609 22.9818 806.447 22.8691 806.245 22.7825C806.044 22.6958 805.826 22.62 805.592 22.555L804.773 22.321C804.253 22.1715 803.841 21.9581 803.538 21.6807C803.235 21.4034 803.083 21.0405 803.083 20.592C803.083 20.2193 803.184 19.8943 803.385 19.617C803.589 19.3375 803.862 19.1208 804.204 18.967C804.549 18.811 804.933 18.733 805.358 18.733C805.787 18.733 806.168 18.8099 806.502 18.9637C806.836 19.1154 807.1 19.3234 807.295 19.5877C807.492 19.8521 807.596 20.1521 807.607 20.488H806.827ZM811.012 25.584C810.531 25.584 810.116 25.4778 809.768 25.2655C809.421 25.051 809.153 24.752 808.965 24.3685C808.778 23.9828 808.685 23.5343 808.685 23.023C808.685 22.5116 808.778 22.061 808.965 21.671C809.153 21.2788 809.415 20.9733 809.751 20.7545C810.089 20.5335 810.484 20.423 810.934 20.423C811.194 20.423 811.451 20.4663 811.705 20.553C811.958 20.6396 812.189 20.7805 812.397 20.9755C812.605 21.1683 812.771 21.424 812.894 21.7425C813.018 22.061 813.079 22.4531 813.079 22.919V23.244H809.231V22.581H812.299C812.299 22.2993 812.243 22.048 812.13 21.827C812.02 21.606 811.862 21.4316 811.656 21.3037C811.452 21.1759 811.212 21.112 810.934 21.112C810.629 21.112 810.364 21.1878 810.141 21.3395C809.92 21.489 809.75 21.684 809.631 21.9245C809.512 22.165 809.452 22.4228 809.452 22.698V23.14C809.452 23.517 809.517 23.8366 809.647 24.0987C809.779 24.3587 809.963 24.557 810.197 24.6935C810.431 24.8278 810.702 24.895 811.012 24.895C811.214 24.895 811.396 24.8668 811.558 24.8105C811.723 24.752 811.865 24.6653 811.984 24.5505C812.103 24.4335 812.195 24.2883 812.26 24.115L813.001 24.323C812.923 24.5743 812.792 24.7953 812.608 24.986C812.424 25.1745 812.196 25.3218 811.926 25.428C811.655 25.532 811.35 25.584 811.012 25.584ZM814.246 25.48V20.488H814.987V21.242H815.039C815.13 20.995 815.295 20.7946 815.533 20.6407C815.771 20.4869 816.04 20.41 816.339 20.41C816.395 20.41 816.466 20.4111 816.55 20.4132C816.635 20.4154 816.699 20.4186 816.742 20.423V21.203C816.716 21.1965 816.656 21.1867 816.563 21.1737C816.472 21.1586 816.376 21.151 816.274 21.151C816.031 21.151 815.815 21.2019 815.624 21.3037C815.436 21.4034 815.286 21.5421 815.176 21.7197C815.067 21.8952 815.013 22.0956 815.013 22.321V25.48H814.246ZM821.885 20.488L820.039 25.48H819.259L817.413 20.488H818.245L819.623 24.466H819.675L821.053 20.488H821.885ZM822.898 25.48V20.488H823.665V25.48H822.898ZM823.288 19.656C823.138 19.656 823.009 19.6051 822.901 19.5032C822.795 19.4014 822.742 19.279 822.742 19.136C822.742 18.993 822.795 18.8706 822.901 18.7687C823.009 18.6669 823.138 18.616 823.288 18.616C823.437 18.616 823.565 18.6669 823.671 18.7687C823.779 18.8706 823.834 18.993 823.834 19.136C823.834 19.279 823.779 19.4014 823.671 19.5032C823.565 19.6051 823.437 19.656 823.288 19.656ZM827.097 25.584C826.629 25.584 826.226 25.4735 825.888 25.2525C825.55 25.0315 825.29 24.7271 825.108 24.3392C824.926 23.9514 824.835 23.5083 824.835 23.01C824.835 22.503 824.929 22.0556 825.115 21.6677C825.303 21.2777 825.566 20.9733 825.901 20.7545C826.239 20.5335 826.634 20.423 827.084 20.423C827.435 20.423 827.752 20.488 828.033 20.618C828.315 20.748 828.546 20.93 828.726 21.164C828.905 21.398 829.017 21.671 829.06 21.983H828.293C828.235 21.7555 828.105 21.554 827.903 21.3785C827.704 21.2008 827.435 21.112 827.097 21.112C826.798 21.112 826.536 21.19 826.311 21.346C826.088 21.4998 825.913 21.7176 825.788 21.9992C825.664 22.2787 825.602 22.607 825.602 22.984C825.602 23.3696 825.663 23.7055 825.784 23.9915C825.908 24.2775 826.081 24.4996 826.304 24.6577C826.53 24.8159 826.794 24.895 827.097 24.895C827.297 24.895 827.478 24.8603 827.64 24.791C827.803 24.7216 827.94 24.622 828.053 24.492C828.166 24.362 828.246 24.206 828.293 24.024H829.06C829.017 24.3186 828.91 24.5841 828.739 24.8202C828.57 25.0542 828.345 25.2406 828.066 25.3792C827.789 25.5157 827.466 25.584 827.097 25.584ZM832.275 25.584C831.794 25.584 831.379 25.4778 831.03 25.2655C830.683 25.051 830.416 24.752 830.227 24.3685C830.041 23.9828 829.948 23.5343 829.948 23.023C829.948 22.5116 830.041 22.061 830.227 21.671C830.416 21.2788 830.678 20.9733 831.014 20.7545C831.352 20.5335 831.746 20.423 832.197 20.423C832.457 20.423 832.713 20.4663 832.967 20.553C833.22 20.6396 833.451 20.7805 833.659 20.9755C833.867 21.1683 834.033 21.424 834.156 21.7425C834.28 22.061 834.342 22.4531 834.342 22.919V23.244H830.494V22.581H833.562C833.562 22.2993 833.505 22.048 833.393 21.827C833.282 21.606 833.124 21.4316 832.918 21.3037C832.714 21.1759 832.474 21.112 832.197 21.112C831.891 21.112 831.627 21.1878 831.404 21.3395C831.183 21.489 831.013 21.684 830.893 21.9245C830.774 22.165 830.715 22.4228 830.715 22.698V23.14C830.715 23.517 830.78 23.8366 830.91 24.0987C831.042 24.3587 831.225 24.557 831.459 24.6935C831.693 24.8278 831.965 24.895 832.275 24.895C832.476 24.895 832.658 24.8668 832.821 24.8105C832.985 24.752 833.127 24.6653 833.246 24.5505C833.366 24.4335 833.458 24.2883 833.523 24.115L834.264 24.323C834.186 24.5743 834.055 24.7953 833.87 24.986C833.686 25.1745 833.459 25.3218 833.188 25.428C832.917 25.532 832.613 25.584 832.275 25.584ZM839.044 21.606L838.355 21.801C838.312 21.6861 838.248 21.5746 838.164 21.4662C838.081 21.3557 837.969 21.2647 837.826 21.1932C837.683 21.1217 837.5 21.086 837.276 21.086C836.971 21.086 836.716 21.1564 836.513 21.2972C836.311 21.4359 836.21 21.6125 836.21 21.827C836.21 22.0176 836.28 22.1682 836.418 22.2787C836.557 22.3892 836.774 22.4813 837.068 22.555L837.809 22.737C838.256 22.8453 838.588 23.0111 838.807 23.2342C839.026 23.4552 839.135 23.7401 839.135 24.089C839.135 24.375 839.053 24.6306 838.888 24.856C838.726 25.0813 838.498 25.259 838.206 25.389C837.913 25.519 837.573 25.584 837.185 25.584C836.676 25.584 836.255 25.4735 835.921 25.2525C835.587 25.0315 835.376 24.7086 835.287 24.284L836.015 24.102C836.085 24.3706 836.216 24.5721 836.409 24.7065C836.604 24.8408 836.858 24.908 837.172 24.908C837.53 24.908 837.814 24.8321 838.024 24.6805C838.236 24.5266 838.342 24.3425 838.342 24.128C838.342 23.9546 838.282 23.8095 838.16 23.6925C838.039 23.5733 837.853 23.4845 837.601 23.426L836.769 23.231C836.312 23.1226 835.976 22.9547 835.762 22.7272C835.55 22.4976 835.443 22.2105 835.443 21.866C835.443 21.5843 835.522 21.3351 835.681 21.1185C835.841 20.9018 836.059 20.7317 836.334 20.6082C836.611 20.4847 836.925 20.423 837.276 20.423C837.77 20.423 838.158 20.5313 838.44 20.748C838.724 20.9646 838.925 21.2506 839.044 21.606Z" fill="white"/>
<rect x="0.33313" width="56.4096" height="17.6384" rx="8.8192" fill="white" fill-opacity="0.1"/>
<path d="M16.3217 7.59274H15.1418C15.0964 7.34062 15.0119 7.11875 14.8884 6.92714C14.7649 6.73553 14.6136 6.57291 14.4346 6.43929C14.2556 6.30566 14.0551 6.20481 13.8333 6.13674C13.6139 6.06867 13.3807 6.03463 13.1336 6.03463C12.6874 6.03463 12.2878 6.14683 11.9348 6.37121C11.5844 6.5956 11.307 6.92462 11.1028 7.35827C10.9011 7.79192 10.8003 8.32137 10.8003 8.94663C10.8003 9.57693 10.9011 10.1089 11.1028 10.5426C11.307 10.9762 11.5856 11.304 11.9386 11.5258C12.2916 11.7477 12.6886 11.8586 13.1299 11.8586C13.3744 11.8586 13.6064 11.8259 13.8257 11.7603C14.0476 11.6922 14.248 11.5926 14.427 11.4615C14.606 11.3304 14.7573 11.1703 14.8808 10.9813C15.0069 10.7896 15.0939 10.5703 15.1418 10.3232L16.3217 10.327C16.2587 10.7077 16.1364 11.0581 15.9549 11.3783C15.7759 11.696 15.5452 11.9708 15.2628 12.2028C14.983 12.4322 14.6628 12.61 14.3022 12.736C13.9417 12.8621 13.5484 12.9251 13.1223 12.9251C12.4517 12.9251 11.8541 12.7663 11.3297 12.4486C10.8053 12.1284 10.3918 11.6708 10.0893 11.0758C9.78925 10.4808 9.63924 9.77107 9.63924 8.94663C9.63924 8.11967 9.79052 7.40995 10.0931 6.81747C10.3956 6.22246 10.8091 5.76612 11.3335 5.44845C11.8579 5.12826 12.4542 4.96816 13.1223 4.96816C13.5333 4.96816 13.9165 5.02741 14.272 5.1459C14.63 5.26188 14.9514 5.43332 15.2363 5.66023C15.5212 5.88462 15.757 6.15943 15.9435 6.48467C16.1301 6.80738 16.2562 7.17674 16.3217 7.59274ZM21.309 10.4102V7.01034H22.4435V12.8192H21.3317V11.8133H21.2712C21.1375 12.1234 20.9232 12.3818 20.6283 12.5885C20.3358 12.7927 19.9715 12.8949 19.5353 12.8949C19.1622 12.8949 18.8319 12.8129 18.5445 12.649C18.2596 12.4826 18.0352 12.2368 17.8713 11.9116C17.71 11.5863 17.6293 11.1842 17.6293 10.7052V7.01034H18.76V10.569C18.76 10.9649 18.8697 11.28 19.0891 11.5145C19.3084 11.749 19.5933 11.8662 19.9438 11.8662C20.1555 11.8662 20.3661 11.8133 20.5753 11.7074C20.7871 11.6015 20.9623 11.4414 21.101 11.2271C21.2422 11.0128 21.3115 10.7405 21.309 10.4102ZM23.9629 12.8192V7.01034H25.0558V7.9331H25.1163C25.2222 7.62047 25.4088 7.37466 25.676 7.19565C25.9458 7.01412 26.2509 6.92336 26.5912 6.92336C26.6618 6.92336 26.745 6.92588 26.8408 6.93092C26.9392 6.93597 27.0161 6.94227 27.0715 6.94983V8.03143C27.0262 8.01883 26.9455 8.00496 26.8295 7.98983C26.7135 7.97218 26.5975 7.96336 26.4816 7.96336C26.2143 7.96336 25.9761 8.02009 25.7668 8.13354C25.5601 8.24447 25.3962 8.39953 25.2752 8.5987C25.1542 8.79536 25.0936 9.01975 25.0936 9.27187V12.8192H23.9629ZM28.0501 12.8192V7.01034H29.143V7.9331H29.2035C29.3094 7.62047 29.496 7.37466 29.7632 7.19565C30.033 7.01412 30.3381 6.92336 30.6784 6.92336C30.749 6.92336 30.8322 6.92588 30.928 6.93092C31.0264 6.93597 31.1033 6.94227 31.1587 6.94983V8.03143C31.1134 8.01883 31.0327 8.00496 30.9167 7.98983C30.8007 7.97218 30.6847 7.96336 30.5688 7.96336C30.3015 7.96336 30.0633 8.02009 29.854 8.13354C29.6473 8.24447 29.4834 8.39953 29.3624 8.5987C29.2414 8.79536 29.1808 9.01975 29.1808 9.27187V12.8192H28.0501ZM34.4328 12.9365C33.8605 12.9365 33.3676 12.8142 32.9542 12.5696C32.5432 12.3225 32.2255 11.9759 32.0011 11.5296C31.7793 11.0808 31.6683 10.5552 31.6683 9.9526C31.6683 9.35759 31.7793 8.83318 32.0011 8.37936C32.2255 7.92554 32.5382 7.57131 32.939 7.31667C33.3424 7.06203 33.8139 6.9347 34.3534 6.9347C34.6812 6.9347 34.9989 6.98891 35.3064 7.09732C35.614 7.20573 35.8901 7.37592 36.1347 7.60787C36.3792 7.83982 36.5721 8.1411 36.7133 8.51172C36.8545 8.87982 36.9251 9.32734 36.9251 9.85427V10.2551H32.3075V9.40801H35.817C35.817 9.11051 35.7565 8.84704 35.6355 8.61761C35.5144 8.38566 35.3443 8.20287 35.1249 8.06925C34.9081 7.93563 34.6534 7.86881 34.361 7.86881C34.0433 7.86881 33.766 7.94697 33.529 8.10329C33.2945 8.25708 33.113 8.45878 32.9844 8.70838C32.8583 8.95546 32.7953 9.22397 32.7953 9.5139V10.1757C32.7953 10.564 32.8634 10.8943 32.9995 11.1666C33.1382 11.4389 33.3311 11.6469 33.5782 11.7906C33.8252 11.9317 34.1139 12.0023 34.4442 12.0023C34.6585 12.0023 34.8539 11.9721 35.0304 11.9116C35.2069 11.8485 35.3594 11.7553 35.488 11.6317C35.6166 11.5082 35.7149 11.3557 35.783 11.1741L36.8532 11.367C36.7675 11.6821 36.6137 11.9582 36.3918 12.1952C36.1725 12.4297 35.8964 12.6125 35.5636 12.7436C35.2333 12.8722 34.8564 12.9365 34.4328 12.9365ZM39.3104 9.3702V12.8192H38.1797V7.01034H39.2651V7.9558H39.3369C39.4705 7.64821 39.6798 7.40113 39.9647 7.21456C40.2521 7.02799 40.6139 6.9347 41.0501 6.9347C41.4459 6.9347 41.7926 7.0179 42.0901 7.1843C42.3876 7.34818 42.6183 7.59274 42.7822 7.91798C42.946 8.24321 43.028 8.64535 43.028 9.12438V12.8192H41.8972V9.26052C41.8972 8.83948 41.7875 8.51046 41.5682 8.27347C41.3488 8.03395 41.0476 7.9142 40.6643 7.9142C40.4021 7.9142 40.1689 7.97092 39.9647 8.08438C39.763 8.19783 39.6029 8.36423 39.4844 8.58358C39.3684 8.8004 39.3104 9.06261 39.3104 9.3702ZM47.256 7.01034V7.91798H44.0831V7.01034H47.256ZM44.934 5.61863H46.0648V11.1136C46.0648 11.333 46.0975 11.4981 46.1631 11.609C46.2286 11.7174 46.3131 11.7918 46.4165 11.8322C46.5224 11.87 46.6371 11.8889 46.7606 11.8889C46.8514 11.8889 46.9308 11.8826 46.9989 11.87C47.067 11.8574 47.1199 11.8473 47.1577 11.8397L47.3619 12.7738C47.2964 12.799 47.2031 12.8243 47.0821 12.8495C46.9611 12.8772 46.8098 12.8923 46.6283 12.8949C46.3308 12.8999 46.0534 12.8469 45.7963 12.736C45.5391 12.6251 45.3311 12.4536 45.1723 12.2217C45.0134 11.9897 44.934 11.6985 44.934 11.3481V5.61863Z" fill="white"/>
<path d="M69.9729 2.9317V13.3634H68.9322V2.9317H69.9729Z" fill="#37424A" fill-opacity="0.5"/>
<path d="M77.9802 12.3192V4.57405H80.8847C81.4797 4.57405 81.9789 4.68498 82.3823 4.90685C82.7882 5.12872 83.0945 5.43378 83.3013 5.82205C83.5105 6.2078 83.6151 6.64649 83.6151 7.13812C83.6151 7.6348 83.5105 8.07601 83.3013 8.46176C83.092 8.8475 82.7831 9.15131 82.3747 9.37318C81.9663 9.59252 81.4633 9.7022 80.8658 9.7022H78.9408V8.54874H80.6767C81.0246 8.54874 81.3095 8.48823 81.5314 8.36721C81.7532 8.2462 81.9171 8.0798 82.023 7.86801C82.1314 7.65623 82.1856 7.41293 82.1856 7.13812C82.1856 6.86331 82.1314 6.62127 82.023 6.41201C81.9171 6.20275 81.752 6.04013 81.5276 5.92416C81.3057 5.80566 81.0196 5.74641 80.6691 5.74641H79.3833V12.3192H77.9802ZM86.3409 12.4365C85.9728 12.4365 85.6413 12.3709 85.3463 12.2398C85.0538 12.1062 84.8219 11.9095 84.6504 11.6498C84.4815 11.3901 84.397 11.07 84.397 10.6893C84.397 10.3615 84.4575 10.0905 84.5786 9.87616C84.6996 9.66186 84.8647 9.49041 85.074 9.36183C85.2832 9.23325 85.519 9.13618 85.7812 9.07063C86.0459 9.00256 86.3195 8.9534 86.6018 8.92314C86.9422 8.88784 87.2183 8.85633 87.4301 8.8286C87.6418 8.79834 87.7956 8.75296 87.8914 8.69245C87.9898 8.62942 88.0389 8.53235 88.0389 8.40125V8.37856C88.0389 8.09366 87.9545 7.87306 87.7855 7.71674C87.6166 7.56043 87.3733 7.48227 87.0557 7.48227C86.7203 7.48227 86.4543 7.55538 86.2577 7.70161C86.0636 7.84784 85.9325 8.02055 85.8644 8.21972L84.5861 8.0382C84.687 7.68523 84.8534 7.39024 85.0853 7.15325C85.3173 6.91373 85.6009 6.73473 85.9362 6.61623C86.2716 6.49521 86.6422 6.4347 87.0481 6.4347C87.3279 6.4347 87.6065 6.46748 87.8839 6.53303C88.1612 6.59858 88.4146 6.707 88.644 6.85827C88.8734 7.00702 89.0575 7.20998 89.1962 7.46714C89.3374 7.7243 89.4079 8.04576 89.4079 8.4315V12.3192H88.0919V11.5213H88.0465C87.9633 11.6826 87.8461 11.8339 87.6948 11.9751C87.546 12.1137 87.3582 12.2259 87.1313 12.3117C86.9069 12.3949 86.6434 12.4365 86.3409 12.4365ZM86.6964 11.4305C86.9712 11.4305 87.2094 11.3763 87.4111 11.2679C87.6128 11.1569 87.7679 11.0107 87.8763 10.8292C87.9872 10.6477 88.0427 10.4497 88.0427 10.2354V9.55092C87.9998 9.58622 87.9267 9.619 87.8234 9.64925C87.7225 9.6795 87.6091 9.70598 87.483 9.72867C87.3569 9.75136 87.2321 9.77153 87.1086 9.78918C86.9851 9.80683 86.8779 9.82195 86.7871 9.83456C86.5829 9.86229 86.4001 9.90767 86.2388 9.9707C86.0774 10.0337 85.9501 10.122 85.8568 10.2354C85.7635 10.3464 85.7169 10.4901 85.7169 10.6666C85.7169 10.9187 85.8089 11.109 85.993 11.2376C86.177 11.3662 86.4115 11.4305 86.6964 11.4305ZM95.3757 8.04576L94.1277 8.1819C94.0924 8.05584 94.0306 7.93735 93.9423 7.82641C93.8566 7.71548 93.7406 7.62598 93.5944 7.5579C93.4482 7.48983 93.2692 7.4558 93.0574 7.4558C92.7725 7.4558 92.533 7.51757 92.3389 7.6411C92.1472 7.76464 92.0527 7.92474 92.0552 8.1214C92.0527 8.29032 92.1145 8.42772 92.2405 8.53361C92.3691 8.6395 92.5809 8.72649 92.8759 8.79456L93.8667 9.00634C94.4163 9.12484 94.8248 9.31267 95.092 9.56983C95.3618 9.827 95.4979 10.1636 95.5005 10.5796C95.4979 10.9452 95.3908 11.2679 95.179 11.5477C94.9697 11.8251 94.6785 12.0419 94.3054 12.1982C93.9323 12.3545 93.5037 12.4327 93.0196 12.4327C92.3086 12.4327 91.7363 12.2839 91.3026 11.9864C90.869 11.6864 90.6106 11.2691 90.5274 10.7346L91.8623 10.6061C91.9229 10.8683 92.0514 11.0662 92.2481 11.1998C92.4447 11.3334 92.7006 11.4002 93.0158 11.4002C93.341 11.4002 93.602 11.3334 93.7986 11.1998C93.9978 11.0662 94.0974 10.901 94.0974 10.7044C94.0974 10.538 94.0331 10.4006 93.9045 10.2922C93.7785 10.1837 93.5818 10.1005 93.3146 10.0426L92.3237 9.83456C91.7665 9.71858 91.3543 9.52319 91.0871 9.24838C90.8198 8.97104 90.6875 8.6206 90.69 8.19703C90.6875 7.83902 90.7845 7.52891 90.9812 7.2667C91.1804 7.00198 91.4564 6.79776 91.8094 6.65405C92.1649 6.50782 92.5746 6.4347 93.0385 6.4347C93.7192 6.4347 94.255 6.57967 94.6458 6.86961C95.0391 7.15955 95.2824 7.5516 95.3757 8.04576ZM99.53 6.51034V7.56925H96.1906V6.51034H99.53ZM97.0151 5.11863H98.3841V10.572C98.3841 10.7561 98.4118 10.8973 98.4673 10.9956C98.5253 11.0914 98.6009 11.1569 98.6942 11.1922C98.7875 11.2275 98.8909 11.2452 99.0043 11.2452C99.09 11.2452 99.1682 11.2389 99.2388 11.2263C99.3119 11.2137 99.3674 11.2023 99.4052 11.1922L99.6359 12.2625C99.5628 12.2877 99.4581 12.3154 99.322 12.3457C99.1884 12.3759 99.0245 12.3936 98.8303 12.3986C98.4875 12.4087 98.1786 12.357 97.9038 12.2436C97.629 12.1276 97.4109 11.9486 97.2495 11.7066C97.0907 11.4645 97.0126 11.162 97.0151 10.7989V5.11863Z" fill="#93A2AD"/>
<path fill-rule="evenodd" clip-rule="evenodd" d="M864.047 20.4902C864.177 20.3485 864.387 20.3485 864.517 20.4902L866.709 22.8799C866.839 23.0216 867.05 23.0216 867.18 22.8799L869.371 20.4902C869.501 20.3485 869.712 20.3485 869.842 20.4902C869.972 20.6319 869.972 20.8616 869.842 21.0034L867.65 23.3931C867.26 23.8182 866.628 23.8182 866.238 23.3931L864.047 21.0034C863.917 20.8616 863.917 20.6319 864.047 20.4902Z" fill="white" fill-opacity="0.4"/>
</svg>
