<svg width="164" height="21" viewBox="0 0 164 21" fill="none" xmlns="http://www.w3.org/2000/svg">
<path fill-rule="evenodd" clip-rule="evenodd" d="M11.4947 6.93788C11.6718 7.10034 11.6718 7.36374 11.4947 7.5262L8.50753 10.2659C8.3304 10.4283 8.3304 10.6917 8.50753 10.8542L11.4947 13.5939C11.6718 13.7563 11.6718 14.0197 11.4947 14.1822C11.3175 14.3447 11.0304 14.3447 10.8532 14.1822L7.86608 11.4425C7.33468 10.9551 7.33468 10.1649 7.86608 9.67757L10.8532 6.93788C11.0304 6.77543 11.3175 6.77543 11.4947 6.93788Z" fill="white"/>
<path d="M24.1907 9.41738C24.1907 6.43522 24.1907 4.94413 24.7711 3.8051C25.2816 2.80317 26.0962 1.98858 27.0981 1.47807C28.2372 0.897705 29.7282 0.897705 32.7104 0.897705H34.3079C37.29 0.897705 38.7811 0.897705 39.9201 1.47807C40.9221 1.98858 41.7367 2.80317 42.2472 3.8051C42.8275 4.94413 42.8275 6.43522 42.8275 9.41739V11.7028C42.8275 14.685 42.8275 16.1761 42.2472 17.3151C41.7367 18.317 40.9221 19.1316 39.9201 19.6421C38.7811 20.2225 37.29 20.2225 34.3079 20.2225H32.7104C29.7282 20.2225 28.2372 20.2225 27.0981 19.6421C26.0962 19.1316 25.2816 18.317 24.7711 17.3151C24.1907 16.1761 24.1907 14.685 24.1907 11.7028V9.41738Z" fill="white" fill-opacity="0.05"/>
<path d="M34.3248 6.78304V13.5601H33.5042V7.97431H33.4512C33.4203 8.03608 33.3409 8.10668 33.213 8.18609C33.085 8.26331 32.9196 8.33169 32.7166 8.39126C32.5136 8.44862 32.282 8.47729 32.0217 8.47729V7.789C32.2842 7.789 32.5114 7.74157 32.7034 7.64671C32.8953 7.55185 33.0552 7.44045 33.1832 7.31249C33.3133 7.18454 33.4115 7.06872 33.4777 6.96504C33.5461 6.86136 33.5858 6.80069 33.5968 6.78304H34.3248Z" fill="white"/>
<path d="M55.3513 13.5601V12.9644L57.5882 10.5157C57.8507 10.2289 58.0669 9.97962 58.2368 9.76784C58.4067 9.55385 58.5324 9.3531 58.614 9.16559C58.6979 8.97586 58.7398 8.77732 58.7398 8.56995C58.7398 8.33169 58.6824 8.12543 58.5677 7.95115C58.4552 7.77687 58.3008 7.6423 58.1044 7.54744C57.9081 7.45258 57.6875 7.40515 57.4426 7.40515C57.1823 7.40515 56.9551 7.4592 56.7609 7.56729C56.569 7.67319 56.4201 7.82209 56.3142 8.01402C56.2105 8.20595 56.1587 8.43097 56.1587 8.68908H55.3777C55.3777 8.29199 55.4693 7.94343 55.6524 7.6434C55.8355 7.34338 56.0848 7.10954 56.4002 6.94188C56.7179 6.77422 57.0742 6.69039 57.4691 6.69039C57.8662 6.69039 58.218 6.77422 58.5247 6.94188C58.8313 7.10954 59.0718 7.33566 59.2461 7.62024C59.4203 7.90482 59.5075 8.22139 59.5075 8.56995C59.5075 8.81923 59.4623 9.063 59.3718 9.30126C59.2836 9.53731 59.1291 9.80093 58.9085 10.0921C58.6901 10.3811 58.3868 10.7341 57.9985 11.151L56.4764 12.7791V12.8321H59.6266V13.5601H55.3513Z" fill="white"/>
<path d="M79.1024 11.8658H79.9363C79.9605 12.0952 80.0388 12.2894 80.1712 12.4482C80.3058 12.6048 80.48 12.724 80.694 12.8056C80.908 12.885 81.1452 12.9247 81.4055 12.9247C81.6879 12.9247 81.9416 12.8773 82.1666 12.7824C82.3916 12.6876 82.5703 12.5464 82.7027 12.3589C82.835 12.1691 82.9012 11.9342 82.9012 11.654C82.9012 11.4091 82.8438 11.1819 82.7291 10.9723C82.6144 10.7606 82.4302 10.5896 82.1765 10.4594C81.9228 10.3293 81.5864 10.2642 81.1672 10.2642H80.6245V9.60239L82.3188 7.56399V7.51104H79.4333V6.78304H83.4439V7.37868L81.6305 9.57591V9.62886C81.9217 9.64209 82.1931 9.70166 82.4445 9.80755C82.6982 9.91344 82.9188 10.0568 83.1064 10.2377C83.2961 10.4186 83.4439 10.6293 83.5498 10.8698C83.6557 11.1102 83.7086 11.3716 83.7086 11.654C83.7086 12.0401 83.6093 12.3842 83.4108 12.6865C83.2145 12.9865 82.942 13.2225 82.5935 13.3946C82.2471 13.5667 81.8467 13.6527 81.3923 13.6527C80.9907 13.6527 80.6212 13.5821 80.2837 13.4409C79.9462 13.2997 79.6715 13.0957 79.4597 12.8287C79.248 12.5618 79.1288 12.2408 79.1024 11.8658Z" fill="white"/>
<path d="M102.947 12.1702V11.4952L105.661 6.78304H106.468L103.821 11.3893V11.4422H107.845V12.1702H102.947ZM106.137 13.5601V11.9717V11.6507V9.32442H106.918V13.5601H106.137Z" fill="white"/>
<path d="M129.34 13.6527C128.952 13.6527 128.602 13.5755 128.291 13.4211C127.98 13.2667 127.731 13.0549 127.543 12.7857C127.356 12.5166 127.253 12.2099 127.236 11.8658H128.03C128.061 12.1724 128.2 12.4261 128.447 12.6269C128.696 12.8254 128.994 12.9247 129.34 12.9247C129.618 12.9247 129.865 12.8596 130.081 12.7295C130.3 12.5993 130.471 12.4206 130.594 12.1934C130.72 11.964 130.783 11.7048 130.783 11.4158C130.783 11.1202 130.718 10.8565 130.588 10.6249C130.46 10.3911 130.283 10.2068 130.058 10.0723C129.833 9.93771 129.576 9.86932 129.287 9.86711C129.08 9.86491 128.867 9.89689 128.649 9.96308C128.43 10.0271 128.25 10.1098 128.109 10.2113L127.342 10.1186L127.752 6.78304H131.273V7.51104H128.44L128.202 9.50973H128.242C128.381 9.39943 128.555 9.30788 128.764 9.23508C128.974 9.16228 129.192 9.12588 129.42 9.12588C129.834 9.12588 130.204 9.22515 130.528 9.42369C130.855 9.62003 131.111 9.88917 131.296 10.2311C131.483 10.5731 131.577 10.9635 131.577 11.4025C131.577 11.8349 131.48 12.221 131.286 12.5607C131.094 12.8982 130.829 13.1652 130.492 13.3615C130.154 13.5556 129.77 13.6527 129.34 13.6527Z" fill="white"/>
<path fill-rule="evenodd" clip-rule="evenodd" d="M151.37 14.1822C151.193 14.0197 151.193 13.7563 151.37 13.5939L154.357 10.8542C154.534 10.6917 154.534 10.4283 154.357 10.2659L151.37 7.5262C151.193 7.36374 151.193 7.10034 151.37 6.93788C151.547 6.77543 151.834 6.77543 152.011 6.93788L154.999 9.67757C155.53 10.1649 155.53 10.9551 154.999 11.4425L152.011 14.1822C151.834 14.3447 151.547 14.3447 151.37 14.1822Z" fill="white"/>
</svg>
