<svg width="150" height="26" viewBox="0 0 150 26" fill="none" xmlns="http://www.w3.org/2000/svg">
<g filter="url(#filter0_f_1_1282)">
<path d="M14.9862 10.3392H14.0483C13.9928 10.0695 13.8958 9.83247 13.7571 9.62825C13.6209 9.42403 13.4545 9.25259 13.2579 9.11392C13.0638 8.97273 12.8482 8.86684 12.6112 8.79625C12.3742 8.72566 12.1271 8.69036 11.87 8.69036C11.401 8.69036 10.9762 8.80886 10.5955 9.04585C10.2173 9.28284 9.91603 9.63203 9.69164 10.0934C9.46977 10.5548 9.35884 11.1208 9.35884 11.7915C9.35884 12.4621 9.46977 13.0281 9.69164 13.4895C9.91603 13.9509 10.2173 14.3001 10.5955 14.5371C10.9762 14.774 11.401 14.8925 11.87 14.8925C12.1271 14.8925 12.3742 14.8572 12.6112 14.7867C12.8482 14.7161 13.0638 14.6114 13.2579 14.4728C13.4545 14.3316 13.6209 14.1589 13.7571 13.9547C13.8958 13.7479 13.9928 13.5109 14.0483 13.2437H14.9862C14.9156 13.6395 14.787 13.9937 14.6004 14.3064C14.4139 14.619 14.1819 14.885 13.9046 15.1043C13.6273 15.3211 13.3159 15.4863 12.9705 15.5997C12.6276 15.7132 12.2608 15.7699 11.87 15.7699C11.2094 15.7699 10.622 15.6086 10.1076 15.2859C9.59331 14.9631 9.18866 14.5043 8.89368 13.9093C8.59869 13.3143 8.4512 12.6083 8.4512 11.7915C8.4512 10.9746 8.59869 10.2686 8.89368 9.67363C9.18866 9.07863 9.59331 8.61977 10.1076 8.29705C10.622 7.97433 11.2094 7.81298 11.87 7.81298C12.2608 7.81298 12.6276 7.8697 12.9705 7.98316C13.3159 8.09661 13.6273 8.26301 13.9046 8.48236C14.1819 8.69918 14.4139 8.96391 14.6004 9.27654C14.787 9.58665 14.9156 9.94088 14.9862 10.3392ZM18.0901 15.8002C17.722 15.8002 17.388 15.7308 17.0879 15.5922C16.7879 15.451 16.5497 15.248 16.3732 14.9833C16.1967 14.7161 16.1084 14.3933 16.1084 14.0152C16.1084 13.6824 16.174 13.4126 16.3051 13.2059C16.4362 12.9966 16.6114 12.8327 16.8308 12.7142C17.0501 12.5957 17.2921 12.5075 17.5569 12.4495C17.8241 12.389 18.0926 12.3411 18.3624 12.3058C18.7154 12.2604 19.0015 12.2264 19.2209 12.2037C19.4427 12.1785 19.6041 12.1369 19.7049 12.0789C19.8083 12.0209 19.86 11.92 19.86 11.7763V11.7461C19.86 11.3729 19.7579 11.083 19.5537 10.8763C19.352 10.6695 19.0457 10.5661 18.6347 10.5661C18.2086 10.5661 17.8745 10.6594 17.6325 10.846C17.3905 11.0326 17.2203 11.2317 17.122 11.4435L16.2748 11.141C16.4261 10.788 16.6278 10.5132 16.8799 10.3165C17.1346 10.1174 17.4119 9.9787 17.7119 9.90054C18.0145 9.81986 18.312 9.77952 18.6044 9.77952C18.791 9.77952 19.0053 9.80221 19.2473 9.8476C19.4919 9.89046 19.7276 9.97996 19.9545 10.1161C20.184 10.2523 20.3743 10.4577 20.5256 10.7325C20.6769 11.0074 20.7525 11.3755 20.7525 11.8368V15.664H19.86V14.8774H19.8146C19.7541 15.0035 19.6533 15.1384 19.5121 15.2821C19.3709 15.4258 19.1831 15.5481 18.9486 15.6489C18.7141 15.7498 18.428 15.8002 18.0901 15.8002ZM18.2263 14.9984C18.5792 14.9984 18.8767 14.9291 19.1188 14.7904C19.3633 14.6518 19.5474 14.4728 19.6709 14.2534C19.797 14.0341 19.86 13.8034 19.86 13.5613V12.7445C19.8222 12.7899 19.739 12.8315 19.6104 12.8693C19.4843 12.9046 19.3381 12.9361 19.1717 12.9638C19.0078 12.989 18.8477 13.0117 18.6914 13.0319C18.5376 13.0495 18.4128 13.0647 18.317 13.0773C18.0851 13.1075 17.8682 13.1567 17.6665 13.2248C17.4674 13.2903 17.306 13.3899 17.1825 13.5235C17.0615 13.6546 17.0009 13.8336 17.0009 14.0605C17.0009 14.3707 17.1157 14.6051 17.3451 14.764C17.577 14.9203 17.8708 14.9984 18.2263 14.9984ZM22.3815 15.664V9.85516H23.274V15.664H22.3815ZM22.8353 8.88701C22.6614 8.88701 22.5114 8.82777 22.3853 8.70927C22.2618 8.59077 22.2 8.44832 22.2 8.28192C22.2 8.11552 22.2618 7.97307 22.3853 7.85458C22.5114 7.73608 22.6614 7.67683 22.8353 7.67683C23.0093 7.67683 23.1581 7.73608 23.2816 7.85458C23.4077 7.97307 23.4707 8.11552 23.4707 8.28192C23.4707 8.44832 23.4077 8.59077 23.2816 8.70927C23.1581 8.82777 23.0093 8.88701 22.8353 8.88701ZM27.435 9.85516V10.6115H24.4247V9.85516H27.435ZM25.302 8.46345H26.1945V14C26.1945 14.2522 26.2311 14.4412 26.3042 14.5673C26.3799 14.6908 26.4757 14.774 26.5916 14.8169C26.7101 14.8572 26.8349 14.8774 26.966 14.8774C27.0644 14.8774 27.145 14.8724 27.2081 14.8623C27.2711 14.8497 27.3215 14.8396 27.3593 14.832L27.5409 15.6338C27.4804 15.6565 27.3959 15.6792 27.2875 15.7019C27.1791 15.7271 27.0417 15.7397 26.8753 15.7397C26.6232 15.7397 26.3761 15.6855 26.134 15.5771C25.8945 15.4686 25.6953 15.3035 25.5365 15.0816C25.3802 14.8598 25.302 14.5799 25.302 14.2421V8.46345ZM29.7948 7.91887V15.664H28.9023V7.91887H29.7948ZM31.4295 15.664V9.85516H32.322V15.664H31.4295ZM31.8833 8.88701C31.7094 8.88701 31.5594 8.82777 31.4333 8.70927C31.3098 8.59077 31.248 8.44832 31.248 8.28192C31.248 8.11552 31.3098 7.97307 31.4333 7.85458C31.5594 7.73608 31.7094 7.67683 31.8833 7.67683C32.0573 7.67683 32.2061 7.73608 32.3296 7.85458C32.4557 7.97307 32.5187 8.11552 32.5187 8.28192C32.5187 8.44832 32.4557 8.59077 32.3296 8.70927C32.2061 8.82777 32.0573 8.88701 31.8833 8.88701ZM34.8492 12.1696V15.664H33.9567V9.85516H34.819V10.7628H34.8946C35.0308 10.4678 35.2375 10.2308 35.5148 10.0518C35.7922 9.87029 36.1502 9.77952 36.5889 9.77952C36.9822 9.77952 37.3263 9.8602 37.6213 10.0216C37.9163 10.1804 38.1457 10.4224 38.3096 10.7477C38.4735 11.0704 38.5554 11.4788 38.5554 11.973V15.664H37.6629V12.0335C37.6629 11.5771 37.5444 11.2217 37.3074 10.967C37.0704 10.7098 36.7452 10.5813 36.3317 10.5813C36.0468 10.5813 35.7922 10.643 35.5678 10.7666C35.3459 10.8901 35.1707 11.0704 35.0421 11.3074C34.9135 11.5444 34.8492 11.8318 34.8492 12.1696ZM44.543 9.85516C44.4976 9.47193 44.3136 9.17443 43.9908 8.96265C43.6681 8.75087 43.2723 8.64498 42.8033 8.64498C42.4605 8.64498 42.1604 8.70044 41.9033 8.81138C41.6486 8.92231 41.4495 9.07484 41.3057 9.26898C41.1646 9.46311 41.094 9.68372 41.094 9.9308C41.094 10.1375 41.1431 10.3153 41.2415 10.464C41.3423 10.6103 41.4709 10.7325 41.6272 10.8309C41.7835 10.9267 41.9474 11.0061 42.1188 11.0691C42.2903 11.1296 42.4479 11.1788 42.5916 11.2166L43.3782 11.4284C43.5799 11.4813 43.8043 11.5545 44.0513 11.6477C44.3009 11.741 44.5392 11.8683 44.7661 12.0297C44.9955 12.1885 45.1846 12.3928 45.3334 12.6424C45.4821 12.892 45.5565 13.1983 45.5565 13.5613C45.5565 13.9799 45.4468 14.358 45.2275 14.6959C45.0107 15.0337 44.693 15.3022 44.2745 15.5014C43.8585 15.7006 43.353 15.8002 42.758 15.8002C42.2033 15.8002 41.723 15.7107 41.3171 15.5317C40.9137 15.3527 40.596 15.1031 40.3641 14.7829C40.1346 14.4627 40.0048 14.0908 39.9745 13.6672H40.9427C40.9679 13.9597 41.0662 14.2017 41.2377 14.3933C41.4116 14.5824 41.631 14.7236 41.8957 14.8169C42.163 14.9077 42.4504 14.9531 42.758 14.9531C43.116 14.9531 43.4374 14.8951 43.7223 14.7791C44.0072 14.6606 44.2329 14.4967 44.3993 14.2875C44.5657 14.0757 44.6489 13.8286 44.6489 13.5462C44.6489 13.2891 44.577 13.0798 44.4333 12.9184C44.2896 12.7571 44.1005 12.626 43.866 12.5251C43.6316 12.4243 43.3782 12.336 43.1059 12.2604L42.1529 11.9881C41.5478 11.8141 41.0688 11.5658 40.7158 11.2431C40.3628 10.9204 40.1863 10.4981 40.1863 9.97618C40.1863 9.54253 40.3036 9.16435 40.538 8.84163C40.775 8.5164 41.0927 8.26427 41.4911 8.08527C41.8919 7.90374 42.3394 7.81298 42.8336 7.81298C43.3328 7.81298 43.7765 7.90248 44.1648 8.08149C44.5531 8.25797 44.8607 8.50001 45.0876 8.8076C45.317 9.11518 45.438 9.46437 45.4506 9.85516H44.543ZM51.4401 17.7062C50.6686 17.7062 49.9866 17.6003 49.3941 17.3885C48.8016 17.1793 48.3037 16.8704 47.9003 16.462C47.4969 16.0536 47.1918 15.5531 46.9851 14.9606C46.7784 14.3681 46.675 13.6899 46.675 12.926C46.675 12.1873 46.7796 11.5267 46.9889 10.9443C47.2007 10.3619 47.507 9.86777 47.9079 9.46185C48.3112 9.05341 48.8004 8.74204 49.3752 8.52774C49.9526 8.31344 50.6056 8.20629 51.3342 8.20629C52.0426 8.20629 52.6629 8.32226 53.1948 8.55421C53.7293 8.78364 54.1756 9.09501 54.5336 9.48832C54.8941 9.87911 55.1639 10.3191 55.3429 10.8082C55.5244 11.2973 55.6152 11.8015 55.6152 12.3209C55.6152 12.6865 55.5976 13.0571 55.5623 13.4328C55.527 13.8084 55.4526 14.1538 55.3391 14.469C55.2257 14.7816 55.0504 15.0337 54.8135 15.2253C54.579 15.417 54.2613 15.5128 53.8604 15.5128C53.684 15.5128 53.4898 15.485 53.278 15.4296C53.0663 15.3741 52.8784 15.2821 52.7145 15.1535C52.5507 15.0249 52.4536 14.8522 52.4233 14.6354H52.378C52.3175 14.7816 52.2242 14.9203 52.0981 15.0514C51.9746 15.1825 51.812 15.2871 51.6103 15.3653C51.4111 15.4434 51.1678 15.4775 50.8804 15.4674C50.5526 15.4548 50.2639 15.3817 50.0143 15.248C49.7647 15.1119 49.5555 14.9278 49.3865 14.6959C49.2201 14.4614 49.0941 14.1904 49.0084 13.8828C48.9252 13.5727 48.8836 13.2386 48.8836 12.8806C48.8836 12.5402 48.934 12.2289 49.0348 11.9465C49.1357 11.6641 49.2756 11.4171 49.4546 11.2053C49.6361 10.9935 49.8479 10.8246 50.09 10.6985C50.3345 10.5699 50.598 10.4905 50.8804 10.4603C51.1325 10.435 51.3619 10.4464 51.5687 10.4943C51.7754 10.5397 51.9456 10.609 52.0792 10.7023C52.2128 10.7931 52.2973 10.8939 52.3326 11.0048H52.378V10.5813H53.1797V14C53.1797 14.2118 53.239 14.3984 53.3575 14.5597C53.476 14.7211 53.6487 14.8018 53.8756 14.8018C54.1327 14.8018 54.3294 14.7135 54.4655 14.5371C54.6042 14.3606 54.6987 14.0883 54.7492 13.7202C54.8021 13.3521 54.8286 12.8806 54.8286 12.3058C54.8286 11.9679 54.7819 11.6351 54.6887 11.3074C54.5979 10.9771 54.4592 10.6683 54.2727 10.3808C54.0886 10.0934 53.8554 9.84003 53.573 9.62069C53.2906 9.40134 52.9591 9.2299 52.5784 9.10636C52.2002 8.9803 51.7704 8.91727 51.2888 8.91727C50.6963 8.91727 50.1656 9.00929 49.6967 9.19334C49.2302 9.37487 48.8331 9.64086 48.5054 9.9913C48.1801 10.3392 47.9318 10.7628 47.7604 11.262C47.5914 11.7587 47.507 12.3234 47.507 12.9563C47.507 13.5992 47.5914 14.1702 47.7604 14.6694C47.9318 15.1686 48.1839 15.5897 48.5167 15.9325C48.852 16.2754 49.2668 16.5351 49.7609 16.7116C50.2551 16.8906 50.8249 16.9801 51.4703 16.9801C51.7477 16.9801 52.0212 16.9536 52.291 16.9007C52.5608 16.8477 52.799 16.7898 53.0057 16.7267C53.2125 16.6637 53.3612 16.6171 53.452 16.5868L53.6638 17.2827C53.5075 17.3482 53.3033 17.4138 53.0511 17.4793C52.8015 17.5449 52.5343 17.5991 52.2494 17.6419C51.967 17.6848 51.6972 17.7062 51.4401 17.7062ZM51.0014 14.6959C51.3392 14.6959 51.6128 14.6278 51.822 14.4917C52.0313 14.3555 52.1838 14.15 52.2796 13.8752C52.3754 13.6004 52.4233 13.2538 52.4233 12.8352C52.4233 12.4117 52.3704 12.0814 52.2645 11.8444C52.1586 11.6074 52.0023 11.441 51.7956 11.3452C51.5888 11.2494 51.3342 11.2015 51.0316 11.2015C50.7442 11.2015 50.4984 11.2771 50.2942 11.4284C50.0925 11.5771 49.9374 11.7763 49.829 12.0259C49.7231 12.273 49.6702 12.5428 49.6702 12.8352C49.6702 13.1579 49.713 13.4618 49.7988 13.7467C49.8845 14.029 50.0244 14.2585 50.2185 14.4349C50.4127 14.6089 50.6736 14.6959 51.0014 14.6959ZM56.9511 9.85516H57.8436V16.0876C57.8436 16.4456 57.7819 16.7557 57.6583 17.0179C57.5373 17.2801 57.3533 17.4831 57.1062 17.6268C56.8616 17.7705 56.5528 17.8424 56.1796 17.8424C56.1494 17.8424 56.1191 17.8424 56.0889 17.8424C56.0586 17.8424 56.0284 17.8424 55.9981 17.8424V17.0104C56.0284 17.0104 56.0561 17.0104 56.0813 17.0104C56.1065 17.0104 56.1343 17.0104 56.1645 17.0104C56.4368 17.0104 56.636 16.9297 56.762 16.7683C56.8881 16.6095 56.9511 16.3826 56.9511 16.0876V9.85516ZM57.3898 8.88701C57.2159 8.88701 57.0658 8.82777 56.9398 8.70927C56.8162 8.59077 56.7545 8.44832 56.7545 8.28192C56.7545 8.11552 56.8162 7.97307 56.9398 7.85458C57.0658 7.73608 57.2159 7.67683 57.3898 7.67683C57.5638 7.67683 57.7125 7.73608 57.8361 7.85458C57.9621 7.97307 58.0252 8.11552 58.0252 8.28192C58.0252 8.44832 57.9621 8.59077 57.8361 8.70927C57.7125 8.82777 57.5638 8.88701 57.3898 8.88701ZM61.8382 15.7851C61.3138 15.7851 60.8537 15.6603 60.4578 15.4107C60.0645 15.1611 59.7569 14.8119 59.5351 14.3631C59.3157 13.9143 59.206 13.3899 59.206 12.7899C59.206 12.1848 59.3157 11.6566 59.5351 11.2053C59.7569 10.754 60.0645 10.4035 60.4578 10.1539C60.8537 9.90432 61.3138 9.77952 61.8382 9.77952C62.3626 9.77952 62.8215 9.90432 63.2148 10.1539C63.6106 10.4035 63.9182 10.754 64.1375 11.2053C64.3594 11.6566 64.4703 12.1848 64.4703 12.7899C64.4703 13.3899 64.3594 13.9143 64.1375 14.3631C63.9182 14.8119 63.6106 15.1611 63.2148 15.4107C62.8215 15.6603 62.3626 15.7851 61.8382 15.7851ZM61.8382 14.9833C62.2365 14.9833 62.5643 14.8812 62.8215 14.677C63.0786 14.4728 63.269 14.2043 63.3925 13.8715C63.5161 13.5387 63.5778 13.1781 63.5778 12.7899C63.5778 12.4016 63.5161 12.0398 63.3925 11.7045C63.269 11.3691 63.0786 11.0981 62.8215 10.8914C62.5643 10.6846 62.2365 10.5813 61.8382 10.5813C61.4398 10.5813 61.1121 10.6846 60.8549 10.8914C60.5977 11.0981 60.4074 11.3691 60.2839 11.7045C60.1603 12.0398 60.0985 12.4016 60.0985 12.7899C60.0985 13.1781 60.1603 13.5387 60.2839 13.8715C60.4074 14.2043 60.5977 14.4728 60.8549 14.677C61.1121 14.8812 61.4398 14.9833 61.8382 14.9833ZM65.8327 15.664V9.85516H66.695V10.7325H66.7555C66.8614 10.4451 67.053 10.2119 67.3303 10.0329C67.6077 9.8539 67.9203 9.7644 68.2682 9.7644C68.3338 9.7644 68.4157 9.76566 68.514 9.76818C68.6124 9.7707 68.6867 9.77448 68.7372 9.77952V10.6872C68.7069 10.6796 68.6376 10.6682 68.5292 10.6531C68.4233 10.6355 68.3111 10.6267 68.1926 10.6267C67.9102 10.6267 67.6581 10.6859 67.4362 10.8044C67.2169 10.9204 67.0429 11.0817 66.9143 11.2885C66.7883 11.4927 66.7252 11.7259 66.7252 11.9881V15.664H65.8327ZM71.8118 15.7851C71.3277 15.7851 70.9004 15.6628 70.5297 15.4182C70.1591 15.1711 69.8692 14.8232 69.6599 14.3744C69.4507 13.9231 69.346 13.3899 69.346 12.7747C69.346 12.1646 69.4507 11.6351 69.6599 11.1864C69.8692 10.7376 70.1604 10.3909 70.5335 10.1464C70.9067 9.9018 71.3378 9.77952 71.8269 9.77952C72.2051 9.77952 72.5039 9.84255 72.7232 9.96861C72.9451 10.0922 73.114 10.2333 73.23 10.3922C73.3485 10.5485 73.4405 10.6771 73.506 10.7779H73.5817V7.91887H74.4742V15.664H73.6119V14.7715H73.506C73.4405 14.8774 73.3472 15.011 73.2262 15.1724C73.1052 15.3312 72.9325 15.4737 72.7081 15.5997C72.4837 15.7233 72.1849 15.7851 71.8118 15.7851ZM71.9328 14.9833C72.2908 14.9833 72.5934 14.89 72.8404 14.7035C73.0875 14.5144 73.2753 14.2534 73.4039 13.9206C73.5325 13.5853 73.5968 13.1983 73.5968 12.7596C73.5968 12.3259 73.5338 11.9465 73.4077 11.6213C73.2817 11.2935 73.0951 11.0389 72.848 10.8573C72.6009 10.6733 72.2959 10.5813 71.9328 10.5813C71.5546 10.5813 71.2395 10.6783 70.9873 10.8725C70.7377 11.0641 70.5499 11.325 70.4239 11.6553C70.3003 11.9831 70.2385 12.3512 70.2385 12.7596C70.2385 13.1731 70.3016 13.5487 70.4276 13.8866C70.5562 14.2219 70.7453 14.4891 70.9949 14.6883C71.247 14.885 71.5597 14.9833 71.9328 14.9833ZM77.9421 15.8002C77.574 15.8002 77.24 15.7308 76.9399 15.5922C76.6399 15.451 76.4016 15.248 76.2252 14.9833C76.0487 14.7161 75.9604 14.3933 75.9604 14.0152C75.9604 13.6824 76.026 13.4126 76.1571 13.2059C76.2882 12.9966 76.4634 12.8327 76.6828 12.7142C76.9021 12.5957 77.1441 12.5075 77.4089 12.4495C77.6761 12.389 77.9446 12.3411 78.2144 12.3058C78.5674 12.2604 78.8535 12.2264 79.0729 12.2037C79.2947 12.1785 79.4561 12.1369 79.5569 12.0789C79.6603 12.0209 79.712 11.92 79.712 11.7763V11.7461C79.712 11.3729 79.6099 11.083 79.4057 10.8763C79.204 10.6695 78.8976 10.5661 78.4867 10.5661C78.0606 10.5661 77.7265 10.6594 77.4845 10.846C77.2425 11.0326 77.0723 11.2317 76.974 11.4435L76.1268 11.141C76.2781 10.788 76.4798 10.5132 76.7319 10.3165C76.9866 10.1174 77.2639 9.9787 77.5639 9.90054C77.8665 9.81986 78.164 9.77952 78.4564 9.77952C78.643 9.77952 78.8573 9.80221 79.0993 9.8476C79.3439 9.89046 79.5796 9.97996 79.8065 10.1161C80.036 10.2523 80.2263 10.4577 80.3776 10.7325C80.5289 11.0074 80.6045 11.3755 80.6045 11.8368V15.664H79.712V14.8774H79.6666C79.6061 15.0035 79.5053 15.1384 79.3641 15.2821C79.2229 15.4258 79.0351 15.5481 78.8006 15.6489C78.5661 15.7498 78.28 15.8002 77.9421 15.8002ZM78.0783 14.9984C78.4312 14.9984 78.7287 14.9291 78.9708 14.7904C79.2153 14.6518 79.3994 14.4728 79.5229 14.2534C79.649 14.0341 79.712 13.8034 79.712 13.5613V12.7445C79.6742 12.7899 79.591 12.8315 79.4624 12.8693C79.3363 12.9046 79.1901 12.9361 79.0237 12.9638C78.8598 12.989 78.6997 13.0117 78.5434 13.0319C78.3896 13.0495 78.2648 13.0647 78.169 13.0773C77.9371 13.1075 77.7202 13.1567 77.5185 13.2248C77.3194 13.2903 77.158 13.3899 77.0345 13.5235C76.9135 13.6546 76.8529 13.8336 76.8529 14.0605C76.8529 14.3707 76.9677 14.6051 77.1971 14.764C77.429 14.9203 77.7228 14.9984 78.0783 14.9984ZM83.126 12.1696V15.664H82.2335V9.85516H83.0958V10.7628H83.1714C83.3076 10.4678 83.5143 10.2308 83.7916 10.0518C84.069 9.87029 84.427 9.77952 84.8657 9.77952C85.259 9.77952 85.6031 9.8602 85.8981 10.0216C86.1931 10.1804 86.4225 10.4224 86.5864 10.7477C86.7503 11.0704 86.8322 11.4788 86.8322 11.973V15.664H85.9397V12.0335C85.9397 11.5771 85.8212 11.2217 85.5842 10.967C85.3472 10.7098 85.022 10.5813 84.6085 10.5813C84.3236 10.5813 84.069 10.643 83.8446 10.7666C83.6227 10.8901 83.4475 11.0704 83.3189 11.3074C83.1903 11.5444 83.126 11.8318 83.126 12.1696ZM88.5841 15.664V7.91887H89.4767V10.7779H89.5523C89.6178 10.6771 89.7086 10.5485 89.8246 10.3922C89.9431 10.2333 90.112 10.0922 90.3313 9.96861C90.5532 9.84255 90.8532 9.77952 91.2314 9.77952C91.7205 9.77952 92.1517 9.9018 92.5248 10.1464C92.8979 10.3909 93.1891 10.7376 93.3984 11.1864C93.6077 11.6351 93.7123 12.1646 93.7123 12.7747C93.7123 13.3899 93.6077 13.9231 93.3984 14.3744C93.1891 14.8232 92.8992 15.1711 92.5286 15.4182C92.158 15.6628 91.7306 15.7851 91.2465 15.7851C90.8734 15.7851 90.5746 15.7233 90.3503 15.5997C90.1259 15.4737 89.9532 15.3312 89.8321 15.1724C89.7111 15.011 89.6178 14.8774 89.5523 14.7715H89.4464V15.664H88.5841ZM89.4615 12.7596C89.4615 13.1983 89.5258 13.5853 89.6544 13.9206C89.783 14.2534 89.9708 14.5144 90.2179 14.7035C90.465 14.89 90.7675 14.9833 91.1255 14.9833C91.4987 14.9833 91.81 14.885 92.0596 14.6883C92.3118 14.4891 92.5008 14.2219 92.6269 13.8866C92.7555 13.5487 92.8198 13.1731 92.8198 12.7596C92.8198 12.3512 92.7568 11.9831 92.6307 11.6553C92.5072 11.325 92.3193 11.0641 92.0672 10.8725C91.8176 10.6783 91.5037 10.5813 91.1255 10.5813C90.7625 10.5813 90.4574 10.6733 90.2103 10.8573C89.9632 11.0389 89.7767 11.2935 89.6506 11.6213C89.5246 11.9465 89.4615 12.3259 89.4615 12.7596ZM95.0775 15.664V9.85516H95.9398V10.7325H96.0003C96.1062 10.4451 96.2978 10.2119 96.5751 10.0329C96.8525 9.8539 97.1651 9.7644 97.513 9.7644C97.5786 9.7644 97.6605 9.76566 97.7588 9.76818C97.8572 9.7707 97.9315 9.77448 97.982 9.77952V10.6872C97.9517 10.6796 97.8824 10.6682 97.774 10.6531C97.6681 10.6355 97.5559 10.6267 97.4374 10.6267C97.155 10.6267 96.9029 10.6859 96.681 10.8044C96.4617 10.9204 96.2877 11.0817 96.1591 11.2885C96.0331 11.4927 95.97 11.7259 95.97 11.9881V15.664H95.0775ZM100.749 15.8002C100.381 15.8002 100.047 15.7308 99.7471 15.5922C99.4471 15.451 99.2089 15.248 99.0324 14.9833C98.8559 14.7161 98.7676 14.3933 98.7676 14.0152C98.7676 13.6824 98.8332 13.4126 98.9643 13.2059C99.0954 12.9966 99.2706 12.8327 99.49 12.7142C99.7093 12.5957 99.9514 12.5075 100.216 12.4495C100.483 12.389 100.752 12.3411 101.022 12.3058C101.375 12.2604 101.661 12.2264 101.88 12.2037C102.102 12.1785 102.263 12.1369 102.364 12.0789C102.468 12.0209 102.519 11.92 102.519 11.7763V11.7461C102.519 11.3729 102.417 11.083 102.213 10.8763C102.011 10.6695 101.705 10.5661 101.294 10.5661C100.868 10.5661 100.534 10.6594 100.292 10.846C100.05 11.0326 99.8795 11.2317 99.7812 11.4435L98.934 11.141C99.0853 10.788 99.287 10.5132 99.5391 10.3165C99.7938 10.1174 100.071 9.9787 100.371 9.90054C100.674 9.81986 100.971 9.77952 101.264 9.77952C101.45 9.77952 101.665 9.80221 101.907 9.8476C102.151 9.89046 102.387 9.97996 102.614 10.1161C102.843 10.2523 103.034 10.4577 103.185 10.7325C103.336 11.0074 103.412 11.3755 103.412 11.8368V15.664H102.519V14.8774H102.474C102.413 15.0035 102.312 15.1384 102.171 15.2821C102.03 15.4258 101.842 15.5481 101.608 15.6489C101.373 15.7498 101.087 15.8002 100.749 15.8002ZM100.885 14.9984C101.238 14.9984 101.536 14.9291 101.778 14.7904C102.023 14.6518 102.207 14.4728 102.33 14.2534C102.456 14.0341 102.519 13.8034 102.519 13.5613V12.7445C102.481 12.7899 102.398 12.8315 102.27 12.8693C102.144 12.9046 101.997 12.9361 101.831 12.9638C101.667 12.989 101.507 13.0117 101.351 13.0319C101.197 13.0495 101.072 13.0647 100.976 13.0773C100.744 13.1075 100.527 13.1567 100.326 13.2248C100.127 13.2903 99.9652 13.3899 99.8417 13.5235C99.7207 13.6546 99.6602 13.8336 99.6602 14.0605C99.6602 14.3707 99.7749 14.6051 100.004 14.764C100.236 14.9203 100.53 14.9984 100.885 14.9984ZM105.933 12.1696V15.664H105.041V9.85516H105.903V10.7628H105.979C106.115 10.4678 106.322 10.2308 106.599 10.0518C106.876 9.87029 107.234 9.77952 107.673 9.77952C108.066 9.77952 108.41 9.8602 108.705 10.0216C109 10.1804 109.23 10.4224 109.394 10.7477C109.557 11.0704 109.639 11.4788 109.639 11.973V15.664H108.747V12.0335C108.747 11.5771 108.628 11.2217 108.391 10.967C108.154 10.7098 107.829 10.5813 107.416 10.5813C107.131 10.5813 106.876 10.643 106.652 10.7666C106.43 10.8901 106.255 11.0704 106.126 11.3074C105.998 11.5444 105.933 11.8318 105.933 12.1696ZM113.464 15.7851C112.98 15.7851 112.552 15.6628 112.182 15.4182C111.811 15.1711 111.521 14.8232 111.312 14.3744C111.103 13.9231 110.998 13.3899 110.998 12.7747C110.998 12.1646 111.103 11.6351 111.312 11.1864C111.521 10.7376 111.812 10.3909 112.186 10.1464C112.559 9.9018 112.99 9.77952 113.479 9.77952C113.857 9.77952 114.156 9.84255 114.375 9.96861C114.597 10.0922 114.766 10.2333 114.882 10.3922C115 10.5485 115.092 10.6771 115.158 10.7779H115.234V7.91887H116.126V15.664H115.264V14.7715H115.158C115.092 14.8774 114.999 15.011 114.878 15.1724C114.757 15.3312 114.584 15.4737 114.36 15.5997C114.136 15.7233 113.837 15.7851 113.464 15.7851ZM113.585 14.9833C113.943 14.9833 114.245 14.89 114.492 14.7035C114.74 14.5144 114.927 14.2534 115.056 13.9206C115.185 13.5853 115.249 13.1983 115.249 12.7596C115.249 12.3259 115.186 11.9465 115.06 11.6213C114.934 11.2935 114.747 11.0389 114.5 10.8573C114.253 10.6733 113.948 10.5813 113.585 10.5813C113.207 10.5813 112.891 10.6783 112.639 10.8725C112.39 11.0641 112.202 11.325 112.076 11.6553C111.952 11.9831 111.891 12.3512 111.891 12.7596C111.891 13.1731 111.954 13.5487 112.08 13.8866C112.208 14.2219 112.397 14.4891 112.647 14.6883C112.899 14.885 113.212 14.9833 113.585 14.9833ZM118.535 15.7245C118.349 15.7245 118.189 15.6577 118.055 15.5241C117.921 15.3905 117.854 15.2304 117.854 15.0438C117.854 14.8572 117.921 14.6971 118.055 14.5635C118.189 14.4299 118.349 14.3631 118.535 14.3631C118.722 14.3631 118.882 14.4299 119.015 14.5635C119.149 14.6971 119.216 14.8572 119.216 15.0438C119.216 15.1674 119.184 15.2808 119.121 15.3842C119.061 15.4875 118.979 15.5707 118.876 15.6338C118.775 15.6943 118.661 15.7245 118.535 15.7245ZM123.177 15.7851C122.633 15.7851 122.164 15.6565 121.771 15.3993C121.377 15.1421 121.075 14.7879 120.863 14.3366C120.651 13.8853 120.545 13.3697 120.545 12.7899C120.545 12.1999 120.654 11.6793 120.87 11.228C121.09 10.7741 121.395 10.4199 121.786 10.1653C122.179 9.9081 122.638 9.77952 123.162 9.77952C123.571 9.77952 123.939 9.85516 124.267 10.0064C124.594 10.1577 124.863 10.3695 125.072 10.6418C125.281 10.9141 125.411 11.2317 125.462 11.5948H124.569C124.501 11.3301 124.35 11.0956 124.115 10.8914C123.883 10.6846 123.571 10.5813 123.177 10.5813C122.829 10.5813 122.524 10.672 122.262 10.8536C122.002 11.0326 121.8 11.2859 121.653 11.6137C121.51 11.9389 121.438 12.3209 121.438 12.7596C121.438 13.2084 121.508 13.5992 121.65 13.932C121.793 14.2648 121.995 14.5232 122.255 14.7072C122.517 14.8913 122.824 14.9833 123.177 14.9833C123.409 14.9833 123.62 14.943 123.809 14.8623C123.998 14.7816 124.158 14.6656 124.289 14.5144C124.42 14.3631 124.514 14.1816 124.569 13.9698H125.462C125.411 14.3127 125.286 14.6215 125.087 14.8963C124.891 15.1686 124.63 15.3854 124.304 15.5468C123.982 15.7056 123.606 15.7851 123.177 15.7851ZM129.126 15.7851C128.602 15.7851 128.142 15.6603 127.746 15.4107C127.353 15.1611 127.045 14.8119 126.823 14.3631C126.604 13.9143 126.494 13.3899 126.494 12.7899C126.494 12.1848 126.604 11.6566 126.823 11.2053C127.045 10.754 127.353 10.4035 127.746 10.1539C128.142 9.90432 128.602 9.77952 129.126 9.77952C129.651 9.77952 130.109 9.90432 130.503 10.1539C130.899 10.4035 131.206 10.754 131.426 11.2053C131.647 11.6566 131.758 12.1848 131.758 12.7899C131.758 13.3899 131.647 13.9143 131.426 14.3631C131.206 14.8119 130.899 15.1611 130.503 15.4107C130.109 15.6603 129.651 15.7851 129.126 15.7851ZM129.126 14.9833C129.525 14.9833 129.852 14.8812 130.109 14.677C130.367 14.4728 130.557 14.2043 130.681 13.8715C130.804 13.5387 130.866 13.1781 130.866 12.7899C130.866 12.4016 130.804 12.0398 130.681 11.7045C130.557 11.3691 130.367 11.0981 130.109 10.8914C129.852 10.6846 129.525 10.5813 129.126 10.5813C128.728 10.5813 128.4 10.6846 128.143 10.8914C127.886 11.0981 127.695 11.3691 127.572 11.7045C127.448 12.0398 127.387 12.4016 127.387 12.7899C127.387 13.1781 127.448 13.5387 127.572 13.8715C127.695 14.2043 127.886 14.4728 128.143 14.677C128.4 14.8812 128.728 14.9833 129.126 14.9833ZM133.121 15.664V9.85516H133.983V10.7628H134.059C134.18 10.4527 134.375 10.2119 134.645 10.0405C134.915 9.8665 135.239 9.77952 135.617 9.77952C136 9.77952 136.319 9.8665 136.574 10.0405C136.831 10.2119 137.031 10.4527 137.175 10.7628H137.235C137.384 10.4628 137.607 10.2245 137.905 10.048C138.202 9.86903 138.559 9.77952 138.975 9.77952C139.494 9.77952 139.919 9.94214 140.249 10.2674C140.58 10.5901 140.745 11.0931 140.745 11.7763V15.664H139.852V11.7763C139.852 11.3477 139.735 11.0414 139.501 10.8573C139.266 10.6733 138.99 10.5813 138.672 10.5813C138.264 10.5813 137.948 10.7048 137.723 10.9519C137.499 11.1964 137.387 11.5066 137.387 11.8822V15.664H136.479V11.6856C136.479 11.3553 136.372 11.0893 136.158 10.8876C135.943 10.6834 135.667 10.5813 135.329 10.5813C135.097 10.5813 134.881 10.643 134.679 10.7666C134.48 10.8901 134.318 11.0616 134.195 11.2809C134.074 11.4977 134.013 11.7486 134.013 12.0335V15.664H133.121Z" fill="white"/>
<path d="M7.81586 17.7818H141.562V18.508H7.81586V17.7818Z" fill="white"/>
</g>
<a href="mailto:CaitlinS@jordanbrand.com">
<rect fill="black" fill-opacity="0" y="-0.869819" width="133.746" height="12.8884"/>
</a>
<defs>
<filter id="filter0_f_1_1282" x="0.327857" y="0.188819" width="148.722" height="25.8071" filterUnits="userSpaceOnUse" color-interpolation-filters="sRGB">
<feFlood flood-opacity="0" result="BackgroundImageFix"/>
<feBlend mode="normal" in="SourceGraphic" in2="BackgroundImageFix" result="shape"/>
<feGaussianBlur stdDeviation="3.744" result="effect1_foregroundBlur_1_1282"/>
</filter>
</defs>
</svg>
