<svg width="76" height="14" viewBox="0 0 76 14" fill="none" xmlns="http://www.w3.org/2000/svg">
<path fill-rule="evenodd" clip-rule="evenodd" d="M6.94312 13.5665C10.4598 13.5665 13.3104 10.7159 13.3104 7.19928C13.3104 3.68264 10.4598 0.832031 6.94312 0.832031C3.42699 0.832031 0.575867 3.68264 0.575867 7.19928C0.575867 10.7159 3.42699 13.5665 6.94312 13.5665ZM8.2313 4.83198C8.07488 4.83085 7.91854 4.82973 7.76244 4.83495C7.44462 4.84628 7.20973 4.96733 7.1984 5.36396C7.19067 5.65345 7.18706 6.32 7.18706 6.32C7.18706 6.32 7.93294 6.32155 8.25797 6.32H8.5145C8.48723 6.52878 8.46071 6.73376 8.4344 6.9371C8.40255 7.18327 8.371 7.42702 8.33884 7.67216H7.19633V11.0487H5.79627V7.6665H4.65016V6.32103H5.80297V6.22007C5.80282 6.1438 5.80231 6.06761 5.8018 5.99147C5.80049 5.79712 5.79919 5.60308 5.804 5.40878C5.80812 5.23622 5.81585 5.06108 5.84572 4.89161C5.91732 4.48107 6.10637 4.13337 6.45046 3.88612C6.75077 3.6708 7.09434 3.58221 7.45749 3.57499C7.68203 3.56964 7.90703 3.57994 8.13162 3.59022C8.14455 3.59081 8.15748 3.5914 8.1704 3.59199C8.26247 3.59603 8.35479 3.60633 8.44496 3.61639C8.48142 3.62046 8.51753 3.62449 8.55313 3.62805V4.83289H8.45732C8.38197 4.83306 8.30663 4.83252 8.2313 4.83198Z" fill="white"/>
<path fill-rule="evenodd" clip-rule="evenodd" d="M22.5896 13.5665C26.1062 13.5665 28.9569 10.7159 28.9569 7.19928C28.9569 3.68264 26.1062 0.832031 22.5896 0.832031C19.0735 0.832031 16.2224 3.68264 16.2224 7.19928C16.2224 10.7159 19.0735 13.5665 22.5896 13.5665ZM23.027 6.49801L25.0512 4.35321H25.6726L23.2984 6.86851L25.7435 10.2054H23.914L22.2686 7.95985L20.1363 10.2193H19.5149L21.9972 7.58935L19.6257 4.35321H21.4556L23.027 6.49801ZM24.1427 9.75362H24.852L22.9828 7.20287L22.7114 6.83237L21.2263 4.80504H20.5169L22.3124 7.25535L22.5838 7.62585L24.1427 9.75362Z" fill="white"/>
<path fill-rule="evenodd" clip-rule="evenodd" d="M38.2356 13.5654C41.7519 13.5654 44.6023 10.7151 44.6023 7.19872C44.6023 3.68237 41.7519 0.832001 38.2356 0.832001C34.7197 0.832001 31.8689 3.68237 31.8689 7.19872C31.8689 10.7151 34.7197 13.5654 38.2356 13.5654ZM36.1591 3.80393C36.5721 3.80393 36.9069 4.13924 36.9069 4.55129C36.9069 4.96438 36.5721 5.3002 36.1591 5.3002C35.745 5.3002 35.4102 4.96438 35.4102 4.55129C35.4102 4.13924 35.745 3.80393 36.1591 3.80393ZM35.5128 10.0177H36.8051V5.86678H35.5128V10.0177ZM37.6144 5.86658H38.8521V6.43418H38.8691C39.0417 6.10763 39.4625 5.76357 40.0908 5.76357C41.397 5.76357 41.6381 6.6227 41.6381 7.7409V10.0175H40.3489V7.99947C40.3489 7.51788 40.3391 6.89877 39.6783 6.89877C39.0061 6.89877 38.9041 7.42311 38.9041 7.96444V10.0175H37.6144V5.86658Z" fill="white"/>
<path fill-rule="evenodd" clip-rule="evenodd" d="M53.8815 13.5665C57.3981 13.5665 60.2488 10.7159 60.2488 7.19925C60.2488 3.68261 57.3981 0.832001 53.8815 0.832001C50.3654 0.832001 47.5143 3.68261 47.5143 7.19925C47.5143 10.7159 50.3654 13.5665 53.8815 13.5665ZM55.5845 5.82122C55.808 5.82173 55.9899 5.64093 55.9904 5.41737C55.9909 5.19382 55.8101 5.01198 55.5865 5.01147C55.363 5.01095 55.1811 5.19175 55.1806 5.41531C55.1801 5.63887 55.3609 5.8207 55.5845 5.82122ZM52.668 7.20129C52.6623 7.81891 53.1584 8.32371 53.776 8.32938C54.3941 8.33505 54.8989 7.839 54.9046 7.22138C54.9102 6.60377 54.4142 6.09845 53.7966 6.09278C53.1785 6.08712 52.6736 6.58368 52.668 7.20129ZM52.058 7.21153C52.0585 6.256 52.8332 5.48231 53.7887 5.48283C54.7437 5.48334 55.5174 6.25806 55.5169 7.21307C55.5164 8.16808 54.7417 8.94229 53.7867 8.94178C52.8316 8.94126 52.0574 8.16654 52.058 7.21153ZM55.4112 9.92098C56.0036 9.85659 56.3945 9.49138 56.4847 8.9021C56.5758 8.30766 56.5588 6.14369 56.4986 5.59047C56.4337 4.99706 56.0695 4.60507 55.4818 4.51492C54.909 4.42735 52.7589 4.43457 52.1614 4.50153C51.5726 4.56746 51.1816 4.93164 51.093 5.51578C50.9983 6.13648 51.0173 8.4555 51.0941 8.91961C51.1739 9.40587 51.45 9.7376 51.9327 9.87256C52.4375 10.0137 54.8672 9.98073 55.4112 9.92098ZM56.5597 4.38101C56.8899 4.69574 57.0599 5.08825 57.1052 5.53227C57.1593 6.06335 57.2134 8.56986 57.0588 9.15915C56.8574 9.92614 56.3578 10.3825 55.5815 10.5077C54.9948 10.603 52.3801 10.6205 51.848 10.483C51.0795 10.2852 50.621 9.78758 50.4933 9.01234C50.399 8.44469 50.3671 5.79961 50.5278 5.22578C50.7369 4.47991 51.2319 4.03897 51.9871 3.91586C52.648 3.80821 54.5307 3.83551 55.3234 3.87878C55.7886 3.9035 56.213 4.04979 56.5597 4.38101Z" fill="white"/>
<path fill-rule="evenodd" clip-rule="evenodd" d="M69.528 13.5665C73.0446 13.5665 75.8952 10.7159 75.8952 7.19925C75.8952 3.68261 73.0446 0.832001 69.528 0.832001C66.0119 0.832001 63.1607 3.68261 63.1607 7.19925C63.1607 10.7159 66.0119 13.5665 69.528 13.5665ZM70.7827 7.13003L68.7027 8.20867V6.0447C69.396 6.40682 70.0842 6.76585 70.7827 7.13003ZM66.3549 8.90933C66.4461 9.16019 66.616 9.32606 66.869 9.40847C67.4356 9.59546 71.8696 9.59855 72.3003 9.37242C72.4594 9.28897 72.5851 9.17204 72.6624 9.00669C72.9462 8.39732 72.938 6.0953 72.6943 5.46275C72.6016 5.22168 72.4306 5.06354 72.1895 4.977C71.7779 4.82865 68.2088 4.81114 67.0544 4.93528C66.8298 4.95949 66.6413 5.06045 66.4945 5.23249C66.0664 5.7373 66.1324 8.29739 66.3549 8.90933Z" fill="white"/>
</svg>
